<svg width="42" height="40" viewBox="0 0 42 40" fill="none" xmlns="http://www.w3.org/2000/svg">
<path d="M4.15845 2.58243L4.15737 2.58297C4.0221 2.65266 3.91321 2.72666 3.81996 2.81992C3.7267 2.91317 3.6527 3.02206 3.58302 3.15733L3.58173 3.15984L3.58177 3.15985C3.56621 3.19226 3.54364 3.25926 3.51626 3.34742C3.48788 3.43885 3.45193 3.56118 3.40947 3.71043C3.32453 4.00906 3.21304 4.41739 3.08309 4.90593C2.82316 5.88311 2.48904 7.18249 2.14517 8.56967L2.14519 8.5696L2.24223 8.59375L2.14517 8.56969L4.15845 2.58243ZM4.15845 2.58243L4.5022 2.41056L4.52331 2.4H4.54692H21H37.4532H37.4768L37.4979 2.41056L37.8416 2.58242L37.8427 2.58298C37.978 2.65266 38.0869 2.72666 38.1801 2.81992C38.2734 2.91317 38.3474 3.02206 38.4171 3.15731L38.4183 3.15985C38.4339 3.19226 38.4564 3.25926 38.4838 3.34742C38.5122 3.43885 38.5482 3.56118 38.5906 3.71043C38.6755 4.00906 38.787 4.41739 38.917 4.90593C39.1769 5.8831 39.511 7.18245 39.8549 8.5696L4.15845 2.58243ZM4.01787 37.3767C4.045 37.3978 4.07645 37.4216 4.1219 37.4421C4.16717 37.4626 4.22177 37.478 4.29627 37.4904C4.44303 37.5148 4.68442 37.5302 5.11976 37.5404C5.99301 37.5609 7.67146 37.5609 10.996 37.5609H11H11.004C14.3286 37.5609 16.0071 37.5609 16.8803 37.5404C17.3157 37.5302 17.5571 37.5148 17.7038 37.4904C17.7783 37.478 17.8329 37.4626 17.8782 37.4421C17.9236 37.4216 17.9551 37.3977 17.9822 37.3767C17.9826 37.3764 17.983 37.3761 17.9833 37.3758L4.01787 37.3767ZM4.01787 37.3767C4.01826 37.3769 4.01864 37.3772 4.01903 37.3775L4.07817 37.2969L4.01677 37.3758C4.01714 37.3761 4.0175 37.3764 4.01787 37.3767ZM25.2032 17.4375C24.461 17.2969 23.8204 16.9453 23.3125 16.3984C22.6329 15.6719 22.3985 15.1094 22.2579 13.875C22.1485 12.9297 21.7813 12.5391 21 12.5391C20.2188 12.5391 19.8516 12.9297 19.7422 13.875C19.6016 15.1094 19.3672 15.6719 18.6875 16.3984C18.1797 16.9453 17.5391 17.2969 16.7969 17.4375M25.2032 17.4375L25.2217 17.3392M25.2032 17.4375L25.2218 17.3392C25.2218 17.3392 25.2218 17.3392 25.2217 17.3392M25.2032 17.4375C26.1954 17.625 27.3047 17.2188 28.0625 16.3984H13.9375M25.2217 17.3392C24.5002 17.2025 23.8789 16.8614 23.3858 16.3304L23.3856 16.3301C23.051 15.9725 22.8305 15.6601 22.6753 15.2886C22.5195 14.9156 22.4271 14.4772 22.3572 13.8637L22.3572 13.8635C22.3016 13.3828 22.1787 13.023 21.9537 12.784C21.7254 12.5414 21.4074 12.4391 21 12.4391C20.5927 12.4391 20.2747 12.5414 20.0464 12.784C19.8214 13.023 19.6985 13.3828 19.6429 13.8635L19.6429 13.8637C19.573 14.4772 19.4806 14.9156 19.3248 15.2886C19.1696 15.6601 18.9491 15.9725 18.6145 16.3301L18.6143 16.3304C18.1212 16.8614 17.4999 17.2025 16.7783 17.3392M25.2217 17.3392C26.1757 17.5195 27.2515 17.129 27.9891 16.3306L27.9895 16.3301C28.3241 15.9725 28.5446 15.6601 28.6998 15.2886C28.8556 14.9156 28.948 14.4772 29.0179 13.8637L29.0179 13.8635C29.0735 13.3828 29.1964 13.023 29.4214 12.784C29.6497 12.5414 29.9677 12.4391 30.375 12.4391C30.7824 12.4391 31.1004 12.5414 31.3287 12.784C31.5537 13.023 31.6766 13.3828 31.7322 13.8635L31.7322 13.8637C31.8021 14.4772 31.8945 14.9156 32.0503 15.2886C32.2055 15.6601 32.426 15.9725 32.7606 16.3301L32.761 16.3306C33.4985 17.1289 34.5743 17.5196 35.5363 17.3392L35.5364 17.3392C36.999 17.0664 38.0411 15.9693 38.3391 14.365C38.3709 14.1814 38.3798 14.0418 38.244 13.4066C38.1078 12.7691 37.8291 11.6463 37.2936 9.50077L36.1954 5.1H21H5.80472L4.70644 9.50077C4.17103 11.6463 3.8923 12.7691 3.75604 13.4066C3.62023 14.042 3.62922 14.1815 3.66097 14.3652C3.95909 15.9693 5.001 17.0663 6.47141 17.3392L6.47174 17.3392C7.42567 17.5195 8.50146 17.129 9.23909 16.3306L9.23951 16.3301C9.57405 15.9725 9.79458 15.6601 9.94976 15.2886C10.1056 14.9156 10.198 14.4772 10.2679 13.8637L10.2679 13.8635C10.3235 13.3828 10.4464 13.023 10.6714 12.784C10.8997 12.5414 11.2177 12.4391 11.625 12.4391C12.0324 12.4391 12.3504 12.5414 12.5787 12.784C12.8037 13.023 12.9266 13.3828 12.9822 13.8635L12.9822 13.8637C13.0521 14.4772 13.1445 14.9156 13.3003 15.2886C13.4555 15.6601 13.676 15.9725 14.0106 16.3301L14.011 16.3306C14.7486 17.129 15.8244 17.5195 16.7783 17.3392M16.7783 17.3392L16.7969 17.4375M16.7783 17.3392C16.7783 17.3392 16.7783 17.3392 16.7783 17.3392L16.7969 17.4375M16.7969 17.4375C15.8047 17.625 14.6954 17.2188 13.9375 16.3984M13.9375 16.3984C13.2579 15.6719 13.0235 15.1094 12.8829 13.875C12.7735 12.9297 12.4063 12.5391 11.625 12.5391C10.8438 12.5391 10.4766 12.9297 10.3672 13.875L13.9375 16.3984ZM12.0924 18.2572L12.0925 18.2573C14.4756 20.7039 18.1576 20.7037 20.5483 18.2415L21.0006 17.7758L21.4595 18.2415C21.4596 18.2416 21.4596 18.2416 21.4597 18.2417C23.8506 20.7039 27.5247 20.7037 29.9232 18.2417L29.9233 18.2415L30.3751 17.7763L30.8345 18.2493L12.0924 18.2572ZM12.0924 18.2572C11.9523 18.1132 11.8202 17.9811 11.7214 17.8852C11.6802 17.8453 11.6452 17.812 11.618 17.7869C11.5916 17.8119 11.5577 17.8449 11.5177 17.8845C11.4207 17.9805 11.2905 18.1126 11.1503 18.2568C9.95124 19.5113 8.22735 20.1958 6.60208 20.0763L6.60175 20.0763L6.10004 20.0377M12.0924 18.2572L6.10004 20.0377M6.10004 20.0377V27.4609V34.9H11H15.9004L15.9157 30.3981L15.9157 30.3979L15.9159 30.3527C15.9275 28.1259 15.9334 26.9825 15.9568 26.3702C15.9685 26.0632 15.9847 25.8827 16.0102 25.7643C16.0232 25.7036 16.0392 25.6567 16.0595 25.616C16.0795 25.5758 16.102 25.5453 16.1234 25.5178C16.2153 25.3929 16.3929 25.2153 16.5179 25.1233C16.578 25.0766 16.6362 25.0378 16.756 25.0107C16.8682 24.9854 17.0359 24.9699 17.3177 24.9596C17.883 24.9391 18.9369 24.9391 20.9943 24.9391H21H21.0058C23.0632 24.9391 24.1171 24.9391 24.6824 24.9596C24.9641 24.9699 25.1319 24.9854 25.2441 25.0107C25.3639 25.0378 25.4221 25.0766 25.4822 25.1233C25.4826 25.1236 25.4829 25.1239 25.4833 25.1242L6.10004 20.0377ZM0.931611 14.2345C0.931607 14.2345 0.931603 14.2344 0.931599 14.2344L1.03129 14.2266L0.931619 14.2346C0.931617 14.2346 0.931614 14.2346 0.931611 14.2345ZM3.41567 27.7893L3.41567 27.7892L3.70317 36.9219L3.62423 36.9833C3.62395 36.9829 3.62366 36.9825 3.62338 36.9822C3.6017 36.9543 3.57708 36.9216 3.55624 36.87C3.53606 36.82 3.52109 36.7567 3.50885 36.6662C3.48453 36.4863 3.46841 36.177 3.4567 35.6036C3.43329 34.4563 3.42741 32.2312 3.41574 27.816L3.41567 27.7893ZM18.4406 36.884C18.4206 36.9242 18.398 36.9547 18.3767 36.9822L23.6242 36.9833C23.6239 36.9829 23.6237 36.9825 23.6234 36.9822C23.602 36.9547 23.5795 36.9242 23.5595 36.884C23.5392 36.8433 23.5232 36.7964 23.5102 36.7357C23.4847 36.6173 23.4685 36.4368 23.4568 36.1298C23.4334 35.5175 23.4275 34.3742 23.4159 32.1475L23.4157 32.1021V32.1019L23.4004 27.6H21H18.5997L18.5844 32.1019L18.5844 32.1021L18.5842 32.1475C18.5726 34.3742 18.5667 35.5175 18.5433 36.1298C18.5316 36.4368 18.5154 36.6173 18.4899 36.7357C18.4769 36.7964 18.4609 36.8433 18.4406 36.884ZM24.1219 37.4421C24.0764 37.4216 24.045 37.3977 24.0179 37.3767L37.9833 37.3758C37.983 37.3761 37.9826 37.3764 37.9822 37.3767C37.9551 37.3977 37.9236 37.4216 37.8782 37.4421C37.8329 37.4626 37.7783 37.478 37.7038 37.4904C37.5571 37.5148 37.3157 37.5302 36.8803 37.5404C36.0071 37.5609 34.3286 37.5609 31.004 37.5609H31H30.996C27.6715 37.5609 25.993 37.5609 25.1198 37.5404C24.6844 37.5302 24.443 37.5148 24.2963 37.4904C24.2218 37.478 24.1672 37.4626 24.1219 37.4421ZM38.4438 36.87C38.423 36.9216 38.3984 36.9543 38.3767 36.9822L39.7614 8.60812C40.9767 13.4925 41.0156 13.649 40.9688 14.2266L41.0685 14.2344C41.0685 14.2345 41.0685 14.2346 41.0685 14.2346C41.005 15.0437 40.7517 15.9623 40.4178 16.6381L40.4176 16.6385C40.2334 17.0068 40.1034 17.2436 39.9282 17.4812C39.7538 17.7178 39.5365 17.9527 39.1813 18.3196L39.181 18.3198L38.6 18.9158L38.5844 27.7892V27.7893L38.5843 27.8143C38.5727 32.2306 38.5668 34.4562 38.5434 35.6036C38.5317 36.177 38.5156 36.4863 38.4912 36.6662C38.479 36.7567 38.464 36.82 38.4438 36.87ZM25.8767 25.5178C25.898 25.5453 25.9206 25.5758 25.9406 25.616C25.9609 25.6567 25.9769 25.7036 25.9899 25.7643C26.0154 25.8827 26.0316 26.0632 26.0433 26.3702C26.0667 26.9825 26.0726 28.1258 26.0842 30.3525L26.0844 30.3979V30.3981L26.0997 34.9H31H35.9V27.4609V20.0377L35.3983 20.0763L35.398 20.0763C33.7646 20.1958 32.0644 19.5188 30.8346 18.2494L25.8767 25.5178ZM3.50004 18.875L3.42844 18.9448L3.40011 18.9158L3.40004 18.8752L3.50004 18.875Z" fill="#10BAB2" stroke="#10BAB2" stroke-width="0.2"/>
</svg>
