<svg width="20" height="20" viewBox="0 0 20 20" fill="none" xmlns="http://www.w3.org/2000/svg">
<path d="M10.0001 1.66663C5.40508 1.66663 1.66675 5.40496 1.66675 9.99996V13.4525C1.66675 14.3058 2.41425 15 3.33341 15H4.16675C4.38776 15 4.59972 14.9122 4.756 14.7559C4.91228 14.5996 5.00008 14.3876 5.00008 14.1666V9.88079C5.00008 9.65978 4.91228 9.44782 4.756 9.29154C4.59972 9.13525 4.38776 9.04746 4.16675 9.04746H3.41008C3.87341 5.82246 6.64841 3.33329 10.0001 3.33329C13.3517 3.33329 16.1267 5.82246 16.5901 9.04746H15.8334C15.6124 9.04746 15.4004 9.13525 15.2442 9.29154C15.0879 9.44782 15.0001 9.65978 15.0001 9.88079V15C15.0001 15.9191 14.2526 16.6666 13.3334 16.6666H11.6667V15.8333H8.33341V18.3333H13.3334C15.1717 18.3333 16.6667 16.8383 16.6667 15C17.5859 15 18.3334 14.3058 18.3334 13.4525V9.99996C18.3334 5.40496 14.5951 1.66663 10.0001 1.66663Z" fill="#00A64F"/>
<path d="M6.99074 12.952L6.99072 12.952C6.86622 12.9767 6.74133 12.9993 6.61608 13.0198L6.61572 13.0199C6.42764 13.05 6.29632 12.8568 6.36569 12.6935M6.99074 12.952L6.45773 12.7326M6.99074 12.952C7.91474 12.7686 8.49697 12.5283 8.78852 12.3847L6.99074 12.952ZM6.36569 12.6935L6.45773 12.7326M6.36569 12.6935C6.36568 12.6935 6.36567 12.6935 6.36567 12.6935L6.45773 12.7326M6.36569 12.6935C6.41076 12.5872 6.45208 12.4794 6.4896 12.3702M6.45773 12.7326C6.50398 12.6235 6.54636 12.5129 6.58481 12.4008M6.4896 12.3702L6.48903 12.3721L6.58481 12.4008M6.4896 12.3702C6.48981 12.3696 6.49002 12.369 6.49023 12.3683L6.58481 12.4008M6.4896 12.3702L6.49059 12.3669L6.49175 12.363L6.49183 12.363C6.61405 12.0082 6.71401 11.6034 6.75503 11.2245C6.11923 10.5715 5.73325 9.72168 5.73325 8.79195C5.73325 6.71105 7.65661 5.04612 9.99992 5.04612C12.3432 5.04612 14.2666 6.71105 14.2666 8.79195C14.2666 10.8728 12.3433 12.5377 10.0001 12.5378C10 12.5378 9.99996 12.5378 9.99992 12.5378L6.58481 12.4008M7.29889 10.7495L7.29885 10.7495C6.76289 10.212 6.45409 9.52729 6.45409 8.79195C6.45409 7.19626 7.96155 5.76695 9.99992 5.76695C12.0383 5.76695 13.5458 7.19626 13.5458 8.79195C13.5458 10.3882 12.0383 11.817 9.99992 11.817H9.99976C9.6412 11.8175 9.28412 11.771 8.93766 11.6787C8.79009 11.6392 8.63318 11.6556 8.49692 11.7246C8.31786 11.8153 7.93377 11.9853 7.31281 12.1416C7.39076 11.8484 7.44567 11.5495 7.47699 11.2476L7.47707 11.2468C7.48576 11.1559 7.4743 11.0642 7.44351 10.9782C7.41271 10.8923 7.36333 10.8142 7.29889 10.7495ZM6.97127 12.8539C6.84787 12.8784 6.72407 12.9008 6.59992 12.9211L6.97127 12.8539Z" fill="#00A64F" stroke="#00A64F" stroke-width="0.2"/>
</svg>
