<svg width="32" height="32" viewBox="0 0 32 32" fill="none" xmlns="http://www.w3.org/2000/svg">
<path d="M2.575 0.125C1.95625 0.2875 1.4875 0.56875 1 1.05625C0.518751 1.55 0.287501 1.94375 0.125001 2.6C1.19209e-06 3.06875 1.19484e-06 3.31875 1.19484e-06 12.6187C1.19484e-06 23.1687 -0.0187488 22.6187 0.406251 23.4312C0.812501 24.2062 1.5875 24.8562 2.43125 25.1375C2.8375 25.275 2.9125 25.275 7.125 25.3L11.4125 25.3187L12.7438 27.9875C13.475 29.4562 14.2 30.825 14.3438 31.0375C15.2438 32.3 16.7563 32.3 17.6563 31.0375C17.8 30.825 18.525 29.4562 19.2563 27.9875L20.5875 25.3187L24.875 25.3C29.6375 25.275 29.4062 25.2937 30.2437 24.8312C31.05 24.3875 31.7188 23.4812 31.9062 22.5813C31.9813 22.225 32 20.6562 32 12.6187C32 3.30625 32 3.06875 31.875 2.6C31.7125 1.95625 31.4438 1.49375 30.9438 1C30.4563 0.518749 30.0562 0.293749 29.4 0.125C28.925 0 28.6688 0 15.975 0.00625038C3.4125 0.00625038 3.01875 0.0124989 2.575 0.125ZM29.0813 1.975C29.2563 2.0375 29.4875 2.1875 29.65 2.35C30.1625 2.8625 30.1313 2.0375 30.1125 12.75L30.0938 22.2812L29.9563 22.5375C29.8813 22.675 29.7125 22.8875 29.5875 23C29.1 23.425 29.3875 23.4 24.2813 23.4375C19.975 23.4688 19.6375 23.475 19.4813 23.5813C19.35 23.6625 18.9313 24.4437 17.7875 26.7375C16.95 28.4125 16.2063 29.85 16.1313 29.9375L16 30.0938L15.8688 29.9375C15.7938 29.85 15.05 28.4125 14.2125 26.7375C13.0688 24.4437 12.65 23.6625 12.5188 23.5813C12.3625 23.475 12.025 23.4688 7.71875 23.4375C3.4375 23.4062 3.075 23.4 2.84375 23.2937C2.53125 23.15 2.21875 22.8562 2.04375 22.5312L1.90625 22.2812L1.8875 12.75C1.86875 2.0375 1.8375 2.85 2.34375 2.34375C2.8375 1.84375 1.64375 1.8875 15.975 1.88125C27.575 1.875 28.8188 1.8875 29.0813 1.975Z" fill="#888888" stroke="#888888" stroke-width="0.5"/>
<path d="M15.5625 4.03751C15.2687 4.09376 14.6562 4.33126 14.4125 4.48751C13.8 4.87501 13.275 5.63126 13.125 6.33751C13.0812 6.56251 13.0625 7.54376 13.075 9.32501C13.0937 11.9313 13.0937 11.975 13.2437 12.3313C13.5625 13.1375 14.3062 13.8375 15.1062 14.1C15.6 14.2563 16.4062 14.2563 16.9062 14.0938C17.6937 13.8375 18.4375 13.1375 18.7562 12.3313C18.9062 11.975 18.9062 11.9313 18.925 9.32501C18.9375 7.54376 18.9187 6.56251 18.875 6.33751C18.6687 5.35001 17.9 4.50626 16.9 4.16251C16.5875 4.05626 15.8437 3.98751 15.5625 4.03751ZM16.4062 5.99376C16.6937 6.12501 16.9 6.33126 16.9937 6.58126C17.1 6.86251 17.0875 11.45 16.975 11.7063C16.8562 11.9938 16.4937 12.2938 16.2 12.3438C15.7062 12.425 15.175 12.1313 15.0062 11.6688C14.9125 11.425 14.9125 6.82501 15.0062 6.58126C15.1375 6.22501 15.6312 5.87501 16 5.87501C16.0875 5.87501 16.2687 5.93126 16.4062 5.99376Z" fill="#888888"/>
<path d="M15.3313 16.4625C14.5563 16.65 13.7813 17.2375 13.425 17.9125C12.825 19.025 12.9875 20.3625 13.825 21.2813C14.4188 21.9313 15.1313 22.25 16 22.25C17.9188 22.25 19.325 20.4438 18.8438 18.5938C18.4438 17.0563 16.8563 16.0938 15.3313 16.4625ZM16.3563 18.3188C16.95 18.5375 17.225 19.25 16.9375 19.8125C16.7438 20.1938 16.4813 20.3438 16 20.3438C15.5188 20.3438 15.2563 20.1938 15.0625 19.8125C14.6313 18.9625 15.475 17.9875 16.3563 18.3188Z" fill="#888888"/>
</svg>
