<svg width="30" height="10" viewBox="0 0 30 10" fill="none" xmlns="http://www.w3.org/2000/svg">
<path d="M0.092 10V0.0599995H6.448V1.824H2.024V4.204H5.566V5.94H2.024V8.25H6.742V10H0.092ZM8.48653 10V0.0599995H11.7765C13.3352 0.0599995 14.5859 0.522 15.5285 1.446C16.4712 2.36067 16.9425 3.56 16.9425 5.044C16.9425 6.528 16.4805 7.72733 15.5565 8.642C14.6419 9.54733 13.3959 10 11.8185 10H8.48653ZM10.4325 8.25H11.6925C12.6445 8.25 13.4145 7.94667 14.0025 7.34C14.5999 6.73333 14.8985 5.968 14.8985 5.044C14.8985 4.11067 14.6092 3.34067 14.0305 2.734C13.4519 2.12733 12.7145 1.824 11.8185 1.824H10.4325V8.25ZM18.7831 10V0.0599995H20.7571V10H18.7831ZM25.0641 10V1.824H22.3201V0.0599995H29.7821V1.824H27.0241V10H25.0641Z" fill="#AAAAAA"/>
</svg>
