<svg width="34" height="35" viewBox="0 0 34 35" fill="none" xmlns="http://www.w3.org/2000/svg">
<path d="M15.4262 1.0354C11.4551 1.42056 7.81602 3.13384 4.99375 5.94946C2.31094 8.63227 0.690625 11.926 0.119531 15.8772C0.053125 16.342 0.0332031 18.4139 0.0332031 25.2737V34.0725L0.192578 34.3249C0.278906 34.4643 0.471484 34.6569 0.617578 34.7565L0.889844 34.9358H9.68867C16.5551 34.9358 18.627 34.9159 19.0918 34.8495C23.0363 34.2784 26.3102 32.6713 29.0063 29.9885C31.6426 27.3522 33.2563 24.1315 33.8473 20.2932C34.0066 19.2241 34.0066 16.7139 33.8473 15.6448C33.2563 11.8131 31.6559 8.61235 29.0195 5.96274C26.4031 3.3397 23.1426 1.7061 19.3906 1.13501C18.5605 1.00884 16.2828 0.955711 15.4262 1.0354ZM19.1582 3.79126C22.2262 4.26938 24.9289 5.64399 27.127 7.84204C29.3449 10.06 30.6996 12.7428 31.191 15.8772C31.2707 16.3952 31.3039 17.0061 31.3039 17.969C31.3039 18.9319 31.2707 19.5428 31.191 20.0608C30.6996 23.1952 29.3449 25.878 27.127 28.0959C24.9422 30.2807 22.3656 31.5956 19.1914 32.16C18.6336 32.253 17.6574 32.2729 10.6051 32.2928L2.64961 32.3194L2.67617 24.3639C2.69609 17.3116 2.71602 16.3354 2.80898 15.7776C3.37344 12.6034 4.68828 10.0268 6.87305 7.84204C9.3168 5.39829 12.2188 4.0436 15.8379 3.66509C16.3758 3.61196 18.5141 3.69165 19.1582 3.79126Z" fill="#00A64F"/>
<path d="M15.7516 10.3389C13.8789 10.6244 12.4313 11.7932 12.252 13.1611C12.1391 13.9846 12.7367 14.6553 13.5801 14.6619C14.025 14.6685 14.1778 14.5623 14.6426 13.9447C15.2602 13.1213 15.8246 12.8756 16.9336 12.9353C18.1821 13.0084 18.8926 13.6791 18.7598 14.6685C18.6668 15.3857 18.3082 15.8439 17.0996 16.8135C16.1102 17.6037 15.6653 18.2146 15.3598 19.2107C15.2735 19.5029 15.2403 19.8217 15.2403 20.5256C15.2403 21.5682 15.3199 21.8271 15.7117 22.0131C15.984 22.1459 16.6149 22.1857 17.0399 22.0928C17.4715 21.9932 17.7969 21.6744 17.7969 21.3357C17.8035 21.2162 17.8301 20.831 17.8567 20.4791C17.9364 19.6092 18.1555 19.1908 18.886 18.54C20.3801 17.2119 20.8117 16.7205 21.2766 15.7975C22.4586 13.4799 21.1571 11.1225 18.3215 10.4318C17.7969 10.3057 16.316 10.2525 15.7516 10.3389Z" fill="#00A64F"/>
<path d="M16.0238 23.8393C15.1539 24.1182 14.6891 24.8089 14.7621 25.712C14.875 27.1796 16.5883 27.837 17.6707 26.821C18.0293 26.4889 18.2617 25.9776 18.2617 25.5393C18.2617 24.9085 17.757 24.1581 17.1727 23.9124C16.834 23.7663 16.3359 23.7397 16.0238 23.8393Z" fill="#00A64F"/>
</svg>
