<svg width="24" height="22" viewBox="0 0 24 22" fill="none" xmlns="http://www.w3.org/2000/svg">
<path d="M1.92189 0.603125C1.7672 0.682812 1.68283 0.767187 1.60314 0.921875C1.54689 1.03906 1.15783 2.49219 0.745326 4.15625C0.0140757 7.09531 -0.0093618 7.18906 0.0187632 7.53594C0.0562632 8.01406 0.206263 8.55781 0.403138 8.95625C0.623451 9.39687 0.707826 9.50937 1.13439 9.95L1.50001 10.325L1.50939 15.6734C1.52345 20.9937 1.52345 21.0266 1.62189 21.1531C1.67345 21.2234 1.77658 21.3266 1.84689 21.3781C1.97345 21.4766 2.00626 21.4766 6.00001 21.4766C9.99376 21.4766 10.0266 21.4766 10.1531 21.3781C10.2235 21.3266 10.3266 21.2234 10.3781 21.1531C10.4766 21.0266 10.4766 20.9703 10.4906 18.2609L10.5 15.5H12H13.5L13.5094 18.2609C13.5235 20.9703 13.5235 21.0266 13.6219 21.1531C13.6735 21.2234 13.7766 21.3266 13.8469 21.3781C13.9735 21.4766 14.0063 21.4766 18 21.4766C21.9938 21.4766 22.0266 21.4766 22.1531 21.3781C22.2235 21.3266 22.3266 21.2234 22.3781 21.1531C22.4766 21.0266 22.4766 20.9937 22.4906 15.6734L22.5 10.325L22.8656 9.95C23.2922 9.50937 23.3766 9.39687 23.5969 8.95625C23.7938 8.55781 23.9438 8.01406 23.9813 7.53594C24.0094 7.18906 23.986 7.09531 23.2547 4.15625C22.8422 2.49219 22.4531 1.03906 22.3969 0.921875C22.3172 0.767187 22.2328 0.682812 22.0781 0.603125L21.8719 0.5H12H2.12814L1.92189 0.603125ZM21.8344 4.68594C22.4766 7.25937 22.5047 7.38594 22.4625 7.62969C22.2797 8.61406 21.6375 9.29375 20.7328 9.4625C20.1328 9.575 19.4672 9.33125 19.0125 8.83906C18.6047 8.40312 18.4641 8.06562 18.3797 7.325C18.3141 6.75781 18.0938 6.52344 17.625 6.52344C17.1563 6.52344 16.936 6.75781 16.8703 7.325C16.786 8.06562 16.6453 8.40312 16.2375 8.83906C15.7828 9.33125 15.1172 9.575 14.5219 9.4625C14.0766 9.37812 13.6922 9.16719 13.3875 8.83906C12.9797 8.40312 12.8391 8.06562 12.7547 7.325C12.6891 6.75781 12.4688 6.52344 12 6.52344C11.5313 6.52344 11.311 6.75781 11.2453 7.325C11.161 8.06562 11.0203 8.40312 10.6125 8.83906C10.3078 9.16719 9.92345 9.37812 9.47814 9.4625C8.88283 9.575 8.2172 9.33125 7.76251 8.83906C7.3547 8.40312 7.21408 8.06562 7.1297 7.325C7.06408 6.75781 6.84376 6.52344 6.37501 6.52344C5.90626 6.52344 5.68595 6.75781 5.62033 7.325C5.53595 8.06562 5.39533 8.40312 4.98751 8.83906C4.53283 9.33125 3.8672 9.575 3.27189 9.4625C2.36251 9.29375 1.72033 8.61406 1.53751 7.62969C1.49533 7.38594 1.52345 7.25937 2.16564 4.68594L2.83595 2H12H21.1641L21.8344 4.68594ZM6.69845 9.9125C8.1047 11.3562 10.275 11.3562 11.686 9.90312L12 9.57969L12.3188 9.90312C13.7297 11.3562 15.8953 11.3562 17.311 9.90312L17.625 9.57969L17.9438 9.90781C18.6703 10.6578 19.6735 11.0562 20.6344 10.9859L21 10.9578V15.4766V20H18H15L14.9906 17.2391C14.9766 14.5297 14.9766 14.4734 14.8781 14.3469C14.8266 14.2766 14.7235 14.1734 14.6531 14.1219C14.5266 14.0234 14.475 14.0234 12 14.0234C9.52501 14.0234 9.47345 14.0234 9.34689 14.1219C9.27658 14.1734 9.17345 14.2766 9.12189 14.3469C9.02345 14.4734 9.02345 14.5297 9.00939 17.2391L9.00001 20H6.00001H3.00001V15.4766V10.9578L3.36564 10.9859C4.32189 11.0562 5.33908 10.6531 6.04689 9.9125C6.21564 9.73906 6.36095 9.59375 6.37033 9.59375C6.3797 9.59375 6.5297 9.73906 6.69845 9.9125Z" fill="#08908C"/>
</svg>
