<svg width="18" height="19" viewBox="0 0 18 19" fill="none" xmlns="http://www.w3.org/2000/svg">
<path d="M13.1953 0.0658154C12.7547 0.258003 12.6141 0.853316 12.9235 1.22363C13.125 1.46269 13.2797 1.50019 14.025 1.50019H14.6953L13.3735 2.82207C11.9485 4.25175 11.9438 4.26113 12.0235 4.67363C12.0656 4.90332 12.3469 5.18457 12.5766 5.22675C12.9891 5.30644 12.9985 5.30175 14.4235 3.88144L15.7453 2.56425L15.7594 3.2955C15.7735 3.94707 15.7828 4.04082 15.8719 4.15332C16.0547 4.40175 16.2047 4.47675 16.5 4.47675C16.7953 4.47675 16.9453 4.40175 17.1281 4.15332C17.2219 4.02675 17.2266 3.9705 17.2266 2.25488V0.483003L17.1 0.318941C16.8563 0.00487804 16.8422 0.000190735 14.9906 0.000190735C13.7203 0.00487804 13.3031 0.0189404 13.1953 0.0658154Z" fill="#08908C"/>
<path d="M7.78596 0.121952C5.56878 0.421953 3.52972 1.55633 2.08597 3.28602C0.337528 5.38133 -0.370285 8.22664 0.196903 10.8751C0.693778 13.2001 2.0344 15.1829 4.00315 16.5048C7.55159 18.8907 12.3047 18.436 15.3328 15.422C16.8328 13.9266 17.7516 11.986 17.9578 9.86726C18.0563 8.8782 17.9297 7.35008 17.7282 7.0782C17.6813 7.01258 17.5688 6.90945 17.4797 6.8532C17.3485 6.75945 17.2735 6.74539 17.0578 6.75945C16.561 6.79695 16.3266 7.09227 16.3782 7.63601C16.4485 8.37664 16.4625 9.55789 16.411 9.96101C15.9188 13.6876 12.7219 16.5001 8.97659 16.5001C5.34378 16.5001 2.20784 13.8563 1.58909 10.2657C1.46253 9.52977 1.46253 8.47039 1.58909 7.73445C2.13284 4.57977 4.63128 2.11414 7.80471 1.58914C7.98753 1.56102 8.5594 1.52352 9.07971 1.50476C9.93284 1.48133 10.036 1.46727 10.1532 1.3782C10.3922 1.20008 10.4766 1.04539 10.4766 0.773516C10.4766 0.492266 10.3828 0.328203 10.125 0.150078C9.97971 0.0516396 9.92815 0.0469532 9.1219 0.0516396C8.65315 0.0563278 8.05315 0.0844536 7.78596 0.121952Z" fill="#08908C"/>
<path d="M8.69535 3.81577C8.34848 3.97515 8.25004 4.20483 8.25004 4.84702V5.32515L7.91254 5.40483C7.11098 5.59702 6.5016 6.05171 6.21098 6.66577C5.83598 7.45327 5.98129 8.21733 6.64223 8.91577C7.13442 9.4314 7.80473 9.67515 8.91098 9.74546C9.82504 9.8064 10.1766 9.94233 10.4344 10.3361C10.6032 10.5892 10.3172 10.9736 9.8391 11.1376C9.47817 11.2642 8.52192 11.2642 8.16098 11.1376C7.82348 11.0205 7.55629 10.7767 7.51879 10.5564C7.46723 10.2283 7.4016 10.083 7.24223 9.94233C6.8391 9.59077 6.19223 9.7689 6.03754 10.2751C5.96254 10.533 6.04692 10.9923 6.2391 11.3814C6.52973 11.9533 7.26567 12.4923 7.94067 12.6283L8.2266 12.6892L8.25004 13.233C8.27348 13.8189 8.31567 13.922 8.59692 14.1283C8.77973 14.2642 9.22035 14.2642 9.40317 14.1283C9.68442 13.922 9.7266 13.8189 9.75004 13.233L9.77348 12.6939L10.1157 12.6048C11.1329 12.347 11.8172 11.6814 11.9672 10.8001C12.0657 10.2189 11.8641 9.62827 11.386 9.11733C10.8704 8.56421 10.2188 8.32515 9.06567 8.25015C8.68129 8.22671 8.29692 8.18921 8.21723 8.16108C7.8141 8.03921 7.50004 7.75327 7.50004 7.50015C7.50004 7.31265 7.67817 7.08765 7.93598 6.96577C8.27817 6.79702 8.66723 6.73608 9.18754 6.76421C9.93754 6.8064 10.4157 7.05483 10.4766 7.4439C10.5329 7.77202 10.5985 7.91733 10.7579 8.05796C11.2547 8.4939 12 8.13296 12 7.45796C12 7.20015 11.85 6.74546 11.6719 6.4689C11.3532 5.97202 10.6782 5.52671 10.0407 5.39077L9.75942 5.33452L9.74067 4.77671C9.7266 4.1814 9.6891 4.08296 9.41254 3.87671C9.25317 3.75952 8.88285 3.72671 8.69535 3.81577Z" fill="#08908C"/>
</svg>
