<svg width="24" height="24" viewBox="0 0 24 24" fill="none" xmlns="http://www.w3.org/2000/svg">
<path d="M1.61718 0.112453C1.22343 0.21089 0.928113 0.379641 0.628113 0.67964C0.323425 0.984327 0.135925 1.31714 0.0515503 1.72495C-0.0234497 2.0812 -0.0234497 21.9234 0.0515503 22.275C0.224988 23.0812 0.871863 23.7281 1.67811 23.9015C2.02499 23.9765 12.9234 23.9765 13.275 23.9015C13.875 23.775 14.4047 23.3718 14.6859 22.8421C14.8969 22.4296 14.9531 22.1484 14.9531 21.4921V20.9531H18.5156C20.9531 20.9531 22.1531 20.9343 22.3219 20.9015C23.1187 20.7328 23.7797 20.0671 23.9484 19.275C24.0234 18.9234 24.0187 12.5671 23.9484 12.225C23.775 11.4187 23.1234 10.7671 22.3219 10.5984C22.1531 10.5656 20.9531 10.5468 18.5156 10.5468H14.9531V6.25776C14.9531 3.2437 14.939 1.89839 14.9015 1.72495C14.7281 0.918703 14.0765 0.267139 13.275 0.0983906C12.9 0.0187035 1.93593 0.0327644 1.61718 0.112453ZM13.1719 1.54683C13.2937 1.60777 13.3922 1.7062 13.4531 1.82808C13.5469 2.01089 13.5469 2.0812 13.5469 12C13.5469 21.9187 13.5469 21.989 13.4531 22.1718C13.3922 22.2937 13.2937 22.3921 13.1719 22.4531C12.989 22.5468 12.9094 22.5468 7.47186 22.5468H1.95936L1.77186 22.4437C1.65936 22.3781 1.54686 22.2656 1.4953 22.1625C1.41093 21.9937 1.40624 21.7171 1.40624 11.9906C1.41093 2.45152 1.41561 1.98277 1.4953 1.83277C1.54218 1.74839 1.65936 1.62651 1.76249 1.56558L1.9453 1.45308H7.46718C12.9094 1.45308 12.989 1.45308 13.1719 1.54683ZM22.2187 12.0468C22.514 12.1968 22.5937 12.4078 22.5937 13.0312V13.5468H18.7734H14.9531V12.75V11.9531H18.4922C21.9515 11.9531 22.0406 11.9531 22.2187 12.0468ZM22.5937 16.9687C22.5937 18.9 22.589 18.9984 22.5 19.1718C22.439 19.2937 22.3406 19.3921 22.2187 19.4531C22.0406 19.5468 21.9515 19.5468 18.4922 19.5468H14.9531V17.25V14.9531H18.7734H22.5937V16.9687Z" fill="#08908C"/>
<path d="M3.4125 3.14531C3.30469 3.20156 3.19688 3.30937 3.14062 3.42187C3.05156 3.6 3.04688 3.69375 3.04688 6.75C3.04688 9.81094 3.05156 9.9 3.14062 10.0781C3.20156 10.2 3.3 10.2984 3.42188 10.3594C3.6 10.4531 3.68906 10.4531 7.5 10.4531C11.3109 10.4531 11.4 10.4531 11.5781 10.3594C11.7 10.2984 11.7984 10.2 11.8594 10.0781C11.9484 9.9 11.9531 9.81094 11.9531 6.75C11.9531 3.68906 11.9484 3.6 11.8594 3.42187C11.7984 3.3 11.7 3.20156 11.5781 3.14062C11.4 3.04687 11.3109 3.04687 7.49063 3.04687C3.69375 3.05156 3.58125 3.05156 3.4125 3.14531ZM10.5469 6.75V9.04688H7.5H4.45312V6.75V4.45312H7.5H10.5469V6.75Z" fill="#08908C"/>
<path d="M4.1625 12.8953C3.96094 12.9984 3.79688 13.275 3.79688 13.5C3.79688 13.8562 4.14375 14.2031 4.5 14.2031C4.73438 14.2031 5.00156 14.0391 5.10938 13.8281C5.23125 13.5891 5.22656 13.3828 5.09531 13.1531C4.90313 12.8156 4.50938 12.7078 4.1625 12.8953Z" fill="#08908C"/>
<path d="M7.15311 12.9047C6.81561 13.0969 6.7078 13.4719 6.89061 13.8281C6.99842 14.0391 7.26561 14.2031 7.49999 14.2031C7.85624 14.2031 8.20311 13.8562 8.20311 13.5C8.20311 13.2656 8.03905 12.9984 7.82811 12.8906C7.58905 12.7687 7.3828 12.7734 7.15311 12.9047Z" fill="#08908C"/>
<path d="M10.1625 12.8953C9.96094 12.9984 9.79688 13.275 9.79688 13.5C9.79688 13.7344 9.96094 14.0016 10.1719 14.1094C10.2703 14.1609 10.4203 14.2031 10.5 14.2031C10.7344 14.2031 11.0016 14.0391 11.1094 13.8281C11.2313 13.5891 11.2266 13.3828 11.0953 13.1531C10.9031 12.8156 10.5094 12.7078 10.1625 12.8953Z" fill="#08908C"/>
<path d="M4.1625 15.8953C3.96094 15.9984 3.79688 16.275 3.79688 16.5C3.79688 16.8562 4.14375 17.2031 4.5 17.2031C4.73438 17.2031 5.00156 17.0391 5.10938 16.8281C5.23125 16.5891 5.22656 16.3828 5.09531 16.1531C4.90313 15.8156 4.50938 15.7078 4.1625 15.8953Z" fill="#08908C"/>
<path d="M7.15311 15.9047C6.81561 16.0969 6.7078 16.4719 6.89061 16.8281C6.99842 17.0391 7.26561 17.2031 7.49999 17.2031C7.85624 17.2031 8.20311 16.8562 8.20311 16.5C8.20311 16.2656 8.03905 15.9984 7.82811 15.8906C7.58905 15.7687 7.3828 15.7734 7.15311 15.9047Z" fill="#08908C"/>
<path d="M10.1625 15.8953C9.96094 15.9984 9.79688 16.275 9.79688 16.5C9.79688 16.7344 9.96094 17.0016 10.1719 17.1094C10.2703 17.1609 10.4203 17.2031 10.5 17.2031C10.8563 17.2031 11.2031 16.8563 11.2031 16.5C11.2031 16.2656 11.0391 15.9984 10.8281 15.8906C10.5984 15.7734 10.3875 15.7734 10.1625 15.8953Z" fill="#08908C"/>
<path d="M4.1625 18.8953C3.96094 18.9984 3.79688 19.275 3.79688 19.5C3.79688 19.8562 4.14375 20.2031 4.5 20.2031C4.73438 20.2031 5.00156 20.0391 5.10938 19.8281C5.23125 19.5891 5.22656 19.3828 5.09531 19.1531C4.90313 18.8156 4.50938 18.7078 4.1625 18.8953Z" fill="#08908C"/>
<path d="M7.17188 18.8859C6.975 18.9891 6.79688 19.275 6.79688 19.4906C6.79688 19.8562 7.13906 20.2031 7.5 20.2031C7.73438 20.2031 8.00156 20.0391 8.10938 19.8281C8.16094 19.7297 8.20312 19.5797 8.20312 19.5C8.20312 18.9891 7.62188 18.6422 7.17188 18.8859Z" fill="#08908C"/>
<path d="M10.1625 18.8953C9.96094 18.9984 9.79688 19.275 9.79688 19.5C9.79688 19.7344 9.96094 20.0016 10.1719 20.1094C10.2703 20.1609 10.4203 20.2031 10.5 20.2031C10.8563 20.2031 11.2031 19.8563 11.2031 19.5C11.2031 19.2656 11.0391 18.9984 10.8281 18.8906C10.5984 18.7734 10.3875 18.7734 10.1625 18.8953Z" fill="#08908C"/>
</svg>
