<svg width="22" height="24" viewBox="0 0 22 24" fill="none" xmlns="http://www.w3.org/2000/svg">
<path d="M17.2322 0.000102997C17.3552 0.0457706 17.4619 0.0865898 17.575 0.175636C17.6865 0.263458 17.7991 0.393927 17.9489 0.61108C18.2468 1.04289 18.7117 1.84805 19.6232 3.42699L19.6319 3.44204C20.5683 5.06204 21.3858 6.48548 21.4434 6.59582L21.4441 6.59736L21.5426 6.79424L21.5531 6.81535V6.83896V14.6624C21.5531 15.1389 21.5532 15.5875 21.5533 16.0101C21.5537 19.4249 21.5539 21.1336 21.522 22.0335C21.5042 22.537 21.4762 22.7979 21.4287 22.9651C21.3898 23.1022 21.3354 23.1796 21.2779 23.2614C21.2628 23.283 21.2474 23.3049 21.232 23.3283L21.2317 23.3288C21.1306 23.4804 20.943 23.668 20.7914 23.769L20.736 23.6858L20.7921 23.7686C20.7664 23.786 20.7427 23.8039 20.7191 23.8218C20.644 23.8785 20.5699 23.9345 20.4349 23.9734C20.2639 24.0226 19.9848 24.0513 19.4238 24.0694C18.4433 24.101 16.5672 24.1007 12.8186 24.1001C12.2557 24.1 11.6506 24.0999 11 24.0999C10.3494 24.0999 9.74429 24.1 9.18141 24.1001C5.43283 24.1007 3.55677 24.101 2.57629 24.0694C2.01525 24.0513 1.73615 24.0226 1.56518 23.9734C1.43011 23.9345 1.356 23.8785 1.28091 23.8218C1.25741 23.804 1.23382 23.7862 1.20823 23.7688C1.05669 23.6677 0.869366 23.4803 0.768377 23.3288L0.768375 23.3288L0.768011 23.3283C0.752639 23.3049 0.737253 23.2829 0.72208 23.2613C0.664659 23.1795 0.610303 23.1021 0.571367 22.9657C0.523853 22.7993 0.49585 22.5403 0.478013 22.0412C0.446132 21.149 0.446349 19.456 0.446783 16.0727C0.446837 15.654 0.446894 15.2095 0.446894 14.7374C0.446894 11.5407 0.449237 9.59724 0.458616 8.43132C0.463305 7.84851 0.469756 7.45904 0.478595 7.20412C0.483011 7.07676 0.488059 6.98182 0.493904 6.91262C0.499418 6.84734 0.506196 6.79651 0.516995 6.76249C0.521521 6.74759 0.529421 6.72968 0.53689 6.71354C0.545557 6.69482 0.556998 6.67148 0.57084 6.64412C0.598574 6.5893 0.637141 6.51598 0.68512 6.42667C0.781149 6.24792 0.915924 6.00319 1.07951 5.71031C1.40675 5.12446 1.84996 4.34474 2.33061 3.51239C3.2644 1.89288 3.74045 1.06786 4.04264 0.625519C4.19404 0.403912 4.30667 0.270847 4.41653 0.181133C4.52838 0.0897961 4.63255 0.0476189 4.75257 0.00053978L4.75397 1.33514e-05L16.1917 -0.0877876C16.9783 -0.0767345 17.0908 -0.0542488 17.2322 0.000102997ZM17.2322 0.000102997C17.2324 0.000173569 17.2326 0.000242233 17.2328 0.000312805L17.1969 0.093647L17.2317 -9.53674e-05C17.2319 -2.86102e-05 17.2321 3.62396e-05 17.2322 0.000102997ZM2.86768 5.82326C2.85502 5.8222 2.84354 5.82111 2.83314 5.81998C2.81293 5.8178 2.79817 5.81562 2.78767 5.81361C2.77652 5.81148 2.77315 5.81008 2.77418 5.81049C2.77488 5.81077 2.77863 5.81231 2.78377 5.8158C2.78884 5.81924 2.79769 5.82623 2.80563 5.83819C2.82463 5.86677 2.82279 5.89771 2.81517 5.91858C2.8075 5.9177 2.80038 5.91681 2.79378 5.91589C2.73062 5.90703 2.71571 5.89612 2.72189 5.88271L2.86768 5.82326ZM2.86768 5.82326C2.87137 5.81664 2.87522 5.80972 2.87924 5.80251C2.92157 5.72668 2.98181 5.61984 3.05623 5.48854C3.20504 5.22598 3.41019 4.86621 3.64131 4.46225C4.10348 3.65447 4.66931 2.67043 5.09573 1.93473C5.09579 1.93463 5.09585 1.93452 5.09591 1.93442L5.34784 1.50615H7.79377H10.1969V3.67958V5.85302H6.49533C4.79805 5.85302 3.84879 5.85067 3.32732 5.84073C3.09865 5.83638 2.95515 5.83059 2.86768 5.82326ZM11.85 5.85302V5.95302H15.5516C17.9362 5.95302 18.9168 5.9443 19.2098 5.9177L11.75 3.67958V5.85302H11.85ZM11.85 5.85302V3.67958V1.50652M11.85 5.85302H15.5516C17.0658 5.85302 18.013 5.8495 18.5775 5.84015C18.8579 5.83549 19.042 5.82942 19.1537 5.82179C18.9715 5.50898 18.4774 4.65378 17.9166 3.6828L11.85 1.50652M11.85 1.50652L14.2385 1.51552H14.2387L16.6703 1.52926L17.9165 3.68272L11.85 1.50652ZM10.9859 -0.0954151C10.9859 -0.0954151 10.9859 -0.0954151 10.986 -0.0954151V0.00458527L10.9859 -0.0954151ZM19.2631 5.81097C19.2915 5.85971 19.3081 5.88774 19.311 5.89208C19.3146 5.8973 19.3084 5.90211 19.2903 5.90653C19.2898 5.90666 19.2893 5.90679 19.2887 5.90692C19.2729 5.91063 19.2486 5.91407 19.2146 5.91726C19.2104 5.90007 19.2104 5.87969 19.2192 5.85838C19.2309 5.82988 19.2518 5.81717 19.2565 5.8144C19.259 5.81294 19.2612 5.81181 19.2631 5.81097ZM19.8896 22.4385C19.8901 22.4383 19.8906 22.4382 19.8911 22.4381C19.8919 22.4346 19.8929 22.4301 19.894 22.4247C19.9 22.3938 19.9061 22.3422 19.9115 22.2555C19.9223 22.0829 19.9299 21.7866 19.9352 21.2731C19.9457 20.2472 19.9469 18.3635 19.9469 14.8921V7.45927H11H2.05314V14.8968C2.05314 18.5206 2.05432 20.4065 2.06544 21.3955C2.07101 21.8907 2.07907 22.1581 2.09042 22.3055C2.09603 22.3783 2.10208 22.4164 2.10727 22.4365C2.11197 22.4376 2.11824 22.439 2.1264 22.4404C2.16289 22.4466 2.2236 22.4527 2.32481 22.4582C2.52622 22.469 2.87403 22.4767 3.47804 22.4819C4.6851 22.4925 6.90758 22.4936 11.0094 22.4936C15.2824 22.4936 17.5036 22.4925 18.6655 22.4813C19.2471 22.4758 19.5607 22.4677 19.7329 22.4563C19.8199 22.4505 19.8654 22.4442 19.8896 22.4385Z" fill="#08908C" stroke="#08908C" stroke-width="0.2"/>
<path d="M9.47723 15.0888L9.47697 15.0886C9.30284 14.9144 9.12966 14.7471 8.99087 14.6184C8.92153 14.5541 8.86025 14.4989 8.81146 14.4571C8.76631 14.4184 8.72309 14.3835 8.69394 14.3679L8.69328 14.3676L8.69328 14.3676C8.3465 14.1859 7.8877 14.3357 7.68034 14.6758C7.6125 14.7862 7.5794 14.9298 7.57429 15.0665C7.56919 15.2031 7.59152 15.3469 7.64852 15.458L7.65028 15.4615L7.65035 15.4614C7.66076 15.4799 7.67856 15.5024 7.69581 15.523C7.7149 15.5459 7.73964 15.5741 7.76885 15.6063C7.82737 15.671 7.90593 15.7545 7.99765 15.8501C8.18122 16.0413 8.41922 16.2827 8.65892 16.5215C8.8986 16.7603 9.14045 16.997 9.3317 17.179C9.42725 17.2698 9.51067 17.3475 9.57508 17.4051C9.60723 17.4338 9.63529 17.4581 9.65812 17.4768C9.67822 17.4932 9.70147 17.5113 9.72124 17.5215C9.80509 17.565 9.92088 17.5819 10.0309 17.5819C10.143 17.5819 10.2645 17.5643 10.3651 17.5262L9.47723 15.0888ZM9.47723 15.0888L10.0394 15.6552L11.5855 14.1136M9.47723 15.0888L11.5855 14.1136M11.5855 14.1136C12.0312 13.668 12.4488 13.2573 12.7635 12.9549M11.5855 14.1136L12.7635 12.9549M12.7635 12.9549C12.9208 12.8038 13.0528 12.6793 13.1499 12.5909M12.7635 12.9549L13.1499 12.5909M13.1499 12.5909C13.1983 12.5468 13.2388 12.511 13.2697 12.4852M13.1499 12.5909L13.2697 12.4852M13.2697 12.4852C13.285 12.4724 13.299 12.4612 13.3109 12.4524M13.2697 12.4852L13.3109 12.4524M13.3109 12.4524L13.3109 12.4524M13.3109 12.4524L13.3109 12.4524M13.3109 12.4524C13.3185 12.4468 13.3346 12.435 13.3528 12.4276L13.3109 12.4524Z" fill="#08908C" stroke="#08908C" stroke-width="0.2"/>
</svg>
