<svg width="40" height="40" viewBox="0 0 40 40" fill="none" xmlns="http://www.w3.org/2000/svg">
<g clip-path="url(#clip0_429_428)">
<path d="M9.64549 16.1261C7.74949 16.1261 6.18349 15.5441 4.94749 14.3801C3.72349 13.2161 3.11149 11.6321 3.11149 9.62806C3.11149 7.72006 3.69349 6.14806 4.85749 4.91206C6.02149 3.67606 7.58149 3.05806 9.53749 3.05806C10.4855 3.05806 11.4095 3.24406 12.3095 3.61606C13.2095 3.98806 13.9775 4.53406 14.6135 5.25406L12.8135 6.76606C11.9015 5.89006 10.8095 5.45206 9.53749 5.45206C8.45749 5.45206 7.55749 5.83006 6.83749 6.58606C6.11749 7.34206 5.75749 8.35606 5.75749 9.62806C5.75749 10.8281 6.11149 11.8241 6.81949 12.6161C7.52749 13.4081 8.46949 13.8041 9.64549 13.8041C10.5815 13.8041 11.4455 13.5641 12.2375 13.0841V11.1941H9.35749V9.03406H14.6675V14.5421C14.0795 15.0221 13.3355 15.4061 12.4355 15.6941C11.5355 15.9821 10.6055 16.1261 9.64549 16.1261Z" fill="#10BAB2"/>
<path d="M21.0382 16.1441C19.2262 16.1441 17.6722 15.4721 16.3762 14.1281L17.8882 12.2561C18.3442 12.7841 18.8542 13.1861 19.4182 13.4621C19.9822 13.7261 20.5342 13.8581 21.0742 13.8581C21.6742 13.8581 22.1302 13.7381 22.4422 13.4981C22.7542 13.2461 22.9102 12.9161 22.9102 12.5081C22.9102 12.0641 22.7482 11.7281 22.4242 11.5001C22.1002 11.2601 21.5182 10.9961 20.6782 10.7081C20.1022 10.5041 19.6222 10.3121 19.2382 10.1321C18.8542 9.94006 18.4582 9.68806 18.0502 9.37606C17.6422 9.06406 17.3362 8.68606 17.1322 8.24206C16.9282 7.79806 16.8262 7.28806 16.8262 6.71206C16.8262 5.69206 17.2222 4.83406 18.0142 4.13806C18.8062 3.44206 19.7782 3.08206 20.9302 3.05806C22.4902 3.04606 23.9242 3.58606 25.2322 4.67806L23.7742 6.58606C22.7662 5.74606 21.8362 5.32606 20.9842 5.32606C20.5282 5.32606 20.1562 5.44006 19.8682 5.66806C19.5922 5.89606 19.4542 6.20806 19.4542 6.60406C19.4422 6.97606 19.5922 7.27606 19.9042 7.50406C20.2162 7.72006 20.7802 7.99006 21.5962 8.31406C22.9162 8.83006 23.7802 9.22606 24.1882 9.50206C25.1002 10.1261 25.5562 11.0321 25.5562 12.2201C25.5562 13.5041 25.1002 14.4821 24.1882 15.1541C23.2762 15.8141 22.2262 16.1441 21.0382 16.1441Z" fill="#10BAB2"/>
<path d="M30.1857 16.0001V5.48806H26.6577V3.22006H36.2517V5.48806H32.7057V16.0001H30.1857Z" fill="#10BAB2"/>
<path d="M17.569 38.4141L15.805 37.6581L21.475 24.9501L23.239 25.7061L17.569 38.4141ZM14.653 32.2401C13.633 32.2401 12.775 31.9041 12.079 31.2321C11.383 30.5601 11.035 29.6961 11.035 28.6401C11.035 27.6441 11.371 26.8041 12.043 26.1201C12.727 25.4241 13.597 25.0761 14.653 25.0761C15.685 25.0761 16.549 25.4061 17.245 26.0661C17.941 26.7261 18.289 27.5841 18.289 28.6401C18.289 29.6481 17.947 30.5001 17.263 31.1961C16.591 31.8921 15.721 32.2401 14.653 32.2401ZM14.671 30.5661C15.199 30.5661 15.625 30.3861 15.949 30.0261C16.285 29.6541 16.453 29.1981 16.453 28.6581C16.453 28.1061 16.279 27.6561 15.931 27.3081C15.595 26.9481 15.175 26.7681 14.671 26.7681C14.155 26.7681 13.729 26.9541 13.393 27.3261C13.069 27.6861 12.907 28.1301 12.907 28.6581C12.907 29.2101 13.075 29.6661 13.411 30.0261C13.759 30.3861 14.179 30.5661 14.671 30.5661ZM24.319 38.1441C23.311 38.1441 22.453 37.8141 21.745 37.1541C21.049 36.4821 20.701 35.6181 20.701 34.5621C20.701 33.5661 21.037 32.7201 21.709 32.0241C22.393 31.3281 23.263 30.9801 24.319 30.9801C25.351 30.9801 26.215 31.3161 26.911 31.9881C27.607 32.6481 27.955 33.5061 27.955 34.5621C27.955 35.5701 27.619 36.4221 26.947 37.1181C26.275 37.8021 25.399 38.1441 24.319 38.1441ZM24.337 36.4701C24.865 36.4701 25.291 36.2901 25.615 35.9301C25.951 35.5581 26.119 35.1081 26.119 34.5801C26.119 34.0281 25.945 33.5781 25.597 33.2301C25.261 32.8701 24.841 32.6901 24.337 32.6901C23.821 32.6901 23.395 32.8761 23.059 33.2481C22.735 33.6081 22.573 34.0521 22.573 34.5801C22.573 35.1321 22.741 35.5881 23.077 35.9481C23.425 36.2961 23.845 36.4701 24.337 36.4701Z" fill="#10BAB2"/>
</g>
<defs>
<clipPath id="clip0_429_428">
<rect width="40" height="40" fill="white"/>
</clipPath>
</defs>
</svg>
