<svg width="108" height="95" viewBox="0 0 108 95" fill="none" xmlns="http://www.w3.org/2000/svg">
<path d="M100.719 52.0938L100.678 70.7148L100.609 89.3496L100.062 90.5254C99.3926 91.9883 98.2168 93.1641 96.7539 93.834L95.5781 94.3809L81.3731 94.4492L67.1406 94.5176H40.2617L26.0566 94.4492L11.8242 94.3809L10.6484 93.834C9.18555 93.1641 7.99609 91.9883 7.32617 90.5254L6.7793 89.3496L6.71094 70.7148L6.68359 52.0938L7.46289 52.4355C10.0195 53.5566 13.1641 54.1445 16.1992 54.1445C17.6621 54.1445 19.0977 54.0078 20.4238 53.7207C20.6426 53.6797 20.8613 53.625 21.0664 53.5703C23.0762 53.0508 25.7832 51.957 27.1504 51.0957C27.7383 50.7402 28.2988 50.4258 28.4766 50.4258C28.6543 50.4258 29.2969 50.7402 29.9531 51.1231C36.5156 54.9648 45.7168 54.9648 52.2793 51.1231C52.9355 50.7402 53.5781 50.4258 53.7012 50.4258C53.8242 50.4258 54.4805 50.7402 55.1367 51.1231C56.6133 51.9844 58.1992 52.6543 59.8398 53.1191C60.4688 53.2969 61.1113 53.4473 61.7676 53.5703C67.0996 54.5957 72.9101 53.7754 77.4629 51.1231C77.873 50.877 78.3105 50.6582 78.7617 50.4668C78.8711 50.4668 78.9805 50.4805 79.0898 50.4941C79.5137 50.6855 79.9375 50.9043 80.334 51.1504C81.7148 51.9707 83.1777 52.627 84.709 53.1055C84.7363 53.1328 84.7637 53.1602 84.8047 53.2012C84.7773 53.1738 84.7363 53.1328 84.709 53.1055C86.3906 53.6523 88.1406 53.9941 89.9043 54.1309C93.0351 54.3633 97.1641 53.666 99.9395 52.4492L100.719 52.0938Z" fill="#F7BC0D"/>
<path d="M104.301 17.5039C102.455 10.1347 100.896 4.43355 100.623 3.84566C100.021 2.65621 98.6953 1.41207 97.3691 0.810503L96.4121 0.373004L54.0156 0.331988C20.3555 0.304644 11.4551 0.359333 10.7852 0.564411C9.0625 1.08394 7.62695 2.27339 6.77929 3.85933C6.50586 4.44722 4.96093 10.1621 3.10156 17.5175C0.0390573 29.7812 -0.0703172 30.2187 0.0527297 31.791C0.64062 39.9941 7.02539 46.6523 14.8047 47.1855C16.7734 47.3359 18.7559 47.0898 20.6289 46.4746C20.6426 46.4472 20.6562 46.4199 20.6699 46.4062C20.6562 46.4335 20.6426 46.4609 20.6289 46.4882C23.0898 45.6679 25.3184 44.2597 27.1094 42.3867L28.5039 40.9101L29.9258 42.3593C36.2422 48.8671 45.9355 48.8671 52.2793 42.3593L53.6738 40.9101L55.1094 42.3593C58.3359 45.6679 62.4238 47.2949 66.5117 47.2402C70.4355 47.1718 74.3457 45.5585 77.4629 42.3593L78.8574 40.9101L80.293 42.3867C83.6152 45.8046 87.9902 47.5273 92.5703 47.1855C100.363 46.6386 106.734 39.9941 107.322 31.791C107.473 30.205 107.377 29.7675 104.301 17.5039Z" fill="#F7BC0D"/>
</svg>
