<svg width="140" height="140" viewBox="0 0 140 140" fill="none" xmlns="http://www.w3.org/2000/svg">
<path d="M39.8361 119.92L109.199 104.026C112.267 103.324 115.006 101.602 116.968 99.1407C118.929 96.6801 119.999 93.6256 120 90.4785V88.2819C120.001 86.2205 119.543 84.1848 118.661 82.3223C117.778 80.4598 116.492 78.8165 114.896 77.5116C113.301 76.2073 111.435 75.2739 109.435 74.7796C107.434 74.2846 105.348 74.241 103.329 74.6519L36.7174 88.1677C34.8544 88.546 32.9335 88.538 31.0739 88.1444C29.2139 87.7508 27.4544 86.9801 25.9044 85.879C24.3544 84.7786 23.0466 83.3712 22.0618 81.7451C21.0766 80.119 20.4357 78.3081 20.1783 76.4241L20.1283 76.0495C19.65 72.5517 20.5196 69.0022 22.5609 66.1222C24.6022 63.2419 27.6626 61.2464 31.1209 60.5405L109.428 44.532C112.304 43.9441 114.098 47.5556 111.891 49.4949L37.3091 114.975C35.0596 116.936 36.9383 120.584 39.8361 119.92Z" fill="#4CB966"/>
<path d="M106.413 40.2128C112.116 40.2128 116.739 35.6879 116.739 30.1061C116.739 24.5248 112.116 20 106.413 20C100.71 20 96.087 24.5248 96.087 30.1061C96.087 35.6879 100.71 40.2128 106.413 40.2128Z" fill="#4CB966"/>
</svg>
