<svg width="70" height="70" viewBox="0 0 70 70" fill="none" xmlns="http://www.w3.org/2000/svg">
<rect width="70" height="70" rx="10" fill="url(#paint0_linear_1463_784)"/>
<path d="M22.5158 65.0946C24.5182 65.0946 26.1415 63.4713 26.1415 61.4689C26.1415 59.4665 24.5182 57.8433 22.5158 57.8433C20.5134 57.8433 18.8901 59.4665 18.8901 61.4689C18.8901 63.4713 20.5134 65.0946 22.5158 65.0946Z" fill="#4F5052"/>
<path d="M40.1262 65.0946C42.1286 65.0946 43.7518 63.4713 43.7518 61.4689C43.7518 59.4665 42.1286 57.8433 40.1262 57.8433C38.1238 57.8433 36.5005 59.4665 36.5005 61.4689C36.5005 63.4713 38.1238 65.0946 40.1262 65.0946Z" fill="#4F5052"/>
<path d="M6.45947 24.6943L15.7826 30.9098L20.9622 53.6997H41.6803L46.8598 36.0893H18.049" stroke="#4F5052" stroke-width="4" stroke-linecap="round" stroke-linejoin="round"/>
<path d="M20.0024 45.4121L30.7978 45.4121L43.7524 45.4121" stroke="#4F5052" stroke-width="4" stroke-linecap="round" stroke-linejoin="round"/>
<circle cx="43.7514" cy="24.6943" r="19.789" fill="#F9CF56" stroke="#4F5052" stroke-width="3"/>
<path d="M39.8 34.0841H39.52C39.5573 32.7215 40.0893 29.8095 41.116 25.3481C42.1427 20.8681 42.656 18.1895 42.656 17.3121C42.656 16.8828 42.6467 16.6215 42.628 16.5281C41.6013 17.0881 40.4813 17.9748 39.268 19.1881C39.044 19.0761 38.8107 18.8801 38.568 18.6001C38.344 18.3015 38.176 18.0401 38.064 17.8161L37.896 17.4801L42.572 14.4841C43.9533 14.2415 45.372 14.1201 46.828 14.1201C47.052 14.4935 47.164 15.0908 47.164 15.9121C47.164 16.7148 46.9307 18.1335 46.464 20.1681C45.9973 22.1841 45.512 24.4428 45.008 26.9441C44.504 29.4268 44.224 31.6201 44.168 33.5241C43.496 33.8975 42.04 34.0841 39.8 34.0841Z" fill="#4F5052"/>
<defs>
<linearGradient id="paint0_linear_1463_784" x1="35" y1="0" x2="35" y2="70" gradientUnits="userSpaceOnUse">
<stop stop-color="#F9CF56" stop-opacity="0.52"/>
<stop offset="1" stop-color="#F9CF56" stop-opacity="0.72"/>
</linearGradient>
</defs>
</svg>
