<svg width="28" height="32" viewBox="0 0 28 32" fill="none" xmlns="http://www.w3.org/2000/svg">
<path d="M12.9089 0.672495C12.2558 0.850618 12.2187 0.872887 10.4003 1.97875C9.58394 2.47601 8.84918 2.90648 8.76754 2.93617C8.6859 2.96585 7.38707 3.24047 5.88043 3.54476C2.59996 4.20531 2.34762 4.29437 1.44957 5.19984C0.74449 5.91234 0.38824 6.58773 0.217537 7.54515C0.0616775 8.46546 0.113631 15.2194 0.291756 16.4143C0.707381 19.242 1.65738 21.7432 3.16402 23.9846C5.49449 27.4506 9.0273 30.0334 12.9609 31.1467C13.8738 31.4065 14.23 31.3991 15.2691 31.0799C20.9394 29.358 25.3703 24.9049 27.0996 19.1827C27.4484 18.0397 27.7082 16.5998 27.7972 15.2936C27.9234 13.6311 27.9011 8.19828 27.7675 7.47093C27.5003 5.97914 26.3796 4.66546 24.9398 4.16078C24.7023 4.07914 23.3367 3.77484 21.9043 3.49281C20.4793 3.21078 19.1878 2.9139 19.0468 2.84711C18.9058 2.77289 18.1414 2.32015 17.3546 1.83773C16.5234 1.32562 15.6996 0.880306 15.3878 0.768978C14.6531 0.516634 13.6511 0.472103 12.9089 0.672495ZM14.9796 3.18109C15.1949 3.29984 15.9816 3.77484 16.7312 4.22757C17.5476 4.72484 18.275 5.11078 18.557 5.19984C18.8093 5.27406 20.1304 5.56351 21.4961 5.8307C22.8617 6.10531 24.116 6.37992 24.2793 6.45414C24.7023 6.63226 25.0363 6.9514 25.2664 7.38929L25.4668 7.76781V11.4787C25.4668 14.1432 25.4371 15.3975 25.3703 15.9319C24.9027 19.4202 23.4035 22.5225 21.0136 24.9123C19.7222 26.2112 18.3789 27.1612 16.7312 27.9553C15.8109 28.3932 14.282 28.9573 14.0074 28.9573C13.9406 28.9573 13.6363 28.8756 13.332 28.7791C7.4984 26.9088 3.44605 22.0475 2.62965 15.9319C2.56285 15.3975 2.53316 14.1432 2.53316 11.4787V7.76781L2.73355 7.38929C2.96363 6.9514 3.29761 6.63226 3.72066 6.45414C3.88394 6.37992 5.13824 6.10531 6.50387 5.8307C7.86949 5.56351 9.19058 5.27406 9.44293 5.19984C9.73238 5.11078 10.5265 4.68031 11.5285 4.07914C12.4191 3.53734 13.2578 3.05492 13.4062 3.00296C13.8218 2.84711 14.5121 2.92132 14.9796 3.18109Z" fill="#00A64F"/>
<path d="M18.3492 11.7014C18.1191 11.783 17.3843 12.4733 15.2245 14.633L12.4042 17.4533L11.5878 16.6295C11.1351 16.1768 10.6824 15.7611 10.571 15.7018C10.1183 15.4643 9.39095 15.6424 9.08666 16.0654C8.87884 16.3549 8.81947 16.9783 8.97533 17.2752C9.04212 17.394 9.70267 18.099 10.4523 18.8412C11.9292 20.3033 12.0999 20.4147 12.6937 20.2736C12.9535 20.2143 13.4285 19.769 16.3601 16.8447C18.2601 14.9447 19.7742 13.3787 19.8335 13.2451C20.2343 12.3174 19.2992 11.3526 18.3492 11.7014Z" fill="#00A64F"/>
</svg>
