<svg width="60" height="41" viewBox="0 0 60 41" fill="none" xmlns="http://www.w3.org/2000/svg">
<path fill-rule="evenodd" clip-rule="evenodd" d="M16.4391 9.12293C17.2643 9.12293 18.0557 9.45309 18.6392 10.0408C19.2227 10.6284 19.5505 11.4255 19.5505 12.2566C19.5505 13.0877 19.2227 13.8848 18.6392 14.4724C18.0557 15.0601 17.2643 15.3903 16.4391 15.3903C15.6139 15.3903 14.8225 15.0601 14.239 14.4724C13.6555 13.8848 13.3276 13.0877 13.3276 12.2566C13.3276 11.4255 13.6555 10.6284 14.239 10.0408C14.8225 9.45309 15.6139 9.12293 16.4391 9.12293ZM22.662 12.2566C22.662 10.5944 22.0064 9.00028 20.8393 7.82492C19.6723 6.64957 18.0895 5.98926 16.4391 5.98926C14.7887 5.98926 13.2059 6.64957 12.0388 7.82492C10.8718 9.00028 10.2162 10.5944 10.2162 12.2566C10.2162 13.9188 10.8718 15.5129 12.0388 16.6883C13.2059 17.8636 14.7887 18.524 16.4391 18.524C18.0895 18.524 19.6723 17.8636 20.8393 16.6883C22.0064 15.5129 22.662 13.9188 22.662 12.2566ZM25.3161 26.1497C25.7563 26.5963 25.7734 26.8407 25.7734 26.9285V31.0586H7.10475V26.9285C7.10475 26.8407 7.12031 26.5963 7.56213 26.1497C8.02885 25.675 8.81449 25.1564 9.90505 24.6769C12.1017 23.707 14.79 23.2245 16.4391 23.2245C18.0882 23.2245 20.7765 23.7102 22.9731 24.6753C24.0637 25.1548 24.8478 25.675 25.3161 26.1497ZM16.4391 20.0908C20.5929 20.0908 28.8849 22.3815 28.8849 26.9285V34.1923H3.9933V26.9285C3.9933 22.3815 12.2853 20.0908 16.4391 20.0908Z" fill="#10BAB2"/>
<path fill-rule="evenodd" clip-rule="evenodd" d="M29.6219 27.8066C29.6219 27.1207 29.9478 26.4771 30.5218 26.0211C31.0668 25.5882 31.9233 25.2523 33.2432 25.2523H51.3498V22.6979H33.2432C30.9419 22.6979 29.0823 23.3199 27.8167 24.3238C26.58 25.3046 26.0006 26.5767 26.0006 27.8066V34.1924H29.6219V27.8066Z" fill="#10BAB2"/>
<path fill-rule="evenodd" clip-rule="evenodd" d="M54.073 24.1034L47.719 16.5555L46.1447 18.4256L50.9244 24.1034L46.1447 29.7812L47.719 31.6514L54.073 24.1034Z" fill="#10BAB2"/>
</svg>
