<svg width="50" height="50" viewBox="0 0 50 50" fill="none" xmlns="http://www.w3.org/2000/svg">
<path d="M42.187 26.1871V23.7965L45.187 21.1715C45.74 20.6841 46.1029 20.0168 46.2115 19.2877C46.3202 18.5586 46.1676 17.8146 45.7807 17.1871L42.0932 10.9371C41.8192 10.4625 41.4252 10.0683 40.9508 9.79407C40.4763 9.51982 39.9381 9.37516 39.3901 9.3746C39.0505 9.372 38.7127 9.42477 38.3901 9.53085L34.5932 10.8121C33.9377 10.3765 33.2539 9.98499 32.5464 9.64022L31.7495 5.70272C31.6066 4.98336 31.2152 4.33716 30.6439 3.87726C30.0726 3.41735 29.3578 3.17305 28.6245 3.1871H21.312C20.5787 3.17305 19.8638 3.41735 19.2925 3.87726C18.7212 4.33716 18.3299 4.98336 18.187 5.70272L17.3901 9.64022C16.6775 9.98491 15.9885 10.3764 15.3276 10.8121L11.6089 9.46835C11.2828 9.38339 10.9451 9.35173 10.6089 9.3746C10.0608 9.37516 9.52262 9.51982 9.04817 9.79407C8.57372 10.0683 8.17973 10.4625 7.90573 10.9371L4.21823 17.1871C3.85352 17.8136 3.718 18.5475 3.83487 19.263C3.95174 19.9785 4.31373 20.631 4.85885 21.109L7.81198 23.8121V26.2027L4.85885 28.8277C4.29834 29.309 3.92644 29.9732 3.80916 30.7026C3.69189 31.432 3.83682 32.1794 4.21823 32.8121L7.90573 39.0621C8.17973 39.5367 8.57372 39.9309 9.04817 40.2051C9.52262 40.4794 10.0608 40.624 10.6089 40.6246C10.9485 40.6272 11.2862 40.5744 11.6089 40.4683L15.4057 39.1871C16.0613 39.6227 16.7451 40.0142 17.4526 40.359L18.2495 44.2965C18.3924 45.0158 18.7837 45.662 19.355 46.1219C19.9263 46.5818 20.6412 46.8262 21.3745 46.8121H28.7495C29.4828 46.8262 30.1976 46.5818 30.7689 46.1219C31.3402 45.662 31.7316 45.0158 31.8745 44.2965L32.6714 40.359C33.384 40.0143 34.073 39.6228 34.7339 39.1871L38.5151 40.4683C38.8377 40.5744 39.1755 40.6272 39.5151 40.6246C40.0631 40.624 40.6013 40.4794 41.0758 40.2051C41.5502 39.9309 41.9442 39.5367 42.2182 39.0621L45.7807 32.8121C46.1454 32.1856 46.281 31.4517 46.1641 30.7362C46.0472 30.0207 45.6852 29.3682 45.1401 28.8902L42.187 26.1871ZM39.3901 37.4996L34.0307 35.6871C32.7761 36.7498 31.3423 37.5805 29.7964 38.1402L28.687 43.7496H21.312L20.2026 38.2027C18.6689 37.6271 17.2428 36.7978 15.9839 35.7496L10.6089 37.4996L6.92135 31.2496L11.1714 27.4996C10.8824 25.8822 10.8824 24.2264 11.1714 22.609L6.92135 18.7496L10.6089 12.4996L15.9682 14.3121C17.2228 13.2494 18.6567 12.4187 20.2026 11.859L21.312 6.2496H28.687L29.7964 11.7965C31.3301 12.3721 32.7562 13.2014 34.0151 14.2496L39.3901 12.4996L43.0776 18.7496L38.8276 22.4996C39.1165 24.117 39.1165 25.7728 38.8276 27.3902L43.0776 31.2496L39.3901 37.4996Z" fill="#10BAB2"/>
<path d="M25 34.375C23.1458 34.375 21.3332 33.8252 19.7915 32.795C18.2498 31.7649 17.0482 30.3007 16.3386 28.5877C15.6291 26.8746 15.4434 24.9896 15.8051 23.171C16.1669 21.3525 17.0598 19.682 18.3709 18.3709C19.682 17.0598 21.3525 16.1669 23.171 15.8051C24.9896 15.4434 26.8746 15.6291 28.5877 16.3386C30.3007 17.0482 31.7649 18.2498 32.795 19.7915C33.8252 21.3332 34.375 23.1458 34.375 25C34.3875 26.2346 34.1536 27.4594 33.6869 28.6024C33.2202 29.7455 32.5301 30.784 31.6571 31.6571C30.784 32.5301 29.7455 33.2202 28.6024 33.6869C27.4594 34.1536 26.2346 34.3875 25 34.375V34.375ZM25 18.75C24.174 18.7308 23.3526 18.8793 22.5857 19.1866C21.8187 19.4938 21.122 19.9535 20.5377 20.5377C19.9535 21.122 19.4938 21.8187 19.1866 22.5857C18.8793 23.3526 18.7308 24.174 18.75 25C18.7308 25.826 18.8793 26.6474 19.1866 27.4144C19.4938 28.1813 19.9535 28.878 20.5377 29.4623C21.122 30.0465 21.8187 30.5062 22.5857 30.8135C23.3526 31.1207 24.174 31.2692 25 31.25C25.826 31.2692 26.6474 31.1207 27.4144 30.8135C28.1813 30.5062 28.878 30.0465 29.4623 29.4623C30.0465 28.878 30.5062 28.1813 30.8135 27.4144C31.1207 26.6474 31.2692 25.826 31.25 25C31.2692 24.174 31.1207 23.3526 30.8135 22.5857C30.5062 21.8187 30.0465 21.122 29.4623 20.5377C28.878 19.9535 28.1813 19.4938 27.4144 19.1866C26.6474 18.8793 25.826 18.7308 25 18.75Z" fill="#10BAB2"/>
</svg>
