<svg width="36" height="36" viewBox="0 0 36 36" fill="none" xmlns="http://www.w3.org/2000/svg">
<path d="M14.0625 0.0393143C11.6297 0.172909 8.57109 0.531502 7.48125 0.819782C4.76016 1.52994 2.20078 3.85025 1.125 6.57837C0.499219 8.16041 0 12.8854 0 17.1956C0 20.6198 0.39375 25.176 0.84375 26.9268C1.575 29.7885 4.10625 32.4604 7.02422 33.4378C7.97344 33.7612 10.2516 34.0846 13.0078 34.2956C14.5758 34.4151 19.7719 34.4151 21.4523 34.2956L22.7602 34.1971L23.2102 34.5135C27.3094 37.3682 33.0258 35.8424 35.1914 31.3143C36.45 28.6846 36.2039 25.5487 34.5516 23.1792L34.2281 22.7221L34.3195 21.4213C34.4461 19.7479 34.4461 14.5588 34.3266 12.9768C34.1156 10.1995 33.7922 7.94244 33.4617 6.97213C32.5547 4.25806 30.15 1.85337 27.4359 0.953377C26.4797 0.636971 24.1102 0.299469 21.5156 0.109627C20.1375 0.00415802 15.4969 -0.0380287 14.0625 0.0393143ZM20.1164 2.71119C22.7602 2.84478 25.7414 3.20338 26.5992 3.49166C28.3219 4.06822 29.8969 5.50963 30.6844 7.22525C31.0078 7.92135 31.1133 8.35728 31.3172 9.88306C31.725 12.9487 31.8867 16.7245 31.732 19.6776C31.6969 20.4581 31.6758 20.5776 31.5773 20.5424C31.5141 20.5284 31.1836 20.3948 30.8391 20.2542C29.8547 19.8463 29.0531 19.6987 27.8086 19.7057C26.6906 19.7057 26.1562 19.7901 25.2 20.1135C23.2664 20.7604 21.4945 22.3213 20.5383 24.2057C19.4977 26.2799 19.4344 28.8393 20.3695 31.0331C20.5031 31.3565 20.6016 31.6378 20.5805 31.6518C20.4961 31.7432 15.975 31.7643 14.4141 31.687C11.9883 31.5674 9.21797 31.2581 8.19141 30.9979C6.53203 30.5831 4.8375 29.1909 3.9375 27.5104C3.41719 26.5401 3.23438 25.6682 2.95312 22.919C2.51719 18.5737 2.60156 13.6729 3.17109 9.63697C3.36797 8.24478 3.48047 7.82291 3.825 7.10572C4.51406 5.69244 5.7375 4.47603 7.13672 3.80103C7.875 3.44947 8.31797 3.32994 9.66797 3.14009C12.7687 2.70416 16.6852 2.54244 20.1164 2.71119ZM29.1656 22.5042C30.2062 22.7503 31.3734 23.4815 32.0625 24.3182C32.4844 24.8315 32.9977 25.8299 33.1664 26.4768C33.3352 27.1096 33.3352 28.5229 33.1664 29.1487C32.8781 30.2315 32.182 31.3354 31.3664 32.0104C30.832 32.4534 29.8406 32.9596 29.1797 33.1354C28.4766 33.3253 27.1266 33.3042 26.4094 33.1003C22.8164 32.0667 21.2414 27.9112 23.2734 24.8385C24.1031 23.5799 25.4039 22.7081 26.8453 22.4338C27.4781 22.3143 28.5047 22.3424 29.1656 22.5042Z" fill="#00A64F"/>
<path d="M8.05074 9.08859C7.53746 9.35578 7.29137 9.73546 7.29137 10.2698C7.28433 10.8816 7.62887 11.3597 8.21949 11.5566C8.54293 11.6691 25.7836 11.6761 26.1773 11.5636C26.5078 11.4722 26.9226 11.1206 27.0421 10.8183C27.239 10.3542 27.0914 9.61593 26.7468 9.30656C26.3461 8.955 26.7398 8.96906 17.1773 8.96906C9.1898 8.97609 8.24058 8.98312 8.05074 9.08859Z" fill="#00A64F"/>
<path d="M8.19132 17.3502C7.24913 17.6877 6.96788 18.9112 7.67804 19.558C8.11397 19.9588 7.81163 19.9448 13.8093 19.9237L19.3218 19.9026L19.596 19.6846C19.9757 19.3752 20.1374 19.0659 20.1374 18.6369C20.1374 18.1729 19.9335 17.7791 19.5538 17.512L19.2515 17.301L13.8304 17.287C10.1038 17.2799 8.33897 17.301 8.19132 17.3502Z" fill="#00A64F"/>
<path d="M27.3164 23.7276C26.9789 23.8822 26.7609 24.1072 26.6133 24.4518C26.5289 24.6557 26.5078 25.0072 26.5078 26.069C26.5078 27.2924 26.5219 27.4471 26.6555 27.7213C27.0281 28.4947 27.9773 28.7127 28.6805 28.1854C29.1164 27.8479 29.1797 27.6018 29.1797 26.0408C29.1797 25.2322 29.1516 24.5783 29.1023 24.4588C29.0039 24.1916 28.6312 23.8119 28.357 23.6924C28.0477 23.5588 27.6539 23.5729 27.3164 23.7276Z" fill="#00A64F"/>
<path d="M27.4219 29.3596C26.6555 29.4299 26.4726 29.7252 26.5219 30.8432C26.543 31.4549 26.564 31.5534 26.7187 31.7151C26.9578 31.9682 27.3515 32.0526 28.0828 32.0104C28.6664 31.9823 28.7156 31.9612 28.9265 31.7573C29.1445 31.5393 29.1445 31.5252 29.1656 30.7448C29.1797 30.0487 29.1656 29.9291 29.039 29.7252C28.9617 29.5987 28.8281 29.4721 28.7367 29.437C28.5187 29.3526 27.8789 29.3174 27.4219 29.3596Z" fill="#00A64F"/>
</svg>
