<svg width="70" height="70" viewBox="0 0 70 70" fill="none" xmlns="http://www.w3.org/2000/svg">
<rect width="70" height="70" rx="10" fill="url(#paint0_linear_1463_768)"/>
<path d="M22.5158 65.0946C24.5182 65.0946 26.1415 63.4713 26.1415 61.4689C26.1415 59.4665 24.5182 57.8433 22.5158 57.8433C20.5134 57.8433 18.8901 59.4665 18.8901 61.4689C18.8901 63.4713 20.5134 65.0946 22.5158 65.0946Z" fill="#4F5052"/>
<path d="M40.1262 65.0946C42.1286 65.0946 43.7518 63.4713 43.7518 61.4689C43.7518 59.4665 42.1286 57.8433 40.1262 57.8433C38.1238 57.8433 36.5005 59.4665 36.5005 61.4689C36.5005 63.4713 38.1238 65.0946 40.1262 65.0946Z" fill="#4F5052"/>
<path d="M6.45947 24.6943L15.7826 30.9098L20.9622 53.6997H41.6803L46.8598 36.0893H18.049" stroke="#4F5052" stroke-width="4" stroke-linecap="round" stroke-linejoin="round"/>
<path d="M20.0024 45.4121L30.7978 45.4121L43.7524 45.4121" stroke="#4F5052" stroke-width="4" stroke-linecap="round" stroke-linejoin="round"/>
<circle cx="43.7514" cy="24.6943" r="19.789" fill="#F9CF56" stroke="#4F5052" stroke-width="3"/>
<path d="M38.9319 17.4881C39.3052 16.3495 40.0612 15.3415 41.1999 14.4641C42.3385 13.5681 43.6545 13.1201 45.1479 13.1201C46.6599 13.1201 47.8732 13.5308 48.7879 14.3521C49.7212 15.1548 50.1879 16.1348 50.1879 17.2921C50.1879 18.4495 49.7585 19.4761 48.8999 20.3721C48.0412 21.2495 46.9679 21.8561 45.6799 22.1921C46.9492 22.4161 47.9852 22.9575 48.7879 23.8161C49.6092 24.6748 50.0199 25.7855 50.0199 27.1481C50.0199 28.8655 49.3012 30.3308 47.8639 31.5441C46.4265 32.7388 44.7465 33.3361 42.8239 33.3361C40.7332 33.3361 39.0719 32.7201 37.8399 31.4881C37.1865 30.8535 36.8599 30.0975 36.8599 29.2201C36.8599 28.9401 36.9345 28.6041 37.0839 28.2121C37.2332 27.8015 37.4199 27.4841 37.6439 27.2601C37.8305 27.2228 38.0359 27.2041 38.2599 27.2041C39.5852 27.2041 40.6025 27.5588 41.3119 28.2681L40.9199 31.2361C41.1812 31.4415 41.6199 31.5441 42.2359 31.5441C43.1692 31.5441 43.9719 31.0588 44.6439 30.0881C45.3345 29.0988 45.6799 27.9321 45.6799 26.5881C45.6799 25.2441 45.3812 24.3295 44.7839 23.8441C44.1865 23.3401 43.1972 23.0881 41.8159 23.0881L41.1719 23.1161L41.3399 21.6881C42.2545 21.5948 42.9359 21.4455 43.3839 21.2401C43.8505 21.0161 44.2799 20.7548 44.6719 20.4561C45.5492 19.8215 45.9879 18.8788 45.9879 17.6281C45.9879 16.8441 45.7732 16.2655 45.3439 15.8921C44.9332 15.5001 44.4385 15.3041 43.8599 15.3041C42.3292 15.3041 41.0972 16.2095 40.1639 18.0201L38.9319 17.4881Z" fill="#4F5052"/>
<defs>
<linearGradient id="paint0_linear_1463_768" x1="35" y1="0" x2="35" y2="70" gradientUnits="userSpaceOnUse">
<stop stop-color="#F9CF56" stop-opacity="0.52"/>
<stop offset="1" stop-color="#F9CF56" stop-opacity="0.72"/>
</linearGradient>
</defs>
</svg>
