<svg width="36" height="30" viewBox="0 0 36 30" fill="none" xmlns="http://www.w3.org/2000/svg">
<path d="M4.85163 0.737742C2.32741 1.22993 0.555534 2.96665 0.0985029 5.40649C-0.0350908 6.10259 6.53993e-05 7.16431 0.182878 7.83227C0.337565 8.4229 0.717253 9.2104 1.08288 9.71665C1.25163 9.95571 2.3696 11.1229 3.56491 12.3182L5.73053 14.4768L8.02272 12.1776C10.4626 9.73071 10.6805 9.45649 11.0743 8.40884C12.2344 5.31509 10.4837 1.82056 7.31257 0.906492C6.79225 0.758837 5.2946 0.653368 4.85163 0.737742ZM6.47585 4.77368C7.06647 5.07602 7.45319 5.70181 7.45319 6.35571C7.45319 7.67056 6.01882 8.52837 4.85866 7.90259C4.24694 7.56509 3.93757 7.04477 3.93757 6.33462C3.93757 5.04087 5.32272 4.19009 6.47585 4.77368Z" fill="#00A64F"/>
<path d="M10.8985 13.4151C10.8985 14.0015 11.3739 14.4768 11.9603 14.4768H14.5056C18.4853 14.4768 18.7524 14.5049 19.3923 14.8987C21.1782 15.9956 21.0235 18.5901 19.1251 19.4971L18.6681 19.7151L12.9024 19.7573C6.46182 19.7995 6.89072 19.7643 5.76572 20.3198C4.60557 20.8963 3.66338 22.0846 3.33291 23.4065C3.08682 24.3698 3.23447 25.7479 3.68447 26.6268C4.29619 27.8362 5.47041 28.7643 6.80635 29.1088C7.3126 29.2354 7.67119 29.2424 16.2212 29.2424H24.047C24.6295 29.2424 25.1017 28.7702 25.1017 28.1877C25.1017 27.605 24.6297 27.1323 24.047 27.1314L16.1931 27.119L7.27744 27.0979L6.84853 26.901C6.17353 26.5917 5.59697 25.9096 5.40713 25.2206C5.05557 23.9198 5.74463 22.5698 7.01728 22.0565L7.41807 21.8948L13.2188 21.8596L19.0196 21.8174L19.5751 21.6206C21.0235 21.0932 22.1626 19.8838 22.6126 18.3791C22.8095 17.7252 22.7954 16.4948 22.5845 15.8127C22.0853 14.2026 20.8688 13.0143 19.2306 12.5362C18.8579 12.4237 18.3728 12.4096 14.8571 12.3885L11.9532 12.3679C11.3719 12.3638 10.8985 12.8338 10.8985 13.4151Z" fill="#00A64F"/>
<path d="M29.0883 15.5737C27.3516 15.9604 25.9102 17.0924 25.1367 18.6815C24.307 20.376 24.3844 22.4081 25.3547 24.0745C25.6359 24.5526 26.0156 24.9745 27.9773 26.9432L30.2695 29.2424L32.4703 27.0487C33.6867 25.8393 34.8047 24.6651 34.9594 24.4331C37.1953 21.1917 35.6133 16.762 31.8375 15.6651C31.1484 15.4682 29.7633 15.419 29.0883 15.5737ZM30.6352 19.3987C31.1273 19.5112 31.5844 19.8698 31.8164 20.3409C31.9781 20.6784 32.0062 20.7979 31.9781 21.2198C31.943 21.8526 31.6828 22.2956 31.1625 22.6049C30.6844 22.8932 30.2695 22.9565 29.7914 22.8159C28.0266 22.3026 28.0617 19.8276 29.8477 19.3917C30.157 19.3213 30.2625 19.3213 30.6352 19.3987Z" fill="#00A64F"/>
</svg>
