<svg width="70" height="70" viewBox="0 0 70 70" fill="none" xmlns="http://www.w3.org/2000/svg">
<rect width="70" height="70" rx="10" fill="url(#paint0_linear_1463_776)"/>
<path d="M22.5158 65.0946C24.5182 65.0946 26.1415 63.4713 26.1415 61.4689C26.1415 59.4665 24.5182 57.8433 22.5158 57.8433C20.5134 57.8433 18.8901 59.4665 18.8901 61.4689C18.8901 63.4713 20.5134 65.0946 22.5158 65.0946Z" fill="#4F5052"/>
<path d="M40.1262 65.0946C42.1286 65.0946 43.7518 63.4713 43.7518 61.4689C43.7518 59.4665 42.1286 57.8433 40.1262 57.8433C38.1238 57.8433 36.5005 59.4665 36.5005 61.4689C36.5005 63.4713 38.1238 65.0946 40.1262 65.0946Z" fill="#4F5052"/>
<path d="M6.45947 24.6943L15.7826 30.9098L20.9622 53.6997H41.6803L46.8598 36.0893H18.049" stroke="#4F5052" stroke-width="4" stroke-linecap="round" stroke-linejoin="round"/>
<path d="M20.0024 45.4121L30.7978 45.4121L43.7524 45.4121" stroke="#4F5052" stroke-width="4" stroke-linecap="round" stroke-linejoin="round"/>
<circle cx="43.7514" cy="24.6943" r="19.789" fill="#F9CF56" stroke="#4F5052" stroke-width="3"/>
<path d="M47.4158 33.5041C46.7625 33.5041 45.7825 33.1308 44.4758 32.3841C43.1691 31.6188 42.0865 31.1148 41.2278 30.8721C40.5931 31.5441 39.9771 32.0948 39.3798 32.5241C38.8011 32.9348 38.4091 33.1401 38.2038 33.1401C37.9985 33.1401 37.6251 32.8135 37.0838 32.1601C36.5611 31.4881 36.2998 30.9841 36.2998 30.6481C36.2998 30.2935 36.6078 29.7988 37.2238 29.1641C37.8585 28.5108 38.5865 28.1841 39.4078 28.1841C39.9118 28.1841 40.4065 28.2401 40.8918 28.3521C42.1985 27.3068 43.4398 25.7948 44.6158 23.8161C45.7918 21.8188 46.3798 20.0735 46.3798 18.5801C46.3798 17.7401 46.1278 17.0868 45.6238 16.6201C45.1198 16.1348 44.5038 15.8921 43.7758 15.8921C43.0665 15.8921 42.3665 16.1255 41.6758 16.5921C41.0038 17.0588 40.4251 17.7028 39.9398 18.5241L38.6518 17.9641C39.0251 16.7881 39.8651 15.6868 41.1718 14.6601C42.4971 13.6335 43.9625 13.1201 45.5678 13.1201C47.1918 13.1201 48.4518 13.5588 49.3478 14.4361C50.2625 15.3135 50.7198 16.4148 50.7198 17.7401C50.7198 18.6921 50.4398 19.7375 49.8798 20.8761C49.3385 21.9961 48.6385 23.0695 47.7798 24.0961C46.1745 25.9815 44.5691 27.5681 42.9638 28.8561C45.2971 29.4908 47.0985 29.8081 48.3678 29.8081C48.7225 29.8081 48.9838 29.7148 49.1518 29.5281C49.3198 29.3228 49.5811 28.8655 49.9358 28.1561L50.8598 28.3521C50.6731 31.7868 49.5251 33.5041 47.4158 33.5041Z" fill="#4F5052"/>
<defs>
<linearGradient id="paint0_linear_1463_776" x1="35" y1="0" x2="35" y2="70" gradientUnits="userSpaceOnUse">
<stop stop-color="#F9CF56" stop-opacity="0.52"/>
<stop offset="1" stop-color="#F9CF56" stop-opacity="0.72"/>
</linearGradient>
</defs>
</svg>
