<svg width="40" height="36" viewBox="0 0 40 36" fill="none" xmlns="http://www.w3.org/2000/svg">
<path d="M4.2186 0.23439C3.93735 0.289078 3.37485 0.507828 2.9686 0.70314C2.36704 1.00002 2.10923 1.18752 1.5936 1.71095C1.06235 2.23439 0.890476 2.47658 0.601414 3.08595C-0.0392113 4.40627 -0.000148838 3.39845 -0.000148838 18C-0.000148838 32.6016 -0.0392113 31.5938 0.601414 32.9141C0.890476 33.5235 1.06235 33.7656 1.5936 34.2891C2.10923 34.8125 2.36704 35 2.9686 35.2969C4.26548 35.9297 2.9686 35.8906 19.9999 35.8906C37.0311 35.8906 35.7342 35.9297 37.0311 35.2969C37.6327 35 37.8905 34.8125 38.3983 34.2969C38.9139 33.7813 39.1014 33.5235 39.3983 32.9219C40.0389 31.6016 40.0077 32.3516 39.9842 20.1094L39.9608 9.28908L39.7499 8.66408C39.2186 7.09377 38.0858 5.87502 36.6014 5.27345L36.0545 5.0547L35.9999 4.64845C35.7499 2.9297 34.5624 1.3672 32.9295 0.617203C31.7733 0.0781403 32.6795 0.10939 17.992 0.117203C6.9686 0.117203 4.64048 0.14064 4.2186 0.23439ZM31.7577 2.83595C32.078 2.96877 32.3592 3.16408 32.6561 3.46095C33.0624 3.8672 33.4374 4.4922 33.4374 4.75783C33.4374 4.85939 31.7342 4.87502 18.9295 4.89064L4.41391 4.91408L3.86704 5.10158C3.57016 5.20314 3.1561 5.3672 2.95298 5.46877C2.74985 5.57033 2.56235 5.65627 2.5311 5.65627C2.49985 5.65627 2.49985 5.47658 2.5311 5.25783C2.69516 4.00783 3.56235 3.00002 4.7186 2.71877C5.0311 2.64064 7.9686 2.62502 18.203 2.63283L31.2889 2.64845L31.7577 2.83595ZM35.6639 7.60158C36.3045 7.85939 37.0155 8.57033 37.2733 9.21095C37.453 9.67189 37.4608 9.72658 37.4608 12.1797V14.6797L32.8514 14.7188L28.242 14.7578L27.5858 14.9844C26.6874 15.3047 25.6405 16.0156 25.0545 16.711C24.492 17.3828 23.9452 18.4766 23.7811 19.25C23.5936 20.125 23.6639 21.4453 23.9374 22.2578C24.578 24.1563 26.0545 25.5313 28.0467 26.0938C28.4999 26.2188 29.0077 26.2344 33.0311 26.2578L37.5077 26.2891L37.4842 28.6875C37.453 31.4531 37.4139 31.6328 36.7186 32.3985C36.2655 32.8985 35.7499 33.1875 35.117 33.3125C34.7733 33.375 30.6092 33.3906 19.7264 33.375L4.80454 33.3516L4.33579 33.1641C3.69516 32.9063 2.98423 32.1953 2.72641 31.5547L2.53891 31.086V20.3828V9.6797L2.72641 9.21095C3.07016 8.3672 4.00766 7.60939 4.89829 7.45314C5.10923 7.42189 12.0077 7.39845 20.2342 7.40627L35.1952 7.41408L35.6639 7.60158ZM37.4999 20.461V23.7031H33.2186C29.5311 23.7031 28.8749 23.6875 28.5077 23.5781C27.1639 23.1875 26.1795 21.8672 26.1717 20.4453C26.1717 19.9688 26.3827 19.2344 26.6639 18.7578C27.0467 18.1094 27.9061 17.4766 28.6483 17.3047C28.8124 17.2656 30.867 17.2344 33.2264 17.2266L37.4999 17.2188V20.461Z" fill="#10BAB2"/>
<path d="M29.2968 19.4219C28.4765 19.8359 28.3515 20.9453 29.0547 21.5391C29.914 22.2656 31.1718 21.7031 31.1875 20.5937C31.1953 19.5469 30.2265 18.9531 29.2968 19.4219Z" fill="#10BAB2"/>
</svg>
