<svg width="60" height="60" viewBox="0 0 60 60" fill="none" xmlns="http://www.w3.org/2000/svg">
<path d="M40.7812 13.082C37.884 9.73783 34.6304 6.71996 31.0781 4.08198C30.7611 3.86327 30.3851 3.74614 30 3.74614C29.6149 3.74614 29.2389 3.86327 28.9219 4.08198C25.3696 6.71996 22.116 9.73783 19.2188 13.082C12.7734 20.4648 9.375 28.2695 9.375 35.6289C9.375 41.0989 11.548 46.345 15.4159 50.2129C19.2839 54.0809 24.5299 56.2539 30 56.2539C35.4701 56.2539 40.7161 54.0809 44.5841 50.2129C48.452 46.345 50.625 41.0989 50.625 35.6289C50.625 28.2695 47.2266 20.4648 40.7812 13.082ZM30 52.5039C25.5264 52.4977 21.2378 50.7178 18.0744 47.5544C14.9111 44.3911 13.1312 40.1025 13.125 35.6289C13.125 22.2226 26.1328 11.0195 30 7.9726C33.8672 11.0195 46.875 22.2226 46.875 35.6289C46.8688 40.1025 45.0889 44.3911 41.9256 47.5544C38.7622 50.7178 34.4736 52.4977 30 52.5039Z" fill="#08908C"/>
<path d="M20.8373 35.8462V28.7222L19.2253 29.9312L18.5103 28.8132L21.1233 26.9152H22.3453V35.8462H20.8373ZM25.2237 35.9502C24.9464 35.9502 24.7124 35.8592 24.5217 35.6772C24.3311 35.4865 24.2357 35.2568 24.2357 34.9882C24.2357 34.7195 24.3311 34.4898 24.5217 34.2992C24.7211 34.1085 24.9551 34.0132 25.2237 34.0132C25.4924 34.0132 25.7221 34.1085 25.9127 34.2992C26.1034 34.4898 26.1987 34.7195 26.1987 34.9882C26.1987 35.2568 26.1034 35.4865 25.9127 35.6772C25.7221 35.8592 25.4924 35.9502 25.2237 35.9502ZM30.7825 30.1132C31.5799 30.1132 32.2472 30.3732 32.7845 30.8932C33.3305 31.4132 33.6035 32.1108 33.6035 32.9862C33.6035 33.8702 33.3132 34.5852 32.7325 35.1312C32.1519 35.6772 31.3892 35.9502 30.4445 35.9502C29.8292 35.9502 29.2529 35.8245 28.7155 35.5732C28.1869 35.3218 27.7492 34.9665 27.4025 34.5072L28.4945 33.6362C28.9192 34.2515 29.5259 34.5592 30.3145 34.5592C30.8519 34.5592 31.2765 34.4118 31.5885 34.1172C31.9092 33.8138 32.0695 33.4282 32.0695 32.9602C32.0695 32.4835 31.8962 32.1065 31.5495 31.8292C31.2029 31.5518 30.7999 31.4132 30.3405 31.4132C29.7512 31.4132 29.2659 31.5692 28.8845 31.8812L28.0655 31.5952L28.3255 26.9152H33.1615V28.2932H29.7425L29.6255 30.3082C30.0415 30.1782 30.4272 30.1132 30.7825 30.1132ZM35.4034 35.8462V26.6162H36.9764V34.4422H41.2534V35.8462H35.4034Z" fill="#08908C"/>
</svg>
