<svg width="60" height="60" viewBox="0 0 60 60" fill="none" xmlns="http://www.w3.org/2000/svg">
<path d="M40.7812 13.082C37.884 9.73783 34.6304 6.71996 31.0781 4.08198C30.7611 3.86327 30.3851 3.74614 30 3.74614C29.6149 3.74614 29.2389 3.86327 28.9219 4.08198C25.3696 6.71996 22.116 9.73783 19.2188 13.082C12.7734 20.4648 9.375 28.2695 9.375 35.6289C9.375 41.0989 11.548 46.345 15.4159 50.2129C19.2839 54.0809 24.5299 56.2539 30 56.2539C35.4701 56.2539 40.7161 54.0809 44.5841 50.2129C48.452 46.345 50.625 41.0989 50.625 35.6289C50.625 28.2695 47.2266 20.4648 40.7812 13.082ZM30 52.5039C25.5264 52.4977 21.2378 50.7178 18.0744 47.5544C14.9111 44.3911 13.1312 40.1025 13.125 35.6289C13.125 22.2226 26.1328 11.0195 30 7.9726C33.8672 11.0195 46.875 22.2226 46.875 35.6289C46.8688 40.1025 45.0889 44.3911 41.9256 47.5544C38.7622 50.7178 34.4736 52.4977 30 52.5039Z" fill="#08908C"/>
<path d="M21.7514 30.7692V23.6452L20.1394 24.8542L19.4244 23.7362L22.0374 21.8382H23.2594V30.7692H21.7514ZM28.4908 30.8732C27.4594 30.8732 26.6274 30.4702 25.9948 29.6642C25.3708 28.8496 25.0588 27.7316 25.0588 26.3102C25.0588 24.9409 25.3664 23.8402 25.9818 23.0082C26.5971 22.1676 27.4334 21.7472 28.4908 21.7472C29.5221 21.7472 30.3498 22.1502 30.9738 22.9562C31.6064 23.7622 31.9228 24.8802 31.9228 26.3102C31.9228 27.6796 31.6151 28.7846 30.9998 29.6252C30.3931 30.4572 29.5568 30.8732 28.4908 30.8732ZM28.4908 29.4692C29.0888 29.4692 29.5524 29.1919 29.8818 28.6372C30.2198 28.0826 30.3888 27.3069 30.3888 26.3102C30.3888 25.3136 30.2198 24.5379 29.8818 23.9832C29.5438 23.4199 29.0801 23.1382 28.4908 23.1382C27.9014 23.1382 27.4378 23.4199 27.0998 23.9832C26.7618 24.5379 26.5928 25.3136 26.5928 26.3102C26.5928 27.2896 26.7618 28.0609 27.0998 28.6242C27.4464 29.1876 27.9101 29.4692 28.4908 29.4692ZM36.7046 30.8732C35.6733 30.8732 34.8413 30.4702 34.2086 29.6642C33.5846 28.8496 33.2726 27.7316 33.2726 26.3102C33.2726 24.9409 33.5803 23.8402 34.1956 23.0082C34.811 22.1676 35.6473 21.7472 36.7046 21.7472C37.736 21.7472 38.5636 22.1502 39.1876 22.9562C39.8203 23.7622 40.1366 24.8802 40.1366 26.3102C40.1366 27.6796 39.829 28.7846 39.2136 29.6252C38.607 30.4572 37.7706 30.8732 36.7046 30.8732ZM36.7046 29.4692C37.3026 29.4692 37.7663 29.1919 38.0956 28.6372C38.4336 28.0826 38.6026 27.3069 38.6026 26.3102C38.6026 25.3136 38.4336 24.5379 38.0956 23.9832C37.7576 23.4199 37.294 23.1382 36.7046 23.1382C36.1153 23.1382 35.6516 23.4199 35.3136 23.9832C34.9756 24.5379 34.8066 25.3136 34.8066 26.3102C34.8066 27.2896 34.9756 28.0609 35.3136 28.6242C35.6603 29.1876 36.124 29.4692 36.7046 29.4692ZM30.989 36.3342C31.6996 36.3342 32.2456 36.5639 32.627 37.0232C33.017 37.4826 33.212 38.1759 33.212 39.1032V42.7692H31.756V39.4672C31.756 38.2539 31.3443 37.6472 30.521 37.6472C30.0963 37.6472 29.741 37.8249 29.455 38.1802C29.1776 38.5269 29.039 39.0036 29.039 39.6102V42.7692H27.583V39.4672C27.583 38.2539 27.1626 37.6472 26.322 37.6472C25.8713 37.6472 25.503 37.8249 25.217 38.1802C24.9396 38.5269 24.801 39.0036 24.801 39.6102V42.7692H23.345V36.4252H24.801V37.3092H24.814C25.3426 36.6592 26.0013 36.3342 26.79 36.3342C27.6826 36.3342 28.3153 36.6852 28.688 37.3872H28.714C29.26 36.6852 30.0183 36.3342 30.989 36.3342ZM35.103 42.7692V33.2012H36.559V42.7692H35.103Z" fill="#08908C"/>
</svg>
