<svg width="60" height="60" viewBox="0 0 60 60" fill="none" xmlns="http://www.w3.org/2000/svg">
<path d="M40.7812 13.082C37.884 9.73783 34.6304 6.71996 31.0781 4.08198C30.7611 3.86327 30.3851 3.74614 30 3.74614C29.6149 3.74614 29.2389 3.86327 28.9219 4.08198C25.3696 6.71996 22.116 9.73783 19.2188 13.082C12.7734 20.4648 9.375 28.2695 9.375 35.6289C9.375 41.0989 11.548 46.345 15.4159 50.2129C19.2839 54.0809 24.5299 56.2539 30 56.2539C35.4701 56.2539 40.7161 54.0809 44.5841 50.2129C48.452 46.345 50.625 41.0989 50.625 35.6289C50.625 28.2695 47.2266 20.4648 40.7812 13.082ZM30 52.5039C25.5264 52.4977 21.2378 50.7178 18.0744 47.5544C14.9111 44.3911 13.1312 40.1025 13.125 35.6289C13.125 22.2226 26.1328 11.0195 30 7.9726C33.8672 11.0195 46.875 22.2226 46.875 35.6289C46.8688 40.1025 45.0889 44.3911 41.9256 47.5544C38.7622 50.7178 34.4736 52.4977 30 52.5039Z" fill="#08908C"/>
<path d="M25.6094 36.4682H29.0934V37.8462H23.3604L23.3344 36.8452L26.2074 33.8162C26.632 33.3742 26.9484 32.9885 27.1564 32.6592C27.3644 32.3212 27.4684 31.9745 27.4684 31.6192C27.4684 31.2205 27.3384 30.8912 27.0784 30.6312C26.827 30.3625 26.502 30.2282 26.1034 30.2282C25.3667 30.2282 24.799 30.5792 24.4004 31.2812L23.3214 30.5142C23.9194 29.3875 24.8814 28.8242 26.2074 28.8242C26.9787 28.8242 27.6374 29.0668 28.1834 29.5522C28.7294 30.0288 29.0024 30.6615 29.0024 31.4502C29.0024 31.9615 28.8897 32.4512 28.6644 32.9192C28.4477 33.3872 28.0664 33.9028 27.5204 34.4662L25.6094 36.4552V36.4682ZM30.8643 37.8462V28.6162H32.4373V36.4422H36.7143V37.8462H30.8643Z" fill="#08908C"/>
</svg>
