<svg width="60" height="60" viewBox="0 0 60 60" fill="none" xmlns="http://www.w3.org/2000/svg">
<path d="M40.7812 13.082C37.884 9.73783 34.6304 6.71996 31.0781 4.08198C30.7611 3.86327 30.3851 3.74614 30 3.74614C29.6149 3.74614 29.2389 3.86327 28.9219 4.08198C25.3696 6.71996 22.116 9.73783 19.2188 13.082C12.7734 20.4648 9.375 28.2695 9.375 35.6289C9.375 41.0989 11.548 46.345 15.4159 50.2129C19.2839 54.0809 24.5299 56.2539 30 56.2539C35.4701 56.2539 40.7161 54.0809 44.5841 50.2129C48.452 46.345 50.625 41.0989 50.625 35.6289C50.625 28.2695 47.2266 20.4648 40.7812 13.082ZM30 52.5039C25.5264 52.4977 21.2378 50.7178 18.0744 47.5544C14.9111 44.3911 13.1312 40.1025 13.125 35.6289C13.125 22.2226 26.1328 11.0195 30 7.9726C33.8672 11.0195 46.875 22.2226 46.875 35.6289C46.8688 40.1025 45.0889 44.3911 41.9256 47.5544C38.7622 50.7178 34.4736 52.4977 30 52.5039Z" fill="#08908C"/>
<path d="M21.6172 29.3912H25.1012V30.7692H19.3682L19.3422 29.7682L22.2152 26.7392C22.6399 26.2972 22.9562 25.9116 23.1642 25.5822C23.3722 25.2442 23.4762 24.8976 23.4762 24.5422C23.4762 24.1436 23.3462 23.8142 23.0862 23.5542C22.8349 23.2856 22.5099 23.1512 22.1112 23.1512C21.3746 23.1512 20.8069 23.5022 20.4082 24.2042L19.3292 23.4372C19.9272 22.3106 20.8892 21.7472 22.2152 21.7472C22.9866 21.7472 23.6452 21.9899 24.1912 22.4752C24.7372 22.9519 25.0102 23.5846 25.0102 24.3732C25.0102 24.8846 24.8976 25.3742 24.6722 25.8422C24.4556 26.3102 24.0742 26.8259 23.5282 27.3892L21.6172 29.3782V29.3912ZM29.5892 25.0362C30.3865 25.0362 31.0538 25.2962 31.5912 25.8162C32.1372 26.3362 32.4102 27.0339 32.4102 27.9092C32.4102 28.7932 32.1198 29.5082 31.5392 30.0542C30.9585 30.6002 30.1958 30.8732 29.2512 30.8732C28.6358 30.8732 28.0595 30.7476 27.5222 30.4962C26.9935 30.2449 26.5558 29.8896 26.2092 29.4302L27.3012 28.5592C27.7258 29.1746 28.3325 29.4822 29.1212 29.4822C29.6585 29.4822 30.0832 29.3349 30.3952 29.0402C30.7158 28.7369 30.8762 28.3512 30.8762 27.8832C30.8762 27.4066 30.7028 27.0296 30.3562 26.7522C30.0095 26.4749 29.6065 26.3362 29.1472 26.3362C28.5578 26.3362 28.0725 26.4922 27.6912 26.8042L26.8722 26.5182L27.1322 21.8382H31.9682V23.2162H28.5492L28.4322 25.2312C28.8482 25.1012 29.2338 25.0362 29.5892 25.0362ZM37.0728 30.8732C36.0415 30.8732 35.2095 30.4702 34.5768 29.6642C33.9528 28.8496 33.6408 27.7316 33.6408 26.3102C33.6408 24.9409 33.9485 23.8402 34.5638 23.0082C35.1791 22.1676 36.0155 21.7472 37.0728 21.7472C38.1041 21.7472 38.9318 22.1502 39.5558 22.9562C40.1885 23.7622 40.5048 24.8802 40.5048 26.3102C40.5048 27.6796 40.1971 28.7846 39.5818 29.6252C38.9751 30.4572 38.1388 30.8732 37.0728 30.8732ZM37.0728 29.4692C37.6708 29.4692 38.1345 29.1919 38.4638 28.6372C38.8018 28.0826 38.9708 27.3069 38.9708 26.3102C38.9708 25.3136 38.8018 24.5379 38.4638 23.9832C38.1258 23.4199 37.6621 23.1382 37.0728 23.1382C36.4835 23.1382 36.0198 23.4199 35.6818 23.9832C35.3438 24.5379 35.1748 25.3136 35.1748 26.3102C35.1748 27.2896 35.3438 28.0609 35.6818 28.6242C36.0285 29.1876 36.4921 29.4692 37.0728 29.4692ZM30.989 36.3342C31.6996 36.3342 32.2456 36.5639 32.627 37.0232C33.017 37.4826 33.212 38.1759 33.212 39.1032V42.7692H31.756V39.4672C31.756 38.2539 31.3443 37.6472 30.521 37.6472C30.0963 37.6472 29.741 37.8249 29.455 38.1802C29.1776 38.5269 29.039 39.0036 29.039 39.6102V42.7692H27.583V39.4672C27.583 38.2539 27.1626 37.6472 26.322 37.6472C25.8713 37.6472 25.503 37.8249 25.217 38.1802C24.9396 38.5269 24.801 39.0036 24.801 39.6102V42.7692H23.345V36.4252H24.801V37.3092H24.814C25.3426 36.6592 26.0013 36.3342 26.79 36.3342C27.6826 36.3342 28.3153 36.6852 28.688 37.3872H28.714C29.26 36.6852 30.0183 36.3342 30.989 36.3342ZM35.103 42.7692V33.2012H36.559V42.7692H35.103Z" fill="#08908C"/>
</svg>
