<svg width="60" height="60" viewBox="0 0 60 60" fill="none" xmlns="http://www.w3.org/2000/svg">
<path d="M40.7812 13.082C37.884 9.73783 34.6304 6.71996 31.0781 4.08198C30.7611 3.86327 30.3851 3.74614 30 3.74614C29.6149 3.74614 29.2389 3.86327 28.9219 4.08198C25.3696 6.71996 22.116 9.73783 19.2188 13.082C12.7734 20.4648 9.375 28.2695 9.375 35.6289C9.375 41.0989 11.548 46.345 15.4159 50.2129C19.2839 54.0809 24.5299 56.2539 30 56.2539C35.4701 56.2539 40.7161 54.0809 44.5841 50.2129C48.452 46.345 50.625 41.0989 50.625 35.6289C50.625 28.2695 47.2266 20.4648 40.7812 13.082ZM30 52.5039C25.5264 52.4977 21.2378 50.7178 18.0744 47.5544C14.9111 44.3911 13.1312 40.1025 13.125 35.6289C13.125 22.2226 26.1328 11.0195 30 7.9726C33.8672 11.0195 46.875 22.2226 46.875 35.6289C46.8688 40.1025 45.0889 44.3911 41.9256 47.5544C38.7622 50.7178 34.4736 52.4977 30 52.5039Z" fill="#08908C"/>
<path d="M26.1297 25.0362C26.927 25.0362 27.5943 25.2962 28.1317 25.8162C28.6777 26.3362 28.9507 27.0339 28.9507 27.9092C28.9507 28.7932 28.6603 29.5082 28.0797 30.0542C27.499 30.6002 26.7363 30.8732 25.7917 30.8732C25.1763 30.8732 24.6 30.7476 24.0627 30.4962C23.534 30.2449 23.0963 29.8896 22.7497 29.4302L23.8417 28.5592C24.2663 29.1746 24.873 29.4822 25.6617 29.4822C26.199 29.4822 26.6237 29.3349 26.9357 29.0402C27.2563 28.7369 27.4167 28.3512 27.4167 27.8832C27.4167 27.4066 27.2433 27.0296 26.8967 26.7522C26.55 26.4749 26.147 26.3362 25.6877 26.3362C25.0983 26.3362 24.613 26.4922 24.2317 26.8042L23.4127 26.5182L23.6727 21.8382H28.5087V23.2162H25.0897L24.9727 25.2312C25.3887 25.1012 25.7743 25.0362 26.1297 25.0362ZM33.6133 30.8732C32.582 30.8732 31.75 30.4702 31.1173 29.6642C30.4933 28.8496 30.1813 27.7316 30.1813 26.3102C30.1813 24.9409 30.489 23.8402 31.1043 23.0082C31.7196 22.1676 32.556 21.7472 33.6133 21.7472C34.6446 21.7472 35.4723 22.1502 36.0963 22.9562C36.729 23.7622 37.0453 24.8802 37.0453 26.3102C37.0453 27.6796 36.7376 28.7846 36.1223 29.6252C35.5156 30.4572 34.6793 30.8732 33.6133 30.8732ZM33.6133 29.4692C34.2113 29.4692 34.675 29.1919 35.0043 28.6372C35.3423 28.0826 35.5113 27.3069 35.5113 26.3102C35.5113 25.3136 35.3423 24.5379 35.0043 23.9832C34.6663 23.4199 34.2026 23.1382 33.6133 23.1382C33.024 23.1382 32.5603 23.4199 32.2223 23.9832C31.8843 24.5379 31.7153 25.3136 31.7153 26.3102C31.7153 27.2896 31.8843 28.0609 32.2223 28.6242C32.569 29.1876 33.0326 29.4692 33.6133 29.4692ZM30.9889 36.3342C31.6996 36.3342 32.2456 36.5639 32.6269 37.0232C33.0169 37.4826 33.2119 38.1759 33.2119 39.1032V42.7692H31.7559V39.4672C31.7559 38.2539 31.3443 37.6472 30.5209 37.6472C30.0963 37.6472 29.7409 37.8249 29.4549 38.1802C29.1776 38.5269 29.0389 39.0036 29.0389 39.6102V42.7692H27.5829V39.4672C27.5829 38.2539 27.1626 37.6472 26.3219 37.6472C25.8713 37.6472 25.5029 37.8249 25.2169 38.1802C24.9396 38.5269 24.8009 39.0036 24.8009 39.6102V42.7692H23.3449V36.4252H24.8009V37.3092H24.8139C25.3426 36.6592 26.0013 36.3342 26.7899 36.3342C27.6826 36.3342 28.3153 36.6852 28.6879 37.3872H28.7139C29.2599 36.6852 30.0183 36.3342 30.9889 36.3342ZM35.1029 42.7692V33.2012H36.5589V42.7692H35.1029Z" fill="#08908C"/>
</svg>
