<svg width="60" height="60" viewBox="0 0 60 60" fill="none" xmlns="http://www.w3.org/2000/svg">
<path d="M40.7812 13.082C37.884 9.73783 34.6304 6.71996 31.0781 4.08198C30.7611 3.86327 30.3851 3.74614 30 3.74614C29.6149 3.74614 29.2389 3.86327 28.9219 4.08198C25.3696 6.71996 22.116 9.73783 19.2188 13.082C12.7734 20.4648 9.375 28.2695 9.375 35.6289C9.375 41.0989 11.548 46.345 15.4159 50.2129C19.2839 54.0809 24.5299 56.2539 30 56.2539C35.4701 56.2539 40.7161 54.0809 44.5841 50.2129C48.452 46.345 50.625 41.0989 50.625 35.6289C50.625 28.2695 47.2266 20.4648 40.7812 13.082ZM30 52.5039C25.5264 52.4977 21.2378 50.7178 18.0744 47.5544C14.9111 44.3911 13.1312 40.1025 13.125 35.6289C13.125 22.2226 26.1328 11.0195 30 7.9726C33.8672 11.0195 46.875 22.2226 46.875 35.6289C46.8688 40.1025 45.0889 44.3911 41.9256 47.5544C38.7622 50.7178 34.4736 52.4977 30 52.5039Z" fill="#08908C"/>
<path d="M22.0223 25.0362C22.8196 25.0362 23.487 25.2962 24.0243 25.8162C24.5703 26.3362 24.8433 27.0339 24.8433 27.9092C24.8433 28.7932 24.553 29.5082 23.9723 30.0542C23.3916 30.6002 22.629 30.8732 21.6843 30.8732C21.069 30.8732 20.4926 30.7476 19.9553 30.4962C19.4266 30.2449 18.989 29.8896 18.6423 29.4302L19.7343 28.5592C20.159 29.1746 20.7656 29.4822 21.5543 29.4822C22.0917 29.4822 22.5163 29.3349 22.8283 29.0402C23.149 28.7369 23.3093 28.3512 23.3093 27.8832C23.3093 27.4066 23.136 27.0296 22.7893 26.7522C22.4427 26.4749 22.0397 26.3362 21.5803 26.3362C20.991 26.3362 20.5056 26.4922 20.1243 26.8042L19.3053 26.5182L19.5653 21.8382H24.4013V23.2162H20.9823L20.8653 25.2312C21.2813 25.1012 21.667 25.0362 22.0223 25.0362ZM29.5059 30.8732C28.4746 30.8732 27.6426 30.4702 27.0099 29.6642C26.3859 28.8496 26.0739 27.7316 26.0739 26.3102C26.0739 24.9409 26.3816 23.8402 26.9969 23.0082C27.6123 22.1676 28.4486 21.7472 29.5059 21.7472C30.5373 21.7472 31.3649 22.1502 31.9889 22.9562C32.6216 23.7622 32.9379 24.8802 32.9379 26.3102C32.9379 27.6796 32.6303 28.7846 32.0149 29.6252C31.4083 30.4572 30.5719 30.8732 29.5059 30.8732ZM29.5059 29.4692C30.1039 29.4692 30.5676 29.1919 30.8969 28.6372C31.2349 28.0826 31.4039 27.3069 31.4039 26.3102C31.4039 25.3136 31.2349 24.5379 30.8969 23.9832C30.5589 23.4199 30.0953 23.1382 29.5059 23.1382C28.9166 23.1382 28.4529 23.4199 28.1149 23.9832C27.7769 24.5379 27.6079 25.3136 27.6079 26.3102C27.6079 27.2896 27.7769 28.0609 28.1149 28.6242C28.4616 29.1876 28.9253 29.4692 29.5059 29.4692ZM37.7198 30.8732C36.6885 30.8732 35.8565 30.4702 35.2238 29.6642C34.5998 28.8496 34.2878 27.7316 34.2878 26.3102C34.2878 24.9409 34.5955 23.8402 35.2108 23.0082C35.8261 22.1676 36.6625 21.7472 37.7198 21.7472C38.7512 21.7472 39.5788 22.1502 40.2028 22.9562C40.8355 23.7622 41.1518 24.8802 41.1518 26.3102C41.1518 27.6796 40.8442 28.7846 40.2288 29.6252C39.6221 30.4572 38.7858 30.8732 37.7198 30.8732ZM37.7198 29.4692C38.3178 29.4692 38.7815 29.1919 39.1108 28.6372C39.4488 28.0826 39.6178 27.3069 39.6178 26.3102C39.6178 25.3136 39.4488 24.5379 39.1108 23.9832C38.7728 23.4199 38.3091 23.1382 37.7198 23.1382C37.1305 23.1382 36.6668 23.4199 36.3288 23.9832C35.9908 24.5379 35.8218 25.3136 35.8218 26.3102C35.8218 27.2896 35.9908 28.0609 36.3288 28.6242C36.6755 29.1876 37.1391 29.4692 37.7198 29.4692ZM30.9885 36.3342C31.6992 36.3342 32.2452 36.5639 32.6265 37.0232C33.0165 37.4826 33.2115 38.1759 33.2115 39.1032V42.7692H31.7555V39.4672C31.7555 38.2539 31.3438 37.6472 30.5205 37.6472C30.0958 37.6472 29.7405 37.8249 29.4545 38.1802C29.1772 38.5269 29.0385 39.0036 29.0385 39.6102V42.7692H27.5825V39.4672C27.5825 38.2539 27.1622 37.6472 26.3215 37.6472C25.8708 37.6472 25.5025 37.8249 25.2165 38.1802C24.9392 38.5269 24.8005 39.0036 24.8005 39.6102V42.7692H23.3445V36.4252H24.8005V37.3092H24.8135C25.3422 36.6592 26.0008 36.3342 26.7895 36.3342C27.6822 36.3342 28.3148 36.6852 28.6875 37.3872H28.7135C29.2595 36.6852 30.0178 36.3342 30.9885 36.3342ZM35.1025 42.7692V33.2012H36.5585V42.7692H35.1025Z" fill="#08908C"/>
</svg>
