<svg width="60" height="60" viewBox="0 0 60 60" fill="none" xmlns="http://www.w3.org/2000/svg">
<path d="M40.7812 13.082C37.884 9.73783 34.6304 6.71996 31.0781 4.08198C30.7611 3.86327 30.3851 3.74614 30 3.74614C29.6149 3.74614 29.2389 3.86327 28.9219 4.08198C25.3696 6.71996 22.116 9.73783 19.2188 13.082C12.7734 20.4648 9.375 28.2695 9.375 35.6289C9.375 41.0989 11.548 46.345 15.4159 50.2129C19.2839 54.0809 24.5299 56.2539 30 56.2539C35.4701 56.2539 40.7161 54.0809 44.5841 50.2129C48.452 46.345 50.625 41.0989 50.625 35.6289C50.625 28.2695 47.2266 20.4648 40.7812 13.082ZM30 52.5039C25.5264 52.4977 21.2378 50.7178 18.0744 47.5544C14.9111 44.3911 13.1312 40.1025 13.125 35.6289C13.125 22.2226 26.1328 11.0195 30 7.9726C33.8672 11.0195 46.875 22.2226 46.875 35.6289C46.8688 40.1025 45.0889 44.3911 41.9256 47.5544C38.7622 50.7178 34.4736 52.4977 30 52.5039Z" fill="#08908C"/>
<path d="M19.4259 21.8382H24.9769V22.8392L21.7009 30.9512L20.1799 30.6652L23.2869 23.2162H19.4259V21.8382ZM29.2845 25.0362C30.0818 25.0362 30.7491 25.2962 31.2865 25.8162C31.8325 26.3362 32.1055 27.0339 32.1055 27.9092C32.1055 28.7932 31.8151 29.5082 31.2345 30.0542C30.6538 30.6002 29.8911 30.8732 28.9465 30.8732C28.3311 30.8732 27.7548 30.7476 27.2175 30.4962C26.6888 30.2449 26.2511 29.8896 25.9045 29.4302L26.9965 28.5592C27.4211 29.1746 28.0278 29.4822 28.8165 29.4822C29.3538 29.4822 29.7785 29.3349 30.0905 29.0402C30.4111 28.7369 30.5715 28.3512 30.5715 27.8832C30.5715 27.4066 30.3981 27.0296 30.0515 26.7522C29.7048 26.4749 29.3018 26.3362 28.8425 26.3362C28.2531 26.3362 27.7678 26.4922 27.3865 26.8042L26.5675 26.5182L26.8275 21.8382H31.6635V23.2162H28.2445L28.1275 25.2312C28.5435 25.1012 28.9291 25.0362 29.2845 25.0362ZM36.7681 30.8732C35.7368 30.8732 34.9048 30.4702 34.2721 29.6642C33.6481 28.8496 33.3361 27.7316 33.3361 26.3102C33.3361 24.9409 33.6438 23.8402 34.2591 23.0082C34.8744 22.1676 35.7108 21.7472 36.7681 21.7472C37.7994 21.7472 38.6271 22.1502 39.2511 22.9562C39.8838 23.7622 40.2001 24.8802 40.2001 26.3102C40.2001 27.6796 39.8924 28.7846 39.2771 29.6252C38.6704 30.4572 37.8341 30.8732 36.7681 30.8732ZM36.7681 29.4692C37.3661 29.4692 37.8298 29.1919 38.1591 28.6372C38.4971 28.0826 38.6661 27.3069 38.6661 26.3102C38.6661 25.3136 38.4971 24.5379 38.1591 23.9832C37.8211 23.4199 37.3574 23.1382 36.7681 23.1382C36.1788 23.1382 35.7151 23.4199 35.3771 23.9832C35.0391 24.5379 34.8701 25.3136 34.8701 26.3102C34.8701 27.2896 35.0391 28.0609 35.3771 28.6242C35.7238 29.1876 36.1874 29.4692 36.7681 29.4692ZM30.9889 36.3342C31.6996 36.3342 32.2456 36.5639 32.6269 37.0232C33.0169 37.4826 33.2119 38.1759 33.2119 39.1032V42.7692H31.7559V39.4672C31.7559 38.2539 31.3443 37.6472 30.5209 37.6472C30.0963 37.6472 29.7409 37.8249 29.4549 38.1802C29.1776 38.5269 29.0389 39.0036 29.0389 39.6102V42.7692H27.5829V39.4672C27.5829 38.2539 27.1626 37.6472 26.3219 37.6472C25.8713 37.6472 25.5029 37.8249 25.2169 38.1802C24.9396 38.5269 24.8009 39.0036 24.8009 39.6102V42.7692H23.3449V36.4252H24.8009V37.3092H24.8139C25.3426 36.6592 26.0013 36.3342 26.7899 36.3342C27.6826 36.3342 28.3153 36.6852 28.6879 37.3872H28.7139C29.2599 36.6852 30.0183 36.3342 30.9889 36.3342ZM35.1029 42.7692V33.2012H36.5589V42.7692H35.1029Z" fill="#08908C"/>
</svg>
