<svg width="60" height="60" viewBox="0 0 60 60" fill="none" xmlns="http://www.w3.org/2000/svg">
<path d="M40.7812 13.082C37.884 9.73783 34.6304 6.71996 31.0781 4.08198C30.7611 3.86327 30.3851 3.74614 30 3.74614C29.6149 3.74614 29.2389 3.86327 28.9219 4.08198C25.3696 6.71996 22.116 9.73783 19.2188 13.082C12.7734 20.4648 9.375 28.2695 9.375 35.6289C9.375 41.0989 11.548 46.345 15.4159 50.2129C19.2839 54.0809 24.5299 56.2539 30 56.2539C35.4701 56.2539 40.7161 54.0809 44.5841 50.2129C48.452 46.345 50.625 41.0989 50.625 35.6289C50.625 28.2695 47.2266 20.4648 40.7812 13.082ZM30 52.5039C25.5264 52.4977 21.2378 50.7178 18.0744 47.5544C14.9111 44.3911 13.1312 40.1025 13.125 35.6289C13.125 22.2226 26.1328 11.0195 30 7.9726C33.8672 11.0195 46.875 22.2226 46.875 35.6289C46.8688 40.1025 45.0889 44.3911 41.9256 47.5544C38.7622 50.7178 34.4736 52.4977 30 52.5039Z" fill="#08908C"/>
<path d="M39.6923 31.3846H31.3846V39.6923H28.6154V31.3846H20.3077V28.6154H28.6154V20.3077H31.3846V28.6154H39.6923V31.3846Z" fill="#08908C"/>
</svg>
