<svg width="40" height="34" viewBox="0 0 40 34" fill="none" xmlns="http://www.w3.org/2000/svg">
<path d="M26.6014 16.0048L29.1297 23.8194C29.6085 23.3598 30.9585 22.4634 32.1996 22.5553C33.7511 22.6702 33.866 22.3829 35.8196 24.4515C37.2126 25.9264 36.9375 24.1142 36.4395 23.4246C36.0756 22.3903 33.772 20.9256 31.3816 21.0175C31.0943 19.6959 30.6582 17.5332 28.2678 17.6712L27.9805 16.9816H29.1297C29.168 17.5179 29.8187 18.0389 31.3816 17.6712C31.6881 17.0199 31.9338 15.8784 31.1983 14.6832C30.8929 14.1869 28.2103 15.66 29.1297 16.0048C29.8652 16.2806 28.67 16.1197 27.9805 16.0048L27.2335 14.6832" stroke="#10BAB2" stroke-width="1.5"/>
<mask id="path-2-outside-1_220_2783" maskUnits="userSpaceOnUse" x="10.2739" y="21.9868" width="10" height="10" fill="black">
<rect fill="white" x="10.2739" y="21.9868" width="10" height="10"/>
<path d="M18.5108 26.6053C18.5108 28.6037 16.8908 30.2237 14.8924 30.2237C12.894 30.2237 11.2739 28.6037 11.2739 26.6053C11.2739 24.6068 12.894 22.9868 14.8924 22.9868C16.8908 22.9868 18.5108 24.6068 18.5108 26.6053ZM13.4571 26.6053C13.4571 27.3979 14.0997 28.0405 14.8924 28.0405C15.685 28.0405 16.3276 27.3979 16.3276 26.6053C16.3276 25.8126 15.685 25.17 14.8924 25.17C14.0997 25.17 13.4571 25.8126 13.4571 26.6053Z"/>
</mask>
<path d="M18.5108 26.6053C18.5108 28.6037 16.8908 30.2237 14.8924 30.2237C12.894 30.2237 11.2739 28.6037 11.2739 26.6053C11.2739 24.6068 12.894 22.9868 14.8924 22.9868C16.8908 22.9868 18.5108 24.6068 18.5108 26.6053ZM13.4571 26.6053C13.4571 27.3979 14.0997 28.0405 14.8924 28.0405C15.685 28.0405 16.3276 27.3979 16.3276 26.6053C16.3276 25.8126 15.685 25.17 14.8924 25.17C14.0997 25.17 13.4571 25.8126 13.4571 26.6053Z" fill="white"/>
<path d="M18.5108 26.6053C18.5108 28.6037 16.8908 30.2237 14.8924 30.2237C12.894 30.2237 11.2739 28.6037 11.2739 26.6053C11.2739 24.6068 12.894 22.9868 14.8924 22.9868C16.8908 22.9868 18.5108 24.6068 18.5108 26.6053ZM13.4571 26.6053C13.4571 27.3979 14.0997 28.0405 14.8924 28.0405C15.685 28.0405 16.3276 27.3979 16.3276 26.6053C16.3276 25.8126 15.685 25.17 14.8924 25.17C14.0997 25.17 13.4571 25.8126 13.4571 26.6053Z" stroke="#10BAB2" stroke-width="2" mask="url(#path-2-outside-1_220_2783)"/>
<mask id="path-3-outside-2_220_2783" maskUnits="userSpaceOnUse" x="27.9937" y="21.9868" width="10" height="10" fill="black">
<rect fill="white" x="27.9937" y="21.9868" width="10" height="10"/>
<path d="M36.2305 26.6053C36.2305 28.6037 34.6105 30.2237 32.6121 30.2237C30.6137 30.2237 28.9937 28.6037 28.9937 26.6053C28.9937 24.6068 30.6137 22.9868 32.6121 22.9868C34.6105 22.9868 36.2305 24.6068 36.2305 26.6053ZM31.1768 26.6053C31.1768 27.3979 31.8194 28.0405 32.6121 28.0405C33.4048 28.0405 34.0473 27.3979 34.0473 26.6053C34.0473 25.8126 33.4048 25.17 32.6121 25.17C31.8194 25.17 31.1768 25.8126 31.1768 26.6053Z"/>
</mask>
<path d="M36.2305 26.6053C36.2305 28.6037 34.6105 30.2237 32.6121 30.2237C30.6137 30.2237 28.9937 28.6037 28.9937 26.6053C28.9937 24.6068 30.6137 22.9868 32.6121 22.9868C34.6105 22.9868 36.2305 24.6068 36.2305 26.6053ZM31.1768 26.6053C31.1768 27.3979 31.8194 28.0405 32.6121 28.0405C33.4048 28.0405 34.0473 27.3979 34.0473 26.6053C34.0473 25.8126 33.4048 25.17 32.6121 25.17C31.8194 25.17 31.1768 25.8126 31.1768 26.6053Z" fill="white"/>
<path d="M36.2305 26.6053C36.2305 28.6037 34.6105 30.2237 32.6121 30.2237C30.6137 30.2237 28.9937 28.6037 28.9937 26.6053C28.9937 24.6068 30.6137 22.9868 32.6121 22.9868C34.6105 22.9868 36.2305 24.6068 36.2305 26.6053ZM31.1768 26.6053C31.1768 27.3979 31.8194 28.0405 32.6121 28.0405C33.4048 28.0405 34.0473 27.3979 34.0473 26.6053C34.0473 25.8126 33.4048 25.17 32.6121 25.17C31.8194 25.17 31.1768 25.8126 31.1768 26.6053Z" stroke="#10BAB2" stroke-width="2" mask="url(#path-3-outside-2_220_2783)"/>
<circle cx="14.8924" cy="26.6056" r="3.73256" stroke="#10BAB2"/>
<circle cx="32.6121" cy="26.6056" r="3.73256" stroke="#10BAB2"/>
<circle cx="14.8923" cy="26.6054" r="2.20846" stroke="#10BAB2"/>
<circle cx="32.6121" cy="26.6054" r="2.20846" stroke="#10BAB2"/>
<path d="M10.5203 27.3535V27.3535C9.54204 27.3535 8.77119 26.5119 8.94355 25.549C9.17637 24.2484 9.55367 22.8946 10.0787 22.6613C10.1837 22.6146 10.263 22.5732 10.3203 22.5365C10.7475 22.2632 9.74744 21.8522 9.74744 21.3451V21.3451C9.74744 20.8525 10.1467 20.4532 10.6393 20.4532H19.2587C20.0692 20.4532 20.7262 21.1103 20.7262 21.9208V21.9208C20.7262 22.1535 20.6599 22.3763 20.5474 22.5801C20.3378 22.96 20.1048 23.602 20.4832 24.8196C20.7096 25.5478 21.4367 25.9734 22.1993 25.9734H28.3505M21.2847 14.4914L21.1715 15.3777C21.0462 16.3596 20.2197 17.0952 19.2303 17.1256C19.1009 17.1295 19.5696 17.121 21.2847 17.0859C24.8762 17.0125 25.9829 17.7545 26.0872 18.1348L28.1153 23.2792C28.2683 23.6672 28.3137 24.1017 28.1505 24.4854C27.613 25.7489 26.6818 25.668 26.0189 25.3213C25.7188 25.1643 25.5267 24.8694 25.4044 24.5535C24.7825 22.9458 23.8086 20.4532 23.7688 20.4532C23.7265 20.4532 20.4173 19.713 18.5509 19.2943C18.3861 19.2573 18.216 19.2485 18.052 19.2081C17.3769 19.0418 16.2079 18.1749 16.324 15.8149C16.4896 12.4476 17.3101 11.2345 18.3038 9.68885C18.9065 8.75126 19.6954 8.60076 20.2422 8.67906C20.5388 8.72153 20.8494 8.78306 21.109 8.93271C21.5503 9.1872 22.0348 9.87148 22.0023 11.4001" stroke="#10BAB2" stroke-width="1.5"/>
<rect x="6.01404" y="9.94238" width="10.5197" height="10.5197" rx="3.75" stroke="#10BAB2" stroke-width="1.5"/>
<circle cx="22.5193" cy="5.98448" r="3.57286" stroke="#10BAB2" stroke-width="1.5"/>
<mask id="path-11-outside-3_220_2783" maskUnits="userSpaceOnUse" x="17.0625" y="8.16162" width="12" height="10" fill="black">
<rect fill="white" x="17.0625" y="8.16162" width="12" height="10"/>
<path d="M27.0641 14.4668C27.2373 14.9721 26.9681 15.5301 26.4422 15.6236C25.8225 15.7339 25.1879 15.7507 24.5597 15.6718C23.6106 15.5527 22.7012 15.2182 21.901 14.694C21.1009 14.1698 20.431 13.4698 19.9426 12.6473C19.6194 12.1029 19.3813 11.5144 19.2348 10.9022C19.1106 10.3827 19.5146 9.91309 20.047 9.86998C20.5793 9.82686 21.0356 10.2296 21.1952 10.7393C21.2955 11.06 21.4331 11.3689 21.6058 11.6597C21.9437 12.2289 22.4072 12.7133 22.961 13.076C23.5147 13.4388 24.1439 13.6702 24.8007 13.7527C25.1363 13.7948 25.4745 13.7975 25.8085 13.7614C26.3396 13.7041 26.891 13.9615 27.0641 14.4668Z"/>
</mask>
<path d="M27.0641 14.4668C27.2373 14.9721 26.9681 15.5301 26.4422 15.6236C25.8225 15.7339 25.1879 15.7507 24.5597 15.6718C23.6106 15.5527 22.7012 15.2182 21.901 14.694C21.1009 14.1698 20.431 13.4698 19.9426 12.6473C19.6194 12.1029 19.3813 11.5144 19.2348 10.9022C19.1106 10.3827 19.5146 9.91309 20.047 9.86998C20.5793 9.82686 21.0356 10.2296 21.1952 10.7393C21.2955 11.06 21.4331 11.3689 21.6058 11.6597C21.9437 12.2289 22.4072 12.7133 22.961 13.076C23.5147 13.4388 24.1439 13.6702 24.8007 13.7527C25.1363 13.7948 25.4745 13.7975 25.8085 13.7614C26.3396 13.7041 26.891 13.9615 27.0641 14.4668Z" stroke="#10BAB2" stroke-width="3" mask="url(#path-11-outside-3_220_2783)"/>
<path d="M24.8086 15.6914V15.6914C25.1661 16.1803 25.7734 16.4237 26.3479 16.232C26.6564 16.129 26.9221 16.0207 26.9958 15.9509C27.2467 15.7132 27.3357 15.5531 27.2837 15.1714C27.2425 14.8694 27.4523 14.582 27.7571 14.582V14.582" stroke="#10BAB2"/>
</svg>
