<svg width="40" height="40" viewBox="0 0 40 40" fill="none" xmlns="http://www.w3.org/2000/svg">
<mask id="mask0_220_2257" style="mask-type:alpha" maskUnits="userSpaceOnUse" x="0" y="0" width="40" height="40">
<rect width="40" height="40" fill="#D9D9D9"/>
</mask>
<g mask="url(#mask0_220_2257)">
<path d="M16.2803 10.2613L16.2802 10.2614C15.2628 11.2939 14.7499 12.5304 14.7499 13.9585C14.7499 15.4129 15.2618 16.6573 16.2815 17.6769C17.3011 18.6966 18.5455 19.2085 19.9999 19.2085C21.4544 19.2085 22.6987 18.6966 23.7184 17.6769C24.738 16.6573 25.2499 15.4129 25.2499 13.9585C25.2499 12.5304 24.7371 11.2939 23.7197 10.2614L23.7196 10.2613C22.7002 9.22791 21.4555 8.7085 19.9999 8.7085C18.5444 8.7085 17.2996 9.22791 16.2803 10.2613ZM8.08325 31.0418V31.2918H8.33325H31.6666H31.9166V31.0418V28.2918C31.9166 27.5457 31.6995 26.8513 31.2707 26.2139L31.2704 26.2135C30.8421 25.58 30.2737 25.0867 29.5701 24.7349L29.5701 24.7348L29.5653 24.7326C27.9676 23.9758 26.3752 23.4069 24.7881 23.027L24.7879 23.027C23.1993 22.6481 21.6032 22.4585 19.9999 22.4585C18.3967 22.4585 16.8011 22.6481 15.2135 23.027L15.2134 23.027C13.6252 23.4069 12.0322 23.9758 10.4346 24.7326L10.4345 24.7325L10.4298 24.7349C9.72606 25.0868 9.15819 25.58 8.73101 26.2137C8.30094 26.8511 8.08325 27.5456 8.08325 28.2918V31.0418ZM24.3386 25.14L24.3387 25.14C25.777 25.4821 27.1818 25.9819 28.5535 26.6399C28.9414 26.8474 29.2358 27.0945 29.4458 27.3774C29.6501 27.6553 29.7499 27.9578 29.7499 28.2918V29.1252H10.2499V28.2918C10.2499 27.9578 10.3503 27.6552 10.5559 27.3772L10.556 27.377C10.7648 27.0944 11.0585 26.8474 11.4463 26.6399C12.818 25.9819 14.2234 25.4821 15.6627 25.1401L15.6629 25.14C17.102 24.7967 18.5476 24.6252 19.9999 24.6252C21.4523 24.6252 22.8984 24.7967 24.3386 25.14ZM17.8232 11.7821L17.8235 11.7818C18.4292 11.1751 19.1502 10.8752 19.9999 10.8752C20.8497 10.8752 21.5713 11.1751 22.1781 11.7819C22.7838 12.3876 23.0833 13.1086 23.0833 13.9585C23.0833 14.8084 22.7838 15.5294 22.1781 16.1351C21.5713 16.7419 20.8497 17.0418 19.9999 17.0418C19.1502 17.0418 18.4292 16.7419 17.8235 16.1352L17.8232 16.1349C17.2165 15.5292 16.9166 14.8083 16.9166 13.9585C16.9166 13.1087 17.2165 12.3878 17.8232 11.7821Z" fill="#10BAB2" stroke="#10BAB2" stroke-width="0.5"/>
</g>
</svg>
