<svg width="150" height="28" viewBox="0 0 150 28" fill="none" xmlns="http://www.w3.org/2000/svg">
<rect width="150" height="28" rx="4" fill="#F4A259"/>
<g clip-path="url(#clip0_53_591)">
<path d="M42.5 4H26.5C25.4 4 24.5 4.9 24.5 6V24L28.5 20H42.5C43.6 20 44.5 19.1 44.5 18V6C44.5 4.9 43.6 4 42.5 4ZM42.5 18H27.67L26.5 19.17V6H42.5V18ZM29.5 11H31.5V13H29.5V11ZM37.5 11H39.5V13H37.5V11ZM33.5 11H35.5V13H33.5V11Z" fill="white"/>
</g>
<path d="M62.9056 19L60.7496 15.192H59.8256V19H57.8656V9.228H61.5336C62.2896 9.228 62.9336 9.36333 63.4656 9.634C63.9976 9.89533 64.3943 10.2547 64.6556 10.712C64.9263 11.16 65.0616 11.664 65.0616 12.224C65.0616 12.868 64.875 13.4513 64.5016 13.974C64.1283 14.4873 63.573 14.842 62.8356 15.038L65.1736 19H62.9056ZM59.8256 13.722H61.4636C61.9956 13.722 62.3923 13.596 62.6536 13.344C62.915 13.0827 63.0456 12.7233 63.0456 12.266C63.0456 11.818 62.915 11.4727 62.6536 11.23C62.3923 10.978 61.9956 10.852 61.4636 10.852H59.8256V13.722ZM74.1844 14.954C74.1844 15.234 74.1657 15.486 74.1284 15.71H68.4584C68.5051 16.27 68.7011 16.7087 69.0464 17.026C69.3917 17.3433 69.8164 17.502 70.3204 17.502C71.0484 17.502 71.5664 17.1893 71.8744 16.564H73.9884C73.7644 17.3107 73.3351 17.9267 72.7004 18.412C72.0657 18.888 71.2864 19.126 70.3624 19.126C69.6157 19.126 68.9437 18.9627 68.3464 18.636C67.7584 18.3 67.2964 17.8287 66.9604 17.222C66.6337 16.6153 66.4704 15.9153 66.4704 15.122C66.4704 14.3193 66.6337 13.6147 66.9604 13.008C67.2871 12.4013 67.7444 11.9347 68.3324 11.608C68.9204 11.2813 69.5971 11.118 70.3624 11.118C71.0997 11.118 71.7577 11.2767 72.3364 11.594C72.9244 11.9113 73.3771 12.364 73.6944 12.952C74.0211 13.5307 74.1844 14.198 74.1844 14.954ZM72.1544 14.394C72.1451 13.89 71.9631 13.4887 71.6084 13.19C71.2537 12.882 70.8197 12.728 70.3064 12.728C69.8211 12.728 69.4104 12.8773 69.0744 13.176C68.7477 13.4653 68.5471 13.8713 68.4724 14.394H72.1544ZM85.387 11.132C86.339 11.132 87.1044 11.426 87.683 12.014C88.271 12.5927 88.565 13.4047 88.565 14.45V19H86.605V14.716C86.605 14.1093 86.451 13.6473 86.143 13.33C85.835 13.0033 85.415 12.84 84.883 12.84C84.351 12.84 83.9264 13.0033 83.609 13.33C83.301 13.6473 83.147 14.1093 83.147 14.716V19H81.187V14.716C81.187 14.1093 81.033 13.6473 80.725 13.33C80.417 13.0033 79.997 12.84 79.465 12.84C78.9237 12.84 78.4944 13.0033 78.177 13.33C77.869 13.6473 77.715 14.1093 77.715 14.716V19H75.755V11.244H77.715V12.182C77.967 11.8553 78.289 11.5987 78.681 11.412C79.0824 11.2253 79.521 11.132 79.997 11.132C80.6037 11.132 81.145 11.2627 81.621 11.524C82.097 11.776 82.4657 12.14 82.727 12.616C82.979 12.168 83.343 11.8087 83.819 11.538C84.3044 11.2673 84.827 11.132 85.387 11.132ZM91.5589 10.32C91.2136 10.32 90.9243 10.2127 90.6909 9.998C90.4669 9.774 90.3549 9.49867 90.3549 9.172C90.3549 8.84533 90.4669 8.57467 90.6909 8.36C90.9243 8.136 91.2136 8.024 91.5589 8.024C91.9043 8.024 92.1889 8.136 92.4129 8.36C92.6463 8.57467 92.7629 8.84533 92.7629 9.172C92.7629 9.49867 92.6463 9.774 92.4129 9.998C92.1889 10.2127 91.9043 10.32 91.5589 10.32ZM92.5249 11.244V19H90.5649V11.244H92.5249ZM98.8994 11.132C99.8234 11.132 100.57 11.426 101.139 12.014C101.709 12.5927 101.993 13.4047 101.993 14.45V19H100.033V14.716C100.033 14.1 99.8794 13.6287 99.5714 13.302C99.2634 12.966 98.8434 12.798 98.3114 12.798C97.7701 12.798 97.3408 12.966 97.0234 13.302C96.7154 13.6287 96.5614 14.1 96.5614 14.716V19H94.6014V11.244H96.5614V12.21C96.8228 11.874 97.1541 11.6127 97.5554 11.426C97.9661 11.23 98.4141 11.132 98.8994 11.132ZM103.493 15.094C103.493 14.31 103.647 13.6147 103.955 13.008C104.273 12.4013 104.702 11.9347 105.243 11.608C105.785 11.2813 106.387 11.118 107.049 11.118C107.553 11.118 108.034 11.23 108.491 11.454C108.949 11.6687 109.313 11.958 109.583 12.322V8.64H111.571V19H109.583V17.852C109.341 18.2347 109 18.5427 108.561 18.776C108.123 19.0093 107.614 19.126 107.035 19.126C106.382 19.126 105.785 18.958 105.243 18.622C104.702 18.286 104.273 17.8147 103.955 17.208C103.647 16.592 103.493 15.8873 103.493 15.094ZM109.597 15.122C109.597 14.646 109.504 14.24 109.317 13.904C109.131 13.5587 108.879 13.2973 108.561 13.12C108.244 12.9333 107.903 12.84 107.539 12.84C107.175 12.84 106.839 12.9287 106.531 13.106C106.223 13.2833 105.971 13.5447 105.775 13.89C105.589 14.226 105.495 14.6273 105.495 15.094C105.495 15.5607 105.589 15.9713 105.775 16.326C105.971 16.6713 106.223 16.9373 106.531 17.124C106.849 17.3107 107.185 17.404 107.539 17.404C107.903 17.404 108.244 17.3153 108.561 17.138C108.879 16.9513 109.131 16.69 109.317 16.354C109.504 16.0087 109.597 15.598 109.597 15.122ZM120.836 14.954C120.836 15.234 120.817 15.486 120.78 15.71H115.11C115.156 16.27 115.352 16.7087 115.698 17.026C116.043 17.3433 116.468 17.502 116.972 17.502C117.7 17.502 118.218 17.1893 118.526 16.564H120.64C120.416 17.3107 119.986 17.9267 119.352 18.412C118.717 18.888 117.938 19.126 117.014 19.126C116.267 19.126 115.595 18.9627 114.998 18.636C114.41 18.3 113.948 17.8287 113.612 17.222C113.285 16.6153 113.122 15.9153 113.122 15.122C113.122 14.3193 113.285 13.6147 113.612 13.008C113.938 12.4013 114.396 11.9347 114.984 11.608C115.572 11.2813 116.248 11.118 117.014 11.118C117.751 11.118 118.409 11.2767 118.988 11.594C119.576 11.9113 120.028 12.364 120.346 12.952C120.672 13.5307 120.836 14.198 120.836 14.954ZM118.806 14.394C118.796 13.89 118.614 13.4887 118.26 13.19C117.905 12.882 117.471 12.728 116.958 12.728C116.472 12.728 116.062 12.8773 115.726 13.176C115.399 13.4653 115.198 13.8713 115.124 14.394H118.806ZM124.366 12.448C124.618 12.0373 124.945 11.7153 125.346 11.482C125.757 11.2487 126.224 11.132 126.746 11.132V13.19H126.228C125.612 13.19 125.146 13.3347 124.828 13.624C124.52 13.9133 124.366 14.4173 124.366 15.136V19H122.406V11.244H124.366V12.448Z" fill="white"/>
<defs>
<clipPath id="clip0_53_591">
<rect width="24" height="24" fill="white" transform="translate(22.5 2)"/>
</clipPath>
</defs>
</svg>
