<svg width="70" height="70" viewBox="0 0 70 70" fill="none" xmlns="http://www.w3.org/2000/svg">
<path d="M35.0005 7.74594C20.0045 7.74594 7.74652 20.0039 7.74652 34.9999C7.74652 49.9959 19.9425 62.2539 35.0005 62.2539C49.9955 62.2539 62.2535 49.9959 62.2535 34.9999C62.2535 20.0039 49.9955 7.74594 35.0005 7.74594ZM35.0005 59.7639C21.3735 59.7639 10.2365 48.6259 10.2365 34.9999C10.2365 21.3739 21.3115 10.2359 35.0005 10.2359C48.6275 10.2359 59.7645 21.3739 59.7645 34.9999C59.7645 48.6259 48.6265 59.7639 35.0005 59.7639Z" fill="#08908C"/>
<path d="M35.0005 14.964C23.9245 14.964 14.9645 23.9242 14.9645 35C14.9645 46.0758 23.9868 55.036 35.0005 55.036C46.0755 55.036 55.0365 46.0758 55.0365 35C55.0365 23.9242 46.0763 14.964 35.0005 14.964ZM35.0005 53.044C25.045 53.044 16.9555 44.9549 16.9555 34.999C16.9555 25.0431 25.0446 16.954 35.0005 16.954C44.956 16.954 53.0455 25.0431 53.0455 34.999C53.0451 44.9545 44.9564 53.044 35.0005 53.044Z" fill="#08908C"/>
<path d="M30.3849 40V31.632L28.5449 33.008L27.5049 31.392L30.8329 29.008H32.5769V40H30.3849ZM38.579 32.912C39.539 32.912 40.3497 33.2373 41.011 33.888C41.6723 34.5387 42.003 35.392 42.003 36.448C42.003 37.5253 41.6243 38.4107 40.867 39.104C40.1203 39.7867 39.187 40.128 38.067 40.128C36.4563 40.128 35.1923 39.552 34.275 38.4L35.843 37.136C36.355 37.808 37.059 38.144 37.955 38.144C38.4777 38.144 38.915 37.9787 39.267 37.648C39.619 37.3173 39.795 36.9067 39.795 36.416C39.795 35.872 39.603 35.4507 39.219 35.152C38.835 34.8427 38.3977 34.688 37.907 34.688C37.2777 34.688 36.7283 34.8747 36.259 35.248L35.107 34.816L35.443 29.008H41.443V30.992H37.331L37.203 33.152C37.715 32.992 38.1737 32.912 38.579 32.912Z" fill="#08908C"/>
</svg>
