<svg width="70" height="70" viewBox="0 0 70 70" fill="none" xmlns="http://www.w3.org/2000/svg">
<path d="M35.0005 7.74594C20.0045 7.74594 7.74652 20.0039 7.74652 34.9999C7.74652 49.9959 19.9425 62.2539 35.0005 62.2539C49.9955 62.2539 62.2535 49.9959 62.2535 34.9999C62.2535 20.0039 49.9955 7.74594 35.0005 7.74594ZM35.0005 59.7639C21.3735 59.7639 10.2365 48.6259 10.2365 34.9999C10.2365 21.3739 21.3115 10.2359 35.0005 10.2359C48.6275 10.2359 59.7645 21.3739 59.7645 34.9999C59.7645 48.6259 48.6265 59.7639 35.0005 59.7639Z" fill="#08908C"/>
<path d="M35.0005 14.964C23.9245 14.964 14.9645 23.9242 14.9645 35C14.9645 46.0758 23.9868 55.036 35.0005 55.036C46.0755 55.036 55.0365 46.0758 55.0365 35C55.0365 23.9242 46.0763 14.964 35.0005 14.964ZM35.0005 53.044C25.045 53.044 16.9555 44.9549 16.9555 34.999C16.9555 25.0431 25.0446 16.954 35.0005 16.954C44.956 16.954 53.0455 25.0431 53.0455 34.999C53.0451 44.9545 44.9564 53.044 35.0005 53.044Z" fill="#08908C"/>
<path d="M37.0377 34.064C37.6137 34.2773 38.083 34.6347 38.4457 35.136C38.8083 35.6373 38.9897 36.2453 38.9897 36.96C38.9897 37.92 38.611 38.688 37.8537 39.264C37.0963 39.84 36.1417 40.128 34.9897 40.128C33.8377 40.128 32.8883 39.8347 32.1417 39.248C31.395 38.6613 31.0217 37.8987 31.0217 36.96C31.0217 36.2453 31.1977 35.6373 31.5497 35.136C31.9123 34.6347 32.3817 34.2773 32.9577 34.064V34.032C32.595 33.8827 32.275 33.6 31.9977 33.184C31.7203 32.7573 31.5817 32.2773 31.5817 31.744C31.5817 30.848 31.9017 30.1493 32.5417 29.648C33.1817 29.136 33.9977 28.88 34.9897 28.88C36.003 28.88 36.8243 29.136 37.4537 29.648C38.0937 30.16 38.4137 30.8587 38.4137 31.744C38.4137 32.2773 38.275 32.7573 37.9977 33.184C37.731 33.6 37.411 33.8827 37.0377 34.032V34.064ZM35.9977 31.04C35.731 30.7947 35.395 30.672 34.9897 30.672C34.5843 30.672 34.2483 30.8 33.9817 31.056C33.7257 31.3013 33.5977 31.6 33.5977 31.952C33.5977 32.3147 33.7257 32.6133 33.9817 32.848C34.2483 33.072 34.5843 33.184 34.9897 33.184C35.4057 33.184 35.7417 33.072 35.9977 32.848C36.2643 32.6133 36.3977 32.3147 36.3977 31.952C36.3977 31.5893 36.2643 31.2853 35.9977 31.04ZM34.9897 38.272C35.5123 38.272 35.939 38.1173 36.2697 37.808C36.6003 37.4987 36.7657 37.12 36.7657 36.672C36.7657 36.2027 36.6003 35.8187 36.2697 35.52C35.939 35.2213 35.5123 35.072 34.9897 35.072C34.467 35.072 34.0403 35.2213 33.7097 35.52C33.379 35.8187 33.2137 36.2027 33.2137 36.672C33.2137 37.1307 33.3843 37.5147 33.7257 37.824C34.067 38.1227 34.4883 38.272 34.9897 38.272Z" fill="#08908C"/>
</svg>
