<svg width="71" height="70" viewBox="0 0 71 70" fill="none" xmlns="http://www.w3.org/2000/svg">
<path d="M35.0747 7.74594C20.0787 7.74594 7.82074 20.0039 7.82074 34.9999C7.82074 49.9959 20.0167 62.2539 35.0747 62.2539C50.0697 62.2539 62.3277 49.9959 62.3277 34.9999C62.3277 20.0039 50.0697 7.74594 35.0747 7.74594ZM35.0747 59.7639C21.4477 59.7639 10.3107 48.6259 10.3107 34.9999C10.3107 21.3739 21.3857 10.2359 35.0747 10.2359C48.7017 10.2359 59.8387 21.3739 59.8387 34.9999C59.8387 48.6259 48.7007 59.7639 35.0747 59.7639Z" fill="#08908C"/>
<path d="M35.0747 14.964C23.9987 14.964 15.0387 23.9242 15.0387 35C15.0387 46.0758 24.061 55.036 35.0747 55.036C46.1497 55.036 55.1107 46.0758 55.1107 35C55.1107 23.9242 46.1505 14.964 35.0747 14.964ZM35.0747 53.044C25.1192 53.044 17.0297 44.9549 17.0297 34.999C17.0297 25.0431 25.1188 16.954 35.0747 16.954C45.0302 16.954 53.1197 25.0431 53.1197 34.999C53.1193 44.9545 45.0306 53.044 35.0747 53.044Z" fill="#08908C"/>
<path d="M35.3641 32.912C36.3241 32.912 37.1348 33.2373 37.7961 33.888C38.4575 34.5387 38.7881 35.392 38.7881 36.448C38.7881 37.5253 38.4095 38.4107 37.6521 39.104C36.9055 39.7867 35.9721 40.128 34.8521 40.128C33.2415 40.128 31.9775 39.552 31.0601 38.4L32.6281 37.136C33.1401 37.808 33.8441 38.144 34.7401 38.144C35.2628 38.144 35.7001 37.9787 36.0521 37.648C36.4041 37.3173 36.5801 36.9067 36.5801 36.416C36.5801 35.872 36.3881 35.4507 36.0041 35.152C35.6201 34.8427 35.1828 34.688 34.6921 34.688C34.0628 34.688 33.5135 34.8747 33.0441 35.248L31.8921 34.816L32.2281 29.008H38.2281V30.992H34.1161L33.9881 33.152C34.5001 32.992 34.9588 32.912 35.3641 32.912Z" fill="#08908C"/>
</svg>
