<svg width="71" height="70" viewBox="0 0 71 70" fill="none" xmlns="http://www.w3.org/2000/svg">
<path d="M35.0747 7.74594C20.0787 7.74594 7.82074 20.0039 7.82074 34.9999C7.82074 49.9959 20.0167 62.2539 35.0747 62.2539C50.0697 62.2539 62.3277 49.9959 62.3277 34.9999C62.3277 20.0039 50.0697 7.74594 35.0747 7.74594ZM35.0747 59.7639C21.4477 59.7639 10.3107 48.6259 10.3107 34.9999C10.3107 21.3739 21.3857 10.2359 35.0747 10.2359C48.7017 10.2359 59.8387 21.3739 59.8387 34.9999C59.8387 48.6259 48.7007 59.7639 35.0747 59.7639Z" fill="#08908C"/>
<path d="M35.0747 14.964C23.9987 14.964 15.0387 23.9242 15.0387 35C15.0387 46.0758 24.061 55.036 35.0747 55.036C46.1497 55.036 55.1107 46.0758 55.1107 35C55.1107 23.9242 46.1505 14.964 35.0747 14.964ZM35.0747 53.044C25.1192 53.044 17.0297 44.9549 17.0297 34.999C17.0297 25.0431 25.1188 16.954 35.0747 16.954C45.0302 16.954 53.1197 25.0431 53.1197 34.999C53.1194 44.9545 45.0306 53.044 35.0747 53.044Z" fill="#08908C"/>
<path d="M35.5361 40V38.208H30.8801V36.816L35.9201 29.008H37.6801V36.336H39.1521V38.208H37.6801V40H35.5361ZM33.2481 36.448H35.6961V32.512L33.2481 36.448Z" fill="#08908C"/>
</svg>
