<svg width="70" height="70" viewBox="0 0 70 70" fill="none" xmlns="http://www.w3.org/2000/svg">
<path d="M35.0005 7.74594C20.0045 7.74594 7.74652 20.0039 7.74652 34.9999C7.74652 49.9959 19.9425 62.2539 35.0005 62.2539C49.9955 62.2539 62.2535 49.9959 62.2535 34.9999C62.2535 20.0039 49.9955 7.74594 35.0005 7.74594ZM35.0005 59.7639C21.3735 59.7639 10.2365 48.6259 10.2365 34.9999C10.2365 21.3739 21.3115 10.2359 35.0005 10.2359C48.6275 10.2359 59.7645 21.3739 59.7645 34.9999C59.7645 48.6259 48.6265 59.7639 35.0005 59.7639Z" fill="#08908C"/>
<path d="M35.0005 14.964C23.9245 14.964 14.9645 23.9242 14.9645 35C14.9645 46.0758 23.9868 55.036 35.0005 55.036C46.0755 55.036 55.0365 46.0758 55.0365 35C55.0365 23.9242 46.0763 14.964 35.0005 14.964ZM35.0005 53.044C25.045 53.044 16.9555 44.9549 16.9555 34.999C16.9555 25.0431 25.0446 16.954 35.0005 16.954C44.956 16.954 53.0455 25.0431 53.0455 34.999C53.0451 44.9545 44.9564 53.044 35.0005 53.044Z" fill="#08908C"/>
<path d="M28.88 39.9998V31.6318L27.04 33.0078L26 31.3918L29.328 29.0078H31.072V39.9998H28.88Z" fill="#08908C"/>
<path d="M35.0697 35V30.4323L33.9814 31.1834L33.3662 30.3013L35.3347 29H36.3662V35H35.0697Z" fill="#08908C"/>
<path d="M36.3462 39.99L35.3662 39.54L39.1862 31L40.1562 31.45L36.3462 39.99Z" fill="#08908C"/>
<path d="M40.9399 39.9295H43.1562V41H39.2004L39.1827 40.2317L41.0724 38.2806C41.349 37.9871 41.5521 37.7367 41.6816 37.5295C41.817 37.3223 41.8847 37.1094 41.8847 36.8906C41.8847 36.6604 41.8082 36.4705 41.6551 36.3209C41.5021 36.1655 41.3078 36.0878 41.0724 36.0878C40.6309 36.0878 40.2806 36.3007 40.0216 36.7266L39.1562 36.1223C39.5742 35.3741 40.2453 35 41.1695 35C41.6993 35 42.1526 35.1612 42.5293 35.4835C42.9061 35.8058 43.0944 36.2317 43.0944 36.7612C43.0944 37.1122 43.0209 37.4374 42.8737 37.7367C42.7324 38.0302 42.4705 38.3698 42.0878 38.7554L40.9399 39.9122V39.9295Z" fill="#08908C"/>
</svg>
