<svg width="70" height="70" viewBox="0 0 70 70" fill="none" xmlns="http://www.w3.org/2000/svg">
<path d="M35.0005 7.74594C20.0045 7.74594 7.74652 20.0039 7.74652 34.9999C7.74652 49.9959 19.9425 62.2539 35.0005 62.2539C49.9955 62.2539 62.2535 49.9959 62.2535 34.9999C62.2535 20.0039 49.9955 7.74594 35.0005 7.74594ZM35.0005 59.7639C21.3735 59.7639 10.2365 48.6259 10.2365 34.9999C10.2365 21.3739 21.3115 10.2359 35.0005 10.2359C48.6275 10.2359 59.7645 21.3739 59.7645 34.9999C59.7645 48.6259 48.6265 59.7639 35.0005 59.7639Z" fill="#08908C"/>
<path d="M35.0005 14.964C23.9245 14.964 14.9645 23.9242 14.9645 35C14.9645 46.0758 23.9868 55.036 35.0005 55.036C46.0755 55.036 55.0365 46.0758 55.0365 35C55.0365 23.9242 46.0763 14.964 35.0005 14.964ZM35.0005 53.044C25.045 53.044 16.9555 44.9549 16.9555 34.999C16.9555 25.0431 25.0446 16.954 35.0005 16.954C44.956 16.954 53.0455 25.0431 53.0455 34.999C53.0451 44.9545 44.9564 53.044 35.0005 53.044Z" fill="#08908C"/>
<path d="M27.0333 40V31.632L25.1933 33.008L24.1533 31.392L27.4813 29.008H29.2253V40H27.0333ZM31.6103 41.792L30.0423 41.072L36.1543 27.408L37.7063 28.128L31.6103 41.792ZM41.3459 38.016H45.3619V40H38.1939L38.1619 38.576L41.5859 34.96C42.0873 34.416 42.4553 33.952 42.6899 33.568C42.9353 33.184 43.0579 32.7893 43.0579 32.384C43.0579 31.9573 42.9193 31.6053 42.6419 31.328C42.3646 31.04 42.0126 30.896 41.5859 30.896C40.7859 30.896 40.1513 31.2907 39.6819 32.08L38.1139 30.96C38.8713 29.5733 40.0873 28.88 41.7619 28.88C42.7219 28.88 43.5433 29.1787 44.2259 29.776C44.9086 30.3733 45.2499 31.1627 45.2499 32.144C45.2499 32.7947 45.1166 33.3973 44.8499 33.952C44.5939 34.496 44.1193 35.1253 43.4259 35.84L41.3459 37.984V38.016Z" fill="#08908C"/>
</svg>
