<svg width="70" height="70" viewBox="0 0 70 70" fill="none" xmlns="http://www.w3.org/2000/svg">
<path d="M35.0005 7.74594C20.0045 7.74594 7.74652 20.0039 7.74652 34.9999C7.74652 49.9959 19.9425 62.2539 35.0005 62.2539C49.9955 62.2539 62.2535 49.9959 62.2535 34.9999C62.2535 20.0039 49.9955 7.74594 35.0005 7.74594ZM35.0005 59.7639C21.3735 59.7639 10.2365 48.6259 10.2365 34.9999C10.2365 21.3739 21.3115 10.2359 35.0005 10.2359C48.6275 10.2359 59.7645 21.3739 59.7645 34.9999C59.7645 48.6259 48.6265 59.7639 35.0005 59.7639Z" fill="#08908C"/>
<path d="M35.0005 14.964C23.9245 14.964 14.9645 23.9242 14.9645 35C14.9645 46.0758 23.9868 55.036 35.0005 55.036C46.0755 55.036 55.0365 46.0758 55.0365 35C55.0365 23.9242 46.0763 14.964 35.0005 14.964ZM35.0005 53.044C25.045 53.044 16.9555 44.9549 16.9555 34.999C16.9555 25.0431 25.0446 16.954 35.0005 16.954C44.956 16.954 53.0455 25.0431 53.0455 34.999C53.0451 44.9545 44.9564 53.044 35.0005 53.044Z" fill="#08908C"/>
<path d="M34.8145 40V31.632L32.9745 33.008L31.9345 31.392L35.2625 29.008H37.0065V40H34.8145Z" fill="#08908C"/>
</svg>
