<svg width="70" height="70" viewBox="0 0 70 70" fill="none" xmlns="http://www.w3.org/2000/svg">
<path d="M35.0005 7.74594C20.0045 7.74594 7.74652 20.0039 7.74652 34.9999C7.74652 49.9959 19.9425 62.2539 35.0005 62.2539C49.9955 62.2539 62.2535 49.9959 62.2535 34.9999C62.2535 20.0039 49.9955 7.74594 35.0005 7.74594ZM35.0005 59.7639C21.3735 59.7639 10.2365 48.6259 10.2365 34.9999C10.2365 21.3739 21.3115 10.2359 35.0005 10.2359C48.6275 10.2359 59.7645 21.3739 59.7645 34.9999C59.7645 48.6259 48.6265 59.7639 35.0005 59.7639Z" fill="#08908C"/>
<path d="M35.0005 14.964C23.9245 14.964 14.9645 23.9242 14.9645 35C14.9645 46.0758 23.9868 55.036 35.0005 55.036C46.0755 55.036 55.0365 46.0758 55.0365 35C55.0365 23.9242 46.0763 14.964 35.0005 14.964ZM35.0005 53.044C25.045 53.044 16.9555 44.9549 16.9555 34.999C16.9555 25.0431 25.0446 16.954 35.0005 16.954C44.956 16.954 53.0455 25.0431 53.0455 34.999C53.0451 44.9545 44.9564 53.044 35.0005 53.044Z" fill="#08908C"/>
<path d="M35.6081 32.96C36.5681 32.96 37.3681 33.2747 38.0081 33.904C38.6588 34.5333 38.9841 35.3973 38.9841 36.496C38.9841 37.5627 38.6054 38.4373 37.8481 39.12C37.1014 39.792 36.1574 40.128 35.0161 40.128C33.8748 40.128 32.9308 39.7227 32.1841 38.912C31.4374 38.0907 31.0641 37.0293 31.0641 35.728C31.0641 33.9467 31.5974 32.4 32.6641 31.088C33.7414 29.776 35.1441 28.96 36.8721 28.64L37.4961 30.384C35.4588 30.96 34.1468 31.984 33.5601 33.456L33.5761 33.472C34.1734 33.1307 34.8508 32.96 35.6081 32.96ZM35.0801 38.176C35.5921 38.176 36.0134 38.0107 36.3441 37.68C36.6854 37.3387 36.8561 36.928 36.8561 36.448C36.8561 35.9573 36.6908 35.5573 36.3601 35.248C36.0294 34.9387 35.5921 34.784 35.0481 34.784C34.3121 34.784 33.6774 35.1093 33.1441 35.76V35.92C33.1441 36.592 33.3308 37.136 33.7041 37.552C34.0774 37.968 34.5361 38.176 35.0801 38.176Z" fill="#08908C"/>
</svg>
