<svg width="70" height="70" viewBox="0 0 70 70" fill="none" xmlns="http://www.w3.org/2000/svg">
<path d="M35.0005 7.74594C20.0045 7.74594 7.74652 20.0039 7.74652 34.9999C7.74652 49.9959 19.9425 62.2539 35.0005 62.2539C49.9955 62.2539 62.2535 49.9959 62.2535 34.9999C62.2535 20.0039 49.9955 7.74594 35.0005 7.74594ZM35.0005 59.7639C21.3735 59.7639 10.2365 48.6259 10.2365 34.9999C10.2365 21.3739 21.3115 10.2359 35.0005 10.2359C48.6275 10.2359 59.7645 21.3739 59.7645 34.9999C59.7645 48.6259 48.6265 59.7639 35.0005 59.7639Z" fill="#08908C"/>
<path d="M35.0005 14.964C23.9245 14.964 14.9645 23.9242 14.9645 35C14.9645 46.0758 23.9868 55.036 35.0005 55.036C46.0755 55.036 55.0365 46.0758 55.0365 35C55.0365 23.9242 46.0763 14.964 35.0005 14.964ZM35.0005 53.044C25.045 53.044 16.9555 44.9549 16.9555 34.999C16.9555 25.0431 25.0446 16.954 35.0005 16.954C44.956 16.954 53.0455 25.0431 53.0455 34.999C53.0451 44.9545 44.9564 53.044 35.0005 53.044Z" fill="#08908C"/>
<path d="M29.7677 40V31.632L27.9277 33.008L26.8877 31.392L30.2157 29.008H31.9597V40H29.7677ZM38.2818 40.128C37.0018 40.128 35.9671 39.632 35.1778 38.64C34.3991 37.6373 34.0098 36.2613 34.0098 34.512C34.0098 32.816 34.3938 31.456 35.1618 30.432C35.9298 29.3973 36.9698 28.88 38.2818 28.88C39.5831 28.88 40.6231 29.3813 41.4018 30.384C42.1805 31.3867 42.5698 32.7627 42.5698 34.512C42.5698 36.208 42.1858 37.568 41.4178 38.592C40.6498 39.616 39.6045 40.128 38.2818 40.128ZM36.7778 37.152C37.1511 37.792 37.6578 38.112 38.2978 38.112C38.9378 38.112 39.4391 37.8027 39.8018 37.184C40.1645 36.5547 40.3458 35.664 40.3458 34.512C40.3458 33.392 40.1645 32.512 39.8018 31.872C39.4391 31.232 38.9378 30.912 38.2978 30.912C37.6578 30.912 37.1511 31.2267 36.7778 31.856C36.4151 32.4747 36.2338 33.36 36.2338 34.512C36.2338 35.6213 36.4151 36.5013 36.7778 37.152Z" fill="#08908C"/>
</svg>
