<svg width="70" height="70" viewBox="0 0 70 70" fill="none" xmlns="http://www.w3.org/2000/svg">
<rect width="70" height="70" rx="10" fill="url(#paint0_linear_919_4328)"/>
<path d="M51.5214 33.0568L56.244 37.7794M51.5214 33.0568L54.2286 30.3496C54.45 30.1282 54.7503 30.0039 55.0634 30.0039C55.3764 30.0039 55.6767 30.1282 55.8981 30.3496L58.9512 33.4028C59.1726 33.6242 59.2969 33.9244 59.2969 34.2375C59.2969 34.5505 59.1726 34.8508 58.9512 35.0722L56.244 37.7794L51.5214 33.0568ZM51.5214 33.0568L40.0608 44.5174C39.8393 44.7388 39.7149 45.0391 39.7148 45.3522V48.4053C39.7148 48.7185 39.8392 49.0188 40.0606 49.2402C40.2821 49.4616 40.5824 49.586 40.8955 49.586H43.9487C44.2618 49.5859 44.562 49.4615 44.7834 49.2401L56.244 37.7794L51.5214 33.0568Z" stroke="#4F5052" stroke-width="3" stroke-linecap="round" stroke-linejoin="round"/>
<path d="M45.0386 35.4351C45.0326 34.783 44.9871 34.1319 44.9021 33.4853L49.1235 30.1803C49.3142 30.0347 49.4444 29.8239 49.4894 29.5883C49.5343 29.3527 49.4909 29.1088 49.3673 28.9032L45.3701 21.9715C45.2543 21.7636 45.0665 21.6052 44.842 21.5262C44.6175 21.4472 44.3719 21.453 44.1514 21.5425L39.1696 23.5509C38.133 22.7597 36.9994 22.1044 35.7964 21.601L35.0457 16.3072C35.0126 16.073 34.8954 15.8588 34.7161 15.7045C34.5367 15.5502 34.3073 15.4665 34.0708 15.4688H26.0569C25.8204 15.4665 25.591 15.5502 25.4117 15.7045C25.2323 15.8588 25.1151 16.073 25.082 16.3072L24.3313 21.601C23.1268 22.1013 21.9928 22.7568 20.9581 23.5509L15.9568 21.5425C15.7363 21.453 15.4907 21.4472 15.2662 21.5262C15.0417 21.6052 14.8539 21.7636 14.7381 21.9715L10.741 28.9032C10.6174 29.1088 10.5739 29.3527 10.6188 29.5883C10.6638 29.8239 10.7941 30.0347 10.9847 30.1803L15.1964 33.4853C15.1118 34.1319 15.0662 34.783 15.0599 35.4351C15.0658 36.0872 15.1114 36.7384 15.1964 37.385L10.9847 40.6899C10.7941 40.8356 10.6638 41.0463 10.6188 41.282C10.5739 41.5176 10.6174 41.7615 10.741 41.9671L14.7381 48.8988C14.8539 49.1067 15.0417 49.2651 15.2662 49.3441C15.4907 49.4231 15.7363 49.4173 15.9568 49.3277L20.9386 47.3194C21.9753 48.1106 23.1089 48.7658 24.3118 49.2692L25.0625 54.563C25.0956 54.7973 25.2128 55.0115 25.3922 55.1658C25.5715 55.32 25.8009 55.4038 26.0374 55.4015H34.0318C34.2683 55.4038 34.4977 55.32 34.6771 55.1658C34.8564 55.0115 34.9736 54.7973 35.0067 54.563L35.7574 49.2692M30.0541 42.4351C28.6692 42.437 27.3149 42.0281 26.1625 41.2601C25.0101 40.4921 24.1114 39.3995 23.5801 38.1206C23.0488 36.8418 22.9088 35.434 23.1778 34.0755C23.4468 32.717 24.1127 31.4688 25.0912 30.4889C26.0698 29.509 27.317 28.8413 28.6752 28.5704C30.0333 28.2996 31.4412 28.4376 32.7209 28.9671C34.0005 29.4966 35.0943 30.3938 35.8639 31.5452C36.6335 32.6965 37.0443 34.0503 37.0443 35.4351C37.0456 36.3539 36.8657 37.2639 36.515 38.1132C36.1643 38.9624 35.6496 39.7341 35.0004 40.3842C34.3511 41.0344 33.5801 41.5501 32.7314 41.902C31.8827 42.2539 30.9729 42.4351 30.0541 42.4351Z" stroke="#4F5052" stroke-width="3.5" stroke-linecap="round" stroke-linejoin="round"/>
<defs>
<linearGradient id="paint0_linear_919_4328" x1="35" y1="0" x2="35" y2="70" gradientUnits="userSpaceOnUse">
<stop stop-color="#F9CF56" stop-opacity="0.52"/>
<stop offset="1" stop-color="#F9CF56" stop-opacity="0.72"/>
</linearGradient>
</defs>
</svg>
