<svg width="70" height="70" viewBox="0 0 70 70" fill="none" xmlns="http://www.w3.org/2000/svg">
<rect width="70" height="70" rx="10" fill="url(#paint0_linear_919_4303)"/>
<path d="M22.5163 65.0951C24.5187 65.0951 26.142 63.4718 26.142 61.4694C26.142 59.467 24.5187 57.8438 22.5163 57.8438C20.5139 57.8438 18.8906 59.467 18.8906 61.4694C18.8906 63.4718 20.5139 65.0951 22.5163 65.0951Z" fill="#4F5052"/>
<path d="M40.1257 65.0951C42.1281 65.0951 43.7513 63.4718 43.7513 61.4694C43.7513 59.467 42.1281 57.8438 40.1257 57.8438C38.1233 57.8438 36.5 59.467 36.5 61.4694C36.5 63.4718 38.1233 65.0951 40.1257 65.0951Z" fill="#4F5052"/>
<path d="M6.45898 24.6953L15.7821 30.9107L20.9617 53.7007H41.6798L46.8593 36.0903H18.0485" stroke="#4F5052" stroke-width="4" stroke-linecap="round" stroke-linejoin="round"/>
<path d="M20.002 45.4141L30.7974 45.4141L43.7519 45.4141" stroke="#4F5052" stroke-width="4" stroke-linecap="round" stroke-linejoin="round"/>
<circle cx="43.7519" cy="24.6953" r="19.789" fill="#F9CF56" stroke="#4F5052" stroke-width="3"/>
<path d="M49.1235 27.4462C49.1235 29.1636 48.4421 30.5542 47.0795 31.6182C45.7168 32.6822 44.2328 33.2143 42.6275 33.2143C41.0408 33.2143 39.7995 32.8223 38.9035 32.0382C38.0075 31.2542 37.5595 30.2369 37.5595 28.9862C37.5595 26.8769 39.0528 24.8142 42.0395 22.7982C40.5835 20.5396 39.8555 18.7569 39.8555 17.4502C39.8555 16.1249 40.4528 15.0609 41.6475 14.2582C42.8608 13.4369 44.2328 13.0262 45.7635 13.0262C47.3128 13.0262 48.4795 13.3622 49.2635 14.0342C50.0475 14.7062 50.4395 15.5276 50.4395 16.4982C50.4395 18.1222 49.2261 20.0076 46.7995 22.1542C46.9301 22.3782 47.1728 22.7516 47.5275 23.2742C47.8821 23.7969 48.1528 24.2262 48.3395 24.5622C48.8621 25.4582 49.1235 26.4196 49.1235 27.4462ZM39.9955 28.8462C39.9955 29.6116 40.2381 30.2182 40.7235 30.6662C41.2088 31.1142 41.8341 31.3382 42.5995 31.3382C43.3835 31.3382 44.0648 31.1516 44.6435 30.7782C45.2221 30.3862 45.5115 29.8729 45.5115 29.2382C45.5115 28.5102 45.1101 27.5116 44.3075 26.2422C44.0275 25.8129 43.6168 25.1876 43.0755 24.3662C41.0221 25.7662 39.9955 27.2596 39.9955 28.8462ZM48.0875 16.5262C48.0875 15.4436 47.4621 14.9022 46.2115 14.9022C45.5395 14.9022 44.9608 15.0516 44.4755 15.3502C44.0088 15.6302 43.7755 16.0316 43.7755 16.5542C43.7755 17.0582 44.0181 17.7489 44.5035 18.6262C45.0075 19.5036 45.4275 20.1569 45.7635 20.5862C46.3235 20.1382 46.8461 19.5036 47.3315 18.6822C47.8355 17.8422 48.0875 17.1236 48.0875 16.5262Z" fill="#4F5052"/>
<defs>
<linearGradient id="paint0_linear_919_4303" x1="35" y1="0" x2="35" y2="70" gradientUnits="userSpaceOnUse">
<stop stop-color="#F9CF56" stop-opacity="0.52"/>
<stop offset="1" stop-color="#F9CF56" stop-opacity="0.72"/>
</linearGradient>
</defs>
</svg>
