<svg width="70" height="70" viewBox="0 0 70 70" fill="none" xmlns="http://www.w3.org/2000/svg">
<rect width="70" height="70" rx="10" fill="url(#paint0_linear_919_4319)"/>
<path d="M22.5163 65.0951C24.5187 65.0951 26.142 63.4718 26.142 61.4694C26.142 59.467 24.5187 57.8438 22.5163 57.8438C20.5139 57.8438 18.8906 59.467 18.8906 61.4694C18.8906 63.4718 20.5139 65.0951 22.5163 65.0951Z" fill="#4F5052"/>
<path d="M40.1257 65.0951C42.1281 65.0951 43.7513 63.4718 43.7513 61.4694C43.7513 59.467 42.1281 57.8438 40.1257 57.8438C38.1233 57.8438 36.5 59.467 36.5 61.4694C36.5 63.4718 38.1233 65.0951 40.1257 65.0951Z" fill="#4F5052"/>
<path d="M6.45898 24.6953L15.7821 30.9107L20.9617 53.7007H41.6798L46.8593 36.0903H18.0485" stroke="#4F5052" stroke-width="4" stroke-linecap="round" stroke-linejoin="round"/>
<path d="M20.002 45.4141L30.7974 45.4141L43.7519 45.4141" stroke="#4F5052" stroke-width="4" stroke-linecap="round" stroke-linejoin="round"/>
<circle cx="43.7519" cy="24.6953" r="19.789" fill="#F9CF56" stroke="#4F5052" stroke-width="3"/>
<path d="M48.7195 28.4822C48.3275 28.7436 47.8608 28.8742 47.3195 28.8742C46.7781 28.8742 46.2928 28.8369 45.8635 28.7622C45.6768 30.1622 45.5835 31.3942 45.5835 32.4582C44.8555 32.8316 43.3901 33.0183 41.1875 33.0183H40.9075C40.9075 32.1969 41.1688 30.5076 41.6915 27.9502C40.5155 27.7636 39.4608 27.6702 38.5275 27.6702C37.6128 27.6702 36.7915 27.7916 36.0635 28.0342L34.9715 28.4262C34.9715 28.4262 34.9621 28.4262 34.9435 28.4262C34.7568 28.4262 34.5235 28.2209 34.2435 27.8102C33.9448 27.3996 33.7861 27.0169 33.7675 26.6622C33.7675 26.5316 33.9355 26.2982 34.2715 25.9622C37.2021 21.7996 40.1701 17.6462 43.1755 13.5022C44.3701 13.2409 46.0315 13.0822 48.1595 13.0262C48.4021 13.3996 48.5235 13.9316 48.5235 14.6222C48.5235 15.2942 48.4115 16.1716 48.1875 17.2542C47.9821 18.3369 47.6835 19.7182 47.2915 21.3982C46.8995 23.0782 46.6008 24.4596 46.3955 25.5422C47.1048 25.5796 47.6555 25.5982 48.0475 25.5982C48.4581 25.5982 48.7568 25.4582 48.9435 25.1782L49.3915 24.4222L50.3995 24.7582C50.1195 26.6996 49.5595 27.9409 48.7195 28.4822ZM42.3075 25.0662C43.5021 19.8209 44.1088 16.6476 44.1275 15.5462C42.4101 17.5249 40.3008 20.5862 37.7995 24.7302C39.0501 24.7489 40.5528 24.8609 42.3075 25.0662Z" fill="#4F5052"/>
<defs>
<linearGradient id="paint0_linear_919_4319" x1="35" y1="0" x2="35" y2="70" gradientUnits="userSpaceOnUse">
<stop stop-color="#F9CF56" stop-opacity="0.52"/>
<stop offset="1" stop-color="#F9CF56" stop-opacity="0.72"/>
</linearGradient>
</defs>
</svg>
