<svg width="70" height="70" viewBox="0 0 70 70" fill="none" xmlns="http://www.w3.org/2000/svg">
<rect width="70" height="70" rx="10" fill="url(#paint0_linear_919_4311)"/>
<path d="M22.5163 65.0951C24.5187 65.0951 26.142 63.4718 26.142 61.4694C26.142 59.467 24.5187 57.8438 22.5163 57.8438C20.5139 57.8438 18.8906 59.467 18.8906 61.4694C18.8906 63.4718 20.5139 65.0951 22.5163 65.0951Z" fill="#4F5052"/>
<path d="M40.1257 65.0951C42.1281 65.0951 43.7513 63.4718 43.7513 61.4694C43.7513 59.467 42.1281 57.8438 40.1257 57.8438C38.1233 57.8438 36.5 59.467 36.5 61.4694C36.5 63.4718 38.1233 65.0951 40.1257 65.0951Z" fill="#4F5052"/>
<path d="M6.45898 24.6953L15.7821 30.9107L20.9617 53.7007H41.6798L46.8593 36.0903H18.0485" stroke="#4F5052" stroke-width="4" stroke-linecap="round" stroke-linejoin="round"/>
<path d="M20.002 45.4141L30.7974 45.4141L43.7519 45.4141" stroke="#4F5052" stroke-width="4" stroke-linecap="round" stroke-linejoin="round"/>
<circle cx="43.7519" cy="24.6953" r="19.789" fill="#F9CF56" stroke="#4F5052" stroke-width="3"/>
<path d="M46.7155 14.7622C45.6328 14.7622 44.7275 15.4529 43.9995 16.8342C43.2901 18.1969 42.7768 19.9982 42.4595 22.2382C43.5981 21.5102 44.8861 21.1462 46.3235 21.1462C47.7608 21.1462 48.8621 21.6222 49.6275 22.5742C50.4115 23.5076 50.8035 24.8236 50.8035 26.5222C50.8035 28.2022 50.1315 29.7422 48.7875 31.1422C47.4435 32.5422 45.7728 33.2423 43.7755 33.2423C39.8368 33.2423 37.8675 30.7782 37.8675 25.8502C37.8675 23.5542 38.2408 21.4262 38.9875 19.4662C39.7528 17.5062 40.8261 15.9476 42.2075 14.7902C43.5888 13.6142 45.1288 13.0262 46.8275 13.0262C48.0968 13.0262 49.2261 13.3529 50.2155 14.0062C51.2048 14.6409 51.6995 15.5649 51.6995 16.7782C51.6995 17.6369 51.4755 18.2996 51.0275 18.7663C50.8781 18.7849 50.6728 18.7942 50.4115 18.7942C49.0488 18.7942 48.0315 18.4302 47.3595 17.7022L47.7795 15.0702C47.4808 14.8649 47.1261 14.7622 46.7155 14.7622ZM44.6435 23.1062C43.9715 23.1062 43.1781 23.4236 42.2635 24.0582C42.1888 24.9729 42.1515 26.1396 42.1515 27.5582C42.1515 28.9582 42.2821 29.9662 42.5435 30.5822C42.8048 31.1982 43.2435 31.5062 43.8595 31.5062C44.7368 31.5062 45.3901 30.9742 45.8195 29.9102C46.2488 28.8462 46.4635 27.6609 46.4635 26.3542C46.4635 24.1889 45.8568 23.1062 44.6435 23.1062Z" fill="#4F5052"/>
<defs>
<linearGradient id="paint0_linear_919_4311" x1="35" y1="0" x2="35" y2="70" gradientUnits="userSpaceOnUse">
<stop stop-color="#F9CF56" stop-opacity="0.52"/>
<stop offset="1" stop-color="#F9CF56" stop-opacity="0.72"/>
</linearGradient>
</defs>
</svg>
