<svg width="14" height="11" viewBox="0 0 14 11" fill="none" xmlns="http://www.w3.org/2000/svg">
<path d="M10.8182 9.66746C11.3464 9.66746 11.7727 9.24109 11.7727 8.71291C11.7727 8.18473 11.3464 7.75837 10.8182 7.75837C10.29 7.75837 9.86364 8.18473 9.86364 8.71291C9.86364 9.24109 10.29 9.66746 10.8182 9.66746ZM11.7727 3.94019H10.1818V5.53109H13.02L11.7727 3.94019ZM3.18182 9.66746C3.71 9.66746 4.13636 9.24109 4.13636 8.71291C4.13636 8.18473 3.71 7.75837 3.18182 7.75837C2.65364 7.75837 2.22727 8.18473 2.22727 8.71291C2.22727 9.24109 2.65364 9.66746 3.18182 9.66746ZM12.0909 2.98564L14 5.53109V8.71291H12.7273C12.7273 9.76928 11.8745 10.622 10.8182 10.622C9.76182 10.622 8.90909 9.76928 8.90909 8.71291H5.09091C5.09091 9.76928 4.23818 10.622 3.18182 10.622C2.12545 10.622 1.27273 9.76928 1.27273 8.71291H0V1.71291C0 1.00655 0.566364 0.440186 1.27273 0.440186H10.1818V2.98564H12.0909ZM1.27273 1.71291V7.44019H1.75636C2.10636 7.052 2.61545 6.80382 3.18182 6.80382C3.74818 6.80382 4.25727 7.052 4.60727 7.44019H8.90909V1.71291H1.27273ZM5.72727 2.34928L7.95455 4.57655L5.72727 6.80382V5.21291H2.54545V3.94019H5.72727V2.34928Z" fill="#333333"/>
</svg>
