<svg width="9" height="11" viewBox="0 0 9 11" fill="none" xmlns="http://www.w3.org/2000/svg">
<path d="M4.40381 6.06201C5.23224 6.06201 5.90381 5.39044 5.90381 4.56201C5.90381 3.73358 5.23224 3.06201 4.40381 3.06201C3.57538 3.06201 2.90381 3.73358 2.90381 4.56201C2.90381 5.39044 3.57538 6.06201 4.40381 6.06201Z" stroke="#333333" stroke-width="0.8" stroke-linecap="round" stroke-linejoin="round"/>
<path d="M4.40381 0.561768C3.34294 0.561768 2.32553 0.983195 1.57538 1.73334C0.825236 2.48349 0.403809 3.5009 0.403809 4.56177C0.403809 5.50777 0.604809 6.12677 1.15381 6.81177L4.40381 10.5618L7.65381 6.81177C8.20281 6.12677 8.40381 5.50777 8.40381 4.56177C8.40381 3.5009 7.98238 2.48349 7.23224 1.73334C6.48209 0.983195 5.46467 0.561768 4.40381 0.561768V0.561768Z" stroke="#333333" stroke-width="0.8" stroke-linecap="round" stroke-linejoin="round"/>
</svg>
