<svg width="14" height="13" viewBox="0 0 14 13" fill="none" xmlns="http://www.w3.org/2000/svg">
<path d="M5.83366 8.15592L7.58366 8.73926C7.58366 8.73926 11.9587 7.86426 12.542 7.86426C13.1253 7.86426 13.1253 8.44759 12.542 9.03092C11.9587 9.61426 9.91699 11.3643 8.16699 11.3643C6.41699 11.3643 5.25033 10.4893 4.08366 10.4893H1.16699" stroke="#333333" stroke-width="1.3" stroke-linecap="round" stroke-linejoin="round"/>
<path d="M4.66699 3.78092V1.44759C4.66699 1.29288 4.72845 1.14451 4.83785 1.03511C4.94724 0.925716 5.09562 0.864258 5.25033 0.864258H12.2503C12.405 0.864258 12.5534 0.925716 12.6628 1.03511C12.7722 1.14451 12.8337 1.29288 12.8337 1.44759V6.11426M1.16699 6.98926C1.75033 6.40592 2.91699 5.53092 4.08366 5.53092C5.25033 5.53092 8.02116 6.69759 8.45866 7.28092C8.89616 7.86426 7.58366 8.73926 7.58366 8.73926L1.16699 6.98926Z" stroke="#333333" stroke-width="1.3" stroke-linecap="round" stroke-linejoin="round"/>
<path d="M7.29199 0.864258H10.2087V3.48926H7.29199V0.864258Z" stroke="#333333" stroke-width="1.3" stroke-linecap="round" stroke-linejoin="round"/>
</svg>
