<svg width="50" height="50" viewBox="0 0 50 50" fill="none" xmlns="http://www.w3.org/2000/svg">
<path d="M18.3438 7.00006C18.086 7.13287 17.8906 7.48443 17.8906 7.78912C17.8906 7.90631 18.0313 8.33599 18.2031 8.73443C18.6406 9.74224 19.1641 11.6407 19.0391 11.7657C19.0235 11.7813 18.7422 11.7266 18.4063 11.6407C17.5781 11.4297 16.2578 11.3047 15.5235 11.3672C14.9922 11.4141 14.8672 11.4532 14.6485 11.6563C14.5 11.7813 14.3594 11.9844 14.336 12.1094C14.2422 12.5547 14.4141 12.8516 15.1094 13.3907C16.6797 14.6172 17.9453 16.4688 18.4766 18.3126C18.586 18.6876 18.6719 19.0547 18.6719 19.1172C18.6719 19.1797 18.5 19.4688 18.2969 19.7579C17.336 21.0938 16.6719 22.3985 16 24.2579C14.9219 27.2501 14.2188 31.7501 14.3203 34.9844C14.3516 36.086 14.3906 36.3985 14.5625 36.9922C15.0235 38.5782 16.0313 40.1251 17.2188 41.0704C18.8985 42.4063 21.5469 43.086 25.0391 43.0782C27.375 43.0782 29.586 42.7188 31.0625 42.1016C33.2969 41.1719 35.0313 38.9844 35.5625 36.4141C35.7031 35.7501 35.7188 35.4688 35.6797 33.9454C35.5391 28.4454 34.2188 23.5313 31.9844 20.1876C31.625 19.6407 31.3281 19.1563 31.3281 19.1016C31.3281 18.8126 31.7735 17.5157 32.1094 16.8282C32.75 15.5157 33.6641 14.3751 34.8594 13.4219C35.586 12.8438 35.7422 12.586 35.6563 12.1329C35.625 11.9844 35.5 11.7813 35.3516 11.6485C35.1328 11.4532 35 11.4141 34.4766 11.3672C33.7422 11.3047 32.4219 11.4297 31.5938 11.6407C31.2578 11.7266 30.9766 11.7813 30.961 11.7657C30.836 11.6407 31.3594 9.75006 31.7891 8.75006C31.9688 8.35162 32.1094 7.92193 32.1094 7.79693C32.1094 7.25006 31.6328 6.82037 31.0938 6.89849C30.7188 6.94537 29.5 7.56256 28.7656 8.07037C28.4453 8.28912 27.9297 8.71099 27.6172 9.00006L27.0469 9.53131L26.6641 8.89849C26.1094 7.96099 25.6328 7.39849 25.2969 7.28912C24.9531 7.17974 24.5938 7.25787 24.3125 7.51568C24.1094 7.70318 23.5313 8.53912 23.1719 9.16412L22.961 9.53912L22.4219 9.03131C21.6641 8.32037 20.8828 7.78131 19.8828 7.29693C18.9844 6.85943 18.6953 6.80474 18.3438 7.00006ZM20.4844 9.07037C21.0078 9.42974 21.7735 10.1251 22.1172 10.5547L22.3516 10.8516L22.125 11.5782C21.9922 11.9766 21.8516 12.5079 21.7969 12.7501L21.711 13.1954L21.1172 12.8047C20.7891 12.5938 20.5 12.4219 20.461 12.4219C20.4297 12.4219 20.3828 12.2579 20.3516 12.0469C20.2188 11.0079 20.0313 10.1172 19.7969 9.39849C19.6485 8.96099 19.5313 8.57818 19.5313 8.55474C19.5313 8.49224 19.9844 8.73443 20.4844 9.07037ZM30.3125 9.03131C30.0547 9.72662 29.7813 10.8985 29.6875 11.6797C29.6485 12.0626 29.5781 12.3907 29.5313 12.4063C29.4922 12.4219 29.1875 12.6094 28.8672 12.8126L28.2891 13.1954L28.2344 12.9063C28.2031 12.7501 28.0625 12.2188 27.9141 11.7344L27.6485 10.8516L27.8828 10.5626C28.1406 10.2266 28.8203 9.57818 29.2188 9.28131C29.6094 8.98443 30.4141 8.50787 30.4531 8.54693C30.4688 8.57037 30.4063 8.78912 30.3125 9.03131ZM25.3828 9.17974C26.1172 10.3047 26.7422 11.8985 27.0313 13.4219C27.2344 14.4688 27.2891 16.2266 27.1172 16.1876C27.0625 16.1797 26.7656 16.1172 26.4688 16.0547C25.7735 15.9063 24.2266 15.9063 23.5313 16.0547C23.2344 16.1172 22.9375 16.1797 22.8828 16.1876C22.7969 16.2032 22.7735 16.0235 22.7891 15.2422C22.8203 13.6172 23.2188 11.9454 23.9453 10.4141C24.2735 9.71881 24.9063 8.67193 25 8.67193C25.0235 8.67193 25.1953 8.89849 25.3828 9.17974ZM17.0313 12.6563C18.3672 12.8204 19.5313 13.2422 20.586 13.9376C21.5313 14.5704 21.4922 14.5001 21.5156 15.7188L21.5313 16.7657L21.0703 17.0313C20.8203 17.1797 20.4141 17.461 20.1641 17.6641L19.7031 18.0313L19.4922 17.4376C18.8828 15.7266 17.9531 14.2891 16.6485 13.0704C16.3672 12.7969 16.1875 12.5782 16.25 12.5782C16.3203 12.5782 16.6719 12.6172 17.0313 12.6563ZM33.3516 13.0704C32.0391 14.2969 31.1172 15.7188 30.5078 17.4454L30.2891 18.0547L30.0469 17.8282C29.8047 17.5938 28.625 16.7969 28.5235 16.7969C28.4219 16.7969 28.5 14.6876 28.6016 14.5626C28.7969 14.3282 29.6797 13.7422 30.2969 13.4376C31.2422 12.9688 32.6016 12.6251 33.6328 12.5938C33.8594 12.586 33.8516 12.5938 33.3516 13.0704ZM26.1016 17.2735L26.5078 17.3594L25.75 18.1172L25 18.8672L24.2422 18.1094L23.4922 17.3594L23.836 17.2813C24.3125 17.1719 25.6172 17.1719 26.1016 17.2735ZM22.1094 21.7579L20.1172 23.7501L19.2422 22.8751L18.3672 22.0001L18.5703 21.6407C19.5 20.0157 20.4766 18.8829 21.5235 18.211L22.1485 17.8126L23.125 18.7891L24.1016 19.7657L22.1094 21.7579ZM28.75 18.3907C29.5625 18.9376 30.6094 20.211 31.4297 21.6407L31.6328 22.0001L30.7578 22.8751L29.8828 23.7501L27.8906 21.7579L25.8985 19.7657L26.875 18.7891L27.8438 17.8204L28.1172 17.9844C28.2735 18.0782 28.5547 18.2579 28.75 18.3907ZM27.0156 22.6797L28.9844 24.6485L26.9922 26.6407L25 28.6329L23.0078 26.6407L21.0156 24.6485L22.9844 22.6797C24.0703 21.5938 24.9766 20.7032 25 20.7032C25.0235 20.7032 25.9297 21.5938 27.0156 22.6797ZM17.836 26.0391C17.0703 26.7969 16.4375 27.3829 16.4219 27.3282C16.3906 27.1563 17 25.1563 17.3985 24.1485L17.7656 23.2032L18.4922 23.9219L19.2188 24.6485L17.836 26.0391ZM32.6094 24.1563C32.961 25.0547 33.5938 27.0938 33.5938 27.336C33.5938 27.4063 32.961 26.8282 32.1875 26.0547L30.7813 24.6485L31.5 23.9297C31.8985 23.5313 32.2266 23.2188 32.2344 23.2266C32.2422 23.2344 32.4063 23.6563 32.6094 24.1563ZM22.1094 31.5235L20.1172 33.5157L18.125 31.5235L16.1328 29.5313L18.125 27.5391L20.1172 25.5469L22.1094 27.5391L24.1016 29.5313L22.1094 31.5235ZM31.875 31.5235L29.8828 33.5157L27.8906 31.5235L25.8985 29.5313L27.8906 27.5391L29.8828 25.5469L31.875 27.5391L33.8672 29.5313L31.875 31.5235ZM27.0156 32.4454L28.9844 34.4141L26.9922 36.4063L25 38.3985L23.0078 36.4063L21.0156 34.4141L22.9844 32.4454C24.0703 31.3594 24.9766 30.4688 25 30.4688C25.0235 30.4688 25.9297 31.3594 27.0156 32.4454ZM17.6797 35.9532C16.8281 36.8047 16.1172 37.5001 16.086 37.5001C16.0625 37.5001 15.9453 37.1954 15.8203 36.8126C15.6328 36.2344 15.6016 35.961 15.5703 34.961C15.5313 33.9141 15.625 32.1329 15.7578 31.3047L15.8047 31.0001L17.5078 32.7032L19.2188 34.4141L17.6797 35.9532ZM34.336 32.2344C34.5 33.9532 34.4844 35.5157 34.2969 36.3047C34.211 36.6641 34.086 37.086 34.0235 37.2422L33.8985 37.5313L32.3438 35.9766L30.7813 34.4141L32.4766 32.7188C33.4063 31.7813 34.1875 31.0313 34.1953 31.0469C34.211 31.0626 34.2735 31.5938 34.336 32.2344ZM22.9688 40.4297C22.3438 41.0547 21.7813 41.5626 21.7031 41.5626C21.4063 41.5626 19.6953 41.0704 19.2188 40.8516C18.5235 40.5313 17.6485 39.8438 17.1485 39.2266L16.7266 38.711L18.4219 37.0079L20.1172 35.3126L22.1094 37.3047L24.1016 39.2969L22.9688 40.4297ZM32.9063 39.1641C32.4375 39.7657 31.5703 40.461 30.8438 40.8204C30.336 41.0626 28.6328 41.5626 28.2891 41.5626C28.2188 41.5626 27.6563 41.0547 27.0313 40.4297L25.8985 39.2969L27.8906 37.3047L29.8828 35.3126L31.5781 37.0079L33.2735 38.6954L32.9063 39.1641ZM25.8125 41.0079L26.5781 41.7735L26.1563 41.8204C25.625 41.8907 24.375 41.8907 23.8438 41.8204L23.4219 41.7735L24.1875 41.0079C24.6094 40.5782 24.9766 40.2344 25 40.2344C25.0235 40.2344 25.3906 40.5782 25.8125 41.0079Z" fill="white"/>
</svg>
