<svg width="32" height="32" viewBox="0 0 32 32" fill="none" xmlns="http://www.w3.org/2000/svg">
<path d="M26.1875 2.2063C25.7187 2.37505 25.5562 2.40005 24.7812 2.42505C24.175 2.4438 23.6 2.4188 22.9062 2.33755C21.6187 2.1938 20.4187 2.1938 19.875 2.3313C18.4125 2.71255 17.4437 3.7938 16.7562 5.81255C16.55 6.40005 15.65 8.1813 15.5562 8.18755C15.5312 8.18755 15.4125 7.93755 15.2875 7.6313C14.9687 6.88755 14.7562 6.62505 14.4437 6.62505C14.1812 6.62505 13.9375 6.82505 13.9375 7.0438C13.9375 7.11255 14.1062 7.5188 14.3125 7.9438C14.65 8.65005 15.125 9.93755 15.125 10.1563C15.125 10.2313 15.075 10.225 14.85 10.125C13.9437 9.73755 12.5562 9.43755 11.6812 9.43755C10.6937 9.43755 9.41875 9.76255 8.575 10.2188C7.66875 10.7188 6.66875 11.625 6.0375 12.5188C5.36875 13.4625 4.78125 14.8813 4.51875 16.1563C4.35625 16.9688 4.35625 19.0625 4.525 19.8125C4.80625 21.1188 5.5125 22.9875 6.15625 24.1375C6.94375 25.55 7.55625 26.3688 8.8625 27.775C10.1312 29.1375 10.6062 29.4813 11.6875 29.8188C12.0687 29.9375 12.2937 29.9688 12.9062 29.9625C13.7 29.9625 13.675 29.9688 14.9562 29.475C15.8 29.15 16.475 29.2 17.4937 29.65C18.5062 30.1 19.4562 30.1125 20.6562 29.6938C21.45 29.4125 21.9437 29.0438 22.9812 27.9375C24.3375 26.5 24.9937 25.6375 25.7812 24.2563C26.5187 22.9563 27.2812 20.8875 27.5 19.5875C27.65 18.7063 27.6625 17.3625 27.5312 16.5C27.1437 13.9563 25.7875 11.7438 23.8562 10.4938C23.2562 10.1063 22.6062 9.82505 21.8125 9.61255C21.1625 9.4313 19.6375 9.4188 18.875 9.5813C18.1625 9.73755 17.525 9.95005 16.8375 10.275L16.2625 10.5501L16.125 10.0313L15.9937 9.51255L16.5687 8.47505C16.8812 7.90005 17.1625 7.4188 17.1937 7.40005C17.225 7.38755 17.4437 7.4813 17.6875 7.6188C19.175 8.46255 21.0812 8.85005 22.6312 8.6313C25.0187 8.28755 26.7812 6.66255 27.2062 4.4063C27.425 3.26255 27.3937 2.3313 27.125 2.11255C26.9437 1.96255 26.8187 1.97505 26.1875 2.2063ZM22.7812 3.3438C23.6625 3.46255 24.9375 3.46255 25.6562 3.3438C25.9687 3.2938 26.2375 3.25005 26.2687 3.25005C26.3562 3.25005 26.3125 3.8438 26.1875 4.37505C25.775 6.0688 24.5812 7.23755 22.875 7.5938C22.3625 7.70005 21.2812 7.7188 20.6875 7.62505C20.0437 7.52505 18.9625 7.15005 18.2812 6.7938C17.5562 6.4063 17.5625 6.43755 17.8687 5.65005C18.4062 4.2563 19.2687 3.4188 20.3437 3.25005C20.8 3.1813 21.85 3.22505 22.7812 3.3438ZM12.9937 10.5938C13.8375 10.7688 15.275 11.35 15.4062 11.5625C15.4312 11.6 15.4625 11.8375 15.4812 12.0938C15.5125 12.525 15.5062 12.5625 15.4 12.5625C15.2125 12.5625 14.5562 12.225 14.2625 11.975C13.9375 11.7063 13.6375 11.6751 13.4375 11.8876C13.0937 12.2563 13.4312 12.7813 14.275 13.1875C15.5375 13.7938 16.6687 13.7813 17.8812 13.15C18.6312 12.7563 18.9187 12.2875 18.625 11.9188C18.425 11.6625 18.15 11.6875 17.775 12C17.4187 12.2938 17.0375 12.4938 16.725 12.5438L16.5 12.5813V12.2125C16.5 12.0063 16.4812 11.7875 16.4625 11.7125C16.4312 11.6 16.5125 11.5438 17.0187 11.2938C17.975 10.8188 18.6625 10.6063 19.6187 10.5C21.4875 10.2875 23.5812 11.0938 24.6625 12.4438C25.5687 13.5751 26.3187 15.2126 26.5375 16.5563C26.675 17.375 26.625 18.9688 26.4375 19.8438C26.0125 21.8375 24.9375 24.025 23.5062 25.8313C22.9437 26.5375 21.4687 28.0938 21.1687 28.3063C20.0812 29.05 18.9437 29.2 17.9 28.7313C17.1062 28.375 16.7375 28.2875 16 28.2875C15.2625 28.2875 14.8937 28.375 14.1 28.7313C13.0562 29.2 11.9187 29.05 10.8312 28.3063C10.5312 28.0938 9.05625 26.5375 8.49375 25.8313C7.0625 24.025 5.9875 21.8313 5.5625 19.8438C5.39375 19.05 5.33125 17.5 5.43125 16.7375C5.58125 15.625 6.1375 14.1563 6.75 13.25C7.8125 11.6875 9.24375 10.7438 10.9375 10.4938C11.4 10.4251 12.4437 10.475 12.9937 10.5938Z" fill="#0D938D" stroke="#0D938D" stroke-width="0.2"/>
</svg>
