<svg width="32" height="32" viewBox="0 0 32 32" fill="none" xmlns="http://www.w3.org/2000/svg">
<path d="M20.5 0.125021C19.3562 0.368771 18.4187 0.837521 17.475 1.65002C17.0562 2.01252 16.4687 2.71877 16.2062 3.18752C16.1125 3.35627 16.0187 3.50002 16 3.50002C15.9812 3.49377 15.8562 3.33752 15.7187 3.14377C15.2187 2.44377 14.1812 1.76252 13.25 1.51877C13.025 1.46252 12.5812 1.41252 12.2687 1.41252C11.7062 1.40627 11.6875 1.41252 11.5125 1.59377C11.1125 2.01252 10.8375 3.10627 10.8937 4.03127C10.9375 4.69377 11.0625 5.18752 11.3125 5.72502C11.7187 6.56877 12.4562 7.31877 13.3125 7.75002C13.5375 7.86877 13.7312 7.96877 13.7437 7.97502C13.7562 7.98752 13.6687 8.07502 13.5562 8.16877C13.0875 8.55002 11.9625 9.68752 11.5625 10.1875C10.375 11.675 9.37497 13.6563 8.78122 15.6875C8.57497 16.4 8.22497 18.0188 8.17497 18.4625C8.15622 18.6438 8.14372 18.65 7.59372 18.7563C3.75622 19.4938 1.39372 23.25 2.38122 27.05C2.91247 29.075 4.51872 30.8188 6.54372 31.5625C7.94372 32.0688 9.68122 32.0688 11.0812 31.5625C14.3625 30.3625 16.1875 26.8063 15.2187 23.4813C14.5062 21.025 12.4375 19.1563 9.97497 18.7438L9.49372 18.6625L9.53122 18.3438C9.64997 17.4625 10.025 15.9813 10.4187 14.9063C11.3687 12.275 13.1 9.96252 15.1625 8.58127L15.5375 8.32502L15.775 9.33127C16.6 12.8313 17.8812 16.6625 19.05 19.1375L19.4187 19.9063L18.8 20.4938C17.8437 21.4063 17.225 22.425 16.8875 23.6813C16.7437 24.2188 16.725 24.3938 16.7312 25.3438C16.7312 26.525 16.8 26.9063 17.2125 27.9063C18.3562 30.7188 21.4312 32.4125 24.4437 31.9C27.0375 31.45 29.0875 29.6 29.7875 27.05C29.9875 26.325 30.0562 25.1438 29.9375 24.3688C29.6312 22.2625 28.275 20.3625 26.3937 19.4125C24.7562 18.5813 22.7937 18.45 21.1062 19.0688C20.8312 19.1688 20.5937 19.2375 20.5812 19.2313C20.5687 19.2188 20.3875 18.8188 20.1812 18.3375C19.0062 15.6625 18.05 12.9063 17.35 10.15C17.1937 9.52502 17.0625 8.98752 17.0625 8.95627C17.0625 8.92502 17.3625 8.89377 17.7375 8.89377C18.8562 8.88752 19.7875 8.65627 20.7687 8.13752C22.4437 7.25627 23.6937 5.60002 24.0937 3.71877C24.3375 2.58752 24.1875 0.743771 23.8125 0.368771C23.4687 0.0187702 21.6187 -0.118729 20.5 0.125021ZM22.7812 1.44377C22.8937 1.55627 22.9 2.95627 22.7812 3.46877C22.3187 5.54377 20.6625 7.14377 18.5937 7.50627C18.15 7.58127 16.8562 7.56252 16.7687 7.48127C16.7437 7.45002 16.7125 7.06877 16.7 6.63127C16.675 5.74377 16.7937 5.08127 17.0875 4.41252C17.4937 3.50002 18.3375 2.55627 19.2187 2.04377C19.7312 1.74377 20.4937 1.47502 21.0937 1.37502C21.5437 1.30627 22.6875 1.35002 22.7812 1.44377ZM12.9687 2.84377C14.05 3.12502 14.9375 4.01252 15.225 5.08752C15.375 5.63752 15.3062 6.79377 15.1187 6.91252C15.0875 6.93127 14.8875 6.90002 14.675 6.84377C13.4875 6.54377 12.5437 5.58752 12.3062 4.44377C12.225 4.05627 12.2625 3.18127 12.3625 2.91877C12.4437 2.72502 12.475 2.71877 12.9687 2.84377ZM24.7062 20.1813C26.2 20.5688 27.4812 21.65 28.1562 23.0813C29.2562 25.3938 28.5062 28.2313 26.4125 29.6813C25.3875 30.3875 24.0875 30.7625 23.0062 30.6563C21.2062 30.4813 19.8187 29.6563 18.8687 28.2C18.2875 27.3125 18.0312 26.4188 18.0437 25.2813C18.0562 23.7875 18.6125 22.4938 19.6875 21.475L20.075 21.1L20.275 21.4313C20.625 22.025 21.3812 23.0188 21.8625 23.5125L22.325 23.9938L22.1187 24.125C22 24.1938 21.725 24.3063 21.5 24.375C21.0375 24.525 20.9062 24.625 20.8125 24.9063C20.725 25.1688 20.85 25.5 21.0875 25.6625C21.4875 25.9188 22.5937 25.55 23.4187 24.875C24.4062 24.0688 25.1625 22.3688 24.7875 21.7938C24.55 21.4375 24.0062 21.4188 23.725 21.7563C23.6375 21.8625 23.5625 21.9938 23.5625 22.0563C23.5625 22.2063 23.325 22.8875 23.25 22.9625C23.175 23.0375 22.9375 22.8188 22.4062 22.1875C22.0125 21.7125 21.25 20.6 21.25 20.4875C21.25 20.4 21.6625 20.2438 22.25 20.1188C22.9312 19.9688 23.9937 19.9938 24.7062 20.1813ZM7.96872 21.625C7.96872 23.4313 8.04997 23.2875 7.23122 22.875C6.67497 22.5938 6.54997 22.575 6.26872 22.75C5.87497 22.9875 5.88747 23.575 6.28747 23.8563C6.60622 24.0813 7.21872 24.3625 7.63122 24.475C8.16247 24.6188 9.14997 24.6188 9.68747 24.4813C10.225 24.3375 11.0875 23.9125 11.2437 23.7063C11.5312 23.3438 11.3062 22.7375 10.85 22.6563C10.6937 22.625 10.5437 22.6688 10.15 22.8625C9.88122 23 9.58122 23.125 9.49372 23.15L9.33122 23.1875L9.29372 22.4063C9.26872 21.975 9.26872 21.275 9.29372 20.8438C9.33747 19.9563 9.29372 20.0063 9.92497 20.1563C10.8875 20.3875 11.775 20.9063 12.5125 21.675C14.4937 23.75 14.4875 26.925 12.5062 29.025C11.5125 30.0688 10.1937 30.6375 8.71872 30.6438C7.56247 30.65 6.68747 30.4 5.76872 29.8C4.22497 28.7938 3.34997 27.1688 3.35622 25.3125C3.36247 22.9438 4.89997 20.9 7.19372 20.225C8.05622 19.9688 7.96872 19.8125 7.96872 21.625Z" fill="#0D938D"/>
</svg>
