<svg width="24" height="24" viewBox="0 0 24 24" fill="none" xmlns="http://www.w3.org/2000/svg">
<path d="M2.85938 1.45312V2.15625H1.42969H0V12V21.8437H4.58906H9.17813L9.54375 22.2094C9.96094 22.6266 10.4109 22.8984 10.9922 23.0953C11.3156 23.2031 11.4469 23.2172 11.9766 23.2219C12.4922 23.2266 12.6422 23.2078 12.9375 23.1187C13.5516 22.9266 13.9969 22.6594 14.4328 22.2328L14.8266 21.8437H19.4156H24V12V2.15625H22.5703H21.1406V1.45312V0.745312L17.0531 0.759374C12.4875 0.773437 12.8016 0.749999 12.2438 1.10625L11.9953 1.26562L11.7844 1.12031C11.6672 1.04062 11.4516 0.928124 11.3063 0.871874C11.0438 0.773437 11.0016 0.773437 6.95156 0.759374L2.85938 0.745312V1.45312ZM10.9219 2.25C11.0438 2.31094 11.1422 2.40937 11.2031 2.53125C11.2969 2.71406 11.2969 2.78906 11.2969 10.1719V17.625H7.78125H4.26563V9.89062V2.15625H7.5C10.6547 2.15625 10.7438 2.16094 10.9219 2.25ZM19.7344 9.89062V17.625H16.2188H12.7031V10.1578C12.7078 3.06094 12.7125 2.68594 12.7922 2.53594C12.8391 2.45156 12.9563 2.32969 13.0594 2.26875L13.2422 2.15625H16.4906H19.7344V9.89062ZM2.85938 11.2969V19.0312H12H21.1406V11.2969V3.5625H21.8672H22.5938V12V20.4375H18.3094H14.0203L13.8469 20.7234C13.4109 21.4453 12.7547 21.8437 12 21.8437C11.2594 21.8437 10.6547 21.4922 10.2094 20.8078L9.97031 20.4375H5.68594H1.40625V12V3.5625H2.13281H2.85938V11.2969Z" fill="#08908C"/>
<path d="M5.67188 5.67188V7.78125H7.78125H9.89062V5.67188V3.5625H7.78125H5.67188V5.67188ZM8.48438 5.67188V6.375H7.78125H7.07812V5.67188V4.96875H7.78125H8.48438V5.67188Z" fill="#08908C"/>
<path d="M5.67188 9.89062V10.5938H7.78125H9.89062V9.89062V9.1875H7.78125H5.67188V9.89062Z" fill="#08908C"/>
<path d="M5.67188 12.7031V13.4062H7.78125H9.89062V12.7031V12H7.78125H5.67188V12.7031Z" fill="#08908C"/>
<path d="M5.67188 15.5156V16.2188H7.78125H9.89062V15.5156V14.8125H7.78125H5.67188V15.5156Z" fill="#08908C"/>
<path d="M14.1094 4.26562V4.96875H16.2188H18.3281V4.26562V3.5625H16.2188H14.1094V4.26562Z" fill="#08908C"/>
<path d="M14.1094 7.07812V7.78125H16.2188H18.3281V7.07812V6.375H16.2188H14.1094V7.07812Z" fill="#08908C"/>
<path d="M14.1094 9.89062V10.5938H16.2188H18.3281V9.89062V9.1875H16.2188H14.1094V9.89062Z" fill="#08908C"/>
<path d="M14.1094 14.1094V16.2188H16.2188H18.3281V14.1094V12H16.2188H14.1094V14.1094ZM16.9219 14.1094V14.8125H16.2188H15.5156V14.1094V13.4062H16.2188H16.9219V14.1094Z" fill="#08908C"/>
</svg>
