<svg width="48" height="48" viewBox="0 0 48 48" fill="none" xmlns="http://www.w3.org/2000/svg">
<g clip-path="url(#clip0_67_933)">
<path d="M17.831 26.4276L16.7221 28.0623C15.8119 29.404 15.5987 31.1002 16.1484 32.6254C17.2932 35.8017 21.1655 36.9913 23.8961 35.0057L45.4787 19.3112L41.9327 20.5892C39.3561 21.5179 36.5724 21.7133 33.8914 21.1539C31.2104 20.5944 28.4267 20.7898 25.8502 21.7185L22.2012 23.0336C20.4224 23.6747 18.8925 24.8629 17.831 26.4276Z" fill="#21AC63"/>
<path fill-rule="evenodd" clip-rule="evenodd" d="M22.3873 23.55C20.7177 24.1518 19.2816 25.2671 18.2853 26.7358L17.1764 28.3704C16.3647 29.5668 16.1746 31.0793 16.6648 32.4394C17.6856 35.2716 21.1385 36.3324 23.5734 34.5618L42.0385 21.1343C39.3889 22.0727 36.5319 22.2656 33.7793 21.6912C31.1977 21.1524 28.5173 21.3407 26.0363 22.2348L22.3873 23.55ZM17.3769 26.1196C18.5035 24.4589 20.1273 23.1978 22.0152 22.5173L25.6641 21.2022C28.3362 20.2391 31.2231 20.0364 34.0036 20.6166C36.5852 21.1554 39.2656 20.9671 41.7466 20.0729L45.2927 18.7949C45.5497 18.7022 45.8358 18.8128 45.9637 19.0542C46.0916 19.2956 46.0225 19.5944 45.8015 19.7551L24.2189 35.4496C21.1925 37.6503 16.9009 36.3318 15.6321 32.8116C15.0228 31.1211 15.2592 29.2412 16.268 27.7542L17.3769 26.1196Z" fill="black"/>
<path d="M30.3518 43.4969L28.4496 44.0292C26.8883 44.4661 25.2121 44.1296 23.9405 43.1239C21.2922 41.0296 21.3941 36.98 24.1442 35.0214L45.8808 19.541L43.5427 22.4975C41.8438 24.6457 40.7744 27.2232 40.4533 29.9431C40.1323 32.663 39.0629 35.2404 37.364 37.3886L34.958 40.4309C33.7852 41.914 32.1726 42.9873 30.3518 43.4969Z" fill="#21AC63"/>
<path fill-rule="evenodd" clip-rule="evenodd" d="M37.9038 36.4827C38.156 36.6508 38.4967 36.5827 38.6649 36.3305L39.2137 35.5072C39.3819 35.255 39.3137 34.9142 39.0615 34.7461C38.8093 34.5779 38.4685 34.6461 38.3004 34.8983L37.7515 35.7216C37.5834 35.9738 37.6516 36.3145 37.9038 36.4827ZM34.6036 39.6738C33.5357 41.0914 32.0462 42.1342 30.3488 42.6526L28.4358 43.2367C27.0681 43.6544 25.5831 43.3924 24.4409 42.532C22.0432 40.7257 22.0722 37.1164 24.4986 35.3489L43.1232 21.7823C41.0158 25.1095 39.6466 28.8664 39.1268 32.7986L39.0362 33.4843C38.9965 33.7848 39.2079 34.0606 39.5084 34.1003C39.8089 34.14 40.0847 33.9286 40.1244 33.6281L40.2151 32.9424C40.8621 28.0466 42.8814 23.4339 46.0395 19.6373C46.0532 19.6208 46.0658 19.6037 46.0773 19.5862C46.1469 19.4799 46.1752 19.3562 46.1641 19.2361C46.1595 19.186 46.148 19.1364 46.1298 19.089C46.1008 19.0134 46.0546 18.9432 45.9918 18.8848C45.9604 18.8555 45.9264 18.8306 45.8903 18.8099C45.7475 18.7279 45.578 18.7164 45.4287 18.7709C45.3779 18.7895 45.3294 18.8157 45.2851 18.8495L23.8523 34.4616C20.83 36.6632 20.7939 41.1589 23.7805 43.4087C25.2032 44.4805 27.0528 44.8068 28.7564 44.2866L30.6694 43.7024C32.5887 43.1163 34.2729 41.9372 35.4804 40.3343L37.0322 38.2742C37.2146 38.0321 37.1662 37.688 36.9241 37.5056C36.682 37.3233 36.3379 37.3717 36.1555 37.6138L34.6036 39.6738Z" fill="black"/>
<path d="M23.3895 35.4772L17.5453 38.6097C17.0089 38.8972 16.8515 39.5931 17.212 40.0834L17.6839 40.7252C18.0765 41.2591 18.8704 41.2704 19.2781 40.7479L23.3895 35.4772Z" fill="#21AC63" stroke="black" stroke-width="2"/>
<path d="M12.0114 4.64822C13.4394 2.0096 17.2056 1.95286 18.7124 4.54726L28.4345 21.2862C29.8826 23.7794 28.1704 26.92 25.2901 27.0535L6.21425 27.9375L6.02594 27.9462C3.03952 28.0846 1.04633 24.9091 2.46928 22.2799L12.0114 4.64822Z" fill="#21AC63"/>
<path fill-rule="evenodd" clip-rule="evenodd" d="M14.713 2.69403C13.6269 2.88498 12.6122 3.5381 12.0114 4.64822L2.46928 22.2799C1.04633 24.9091 3.03952 28.0846 6.02594 27.9462L25.2901 27.0535C28.1704 26.92 29.8826 23.7794 28.4345 21.2862L18.7124 4.54726C18.1099 3.50981 17.1461 2.89629 16.1149 2.70227C15.6523 2.61522 15.1762 2.61261 14.713 2.69403ZM9.05519 26.4323L25.2266 25.6829C27.0782 25.5971 28.1789 23.5781 27.248 21.9753L17.5259 5.23639C17.2491 4.75981 16.8538 4.4224 16.4087 4.2231C17.7824 12.4298 14.9858 20.7348 9.05519 26.4323ZM6.88893 26.5327C13.4283 21.064 16.5462 12.4706 14.9832 4.04021C14.2743 4.15648 13.6096 4.57799 13.2181 5.30129L3.676 22.9329C2.76125 24.6232 4.04259 26.6646 5.96243 26.5756L6.88893 26.5327Z" fill="black"/>
<path d="M18.9907 17.0099C18.9907 18.9801 17.3935 20.5773 15.4232 20.5773C13.4529 20.5773 11.8557 18.9801 11.8557 17.0099C11.8557 15.0396 13.4529 13.4424 15.4232 13.4424C17.3935 13.4424 18.9907 15.0396 18.9907 17.0099Z" fill="#DB2828"/>
<path fill-rule="evenodd" clip-rule="evenodd" d="M15.4232 14.1285C13.8318 14.1285 12.5418 15.4185 12.5418 17.0099C12.5418 18.6012 13.8318 19.8913 15.4232 19.8913C17.0146 19.8913 18.3046 18.6012 18.3046 17.0099C18.3046 15.4185 17.0146 14.1285 15.4232 14.1285ZM11.1697 17.0099C11.1697 14.6607 13.074 12.7563 15.4232 12.7563C17.7724 12.7563 19.6767 14.6607 19.6767 17.0099C19.6767 19.359 17.7724 21.2634 15.4232 21.2634C13.074 21.2634 11.1697 19.359 11.1697 17.0099Z" fill="black"/>
</g>
<defs>
<clipPath id="clip0_67_933">
<rect width="48" height="48" fill="white"/>
</clipPath>
</defs>
</svg>
