<svg width="30" height="30" viewBox="0 0 30 30" fill="none" xmlns="http://www.w3.org/2000/svg">
<g clip-path="url(#clip0_58_83)">
<path d="M7.7344 0.0351791C5.27932 0.181664 2.584 0.720726 1.68166 1.25393C1.24221 1.50588 0.955099 2.10354 0.644552 3.42776C0.0117393 6.11721 -0.169901 9.53909 0.210958 11.4258C0.597677 13.3301 1.81643 15.3164 3.35744 16.5528C4.31252 17.3203 5.04494 17.7364 6.41604 18.2813C7.81643 18.8379 8.66018 19.377 9.61526 20.3262C10.6172 21.334 11.1328 22.1485 11.7774 23.7422C12.1875 24.7559 12.334 25.0606 12.6738 25.6055C13.7988 27.4102 15.5977 28.8516 17.543 29.502C18.8789 29.9473 20.4844 30.0879 22.5293 29.9414C25.2949 29.7363 28.0078 29.1153 28.5645 28.5586C29.2266 27.8965 29.8828 24.6446 29.9766 21.5449C30.0469 19.3125 29.8067 17.9531 29.086 16.4824C28.2305 14.7422 26.6778 13.166 24.9551 12.2989C24.7031 12.1758 24.1055 11.918 23.6309 11.7246C22.1602 11.1387 21.3223 10.5996 20.3613 9.63869C19.4238 8.70119 18.8145 7.74026 18.2285 6.25198C17.6016 4.68166 17.0977 3.87307 16.0547 2.78909C14.7246 1.40627 13.0196 0.49807 11.0918 0.146507C10.5821 0.0527573 8.57229 -0.0116959 7.7344 0.0351791ZM10.5762 1.35354C12.2578 1.5469 13.7871 2.30862 15.0586 3.57424C15.9727 4.4883 16.5762 5.44338 17.0567 6.71487C18.1992 9.77346 20.2207 11.7949 23.2793 12.9434C24.6563 13.459 25.6699 14.1153 26.584 15.0821C27.7207 16.2832 28.3828 17.6133 28.6231 19.1895C28.8223 20.4668 28.7285 22.9688 28.4121 24.7676C28.3477 25.1485 28.2656 25.6231 28.2305 25.8281C28.1953 26.0332 28.1485 26.1739 28.125 26.1504C28.0254 26.0449 27.8262 24.961 27.6563 23.6074C27.416 21.6504 27.2696 20.8242 27.041 20.1211C26.291 17.8418 24.5156 15.8262 22.2949 14.7364C22.0078 14.5957 21.4336 14.3496 21.0293 14.1914C19.752 13.6817 18.8203 13.0957 17.9707 12.2637C16.9571 11.2735 16.377 10.3594 15.7031 8.70119C15.3047 7.71682 15.0879 7.28909 14.6602 6.64455C13.7168 5.24416 12.4219 4.1133 10.9278 3.39846C9.89065 2.90627 9.26369 2.74221 7.11916 2.40237C5.53713 2.15627 3.84377 1.87502 3.82033 1.85159C3.81447 1.83987 3.89065 1.81643 3.99611 1.79885C6.99026 1.27151 8.77736 1.14846 10.5762 1.35354ZM2.84182 2.92385C3.32229 3.05276 4.3594 3.2344 6.70901 3.60354C8.39065 3.86721 9.01174 3.99612 9.59182 4.19534C11.1738 4.74026 12.6563 5.90041 13.6172 7.35354C14.0274 7.96877 14.2266 8.36721 14.625 9.38088C15.7735 12.3164 17.6953 14.2149 20.7129 15.4102C22.0254 15.9317 22.6758 16.3067 23.5078 17.0156C24.3164 17.7071 25.0957 18.7266 25.5117 19.6465C25.9629 20.6309 26.1328 21.3926 26.3906 23.5606C26.625 25.4942 26.7656 26.168 27.1582 27.2578L27.3574 27.8262L26.9649 27.9434C25.7637 28.3008 23.7656 28.6114 22.0781 28.7051C21.0176 28.7696 19.5117 28.6992 18.8672 28.5645C17.4141 28.2598 16.0488 27.5215 14.9766 26.4492C14.0567 25.541 13.5293 24.7031 12.9434 23.2559C12.4629 22.0723 12.3047 21.75 11.8535 21.0645C10.6231 19.2012 8.97072 17.9063 6.72072 17.0567C5.39065 16.5528 4.50588 15.9903 3.60354 15.0879C2.4844 13.9688 1.74611 12.627 1.44143 11.1621C1.20119 10.0137 1.21291 7.95119 1.47072 5.9883C1.59377 5.02151 1.8633 3.58596 2.0215 3.05276C2.12697 2.70119 2.0508 2.71291 2.84182 2.92385Z" fill="#0D938D"/>
<path d="M9.00586 6.38674C8.78321 6.56252 8.70703 6.87893 8.83008 7.13674C8.91211 7.30666 9.01758 7.37698 9.53906 7.62307C10.0605 7.86916 10.2129 7.97463 10.5762 8.34377C10.9043 8.67776 11.0273 8.84768 11.127 9.11721C11.3438 9.72658 11.4375 9.86721 11.6777 9.94338C11.8594 10.0078 11.9355 10.002 12.0996 9.93752C12.5801 9.7383 12.5977 9.26955 12.1582 8.40237C11.7305 7.55862 11.0039 6.89065 10.0371 6.46877C9.50977 6.24026 9.22266 6.21682 9.00586 6.38674Z" fill="#0D938D"/>
<path d="M2.72462 7.69336C2.46095 7.95703 2.45509 8.20898 2.68946 8.70117C2.959 9.27539 3.51564 9.75 4.13673 9.9375C4.36525 10.002 4.43556 10.002 4.59962 9.9375C4.84571 9.83203 4.98048 9.63281 4.98048 9.375C4.98048 9.09375 4.85743 8.93555 4.49415 8.75391C4.08986 8.54883 3.88478 8.34961 3.73829 8.01563C3.58595 7.66406 3.4629 7.55859 3.16993 7.51758C2.959 7.48828 2.91212 7.50586 2.72462 7.69336Z" fill="#0D938D"/>
<path d="M7.9102 11.2911C7.5645 11.4258 7.44145 11.7774 7.58208 12.2403C7.92192 13.3828 8.90044 14.3789 10.1543 14.8594C10.6172 15.0352 10.8633 15.0176 11.0801 14.7891C11.2618 14.5957 11.2735 14.1914 11.1036 14.0039C11.0391 13.9336 10.7637 13.7696 10.4942 13.6465C9.5977 13.2305 9.0352 12.668 8.79497 11.9356C8.72466 11.7305 8.60747 11.502 8.5313 11.4317C8.39067 11.3028 8.06841 11.2266 7.9102 11.2911Z" fill="#0D938D"/>
<path d="M15.2754 16.3535C15.1465 16.4297 15 16.711 15 16.8867C15.0059 17.127 15.2812 17.8125 15.5273 18.1992C15.9785 18.8848 16.7754 19.5176 17.5898 19.8399C18.1055 20.0391 18.3047 20.0274 18.5566 19.7754C18.7441 19.5879 18.7617 19.5469 18.7324 19.3184C18.709 19.1367 18.6504 19.0313 18.5098 18.9082C18.4043 18.8203 18.2871 18.75 18.2461 18.75C18.0996 18.75 17.3613 18.3281 17.0859 18.0938C16.7285 17.7891 16.3828 17.2617 16.2598 16.8457C16.1484 16.4531 15.9551 16.2891 15.6211 16.2891C15.4922 16.2891 15.334 16.3184 15.2754 16.3535Z" fill="#0D938D"/>
<path d="M22.6934 21.4746C22.5059 21.6621 22.4883 21.709 22.5176 21.9199C22.5586 22.2129 22.6641 22.3359 23.0156 22.5C23.3906 22.6758 23.6016 22.8809 23.7598 23.2383C23.918 23.5957 24.0879 23.7305 24.3926 23.7305C24.9258 23.7305 25.125 23.1445 24.8145 22.5176C24.5039 21.9023 23.6484 21.2695 23.1152 21.2695C22.9453 21.2695 22.8516 21.3164 22.6934 21.4746Z" fill="#0D938D"/>
<path d="M16.5703 22.5938C16.3594 22.7051 16.2891 22.8457 16.2891 23.1445C16.2891 23.9414 17.0801 25.0723 18.0703 25.6934C18.5273 25.9746 19.1953 26.25 19.4297 26.25C19.6523 26.25 19.9805 25.9043 19.9805 25.6699C19.9805 25.3125 19.875 25.2012 19.2422 24.8965C18.2988 24.4453 17.7832 23.9121 17.5137 23.1035C17.4199 22.8105 17.3496 22.6992 17.2031 22.6113C16.9863 22.4824 16.7871 22.4707 16.5703 22.5938Z" fill="#0D938D"/>
</g>
<defs>
<clipPath id="clip0_58_83">
<rect width="30" height="30" fill="white"/>
</clipPath>
</defs>
</svg>
