<svg width="40" height="40" viewBox="0 0 40 40" fill="none" xmlns="http://www.w3.org/2000/svg">
<path d="M13.3438 2.00006C13.086 2.13287 12.8906 2.48443 12.8906 2.78912C12.8906 2.90631 13.0313 3.33599 13.2031 3.73443C13.6406 4.74224 14.1641 6.64068 14.0391 6.76568C14.0235 6.78131 13.7422 6.72662 13.4063 6.64068C12.5781 6.42974 11.2578 6.30474 10.5235 6.36724C9.99221 6.41412 9.86721 6.45318 9.64846 6.65631C9.50002 6.78131 9.3594 6.98443 9.33596 7.10943C9.24221 7.55474 9.41408 7.85162 10.1094 8.39068C11.6797 9.61724 12.9453 11.4688 13.4766 13.3126C13.586 13.6876 13.6719 14.0547 13.6719 14.1172C13.6719 14.1797 13.5 14.4688 13.2969 14.7579C12.336 16.0938 11.6719 17.3985 11 19.2579C9.9219 22.2501 9.21877 26.7501 9.32033 29.9844C9.35158 31.086 9.39065 31.3985 9.56252 31.9922C10.0235 33.5782 11.0313 35.1251 12.2188 36.0704C13.8985 37.4063 16.5469 38.086 20.0391 38.0782C22.375 38.0782 24.586 37.7188 26.0625 37.1016C28.2969 36.1719 30.0313 33.9844 30.5625 31.4141C30.7031 30.7501 30.7188 30.4688 30.6797 28.9454C30.5391 23.4454 29.2188 18.5313 26.9844 15.1876C26.625 14.6407 26.3281 14.1563 26.3281 14.1016C26.3281 13.8126 26.7735 12.5157 27.1094 11.8282C27.75 10.5157 28.6641 9.37506 29.8594 8.42193C30.586 7.84381 30.7422 7.58599 30.6563 7.13287C30.625 6.98443 30.5 6.78131 30.3516 6.64849C30.1328 6.45318 30 6.41412 29.4766 6.36724C28.7422 6.30474 27.4219 6.42974 26.5938 6.64068C26.2578 6.72662 25.9766 6.78131 25.961 6.76568C25.836 6.64068 26.3594 4.75006 26.7891 3.75006C26.9688 3.35162 27.1094 2.92193 27.1094 2.79693C27.1094 2.25006 26.6328 1.82037 26.0938 1.89849C25.7188 1.94537 24.5 2.56256 23.7656 3.07037C23.4453 3.28912 22.9297 3.71099 22.6172 4.00006L22.0469 4.53131L21.6641 3.89849C21.1094 2.96099 20.6328 2.39849 20.2969 2.28912C19.9531 2.17974 19.5938 2.25787 19.3125 2.51568C19.1094 2.70318 18.5313 3.53912 18.1719 4.16412L17.961 4.53912L17.4219 4.03131C16.6641 3.32037 15.8828 2.78131 14.8828 2.29693C13.9844 1.85943 13.6953 1.80474 13.3438 2.00006ZM15.4844 4.07037C16.0078 4.42974 16.7735 5.12506 17.1172 5.55474L17.3516 5.85162L17.125 6.57818C16.9922 6.97662 16.8516 7.50787 16.7969 7.75006L16.711 8.19537L16.1172 7.80474C15.7891 7.59381 15.5 7.42193 15.461 7.42193C15.4297 7.42193 15.3828 7.25787 15.3516 7.04693C15.2188 6.00787 15.0313 5.11724 14.7969 4.39849C14.6485 3.96099 14.5313 3.57818 14.5313 3.55474C14.5313 3.49224 14.9844 3.73443 15.4844 4.07037ZM25.3125 4.03131C25.0547 4.72662 24.7813 5.89849 24.6875 6.67974C24.6485 7.06256 24.5781 7.39068 24.5313 7.40631C24.4922 7.42193 24.1875 7.60943 23.8672 7.81256L23.2891 8.19537L23.2344 7.90631C23.2031 7.75006 23.0625 7.21881 22.9141 6.73443L22.6485 5.85162L22.8828 5.56256C23.1406 5.22662 23.8203 4.57818 24.2188 4.28131C24.6094 3.98443 25.4141 3.50787 25.4531 3.54693C25.4688 3.57037 25.4063 3.78912 25.3125 4.03131ZM20.3828 4.17974C21.1172 5.30474 21.7422 6.89849 22.0313 8.42193C22.2344 9.46881 22.2891 11.2266 22.1172 11.1876C22.0625 11.1797 21.7656 11.1172 21.4688 11.0547C20.7735 10.9063 19.2266 10.9063 18.5313 11.0547C18.2344 11.1172 17.9375 11.1797 17.8828 11.1876C17.7969 11.2032 17.7735 11.0235 17.7891 10.2422C17.8203 8.61724 18.2188 6.94537 18.9453 5.41412C19.2735 4.71881 19.9063 3.67193 20 3.67193C20.0235 3.67193 20.1953 3.89849 20.3828 4.17974ZM12.0313 7.65631C13.3672 7.82037 14.5313 8.24224 15.586 8.93756C16.5313 9.57037 16.4922 9.50006 16.5156 10.7188L16.5313 11.7657L16.0703 12.0313C15.8203 12.1797 15.4141 12.461 15.1641 12.6641L14.7031 13.0313L14.4922 12.4376C13.8828 10.7266 12.9531 9.28912 11.6485 8.07037C11.3672 7.79693 11.1875 7.57818 11.25 7.57818C11.3203 7.57818 11.6719 7.61724 12.0313 7.65631ZM28.3516 8.07037C27.0391 9.29693 26.1172 10.7188 25.5078 12.4454L25.2891 13.0547L25.0469 12.8282C24.8047 12.5938 23.625 11.7969 23.5235 11.7969C23.4219 11.7969 23.5 9.68756 23.6016 9.56256C23.7969 9.32818 24.6797 8.74224 25.2969 8.43756C26.2422 7.96881 27.6016 7.62506 28.6328 7.59381C28.8594 7.58599 28.8516 7.59381 28.3516 8.07037ZM21.1016 12.2735L21.5078 12.3594L20.75 13.1172L20 13.8672L19.2422 13.1094L18.4922 12.3594L18.836 12.2813C19.3125 12.1719 20.6172 12.1719 21.1016 12.2735ZM17.1094 16.7579L15.1172 18.7501L14.2422 17.8751L13.3672 17.0001L13.5703 16.6407C14.5 15.0157 15.4766 13.8829 16.5235 13.211L17.1485 12.8126L18.125 13.7891L19.1016 14.7657L17.1094 16.7579ZM23.75 13.3907C24.5625 13.9376 25.6094 15.211 26.4297 16.6407L26.6328 17.0001L25.7578 17.8751L24.8828 18.7501L22.8906 16.7579L20.8985 14.7657L21.875 13.7891L22.8438 12.8204L23.1172 12.9844C23.2735 13.0782 23.5547 13.2579 23.75 13.3907ZM22.0156 17.6797L23.9844 19.6485L21.9922 21.6407L20 23.6329L18.0078 21.6407L16.0156 19.6485L17.9844 17.6797C19.0703 16.5938 19.9766 15.7032 20 15.7032C20.0235 15.7032 20.9297 16.5938 22.0156 17.6797ZM12.836 21.0391C12.0703 21.7969 11.4375 22.3829 11.4219 22.3282C11.3906 22.1563 12 20.1563 12.3985 19.1485L12.7656 18.2032L13.4922 18.9219L14.2188 19.6485L12.836 21.0391ZM27.6094 19.1563C27.961 20.0547 28.5938 22.0938 28.5938 22.336C28.5938 22.4063 27.961 21.8282 27.1875 21.0547L25.7813 19.6485L26.5 18.9297C26.8985 18.5313 27.2266 18.2188 27.2344 18.2266C27.2422 18.2344 27.4063 18.6563 27.6094 19.1563ZM17.1094 26.5235L15.1172 28.5157L13.125 26.5235L11.1328 24.5313L13.125 22.5391L15.1172 20.5469L17.1094 22.5391L19.1016 24.5313L17.1094 26.5235ZM26.875 26.5235L24.8828 28.5157L22.8906 26.5235L20.8985 24.5313L22.8906 22.5391L24.8828 20.5469L26.875 22.5391L28.8672 24.5313L26.875 26.5235ZM22.0156 27.4454L23.9844 29.4141L21.9922 31.4063L20 33.3985L18.0078 31.4063L16.0156 29.4141L17.9844 27.4454C19.0703 26.3594 19.9766 25.4688 20 25.4688C20.0235 25.4688 20.9297 26.3594 22.0156 27.4454ZM12.6797 30.9532C11.8281 31.8047 11.1172 32.5001 11.086 32.5001C11.0625 32.5001 10.9453 32.1954 10.8203 31.8126C10.6328 31.2344 10.6016 30.961 10.5703 29.961C10.5313 28.9141 10.625 27.1329 10.7578 26.3047L10.8047 26.0001L12.5078 27.7032L14.2188 29.4141L12.6797 30.9532ZM29.336 27.2344C29.5 28.9532 29.4844 30.5157 29.2969 31.3047C29.211 31.6641 29.086 32.086 29.0235 32.2422L28.8985 32.5313L27.3438 30.9766L25.7813 29.4141L27.4766 27.7188C28.4063 26.7813 29.1875 26.0313 29.1953 26.0469C29.211 26.0626 29.2735 26.5938 29.336 27.2344ZM17.9688 35.4297C17.3438 36.0547 16.7813 36.5626 16.7031 36.5626C16.4063 36.5626 14.6953 36.0704 14.2188 35.8516C13.5235 35.5313 12.6485 34.8438 12.1485 34.2266L11.7266 33.711L13.4219 32.0079L15.1172 30.3126L17.1094 32.3047L19.1016 34.2969L17.9688 35.4297ZM27.9063 34.1641C27.4375 34.7657 26.5703 35.461 25.8438 35.8204C25.336 36.0626 23.6328 36.5626 23.2891 36.5626C23.2188 36.5626 22.6563 36.0547 22.0313 35.4297L20.8985 34.2969L22.8906 32.3047L24.8828 30.3126L26.5781 32.0079L28.2735 33.6954L27.9063 34.1641ZM20.8125 36.0079L21.5781 36.7735L21.1563 36.8204C20.625 36.8907 19.375 36.8907 18.8438 36.8204L18.4219 36.7735L19.1875 36.0079C19.6094 35.5782 19.9766 35.2344 20 35.2344C20.0235 35.2344 20.3906 35.5782 20.8125 36.0079Z" fill="white"/>
</svg>
