<svg width="32" height="32" viewBox="0 0 32 32" fill="none" xmlns="http://www.w3.org/2000/svg">
<path d="M17.4375 0.0875244C16.4125 0.418774 15.8125 1.36877 15.525 3.12502C15.4688 3.45002 15.4063 4.29377 15.3813 4.99377L15.3438 6.26877L14.8188 5.65002C14.1188 4.82502 14.0313 4.75002 13.7938 4.75002C13.6813 4.75002 12.9 4.93127 12.0625 5.15627C8.78752 6.01877 7.62502 6.53752 7.62502 7.13127C7.62502 7.50627 7.85627 7.78127 8.46252 8.15002C8.78127 8.34377 8.80627 8.37502 8.68127 8.40002C7.95002 8.53752 7.73127 8.59377 7.37502 8.73127C4.40627 9.83752 3.52502 14.3875 5.28127 19.5563C5.68127 20.7438 5.95002 21.3813 6.66252 22.8C8.30002 26.0938 9.53127 27.9313 11.1938 29.5688C12.0125 30.375 12.8125 30.9563 13.7188 31.4063C14.6625 31.8688 15.0375 31.9625 16 31.9625C16.9 31.9625 17.3063 31.875 18.1188 31.4938C20.25 30.5 22.2375 28.3875 24.1188 25.125C24.65 24.2 25.8188 21.8813 26.1375 21.1188C28.1438 16.3063 28.1125 11.825 26.0625 9.68752C25.4438 9.04377 24.75 8.68127 23.7438 8.47502C23.3625 8.40002 23.35 8.39377 23.5 8.31252C24.0188 8.04377 24.4375 7.51877 24.4375 7.13127C24.4375 6.54377 23.2813 6.01877 20.1438 5.18752C18.5063 4.75002 18.1875 4.69377 18.0188 4.81877C17.95 4.86877 17.6188 5.22502 17.2875 5.60627C16.95 5.99377 16.65 6.31252 16.6188 6.31252C16.475 6.31252 16.6063 3.58752 16.7875 2.71877C16.8938 2.21877 17.1313 1.66252 17.3313 1.44377C17.5063 1.25002 17.8125 1.12502 18.0938 1.12502C18.6125 1.12502 18.825 0.531275 18.4313 0.168774C18.2813 0.0312748 18.1938 2.47955e-05 17.95 0.00627327C17.7875 0.0125237 17.5563 0.0437737 17.4375 0.0875244ZM14.1188 6.59377C14.4313 6.95002 14.8625 7.39377 15.075 7.56877C15.4938 7.91252 15.4938 7.91877 15.5938 8.70627C15.675 9.39377 16.1563 9.66877 16.5688 9.25627C16.7625 9.05627 16.7688 9.01252 16.6938 8.35002L16.65 7.91252L17.3125 7.25627C17.6813 6.89377 18.1 6.44377 18.2563 6.26252L18.5313 5.93752L19.75 6.25002C21.2563 6.64377 22.9063 7.18127 22.8375 7.25002C22.7563 7.33127 21.4188 7.70627 20.4813 7.91252C19.1188 8.21252 19.1063 8.26877 20.0188 10.0688C20.9625 11.9375 21.7563 13.75 21.6313 13.75C21.55 13.75 20.25 12.825 18.575 11.575C16.7625 10.2188 16.4063 10 16.0438 10C15.6625 10 15.3688 10.1875 13.4438 11.6188C11.775 12.8563 10.375 13.85 10.375 13.7938C10.375 13.6 11.6313 10.85 12.3375 9.50002C12.9375 8.36252 12.85 8.18752 11.5938 7.91252C10.625 7.70002 9.54377 7.40002 9.33127 7.28752C9.18127 7.21252 9.21877 7.19377 10.0375 6.91877C10.5188 6.76252 11.3313 6.51877 11.8438 6.38127C12.9688 6.07502 13.4563 5.95002 13.5063 5.94377C13.5313 5.93752 13.8063 6.23127 14.1188 6.59377ZM10.9625 9.51252C10.9438 9.59377 10.6563 10.2438 10.3313 10.9688C9.48127 12.8438 9.18127 13.6688 9.14377 14.2625L9.10627 14.7438L9.33752 14.975C9.55627 15.1938 9.58127 15.2 9.90002 15.175C10.5188 15.125 11.2313 14.6813 14.0563 12.5813C15.0063 11.875 15.8438 11.2688 15.9188 11.2313C16.0938 11.15 16.2375 11.2438 18 12.5688C19.9313 14.0125 20.725 14.5563 21.3625 14.8875C22.0625 15.25 22.375 15.2813 22.6813 15.025C23.1875 14.6 23.0375 13.8688 21.9375 11.4063C21.3625 10.125 21.1125 9.49377 21.1563 9.45002C21.2188 9.38127 23.4688 9.56252 23.8438 9.66252C24.5875 9.86252 25.15 10.2688 25.5875 10.9313C26.2125 11.875 26.4563 12.8625 26.4625 14.5C26.4625 15.7813 26.3563 16.575 26 17.9813C25.65 19.3438 25.225 20.4438 24.3438 22.2188C22.8063 25.3375 21.675 27.0375 20.125 28.5625C18.8875 29.7813 17.6188 30.5875 16.5938 30.7938C15.65 30.9875 14.7125 30.7188 13.525 29.925C11.9 28.8438 10.4875 27.2438 9.06252 24.8688C8.36252 23.7063 6.94377 20.8313 6.56252 19.7938C5.86877 17.9063 5.53752 16.2 5.53752 14.5C5.54377 12.8625 5.78752 11.875 6.41252 10.9313C6.70627 10.4875 7.13752 10.0938 7.56252 9.87502C7.98127 9.66252 8.58752 9.55002 9.78127 9.46877C10.4375 9.42502 10.975 9.38752 10.9875 9.38127C11 9.38127 10.9875 9.43752 10.9625 9.51252Z" fill="#0D938D"/>
<path d="M7.14377 13.7125C6.88752 13.8313 6.78752 14.1375 6.81877 14.7688C6.84377 15.1625 6.86877 15.2688 6.99377 15.4C7.20002 15.6188 7.56877 15.625 7.78127 15.4063C7.92502 15.2688 7.93752 15.2125 7.93752 14.6063C7.93752 14.0188 7.92502 13.95 7.80002 13.825C7.60627 13.65 7.38127 13.6125 7.14377 13.7125Z" fill="#0D938D"/>
<path d="M23.7562 13.7125C23.5125 13.85 23.4438 14.05 23.4375 14.6125C23.4375 15.3312 23.575 15.5562 24.0188 15.5625C24.1938 15.5625 24.2937 15.5188 24.4062 15.4C24.55 15.2438 24.5625 15.1813 24.5625 14.6187C24.5625 14.075 24.55 13.9875 24.425 13.85C24.25 13.6562 23.9625 13.5938 23.7562 13.7125Z" fill="#0D938D"/>
<path d="M15.275 14.525C15.15 14.5813 15.0562 14.6813 15.0062 14.8125C14.9187 15.0688 14.9187 15.7938 15 16.0438C15.1312 16.4125 15.625 16.5063 15.9062 16.2188C16.05 16.0813 16.0625 16.025 16.0625 15.4688C16.0625 14.7813 16.0125 14.65 15.7187 14.525C15.4687 14.425 15.5125 14.425 15.275 14.525Z" fill="#0D938D"/>
<path d="M20.525 17.3001C20.45 17.3126 20.325 17.3876 20.2438 17.4751C20.1063 17.6188 20.0938 17.6876 20.0938 18.2563C20.0938 18.8376 20.1 18.8813 20.2563 19.0376C20.4875 19.2688 20.8188 19.2688 21.05 19.0438C21.2125 18.8813 21.2188 18.8438 21.2188 18.2563C21.2188 17.6938 21.2063 17.6188 21.075 17.4813C20.925 17.3188 20.7563 17.2626 20.525 17.3001Z" fill="#0D938D"/>
<path d="M11.025 17.925C10.95 17.9375 10.825 18.0125 10.7438 18.1C10.6063 18.2437 10.5938 18.3125 10.5938 18.8812C10.5938 19.4687 10.6 19.5062 10.7625 19.6687C10.9938 19.9 11.3188 19.9 11.55 19.6687C11.7125 19.5062 11.7188 19.4687 11.7188 18.8812C11.7188 18.3187 11.7063 18.2437 11.575 18.1062C11.425 17.9437 11.2563 17.8875 11.025 17.925Z" fill="#0D938D"/>
<path d="M16.525 20.2375C16.45 20.25 16.325 20.325 16.2438 20.4125C16.1188 20.5438 16.0938 20.65 16.0688 21.0438C16.0375 21.675 16.1375 21.9875 16.3938 22.0938C16.6563 22.2 16.9125 22.15 17.0625 21.95C17.1688 21.8188 17.1875 21.7 17.1875 21.1938C17.1875 20.7625 17.1625 20.55 17.0938 20.4563C16.9875 20.3063 16.7188 20.2063 16.525 20.2375Z" fill="#0D938D"/>
<path d="M20.9562 22.3375C20.7875 22.4812 20.7812 22.5125 20.7812 23.0812C20.7812 23.7625 20.8625 23.9625 21.1562 24.0625C21.3875 24.1375 21.6 24.0812 21.775 23.8875C21.9062 23.7375 21.9813 23.0937 21.9125 22.7187C21.8188 22.2187 21.325 22.025 20.9562 22.3375Z" fill="#0D938D"/>
<path d="M11.975 23.1626C11.8187 23.3188 11.8125 23.3626 11.8125 23.9688C11.8125 24.6126 11.8125 24.6126 12.0062 24.7751C12.225 24.9626 12.3687 24.9751 12.6187 24.8438C12.875 24.7126 12.9562 24.4626 12.9312 23.8438C12.9062 23.3376 12.8937 23.2938 12.7312 23.1501C12.4937 22.9438 12.1937 22.9501 11.975 23.1626Z" fill="#0D938D"/>
<path d="M15.9875 26.4062C15.7563 26.5375 15.6688 26.8562 15.7 27.4562C15.725 27.9062 15.75 27.975 15.9 28.1062C16.2875 28.4375 16.7625 28.2125 16.8438 27.6562C16.9 27.3062 16.8438 26.7312 16.7375 26.5625C16.5875 26.325 16.2688 26.2562 15.9875 26.4062Z" fill="#0D938D"/>
</svg>
