<svg width="30" height="27" viewBox="0 0 30 27" fill="none" xmlns="http://www.w3.org/2000/svg">
<path d="M0.170031 1.16208C-0.122937 1.45505 -0.0350468 1.74216 0.439563 2.04685L0.750109 2.24607L0.580188 2.46286C0.18175 2.96677 -0.0467656 3.7988 0.0235469 4.51951C0.0880001 5.23435 0.216906 5.41599 0.726672 5.48044C1.00792 5.52146 1.0548 5.58591 1.0548 5.96677C1.0548 6.60544 1.588 8.59177 2.08019 9.81052C3.87316 14.2344 6.66808 18.2422 10.09 21.2949C13.2247 24.0898 16.0489 25.7129 18.8087 26.2988C19.8751 26.5215 20.6193 26.5683 21.8966 26.4922C23.9532 26.3691 24.381 26.4043 25.1134 26.7793C25.6232 27.0429 25.8165 27.0429 26.0157 26.791C26.1622 26.6035 26.1739 26.1406 26.0509 25.4551C25.8048 24.0898 25.0607 22.7656 23.8946 21.6113L23.4435 21.1601L23.9825 21.0664C24.6974 20.9316 25.3536 20.7383 26.2794 20.3867C27.545 19.9121 27.8497 19.8301 28.4767 19.8359C28.7814 19.8359 29.1798 19.8594 29.3673 19.8828C29.6778 19.9297 29.7071 19.9238 29.8478 19.7832C30.0353 19.5957 30.0353 19.4609 29.8595 18.9453C29.5665 18.0722 29.0743 17.3105 28.3536 16.584C27.6974 15.9336 26.9708 15.4179 26.045 14.9668C25.0841 14.4922 24.0528 14.1523 22.4122 13.7715C21.7032 13.6074 20.713 13.3789 20.215 13.2617C15.9903 12.2715 12.5685 10.3027 6.73839 5.50974C6.36925 5.20505 5.89464 4.78318 5.6837 4.56638C5.47277 4.34958 5.18566 4.08005 5.03917 3.96287L4.7755 3.75193L4.88097 3.58201C5.02159 3.33005 5.00402 3.11911 4.8048 2.77341C4.57628 2.36911 4.16612 2.01755 3.63878 1.7656C3.2755 1.58982 3.12316 1.55466 2.72472 1.53122C2.39659 1.51365 2.14464 1.53708 1.9337 1.59568L1.62902 1.68357L1.26573 1.4199C0.896594 1.1445 0.603625 0.992161 0.439563 0.992161C0.386828 0.992161 0.263781 1.06833 0.170031 1.16208ZM3.33409 2.72654C3.50402 2.81443 3.70909 2.96677 3.78527 3.06052L3.93175 3.2363L3.76769 3.41208C3.44542 3.75193 2.94738 3.83982 2.42003 3.6406C1.98644 3.47068 1.78722 3.56443 1.58214 4.02146C1.48839 4.23826 1.18956 4.50779 1.04308 4.50779C0.896594 4.50779 1.08409 3.51755 1.29503 3.17771C1.42394 2.97263 1.79308 2.69138 2.08019 2.58591C2.38488 2.46872 2.98839 2.53318 3.33409 2.72654ZM4.41808 4.74802C4.87511 5.1113 5.51964 5.8613 6.14073 6.73435C9.37511 11.3047 10.7286 13.0156 12.5802 14.8554C14.4493 16.7187 15.8907 17.7851 18.4278 19.1855C21.2345 20.7383 21.8087 21.0957 22.7286 21.8867C23.9357 22.9179 24.7853 24.2363 25.0489 25.4668L25.0841 25.6543L24.7735 25.5664C24.2579 25.4316 23.3907 25.4023 21.9845 25.4844C20.9181 25.5429 20.5255 25.5429 20.0392 25.4844C17.6075 25.2031 15.3282 24.1601 12.5919 22.0801C10.6407 20.5918 8.62511 18.582 7.10753 16.6074C4.39464 13.0742 2.3673 8.75583 2.03917 5.80271L1.96886 5.16404L2.17394 4.93552L2.37316 4.71287L2.8712 4.73044C3.26964 4.74802 3.42784 4.73044 3.66222 4.63669C3.82628 4.57224 3.99034 4.51951 4.03722 4.51365C4.07823 4.50779 4.24816 4.61326 4.41808 4.74802ZM9.55089 8.99607C12.2989 11.041 14.4493 12.3066 16.7872 13.2383C18.1759 13.7949 18.7853 13.9648 21.7677 14.6445C24.1876 15.2011 25.3829 15.6347 26.5255 16.373C27.3517 16.9062 28.465 18.1074 28.6876 18.6992C28.7169 18.7929 28.6818 18.8047 28.4005 18.8047C27.8204 18.8047 27.1349 18.9863 25.7872 19.5019C25.3595 19.666 24.9845 19.8008 24.9552 19.8008C24.9259 19.8008 24.9962 19.6367 25.1017 19.4375C25.4181 18.8633 25.506 18.4648 25.4708 17.8437C25.4181 16.8183 24.9025 15.9687 24.0235 15.4355C23.5021 15.125 23.1857 15.0371 22.5294 15.0312C21.7091 15.0254 21.1173 15.2422 20.5548 15.7461C20.4318 15.8574 20.3204 15.9394 20.3087 15.9277C20.3028 15.916 20.1974 15.7285 20.0802 15.5117C19.6935 14.8144 18.9728 14.2812 18.1525 14.0879C17.5079 13.9355 16.922 13.9941 16.295 14.2695C16.1251 14.3457 15.9728 14.4101 15.961 14.4101C15.9493 14.4101 15.9025 14.2812 15.8556 14.1289C15.8087 13.9707 15.715 13.7246 15.6446 13.584C15.463 13.2324 14.7423 12.5293 14.3732 12.3359C13.6407 11.9668 12.6739 11.914 11.965 12.2011L11.6017 12.3476L10.9454 11.5449C10.3888 10.8652 8.95909 8.97849 8.4962 8.32224C8.32628 8.07615 8.30284 8.06443 9.55089 8.99607ZM13.7814 13.1621C14.0919 13.3027 14.5314 13.6894 14.713 13.9765C14.8595 14.2168 15.0001 14.709 15.0001 15.0019C15.0001 15.3301 14.9357 15.582 14.8478 15.582C14.8068 15.582 14.2091 15.0312 13.5235 14.3574L12.2755 13.1328L12.4806 13.0683C12.7911 12.9746 13.465 13.0215 13.7814 13.1621ZM18.3751 15.2304C18.8028 15.4414 19.1193 15.7695 19.3243 16.2207C19.6056 16.8301 19.4943 17.6855 19.0665 18.207L18.9552 18.3418L18.5275 18.1074C17.7657 17.6914 16.7403 17.0469 16.2189 16.666L15.7091 16.291L15.7735 16.0859C15.9025 15.664 16.5411 15.166 17.1095 15.0488C17.4786 14.9668 17.9943 15.0429 18.3751 15.2304ZM22.9864 16.0801C23.3966 16.1855 23.6896 16.3672 23.9884 16.6953C24.3458 17.0937 24.463 17.4043 24.463 17.9844C24.463 18.4297 24.4454 18.5234 24.2696 18.875C24.0587 19.3027 23.7599 19.6015 23.3263 19.8125C23.1036 19.9238 22.9571 19.9472 22.5001 19.9472C22.0431 19.9472 21.8966 19.9238 21.6739 19.8125C21.2403 19.6015 20.9415 19.3027 20.7306 18.875C20.5548 18.5234 20.5372 18.4297 20.5372 17.9844C20.5372 17.4043 20.6544 17.0937 21.0118 16.6953C21.3048 16.373 21.6036 16.1855 21.9903 16.0801C22.3888 15.9746 22.5821 15.9746 22.9864 16.0801Z" fill="#0D938D"/>
</svg>
