<svg width="30" height="24" viewBox="0 0 30 24" fill="none" xmlns="http://www.w3.org/2000/svg">
<path d="M16.7871 0.791071C16.7227 0.80279 16.1309 0.943415 15.4687 1.10162C12.334 1.85162 10.3711 2.08599 6.59179 2.15631C3.88476 2.20904 3.81445 2.2149 3.01172 2.59576C1.86328 3.14654 0.925777 4.28326 0.61523 5.49029C0.392574 6.3692 0.445309 7.4942 0.761715 8.43756C1.0957 9.43365 1.52929 10.1251 2.31445 10.9161C4.45312 13.0782 7.34179 14.0977 10.4883 13.8223C13.248 13.5762 15.7676 12.5743 17.8711 10.8868C18.5625 10.3301 19.9043 9.06451 20.2207 8.67193C20.6426 8.13873 20.666 8.11529 20.4727 8.45513C18.6504 11.6895 16.1953 14.5079 13.3125 16.6817C12.668 17.168 12.3457 17.5137 12.0996 17.9825C11.4434 19.2364 11.6602 20.6836 12.6504 21.6739C13.5176 22.5352 15.0762 23.1563 16.582 23.2325C18.1172 23.3086 19.6641 22.9864 21.1523 22.2774C22.3828 21.6856 23.0801 21.1524 24.7441 19.5059C25.7461 18.5215 26.373 17.7715 27.0234 16.7754C28.6406 14.3086 29.4961 11.4844 29.502 8.57232C29.502 6.99029 29.3086 6.10552 28.6699 4.79302C28.3887 4.22466 28.2715 4.0606 27.8965 3.67974C27.3867 3.16998 26.9414 2.91216 26.2734 2.74224C25.1602 2.45513 23.9238 2.76568 23.0918 3.53912C22.6289 3.96685 22.4004 4.31841 22.0137 5.23248C21.6738 6.02935 21.1816 7.07818 21.2461 6.8731C21.6973 5.39068 21.6562 4.22466 21.123 3.1231C20.4199 1.66998 18.9199 0.732477 17.332 0.755915C17.0977 0.761774 16.8516 0.773493 16.7871 0.791071ZM18.0879 1.77545C19.3008 2.06256 20.2559 3.01763 20.543 4.24224C20.6543 4.71685 20.625 5.54302 20.4727 6.14068C20.3437 6.65045 19.9863 7.41216 19.6582 7.87506L19.3887 8.25006H18.5566C17.2031 8.25006 16.6641 8.45513 15.8848 9.28716C15.293 9.90826 14.9941 10.0547 14.1797 10.1251C13.8164 10.1602 13.4473 10.2364 13.1719 10.3301C12.9375 10.418 12.6914 10.4883 12.627 10.4883C12.5625 10.4883 12.2871 10.418 12.0117 10.3301C11.5898 10.1895 11.4082 10.1661 10.8105 10.1602C10.0195 10.1544 9.73828 10.2364 9.23437 10.5997C9.08203 10.711 8.87695 10.8575 8.77734 10.9278C8.5664 11.086 8.33789 11.0977 7.93359 10.9747C7.51757 10.8516 7.21289 10.5645 6.91406 10.0137C6.19336 8.67193 5.11523 8.41998 3.01172 9.09381L2.23242 9.34576L2.15039 9.22271C1.76367 8.63677 1.4707 7.69927 1.42382 6.9024C1.36523 5.79498 1.69336 4.91607 2.46093 4.14849C3.19336 3.41607 3.99609 3.09966 5.12695 3.09381H5.65429L5.82421 3.54498C6.46875 5.29693 6.58593 5.50201 7.04882 5.74224C7.51172 5.97662 8.27929 5.94146 9.3164 5.63677C10.0078 5.43756 10.7109 5.39068 11.1621 5.52545C11.5781 5.64263 11.7891 5.76568 12.2344 6.14654C12.6621 6.50982 13.1133 6.72662 13.5879 6.79693C14.3086 6.9024 14.2969 6.89654 14.6484 7.40045C15.0937 8.03326 15.3926 8.22076 15.9609 8.22076C16.4238 8.2149 16.6289 8.13287 16.9277 7.83404C17.2734 7.48834 17.3145 7.35357 17.3086 6.58013C17.2969 5.16216 16.8633 3.80279 16.0137 2.51959C15.8379 2.25006 15.7031 2.02154 15.709 2.01568C15.7207 2.00396 16.0078 1.92779 16.3477 1.84576C17.0566 1.67584 17.5723 1.6524 18.0879 1.77545ZM15.0059 2.73638C15.6738 3.60357 16.1543 4.74029 16.3184 5.83013C16.4473 6.69732 16.4355 6.99615 16.2598 7.16607C15.9785 7.45318 15.7617 7.35357 15.3516 6.76177C14.9355 6.16412 14.5137 5.90631 13.9395 5.90631C13.6055 5.90631 13.2187 5.74224 12.8906 5.46099C11.6895 4.4356 10.7285 4.2774 8.85351 4.78716C7.96289 5.03326 7.42382 5.00982 7.27148 4.71685C7.20117 4.57037 6.67968 3.19927 6.67968 3.14654C6.67968 3.12896 7.20117 3.09381 7.83984 3.07623C9.74414 3.01177 11.2617 2.86529 13.0078 2.5606C13.5703 2.46685 14.127 2.36138 14.2383 2.33209C14.5898 2.25006 14.6602 2.28521 15.0059 2.73638ZM26.0508 3.64459C26.4902 3.76177 26.9355 4.01959 27.252 4.34185C27.7324 4.82818 28.2187 5.91802 28.459 7.03716C28.5996 7.68756 28.5996 9.41021 28.4531 10.3594C28.3477 11.086 28.0781 12.2461 27.9082 12.7501L27.7969 13.0665L27.3047 13.2247C26.1504 13.5997 25.1895 14.2852 24.4863 15.2286C24.1758 15.6446 24.0469 15.7208 23.5723 15.7735C22.7285 15.8555 22.1426 16.4942 22.0312 17.4493C21.9668 17.9883 21.8789 18.2344 21.627 18.5215C21.3398 18.8497 21.0117 18.9727 20.2969 19.0372C19.1426 19.1368 18.416 19.4708 17.6367 20.2559C17.1973 20.6954 17.0918 20.8536 16.7578 21.504C16.4004 22.2129 16.3652 22.254 16.2012 22.254C15.9258 22.254 15.1348 22.043 14.6602 21.8497C13.7168 21.4571 13.166 21.0059 12.8672 20.379C12.709 20.045 12.6855 19.9336 12.6855 19.5001C12.6855 19.2247 12.7207 18.9024 12.7617 18.7794C12.8379 18.5684 12.8496 18.5626 13.1309 18.5626C13.5762 18.5626 13.8223 18.6973 14.2559 19.1778C14.7246 19.6934 15.0937 19.8985 15.6562 19.9512C16.5176 20.0274 17.3672 19.6172 17.8828 18.8672C17.9766 18.7266 18.1699 18.2637 18.3105 17.8419C18.6094 16.9219 18.7734 16.6172 19.2305 16.1251C19.8457 15.4688 20.8066 14.877 22.1016 14.3555C23.1855 13.9219 23.5312 13.7169 24.0469 13.1954C24.6797 12.5626 25.0605 11.8477 25.2305 10.9688C25.4121 10.0137 25.2656 9.48052 24.7207 9.08795C24.416 8.87115 24.4043 8.84185 24.3457 8.26763C24.2637 7.40631 23.959 6.67974 23.3555 5.88287L22.957 5.36724L23.1387 5.00396C23.666 3.9317 24.9258 3.34576 26.0508 3.64459ZM23.0684 7.16021C23.291 7.59966 23.4316 8.17388 23.4375 8.63091C23.4375 9.07037 23.6543 9.48638 24.0176 9.75006C24.375 10.002 24.416 10.1192 24.3281 10.7051C24.1934 11.5606 23.6074 12.4805 22.8867 12.961C22.7168 13.0723 22.2715 13.2833 21.9082 13.4239C21.1113 13.7344 20.3965 14.086 19.834 14.4493C18.4746 15.3223 17.8184 16.1661 17.4141 17.5606C17.2031 18.2813 17.0098 18.5801 16.5937 18.8145C15.9551 19.1719 15.3398 19.0665 14.9062 18.5215C14.6074 18.1407 14.2676 17.8829 13.8926 17.754L13.5879 17.6485L14.1621 17.209C15.1172 16.4708 15.9785 15.6973 16.9336 14.7188C18.5215 13.0958 19.6934 11.584 20.8594 9.65631C21.3457 8.84771 22.5 6.59185 22.5 6.43365C22.5059 6.28716 22.8457 6.72076 23.0684 7.16021ZM18.2168 9.3399C17.9473 9.63287 16.9687 10.4239 16.4121 10.793C14.6543 11.9708 12.6504 12.6797 10.4883 12.8848C8.30859 13.0899 6.23437 12.6094 4.52929 11.4961C4.01953 11.168 3.25781 10.5645 3 10.2833L2.85937 10.1368L3.50976 9.92584C4.37109 9.64459 5.02148 9.59185 5.4082 9.76177C5.75976 9.91412 5.93554 10.1133 6.1582 10.5762C6.59179 11.4786 7.59375 12.0704 8.55468 11.9825C8.92968 11.9532 9.28125 11.7891 9.59765 11.5079C10.002 11.1446 10.1602 11.0919 10.8105 11.0977C11.3145 11.0977 11.4668 11.127 11.9238 11.2911C12.6797 11.5606 12.7148 11.5665 13.0547 11.3907C13.4473 11.1915 13.9512 11.0626 14.3262 11.0626C15.0937 11.0626 15.8203 10.7169 16.4238 10.0606C17.0156 9.42779 17.4434 9.19927 18.0703 9.19341L18.3574 9.18756L18.2168 9.3399ZM27.0645 14.8184C26.1973 16.5528 25.2832 17.7422 23.6133 19.3126C23.0801 19.8165 22.4238 20.3907 22.1484 20.5958C21.2168 21.2813 19.8809 21.879 18.7676 22.1075C18.1348 22.2364 17.4609 22.3008 17.4609 22.2364C17.4609 22.2071 17.5723 21.9669 17.707 21.709C18.2637 20.6368 19.3184 19.9747 20.4668 19.9688C21.5098 19.9629 22.4238 19.3301 22.8105 18.3399C22.8633 18.2051 22.9336 17.877 22.9629 17.6192C23.0098 17.1856 23.0332 17.1211 23.2148 16.9395C23.3906 16.7696 23.4785 16.7286 23.8008 16.6876C24.3633 16.6172 24.6621 16.4649 24.9961 16.0665C25.6699 15.2579 26.2617 14.7305 26.8066 14.4493C27.0937 14.2969 27.3398 14.1856 27.3516 14.1973C27.3633 14.2032 27.2344 14.4844 27.0645 14.8184Z" fill="#0D938D"/>
</svg>
