<svg width="25" height="24" viewBox="0 0 25 24" fill="none" xmlns="http://www.w3.org/2000/svg">
<path d="M2 6.375C2 5.34 2.84 4.5 3.875 4.5H18.125C19.16 4.5 20 5.34 20 6.375V14.625C20 15.66 19.16 16.5 18.125 16.5H3.875C2.84 16.5 2 15.66 2 14.625V6.375ZM3.875 6C3.77554 6 3.68016 6.03951 3.60984 6.10983C3.53951 6.18016 3.5 6.27554 3.5 6.375V7.5H4.25C4.44891 7.5 4.63968 7.42098 4.78033 7.28033C4.92098 7.13968 5 6.94891 5 6.75V6H3.875ZM3.5 14.625C3.5 14.832 3.668 15 3.875 15H5V14.25C5 14.0511 4.92098 13.8603 4.78033 13.7197C4.63968 13.579 4.44891 13.5 4.25 13.5H3.5V14.625ZM6.5 14.25V15H15.5V14.25C15.5 13.6533 15.7371 13.081 16.159 12.659C16.581 12.2371 17.1533 12 17.75 12H18.5V9H17.75C17.1533 9 16.581 8.76295 16.159 8.34099C15.7371 7.91903 15.5 7.34674 15.5 6.75V6H6.5V6.75C6.5 7.34674 6.26295 7.91903 5.84099 8.34099C5.41903 8.76295 4.84674 9 4.25 9H3.5V12H4.25C4.84674 12 5.41903 12.2371 5.84099 12.659C6.26295 13.081 6.5 13.6533 6.5 14.25ZM17 15H18.125C18.2245 15 18.3198 14.9605 18.3902 14.8902C18.4605 14.8198 18.5 14.7245 18.5 14.625V13.5H17.75C17.5511 13.5 17.3603 13.579 17.2197 13.7197C17.079 13.8603 17 14.0511 17 14.25V15ZM18.5 7.5V6.375C18.5 6.27554 18.4605 6.18016 18.3902 6.10983C18.3198 6.03951 18.2245 6 18.125 6H17V6.75C17 6.94891 17.079 7.13968 17.2197 7.28033C17.3603 7.42098 17.5511 7.5 17.75 7.5H18.5ZM7.25 19.5C6.77483 19.5002 6.3118 19.3499 5.92728 19.0708C5.54276 18.7916 5.25649 18.3979 5.1095 17.946C5.318 17.982 5.531 18 5.75 18H18.125C19.0201 18 19.8786 17.6444 20.5115 17.0115C21.1444 16.3785 21.5 15.5201 21.5 14.625V7.6275C21.9389 7.78266 22.3188 8.07012 22.5875 8.45026C22.8561 8.8304 23.0002 9.28451 23 9.75V14.625C23 15.2652 22.8739 15.8991 22.6289 16.4906C22.3839 17.082 22.0248 17.6195 21.5721 18.0721C21.1195 18.5248 20.582 18.8839 19.9906 19.1289C19.3991 19.3739 18.7652 19.5 18.125 19.5H7.25Z" fill="#555555"/>
<path d="M13.703 7.99634H9.29688H10.4985C10.9235 7.99634 11.331 8.16514 11.6315 8.46562C11.932 8.76609 12.1008 9.17363 12.1008 9.59856C12.1008 10.0235 11.932 10.431 11.6315 10.7315C11.331 11.032 10.9235 11.2008 10.4985 11.2008H9.29688L11.7002 13.6041M9.29688 9.59856H13.703" stroke="#555555" stroke-width="0.8" stroke-linecap="round" stroke-linejoin="round"/>
</svg>
