<svg width="20" height="18" viewBox="0 0 20 18" fill="none" xmlns="http://www.w3.org/2000/svg">
<path d="M13.3333 1.75H0.833328V12.5833H13.3333V1.75Z" stroke="#10BAB2" stroke-width="1.8" stroke-linecap="round" stroke-linejoin="round"/>
<path d="M13.3333 5.91667H16.6667L19.1667 8.41667V12.5833H13.3333V5.91667Z" stroke="#10BAB2" stroke-width="1.8" stroke-linecap="round" stroke-linejoin="round"/>
<path d="M4.58333 16.75C5.73393 16.75 6.66667 15.8173 6.66667 14.6667C6.66667 13.5161 5.73393 12.5833 4.58333 12.5833C3.43274 12.5833 2.5 13.5161 2.5 14.6667C2.5 15.8173 3.43274 16.75 4.58333 16.75Z" stroke="#10BAB2" stroke-width="1.8" stroke-linecap="round" stroke-linejoin="round"/>
<path d="M15.4167 16.75C16.5673 16.75 17.5 15.8173 17.5 14.6667C17.5 13.5161 16.5673 12.5833 15.4167 12.5833C14.2661 12.5833 13.3333 13.5161 13.3333 14.6667C13.3333 15.8173 14.2661 16.75 15.4167 16.75Z" stroke="#10BAB2" stroke-width="1.8" stroke-linecap="round" stroke-linejoin="round"/>
</svg>
