<svg width="20" height="21" viewBox="0 0 20 21" fill="none" xmlns="http://www.w3.org/2000/svg">
<path d="M8.33334 14L10.8333 14.8333C10.8333 14.8333 17.0833 13.5833 17.9167 13.5833C18.75 13.5833 18.75 14.4167 17.9167 15.25C17.0833 16.0833 14.1667 18.5833 11.6667 18.5833C9.16667 18.5833 7.5 17.3333 5.83334 17.3333H1.66667" stroke="#10BAB2" stroke-width="1.8" stroke-linecap="round" stroke-linejoin="round"/>
<path d="M6.66667 7.75V4.41667C6.66667 4.19565 6.75447 3.98369 6.91075 3.82741C7.06703 3.67113 7.27899 3.58333 7.5 3.58333H17.5C17.721 3.58333 17.933 3.67113 18.0893 3.82741C18.2455 3.98369 18.3333 4.19565 18.3333 4.41667V11.0833M1.66667 12.3333C2.5 11.5 4.16667 10.25 5.83334 10.25C7.5 10.25 11.4583 11.9167 12.0833 12.75C12.7083 13.5833 10.8333 14.8333 10.8333 14.8333L1.66667 12.3333Z" stroke="#10BAB2" stroke-width="1.8" stroke-linecap="round" stroke-linejoin="round"/>
<path d="M10.4167 3.58333H14.5833V7.33333H10.4167V3.58333Z" stroke="#10BAB2" stroke-width="1.8" stroke-linecap="round" stroke-linejoin="round"/>
</svg>
