<svg width="30" height="30" viewBox="0 0 30 30" fill="none" xmlns="http://www.w3.org/2000/svg">
<path d="M16.2501 9.99997C17.2447 9.99997 18.1985 10.3951 18.9018 11.0983C19.605 11.8016 20.0001 12.7554 20.0001 13.75C20.0001 14.0815 20.1318 14.3994 20.3662 14.6339C20.6007 14.8683 20.9186 15 21.2501 15C21.5816 15 21.8996 14.8683 22.134 14.6339C22.3684 14.3994 22.5001 14.0815 22.5001 13.75C22.5001 12.0924 21.8416 10.5027 20.6695 9.33055C19.4974 8.15845 17.9077 7.49997 16.2501 7.49997C15.9186 7.49997 15.6007 7.63167 15.3662 7.86609C15.1318 8.10051 15.0001 8.41845 15.0001 8.74997C15.0001 9.08149 15.1318 9.39943 15.3662 9.63385C15.6007 9.86827 15.9186 9.99997 16.2501 9.99997Z" fill="#10BAB2"/>
<path d="M16.2501 5.00009C18.5708 5.00009 20.7964 5.92196 22.4373 7.56291C24.0782 9.20385 25.0001 11.4294 25.0001 13.7501C25.0001 14.0816 25.1318 14.3996 25.3662 14.634C25.6007 14.8684 25.9186 15.0001 26.2501 15.0001C26.5816 15.0001 26.8996 14.8684 27.134 14.634C27.3684 14.3996 27.5001 14.0816 27.5001 13.7501C27.5001 10.7664 26.3149 7.90492 24.2051 5.79514C22.0953 3.68536 19.2338 2.50009 16.2501 2.50009C15.9186 2.50009 15.6007 2.63179 15.3662 2.86621C15.1318 3.10063 15.0001 3.41857 15.0001 3.75009C15.0001 4.08161 15.1318 4.39955 15.3662 4.63398C15.6007 4.8684 15.9186 5.00009 16.2501 5.00009ZM27.1876 19.8876C27.1189 19.6869 27.0002 19.5071 26.8427 19.3649C26.6853 19.2228 26.4943 19.123 26.2876 19.0751L18.7876 17.3626C18.584 17.3164 18.3721 17.322 18.1713 17.3788C17.9704 17.4355 17.7869 17.5417 17.6376 17.6876C17.4626 17.8501 17.4501 17.8626 16.6376 19.4126C13.9416 18.1703 11.7814 16.0012 10.5501 13.3001C12.1376 12.5001 12.1501 12.5001 12.3126 12.3126C12.4585 12.1633 12.5647 11.9798 12.6215 11.7789C12.6782 11.5781 12.6838 11.3662 12.6376 11.1626L10.9251 3.75009C10.8772 3.54346 10.7774 3.35243 10.6353 3.19498C10.4932 3.03753 10.3133 2.91884 10.1126 2.85009C9.82071 2.74583 9.51926 2.67047 9.21262 2.62509C8.89669 2.55184 8.57429 2.50997 8.25012 2.50009C6.72513 2.50009 5.26259 3.10589 4.18426 4.18423C3.10592 5.26256 2.50012 6.7251 2.50012 8.25009C2.50674 13.3535 4.53698 18.2459 8.14562 21.8546C11.7543 25.4632 16.6467 27.4935 21.7501 27.5001C22.5052 27.5001 23.2529 27.3514 23.9506 27.0624C24.6482 26.7734 25.282 26.3499 25.816 25.816C26.3499 25.282 26.7735 24.6481 27.0624 23.9505C27.3514 23.2529 27.5001 22.5052 27.5001 21.7501C27.5005 21.4319 27.4754 21.1143 27.4251 20.8001C27.3726 20.4896 27.2931 20.1843 27.1876 19.8876ZM21.7501 25.0001C17.3088 24.9968 13.0503 23.231 9.90974 20.0905C6.76922 16.95 5.00343 12.6915 5.00012 8.25009C5.00341 7.38915 5.34688 6.56441 5.95566 5.95563C6.56444 5.34685 7.38918 5.00338 8.25012 5.00009H8.66262L10.0001 10.8001L9.32512 11.1501C8.25012 11.7126 7.40012 12.1626 7.85012 13.1376C8.5829 15.2121 9.76859 17.0973 11.321 18.6562C12.8735 20.2151 14.7537 21.4087 16.8251 22.1501C17.8751 22.5751 18.2876 21.7876 18.8501 20.7001L19.2126 20.0126L25.0001 21.3376V21.7501C24.9968 22.611 24.6534 23.4358 24.0446 24.0446C23.4358 24.6533 22.6111 24.9968 21.7501 25.0001Z" fill="#10BAB2"/>
</svg>
