<svg width="24" height="24" viewBox="0 0 24 24" fill="none" xmlns="http://www.w3.org/2000/svg">
<g clip-path="url(#clip0_7465_5525)">
<path d="M22.5555 13.6621L20.6555 6.82606C20.0986 4.82339 18.8882 3.06434 17.2168 1.82853C15.5454 0.592709 13.5089 -0.0489569 11.4309 0.00552317C9.35299 0.0600033 7.35288 0.807503 5.74853 2.1292C4.14419 3.45091 3.02767 5.27096 2.57647 7.30006L1.10547 13.9151C0.942986 14.646 0.946742 15.4041 1.11646 16.1334C1.28618 16.8627 1.61753 17.5445 2.08605 18.1286C2.55457 18.7127 3.14829 19.1841 3.82338 19.508C4.49847 19.8319 5.23769 20.0001 5.98647 20.0001H7.10047C7.32999 21.1303 7.9432 22.1465 8.83621 22.8764C9.72922 23.6063 10.8471 24.0051 12.0005 24.0051C13.1538 24.0051 14.2717 23.6063 15.1647 22.8764C16.0577 22.1465 16.671 21.1303 16.9005 20.0001H17.7385C18.5093 20.0001 19.2697 19.822 19.9602 19.4795C20.6508 19.137 21.2528 18.6396 21.7193 18.0259C22.1858 17.4123 22.504 16.6991 22.6493 15.9421C22.7945 15.1851 22.7627 14.4048 22.5565 13.6621H22.5555ZM12.0005 22.0001C11.3822 21.9975 10.7798 21.804 10.2758 21.446C9.7717 21.088 9.39055 20.583 9.18447 20.0001H14.8165C14.6104 20.583 14.2292 21.088 13.7252 21.446C13.2211 21.804 12.6187 21.9975 12.0005 22.0001ZM20.1265 16.8151C19.8478 17.1847 19.4868 17.4843 19.0721 17.69C18.6574 17.8957 18.2004 18.0019 17.7375 18.0001H5.98647C5.53725 18 5.09379 17.899 4.68881 17.7046C4.28383 17.5103 3.92768 17.2274 3.64663 16.877C3.36559 16.5265 3.16683 16.1174 3.06503 15.6799C2.96323 15.2424 2.96099 14.7876 3.05847 14.3491L4.52847 7.73306C4.88282 6.13926 5.75978 4.70966 7.01993 3.67151C8.28008 2.63335 9.85109 2.04623 11.4832 2.00347C13.1154 1.96071 14.715 2.46477 16.0278 3.43553C17.3406 4.40628 18.2912 5.788 18.7285 7.36106L20.6285 14.1971C20.754 14.6424 20.774 15.1109 20.6869 15.5654C20.5997 16.0198 20.4079 16.4477 20.1265 16.8151Z" fill="#4F5052"/>
</g>
<defs>
<clipPath id="clip0_7465_5525">
<rect width="24" height="24" fill="white"/>
</clipPath>
</defs>
</svg>
