<svg width="24" height="24" viewBox="0 0 24 24" fill="none" xmlns="http://www.w3.org/2000/svg">
<path d="M1.68283 0.885918C1.09689 1.07342 0.637514 1.44373 0.309389 1.98279C-0.0187359 2.53592 1.41332e-05 1.9031 1.41332e-05 12C1.41332e-05 22.0969 -0.0187359 21.464 0.309389 22.0172C0.642202 22.5656 1.13439 22.9547 1.7297 23.1281C1.95939 23.1937 2.97189 23.2031 12 23.2031C23.0578 23.2031 22.1953 23.2265 22.7953 22.9078C23.325 22.6265 23.8172 21.9562 23.9484 21.3375C24.0234 20.9859 24.0234 3.01404 23.9484 2.66248C23.8172 2.04373 23.325 1.37342 22.7953 1.09217C22.1953 0.773418 23.0625 0.796856 11.9813 0.801543C2.49845 0.801543 1.93126 0.806231 1.68283 0.885918ZM21.9516 2.40936C22.1484 2.48904 22.3406 2.71873 22.4063 2.94373C22.4344 3.05154 22.4531 3.87185 22.4531 5.07185V7.03123H12H1.54689V5.07185C1.54689 3.87185 1.56564 3.05154 1.59376 2.94373C1.6547 2.72342 1.85158 2.48904 2.03908 2.40936C2.2547 2.31561 21.7266 2.31561 21.9516 2.40936ZM6.28126 15.1406V21.6562H4.2422C2.62501 21.6562 2.17033 21.6422 2.04845 21.5906C1.85158 21.5109 1.65939 21.2812 1.59376 21.0562C1.56564 20.939 1.54689 18.825 1.54689 14.7515V8.62498H3.91408H6.28126V15.1406ZM22.4438 14.8453C22.4297 21.8109 22.4578 21.225 22.0922 21.5015L21.9234 21.6328L14.8735 21.6469L7.82814 21.6562V15.1406V8.62498H15.1406H22.4531L22.4438 14.8453Z" fill="#08908C"/>
<path d="M3.7547 3.94216C3.55782 3.98435 3.38438 4.11091 3.24376 4.31716C3.08907 4.53747 3.11251 4.93591 3.29532 5.17028C3.63282 5.6156 4.34532 5.54997 4.59845 5.04841C4.88907 4.48122 4.37813 3.81091 3.7547 3.94216Z" fill="#08908C"/>
<path d="M6.87188 3.94688C6.49219 4.02656 6.28125 4.30313 6.28125 4.725C6.28125 4.88438 6.31406 5.00156 6.38906 5.11406C6.50625 5.29688 6.84375 5.48438 7.05 5.48438C7.26094 5.48438 7.55625 5.32031 7.6875 5.12344C7.84219 4.89375 7.85156 4.47656 7.70625 4.28438C7.49063 3.99375 7.2 3.87656 6.87188 3.94688Z" fill="#08908C"/>
<path d="M10.0312 3.93746C9.7078 3.99371 9.50623 4.18121 9.42186 4.50465C9.35623 4.74371 9.42655 5.01559 9.61405 5.22653C9.87655 5.52653 10.364 5.55465 10.664 5.29215C11.2734 4.75778 10.8234 3.79684 10.0312 3.93746Z" fill="#08908C"/>
<path d="M9.91406 11.2734C9.53906 11.4093 9.32344 11.8125 9.42656 12.1968C9.49219 12.4453 9.72656 12.6797 9.97031 12.7453C10.1062 12.7828 11.6391 12.7968 15.2437 12.7875L20.3203 12.7734L20.4844 12.6703C20.9719 12.3656 20.9719 11.6343 20.4844 11.3297L20.3203 11.2265L15.2109 11.2172C10.8937 11.2078 10.0734 11.2172 9.91406 11.2734Z" fill="#08908C"/>
<path d="M9.86719 14.4094C9.7875 14.4422 9.66562 14.5406 9.59531 14.6203C9.28125 14.9953 9.34687 15.5062 9.73594 15.7734L9.91406 15.8906H15.1219H20.3297L20.4891 15.7828C20.7609 15.6 20.8687 15.3937 20.85 15.0891C20.8266 14.7703 20.6859 14.5547 20.4187 14.4328C20.2359 14.3484 20.0016 14.3437 15.1172 14.3484C10.9734 14.3484 9.97969 14.3578 9.86719 14.4094Z" fill="#08908C"/>
<path d="M9.89061 17.5359C9.69843 17.6109 9.46874 17.8687 9.41718 18.0609C9.32811 18.3984 9.47811 18.7547 9.79218 18.9281L9.97499 19.0312L15.1781 19.0219C20.3531 19.0078 20.3859 19.0078 20.5125 18.9094C20.7234 18.7547 20.8266 18.5812 20.8453 18.3422C20.8781 18.0469 20.7797 17.8172 20.55 17.6437L20.3766 17.5078L15.1922 17.4984C11.8266 17.4937 9.96561 17.5078 9.89061 17.5359Z" fill="#08908C"/>
</svg>
