<svg width="24" height="24" viewBox="0 0 24 24" fill="none" xmlns="http://www.w3.org/2000/svg">
<path d="M3.44531 0.0656261C3.27188 0.145313 3.11719 0.309376 3.05156 0.482813C3.01875 0.562501 3 1.07813 3 1.80469V2.99531L1.73906 3.00938C0.548438 3.02344 0.46875 3.02813 0.346875 3.12188C0.276563 3.17344 0.173438 3.27656 0.121875 3.34688C0.0234375 3.47344 0.0234375 3.50625 0.0234375 7.5C0.0234375 11.4938 0.0234375 11.5266 0.121875 11.6531C0.173438 11.7234 0.276563 11.8266 0.346875 11.8781C0.473438 11.9766 0.501563 11.9766 5.25 11.9766C9.99844 11.9766 10.0266 11.9766 10.1531 11.8781C10.2234 11.8266 10.3266 11.7234 10.3781 11.6531C10.4766 11.5266 10.4766 11.5078 10.4766 6C10.4766 0.492188 10.4766 0.473438 10.3781 0.346876C10.3266 0.276564 10.2234 0.173438 10.1531 0.121876C10.0266 0.0234385 9.975 0.0234385 6.80625 0.0140629C4.19531 0.00468826 3.55781 0.0140629 3.44531 0.0656261ZM9 6V10.5H8.25469H7.50938L7.49063 9.98906C7.47656 9.43594 7.43438 9.32813 7.15313 9.12188C6.97031 8.98594 6.52969 8.98594 6.34688 9.12188C6.06563 9.32813 6.02344 9.43594 6.00938 9.98906L5.99063 10.5H5.24531H4.5V6V1.5H6.75H9V6ZM3 7.5V10.5H2.25H1.5V7.5V4.5H2.25H3V7.5Z" fill="#888888" fill-opacity="0.6"/>
<path d="M6.44529 3.06563C5.97185 3.27188 5.85935 3.9 6.22966 4.27031C6.75466 4.8 7.61716 4.32656 7.48123 3.58594C7.39685 3.14531 6.86716 2.87813 6.44529 3.06563Z" fill="#888888" fill-opacity="0.6"/>
<path d="M6.44529 6.06563C5.97185 6.27188 5.85935 6.9 6.22966 7.27031C6.75466 7.8 7.61716 7.32656 7.48123 6.58594C7.39685 6.14531 6.86716 5.87813 6.44529 6.06563Z" fill="#888888" fill-opacity="0.6"/>
<path d="M13.9453 1.56562C13.8703 1.60312 13.411 2.02969 12.9281 2.5125C11.6672 3.79219 11.6672 3.7125 12.975 5.025C13.7578 5.80781 13.9266 5.95312 14.0766 5.97656C14.3578 6.02812 14.5781 5.9625 14.7703 5.77031C15.0797 5.46094 15.075 5.05312 14.7563 4.70625L14.5641 4.5H17.0297H19.5L19.5094 7.26094C19.5235 9.97031 19.5235 10.0266 19.6219 10.1531C19.8047 10.4016 19.9547 10.4766 20.25 10.4766C20.5453 10.4766 20.6953 10.4016 20.8781 10.1531C20.9766 10.0266 20.9766 9.98437 20.9766 6.75C20.9766 3.51562 20.9766 3.47344 20.8781 3.34687C20.8266 3.27656 20.7235 3.17344 20.6531 3.12187C20.5266 3.02344 20.4703 3.02344 17.5453 3.00937L14.5688 3L14.7563 2.79375C15.0516 2.475 15.0797 2.07656 14.8266 1.77656C14.6063 1.51875 14.2453 1.42969 13.9453 1.56562Z" fill="#888888" fill-opacity="0.6"/>
<path d="M16.9453 12.0656C16.7719 12.1453 16.6172 12.3094 16.5516 12.4828C16.5188 12.5625 16.5 13.0781 16.5 13.8047V14.9953L15.2391 15.0094C14.0484 15.0234 13.9688 15.0281 13.8469 15.1219C13.7766 15.1734 13.6734 15.2766 13.6219 15.3469C13.5234 15.4734 13.5234 15.5063 13.5234 19.5C13.5234 23.4938 13.5234 23.5266 13.6219 23.6531C13.6734 23.7234 13.7766 23.8266 13.8469 23.8781C13.9734 23.9766 14.0016 23.9766 18.75 23.9766C23.4984 23.9766 23.5266 23.9766 23.6531 23.8781C23.7234 23.8266 23.8266 23.7234 23.8781 23.6531C23.9766 23.5266 23.9766 23.5078 23.9766 18C23.9766 12.4922 23.9766 12.4734 23.8781 12.3469C23.8266 12.2766 23.7234 12.1734 23.6531 12.1219C23.5266 12.0234 23.475 12.0234 20.3063 12.0141C17.6953 12.0047 17.0578 12.0141 16.9453 12.0656ZM22.5 18V22.5H21.7547H21.0094L20.9906 21.9891C20.9766 21.4359 20.9344 21.3281 20.6531 21.1219C20.4703 20.9859 20.0297 20.9859 19.8469 21.1219C19.5656 21.3281 19.5234 21.4359 19.5094 21.9891L19.4906 22.5H18.7453H18V18V13.5H20.25H22.5V18ZM16.5 19.5V22.5H15.75H15V19.5V16.5H15.75H16.5V19.5Z" fill="#888888" fill-opacity="0.6"/>
<path d="M19.9453 15.0658C19.4719 15.2721 19.3594 15.9002 19.7297 16.2705C20.0344 16.5752 20.4656 16.5752 20.7703 16.2705C21.3515 15.6893 20.7 14.7377 19.9453 15.0658Z" fill="#888888" fill-opacity="0.6"/>
<path d="M19.9453 18.0658C19.4719 18.2721 19.3594 18.9002 19.7297 19.2705C20.0344 19.5752 20.4656 19.5752 20.7703 19.2705C21.3515 18.6893 20.7 17.7377 19.9453 18.0658Z" fill="#888888" fill-opacity="0.6"/>
<path d="M3.44533 13.5658C3.25314 13.6502 3.05626 13.8892 3.02345 14.0767C3.00939 14.1611 3.00001 15.6424 3.00939 17.3767C3.02345 20.4705 3.02345 20.5267 3.12189 20.6533C3.17345 20.7236 3.27658 20.8267 3.34689 20.8783C3.47345 20.9767 3.5297 20.9767 6.4547 20.9908L9.43126 21.0002L9.24376 21.2064C8.92501 21.5533 8.92033 21.9611 9.2297 22.2705C9.42189 22.4627 9.6422 22.5283 9.92814 22.4767C10.0735 22.4533 10.2422 22.308 11.025 21.5252C12.3422 20.208 12.3422 20.2924 11.025 18.9752C10.2422 18.1924 10.0735 18.047 9.92814 18.0236C9.6422 17.972 9.42189 18.0377 9.2297 18.2299C8.92033 18.5392 8.92501 18.947 9.24376 19.2939L9.43595 19.5002H6.97033H4.50001L4.49064 16.7392C4.47658 14.0299 4.47658 13.9736 4.37814 13.847C4.32658 13.7767 4.22814 13.6736 4.16251 13.6267C4.00783 13.5095 3.63283 13.4767 3.44533 13.5658Z" fill="#888888" fill-opacity="0.6"/>
</svg>
