<svg width="22" height="24" viewBox="0 0 22 24" fill="none" xmlns="http://www.w3.org/2000/svg">
<path d="M4.78905 0.0938911C4.31093 0.281391 4.28749 0.318892 2.41718 3.56264C1.45624 5.2267 0.645301 6.67983 0.612489 6.79233C0.556239 6.96576 0.546864 8.34389 0.546864 14.7376C0.546864 23.3158 0.528114 22.7814 0.851551 23.2736C0.945301 23.4142 1.12343 23.5923 1.26405 23.6861C1.76093 24.0236 1.02968 24.0001 11 24.0001C20.9703 24.0001 20.239 24.0236 20.7359 23.6861C20.8765 23.5923 21.0547 23.4142 21.1484 23.2736C21.4719 22.7814 21.4531 23.3205 21.4531 14.6626V6.8392L21.3547 6.64233C21.2984 6.53452 20.4828 5.1142 19.5453 3.49233C17.7078 0.309517 17.6891 0.276705 17.1969 0.0938911C16.9531 0.000141144 16.8265 0.000141144 10.9859 0.00482941C5.20155 0.00482941 5.01405 0.00951767 4.78905 0.0938911ZM10.2969 3.67983V5.95327H6.4953C3.10155 5.95327 2.69374 5.94389 2.72186 5.88295C2.7453 5.82202 4.15624 3.35639 5.00936 1.88452L5.29061 1.40639H7.79374H10.2969V3.67983ZM18.0031 3.63295C18.7015 4.84233 19.2922 5.8642 19.3109 5.89233C19.3437 5.9392 18.5797 5.95327 15.5516 5.95327H11.75V3.67983V1.40639L14.2391 1.41577L16.7281 1.42983L18.0031 3.63295ZM20.0469 14.8923C20.0469 21.8345 20.0422 22.4298 19.9672 22.5095C19.8969 22.5892 19.5547 22.5939 11.0094 22.5939C2.80624 22.5939 2.11718 22.5892 2.03749 22.5142C1.9578 22.4439 1.95311 22.1439 1.95311 14.897V7.35952H11H20.0469V14.8923Z" fill="#888888" fill-opacity="0.6"/>
<path d="M17.2322 0.000347137C17.3552 0.0460148 17.4619 0.086834 17.5749 0.17588C17.6864 0.263702 17.7991 0.394171 17.9489 0.611324C18.2468 1.04313 18.7116 1.84829 19.6232 3.42723L19.6319 3.44228C20.5683 5.06228 21.3858 6.48573 21.4433 6.59607L21.4441 6.59761L21.5426 6.79448L21.5531 6.8156V6.8392V14.6626C21.5531 15.1391 21.5532 15.5878 21.5532 16.0103C21.5537 19.4251 21.5539 21.1338 21.522 22.0338C21.5042 22.5373 21.4762 22.7981 21.4287 22.9653C21.3897 23.1024 21.3353 23.1798 21.2779 23.2616C21.2627 23.2832 21.2474 23.3051 21.232 23.3285L21.2316 23.329C21.1306 23.4807 20.943 23.6682 20.7914 23.7693L20.7359 23.6861L20.7921 23.7688C20.7664 23.7863 20.7427 23.8042 20.7191 23.822C20.644 23.8787 20.5699 23.9347 20.4348 23.9736C20.2639 24.0229 19.9848 24.0515 19.4237 24.0696C18.4432 24.1013 16.5672 24.101 12.8186 24.1003C12.2557 24.1002 11.6506 24.1001 11 24.1001C10.3494 24.1001 9.74426 24.1002 9.18138 24.1003C5.43279 24.101 3.55674 24.1013 2.57626 24.0696C2.01522 24.0515 1.73611 24.0229 1.56515 23.9736C1.43008 23.9347 1.35597 23.8787 1.28088 23.822C1.25738 23.8042 1.23379 23.7864 1.2082 23.769C1.05666 23.6679 0.869336 23.4805 0.768346 23.329L0.768344 23.329L0.767981 23.3285C0.752608 23.3051 0.737222 23.2832 0.72205 23.2616C0.664629 23.1798 0.610273 23.1023 0.571336 22.9659C0.523823 22.7995 0.49582 22.5406 0.477982 22.0414C0.446101 21.1493 0.446318 19.4563 0.446753 16.0729C0.446807 15.6543 0.446864 15.2098 0.446864 14.7376C0.446864 11.5409 0.449207 9.59748 0.458586 8.43156C0.463274 7.84875 0.469726 7.45929 0.478564 7.20436C0.48298 7.077 0.488029 6.98206 0.493874 6.91286C0.499387 6.84759 0.506165 6.79675 0.516965 6.76273C0.521491 6.74784 0.529391 6.72992 0.53686 6.71379C0.545526 6.69507 0.556967 6.67173 0.570809 6.64437C0.598543 6.58954 0.63711 6.51622 0.68509 6.42691C0.781119 6.24816 0.915893 6.00343 1.07948 5.71056C1.40672 5.1247 1.84993 4.34498 2.33058 3.51263C3.26437 1.89313 3.74042 1.06811 4.04261 0.625763C4.194 0.404156 4.30664 0.271091 4.4165 0.181377C4.52835 0.0900402 4.63252 0.047863 4.75254 0.00078392L4.75394 0.000257492L16.1916 -0.0875435C16.9782 -0.0764904 17.0908 -0.0540047 17.2322 0.000347137ZM17.2322 0.000347137C17.2324 0.000417709 17.2326 0.000486374 17.2328 0.000556946L17.1969 0.0938911L17.2317 0.000148773C17.2319 0.00021553 17.232 0.00028038 17.2322 0.000347137ZM2.86765 5.82351C2.85499 5.82245 2.84351 5.82135 2.83311 5.82023C2.8129 5.81804 2.79814 5.81587 2.78764 5.81385C2.77649 5.81172 2.77312 5.81032 2.77415 5.81074C2.77485 5.81101 2.77859 5.81255 2.78374 5.81605C2.78881 5.81949 2.79766 5.82648 2.8056 5.83843C2.8246 5.86701 2.82276 5.89796 2.81514 5.91883C2.80747 5.91795 2.80035 5.91706 2.79375 5.91613C2.73059 5.90727 2.71568 5.89636 2.72186 5.88295L2.86765 5.82351ZM2.86765 5.82351C2.87134 5.81688 2.87519 5.80996 2.87921 5.80276C2.92154 5.72692 2.98178 5.62008 3.0562 5.48878C3.20501 5.22623 3.41016 4.86645 3.64128 4.4625C4.10345 3.65472 4.66928 2.67068 5.0957 1.93498C5.09576 1.93487 5.09582 1.93477 5.09588 1.93466L5.34781 1.50639H7.79374H10.1969V3.67983V5.85327H6.4953C4.79802 5.85327 3.84876 5.85092 3.32728 5.84098C3.09862 5.83662 2.95512 5.83084 2.86765 5.82351ZM11.85 5.85327V5.95327H15.5516C17.9362 5.95327 18.9168 5.94454 19.2098 5.91794L11.75 3.67983V5.85327H11.85ZM11.85 5.85327V3.67983V1.50677M11.85 5.85327H15.5516C17.0658 5.85327 18.013 5.84975 18.5774 5.84039C18.8579 5.83574 19.042 5.82967 19.1537 5.82204C18.9715 5.50922 18.4773 4.65402 17.9166 3.68304L11.85 1.50677M11.85 1.50677L14.2385 1.51577H14.2387L16.6703 1.5295L17.9165 3.68296L11.85 1.50677ZM10.9858 -0.095171C10.9859 -0.095171 10.9859 -0.095171 10.9859 -0.095171V0.00482941L10.9858 -0.095171ZM19.2631 5.81121C19.2915 5.85995 19.308 5.88799 19.3109 5.89233C19.3146 5.89754 19.3084 5.90235 19.2903 5.90678C19.2898 5.90691 19.2892 5.90704 19.2887 5.90716C19.2729 5.91088 19.2486 5.91432 19.2146 5.9175C19.2104 5.90031 19.2104 5.87993 19.2191 5.85863C19.2308 5.83013 19.2518 5.81742 19.2565 5.81464C19.259 5.81318 19.2612 5.81206 19.2631 5.81121ZM19.8895 22.4387C19.8901 22.4386 19.8906 22.4385 19.891 22.4383C19.8919 22.4348 19.8929 22.4304 19.894 22.4249C19.9 22.3941 19.906 22.3424 19.9115 22.2557C19.9223 22.0832 19.9299 21.7868 19.9351 21.2733C19.9457 20.2474 19.9469 18.3637 19.9469 14.8923V7.45952H11H2.05311V14.897C2.05311 18.5208 2.05429 20.4068 2.06541 21.3957C2.07098 21.891 2.07904 22.1583 2.09039 22.3058C2.09599 22.3785 2.10205 22.4166 2.10724 22.4368C2.11194 22.4379 2.11821 22.4392 2.12637 22.4406C2.16286 22.4469 2.22357 22.453 2.32478 22.4584C2.52619 22.4693 2.874 22.4769 3.47801 22.4822C4.68507 22.4927 6.90754 22.4939 11.0094 22.4939C15.2823 22.4939 17.5035 22.4927 18.6654 22.4816C19.2471 22.476 19.5607 22.468 19.7329 22.4565C19.8199 22.4508 19.8654 22.4444 19.8895 22.4387Z" stroke="#888888" stroke-opacity="0.6" stroke-width="0.2"/>
<path d="M13.3906 12.5202C13.325 12.5437 12.5468 13.2937 11.6562 14.1843L10.039 15.7968L9.40622 15.1593C9.05935 14.8124 8.71716 14.4937 8.64685 14.4562C8.35154 14.3015 7.94841 14.428 7.7656 14.728C7.6531 14.9108 7.64372 15.2296 7.73747 15.4124C7.82185 15.5624 9.62185 17.3577 9.76716 17.4327C9.89372 17.4983 10.1562 17.4983 10.3297 17.4327C10.4797 17.3765 14.2062 13.6827 14.3093 13.4905C14.3468 13.4202 14.375 13.2655 14.375 13.1483C14.375 12.7546 14.1406 12.5062 13.7468 12.4827C13.6156 12.478 13.4562 12.4921 13.3906 12.5202Z" fill="#888888" fill-opacity="0.6"/>
<path d="M9.4772 15.0888L9.47694 15.0886C9.30281 14.9144 9.12963 14.7471 8.99083 14.6184C8.9215 14.5541 8.86022 14.4989 8.81143 14.4571C8.76628 14.4184 8.72306 14.3835 8.69391 14.3679L8.69325 14.3676L8.69325 14.3676C8.34647 14.1859 7.88767 14.3357 7.68031 14.6758C7.61247 14.7862 7.57937 14.9298 7.57426 15.0665C7.56915 15.2031 7.59149 15.3469 7.64849 15.458L7.65025 15.4615L7.65032 15.4614C7.66073 15.4799 7.67853 15.5024 7.69578 15.523C7.71487 15.5459 7.73961 15.5741 7.76882 15.6063C7.82734 15.671 7.9059 15.7545 7.99762 15.8501C8.18118 16.0413 8.41919 16.2827 8.65889 16.5215C8.89857 16.7603 9.14042 16.997 9.33166 17.179C9.42722 17.2698 9.51064 17.3475 9.57505 17.4051C9.6072 17.4338 9.63526 17.4581 9.65809 17.4768C9.67819 17.4932 9.70144 17.5113 9.72121 17.5215C9.80506 17.565 9.92085 17.5819 10.0308 17.5819C10.143 17.5819 10.2645 17.5643 10.3651 17.5262L9.4772 15.0888ZM9.4772 15.0888L10.0394 15.6552L11.5855 14.1136M9.4772 15.0888L11.5855 14.1136M11.5855 14.1136C12.0311 13.668 12.4488 13.2573 12.7635 12.9549M11.5855 14.1136L12.7635 12.9549M12.7635 12.9549C12.9208 12.8038 13.0528 12.6793 13.1498 12.5909M12.7635 12.9549L13.1498 12.5909M13.1498 12.5909C13.1983 12.5468 13.2387 12.511 13.2696 12.4852M13.1498 12.5909L13.2696 12.4852M13.2696 12.4852C13.285 12.4724 13.2989 12.4612 13.3109 12.4524M13.2696 12.4852L13.3109 12.4524M13.3109 12.4524L13.3109 12.4524M13.3109 12.4524L13.3109 12.4524M13.3109 12.4524C13.3185 12.4468 13.3345 12.435 13.3527 12.4276L13.3109 12.4524Z" stroke="#888888" stroke-opacity="0.6" stroke-width="0.2"/>
</svg>
