<svg width="24" height="24" viewBox="0 0 24 24" fill="none" xmlns="http://www.w3.org/2000/svg">
<g clip-path="url(#clip0_164_90)">
<path d="M17.4054 12.0817L15.8947 12.2573C15.8775 12.2671 15.8603 12.2771 15.8431 12.2873C15.6245 12.4138 15.3724 12.5092 15.1025 12.5694L19.0413 12.6735C18.812 12.6556 18.587 12.6112 18.3738 12.5419L18.3584 12.537C18.1745 12.4795 17.997 12.4005 17.827 12.3005C17.6939 12.2188 17.5619 12.1518 17.4413 12.0974C17.4294 12.092 17.4174 12.0868 17.4054 12.0817Z" fill="#4F5052"/>
<path fill-rule="evenodd" clip-rule="evenodd" d="M22.4107 11.5L22.398 17.2496L22.3849 20.8172C22.3842 21.0194 22.3396 21.2191 22.2543 21.4025L22.1531 21.6201L22.1511 21.6244C21.8834 22.2063 21.416 22.6737 20.8342 22.9414L20.8297 22.9434L20.6121 23.0447C20.4292 23.1297 20.2301 23.1743 20.0284 23.1753L14.5774 23.2015L9.42482 23.2014L3.98056 23.1753C3.77886 23.1743 3.57975 23.1297 3.39686 23.0447L3.17485 22.9414C2.5985 22.6762 2.12556 22.2118 1.85533 21.6246L1.75204 21.4025C1.66675 21.2191 1.6222 21.0194 1.62146 20.8172L1.60836 17.2465L1.59998 11.5354L3.71454 12.4628C4.00043 12.5882 4.40641 12.6721 4.82486 12.6721C5.0207 12.6721 5.19481 12.6536 5.33742 12.6227C5.34862 12.6203 5.35985 12.618 5.3711 12.6158C5.37531 12.6148 5.38335 12.6128 5.39594 12.6095L5.40627 12.6067C5.69409 12.5323 6.06843 12.3712 6.17518 12.3039L6.19704 12.2904C6.2597 12.2526 6.34498 12.2021 6.43023 12.1576C6.4712 12.1362 6.53635 12.1034 6.61277 12.0726L6.61603 12.0712C6.64946 12.0572 6.88083 11.9602 7.17532 11.9602C7.45415 11.9602 7.67844 12.0485 7.70177 12.0576L7.70357 12.0583C7.77613 12.0853 7.84013 12.1144 7.88549 12.1361C7.97987 12.1811 8.077 12.234 8.16343 12.2844L8.1653 12.2855C8.98482 12.7653 10.2055 12.7653 11.025 12.2855L11.0269 12.2844C11.1142 12.2335 11.2063 12.1836 11.2906 12.1423C11.3308 12.1226 11.3854 12.0969 11.4454 12.0726C11.4742 12.061 11.5229 12.0421 11.5826 12.0239L11.5857 12.0229C11.6169 12.0132 11.7873 11.9602 12.0045 11.9602C12.2198 11.9602 12.389 12.0124 12.419 12.0216L12.422 12.0225C12.4808 12.0402 12.5289 12.0586 12.5575 12.07C12.6173 12.0938 12.6721 12.1192 12.7132 12.1391C12.7991 12.1807 12.8939 12.2314 12.9847 12.2844C13.1636 12.3887 13.3579 12.4711 13.5605 12.5286C13.6395 12.5509 13.7217 12.5702 13.8068 12.5862L13.8132 12.5874C14.2474 12.6709 14.6952 12.6602 15.1025 12.5694L19.0413 12.6735C19.4157 12.7008 19.9695 12.6055 20.2867 12.4688L22.4107 11.5ZM15.8947 12.2573L17.4054 12.0817C17.2882 12.0327 17.1649 11.9999 17.0387 11.9841L17.037 11.9839C17.0214 11.9818 16.9186 11.9681 16.8023 11.9681C16.6144 11.9681 16.4284 12.0059 16.2555 12.0792C16.1366 12.1297 16.0152 12.1886 15.8947 12.2573ZM3.12615 21.0371C3.2544 21.3172 3.48212 21.5423 3.76218 21.6706L3.98728 21.7753L9.43156 21.8014H14.5774L20.0217 21.7753L20.2468 21.6706C20.5269 21.5423 20.752 21.3172 20.8802 21.0371L20.9849 20.8121L20.998 17.2445L21.0059 13.6795L20.8567 13.7476C20.5085 13.9002 20.0491 14.0102 19.605 14.0553C19.5182 14.0641 19.432 14.0705 19.3473 14.0742C19.2041 14.0805 19.0653 14.0792 18.9355 14.0695C18.6075 14.0441 18.282 13.9816 17.9686 13.8821L17.9408 13.8732C17.6477 13.7816 17.3676 13.656 17.1033 13.4989C17.0274 13.4518 16.9462 13.4099 16.8651 13.3733C16.8441 13.3707 16.8232 13.3681 16.8023 13.3681C16.7159 13.4047 16.6321 13.4466 16.5536 13.4937C15.682 14.0015 14.5696 14.1585 13.5488 13.9622C13.4231 13.9387 13.3001 13.9099 13.1797 13.8758C12.8656 13.7868 12.562 13.6586 12.2793 13.4937C12.1537 13.4204 12.0281 13.3602 12.0045 13.3602C11.9809 13.3602 11.8579 13.4204 11.7323 13.4937C10.4759 14.2292 8.71438 14.2292 7.45801 13.4937C7.33237 13.4204 7.20935 13.3602 7.17532 13.3602C7.1413 13.3602 7.03398 13.4204 6.92143 13.4885C6.65969 13.6534 6.14143 13.8628 5.75667 13.9622C5.71741 13.9727 5.67553 13.9832 5.63365 13.991C5.37976 14.046 5.10493 14.0721 4.82486 14.0721C4.68506 14.0721 4.54404 14.0656 4.40368 14.0527C3.96062 14.0121 3.52402 13.908 3.15232 13.745L3.00313 13.6795L3.00836 17.2445L3.02145 20.8121L3.12615 21.0371Z" fill="#4F5052"/>
<path fill-rule="evenodd" clip-rule="evenodd" d="M20.94 4.25069C20.9924 4.36324 21.2907 5.45472 21.6441 6.86551C22.233 9.21336 22.2514 9.29711 22.2226 9.60074C22.11 11.1712 20.8903 12.4433 19.3983 12.548C18.6595 12.6031 17.9486 12.3776 17.3626 11.9138C17.2531 11.8272 17.148 11.7323 17.0479 11.6293L16.7731 11.3466L16.5061 11.624C16.4118 11.7208 16.3137 11.81 16.2124 11.8916C15.6727 12.3267 15.042 12.5474 14.4095 12.5584C13.7407 12.5674 13.0719 12.3412 12.506 11.88C12.4097 11.8015 12.3164 11.7161 12.2266 11.624L11.9517 11.3466L11.6847 11.624C11.6104 11.7003 11.5336 11.7719 11.4548 11.8388C10.3691 12.7603 8.884 12.7968 7.77026 11.9484C7.64339 11.8518 7.52133 11.7436 7.40524 11.624L7.13302 11.3466L6.86604 11.6293C6.85343 11.6424 6.84069 11.6555 6.82785 11.6685C6.74389 11.7532 6.65516 11.8327 6.56221 11.9066C6.28946 12.1236 5.98038 12.2931 5.64881 12.4066C5.64687 12.4072 5.64494 12.4079 5.643 12.4086C5.63818 12.4102 5.63335 12.4118 5.62852 12.4134C5.62773 12.4137 5.62694 12.414 5.62615 12.4142C5.62589 12.4143 5.62641 12.4141 5.62615 12.4142L5.63323 12.3988C5.63061 12.4014 5.62799 12.4066 5.62538 12.4119C5.62512 12.412 5.62564 12.4118 5.62538 12.4119C5.62459 12.4121 5.62301 12.4126 5.62221 12.4129C5.26456 12.5299 4.88615 12.5767 4.51035 12.548C4.41539 12.5415 4.32151 12.5302 4.22894 12.5144C2.86966 12.2821 1.79151 11.0711 1.68613 9.60074C1.66258 9.2998 1.6835 9.21601 2.26941 6.86979L2.26982 6.86813C2.62579 5.45995 2.92156 4.36586 2.97391 4.25331C3.13619 3.94969 3.41102 3.72197 3.74082 3.62251C3.86908 3.58325 5.57303 3.57278 12.0172 3.57801L20.1338 3.58586L20.3171 3.66962C20.571 3.78479 20.8248 4.02298 20.94 4.25069ZM20.8954 2.39466C20.8961 2.39498 20.8968 2.3953 20.8975 2.39562C21.4176 2.63217 21.9195 3.08524 22.1893 3.61886C22.1963 3.63255 22.203 3.64636 22.2094 3.66027C22.2749 3.80097 22.3335 4.00299 22.3616 4.09987C22.3634 4.10588 22.365 4.11149 22.3665 4.11665C22.4109 4.26906 22.4668 4.46979 22.5306 4.70572C22.6586 5.17903 22.8238 5.81324 23.0022 6.52537C23.0022 6.52553 23.0021 6.52521 23.0022 6.52537M23.0022 6.52537C23.2925 7.68287 23.4531 8.32484 23.5346 8.70975C23.628 9.15076 23.647 9.39419 23.6178 9.7166C23.4524 11.9194 21.7332 13.7859 19.4996 13.9443C18.5124 14.0173 17.5677 13.7511 16.7733 13.2158C16.0667 13.6909 15.2585 13.9439 14.4339 13.9582L14.4282 13.9583C13.5554 13.97 12.6985 13.7135 11.9559 13.2133C10.4853 14.2045 8.60941 14.2076 7.13874 13.2178C6.80785 13.4393 6.44774 13.6161 6.0681 13.7426C6.03356 13.7542 5.99881 13.7643 5.96389 13.773C5.4635 13.9241 4.93602 13.9839 4.40913 13.9443C2.17249 13.7881 0.450285 11.9111 0.290039 9.70533C0.265146 9.3824 0.286744 9.14469 0.380466 8.70814C0.460934 8.33332 0.616814 7.70911 0.89668 6.58841L0.912511 6.52502C1.09175 5.81598 1.25659 5.18302 1.38398 4.71045C1.44748 4.47493 1.50301 4.27426 1.54711 4.12197C1.54865 4.11662 1.55034 4.11077 1.55216 4.10446C1.5799 4.00823 1.63857 3.80463 1.7045 3.66289C1.71543 3.6394 1.727 3.61623 1.73921 3.59338C2.07416 2.96669 2.64505 2.4907 3.33658 2.28214C3.47773 2.2396 3.60423 2.2266 3.63338 2.22361C3.63474 2.22347 3.63589 2.22335 3.63682 2.22325C3.69013 2.21761 3.74354 2.21396 3.79005 2.21133C3.88484 2.20598 4.00534 2.20196 4.14963 2.19863C4.44113 2.19191 4.87785 2.18704 5.50283 2.1836C6.75549 2.1767 8.79687 2.1754 12.0183 2.17801L20.1352 2.18586C20.3356 2.18606 20.5336 2.22928 20.7159 2.3126L20.8954 2.39466" fill="#4F5052"/>
<path d="M8.1154 17.8893L16.6666 15.9327C17.044 15.8472 17.3836 15.6334 17.6251 15.3316C17.8667 15.0298 18 14.6526 18 14.2653V13.9962C18 13.7422 17.9447 13.4933 17.834 13.2619C17.7258 13.033 17.5673 12.8293 17.371 12.6709C17.1748 12.5099 16.9434 12.3968 16.6968 12.3339C16.4503 12.2736 16.1937 12.2685 15.9446 12.3188L7.733 13.9811C7.50406 14.0289 7.26758 14.0264 7.03612 13.9786C6.80719 13.9309 6.59083 13.8353 6.39963 13.6995C6.20842 13.5637 6.04741 13.3902 5.92665 13.1915C5.8059 12.9903 5.72539 12.769 5.6952 12.5376L5.69017 12.4923C5.6323 12.0623 5.73797 11.6247 5.98955 11.2701C6.24113 10.9155 6.6185 10.6691 7.04367 10.5836L16.6968 8.61442C17.0515 8.54149 17.2729 8.98662 17.0012 9.22553L7.80344 17.2807C7.52671 17.5221 7.75816 17.9697 8.1154 17.8893Z" fill="#4F5052"/>
<path fill-rule="evenodd" clip-rule="evenodd" d="M8.33516 18.8648C6.996 19.1665 6.0644 17.4722 7.14512 16.5279C7.14542 16.5276 7.14573 16.5274 7.14604 16.5271L9.23543 14.6973L7.934 14.9607C7.5636 15.0375 7.18965 15.0314 6.83393 14.958L6.8318 14.9575C6.46496 14.881 6.1215 14.7285 5.82055 14.5148C5.51789 14.2998 5.2633 14.0254 5.07212 13.7109L5.06923 13.7061C4.88291 13.3957 4.75282 13.0443 4.7036 12.667L4.70237 12.6576L4.69741 12.613C4.60998 11.9393 4.77644 11.2518 5.17396 10.6915C5.57141 10.1313 6.16851 9.73994 6.845 9.60349C6.8455 9.60339 6.846 9.60329 6.8465 9.60319L16.4954 7.6349C16.4957 7.63484 16.4951 7.63497 16.4954 7.6349C17.8551 7.35621 18.7029 9.06085 17.6616 9.9765L17.6601 9.97782L16.1648 11.2873C16.4228 11.2757 16.6819 11.3007 16.9346 11.3626L16.9439 11.3649C17.3216 11.4612 17.6863 11.6369 18.0023 11.8953C18.3168 12.15 18.5668 12.473 18.737 12.8324C18.9125 13.2 19 13.5959 19 13.9962V14.2653C19 14.8812 18.7884 15.4785 18.4059 15.9565C18.0241 16.4335 17.4882 16.7716 16.8888 16.9077C16.8884 16.9078 16.888 16.9079 16.8876 16.908L8.33516 18.8648ZM16.6666 15.9327C17.044 15.8472 17.3836 15.6334 17.6251 15.3316C17.8667 15.0298 18 14.6526 18 14.2653V13.9962C18 13.7422 17.9446 13.4933 17.834 13.2619C17.7258 13.033 17.5673 12.8293 17.371 12.6709C17.1748 12.5099 16.9434 12.3968 16.6968 12.3339C16.4503 12.2736 16.1936 12.2685 15.9446 12.3188L12.7249 12.9706L17.0012 9.22553C17.2729 8.98662 17.0515 8.54149 16.6968 8.61442L7.04366 10.5836C6.61849 10.6691 6.24112 10.9155 5.98954 11.2701C5.73796 11.6247 5.6323 12.0623 5.69016 12.4923L5.69519 12.5376C5.72538 12.769 5.80589 12.9903 5.92665 13.1915C6.04741 13.3902 6.20842 13.5637 6.39962 13.6995C6.59082 13.8353 6.80718 13.9308 7.03612 13.9786C7.26757 14.0264 7.50406 14.0289 7.73299 13.9811L12.7249 12.9706L7.80344 17.2807C7.5267 17.5221 7.75815 17.9697 8.1154 17.8892L16.6666 15.9327ZM8.46083 18.0342L8.46227 18.0329L8.46083 18.0342Z" fill="white"/>
<path d="M16.3916 7.705C17.0859 7.705 17.6469 7.14419 17.6469 6.4526C17.6469 5.76101 17.0859 5.2002 16.3916 5.2002C15.6972 5.2002 15.1362 5.76101 15.1362 6.4526C15.1362 7.14419 15.6997 7.705 16.3916 7.705Z" fill="#4F5052"/>
</g>
<defs>
<clipPath id="clip0_164_90">
<rect width="24" height="24" fill="white"/>
</clipPath>
</defs>
</svg>
