<svg width="52" height="52" viewBox="0 0 52 52" fill="none" xmlns="http://www.w3.org/2000/svg">
<rect width="52" height="52" rx="26" fill="white"/>
<path d="M16.5889 41.5754L38.2303 36.6246C39.1875 36.4059 40.0419 35.8694 40.654 35.1029C41.266 34.3363 41.5996 33.385 41.6 32.4046V31.7205C41.6002 31.0783 41.4575 30.4443 41.1821 29.8641C40.9067 29.2839 40.5056 28.7721 40.0077 28.3657C39.5099 27.9594 38.9278 27.6687 38.3037 27.5146C37.6795 27.3605 37.0288 27.347 36.3987 27.4749L15.6159 31.685C15.0346 31.8027 14.4353 31.8003 13.8551 31.6777C13.2748 31.555 12.7258 31.3149 12.2422 30.972C11.7586 30.6292 11.3505 30.1909 11.0433 29.6844C10.7359 29.1777 10.536 28.6137 10.4556 28.0268L10.44 27.9102C10.2908 26.8206 10.5621 25.7151 11.199 24.818C11.8359 23.9208 12.7908 23.2992 13.8697 23.0793L38.3015 18.0929C39.199 17.9098 39.7584 19.0347 39.07 19.6388L15.8005 40.035C15.0986 40.6459 15.6848 41.782 16.5889 41.5754Z" fill="#10BAB2"/>
<path d="M37.2517 16.7458C39.0065 16.7458 40.429 15.3253 40.429 13.5729C40.429 11.8207 39.0065 10.4001 37.2517 10.4001C35.4969 10.4001 34.0745 11.8207 34.0745 13.5729C34.0745 15.3253 35.4969 16.7458 37.2517 16.7458Z" fill="#10BAB2"/>
</svg>
