<svg width="83" height="80" viewBox="0 0 83 80" fill="none" xmlns="http://www.w3.org/2000/svg">
<g clip-path="url(#clip0_226_166)">
<path d="M65.6473 30.9502L36.0124 15.6911C34.827 15.0808 33.4043 14.9314 32.0325 15.3707L14.5737 20.9613C11.8302 21.8398 10.3043 24.8033 11.1828 27.5468L16.7734 45.0056C17.2127 46.3773 18.1607 47.4487 19.3791 48.076L49.014 63.3351C50.1994 63.9454 51.6221 64.0948 52.9939 63.6555C54.3656 63.2163 55.437 62.2683 56.0394 61.0579L67.9075 38.0085C68.5428 36.8152 68.6922 35.3924 68.2529 34.0206C67.8137 32.6489 66.8327 31.5606 65.6473 30.9502Z" fill="#FFCD1D"/>
<path d="M40.119 37.4285L39.8829 37.8832C39.5581 38.5085 39.1854 39.027 38.7647 39.4388C38.3439 39.8505 37.8915 40.152 37.4073 40.3432C36.9269 40.5364 36.4281 40.6166 35.9111 40.5838C35.396 40.5473 34.8827 40.3962 34.3711 40.1305C33.8634 39.8668 33.4464 39.5348 33.1202 39.1344C32.7998 38.7323 32.5767 38.2772 32.4508 37.7692C32.3249 37.2612 32.3056 36.7147 32.3929 36.1297C32.4839 35.5467 32.6918 34.9426 33.0165 34.3174L33.2527 33.8626C33.5774 33.2374 33.951 32.7218 34.3736 32.3157C34.7981 31.9059 35.2525 31.6054 35.7367 31.4142C36.2266 31.2212 36.7273 31.142 37.2385 31.1766C37.7556 31.2093 38.268 31.3576 38.7758 31.6213C39.2873 31.8869 39.7052 32.2218 40.0294 32.626C40.3556 33.0263 40.5787 33.4814 40.6988 33.9912C40.8209 34.4973 40.8346 35.0408 40.7397 35.6218C40.6506 36.201 40.4437 36.8033 40.119 37.4285ZM38.4562 37.1423L38.6982 36.6762C38.9383 36.2139 39.1044 35.7829 39.1965 35.3833C39.2943 34.9818 39.318 34.6165 39.2677 34.2872C39.2231 33.9562 39.1073 33.665 38.9202 33.4139C38.735 33.159 38.4852 32.9498 38.1706 32.7865C37.8561 32.6232 37.5432 32.5401 37.232 32.5372C36.9227 32.5305 36.6179 32.6032 36.3177 32.7552C36.0232 32.9054 35.738 33.1349 35.462 33.4439C35.1881 33.7491 34.9311 34.1328 34.691 34.5951L34.4489 35.0612C34.2088 35.5235 34.0418 35.9564 33.9477 36.3598C33.8537 36.7632 33.8299 37.1334 33.8763 37.4702C33.9284 37.8052 34.0452 38.0992 34.2265 38.3522C34.4099 38.6013 34.6588 38.8076 34.9733 38.9709C35.2916 39.1362 35.6054 39.2222 35.9147 39.2289C36.2259 39.2317 36.5298 39.1562 36.8263 39.0022C37.1247 38.8445 37.41 38.6101 37.6821 38.2992C37.9581 37.9902 38.2161 37.6046 38.4562 37.1423Z" fill="white"/>
<path d="M40.9952 43.4262L39.6254 42.7148L43.1263 35.9736C43.3644 35.515 43.6494 35.1747 43.9813 34.9525C44.319 34.7285 44.6902 34.6206 45.0949 34.6287C45.5016 34.6331 45.9248 34.7494 46.3643 34.9776C46.5007 35.0485 46.6303 35.1278 46.7531 35.2156C46.8779 35.2997 46.9939 35.3912 47.1013 35.4903L46.5181 36.5298C46.4522 36.4715 46.3757 36.4149 46.2887 36.3601C46.2055 36.3073 46.1127 36.2543 46.0104 36.2012C45.802 36.0929 45.6013 36.0392 45.4084 36.0401C45.2213 36.0391 45.0495 36.0919 44.8932 36.1983C44.7407 36.3068 44.6083 36.469 44.4962 36.685L40.9952 43.4262ZM45.4567 37.9344L44.9372 38.9348L41.3562 37.0751L41.8758 36.0747L45.4567 37.9344Z" fill="white"/>
<path d="M45.1105 45.5634L43.7406 44.852L47.2415 38.1107C47.4797 37.6522 47.7647 37.3119 48.0966 37.0897C48.4342 36.8657 48.8054 36.7578 49.2101 36.7659C49.6169 36.7702 50.04 36.8865 50.4796 37.1148C50.616 37.1857 50.7456 37.265 50.8684 37.3528C50.9931 37.4368 51.1092 37.5284 51.2165 37.6274L50.6334 38.6669C50.5674 38.6086 50.4909 38.5521 50.4039 38.4973C50.3207 38.4444 50.2279 38.3914 50.1256 38.3383C49.9172 38.2301 49.7166 38.1764 49.5237 38.1773C49.3365 38.1763 49.1648 38.229 49.0085 38.3355C48.8559 38.4439 48.7236 38.6061 48.6114 38.8221L45.1105 45.5634ZM49.5719 40.0715L49.0524 41.0719L45.4715 39.2122L45.991 38.2118L49.5719 40.0715Z" fill="white"/>
<path d="M49.8885 48.1891C49.4338 47.953 49.061 47.6656 48.7702 47.3269C48.4852 46.9864 48.2837 46.6147 48.1657 46.2118C48.0515 45.8109 48.0207 45.3932 48.0732 44.9586C48.1257 44.5239 48.2612 44.0963 48.4796 43.6757L48.5977 43.4483C48.8476 42.9671 49.144 42.5677 49.4869 42.2502C49.8298 41.9327 50.1982 41.7006 50.5919 41.5539C50.9876 41.4034 51.3944 41.3428 51.8122 41.3721C52.23 41.4014 52.6378 41.5194 53.0357 41.726C53.4753 41.9543 53.8215 42.2279 54.0744 42.5469C54.3274 42.8659 54.492 43.216 54.5682 43.5973C54.6503 43.9766 54.6489 44.3777 54.5641 44.8003C54.4831 45.225 54.3275 45.659 54.0972 46.1023L53.7932 46.6878L49.0413 44.22L49.552 43.2367L52.9511 45.0019L53.0071 44.8939C53.1275 44.6437 53.1983 44.3869 53.2195 44.1237C53.2445 43.8625 53.2005 43.6183 53.0875 43.3912C52.9745 43.1641 52.7664 42.9718 52.4633 42.8144C52.2359 42.6963 52.0076 42.6403 51.7783 42.6463C51.5548 42.6506 51.3371 42.7131 51.1252 42.834C50.9132 42.9549 50.7081 43.1274 50.5099 43.3516C50.3174 43.574 50.1385 43.8444 49.9732 44.1627L49.8552 44.3901C49.7154 44.6591 49.6216 44.9279 49.5735 45.1964C49.5312 45.4632 49.5378 45.7192 49.5932 45.9645C49.6487 46.2098 49.7531 46.4348 49.9066 46.6396C50.062 46.8406 50.2705 47.009 50.5319 47.1448C50.8616 47.316 51.1897 47.4022 51.5163 47.4034C51.8428 47.4046 52.1638 47.3331 52.4792 47.189L52.838 48.263C52.605 48.3874 52.3362 48.4835 52.0315 48.5514C51.7287 48.6155 51.3954 48.6228 51.0314 48.5733C50.6711 48.5258 50.2902 48.3977 49.8885 48.1891Z" fill="white"/>
<path d="M57.4387 45.6437L54.8529 50.6229L53.483 49.9115L56.677 43.7614L57.9843 44.4403L57.4387 45.6437ZM59.9489 45.4101L59.2763 46.6774C59.2008 46.6189 59.1158 46.5603 59.0212 46.5016C58.9304 46.4448 58.8376 46.3918 58.7429 46.3426C58.5079 46.2206 58.2837 46.1475 58.0702 46.1232C57.8586 46.0951 57.6598 46.1121 57.4736 46.1742C57.2931 46.2344 57.1254 46.335 56.9705 46.4759C56.8155 46.6167 56.6763 46.7922 56.5528 47.0023L56.2283 46.8627C56.4291 46.4761 56.6529 46.1377 56.8999 45.8474C57.1469 45.5571 57.4111 45.3262 57.6926 45.1549C57.9778 44.9855 58.2724 44.8907 58.5764 44.8705C58.8842 44.8523 59.1915 44.9229 59.4984 45.0823C59.5818 45.1256 59.6669 45.1794 59.7538 45.2438C59.8444 45.3101 59.9095 45.3655 59.9489 45.4101Z" fill="white"/>
<path d="M25.601 33.9294C27.6672 33.2677 28.8058 31.0564 28.1442 28.9902C27.4826 26.924 25.2712 25.7854 23.205 26.447C21.1388 27.1087 20.0002 29.32 20.6619 31.3862C21.3235 33.4524 23.5348 34.591 25.601 33.9294Z" fill="white"/>
</g>
<path d="M0.5 3.5C19.562 -3.1648 23.0262 5.42796 23.5 30.5" stroke="black" stroke-linecap="round"/>
<defs>
<clipPath id="clip0_226_166">
<rect width="62.8527" height="62.8527" fill="white" transform="translate(3 19.1677) rotate(-17.756)"/>
</clipPath>
</defs>
</svg>
