<svg width="24" height="24" viewBox="0 0 24 24" fill="none" xmlns="http://www.w3.org/2000/svg">
<path d="M3.75938 1.3125C3.24845 1.44844 2.88282 1.65938 2.48438 2.0625C2.07657 2.46563 1.87032 2.82656 1.73438 3.35625C1.52813 4.1625 1.71095 5.06719 2.21251 5.72344L2.37657 5.93906L1.99688 6.19219C1.29845 6.65156 0.782821 7.25625 0.412508 8.04375C0.0843832 8.74688 0.0375081 9.01875 0.0140706 10.2938C-0.00936686 11.3719 -0.00467935 11.4281 0.0890706 11.6156C0.154696 11.7469 0.253133 11.8453 0.375008 11.9063C0.553133 12 0.642195 12 4.45313 12C8.26407 12 8.35313 12 8.53126 11.9063C8.65313 11.8453 8.75157 11.7469 8.81719 11.6156C8.91094 11.4281 8.91563 11.3766 8.89219 10.2938C8.87344 9.32813 8.8547 9.10781 8.76563 8.78906C8.46563 7.6875 7.73438 6.69375 6.80157 6.11719L6.52501 5.94375L6.68907 5.72813C7.04063 5.26875 7.26094 4.60313 7.26563 4.00313C7.26563 3.63281 7.12032 3.07031 6.92813 2.70469C6.73126 2.325 6.15938 1.75313 5.7797 1.55625C5.16095 1.23281 4.41563 1.14375 3.75938 1.3125ZM5.08126 2.78438C5.57345 3.02344 5.83595 3.45938 5.83595 4.03125C5.83595 4.42969 5.73751 4.69688 5.48907 4.98281C5.1047 5.41406 4.37813 5.55 3.83438 5.28281C3.08438 4.9125 2.82657 3.97969 3.28126 3.26719C3.65626 2.67656 4.43438 2.47031 5.08126 2.78438ZM5.08595 6.91406C5.94845 7.09219 6.77813 7.73906 7.1672 8.53125C7.41094 9.02813 7.50001 9.44531 7.50001 10.0875V10.5938H4.45313H1.40626V10.0875C1.40626 9.81094 1.43907 9.43594 1.47657 9.25781C1.6547 8.39531 2.30157 7.56563 3.09376 7.17656C3.74532 6.85781 4.40157 6.76875 5.08595 6.91406Z" fill="#08908C"/>
<path d="M18.8531 1.3125C18.3422 1.44844 17.9766 1.65938 17.5781 2.0625C17.1703 2.46563 16.9641 2.82656 16.8281 3.35625C16.6219 4.1625 16.8047 5.06719 17.3063 5.72344L17.4703 5.93906L17.0906 6.19219C16.3922 6.65156 15.8766 7.25625 15.5063 8.04375C15.1781 8.74688 15.1313 9.01875 15.1078 10.2938C15.0844 11.3719 15.0891 11.4281 15.1828 11.6156C15.2484 11.7469 15.3469 11.8453 15.4688 11.9063C15.6469 12 15.7359 12 19.5469 12C23.3578 12 23.4469 12 23.625 11.9063C23.7469 11.8453 23.8453 11.7469 23.9109 11.6156C24.0047 11.4281 24.0094 11.3766 23.9859 10.2938C23.9672 9.32813 23.9484 9.10781 23.8594 8.78906C23.5594 7.6875 22.8281 6.69375 21.8953 6.11719L21.6188 5.94375L21.7828 5.72813C22.1344 5.26875 22.3547 4.60313 22.3594 4.00313C22.3594 3.63281 22.2141 3.07031 22.0219 2.70469C21.825 2.325 21.2531 1.75313 20.8734 1.55625C20.2547 1.23281 19.5094 1.14375 18.8531 1.3125ZM20.175 2.78438C20.6672 3.02344 20.9297 3.45938 20.9297 4.03125C20.9297 4.42969 20.8313 4.69688 20.5828 4.98281C20.1984 5.41406 19.4719 5.55 18.9281 5.28281C18.1781 4.9125 17.9203 3.97969 18.375 3.26719C18.75 2.67656 19.5281 2.47031 20.175 2.78438ZM20.1797 6.91406C20.7328 7.03125 21.2484 7.31719 21.6844 7.75313C22.3266 8.39531 22.5891 9.07969 22.5938 10.0875V10.5938H19.5469H16.5V10.0875C16.5 9.81094 16.5328 9.43594 16.5703 9.25781C16.7484 8.39531 17.3953 7.56563 18.1875 7.17656C18.8391 6.85781 19.4953 6.76875 20.1797 6.91406Z" fill="#08908C"/>
<path d="M4.11562 13.9734C4.00781 14.0297 3.9 14.1375 3.84375 14.25C3.75 14.4281 3.75 14.5172 3.75 18.3281C3.75 22.1391 3.75 22.2281 3.84375 22.4063C3.90469 22.5281 4.00312 22.6266 4.125 22.6875C4.30781 22.7812 4.38281 22.7812 12 22.7812C19.6172 22.7812 19.6922 22.7812 19.875 22.6875C19.9969 22.6266 20.0953 22.5281 20.1562 22.4063C20.2453 22.2281 20.25 22.1344 20.25 19.2563V16.2891L21.0844 17.1188C21.5391 17.5734 21.9797 17.9766 22.0641 18.0188C22.6359 18.3047 23.2734 17.6672 22.9875 17.0953C22.8844 16.8891 20.0812 14.0766 19.8656 13.9641C19.6547 13.8563 19.4531 13.8516 19.2516 13.95C19.0453 14.0531 16.2328 16.8563 16.1203 17.0719C16.0078 17.2969 16.0078 17.4891 16.125 17.7188C16.2891 18.0422 16.7062 18.1781 17.0297 18.0188C17.1141 17.9766 17.5547 17.5734 18.0141 17.1188L18.8437 16.2891V18.8344V21.375H12H5.15625V17.9063C5.15625 14.5172 5.15625 14.4281 5.0625 14.25C4.88906 13.9078 4.46719 13.7859 4.11562 13.9734Z" fill="#08908C"/>
</svg>
