<svg width="24" height="24" viewBox="0 0 24 24" fill="none" xmlns="http://www.w3.org/2000/svg">
<path d="M3.75937 1.3125C3.24844 1.44844 2.88281 1.65938 2.48437 2.0625C2.07656 2.46563 1.87031 2.82656 1.73437 3.35625C1.52812 4.1625 1.71094 5.06719 2.2125 5.72344L2.37656 5.93906L1.99687 6.19219C1.29844 6.65156 0.782812 7.25625 0.4125 8.04375C0.0843746 8.74688 0.0374996 9.01875 0.0140621 10.2938C-0.00937544 11.3719 -0.00468794 11.4281 0.0890621 11.6156C0.154687 11.7469 0.253125 11.8453 0.375 11.9063C0.553125 12 0.642187 12 4.45312 12C8.26406 12 8.35312 12 8.53125 11.9063C8.65312 11.8453 8.75156 11.7469 8.81719 11.6156C8.91094 11.4281 8.91562 11.3766 8.89219 10.2938C8.87344 9.32813 8.85469 9.10781 8.76562 8.78906C8.46562 7.6875 7.73437 6.69375 6.80156 6.11719L6.525 5.94375L6.68906 5.72813C7.04062 5.26875 7.26094 4.60313 7.26562 4.00313C7.26562 3.63281 7.12031 3.07031 6.92812 2.70469C6.73125 2.325 6.15937 1.75313 5.77969 1.55625C5.16094 1.23281 4.41562 1.14375 3.75937 1.3125ZM5.08125 2.78438C5.57344 3.02344 5.83594 3.45938 5.83594 4.03125C5.83594 4.42969 5.7375 4.69688 5.48906 4.98281C5.10469 5.41406 4.37812 5.55 3.83437 5.28281C3.08437 4.9125 2.82656 3.97969 3.28125 3.26719C3.65625 2.67656 4.43437 2.47031 5.08125 2.78438ZM5.08594 6.91406C5.94844 7.09219 6.77812 7.73906 7.16719 8.53125C7.41094 9.02813 7.5 9.44531 7.5 10.0875V10.5938H4.45312H1.40625V10.0875C1.40625 9.81094 1.43906 9.43594 1.47656 9.25781C1.65469 8.39531 2.30156 7.56563 3.09375 7.17656C3.74531 6.85781 4.40156 6.76875 5.08594 6.91406Z" fill="#08908C"/>
<path d="M18.8531 1.3125C18.3422 1.44844 17.9766 1.65938 17.5781 2.0625C17.1703 2.46563 16.9641 2.82656 16.8281 3.35625C16.6219 4.1625 16.8047 5.06719 17.3062 5.72344L17.4703 5.93906L17.0906 6.19219C16.3922 6.65156 15.8766 7.25625 15.5062 8.04375C15.1781 8.74688 15.1312 9.01875 15.1078 10.2938C15.0844 11.3719 15.0891 11.4281 15.1828 11.6156C15.2484 11.7469 15.3469 11.8453 15.4687 11.9063C15.6469 12 15.7359 12 19.5469 12C23.3578 12 23.4469 12 23.625 11.9063C23.7469 11.8453 23.8453 11.7469 23.9109 11.6156C24.0047 11.4281 24.0094 11.3766 23.9859 10.2938C23.9672 9.32813 23.9484 9.10781 23.8594 8.78906C23.5594 7.6875 22.8281 6.69375 21.8953 6.11719L21.6187 5.94375L21.7828 5.72813C22.1344 5.26875 22.3547 4.60313 22.3594 4.00313C22.3594 3.63281 22.2141 3.07031 22.0219 2.70469C21.825 2.325 21.2531 1.75313 20.8734 1.55625C20.2547 1.23281 19.5094 1.14375 18.8531 1.3125ZM20.175 2.78438C20.6672 3.02344 20.9297 3.45938 20.9297 4.03125C20.9297 4.42969 20.8312 4.69688 20.5828 4.98281C20.1984 5.41406 19.4719 5.55 18.9281 5.28281C18.1781 4.9125 17.9203 3.97969 18.375 3.26719C18.75 2.67656 19.5281 2.47031 20.175 2.78438ZM20.1797 6.91406C20.7328 7.03125 21.2484 7.31719 21.6844 7.75313C22.3266 8.39531 22.5891 9.07969 22.5937 10.0875V10.5938H19.5469H16.5V10.0875C16.5 9.81094 16.5328 9.43594 16.5703 9.25781C16.7484 8.39531 17.3953 7.56563 18.1875 7.17656C18.8391 6.85781 19.4953 6.76875 20.1797 6.91406Z" fill="#08908C"/>
<path d="M4.11562 13.9734C4.00781 14.0297 3.9 14.1375 3.84375 14.25C3.75 14.4281 3.75 14.5172 3.75 18.3281C3.75 22.1391 3.75 22.2281 3.84375 22.4063C3.90469 22.5281 4.00312 22.6266 4.125 22.6875C4.30781 22.7812 4.38281 22.7812 12 22.7812C19.6172 22.7812 19.6922 22.7812 19.875 22.6875C19.9969 22.6266 20.0953 22.5281 20.1562 22.4063C20.2453 22.2281 20.25 22.1344 20.25 19.2563V16.2891L21.0844 17.1188C21.5391 17.5734 21.9797 17.9766 22.0641 18.0188C22.6359 18.3047 23.2734 17.6672 22.9875 17.0953C22.8844 16.8891 20.0812 14.0766 19.8656 13.9641C19.6547 13.8563 19.4531 13.8516 19.2516 13.95C19.0453 14.0531 16.2328 16.8563 16.1203 17.0719C16.0078 17.2969 16.0078 17.4891 16.125 17.7188C16.2891 18.0422 16.7062 18.1781 17.0297 18.0188C17.1141 17.9766 17.5547 17.5734 18.0141 17.1188L18.8437 16.2891V18.8344V21.375H12H5.15625V17.9063C5.15625 14.5172 5.15625 14.4281 5.0625 14.25C4.88906 13.9078 4.46719 13.7859 4.11562 13.9734Z" fill="#08908C"/>
</svg>
