<svg width="24" height="24" viewBox="0 0 24 24" fill="none" xmlns="http://www.w3.org/2000/svg">
<g clip-path="url(#clip0_1_4519)">
<path d="M4.90313 16.5187C4.92656 16.3641 4.88438 16.2469 4.62656 15.7266C3.86719 14.1984 3.58125 12.6844 3.75469 11.1187C4.14844 7.51875 6.78281 4.56094 10.2703 3.80156M4.90313 16.5187L5.00245 16.5304C5.00238 16.5309 5.00232 16.5315 5.00225 16.532M4.90313 16.5187L5.002 16.5337C5.00208 16.5332 5.00217 16.5326 5.00225 16.532M4.90313 16.5187C4.86094 16.8797 4.57031 17.1328 4.2 17.1328C3.82031 17.1328 3.68906 17.0016 3.34219 16.3078C2.68125 14.9625 2.36719 13.7578 2.31094 12.3047C2.22656 10.1203 2.94375 7.86562 4.29844 6.05625C4.64531 5.59687 5.49844 4.71094 5.95313 4.34531M5.00225 16.532C5.01648 16.4365 5.00868 16.3522 4.96468 16.2267C4.92242 16.1061 4.84443 15.941 4.71617 15.6822L4.71612 15.6821C3.96455 14.1697 3.68293 12.6748 3.85408 11.1298L3.8541 11.1296C4.24326 7.57159 6.8468 4.64944 10.2914 3.89932M5.00225 16.532C4.95326 16.9442 4.61874 17.2328 4.2 17.2328C3.99509 17.2328 3.83814 17.1963 3.68928 17.0524C3.5513 16.919 3.42481 16.6967 3.25275 16.3525L3.25274 16.3525L3.25243 16.3519C2.58564 14.9947 2.26783 13.7763 2.21101 12.3086L2.21101 12.3085C2.12572 10.1004 2.85046 7.82337 4.21839 5.99632L4.21863 5.99599C4.57026 5.53033 5.42894 4.63854 5.89031 4.2675M10.2914 3.89932C10.2913 3.89934 10.2912 3.89935 10.2911 3.89937L10.2703 3.80156M10.2914 3.89932C11.0064 3.74711 11.6908 3.70469 13.3069 3.71875L14.594 3.73066M10.2914 3.89932C10.2914 3.8993 10.2915 3.89929 10.2916 3.89927L10.2703 3.80156M10.2703 3.80156C10.9969 3.64687 11.6906 3.60469 13.3078 3.61875L14.594 3.73066M14.594 3.73066L14.1919 4.1495L14.1918 4.14963C14.0365 4.312 13.8892 4.47107 13.7769 4.59691C13.7209 4.65976 13.6731 4.71484 13.6373 4.75816C13.6194 4.77977 13.604 4.79908 13.5918 4.81531C13.5814 4.82909 13.5697 4.84553 13.5617 4.86084M14.594 3.73066L13.879 5.85089C13.7109 5.74788 13.5907 5.57961 13.5321 5.40132C13.4739 5.22402 13.473 5.02457 13.5617 4.86084M13.5617 4.86084C13.5613 4.86159 13.5609 4.86234 13.5606 4.86309L13.65 4.90781L13.5622 4.86003C13.562 4.8603 13.5619 4.86057 13.5617 4.86084ZM5.89031 4.2675L5.95313 4.34531M5.89031 4.2675C5.89036 4.26746 5.89041 4.26742 5.89046 4.26738L5.95313 4.34531M5.89031 4.2675C7.06973 3.31544 8.56568 2.6099 10.0209 2.32071M5.95313 4.34531C7.12031 3.40312 8.60156 2.70469 10.0406 2.41875L10.0208 2.32073C10.0208 2.32072 10.0209 2.32072 10.0209 2.32071M10.0209 2.32071C10.8888 2.14524 11.5298 2.10312 13.2609 2.10312H14.5878L14.1647 1.67328L14.1645 1.67314C13.9281 1.432 13.7758 1.26924 13.6796 1.1487C13.5837 1.02849 13.5349 0.939962 13.5188 0.847343C13.4621 0.542463 13.5347 0.282047 13.7449 0.0824203C13.8176 0.0121002 13.8782 -0.0409546 13.9618 -0.069891C14.0413 -0.0974102 14.1335 -0.1 14.2594 -0.1C14.4749 -0.1 14.6177 -0.0705986 14.7519 0.0129299C14.7523 0.0131664 14.7526 0.0133972 14.753 0.0136356L10.0209 2.32071Z" fill="#08908C" stroke="#08908C" stroke-width="0.2"/>
<path d="M20.1145 13.4707L20.1145 13.4709C19.9569 14.2496 19.7301 14.9068 19.3638 15.6348L19.3638 15.6348C18.9558 16.4462 18.5538 17.0145 17.9279 17.6682L20.1145 13.4707ZM20.1145 13.4707C20.2062 13.0215 20.2203 12.8235 20.2203 11.9065C20.2156 10.9942 20.2015 10.7962 20.1147 10.3805C19.957 9.66648 19.6879 8.89648 19.3685 8.25751C19.1503 7.82574 19.0719 7.62164 19.0719 7.43915C19.0719 7.14799 19.2433 6.87484 19.5013 6.74544C19.6102 6.68853 19.7184 6.65654 19.8303 6.65306C19.9422 6.64959 20.0518 6.67482 20.1632 6.72394M20.1145 13.4707L10.5447 18.9365M10.5447 18.9365L10.5449 18.9358C10.6408 18.5842 10.5063 18.2433 10.201 18.0556C10.0735 17.9764 9.90197 17.9454 9.74346 17.9511C9.58622 17.9568 9.42032 17.9995 9.30797 18.0906C9.28602 18.1079 9.23279 18.1584 9.16209 18.227C9.08697 18.2999 8.98586 18.3996 8.86618 18.5187C8.62683 18.7568 8.31255 19.0735 7.98189 19.4112C7.98182 19.4112 7.98175 19.4113 7.98167 19.4114L6.77277 20.6296L6.74375 20.6589V20.7001V20.9485C6.74375 21.0205 6.75139 21.1013 6.76398 21.1737C6.77607 21.2432 6.79457 21.3161 6.82114 21.3659C6.83184 21.386 6.85285 21.4116 6.87196 21.4342C6.89405 21.4603 6.92361 21.4935 6.95938 21.5327C7.03104 21.6112 7.12972 21.7157 7.24804 21.8387C7.4848 22.0849 7.80172 22.4065 8.14194 22.7444C8.67807 23.2782 8.99426 23.5874 9.19597 23.7671C9.39469 23.9442 9.49668 24.0098 9.60269 24.0323L9.60554 24.0329L9.60555 24.0328C10.1913 24.1393 10.6788 23.6313 10.5507 23.055L10.5502 23.0524L10.5501 23.0524C10.5281 22.9641 10.4725 22.8748 10.373 22.755C10.2726 22.634 10.1186 22.4718 9.88669 22.2375L9.88661 22.2375L9.46224 21.8097L11.1621 21.7891L11.1623 21.7891C13.2215 21.761 13.5503 21.7329 14.5422 21.4766L14.5422 21.4766C17.9297 20.6001 20.6567 17.8439 21.5422 14.3968L21.5422 14.3967C21.7646 13.526 21.85 12.8427 21.85 11.9298C21.85 10.3533 21.5276 8.98802 20.8223 7.57267L20.8223 7.57255C20.6797 7.2875 20.5787 7.10238 20.4831 6.97669C20.3834 6.84546 20.2886 6.77739 20.1632 6.72394M10.5447 18.9365C10.5182 19.0306 10.464 19.1228 10.3631 19.2468C10.2625 19.3705 10.1094 19.5329 9.87741 19.7672C9.87738 19.7672 9.87735 19.7673 9.87732 19.7673L9.45438 20.197M10.5447 18.9365L9.45438 20.197M20.1632 6.72394C20.1634 6.72404 20.1636 6.72414 20.1639 6.72424L20.1234 6.81571L20.1626 6.72369C20.1628 6.72378 20.163 6.72386 20.1632 6.72394ZM9.45438 20.197H10.7578C12.4214 20.197 13.0637 20.1546 13.7556 20.007C15.4091 19.6503 16.7414 18.9011 17.9278 17.6684L9.45438 20.197Z" fill="#08908C" stroke="#08908C" stroke-width="0.2"/>
<path d="M11.7187 7.11095C11.6297 7.15782 11.5078 7.26564 11.4516 7.3547C11.3578 7.49064 11.3437 7.57501 11.3437 7.96408V8.41876L11.0156 8.47032C10.5984 8.53595 10.2422 8.70939 9.91406 9.00939C9.47343 9.41251 9.23437 9.95157 9.23437 10.5422C9.23437 11.2734 9.59531 11.9297 10.2234 12.3328C10.6266 12.5906 10.8 12.6234 11.9391 12.6516C12.8906 12.6797 12.9891 12.6891 13.1062 12.7781C13.3406 12.9516 13.425 13.1063 13.425 13.3594C13.425 13.6219 13.3312 13.7859 13.0781 13.9547C12.9234 14.0625 12.9047 14.0625 11.3484 14.0625C9.94218 14.0625 9.75468 14.0719 9.60937 14.1469C9.10781 14.3953 9.10781 15.1359 9.60937 15.3844C9.74531 15.4547 9.90468 15.4688 10.5609 15.4688H11.3437V15.9328C11.3437 16.3313 11.3578 16.4109 11.4516 16.5516C11.7375 16.9781 12.3 16.9688 12.6281 16.5328C12.7031 16.4297 12.7266 16.3125 12.7406 15.9469L12.7594 15.4875L13.0594 15.4359C13.9734 15.2766 14.6625 14.5875 14.8172 13.6734C14.9578 12.8391 14.4844 11.8875 13.7437 11.5125C13.3078 11.2922 13.0406 11.25 12.0703 11.25C11.2922 11.25 11.1562 11.2406 11.0156 11.1609C10.5422 10.9125 10.5094 10.2422 10.9547 9.95157C11.0672 9.87657 11.2453 9.8672 12.7312 9.84376C14.3062 9.82032 14.3906 9.81564 14.5125 9.72189C14.7422 9.55314 14.8266 9.39376 14.8312 9.14532C14.8359 8.8922 14.7516 8.73283 14.5125 8.55939C14.3953 8.47032 14.3062 8.46095 13.5703 8.44689L12.7594 8.43283L12.7406 7.96876C12.7266 7.47189 12.675 7.3547 12.4125 7.15782C12.2391 7.02658 11.9203 7.00782 11.7187 7.11095Z" fill="#08908C"/>
</g>
<defs>
<clipPath id="clip0_1_4519">
<rect width="24" height="24" fill="white"/>
</clipPath>
</defs>
</svg>
