<svg width="24" height="24" viewBox="0 0 24 24" fill="none" xmlns="http://www.w3.org/2000/svg">
<path d="M11.5312 0.0281239C10.4062 0.234375 9.50625 0.890625 9.02344 1.86562C8.78906 2.34375 8.7 2.71875 8.7 3.25781C8.69531 3.9 8.78438 4.28437 9.04219 4.80469L9.2625 5.24531L7.62188 5.25937C5.99063 5.27812 5.97188 5.27812 5.56406 5.40469C3.94219 5.90625 2.85 7.11094 2.48906 8.78906C2.46094 8.91562 2.04375 11.25 1.56094 13.9688L0.684375 18.9141L0.679688 19.6641C0.679688 20.3109 0.69375 20.4656 0.7875 20.7891C1.00313 21.5344 1.40156 22.2047 1.97344 22.7766C2.46094 23.2594 3.18281 23.6625 3.9375 23.8687L4.33594 23.9766H12H19.6641L20.0625 23.8687C20.8172 23.6625 21.5391 23.2594 22.0266 22.7766C22.5984 22.2047 22.9969 21.5344 23.2125 20.7891C23.3063 20.4656 23.3203 20.3109 23.3203 19.6641L23.3156 18.9141L22.4391 13.9688C21.9563 11.25 21.5391 8.91562 21.5109 8.78906C21.15 7.11094 20.0578 5.90625 18.4359 5.40469C18.0281 5.27812 18.0094 5.27812 16.3969 5.25937C15.4969 5.25 14.7656 5.23125 14.7656 5.2125C14.7656 5.19375 14.8594 4.99687 14.9719 4.77187C15.2156 4.27969 15.3047 3.88594 15.3 3.25781C15.2953 1.81875 14.3531 0.581249 12.9141 0.131248C12.6375 0.046875 11.7844 -0.0187511 11.5312 0.0281239ZM12.6281 1.53281C14.0859 2.04375 14.3438 4.04062 13.0594 4.89375C11.6813 5.80781 9.87656 4.65937 10.1297 3.03281C10.2516 2.25469 10.8938 1.58906 11.6578 1.45312C11.9297 1.40625 12.375 1.43906 12.6281 1.53281ZM17.8734 6.73125C18.5297 6.87656 19.2469 7.35 19.6031 7.86562C19.7906 8.1375 19.9922 8.55469 20.0625 8.80781C20.0906 8.91562 20.5266 11.3297 21.0281 14.1703C21.9844 19.5984 22.0078 19.7672 21.8672 20.3203C21.5719 21.4922 20.6344 22.35 19.4484 22.5422C19.0312 22.6125 4.96875 22.6125 4.55156 22.5422C3.88594 22.4391 3.39375 22.1812 2.90156 21.6937C2.38125 21.1734 2.0625 20.4187 2.0625 19.6875C2.0625 19.4391 2.325 17.8359 2.97188 14.1703C3.47344 11.3297 3.90938 8.91562 3.9375 8.80781C4.13906 8.0625 4.69688 7.37812 5.39531 7.00781C6.08438 6.64219 5.72344 6.66562 11.9672 6.66094C16.9266 6.65625 17.5734 6.66562 17.8734 6.73125Z" fill="#08908C"/>
<path d="M7.40631 11.686C7.01725 11.8923 7.03131 11.7798 7.03131 14.6298V17.1423L7.13913 17.297C7.30788 17.5501 7.45788 17.6345 7.73444 17.6345C7.99694 17.6345 8.14225 17.5595 8.31569 17.3251C8.40475 17.2079 8.41413 17.1095 8.43756 16.3032L8.461 15.4079L9.46881 16.4485C10.0219 17.0251 10.5376 17.5267 10.6173 17.5642C10.9407 17.7329 11.4001 17.5923 11.5501 17.2782C11.6485 17.0673 11.6438 16.7438 11.5407 16.5892C11.4985 16.5235 11.0719 16.0642 10.5938 15.5673C10.1157 15.0751 9.72194 14.6485 9.71256 14.6251C9.70319 14.6017 10.0923 14.1798 10.5704 13.6876C11.0485 13.1907 11.4844 12.722 11.536 12.6423C11.7798 12.2392 11.5313 11.6813 11.0766 11.597C10.7204 11.5313 10.6219 11.6017 9.49694 12.7642L8.43756 13.8517V12.9938C8.43756 11.9813 8.39538 11.8454 8.0485 11.6767C7.79069 11.5501 7.65475 11.5548 7.40631 11.686Z" fill="#08908C"/>
<path d="M14.1844 11.6531C13.4203 11.8359 12.8203 12.3937 12.5531 13.1671C12.4547 13.4578 12.4453 13.5515 12.4453 14.6015C12.4453 15.5484 12.4594 15.7687 12.5297 15.9937C12.975 17.4375 14.5875 18.075 15.8766 17.3203C16.1719 17.1421 16.5281 16.7625 16.6828 16.4578C16.9219 15.989 16.9781 15.7125 16.9594 15.1031C16.9453 14.625 16.9312 14.5359 16.8422 14.4093C16.65 14.1421 16.4906 14.1 15.6797 14.1187C15.0375 14.1328 14.9437 14.1421 14.8312 14.2312C14.5031 14.475 14.4141 14.7796 14.5734 15.1031C14.7141 15.389 14.8687 15.4875 15.2203 15.5062C15.5437 15.5296 15.5672 15.5578 15.4453 15.7968C15.1641 16.3406 14.3016 16.3546 13.9922 15.825C13.875 15.6281 13.875 15.6046 13.875 14.6296C13.875 13.514 13.8984 13.4062 14.1844 13.1859C14.5547 12.9093 14.9391 12.9515 15.3562 13.3125C15.6375 13.5609 15.825 13.6265 16.1016 13.575C16.3172 13.5328 16.5797 13.2703 16.6219 13.0546C16.6781 12.7406 16.6078 12.5671 16.2937 12.2578C15.7219 11.6812 14.9625 11.4656 14.1844 11.6531Z" fill="#08908C"/>
</svg>
