<svg width="24" height="24" viewBox="0 0 24 24" fill="none" xmlns="http://www.w3.org/2000/svg">
<g clip-path="url(#clip0_475_5285)">
<path d="M10.9085 12.0001C10.9085 13.9884 9.44324 15.6001 7.63576 15.6001C5.82829 15.6001 4.36304 13.9884 4.36304 12.0001C4.36304 10.0119 5.82829 8.40015 7.63576 8.40015C9.44324 8.40015 10.9085 10.0119 10.9085 12.0001Z" fill="#08908C"/>
<path d="M19.636 12.0001C19.636 13.9884 18.1708 15.6001 16.3633 15.6001C14.5558 15.6001 13.0906 13.9884 13.0906 12.0001C13.0906 10.0119 14.5558 8.40015 16.3633 8.40015C18.1708 8.40015 19.636 10.0119 19.636 12.0001Z" fill="#08908C"/>
<path d="M15.2727 3.6C15.2727 5.58823 13.8075 7.2 12 7.2C10.1925 7.2 8.72729 5.58823 8.72729 3.6C8.72729 1.61177 10.1925 0 12 0C13.8075 0 15.2727 1.61177 15.2727 3.6Z" fill="#08908C"/>
<path d="M6.54521 20.4C6.54521 22.3883 5.07996 24 3.27248 24C1.46501 24 -0.000244141 22.3883 -0.000244141 20.4C-0.000244141 18.4118 1.46501 16.8 3.27248 16.8C5.07996 16.8 6.54521 18.4118 6.54521 20.4Z" fill="#08908C"/>
<path d="M15.2727 20.4C15.2727 22.3883 13.8075 24 12 24C10.1925 24 8.72729 22.3883 8.72729 20.4C8.72729 18.4118 10.1925 16.8 12 16.8C13.8075 16.8 15.2727 18.4118 15.2727 20.4Z" fill="#08908C"/>
<path d="M23.9993 20.4C23.9993 22.3883 22.5341 24 20.7266 24C18.9191 24 17.4539 22.3883 17.4539 20.4C17.4539 18.4118 18.9191 16.8 20.7266 16.8C22.5341 16.8 23.9993 18.4118 23.9993 20.4Z" fill="#08908C"/>
</g>
<defs>
<clipPath id="clip0_475_5285">
<rect width="24" height="24" fill="white"/>
</clipPath>
</defs>
</svg>
