<svg width="234" height="67" viewBox="0 0 234 67" fill="none" xmlns="http://www.w3.org/2000/svg">
<path d="M26.2837 60.3565L62.3772 51.8138C63.9737 51.4365 65.3988 50.5108 66.4197 49.1879C67.4403 47.8654 67.9967 46.2237 67.9974 44.5322V43.3517C67.9977 42.2437 67.7596 41.1496 67.3005 40.1485C66.8411 39.1475 66.172 38.2643 65.3417 37.5629C64.5113 36.8619 63.5405 36.3602 62.4998 36.0945C61.4588 35.8285 60.3734 35.8051 59.3225 36.0259L24.6609 43.2903C23.6915 43.4936 22.6919 43.4893 21.7243 43.2777C20.7564 43.0662 19.8408 42.6519 19.0343 42.0602C18.2277 41.4687 17.5472 40.7123 17.0348 39.8383C16.5221 38.9643 16.1886 37.991 16.0547 36.9784L16.0287 36.7771C15.7798 34.8971 16.2323 32.9893 17.2945 31.4415C18.3567 29.8933 19.9492 28.8208 21.7487 28.4414L62.496 19.8373C63.9929 19.5213 64.926 21.4625 63.7777 22.5048L24.9688 57.6986C23.7982 58.7524 24.7758 60.7129 26.2837 60.3565Z" fill="white"/>
<path d="M60.8145 17.4927C63.7237 17.4927 66.0819 15.0545 66.0819 12.0468C66.0819 9.03928 63.7237 6.60107 60.8145 6.60107C57.9053 6.60107 55.5471 9.03928 55.5471 12.0468C55.5471 15.0545 57.9053 17.4927 60.8145 17.4927Z" fill="white"/>
<path d="M89.0619 45.877C87.4785 45.877 86.056 45.5958 84.7941 45.033C83.5545 44.4465 82.5792 43.6488 81.8683 42.6402C81.1567 41.6084 80.7893 40.4239 80.7666 39.0872H84.1055C84.2204 40.2361 84.6792 41.2097 85.4824 42.0071C86.3082 42.7811 87.5015 43.1679 89.0619 43.1679C90.5534 43.1679 91.7241 42.793 92.5729 42.0424C93.4451 41.2685 93.8808 40.2836 93.8808 39.0872C93.8808 38.1492 93.6286 37.3868 93.1236 36.8006C92.6186 36.2141 91.9878 35.7685 91.2302 35.4636C90.4733 35.1586 89.4517 34.8305 88.1671 34.4787C86.5834 34.0566 85.3103 33.6341 84.3462 33.212C83.4054 32.7896 82.5907 32.1333 81.9024 31.242C81.2372 30.327 80.9039 29.1075 80.9039 27.583C80.9039 26.2462 81.2372 25.0617 81.9024 24.0299C82.5677 22.9977 83.497 22.2004 84.6903 21.6377C85.9066 21.0746 87.295 20.7932 88.8554 20.7932C91.1044 20.7932 92.9403 21.3677 94.3629 22.5173C95.8087 23.6663 96.6231 25.1908 96.8066 27.0907H93.3646C93.2497 26.1526 92.7683 25.3317 91.9188 24.6281C91.0696 23.9009 89.9456 23.5372 88.5454 23.5372C87.2375 23.5372 86.1709 23.889 85.3444 24.5926C84.5183 25.2731 84.1055 26.2344 84.1055 27.4776C84.1055 28.3689 84.3462 29.0957 84.8282 29.6589C85.333 30.2216 85.9414 30.6556 86.6524 30.9606C87.3866 31.242 88.4082 31.5701 89.7161 31.9456C91.2992 32.391 92.5729 32.8369 93.5367 33.2823C94.5005 33.7047 95.3266 34.3728 96.0149 35.2877C96.7035 36.1791 97.0476 37.3987 97.0476 38.9463C97.0476 40.1427 96.7377 41.2685 96.118 42.324C95.4987 43.3795 94.5809 44.2353 93.3646 44.8921C92.1483 45.5489 90.714 45.877 89.0619 45.877Z" fill="white"/>
<path d="M100.24 35.9055C100.24 33.9463 100.624 32.2317 101.392 30.7621C102.16 29.2694 103.21 28.1149 104.542 27.2986C105.897 26.4822 107.399 26.074 109.048 26.074C110.674 26.074 112.085 26.4351 113.283 27.1584C114.479 27.8817 115.372 28.7912 115.958 29.8874V26.3886H119.075V45.5617H115.958V41.9936C115.349 43.1128 114.434 44.0458 113.215 44.7924C112.017 45.5152 110.618 45.8769 109.014 45.8769C107.365 45.8769 105.875 45.4571 104.542 44.6175C103.21 43.7778 102.16 42.5995 101.392 41.0836C100.624 39.5674 100.24 37.8416 100.24 35.9055ZM115.958 35.9401C115.958 34.4942 115.676 33.2347 115.112 32.1616C114.547 31.0889 113.779 30.2725 112.808 29.7124C111.86 29.1293 110.809 28.8377 109.658 28.8377C108.506 28.8377 107.456 29.1176 106.507 29.6777C105.558 30.2372 104.802 31.0536 104.237 32.1268C103.673 33.1994 103.391 34.4592 103.391 35.9055C103.391 37.3749 103.673 38.6578 104.237 39.7542C104.802 40.8272 105.558 41.6549 106.507 42.2381C107.456 42.7982 108.506 43.0778 109.658 43.0778C110.809 43.0778 111.86 42.7982 112.808 42.2381C113.779 41.6549 114.547 40.8272 115.112 39.7542C115.676 38.6578 115.958 37.3867 115.958 35.9401Z" fill="white"/>
<path d="M127.218 29.5291C127.752 28.4357 128.508 27.5862 129.486 26.9816C130.486 26.3765 131.698 26.074 133.121 26.074V29.3546H132.321C128.919 29.3546 127.218 31.2857 127.218 35.1474V45.5469H124.183V26.4229H127.218V29.5291Z" fill="white"/>
<path d="M143.85 42.6128L149.621 26.4041H152.914L145.615 45.5469H142.017L134.718 26.4041H138.044L143.85 42.6128Z" fill="white"/>
<path d="M179.73 21.4531V45.5467H176.689V27.5809L169.004 45.5467H166.866L159.147 27.5463V45.5467H156.106V21.4531H159.381L167.934 41.3686L176.489 21.4531H179.73Z" fill="white"/>
<path d="M185.989 45.8768C185.4 45.8768 184.9 45.653 184.492 45.2061C184.084 44.7589 183.88 44.2127 183.88 43.5664C183.88 42.9202 184.084 42.374 184.492 41.9268C184.9 41.4799 185.4 41.2561 185.989 41.2561C186.556 41.2561 187.032 41.4799 187.418 41.9268C187.826 42.374 188.03 42.9202 188.03 43.5664C188.03 44.2127 187.826 44.7589 187.418 45.2061C187.032 45.653 186.556 45.8768 185.989 45.8768Z" fill="white"/>
<path d="M206.226 40.1577H196.011L194.129 45.5467H190.903L199.371 21.4531H202.9L211.334 45.5467H208.108L206.226 40.1577ZM205.353 37.5853L201.119 25.3471L196.885 37.5853H205.353Z" fill="white"/>
<path d="M218.038 21.123V45.5467H215.165V21.123H218.038Z" fill="white"/>
</svg>
