<svg width="140" height="90" viewBox="0 0 140 90" fill="none" xmlns="http://www.w3.org/2000/svg">
<g filter="url(#filter0_d_902_30)">
<g clip-path="url(#clip0_902_30)">
<rect x="20" y="16" width="100" height="50" rx="10" fill="white"/>
<path d="M20 16H70V66H20V16Z" fill="#4CB966"/>
<g clip-path="url(#clip1_902_30)">
<path d="M53 40H40.83L46.42 34.41L45 33L37 41L45 49L46.41 47.59L40.83 42H53V40Z" fill="#333333"/>
</g>
<path d="M69.5 16V66H70.5V16H69.5Z" fill="#AAAAAA"/>
<rect width="50" height="50" transform="translate(70 16)" fill="white"/>
<g clip-path="url(#clip2_902_30)">
<path d="M95 33L93.59 34.41L99.17 40H87V42H99.17L93.59 47.59L95 49L103 41L95 33Z" fill="#333333"/>
</g>
</g>
</g>
<defs>
<filter id="filter0_d_902_30" x="0" y="0" width="140" height="90" filterUnits="userSpaceOnUse" color-interpolation-filters="sRGB">
<feFlood flood-opacity="0" result="BackgroundImageFix"/>
<feColorMatrix in="SourceAlpha" type="matrix" values="0 0 0 0 0 0 0 0 0 0 0 0 0 0 0 0 0 0 127 0" result="hardAlpha"/>
<feOffset dy="4"/>
<feGaussianBlur stdDeviation="10"/>
<feComposite in2="hardAlpha" operator="out"/>
<feColorMatrix type="matrix" values="0 0 0 0 0 0 0 0 0 0 0 0 0 0 0 0 0 0 0.1 0"/>
<feBlend mode="normal" in2="BackgroundImageFix" result="effect1_dropShadow_902_30"/>
<feBlend mode="normal" in="SourceGraphic" in2="effect1_dropShadow_902_30" result="shape"/>
</filter>
<clipPath id="clip0_902_30">
<rect x="20" y="16" width="100" height="50" rx="10" fill="white"/>
</clipPath>
<clipPath id="clip1_902_30">
<rect width="24" height="24" fill="white" transform="translate(33 29)"/>
</clipPath>
<clipPath id="clip2_902_30">
<rect width="24" height="24" fill="white" transform="translate(83 29)"/>
</clipPath>
</defs>
</svg>
