<svg width="120" height="90" viewBox="0 0 120 90" fill="none" xmlns="http://www.w3.org/2000/svg">
<g filter="url(#filter0_d_1208_4831)">
<g clip-path="url(#clip0_1208_4831)">
<rect x="120" y="66" width="100" height="50" rx="10" transform="rotate(-180 120 66)" fill="white"/>
<path d="M120 66H70V16L120 16V66Z" fill="#4CB966"/>
<g clip-path="url(#clip1_1208_4831)">
<path d="M87 42H99.17L93.58 47.59L95 49L103 41L95 33L93.59 34.41L99.17 40H87V42Z" fill="#333333"/>
</g>
<path d="M70.5 66V16H69.5V66H70.5Z" fill="#AAAAAA"/>
<rect width="50" height="50" transform="translate(70 66) rotate(-180)" fill="white"/>
<g clip-path="url(#clip2_1208_4831)">
<path d="M45 49L46.41 47.59L40.83 42H53V40H40.83L46.41 34.41L45 33L37 41L45 49Z" fill="#333333"/>
</g>
</g>
</g>
<defs>
<filter id="filter0_d_1208_4831" x="0" y="0" width="140" height="90" filterUnits="userSpaceOnUse" color-interpolation-filters="sRGB">
<feFlood flood-opacity="0" result="BackgroundImageFix"/>
<feColorMatrix in="SourceAlpha" type="matrix" values="0 0 0 0 0 0 0 0 0 0 0 0 0 0 0 0 0 0 127 0" result="hardAlpha"/>
<feOffset dy="4"/>
<feGaussianBlur stdDeviation="10"/>
<feComposite in2="hardAlpha" operator="out"/>
<feColorMatrix type="matrix" values="0 0 0 0 0 0 0 0 0 0 0 0 0 0 0 0 0 0 0.1 0"/>
<feBlend mode="normal" in2="BackgroundImageFix" result="effect1_dropShadow_1208_4831"/>
<feBlend mode="normal" in="SourceGraphic" in2="effect1_dropShadow_1208_4831" result="shape"/>
</filter>
<clipPath id="clip0_1208_4831">
<rect x="120" y="66" width="100" height="50" rx="10" transform="rotate(-180 120 66)" fill="white"/>
</clipPath>
<clipPath id="clip1_1208_4831">
<rect width="24" height="24" fill="white" transform="translate(107 53) rotate(-180)"/>
</clipPath>
<clipPath id="clip2_1208_4831">
<rect width="24" height="24" fill="white" transform="translate(57 53) rotate(-180)"/>
</clipPath>
</defs>
</svg>
