<svg width="200" height="200" viewBox="0 0 200 200" fill="none" xmlns="http://www.w3.org/2000/svg">
<path d="M101.047 31.6667C89.68 31.8001 85.5133 31.9334 84.98 32.2334C82.18 33.8667 82.18 38.3001 84.98 40.0001C85.9466 40.6001 86.68 40.6667 92.1466 40.6667C96.68 40.6667 98.5133 40.8001 99.38 41.1334C102.68 42.5334 102.713 47.9001 99.4133 49.4667C98.4133 49.9334 96.08 50.0001 79.6466 50.0001C62.0466 50.0001 60.98 50.0334 60.0133 50.6334C57.28 52.3001 57.3133 56.4001 60.1133 58.2334C60.9133 58.7667 62.2466 58.8667 72.2466 59.0001L83.48 59.1667L84.38 60.0001C86.28 61.7667 86.7133 64.0001 85.5466 65.9001C84.1466 68.2334 84.7466 68.1334 67.6466 68.3334L52.2133 68.5001L51.0133 69.7001C48.8466 71.8667 49.1466 75.1667 51.6466 76.6667C52.6466 77.3001 53.4133 77.3334 67.8466 77.3334C82.4133 77.3334 83.0133 77.3667 84.0466 78.0001C86.88 79.7334 86.8133 84.0334 83.98 85.9001C83.18 86.4334 81.78 86.5334 70.38 86.6667C56.18 86.8667 56.5133 86.8001 55.38 89.3334C54.68 90.8667 54.88 92.5001 55.9466 93.8334C57.3466 95.6001 57.8133 95.6667 71.28 95.6667C83.0133 95.6667 83.78 95.7001 84.78 96.3334C87.7466 98.1334 87.5133 102.7 84.38 104.433C83.9466 104.667 78.48 104.867 68.1466 104.967L52.5466 105.167L51.5133 106.2C49.58 108.133 49.98 111.6 52.28 113C53.3466 113.633 53.9133 113.667 68.58 113.667H83.8133L92.28 105.033L100.747 96.4001L99.78 95.1001C98.38 93.2667 96.7133 89.8334 95.8133 87.0001C95.1466 84.8667 95.0466 83.8001 95.0466 79.6667C95.0466 75.5334 95.1466 74.4667 95.8133 72.3334C98.78 62.8001 106.847 55.3334 116.047 53.6001L118.213 53.1667V42.2667V31.3334L117.313 31.4001C116.78 31.4667 109.48 31.5667 101.047 31.6667Z" fill="#E75E41"/>
<path d="M124.88 42.2V53.1667L127.48 53.7667C136.813 55.8667 144.68 63.5667 147.247 73.1667C147.78 75.1667 147.947 76.8 147.947 79.6667C147.947 91.6667 140.413 101.667 128.713 105.2C126.213 105.933 125.047 106.1 121.713 106.133C116.347 106.133 112.313 105.033 107.78 102.333L105.58 101L97.4467 109.233C92.9467 113.8 88.9134 117.967 88.4467 118.533L87.5801 119.567L89.3134 122.367C98.7467 137.333 116.78 161.6 119.547 163C121.08 163.8 122.48 163.833 124.047 163.2C125.28 162.667 129.947 157.033 137.48 146.933C158.08 119.267 169.547 98 171.58 83.7C172.547 76.9334 170.613 67.0667 166.747 58.9C159.713 44.1334 143.647 32.9 127.48 31.4667L124.88 31.2334V42.2Z" fill="#342951"/>
<path d="M37.5471 57.9334C35.0805 59.1667 34.2471 61.9334 35.6138 64.3667C36.6805 66.3001 37.7805 66.6667 42.6471 66.6667C46.3805 66.6667 46.8805 66.6001 47.9138 65.9001C51.0138 63.8334 50.8138 59.6001 47.5138 57.9334C46.6471 57.4667 45.5471 57.3334 42.5471 57.3334C39.5471 57.3334 38.4471 57.4667 37.5471 57.9334Z" fill="#342951"/>
<path d="M30.6471 105.333C27.7804 107.067 27.9138 111.633 30.8471 113.167C32.4138 113.967 37.7138 113.867 39.1471 113C41.9471 111.3 41.7804 106.833 38.8471 105.267C37.2138 104.4 32.1471 104.4 30.6471 105.333Z" fill="#342951"/>
<path d="M108.37 96.9719L132.648 91.4089C133.721 91.1633 134.68 90.5604 135.367 89.699C136.053 88.8377 136.427 87.7687 136.428 86.6672V85.8984C136.428 85.1769 136.268 84.4644 135.959 83.8125C135.65 83.1606 135.2 82.5855 134.642 82.1288C134.083 81.6722 133.43 81.3456 132.73 81.1725C132.03 80.9993 131.3 80.984 130.593 81.1278L107.279 85.8584C106.627 85.9908 105.954 85.988 105.304 85.8502C104.653 85.7125 104.037 85.4427 103.494 85.0574C102.952 84.6722 102.494 84.1796 102.149 83.6105C101.805 83.0413 101.58 82.4075 101.49 81.7481L101.473 81.617C101.305 80.3928 101.61 79.1504 102.324 78.1425C103.039 77.1343 104.11 76.4359 105.32 76.1888L132.727 70.5858C133.734 70.3801 134.362 71.6441 133.59 72.3229L107.486 95.2411C106.699 95.9274 107.356 97.204 108.37 96.9719Z" fill="#FCC464"/>
<path d="M131.673 69.075C133.669 69.075 135.287 67.4913 135.287 65.5376C135.287 63.5842 133.669 62.0005 131.673 62.0005C129.677 62.0005 128.059 63.5842 128.059 65.5376C128.059 67.4913 129.677 69.075 131.673 69.075Z" fill="#FCC464"/>
</svg>
