<svg width="48" height="48" viewBox="0 0 48 48" fill="none" xmlns="http://www.w3.org/2000/svg">
<g clip-path="url(#clip0_202_225)">
<path d="M33.71 23.29L24.71 14.29C24.32 13.9 23.69 13.9 23.3 14.29L14.3 23.29C13.91 23.68 13.91 24.31 14.3 24.7L23.3 33.7C23.69 34.09 24.32 34.09 24.71 33.7L33.71 24.7C34.1 24.32 34.1 23.69 33.71 23.29ZM26 26.5V24H22V27H20V23C20 22.45 20.45 22 21 22H26V19.5L29.5 23L26 26.5Z" fill="#00A64F"/>
</g>
<rect x="0.5" y="0.5" width="47" height="47" rx="23.5" stroke="#00A64F"/>
<defs>
<clipPath id="clip0_202_225">
<rect width="24" height="24" fill="white" transform="translate(12 12)"/>
</clipPath>
</defs>
</svg>
