<svg version="1.1" id="Layer_1" xmlns="http://www.w3.org/2000/svg" xmlns:xlink="http://www.w3.org/1999/xlink" x="0px" y="0px"
	 width="100%" viewBox="0 0 612 612" enable-background="new 0 0 612 612" xml:space="preserve">
<path fill="#59C39B" opacity="1.000000" stroke="none" 
	d="
M293.000000,613.000000 
	C195.689804,613.000000 98.379608,613.000000 1.034705,613.000000 
	C1.034705,409.071625 1.034705,205.143265 1.034705,1.107442 
	C204.879837,1.107442 408.759735,1.107442 613.000000,1.107442 
	C613.000000,94.023766 613.000000,187.048004 612.635864,280.581970 
	C611.279785,280.553864 610.098633,280.208588 609.325195,279.448456 
	C601.386719,271.646881 593.498596,263.793762 585.627014,255.924454 
	C571.532715,241.834213 557.466309,227.716019 543.375549,213.622208 
	C528.106262,198.349579 512.827148,183.086639 497.542603,167.829239 
	C490.019287,160.319305 482.505432,152.798950 474.874329,145.399857 
	C474.310608,144.853302 472.830811,145.251526 471.586578,144.854904 
	C471.091553,140.649323 468.135071,141.934113 466.090942,141.933319 
	C360.833618,141.892883 255.576309,141.901047 150.318985,141.905518 
	C148.653656,141.905594 146.856110,141.540039 145.364273,142.053726 
	C144.142746,142.474365 142.469620,143.903458 142.405243,144.970474 
	C142.096481,150.087311 142.266602,155.233063 142.266602,160.540848 
	C144.112717,160.818756 145.555649,161.035980 146.968445,161.588989 
	C147.001373,164.320740 147.064407,166.716721 147.068375,169.566345 
	C147.055328,172.805740 147.101349,175.591461 146.972778,178.674652 
	C146.379456,180.047104 145.961731,181.122513 145.541870,182.197083 
	C139.714706,197.110794 133.887268,212.024399 127.901611,227.316437 
	C126.831268,238.651031 126.856018,249.301651 137.299896,256.923676 
	C140.556625,260.117889 143.683426,262.984711 146.875412,266.291016 
	C147.006729,268.510223 147.072861,270.289948 147.074921,272.530212 
	C146.988937,326.332520 146.967041,379.674377 146.758972,433.291260 
	C146.417419,434.668365 146.262039,435.770447 145.691879,436.911926 
	C144.287872,437.929108 142.483826,438.873352 142.442001,439.890045 
	C142.176147,446.351898 142.232651,452.831177 142.369141,459.300781 
	C142.388657,460.225555 143.415253,461.129089 144.028931,462.381775 
	C145.087967,464.017242 145.967575,465.439392 147.117935,466.591156 
	C183.932892,503.451141 220.793442,540.265625 257.599976,577.133972 
	C269.467743,589.021667 281.203766,601.040894 293.000000,613.000000 
z"/>
<path fill="#169673" opacity="1.000000" stroke="none" 
	d="
M293.468658,613.000000 
	C281.203766,601.040894 269.467743,589.021667 257.599976,577.133972 
	C220.793442,540.265625 183.932892,503.451141 147.117935,466.591156 
	C145.967575,465.439392 145.087967,464.017242 144.498993,462.334412 
	C153.945831,461.843903 162.975769,461.740143 172.208405,461.710541 
	C172.411087,461.784729 172.841843,461.839447 173.318832,461.880249 
	C206.925034,461.919128 240.054230,461.917236 273.641388,461.927856 
	C338.064087,461.953156 402.028870,461.966675 465.993622,461.969696 
	C466.652893,461.969727 467.312164,461.832153 468.308990,461.823242 
	C469.099274,461.834808 469.551971,461.781921 470.297150,461.784851 
	C470.811584,461.563507 471.033569,461.286407 471.395691,460.786560 
	C471.438293,460.239990 471.340820,459.916199 471.406799,459.373352 
	C471.498169,458.814484 471.426086,458.474701 471.470459,457.672058 
	C471.544098,451.824036 471.501282,446.438843 471.542664,440.767456 
	C471.545105,440.299957 471.463379,440.118683 471.468201,439.624573 
	C471.452026,438.901733 471.349274,438.491669 471.196289,437.744995 
	C469.788788,437.243774 468.431488,437.079193 467.104370,436.904297 
	C467.134521,436.894012 467.117126,436.832703 467.106049,436.448242 
	C467.018402,435.042480 466.941803,434.021149 466.945953,432.537323 
	C467.039368,393.027252 467.068878,353.979675 467.055786,314.932129 
	C467.050995,300.646118 466.945099,286.360138 466.950623,271.610168 
	C467.037598,267.144043 467.059204,263.141907 467.450378,259.034485 
	C475.784546,257.857056 482.579254,254.245346 484.705048,246.376572 
	C486.366272,240.227463 485.599152,233.422302 485.948822,226.536224 
	C479.611450,210.258636 473.236298,194.353485 466.937866,177.975830 
	C466.968079,174.678833 466.921539,171.854309 466.947571,168.604980 
	C467.035919,165.927811 467.051758,163.675446 467.489441,161.344971 
	C470.902313,161.670547 471.924408,160.394775 471.764618,157.395370 
	C471.548889,153.345474 471.752991,149.273193 471.776917,145.210526 
	C472.830811,145.251526 474.310608,144.853302 474.874329,145.399857 
	C482.505432,152.798950 490.019287,160.319305 497.542603,167.829239 
	C512.827148,183.086639 528.106262,198.349579 543.375549,213.622208 
	C557.466309,227.716019 571.532715,241.834213 585.627014,255.924454 
	C593.498596,263.793762 601.386719,271.646881 609.325195,279.448456 
	C610.098633,280.208588 611.279785,280.553864 612.635864,281.045837 
	C613.000000,391.592377 613.000000,502.184784 613.000000,613.000000 
	C506.645874,613.000000 400.291595,613.000000 293.468658,613.000000 
z"/>
<path fill="#F8E2C3" opacity="1.000000" stroke="none" 
	d="
M466.885315,272.074158 
	C466.945099,286.360138 467.050995,300.646118 467.055786,314.932129 
	C467.068878,353.979675 467.039368,393.027252 466.486267,432.534088 
	C404.151245,432.996796 342.356720,433.002258 280.562164,433.000519 
	C274.030243,433.000336 274.019562,432.980652 274.016327,426.363129 
	C274.009277,411.872223 274.041901,397.381165 273.981293,382.890533 
	C273.973114,380.937561 273.520386,378.986481 273.204468,376.630798 
	C273.174347,375.138885 273.213287,374.050690 273.448669,372.636169 
	C273.518280,369.559357 273.391510,366.808868 273.195007,363.654175 
	C273.175964,362.160461 273.226624,361.070984 273.473450,359.622253 
	C273.782745,358.442688 273.994110,357.622406 273.994751,356.802032 
	C274.013489,332.484375 274.022705,308.166718 273.980774,283.849152 
	C273.978546,282.563141 273.515228,281.277893 273.199219,279.664032 
	C273.175659,278.893280 273.219391,278.450836 273.371155,277.898254 
	C273.605957,277.465698 273.523346,277.202454 272.965637,276.641388 
	C270.880493,276.201324 269.061188,276.047150 267.241730,276.045807 
	C236.160095,276.022919 205.078476,276.018921 173.793732,275.944244 
	C173.268921,275.875458 173.038742,276.019501 172.795868,276.765625 
	C172.763596,278.143402 172.835541,279.065308 172.802582,280.446472 
	C172.680237,297.023865 172.666077,313.141998 172.644699,329.260162 
	C172.598877,363.821014 172.549332,398.381866 172.066727,433.003418 
	C163.403137,433.048187 155.174133,433.032196 146.945129,433.016205 
	C146.967041,379.674377 146.988937,326.332520 147.486404,272.514160 
	C157.884552,272.441681 162.765045,265.347870 167.782852,257.796112 
	C171.845825,266.816193 177.556854,271.966949 187.406113,272.112335 
	C197.279953,272.258057 202.428558,265.880219 207.641968,258.205048 
	C212.050186,267.120605 217.876114,271.992645 227.472351,272.121857 
	C237.344482,272.254761 242.289688,265.606689 247.716446,258.174988 
	C252.011566,267.254364 257.954315,272.128876 267.517029,272.069672 
	C277.333405,272.008850 282.633331,266.008209 287.319611,257.423859 
	C291.428009,266.507202 297.276459,271.715179 306.938751,272.082794 
	C317.165131,272.471802 322.130127,265.637848 327.046173,257.860260 
	C331.446289,266.749786 337.418793,271.739685 347.045837,272.086395 
	C356.909271,272.441589 361.730560,265.416626 367.233093,258.588318 
	C371.964630,267.072601 377.765717,272.165649 387.347687,272.091858 
	C397.211884,272.015869 402.125732,265.433319 406.823822,258.005768 
	C416.412109,277.566589 438.275574,276.274567 446.805725,257.474731 
	C450.556885,266.753113 456.850708,272.132202 466.885315,272.074158 
M301.087494,393.364929 
	C301.087494,393.364929 301.053345,393.821045 300.266541,393.864868 
	C298.681885,393.864868 297.097229,393.864868 295.000000,393.864868 
	C295.000000,399.088867 295.000000,404.044434 295.008453,409.865936 
	C294.214691,414.737335 297.026886,415.173676 300.928558,415.166809 
	C350.423157,415.079956 399.918213,415.032990 449.412262,415.216553 
	C454.336304,415.234802 456.652344,414.046387 455.949738,408.025726 
	C455.952606,405.061127 455.827911,402.089569 455.988556,399.133545 
	C456.223206,394.814972 454.621857,392.495270 449.855652,392.090271 
	C449.841675,355.398285 449.841003,318.706238 449.775635,282.014343 
	C449.772278,280.121948 449.215576,278.230560 448.022888,276.077362 
	C416.383698,276.062866 384.744476,276.046051 353.105286,276.034821 
	C337.119019,276.029114 321.132782,276.037964 305.146515,276.028076 
	C302.976471,276.026733 300.626251,275.696411 300.407532,279.749084 
	C300.272125,281.059631 300.019257,282.370148 300.018433,283.680756 
	C299.996857,318.528442 299.989777,353.376129 300.037720,388.223724 
	C300.039948,389.824677 300.575867,391.424866 301.014435,392.861603 
	C301.014435,392.861603 301.226715,392.929749 301.087494,393.364929 
z"/>
<path fill="#FAFBFB" opacity="1.000000" stroke="none" 
	d="
M471.586609,144.854904 
	C471.752991,149.273193 471.548889,153.345474 471.764618,157.395370 
	C471.924408,160.394775 470.902313,161.670547 467.030151,161.246078 
	C464.652191,161.196472 463.155457,161.142441 461.658691,161.142380 
	C360.266357,161.138474 258.874054,161.137787 157.481735,161.143814 
	C153.987350,161.144028 150.492950,161.215118 146.998566,161.253204 
	C145.555649,161.035980 144.112717,160.818756 142.266602,160.540848 
	C142.266602,155.233063 142.096481,150.087311 142.405243,144.970474 
	C142.469620,143.903458 144.142746,142.474365 145.364273,142.053726 
	C146.856110,141.540039 148.653656,141.905594 150.318985,141.905518 
	C255.576309,141.901047 360.833618,141.892883 466.090942,141.933319 
	C468.135071,141.934113 471.091553,140.649323 471.586609,144.854904 
z"/>
<path fill="#EDC592" opacity="1.000000" stroke="none" 
	d="
M466.950623,271.610168 
	C456.850708,272.132202 450.556885,266.753113 446.805725,257.474731 
	C438.275574,276.274567 416.412109,277.566589 406.823822,258.005768 
	C402.125732,265.433319 397.211884,272.015869 387.347687,272.091858 
	C377.765717,272.165649 371.964630,267.072601 367.233093,258.588318 
	C361.730560,265.416626 356.909271,272.441589 347.045837,272.086395 
	C337.418793,271.739685 331.446289,266.749786 327.046173,257.860260 
	C322.130127,265.637848 317.165131,272.471802 306.938751,272.082794 
	C297.276459,271.715179 291.428009,266.507202 287.319611,257.423859 
	C282.633331,266.008209 277.333405,272.008850 267.517029,272.069672 
	C257.954315,272.128876 252.011566,267.254364 247.716446,258.174988 
	C242.289688,265.606689 237.344482,272.254761 227.472351,272.121857 
	C217.876114,271.992645 212.050186,267.120605 207.641968,258.205048 
	C202.428558,265.880219 197.279953,272.258057 187.406113,272.112335 
	C177.556854,271.966949 171.845825,266.816193 167.782852,257.796112 
	C162.765045,265.347870 157.884552,272.441681 147.550491,272.053650 
	C147.072861,270.289948 147.006729,268.510223 146.927811,265.876099 
	C146.952972,263.055023 146.990906,261.088318 147.427307,259.059143 
	C160.509506,257.574615 167.169678,250.225632 167.200989,237.561218 
	C167.209610,234.072235 167.104996,230.582962 167.209595,227.088043 
	C167.366806,227.082245 167.681458,227.083542 167.798492,227.515839 
	C167.954590,232.110916 168.174438,236.281555 167.993500,240.434753 
	C167.658829,248.117096 172.073547,253.127762 177.935669,256.526093 
	C184.602753,260.391083 191.612946,259.362427 198.251160,255.401245 
	C203.198257,252.449188 205.065552,247.455688 207.549133,242.977020 
	C209.117416,246.072830 210.012756,249.259109 211.936813,251.599777 
	C216.965881,257.717743 223.664383,260.165344 231.489380,258.374329 
	C240.599365,256.289215 245.504623,250.137360 247.379959,241.452240 
	C249.172104,250.370148 254.158203,256.180725 262.636230,258.300079 
	C270.368988,260.233124 277.069275,257.478027 282.320923,251.706284 
	C284.370972,249.453217 285.624756,246.475632 287.478851,244.080902 
	C289.574524,250.134247 293.060089,254.528946 298.707214,257.055725 
	C310.110382,262.158020 320.799164,257.094604 326.984314,244.025970 
	C327.636383,244.809875 328.128357,245.320770 328.341034,245.929291 
	C333.481262,260.636322 353.328278,263.573944 362.873322,250.634384 
	C364.431335,248.522354 365.638458,246.151520 367.272095,244.136719 
	C369.506592,251.058182 373.840546,255.572525 380.368591,257.825684 
	C391.734589,261.748657 401.699158,255.926422 406.826172,242.974960 
	C407.600647,244.682953 408.206909,246.041046 408.852783,247.380005 
	C413.213196,256.419586 421.848236,260.378418 431.474670,258.050873 
	C440.098358,255.965790 444.098877,249.733185 446.739197,242.348892 
	C449.990845,253.374115 455.455780,257.818604 467.080811,259.139771 
	C467.059204,263.141907 467.037598,267.144043 466.950623,271.610168 
z"/>
<path fill="#F9E0C2" opacity="1.000000" stroke="none" 
	d="
M466.875031,169.029800 
	C466.921539,171.854309 466.968079,174.678833 466.478516,177.971741 
	C463.783661,178.429016 461.623901,178.370438 459.466309,178.414963 
	C450.206970,178.606064 440.948212,178.827499 431.240997,179.033356 
	C419.200714,179.019714 407.608673,179.010574 395.645691,178.825638 
	C390.177429,178.568573 385.078247,178.360565 379.983398,178.437683 
	C373.437195,178.536789 366.894470,178.864838 359.976318,178.977631 
	C348.049316,178.900864 336.496246,178.940720 324.560608,178.851639 
	C312.456299,178.806793 300.734589,178.890915 288.543457,178.956085 
	C279.322723,178.932297 270.570312,178.848404 261.820740,178.969086 
	C259.074249,179.006973 256.335388,179.594864 253.346466,179.593094 
	C252.688873,179.011673 252.279449,178.558502 251.866577,178.555374 
	C241.448761,178.476089 231.029083,178.355103 220.614594,178.530273 
	C219.472137,178.549500 218.359085,180.316833 217.089264,180.926300 
	C215.402084,179.878555 213.869995,178.612442 212.311783,178.579422 
	C206.861374,178.463898 201.397766,178.686859 195.947220,178.949081 
	C191.361099,179.169739 186.786224,179.624100 182.053299,179.601639 
	C180.186218,178.952744 178.474091,178.453339 176.757843,178.438705 
	C166.888229,178.354614 157.017624,178.385376 147.147354,178.377197 
	C147.101349,175.591461 147.055328,172.805740 147.527557,169.549683 
	C149.545013,169.081177 151.044189,169.084808 152.543381,169.084549 
	C257.320587,169.066498 362.097809,169.048126 466.875031,169.029800 
z"/>
<path fill="#E9BC7E" opacity="1.000000" stroke="none" 
	d="
M466.947571,168.604980 
	C362.097809,169.048126 257.320587,169.066498 152.543381,169.084549 
	C151.044189,169.084808 149.545013,169.081177 147.586639,169.096039 
	C147.064407,166.716721 147.001373,164.320740 146.968445,161.588974 
	C150.492950,161.215118 153.987350,161.144028 157.481735,161.143814 
	C258.874054,161.137787 360.266357,161.138474 461.658691,161.142380 
	C463.155457,161.142441 464.652191,161.196472 466.608276,161.324219 
	C467.051758,163.675446 467.035919,165.927811 466.947571,168.604980 
z"/>
<path fill="#F20943" opacity="1.000000" stroke="none" 
	d="
M146.972778,178.674652 
	C157.017624,178.385376 166.888229,178.354614 176.757843,178.438705 
	C178.474091,178.453339 180.186218,178.952744 181.922073,179.962830 
	C177.262680,196.095520 172.581436,211.493652 167.794998,226.882095 
	C167.689789,226.872406 167.681458,227.083542 167.681458,227.083542 
	C167.681458,227.083542 167.366806,227.082245 166.737091,227.077682 
	C153.424866,227.028091 140.742386,226.983063 128.059906,226.938034 
	C133.887268,212.024399 139.714706,197.110794 145.541870,182.197083 
	C145.961731,181.122513 146.379456,180.047104 146.972778,178.674652 
z"/>
<path fill="#9B0323" opacity="1.000000" stroke="none" 
	d="
M127.901604,227.316437 
	C140.742386,226.983063 153.424866,227.028091 166.579865,227.083466 
	C167.104996,230.582962 167.209610,234.072235 167.200989,237.561218 
	C167.169678,250.225632 160.509506,257.574615 147.043915,258.974548 
	C143.231369,258.167023 140.200668,257.381653 137.169983,256.596283 
	C126.856018,249.301651 126.831268,238.651031 127.901604,227.316437 
z"/>
<path fill="#F7F9F8" opacity="1.000000" stroke="none" 
	d="
M172.005707,461.636353 
	C162.975769,461.740143 153.945831,461.843903 144.445831,461.995056 
	C143.415253,461.129089 142.388657,460.225555 142.369141,459.300781 
	C142.232651,452.831177 142.176147,446.351898 142.442001,439.890045 
	C142.483826,438.873352 144.287872,437.929108 146.146179,436.928528 
	C155.498291,436.950592 163.981308,436.995483 172.541107,437.497742 
	C172.581635,445.297821 172.545380,452.640533 172.337524,460.138306 
	C172.112503,460.741058 172.059113,461.188690 172.005707,461.636353 
z"/>
<path fill="#B2B8A0" opacity="1.000000" stroke="none" 
	d="
M172.464340,437.040405 
	C163.981308,436.995483 155.498291,436.950592 146.560944,436.889099 
	C146.262039,435.770447 146.417419,434.668365 146.758972,433.291260 
	C155.174133,433.032196 163.403137,433.048187 172.199051,433.395447 
	C172.879089,434.820618 172.992218,435.914520 172.948181,437.078186 
	C172.791016,437.147980 172.464340,437.040405 172.464340,437.040405 
z"/>
<path fill="#259671" opacity="1.000000" stroke="none" 
	d="
M137.299896,256.923676 
	C140.200668,257.381653 143.231369,258.167023 146.645447,259.037018 
	C146.990906,261.088318 146.952972,263.055023 146.862640,265.436615 
	C143.683426,262.984711 140.556625,260.117889 137.299896,256.923676 
z"/>
<path fill="#045759" opacity="1.000000" stroke="none" 
	d="
M172.509125,459.983246 
	C172.545380,452.640533 172.581635,445.297821 172.541107,437.497742 
	C172.464340,437.040405 172.791016,437.147980 173.172638,436.731689 
	C173.702484,434.838837 173.979614,433.362366 173.980286,431.885742 
	C174.002655,382.989929 174.009781,334.094147 173.952408,285.198395 
	C173.950363,283.460938 173.271118,281.724274 172.907501,279.987244 
	C172.835541,279.065308 172.763596,278.143402 172.994217,276.802185 
	C173.578995,276.350769 173.812347,276.226746 173.996841,276.010803 
	C205.078476,276.018921 236.160095,276.022919 267.241730,276.045807 
	C269.061188,276.047150 270.880493,276.201324 272.904663,276.896057 
	C273.160675,277.674622 273.211884,277.841492 273.263123,278.008362 
	C273.219391,278.450836 273.175659,278.893280 273.110931,280.126709 
	C273.152435,307.272278 273.214874,333.626862 273.277313,359.981476 
	C273.226624,361.070984 273.175964,362.160461 273.104889,364.090027 
	C273.140411,367.607574 273.196320,370.285065 273.252228,372.962524 
	C273.213287,374.050690 273.174347,375.138885 273.114868,377.088623 
	C273.159546,397.668304 273.224762,417.386475 273.211365,437.560425 
	C273.187408,444.353210 273.242096,450.690155 273.208954,457.427002 
	C273.141907,459.189728 273.162659,460.552521 273.183441,461.915344 
	C240.054230,461.917236 206.925034,461.919128 173.334320,461.556519 
	C172.751572,460.789062 172.630356,460.386169 172.509125,459.983246 
M189.595078,384.878662 
	C189.625900,386.977417 189.656738,389.076141 189.462875,392.057526 
	C189.262115,395.658081 191.762909,395.392975 194.156494,395.389893 
	C213.419983,395.365143 232.683533,395.368530 251.947006,395.334015 
	C253.214111,395.331726 254.480789,395.088165 255.892731,394.941803 
	C255.892731,377.724091 255.892731,360.826691 256.067963,343.069427 
	C256.032440,340.724182 255.996902,338.378906 256.119507,335.139587 
	C256.069061,332.420349 256.018616,329.701141 256.123444,326.057983 
	C256.092468,317.036438 256.061523,308.014923 256.164032,298.166046 
	C254.995911,297.162201 253.835663,295.294006 252.658493,295.283325 
	C232.884933,295.103088 213.109207,295.176514 193.334122,295.128143 
	C190.724197,295.121765 189.199707,295.880707 189.304260,298.780762 
	C189.477585,303.588135 189.554916,308.398987 189.490128,314.099823 
	C189.639404,324.806122 189.788666,335.512421 189.643219,347.081268 
	C189.646729,356.340057 189.650253,365.598877 189.396912,375.761322 
	C189.555466,378.553680 189.714020,381.346039 189.595078,384.878662 
M239.430527,444.810455 
	C243.747574,444.780426 248.094177,445.022614 252.364212,444.559235 
	C253.694763,444.414825 255.833191,442.396454 255.874374,441.177521 
	C256.177765,432.199982 256.158936,423.204285 255.902466,414.223999 
	C255.869965,413.086090 253.879044,411.048950 252.779846,411.038330 
	C232.808060,410.844757 212.833252,410.837311 192.861938,411.054199 
	C191.698883,411.066803 189.629105,413.274200 189.563370,414.542206 
	C189.176315,422.007904 189.181366,429.498199 189.205780,436.979736 
	C189.228149,443.836334 190.152954,444.761017 197.004868,444.790588 
	C210.819809,444.850159 224.635208,444.809265 239.430527,444.810455 
M260.853638,372.560333 
	C265.739075,375.614319 270.458771,374.562439 270.964996,369.943207 
	C271.190674,367.884155 270.086243,364.578979 268.537933,363.713470 
	C266.734894,362.705627 263.294373,362.951843 261.446533,364.088226 
	C258.602478,365.837311 258.442169,369.039764 260.853638,372.560333 
z"/>
<path fill="#FBFAFA" opacity="1.000000" stroke="none" 
	d="
M273.296783,457.027100 
	C273.242096,450.690155 273.187408,444.353210 273.661407,437.540955 
	C332.336761,437.045288 390.483429,437.029846 448.630096,436.997223 
	C454.792480,436.993744 460.954773,436.889954 467.117126,436.832703 
	C467.117126,436.832703 467.134521,436.894012 467.313843,437.143005 
	C468.744293,437.621857 469.995422,437.851746 471.246552,438.081604 
	C471.349274,438.491669 471.452026,438.901733 471.210724,439.630493 
	C470.288666,440.036530 469.710663,440.123871 469.132660,440.211243 
	C469.140442,440.415894 469.148254,440.620544 469.156036,440.825195 
	C469.923523,440.901337 470.690979,440.977509 471.458466,441.053650 
	C471.501282,446.438843 471.544098,451.824036 471.378784,457.904297 
	C471.194916,458.930359 471.219147,459.261383 471.243347,459.592377 
	C471.340820,459.916199 471.438293,460.239990 471.156799,460.848419 
	C470.469299,461.265808 470.211609,461.464478 470.004700,461.729034 
	C469.551971,461.781921 469.099274,461.834808 468.000061,461.613251 
	C464.418976,460.897980 461.484894,460.076202 458.549744,460.072479 
	C399.230835,459.997284 339.911804,460.016083 280.592804,460.015961 
	C278.958191,460.015961 277.323608,460.015930 275.688995,460.015930 
	C275.705719,459.645660 275.722443,459.275360 275.739166,458.905090 
	C338.305450,458.905090 400.871735,458.905090 463.438019,458.905090 
	C463.444763,458.606659 463.451477,458.308197 463.458221,458.009766 
	C461.664062,458.009766 459.869934,458.009827 458.075775,458.009796 
	C398.923401,458.009064 339.771027,458.019989 280.618683,457.966156 
	C278.177795,457.963928 275.737396,457.353943 273.296783,457.027100 
z"/>
<path fill="#F20943" opacity="1.000000" stroke="none" 
	d="
M431.689270,179.037857 
	C440.948212,178.827499 450.206970,178.606064 459.466309,178.414963 
	C461.623901,178.370438 463.783661,178.429016 466.401794,178.444244 
	C473.236298,194.353485 479.611450,210.258636 485.486115,226.550446 
	C472.300812,227.011490 459.615997,227.085846 446.771667,227.106323 
	C446.612152,227.052414 446.280914,226.996429 446.249512,226.919983 
	C446.218079,226.843521 446.059143,226.889099 446.089905,226.508255 
	C441.310181,210.430893 436.499725,194.734375 431.689270,179.037857 
z"/>
<path fill="#9B0323" opacity="1.000000" stroke="none" 
	d="
M446.931183,227.160217 
	C459.615997,227.085846 472.300812,227.011490 485.448334,226.922882 
	C485.599152,233.422302 486.366272,240.227463 484.705048,246.376572 
	C482.579254,254.245346 475.784546,257.857056 467.450378,259.034485 
	C455.455780,257.818604 449.990845,253.374115 446.762146,241.890594 
	C446.588440,237.995743 446.527405,234.917023 446.611389,231.472916 
	C446.814667,229.791763 446.872925,228.475998 446.931183,227.160217 
z"/>
<path fill="#ECD1AA" opacity="1.000000" stroke="none" 
	d="
M467.106049,436.448242 
	C460.954773,436.889954 454.792480,436.993744 448.630096,436.997223 
	C390.483429,437.029846 332.336761,437.045288 273.740051,437.085144 
	C273.224762,417.386475 273.159546,397.668304 273.183899,377.492340 
	C273.520386,378.986481 273.973114,380.937561 273.981293,382.890533 
	C274.041901,397.381165 274.009277,411.872223 274.016327,426.363129 
	C274.019562,432.980652 274.030243,433.000336 280.562164,433.000519 
	C342.356720,433.002258 404.151245,432.996796 466.405518,432.996613 
	C466.941803,434.021149 467.018402,435.042480 467.106049,436.448242 
z"/>
<path fill="#E5F4F1" opacity="1.000000" stroke="none" 
	d="
M273.208954,457.427002 
	C275.737396,457.353943 278.177795,457.963928 280.618683,457.966156 
	C339.771027,458.019989 398.923401,458.009064 458.075775,458.009796 
	C459.869934,458.009827 461.664062,458.009766 463.458221,458.009766 
	C463.451477,458.308197 463.444763,458.606659 463.438019,458.905090 
	C400.871735,458.905090 338.305450,458.905090 275.739166,458.905090 
	C275.722443,459.275360 275.705719,459.645660 275.688995,460.015930 
	C277.323608,460.015930 278.958191,460.015961 280.592804,460.015961 
	C339.911804,460.016083 399.230835,459.997284 458.549744,460.072479 
	C461.484894,460.076202 464.418976,460.897980 467.662506,461.548828 
	C467.312164,461.832153 466.652893,461.969727 465.993622,461.969696 
	C402.028870,461.966675 338.064087,461.953156 273.641388,461.927856 
	C273.162659,460.552521 273.141907,459.189728 273.208954,457.427002 
z"/>
<path fill="#E5F4F1" opacity="1.000000" stroke="none" 
	d="
M471.196289,437.744995 
	C469.995422,437.851746 468.744293,437.621857 467.283691,437.153290 
	C468.431488,437.079193 469.788788,437.243774 471.196289,437.744995 
z"/>
<path fill="#E5F4F1" opacity="1.000000" stroke="none" 
	d="
M471.542664,440.767456 
	C470.690979,440.977509 469.923523,440.901337 469.156036,440.825195 
	C469.148254,440.620544 469.140442,440.415894 469.132660,440.211243 
	C469.710663,440.123871 470.288666,440.036530 471.124146,439.943268 
	C471.463379,440.118683 471.545105,440.299957 471.542664,440.767456 
z"/>
<path fill="#B2B8A0" opacity="1.000000" stroke="none" 
	d="
M172.337524,460.138306 
	C172.630356,460.386169 172.751572,460.789062 172.857330,461.515717 
	C172.841843,461.839447 172.411087,461.784729 172.208405,461.710541 
	C172.059113,461.188690 172.112503,460.741058 172.337524,460.138306 
z"/>
<path fill="#E5F4F1" opacity="1.000000" stroke="none" 
	d="
M471.406799,459.373352 
	C471.219147,459.261383 471.194916,458.930359 471.262329,458.367126 
	C471.426086,458.474701 471.498169,458.814484 471.406799,459.373352 
z"/>
<path fill="#E5F4F1" opacity="1.000000" stroke="none" 
	d="
M470.297150,461.784851 
	C470.211609,461.464478 470.469299,461.265808 471.016693,461.071167 
	C471.033569,461.286407 470.811584,461.563507 470.297150,461.784851 
z"/>
<path fill="#055959" opacity="1.000000" stroke="none" 
	d="
M300.825256,279.050262 
	C300.626251,275.696411 302.976471,276.026733 305.146515,276.028076 
	C321.132782,276.037964 337.119019,276.029114 353.105286,276.034821 
	C384.744476,276.046051 416.383698,276.062866 448.405579,276.587311 
	C446.816162,277.772858 444.845551,279.032928 442.871674,279.038055 
	C399.558716,279.150665 356.245453,279.124084 312.932220,279.124084 
	C310.881073,279.124084 308.829926,279.124084 306.778778,279.124084 
	C306.780884,279.375305 306.782990,279.626526 306.785095,279.877747 
	C308.428192,279.877747 310.071289,279.877747 311.714386,279.877716 
	C354.194672,279.876953 396.674957,279.849304 439.155182,279.893402 
	C450.329224,279.904999 448.841766,278.538940 448.877930,289.800995 
	C448.988739,324.282135 449.021606,358.763519 448.762604,393.519592 
	C399.959259,393.784698 351.478088,393.775085 302.821716,393.582397 
	C302.173248,393.242828 301.699982,393.086273 301.226715,392.929749 
	C301.226715,392.929749 301.014435,392.861603 301.004700,392.477875 
	C301.001678,381.967072 301.029755,371.839935 301.010895,361.712891 
	C300.959625,334.158691 300.888550,306.604462 300.825256,279.050262 
M436.808685,384.937164 
	C437.885254,384.853546 438.961823,384.769928 440.402893,384.690125 
	C440.674561,384.542450 440.733551,384.334442 440.767883,383.138214 
	C440.719208,370.426422 440.670532,357.714630 440.792786,344.116608 
	C440.732422,341.705017 440.672028,339.293457 440.784119,336.172974 
	C440.771942,335.446198 440.759766,334.719391 440.946625,333.404022 
	C440.890503,332.791504 440.834412,332.178955 440.849518,330.886383 
	C440.757477,330.444672 440.665436,330.002960 440.808441,328.857635 
	C440.781433,325.903015 440.754425,322.948395 440.818634,319.061493 
	C440.790680,311.716003 440.762695,304.370483 440.946320,296.218933 
	C440.903412,294.832123 440.860535,293.445312 440.879639,291.170776 
	C440.879639,289.255859 440.879639,287.340973 440.879639,285.384552 
	C420.181915,285.384552 400.302979,285.384552 380.124298,285.384552 
	C380.124298,289.223969 380.124298,292.679260 379.962158,297.042847 
	C379.984833,310.363190 380.007507,323.683502 379.886169,337.931061 
	C379.938019,346.942383 379.989838,355.953705 379.880554,365.852783 
	C379.958679,368.251099 380.036804,370.649414 379.955139,373.924652 
	C380.008881,376.591705 380.062622,379.258759 379.993896,382.769043 
	C381.749390,387.083099 385.310181,384.210175 388.828918,384.926483 
	C390.218048,384.882965 391.607178,384.839447 393.924683,384.937744 
	C407.951569,384.890411 421.978424,384.843079 436.808685,384.937164 
M310.034790,371.663666 
	C310.064941,372.110138 310.095093,372.556610 309.999847,373.865234 
	C310.056549,375.891785 310.113220,377.918365 310.010498,380.815735 
	C310.089966,382.080536 310.169464,383.345306 310.248962,384.610413 
	C330.597382,384.610413 350.586578,384.610413 370.815308,384.610413 
	C370.815308,368.164093 370.815308,352.081024 370.997040,335.075806 
	C370.928558,320.104584 370.860077,305.133392 370.925385,289.294983 
	C371.565674,285.524963 369.540436,284.926392 366.312714,284.947235 
	C349.339752,285.056885 332.365753,284.990479 315.392090,285.009857 
	C313.777496,285.011688 312.163116,285.183899 310.086090,285.303711 
	C310.086090,289.421814 310.086090,293.203400 310.001007,297.920776 
	C310.037018,310.613220 310.073029,323.305695 309.997375,336.929840 
	C310.033722,345.616119 310.070099,354.302368 309.944336,363.652466 
	C310.014862,364.100586 310.085388,364.548706 310.054504,365.851654 
	C310.100250,367.569336 310.145996,369.287048 310.034790,371.663666 
z"/>
<path fill="#F9F9F7" opacity="1.000000" stroke="none" 
	d="
M302.996887,393.765472 
	C351.478088,393.775085 399.959259,393.784698 448.998840,393.486847 
	C449.557251,393.179352 450.006653,393.021332 450.006653,393.021332 
	C454.621857,392.495270 456.223206,394.814972 455.988556,399.133545 
	C455.827911,402.089569 455.952606,405.061127 455.507965,408.488586 
	C401.710785,408.967621 348.355408,408.983795 295.000000,409.000000 
	C295.000000,404.044434 295.000000,399.088867 295.000000,393.864868 
	C297.097229,393.864868 298.681885,393.864868 300.988403,393.887268 
	C302.139160,393.861633 302.568024,393.813568 302.996887,393.765472 
z"/>
<path fill="#E9B978" opacity="1.000000" stroke="none" 
	d="
M295.004211,409.432983 
	C348.355408,408.983795 401.710785,408.967621 455.535339,408.949585 
	C456.652344,414.046387 454.336304,415.234802 449.412262,415.216553 
	C399.918213,415.032990 350.423157,415.079956 300.928558,415.166809 
	C297.026886,415.173676 294.214691,414.737335 295.004211,409.432983 
z"/>
<path fill="#376B5F" opacity="1.000000" stroke="none" 
	d="
M449.931152,392.555786 
	C450.006653,393.021332 449.557251,393.179352 449.320984,393.212097 
	C449.021606,358.763519 448.988739,324.282135 448.877930,289.800995 
	C448.841766,278.538940 450.329224,279.904999 439.155182,279.893402 
	C396.674957,279.849304 354.194672,279.876953 311.714386,279.877716 
	C310.071289,279.877747 308.428192,279.877747 306.785095,279.877747 
	C306.782990,279.626526 306.780884,279.375305 306.778778,279.124084 
	C308.829926,279.124084 310.881073,279.124084 312.932220,279.124084 
	C356.245453,279.124084 399.558716,279.150665 442.871674,279.038055 
	C444.845551,279.032928 446.816162,277.772858 448.852417,276.717957 
	C449.215576,278.230560 449.772278,280.121948 449.775635,282.014343 
	C449.841003,318.706238 449.841675,355.398285 449.931152,392.555786 
z"/>
<path fill="#0B504B" opacity="1.000000" stroke="none" 
	d="
M172.802582,280.446472 
	C173.271118,281.724274 173.950363,283.460938 173.952408,285.198395 
	C174.009781,334.094147 174.002655,382.989929 173.980286,431.885742 
	C173.979614,433.362366 173.702484,434.838837 173.329803,436.661926 
	C172.992218,435.914520 172.879089,434.820618 172.633636,433.334717 
	C172.549332,398.381866 172.598877,363.821014 172.644699,329.260162 
	C172.666077,313.141998 172.680237,297.023865 172.802582,280.446472 
z"/>
<path fill="#FDDBD5" opacity="1.000000" stroke="none" 
	d="
M300.616394,279.399658 
	C300.888550,306.604462 300.959625,334.158691 301.010895,361.712891 
	C301.029755,371.839935 301.001678,381.967072 300.929077,392.559784 
	C300.575867,391.424866 300.039948,389.824677 300.037720,388.223724 
	C299.989777,353.376129 299.996857,318.528442 300.018433,283.680756 
	C300.019257,282.370148 300.272125,281.059631 300.616394,279.399658 
z"/>
<path fill="#ECD1AA" opacity="1.000000" stroke="none" 
	d="
M273.473450,359.622253 
	C273.214874,333.626862 273.152435,307.272278 273.178253,280.454987 
	C273.515228,281.277893 273.978546,282.563141 273.980774,283.849152 
	C274.022705,308.166718 274.013489,332.484375 273.994751,356.802032 
	C273.994110,357.622406 273.782745,358.442688 273.473450,359.622253 
z"/>
<path fill="#ECD1AA" opacity="1.000000" stroke="none" 
	d="
M273.448669,372.636169 
	C273.196320,370.285065 273.140411,367.607574 273.174622,364.494263 
	C273.391510,366.808868 273.518280,369.559357 273.448669,372.636169 
z"/>
<path fill="#376B5F" opacity="1.000000" stroke="none" 
	d="
M302.821716,393.582397 
	C302.568024,393.813568 302.139160,393.861633 301.381836,393.865356 
	C301.053345,393.821045 301.087494,393.364929 301.157104,393.147339 
	C301.699982,393.086273 302.173248,393.242828 302.821716,393.582397 
z"/>
<path fill="#B2B8A0" opacity="1.000000" stroke="none" 
	d="
M173.793732,275.944244 
	C173.812347,276.226746 173.578995,276.350769 173.098450,276.346375 
	C173.038742,276.019501 173.268921,275.875458 173.793732,275.944244 
z"/>
<path fill="#ECD1AA" opacity="1.000000" stroke="none" 
	d="
M273.371155,277.898254 
	C273.211884,277.841492 273.160675,277.674622 273.170410,277.253082 
	C273.523346,277.202454 273.605957,277.465698 273.371155,277.898254 
z"/>
<path fill="#9C0424" opacity="1.000000" stroke="none" 
	d="
M406.676300,242.616211 
	C401.699158,255.926422 391.734589,261.748657 380.368591,257.825684 
	C373.840546,255.572525 369.506592,251.058182 367.268738,243.680084 
	C367.018799,237.686722 367.036652,232.386429 367.520203,227.076782 
	C380.712036,227.008026 393.438141,226.948608 406.326111,226.957336 
	C406.487915,227.025482 406.829071,227.108871 406.762146,227.563995 
	C406.688934,232.884811 406.682617,237.750504 406.676300,242.616211 
z"/>
<path fill="#9C0424" opacity="1.000000" stroke="none" 
	d="
M326.694031,243.798447 
	C320.799164,257.094604 310.110382,262.158020 298.707214,257.055725 
	C293.060089,254.528946 289.574524,250.134247 287.463226,243.629608 
	C287.210876,237.650986 287.211761,232.376511 287.668243,227.077057 
	C300.990295,227.038803 313.856750,227.025528 326.813080,227.471176 
	C326.833313,233.219543 326.763672,238.509003 326.694031,243.798447 
z"/>
<path fill="#9C0424" opacity="1.000000" stroke="none" 
	d="
M247.196228,241.165161 
	C245.504623,250.137360 240.599365,256.289215 231.489380,258.374329 
	C223.664383,260.165344 216.965881,257.717743 211.936813,251.599777 
	C210.012756,249.259109 209.117416,246.072830 207.549545,242.529663 
	C207.497330,236.836365 207.648849,231.885330 208.215912,226.964294 
	C221.385986,226.987152 234.140518,226.979996 246.992447,227.430542 
	C247.125305,232.313873 247.160767,236.739517 247.196228,241.165161 
z"/>
<path fill="#DDE4E4" opacity="1.000000" stroke="none" 
	d="
M326.984314,244.025970 
	C326.763672,238.509003 326.833313,233.219543 326.910736,227.435577 
	C326.918518,226.941055 327.123840,226.908371 327.584503,226.941528 
	C340.888184,226.917526 353.731201,226.860382 366.697876,226.867813 
	C366.821564,226.932388 367.054474,227.086121 367.054474,227.086121 
	C367.036652,232.386429 367.018799,237.686722 367.004364,243.443665 
	C365.638458,246.151520 364.431335,248.522354 362.873322,250.634384 
	C353.328278,263.573944 333.481262,260.636322 328.341034,245.929291 
	C328.128357,245.320770 327.636383,244.809875 326.984314,244.025970 
z"/>
<path fill="#DDE4E4" opacity="1.000000" stroke="none" 
	d="
M247.379974,241.452240 
	C247.160767,236.739517 247.125305,232.313873 247.107330,227.423904 
	C247.124817,226.959579 247.353027,226.989288 247.799347,226.991516 
	C261.109924,226.989029 273.974182,226.984329 286.935730,226.998810 
	C287.033020,227.017990 287.212646,227.102036 287.212646,227.102036 
	C287.211761,232.376511 287.210876,237.650986 287.225616,243.376755 
	C285.624756,246.475632 284.370972,249.453217 282.320923,251.706284 
	C277.069275,257.478027 270.368988,260.233124 262.636230,258.300079 
	C254.158203,256.180725 249.172104,250.370148 247.379974,241.452240 
z"/>
<path fill="#DDE4E5" opacity="1.000000" stroke="none" 
	d="
M406.826172,242.974960 
	C406.682617,237.750504 406.688934,232.884811 407.240448,227.531250 
	C420.543488,226.991959 433.301331,226.940536 446.059143,226.889099 
	C446.059143,226.889099 446.218079,226.843521 446.144592,227.257065 
	C446.202881,229.059830 446.334625,230.449066 446.466370,231.838287 
	C446.527405,234.917023 446.588440,237.995743 446.626495,241.532776 
	C444.098877,249.733185 440.098358,255.965790 431.474670,258.050873 
	C421.848236,260.378418 413.213196,256.419586 408.852783,247.380005 
	C408.206909,246.041046 407.600647,244.682953 406.826172,242.974960 
z"/>
<path fill="#DDE4E5" opacity="1.000000" stroke="none" 
	d="
M207.800385,226.934280 
	C207.648849,231.885330 207.497330,236.836365 207.345398,242.234772 
	C205.065552,247.455688 203.198257,252.449188 198.251160,255.401245 
	C191.612946,259.362427 184.602753,260.391083 177.935669,256.526093 
	C172.073547,253.127762 167.658829,248.117096 167.993500,240.434753 
	C168.174438,236.281555 167.954590,232.110916 167.798492,227.515839 
	C167.681458,227.083542 167.689789,226.872406 168.269226,226.923248 
	C181.597900,226.945465 194.347137,226.916840 207.271347,226.915436 
	C207.446320,226.942688 207.800385,226.934280 207.800385,226.934280 
z"/>
<path fill="#F30944" opacity="1.000000" stroke="none" 
	d="
M326.820862,226.976654 
	C313.856750,227.025528 300.990295,227.038803 287.668243,227.077057 
	C287.212646,227.102036 287.033020,227.017990 287.021851,226.546967 
	C287.678070,210.375641 288.345459,194.675339 289.012878,178.975037 
	C300.734589,178.890915 312.456299,178.806793 324.548950,179.318207 
	C325.654541,195.578598 326.389191,211.243484 327.123840,226.908371 
	C327.123840,226.908371 326.918518,226.941055 326.820862,226.976654 
z"/>
<path fill="#F30944" opacity="1.000000" stroke="none" 
	d="
M247.009933,226.966217 
	C234.140518,226.979996 221.385986,226.987152 208.215912,226.964294 
	C207.800385,226.934280 207.446320,226.942688 207.420975,226.571106 
	C210.674545,211.224136 213.953461,196.248749 217.232376,181.273376 
	C218.359085,180.316833 219.472137,178.549500 220.614594,178.530273 
	C231.029083,178.355103 241.448761,178.476089 251.866577,178.555374 
	C252.279449,178.558502 252.688873,179.011673 253.216019,179.931793 
	C253.312576,181.088882 253.293015,181.569336 253.175385,182.266937 
	C253.077316,182.484070 253.190186,182.947037 253.099670,183.367615 
	C251.123779,198.188553 249.238388,212.588928 247.353027,226.989288 
	C247.353027,226.989288 247.124817,226.959579 247.009933,226.966217 
z"/>
<path fill="#F20944" opacity="1.000000" stroke="none" 
	d="
M367.520203,227.076782 
	C367.054474,227.086121 366.821564,226.932388 366.754028,226.431427 
	C364.631104,210.910965 362.575775,195.891464 360.601227,180.668152 
	C360.728882,180.127472 360.598511,179.886230 360.368774,179.584824 
	C360.446655,179.429031 360.350250,179.094269 360.350250,179.094269 
	C366.894470,178.864838 373.437195,178.536789 379.983398,178.437683 
	C385.078247,178.360565 390.177429,178.568573 395.652863,179.224976 
	C396.107941,180.450607 396.130432,181.113007 396.269714,181.749847 
	C399.560272,196.797958 402.863434,211.843323 406.164276,226.889191 
	C393.438141,226.948608 380.712036,227.008026 367.520203,227.076782 
z"/>
<path fill="#FAF9F9" opacity="1.000000" stroke="none" 
	d="
M406.326111,226.957336 
	C402.863434,211.843323 399.560272,196.797958 396.269714,181.749847 
	C396.130432,181.113007 396.107941,180.450607 396.023865,179.400787 
	C407.608673,179.010574 419.200714,179.019714 431.240997,179.033356 
	C436.499725,194.734375 441.310181,210.430893 446.089905,226.508255 
	C433.301331,226.940536 420.543488,226.991959 407.307373,227.076126 
	C406.829071,227.108871 406.487915,227.025482 406.326111,226.957336 
z"/>
<path fill="#FAF9F9" opacity="1.000000" stroke="none" 
	d="
M217.089264,180.926300 
	C213.953461,196.248749 210.674545,211.224136 207.246002,226.543854 
	C194.347137,226.916840 181.597900,226.945465 168.374435,226.932938 
	C172.581436,211.493652 177.262680,196.095520 182.075134,180.336212 
	C186.786224,179.624100 191.361099,179.169739 195.947220,178.949081 
	C201.397766,178.686859 206.861374,178.463898 212.311783,178.579422 
	C213.869995,178.612442 215.402084,179.878555 217.089264,180.926300 
z"/>
<path fill="#FAF9F9" opacity="1.000000" stroke="none" 
	d="
M253.273438,182.049789 
	C253.293015,181.569336 253.312576,181.088882 253.462585,180.269714 
	C256.335388,179.594864 259.074249,179.006973 261.820740,178.969086 
	C270.570312,178.848404 279.322723,178.932297 288.543457,178.956085 
	C288.345459,194.675339 287.678070,210.375641 286.924561,226.527802 
	C273.974182,226.984329 261.109924,226.989029 247.799332,226.991516 
	C249.238388,212.588928 251.123779,198.188553 253.222473,183.288910 
	C253.608398,182.492233 253.554276,182.245621 253.273438,182.049789 
z"/>
<path fill="#FAF9F9" opacity="1.000000" stroke="none" 
	d="
M359.976318,178.977631 
	C360.350250,179.094269 360.446655,179.429031 360.295929,179.784973 
	C360.131226,180.455887 360.256287,180.699570 360.520416,180.871948 
	C362.575775,195.891464 364.631104,210.910965 366.630341,226.366852 
	C353.731201,226.860382 340.888184,226.917526 327.584534,226.941528 
	C326.389191,211.243484 325.654541,195.578598 324.931519,179.447144 
	C336.496246,178.940720 348.049316,178.900864 359.976318,178.977631 
z"/>
<path fill="#588586" opacity="1.000000" stroke="none" 
	d="
M238.940460,444.810120 
	C224.635208,444.809265 210.819809,444.850159 197.004868,444.790588 
	C190.152954,444.761017 189.228149,443.836334 189.205780,436.979736 
	C189.181366,429.498199 189.176315,422.007904 189.563370,414.542206 
	C189.629105,413.274200 191.698883,411.066803 192.861938,411.054199 
	C212.833252,410.837311 232.808060,410.844757 252.779846,411.038330 
	C253.879044,411.048950 255.869965,413.086090 255.902466,414.223999 
	C256.158936,423.204285 256.177765,432.199982 255.874374,441.177521 
	C255.833191,442.396454 253.694763,444.414825 252.364212,444.559235 
	C248.094177,445.022614 243.747574,444.780426 238.940460,444.810120 
z"/>
<path fill="#DAEFE3" opacity="1.000000" stroke="none" 
	d="
M189.653778,374.857666 
	C189.650253,365.598877 189.646729,356.340057 190.102112,346.604095 
	C191.869797,345.415558 193.285309,344.848206 194.470490,343.970032 
	C203.957901,336.940063 213.449432,329.913818 222.836105,322.750671 
	C226.748001,319.765442 230.408295,316.450531 234.535065,313.209808 
	C236.714508,312.079163 238.618805,311.136658 240.354874,309.948364 
	C245.615097,306.347839 250.810135,302.652039 256.030579,298.993378 
	C256.061523,308.014923 256.092468,317.036438 255.759323,326.694000 
	C245.816910,334.445923 236.205414,341.517670 226.670288,348.690948 
	C218.198746,355.064087 209.906723,361.679871 201.343063,367.924744 
	C197.699142,370.581970 193.565079,372.567078 189.653778,374.857666 
z"/>
<path fill="#9ED8C0" opacity="1.000000" stroke="none" 
	d="
M255.892731,343.929260 
	C255.892731,360.826691 255.892731,377.724091 255.892731,394.941803 
	C254.480789,395.088165 253.214111,395.331726 251.947006,395.334015 
	C232.683533,395.368530 213.419983,395.365143 194.156494,395.389893 
	C191.762909,395.392975 189.262115,395.658081 189.962891,391.580688 
	C191.800461,390.488647 193.295013,390.084747 194.451324,389.225677 
	C206.136307,380.544128 217.721817,371.728394 229.425629,363.072571 
	C238.179291,356.598572 247.065521,350.303802 255.892731,343.929260 
z"/>
<path fill="#59BF9A" opacity="1.000000" stroke="none" 
	d="
M256.097290,298.579712 
	C250.810135,302.652039 245.615097,306.347839 240.354874,309.948364 
	C238.618805,311.136658 236.714508,312.079163 234.059097,313.110748 
	C218.711594,313.127747 204.192154,313.168060 189.672699,313.208374 
	C189.554916,308.398987 189.477585,303.588135 189.304260,298.780762 
	C189.199707,295.880707 190.724197,295.121765 193.334122,295.128143 
	C213.109207,295.176514 232.884933,295.103088 252.658493,295.283325 
	C253.835663,295.294006 254.995911,297.162201 256.097290,298.579712 
z"/>
<path fill="#9FD8C0" opacity="1.000000" stroke="none" 
	d="
M189.581421,313.654083 
	C204.192154,313.168060 218.711594,313.127747 233.707016,313.186493 
	C230.408295,316.450531 226.748001,319.765442 222.836105,322.750671 
	C213.449432,329.913818 203.957901,336.940063 194.470490,343.970032 
	C193.285309,344.848206 191.869797,345.415558 190.249481,346.172821 
	C189.788666,335.512421 189.639404,324.806122 189.581421,313.654083 
z"/>
<path fill="#A1D8C1" opacity="1.000000" stroke="none" 
	d="
M189.525345,375.309509 
	C193.565079,372.567078 197.699142,370.581970 201.343063,367.924744 
	C209.906723,361.679871 218.198746,355.064087 226.670288,348.690948 
	C236.205414,341.517670 245.816910,334.445923 255.681686,327.155945 
	C256.018616,329.701141 256.069061,332.420349 255.747543,335.747253 
	C241.191376,346.786194 227.027527,357.245239 212.814774,367.637451 
	C205.210892,373.197296 197.522705,378.641815 189.872574,384.138397 
	C189.714020,381.346039 189.555466,378.553680 189.525345,375.309509 
z"/>
<path fill="#D7EEE2" opacity="1.000000" stroke="none" 
	d="
M189.733826,384.508545 
	C197.522705,378.641815 205.210892,373.197296 212.814774,367.637451 
	C227.027527,357.245239 241.191376,346.786194 255.668472,336.194305 
	C255.996902,338.378906 256.032440,340.724182 255.980347,343.499329 
	C247.065521,350.303802 238.179291,356.598572 229.425629,363.072571 
	C217.721817,371.728394 206.136307,380.544128 194.451324,389.225677 
	C193.295013,390.084747 191.800461,390.488647 190.075256,391.139343 
	C189.656738,389.076141 189.625900,386.977417 189.733826,384.508545 
z"/>
<path fill="#EAC42F" opacity="1.000000" stroke="none" 
	d="
M260.607056,372.285858 
	C258.442169,369.039764 258.602478,365.837311 261.446533,364.088226 
	C263.294373,362.951843 266.734894,362.705627 268.537933,363.713470 
	C270.086243,364.578979 271.190674,367.884155 270.964996,369.943207 
	C270.458771,374.562439 265.739075,375.614319 260.607056,372.285858 
z"/>
<path fill="#EDC592" opacity="1.000000" stroke="none" 
	d="
M446.611389,231.472916 
	C446.334625,230.449066 446.202881,229.059830 446.176025,227.333527 
	C446.280914,226.996429 446.612152,227.052414 446.771667,227.106323 
	C446.872925,228.475998 446.814667,229.791763 446.611389,231.472916 
z"/>
<path fill="#DAEFE3" opacity="1.000000" stroke="none" 
	d="
M310.106445,362.988647 
	C310.070099,354.302368 310.033722,345.616119 310.286438,336.235291 
	C319.273926,328.917664 327.991547,322.319611 336.665192,315.664246 
	C344.791138,309.429138 352.870483,303.133301 361.299255,296.786469 
	C364.075958,295.117554 366.523712,293.526337 369.253052,292.253815 
	C369.353638,302.040680 369.172607,311.508881 368.676331,321.113586 
	C367.215057,322.796844 366.069000,324.343567 364.950317,325.935120 
	C364.977692,325.979980 364.888672,325.923950 364.513367,325.884583 
	C363.082825,326.240082 361.890686,326.438507 360.995361,327.062683 
	C356.288635,330.344208 351.656891,333.733337 346.701050,337.140015 
	C345.912872,337.781158 345.422821,338.367401 344.964508,338.973206 
	C344.996246,338.992737 344.954742,338.930756 344.646545,338.995056 
	C343.532562,339.694580 342.726776,340.329803 341.650696,341.098267 
	C340.589386,341.827606 339.798370,342.423676 338.750793,343.149597 
	C337.988739,343.839905 337.483215,344.400421 336.666138,345.089539 
	C334.569550,346.500702 332.784454,347.783234 330.701324,349.126587 
	C329.918274,349.785400 329.433319,350.383423 328.644592,351.141846 
	C323.893402,354.558807 319.445984,357.815338 314.669617,361.120728 
	C312.929260,361.775940 311.517853,362.382294 310.106445,362.988647 
z"/>
<path fill="#DAEFE4" opacity="1.000000" stroke="none" 
	d="
M440.734741,297.024994 
	C440.762695,304.370483 440.790680,311.716003 440.496338,319.694885 
	C428.144897,329.376129 416.149750,338.469757 404.074463,347.455627 
	C396.123322,353.372437 388.056641,359.133972 380.041687,364.965027 
	C379.989838,355.953705 379.938019,346.942383 380.206238,337.249664 
	C382.449524,334.995422 384.317566,333.348969 386.304535,331.861359 
	C402.227295,319.940613 418.172516,308.049866 434.398621,295.998413 
	C436.110382,294.847260 437.534424,293.847626 439.193054,293.087769 
	C439.863373,294.559998 440.299042,295.792511 440.734741,297.024994 
z"/>
<path fill="#9DD7BF" opacity="1.000000" stroke="none" 
	d="
M370.815308,335.997925 
	C370.815308,352.081024 370.815308,368.164093 370.815308,384.610413 
	C350.586578,384.610413 330.597382,384.610413 310.248962,384.610413 
	C310.169464,383.345306 310.089966,382.080536 310.415985,380.306793 
	C317.336334,374.991425 323.866180,370.205139 330.362915,365.374359 
	C343.541534,355.575043 356.702209,345.751678 370.106842,335.957275 
	C370.343414,335.976349 370.815308,335.997925 370.815308,335.997925 
z"/>
<path fill="#9DD7C0" opacity="1.000000" stroke="none" 
	d="
M434.110870,296.149933 
	C418.172516,308.049866 402.227295,319.940613 386.304535,331.861359 
	C384.317566,333.348969 382.449524,334.995422 380.278259,336.786072 
	C380.007507,323.683502 379.984833,310.363190 380.503693,296.574188 
	C398.733765,296.120331 416.422333,296.135132 434.110870,296.149933 
z"/>
<path fill="#9DD8BF" opacity="1.000000" stroke="none" 
	d="
M360.970306,296.864166 
	C352.870483,303.133301 344.791138,309.429138 336.665192,315.664246 
	C327.991547,322.319611 319.273926,328.917664 310.342285,335.769409 
	C310.073029,323.305695 310.037018,310.613220 310.414154,297.277466 
	C311.633270,296.454742 312.438934,296.120697 313.245300,296.118958 
	C328.209198,296.086670 343.173279,296.079987 358.137146,296.125946 
	C359.082275,296.128845 360.025940,296.607086 360.970306,296.864166 
z"/>
<path fill="#9FD8C0" opacity="1.000000" stroke="none" 
	d="
M392.996307,384.795929 
	C391.607178,384.839447 390.218048,384.882965 388.397400,384.508423 
	C386.560364,382.663666 385.154785,381.237000 383.932861,379.526550 
	C395.740356,370.491852 407.364258,361.740997 419.204346,353.242737 
	C419.111053,355.339417 418.801605,357.183411 418.411194,359.509796 
	C420.057922,359.860413 421.696381,360.209229 423.692444,360.634186 
	C423.607727,359.354279 423.345947,358.632904 423.562256,358.108917 
	C424.517944,355.793701 425.154724,352.024719 426.741913,351.545135 
	C431.150940,350.212860 433.925812,352.948303 433.987183,357.509613 
	C434.040771,361.492645 433.817841,365.489624 434.093170,369.454315 
	C434.201050,371.007812 435.333160,372.490143 435.999115,374.432648 
	C435.999634,376.572784 435.999817,378.285187 435.615601,380.066589 
	C431.162170,380.757050 427.106628,381.777985 423.021210,381.916199 
	C414.715759,382.197205 406.388885,381.846619 398.083496,382.128876 
	C396.359528,382.187469 394.690613,383.864685 392.996307,384.795929 
z"/>
<path fill="#5AC39B" opacity="1.000000" stroke="none" 
	d="
M434.398621,295.998413 
	C416.422333,296.135132 398.733765,296.120331 380.584778,296.120056 
	C380.124298,292.679260 380.124298,289.223969 380.124298,285.384552 
	C400.302979,285.384552 420.181915,285.384552 440.879639,285.384552 
	C440.879639,287.340973 440.879639,289.255859 440.583313,291.631653 
	C439.844147,292.344330 439.401306,292.596161 438.958466,292.847992 
	C437.534424,293.847626 436.110382,294.847260 434.398621,295.998413 
z"/>
<path fill="#5BC39C" opacity="1.000000" stroke="none" 
	d="
M361.299255,296.786469 
	C360.025940,296.607086 359.082275,296.128845 358.137146,296.125946 
	C343.173279,296.079987 328.209198,296.086670 313.245300,296.118958 
	C312.438934,296.120697 311.633270,296.454742 310.456696,296.809540 
	C310.086090,293.203400 310.086090,289.421814 310.086090,285.303711 
	C312.163116,285.183899 313.777496,285.011688 315.392090,285.009857 
	C332.365753,284.990479 349.339752,285.056885 366.312714,284.947235 
	C369.540436,284.926392 371.565674,285.524963 370.624908,289.849823 
	C369.873444,290.914795 369.422455,291.424957 368.971466,291.935120 
	C366.523712,293.526337 364.075958,295.117554 361.299255,296.786469 
z"/>
<path fill="#9DD5BD" opacity="1.000000" stroke="none" 
	d="
M379.961121,365.408905 
	C388.056641,359.133972 396.123322,353.372437 404.074463,347.455627 
	C416.149750,338.469757 428.144897,329.376129 440.450745,320.161041 
	C440.754425,322.948395 440.781433,325.903015 440.304688,329.339539 
	C428.418610,338.179504 417.071899,346.586639 405.642212,354.879486 
	C397.189087,361.012665 388.627930,366.997040 380.114929,373.047729 
	C380.036804,370.649414 379.958679,368.251099 379.961121,365.408905 
z"/>
<path fill="#D6EEE2" opacity="1.000000" stroke="none" 
	d="
M380.035034,373.486206 
	C388.627930,366.997040 397.189087,361.012665 405.642212,354.879486 
	C417.071899,346.586639 428.418610,338.179504 440.187195,329.691345 
	C440.665436,330.002960 440.757477,330.444672 440.650024,331.511169 
	C440.549530,332.754822 440.648590,333.373718 440.747620,333.992615 
	C440.759766,334.719391 440.771942,335.446198 440.375244,336.591370 
	C432.973602,342.336578 425.980865,347.663361 418.988129,352.990112 
	C407.364258,361.740997 395.740356,370.491852 383.646179,379.607971 
	C382.156006,380.624084 381.136169,381.274933 380.116394,381.925781 
	C380.062622,379.258759 380.008881,376.591705 380.035034,373.486206 
z"/>
<path fill="#D7EEE2" opacity="1.000000" stroke="none" 
	d="
M369.870270,335.938202 
	C356.702209,345.751678 343.541534,355.575043 330.362915,365.374359 
	C323.866180,370.205139 317.336334,374.991425 310.495667,379.871399 
	C310.113220,377.918365 310.056549,375.891785 310.253357,373.233276 
	C310.733856,372.099487 310.960876,371.597687 311.520569,371.017181 
	C322.235901,363.291626 332.618561,355.644806 343.300385,347.921692 
	C344.112305,347.249084 344.625092,346.652740 345.471161,345.980438 
	C353.195221,340.304657 360.585999,334.704865 368.348755,329.193359 
	C369.103943,331.500488 369.487122,333.719330 369.870270,335.938202 
z"/>
<path fill="#9DD7BF" opacity="1.000000" stroke="none" 
	d="
M343.001221,347.997986 
	C332.618561,355.644806 322.235901,363.291626 311.271240,370.988861 
	C310.689240,371.039276 310.191742,371.004730 310.191742,371.004730 
	C310.145996,369.287048 310.100250,367.569336 310.445435,365.401215 
	C312.223755,363.657806 313.611145,362.364838 314.998535,361.071869 
	C319.445984,357.815338 323.893402,354.558807 328.947235,351.079163 
	C330.035553,350.259308 330.517487,349.662567 330.999390,349.065796 
	C332.784454,347.783234 334.569550,346.500702 336.882874,345.263367 
	C337.943207,344.545624 338.475281,343.782684 339.007355,343.019775 
	C339.798370,342.423676 340.589386,341.827606 342.001373,341.091492 
	C343.399811,340.277863 344.177277,339.604309 344.954742,338.930756 
	C344.954742,338.930756 344.996246,338.992737 345.267822,338.919434 
	C346.025970,338.259125 346.512573,337.672150 346.999146,337.085144 
	C351.656891,333.733337 356.288635,330.344208 360.995361,327.062683 
	C361.890686,326.438507 363.082825,326.240082 364.589569,326.130371 
	C365.364716,326.719818 365.688324,327.024078 366.011932,327.328339 
	C366.115540,327.212250 366.219177,327.096161 366.322815,326.980072 
	C365.856201,326.616821 365.389587,326.253571 364.922974,325.890320 
	C366.069000,324.343567 367.215057,322.796844 368.679138,321.536255 
	C368.657013,324.250000 368.316895,326.677521 367.976776,329.105072 
	C360.585999,334.704865 353.195221,340.304657 345.153564,346.031311 
	C344.002197,346.771454 343.501709,347.384735 343.001221,347.997986 
z"/>
<path fill="#9DD5BD" opacity="1.000000" stroke="none" 
	d="
M419.204346,353.242737 
	C425.980865,347.663361 432.973602,342.336578 440.289001,336.945831 
	C440.672028,339.293457 440.732422,341.705017 440.309662,344.562195 
	C436.645477,344.707581 435.944275,346.483673 435.973419,349.255432 
	C436.060272,357.504425 436.000977,365.754944 435.998779,374.004883 
	C435.333160,372.490143 434.201050,371.007812 434.093170,369.454315 
	C433.817841,365.489624 434.040771,361.492645 433.987183,357.509613 
	C433.925812,352.948303 431.150940,350.212860 426.741913,351.545135 
	C425.154724,352.024719 424.517944,355.793701 423.562256,358.108917 
	C423.345947,358.632904 423.607727,359.354279 423.692444,360.634186 
	C421.696381,360.209229 420.057922,359.860413 418.411194,359.509796 
	C418.801605,357.183411 419.111053,355.339417 419.204346,353.242737 
z"/>
<path fill="#9CD8C0" opacity="1.000000" stroke="none" 
	d="
M435.999115,374.432648 
	C436.000977,365.754944 436.060272,357.504425 435.973419,349.255432 
	C435.944275,346.483673 436.645477,344.707581 440.224182,345.005310 
	C440.670532,357.714630 440.719208,370.426422 440.564850,383.688019 
	C440.227081,384.367859 440.119263,384.517365 440.038391,384.686310 
	C438.961823,384.769928 437.885254,384.853546 436.406067,384.466858 
	C436.002289,382.663544 436.001129,381.330566 436.000000,379.997559 
	C435.999817,378.285187 435.999634,376.572784 435.999115,374.432648 
z"/>
<path fill="#9DD5BD" opacity="1.000000" stroke="none" 
	d="
M435.615601,380.066589 
	C436.001129,381.330566 436.002289,382.663544 436.004395,384.396118 
	C421.978424,384.843079 407.951569,384.890411 393.460510,384.866821 
	C394.690613,383.864685 396.359528,382.187469 398.083496,382.128876 
	C406.388885,381.846619 414.715759,382.197205 423.021210,381.916199 
	C427.106628,381.777985 431.162170,380.757050 435.615601,380.066589 
z"/>
<path fill="#A1D8C2" opacity="1.000000" stroke="none" 
	d="
M368.348755,329.193359 
	C368.316895,326.677521 368.657013,324.250000 368.994385,321.399750 
	C369.172607,311.508881 369.353638,302.040680 369.253052,292.253815 
	C369.422455,291.424957 369.873444,290.914795 370.558044,290.283417 
	C370.860077,305.133392 370.928558,320.104584 370.906189,335.536865 
	C370.815308,335.997925 370.343414,335.976349 370.106842,335.957275 
	C369.487122,333.719330 369.103943,331.500488 368.348755,329.193359 
z"/>
<path fill="#9DD5BD" opacity="1.000000" stroke="none" 
	d="
M380.055115,382.347412 
	C381.136169,381.274933 382.156006,380.624084 383.462524,379.891785 
	C385.154785,381.237000 386.560364,382.663666 387.985840,384.435974 
	C385.310181,384.210175 381.749390,387.083099 380.055115,382.347412 
z"/>
<path fill="#A1D8C2" opacity="1.000000" stroke="none" 
	d="
M314.669617,361.120728 
	C313.611145,362.364838 312.223755,363.657806 310.496155,364.973816 
	C310.085388,364.548706 310.014862,364.100586 310.025391,363.320557 
	C311.517853,362.382294 312.929260,361.775940 314.669617,361.120728 
z"/>
<path fill="#9DD5BD" opacity="1.000000" stroke="none" 
	d="
M439.193054,293.087769 
	C439.401306,292.596161 439.844147,292.344330 440.552307,292.075500 
	C440.860535,293.445312 440.903412,294.832123 440.840515,296.621948 
	C440.299042,295.792511 439.863373,294.559998 439.193054,293.087769 
z"/>
<path fill="#A1D8C2" opacity="1.000000" stroke="none" 
	d="
M310.113281,371.334198 
	C310.191742,371.004730 310.689240,371.039276 310.938568,371.067596 
	C310.960876,371.597687 310.733856,372.099487 310.316040,372.802185 
	C310.095093,372.556610 310.064941,372.110138 310.113281,371.334198 
z"/>
<path fill="#9DD5BD" opacity="1.000000" stroke="none" 
	d="
M440.847107,333.698303 
	C440.648590,333.373718 440.549530,332.754822 440.614410,331.851196 
	C440.834412,332.178955 440.890503,332.791504 440.847107,333.698303 
z"/>
<path fill="#9DD5BD" opacity="1.000000" stroke="none" 
	d="
M440.220642,384.688232 
	C440.119263,384.517365 440.227081,384.367859 440.470825,384.151978 
	C440.733551,384.334442 440.674561,384.542450 440.220642,384.688232 
z"/>
<path fill="#F9E0C2" opacity="1.000000" stroke="none" 
	d="
M253.175385,182.266937 
	C253.554276,182.245621 253.608398,182.492233 253.312988,182.868317 
	C253.190186,182.947037 253.077316,182.484070 253.175385,182.266937 
z"/>
<path fill="#F9E0C2" opacity="1.000000" stroke="none" 
	d="
M360.601227,180.668152 
	C360.256287,180.699570 360.131226,180.455887 360.218048,179.940765 
	C360.598511,179.886230 360.728882,180.127472 360.601227,180.668152 
z"/>
<path fill="#A1D8C2" opacity="1.000000" stroke="none" 
	d="
M338.750793,343.149597 
	C338.475281,343.782684 337.943207,344.545624 337.194397,345.134766 
	C337.483215,344.400421 337.988739,343.839905 338.750793,343.149597 
z"/>
<path fill="#A1D8C2" opacity="1.000000" stroke="none" 
	d="
M344.646545,338.995056 
	C344.177277,339.604309 343.399811,340.277863 342.271667,340.958221 
	C342.726776,340.329803 343.532562,339.694580 344.646545,338.995056 
z"/>
<path fill="#A1D8C2" opacity="1.000000" stroke="none" 
	d="
M330.701324,349.126587 
	C330.517487,349.662567 330.035553,350.259308 329.251007,350.918762 
	C329.433319,350.383423 329.918274,349.785400 330.701324,349.126587 
z"/>
<path fill="#A1D8C2" opacity="1.000000" stroke="none" 
	d="
M346.701050,337.140015 
	C346.512573,337.672150 346.025970,338.259125 345.236084,338.899872 
	C345.422821,338.367401 345.912872,337.781158 346.701050,337.140015 
z"/>
<path fill="#A1D8C2" opacity="1.000000" stroke="none" 
	d="
M343.300415,347.921692 
	C343.501709,347.384735 344.002197,346.771454 344.820251,346.107300 
	C344.625092,346.652740 344.112305,347.249084 343.300415,347.921692 
z"/>
<path fill="#A1D8C2" opacity="1.000000" stroke="none" 
	d="
M364.950317,325.935150 
	C365.389587,326.253571 365.856201,326.616821 366.322815,326.980072 
	C366.219177,327.096161 366.115540,327.212250 366.011932,327.328339 
	C365.688324,327.024078 365.364716,326.719818 364.964905,326.169739 
	C364.888672,325.923950 364.977692,325.979980 364.950317,325.935150 
z"/>
</svg>