<svg width="380" height="384" viewBox="0 0 380 384" fill="none" xmlns="http://www.w3.org/2000/svg">
<g clip-path="url(#clip0_1961_24227)">
<path d="M101.5 0H-3V411L379.5 417.5V325.5C183.855 303.993 119.198 237.408 101.5 0Z" fill="#56E4DE"/>
<path d="M30.4104 0H-101V410.508L380 417V325.11C133.974 303.629 52.6662 237.124 30.4104 0Z" fill="white"/>
<path d="M-49.8 -49H-217V436.325L395 444V335.363C81.9684 309.967 -21.4829 231.34 -49.8 -49Z" fill="#F1D94A" fill-opacity="0.35"/>
<mask id="mask0_1961_24227" style="mask-type:luminance" maskUnits="userSpaceOnUse" x="-112" y="20" width="379" height="379">
<path d="M77.4199 398.118C-27.1938 398.118 -112 313.474 -112 209.059C-112 104.645 -27.1938 20 77.4199 20C182.034 20 266.84 104.645 266.84 209.059C266.84 313.474 182.034 398.118 77.4199 398.118Z" fill="white"/>
</mask>
<g mask="url(#mask0_1961_24227)">
<mask id="mask1_1961_24227" style="mask-type:luminance" maskUnits="userSpaceOnUse" x="-123" y="1" width="400" height="399">
<path d="M-122.386 1.19582H276.465V399.287H-122.386V1.19582Z" fill="white"/>
</mask>
<g mask="url(#mask1_1961_24227)">
<g opacity="0.4">
<mask id="mask2_1961_24227" style="mask-type:luminance" maskUnits="userSpaceOnUse" x="-123" y="126" width="142" height="191">
<path d="M-122.395 126.933H18.0098V316.943H-122.395V126.933Z" fill="white"/>
</mask>
<g mask="url(#mask2_1961_24227)">
<path d="M-122.395 134.455C-113.673 129.66 -103.657 126.933 -92.9954 126.933C-59.2801 126.933 -31.9465 154.211 -31.9465 187.862C-31.9465 194.906 -33.1499 201.673 -35.3485 207.967C-26.8285 208.04 -19.943 214.954 -19.943 223.476C-19.943 223.867 -19.9611 224.253 -19.9913 224.638C-9.25145 228.488 -1.57285 238.741 -1.57285 250.782C-1.57285 259.123 -5.26138 266.597 -11.0912 271.69C-8.39194 273.533 -6.6215 276.63 -6.6215 280.143C-6.6215 281.468 -6.88089 282.732 -7.33931 283.897C7.15234 287.037 18.0098 299.905 18.0098 315.311C18.0098 315.859 17.9947 316.404 17.9675 316.943H-122.395V134.455Z" fill="#7EEDAB"/>
</g>
</g>
</g>
<mask id="mask3_1961_24227" style="mask-type:luminance" maskUnits="userSpaceOnUse" x="-123" y="1" width="400" height="399">
<path d="M-122.386 1.19582H276.465V399.287H-122.386V1.19582Z" fill="white"/>
</mask>
<g mask="url(#mask3_1961_24227)">
<path d="M16.5473 320.504C16.5473 320.504 16.6016 320.254 16.6649 319.784C16.7283 319.315 16.8127 318.625 16.867 317.752C16.9273 316.879 16.9485 315.826 16.9394 314.619C16.9153 313.412 16.8459 312.054 16.7101 310.582C16.5473 309.113 16.3603 307.524 16.0436 305.862C15.8868 305.031 15.727 304.176 15.5611 303.303C15.3802 302.43 15.1931 301.545 15.0031 300.639C14.6381 298.83 14.1647 296.982 13.7183 295.094C13.2508 293.213 12.7049 291.317 12.1862 289.417C11.5921 287.536 11.0432 285.642 10.4008 283.809C10.0721 282.894 9.74929 281.988 9.42658 281.091C9.10387 280.197 8.79633 279.309 8.43743 278.457C8.09361 277.596 7.73167 276.762 7.39389 275.937C7.05309 275.119 6.72128 274.312 6.34731 273.55C5.61443 272.018 4.95396 270.561 4.25727 269.258C3.53646 267.96 2.88801 266.774 2.29085 265.739C2.00433 265.209 1.69075 264.742 1.40423 264.312C1.1147 263.876 0.852238 263.481 0.613977 263.123C-0.351128 261.702 -0.903019 260.889 -0.903019 260.889C-0.903019 260.889 -0.501883 261.786 0.20385 263.349C0.38179 263.737 0.580795 264.165 0.794928 264.631C1.01509 265.095 1.25336 265.594 1.45844 266.157C1.88369 267.268 2.39646 268.502 2.93632 269.851C3.21982 270.519 3.43392 271.254 3.69933 271.991C3.96172 272.729 4.23319 273.493 4.51066 274.279C4.80622 275.055 5.05346 275.874 5.3068 276.714C5.56617 277.548 5.81951 278.406 6.1 279.267C6.39254 280.128 6.62777 281.019 6.8781 281.919C7.12842 282.819 7.38482 283.728 7.63816 284.649C8.10563 286.494 8.58216 288.373 9.05566 290.245C9.47186 292.138 9.93938 294.014 10.3224 295.88C10.7115 297.746 11.1156 299.58 11.4383 301.365C11.6102 302.259 11.7761 303.129 11.945 303.99C12.0958 304.85 12.2405 305.693 12.3822 306.512C12.6899 308.15 12.9703 309.7 13.29 311.118C13.9083 313.962 14.5658 316.319 15.0845 317.969C15.2112 318.378 15.3379 318.749 15.4525 319.068C15.5611 319.384 15.6485 319.658 15.736 319.88C15.8988 320.32 15.9954 320.561 15.9954 320.561L16.5473 320.504Z" fill="#9BC769"/>
</g>
<mask id="mask4_1961_24227" style="mask-type:luminance" maskUnits="userSpaceOnUse" x="-123" y="1" width="400" height="399">
<path d="M-122.386 1.19582H276.465V399.287H-122.386V1.19582Z" fill="white"/>
</mask>
<g mask="url(#mask4_1961_24227)">
<path d="M240.148 328.577C240.148 328.577 240.175 328.408 240.202 328.089C240.229 327.773 240.266 327.303 240.284 326.71C240.302 326.117 240.293 325.398 240.263 324.576C240.226 323.754 240.154 322.83 240.042 321.822C239.916 320.819 239.771 319.73 239.548 318.592C239.436 318.026 239.325 317.439 239.207 316.84C239.08 316.244 238.954 315.636 238.821 315.016C238.568 313.775 238.245 312.505 237.94 311.211C237.624 309.916 237.259 308.616 236.912 307.312C236.514 306.015 236.146 304.718 235.727 303.456C235.512 302.827 235.295 302.201 235.087 301.584C234.876 300.967 234.677 300.359 234.442 299.769C234.219 299.173 233.986 298.595 233.766 298.029C233.546 297.463 233.332 296.909 233.091 296.379C232.623 295.323 232.195 294.314 231.752 293.414C231.293 292.52 230.883 291.695 230.503 290.976C230.319 290.612 230.126 290.287 229.942 289.989C229.758 289.685 229.595 289.411 229.447 289.161C228.838 288.173 228.494 287.611 228.494 287.611C228.494 287.611 228.751 288.228 229.206 289.305C229.324 289.573 229.45 289.868 229.583 290.19C229.725 290.509 229.879 290.856 230.014 291.244C230.292 292.005 230.624 292.86 230.973 293.791C231.154 294.251 231.299 294.757 231.474 295.266C231.646 295.771 231.821 296.298 232.008 296.84C232.198 297.376 232.364 297.939 232.533 298.514C232.705 299.086 232.874 299.672 233.057 300.268C233.25 300.858 233.41 301.473 233.579 302.09C233.745 302.707 233.917 303.333 234.089 303.962C234.406 305.229 234.728 306.518 235.051 307.803C235.338 309.1 235.657 310.389 235.926 311.668C236.197 312.948 236.478 314.2 236.707 315.428C236.827 316.039 236.948 316.638 237.063 317.225C237.171 317.815 237.277 318.39 237.376 318.953C237.596 320.073 237.796 321.132 238.013 322.105C238.441 324.055 238.881 325.675 239.228 326.81C239.313 327.092 239.394 327.345 239.469 327.565C239.542 327.782 239.596 327.971 239.656 328.122C239.765 328.426 239.828 328.589 239.828 328.589L240.148 328.577Z" fill="#9BC769"/>
</g>
<mask id="mask5_1961_24227" style="mask-type:luminance" maskUnits="userSpaceOnUse" x="-123" y="1" width="400" height="399">
<path d="M-122.386 1.19582H276.465V399.287H-122.386V1.19582Z" fill="white"/>
</mask>
<g mask="url(#mask5_1961_24227)">
<path d="M267.256 324.953C267.256 324.953 267.286 324.811 267.322 324.534C267.358 324.263 267.406 323.86 267.443 323.354C267.479 322.848 267.491 322.234 267.485 321.533C267.47 320.832 267.431 320.043 267.352 319.185C267.259 318.333 267.15 317.409 266.966 316.443C266.876 315.958 266.782 315.464 266.689 314.956C266.58 314.453 266.474 313.935 266.366 313.408C266.155 312.358 265.877 311.28 265.618 310.187C265.347 309.092 265.03 307.99 264.728 306.885C264.384 305.793 264.065 304.691 263.694 303.625C263.501 303.095 263.314 302.569 263.127 302.048C262.937 301.527 262.762 301.009 262.554 300.516C262.355 300.013 262.147 299.528 261.948 299.053C261.749 298.574 261.555 298.108 261.335 297.665C260.913 296.777 260.527 295.928 260.126 295.173C259.704 294.42 259.33 293.731 258.98 293.126C258.814 292.822 258.63 292.551 258.467 292.298C258.298 292.048 258.147 291.816 258.009 291.608C257.445 290.787 257.128 290.311 257.128 290.311C257.128 290.311 257.363 290.832 257.77 291.744C257.873 291.967 257.988 292.217 258.114 292.487C258.241 292.758 258.38 293.05 258.497 293.372C258.748 294.02 259.043 294.736 259.357 295.522C259.52 295.907 259.643 296.338 259.8 296.765C259.954 297.195 260.108 297.638 260.274 298.093C260.443 298.544 260.587 299.023 260.732 299.507C260.886 299.992 261.031 300.492 261.194 300.991C261.362 301.491 261.501 302.012 261.646 302.533C261.791 303.053 261.939 303.583 262.086 304.119C262.358 305.191 262.635 306.283 262.913 307.37C263.151 308.472 263.422 309.561 263.649 310.645C263.875 311.732 264.11 312.794 264.294 313.833C264.397 314.351 264.493 314.859 264.59 315.359C264.677 315.859 264.761 316.349 264.846 316.825C265.024 317.773 265.187 318.673 265.371 319.501C265.73 321.154 266.113 322.523 266.411 323.481C266.487 323.721 266.559 323.932 266.625 324.119C266.689 324.302 266.74 324.462 266.791 324.591C266.888 324.844 266.939 324.983 266.939 324.983L267.256 324.953Z" fill="#9BC769"/>
</g>
<mask id="mask6_1961_24227" style="mask-type:luminance" maskUnits="userSpaceOnUse" x="-123" y="1" width="400" height="399">
<path d="M-122.386 1.19582H276.465V399.287H-122.386V1.19582Z" fill="white"/>
</mask>
<g mask="url(#mask6_1961_24227)">
<path d="M2.40624 316.383C2.40624 316.383 2.43641 316.238 2.4726 315.964C2.50879 315.693 2.56 315.29 2.59317 314.784C2.62635 314.279 2.64145 313.664 2.63542 312.966C2.62034 312.265 2.58111 311.476 2.5027 310.618C2.4092 309.766 2.30066 308.842 2.11668 307.873C2.02319 307.391 1.93266 306.895 1.83615 306.386C1.73059 305.883 1.62505 305.365 1.51346 304.842C1.30536 303.788 1.02491 302.713 0.765543 301.618C0.494107 300.525 0.177413 299.423 -0.121167 298.318C-0.464985 297.223 -0.784659 296.124 -1.15864 295.058C-1.35166 294.526 -1.54172 294.002 -1.72569 293.478C-1.9157 292.957 -2.09054 292.443 -2.29864 291.949C-2.49769 291.446 -2.70585 290.958 -2.9049 290.483C-3.10396 290.004 -3.29395 289.541 -3.51411 289.095C-3.93936 288.207 -4.32543 287.358 -4.72655 286.603C-5.14577 285.85 -5.52278 285.161 -5.87263 284.556C-6.03549 284.252 -6.21941 283.981 -6.38529 283.728C-6.55117 283.478 -6.705 283.246 -6.84374 283.039C-7.4047 282.214 -7.72437 281.741 -7.72437 281.741C-7.72437 281.741 -7.49213 282.262 -7.08497 283.174C-6.97941 283.397 -6.86486 283.647 -6.74121 283.918C-6.61454 284.189 -6.47574 284.477 -6.3551 284.803C-6.10779 285.45 -5.81231 286.163 -5.49563 286.949C-5.32976 287.334 -5.20609 287.765 -5.05228 288.195C-4.90148 288.623 -4.74158 289.065 -4.5757 289.523C-4.4068 289.974 -4.26512 290.453 -4.11734 290.937C-3.96654 291.425 -3.81874 291.919 -3.65889 292.421C-3.48698 292.921 -3.35126 293.439 -3.20348 293.963C-3.05871 294.483 -2.91092 295.013 -2.76013 295.549C-2.48869 296.618 -2.21119 297.71 -1.93674 298.8C-1.69245 299.902 -1.42404 300.991 -1.19785 302.078C-0.974665 303.162 -0.736437 304.224 -0.552464 305.263C-0.452938 305.784 -0.356381 306.292 -0.259871 306.789C-0.172408 307.292 -0.084971 307.78 -0.00354028 308.258C0.174401 309.209 0.337296 310.106 0.52127 310.931C0.883184 312.584 1.26313 313.953 1.56472 314.914C1.63711 315.155 1.71253 315.368 1.77586 315.552C1.8392 315.735 1.89045 315.895 1.94172 316.024C2.03521 316.28 2.09257 316.419 2.09257 316.419L2.40624 316.383Z" fill="#9BC769"/>
</g>
<mask id="mask7_1961_24227" style="mask-type:luminance" maskUnits="userSpaceOnUse" x="-123" y="1" width="400" height="399">
<path d="M-122.386 1.19582H276.465V399.287H-122.386V1.19582Z" fill="white"/>
</mask>
<g mask="url(#mask7_1961_24227)">
<path d="M17.343 323.414C17.343 323.414 17.2857 323.164 17.2253 322.698C17.162 322.228 17.0776 321.539 17.0203 320.666C16.96 319.793 16.9389 318.736 16.9479 317.529C16.9721 316.325 17.0414 314.965 17.1741 313.493C17.3369 312.027 17.524 310.434 17.8406 308.77C17.9975 307.939 18.1573 307.084 18.3232 306.211C18.5042 305.341 18.6911 304.453 18.8811 303.55C19.2461 301.741 19.7196 299.89 20.169 298.002C20.6334 296.121 21.1793 294.224 21.698 292.322C22.2922 290.44 22.8411 288.55 23.4835 286.714C23.8122 285.799 24.1379 284.893 24.4576 283.999C24.7803 283.105 25.088 282.217 25.4469 281.365C25.7877 280.504 26.1496 279.667 26.4874 278.845C26.8312 278.026 27.16 277.223 27.534 276.461C28.2638 274.926 28.9273 273.472 29.624 272.169C30.3448 270.874 30.9932 269.685 31.5934 268.647C31.8799 268.123 32.1905 267.65 32.477 267.22C32.7636 266.786 33.0289 266.389 33.2672 266.031C34.2323 264.61 34.7812 263.8 34.7812 263.8C34.7812 263.8 34.3801 264.694 33.6774 266.259C33.4995 266.648 33.3004 267.075 33.0862 267.542C32.8661 268.005 32.6309 268.508 32.4258 269.068C32.0005 270.179 31.4878 271.413 30.9449 272.762C30.6614 273.43 30.4504 274.164 30.1819 274.902C29.9196 275.639 29.6481 276.404 29.3706 277.187C29.075 277.966 28.8308 278.785 28.5714 279.625C28.3121 280.459 28.0648 281.317 27.7782 282.177C27.4857 283.035 27.2505 283.929 27.0001 284.829C26.7498 285.73 26.4964 286.642 26.2401 287.557C25.7726 289.402 25.2961 291.28 24.8226 293.156C24.4064 295.046 23.9389 296.924 23.5559 298.791C23.1669 300.66 22.7627 302.487 22.437 304.275C22.2651 305.169 22.0991 306.042 21.9333 306.903C21.7825 307.764 21.6347 308.607 21.4929 309.426C21.1853 311.06 20.9048 312.608 20.5852 314.028C19.9669 316.876 19.3094 319.233 18.7876 320.88C18.664 321.295 18.5373 321.662 18.4227 321.981C18.3141 322.298 18.2267 322.571 18.1392 322.791C17.9763 323.231 17.8798 323.468 17.8798 323.468L17.343 323.414Z" fill="#9BC769"/>
</g>
<mask id="mask8_1961_24227" style="mask-type:luminance" maskUnits="userSpaceOnUse" x="-123" y="1" width="400" height="399">
<path d="M-122.386 1.19582H276.465V399.287H-122.386V1.19582Z" fill="white"/>
</mask>
<g mask="url(#mask8_1961_24227)">
<path d="M17.3821 329.594C17.3821 329.594 17.3942 329.339 17.4485 328.866C17.5028 328.396 17.5933 327.707 17.7562 326.852C17.916 325.991 18.1603 324.965 18.4679 323.797C18.7936 322.635 19.2038 321.337 19.7014 319.944C20.2232 318.565 20.8053 317.069 21.5261 315.537C21.888 314.772 22.256 313.983 22.633 313.18C23.025 312.382 23.4261 311.569 23.8393 310.741C24.6446 309.08 25.5674 307.403 26.4722 305.69C27.3951 303.981 28.3995 302.283 29.3766 300.573C30.4232 298.899 31.4275 297.202 32.5072 295.588C33.0591 294.784 33.5989 293.99 34.1328 293.201C34.6726 292.415 35.1913 291.633 35.7523 290.895C36.2982 290.149 36.8561 289.426 37.39 288.716C37.9268 288.008 38.4455 287.31 39.0035 286.666C40.0892 285.362 41.0996 284.119 42.1009 283.029C43.1203 281.958 44.0492 280.967 44.8846 280.113C45.2948 279.673 45.717 279.297 46.1031 278.951C46.4891 278.604 46.842 278.285 47.1647 277.996C48.4525 276.865 49.1914 276.211 49.1914 276.211C49.1914 276.211 48.5762 276.979 47.5025 278.319C47.2341 278.65 46.9355 279.014 46.6097 279.414C46.284 279.809 45.9252 280.23 45.5874 280.724C44.8967 281.693 44.0945 282.765 43.2319 283.933C42.7916 284.51 42.3995 285.167 41.9561 285.814C41.5158 286.464 41.0665 287.132 40.599 287.825C40.1195 288.502 39.6701 289.237 39.2177 289.983C38.7593 290.727 38.3008 291.494 37.8122 292.259C37.3116 293.017 36.8622 293.824 36.3947 294.634C35.9273 295.441 35.4537 296.259 34.9742 297.084C34.0604 298.755 33.1285 300.456 32.1996 302.153C31.3249 303.881 30.4021 305.579 29.5606 307.295C28.7192 309.005 27.8686 310.675 27.1086 312.328C26.7195 313.147 26.3366 313.95 25.9596 314.739C25.5976 315.537 25.2478 316.313 24.904 317.075C24.1952 318.58 23.5347 320.01 22.8712 321.304C21.5592 323.905 20.3348 326.024 19.4179 327.493C19.1917 327.861 18.9776 328.186 18.7906 328.466C18.6036 328.746 18.4528 328.989 18.3141 329.182C18.0427 329.567 17.8918 329.772 17.8918 329.772L17.3821 329.594Z" fill="#9BC769"/>
</g>
<mask id="mask9_1961_24227" style="mask-type:luminance" maskUnits="userSpaceOnUse" x="-123" y="1" width="400" height="399">
<path d="M-122.386 1.19582H276.465V399.287H-122.386V1.19582Z" fill="white"/>
</mask>
<g mask="url(#mask9_1961_24227)">
<path d="M235.975 327.346C235.975 327.346 235.894 327.105 235.77 326.65C235.647 326.19 235.481 325.518 235.318 324.66C235.152 323.8 235.001 322.755 234.86 321.557C234.736 320.356 234.639 319.001 234.591 317.523C234.57 316.048 234.564 314.444 234.676 312.758C234.73 311.912 234.784 311.045 234.838 310.16C234.914 309.275 234.989 308.369 235.068 307.448C235.203 305.609 235.451 303.715 235.662 301.786C235.894 299.862 236.208 297.915 236.485 295.964C236.847 294.023 237.158 292.075 237.571 290.182C237.785 289.236 237.999 288.294 238.204 287.364C238.415 286.44 238.611 285.522 238.865 284.628C239.097 283.731 239.35 282.858 239.589 282C239.827 281.142 240.056 280.305 240.337 279.501C240.873 277.894 241.353 276.365 241.887 274.986C242.442 273.61 242.939 272.355 243.41 271.25C243.63 270.69 243.883 270.188 244.112 269.724C244.345 269.261 244.556 268.833 244.749 268.451C245.536 266.925 245.982 266.049 245.982 266.049C245.982 266.049 245.693 266.988 245.189 268.625C245.06 269.032 244.915 269.48 244.758 269.968C244.598 270.456 244.423 270.979 244.287 271.563C244.001 272.719 243.645 274.005 243.274 275.41C243.075 276.109 242.951 276.864 242.779 277.626C242.608 278.391 242.433 279.182 242.252 279.998C242.056 280.808 241.908 281.651 241.757 282.515C241.603 283.372 241.455 284.254 241.281 285.142C241.097 286.027 240.973 286.949 240.834 287.873C240.695 288.794 240.554 289.73 240.412 290.669C240.174 292.56 239.929 294.483 239.688 296.404C239.507 298.33 239.272 300.251 239.121 302.15C238.964 304.05 238.786 305.919 238.687 307.731C238.623 308.637 238.563 309.525 238.503 310.398C238.461 311.271 238.415 312.126 238.376 312.957C238.271 314.615 238.18 316.187 238.041 317.638C237.776 320.537 237.414 322.954 237.097 324.657C237.022 325.082 236.941 325.464 236.868 325.792C236.799 326.12 236.745 326.403 236.684 326.632C236.576 327.09 236.509 327.337 236.509 327.337L235.975 327.346Z" fill="#9BC769"/>
</g>
<mask id="mask10_1961_24227" style="mask-type:luminance" maskUnits="userSpaceOnUse" x="-123" y="1" width="400" height="399">
<path d="M-122.386 1.19582H276.465V399.287H-122.386V1.19582Z" fill="white"/>
</mask>
<g mask="url(#mask10_1961_24227)">
<path d="M237.78 320.22C237.78 320.22 237.792 319.967 237.846 319.498C237.9 319.028 237.994 318.336 238.157 317.481C238.316 316.62 238.558 315.597 238.868 314.426C239.194 313.264 239.601 311.966 240.102 310.576C240.624 309.194 241.206 307.701 241.926 306.169C242.288 305.404 242.656 304.615 243.033 303.812C243.425 303.014 243.83 302.201 244.24 301.373C245.045 299.712 245.968 298.038 246.873 296.322C247.795 294.615 248.8 292.915 249.777 291.205C250.827 289.531 251.828 287.836 252.911 286.22C253.459 285.416 253.999 284.622 254.536 283.836C255.07 283.047 255.592 282.268 256.153 281.53C256.699 280.781 257.26 280.061 257.79 279.351C258.327 278.64 258.849 277.945 259.404 277.301C260.493 275.997 261.5 274.751 262.501 273.664C263.524 272.593 264.45 271.602 265.288 270.748C265.698 270.308 266.114 269.932 266.503 269.586C266.889 269.236 267.242 268.92 267.565 268.631C268.856 267.5 269.592 266.849 269.592 266.849C269.592 266.849 268.98 267.617 267.903 268.956C267.634 269.288 267.336 269.652 267.01 270.049C266.681 270.444 266.325 270.868 265.988 271.362C265.297 272.331 264.495 273.4 263.632 274.57C263.192 275.145 262.8 275.805 262.36 276.452C261.919 277.102 261.464 277.773 260.996 278.463C260.517 279.143 260.073 279.874 259.615 280.624C259.157 281.368 258.695 282.132 258.21 282.897C257.709 283.655 257.26 284.462 256.792 285.272C256.325 286.079 255.848 286.897 255.372 287.722C254.455 289.393 253.526 291.091 252.594 292.791C251.719 294.519 250.796 296.22 249.958 297.933C249.116 299.642 248.263 301.313 247.503 302.963C247.114 303.785 246.734 304.588 246.357 305.377C245.995 306.175 245.642 306.951 245.298 307.71C244.593 309.215 243.932 310.645 243.269 311.942C241.957 314.543 240.735 316.662 239.818 318.131C239.592 318.498 239.378 318.821 239.188 319.104C239.001 319.383 238.85 319.624 238.711 319.817C238.44 320.202 238.289 320.41 238.289 320.41L237.78 320.22Z" fill="#9BC769"/>
</g>
<mask id="mask11_1961_24227" style="mask-type:luminance" maskUnits="userSpaceOnUse" x="-123" y="1" width="400" height="399">
<path d="M-122.386 1.19582H276.465V399.287H-122.386V1.19582Z" fill="white"/>
</mask>
<g mask="url(#mask11_1961_24227)">
<path d="M-118.965 305.75C-118.965 305.75 -118.841 306.394 -118.775 307.322C-118.126 306.211 -117.478 305.431 -117.478 305.431C-117.478 305.431 -116.404 306.214 -115.355 307.373C-114.54 305.052 -112.227 302.93 -112.227 302.93C-112.227 302.93 -109.045 305.958 -108.946 308.724C-108.071 307.538 -107.169 306.717 -107.169 306.717C-107.169 306.717 -105.743 308.074 -104.769 309.799C-105.134 308.113 -105.158 306.72 -105.158 306.72C-105.158 306.72 -100.22 306.545 -97.4307 308.417C-96.4626 305.91 -94.4691 303.724 -94.4691 303.724C-94.4691 303.724 -92.5962 305.211 -91.2179 307.198C-89.9814 307.373 -87.1916 307.912 -85.6203 309.329C-85.1166 307.03 -83.4247 304.814 -83.4247 304.814C-83.4247 304.814 -81.1506 306.325 -79.8658 308.288C-77.8542 307.147 -75.3298 306.744 -75.3298 306.744C-75.3298 306.744 -75.1941 307.442 -75.1368 308.426C-74.4552 307.701 -73.4901 307.15 -72.522 306.744C-70.8029 306.021 -69.1049 305.75 -69.1049 305.75C-69.1049 305.75 -68.9783 306.394 -68.9149 307.322C-68.2665 306.211 -67.6151 305.431 -67.6151 305.431C-67.6151 305.431 -66.5414 306.214 -65.4888 307.373C-64.6775 305.052 -62.3643 302.93 -62.3643 302.93C-62.3643 302.93 -59.1824 305.958 -59.0829 308.724C-58.2053 307.538 -57.3065 306.717 -57.3065 306.717C-57.3065 306.717 -55.88 308.074 -54.9088 309.799C-55.2737 308.113 -55.2979 306.72 -55.2979 306.72C-55.2979 306.72 -50.3638 306.545 -47.5711 308.417C-46.6029 305.91 -44.6094 303.724 -44.6094 303.724C-44.6094 303.724 -42.7365 305.211 -41.3582 307.198C-40.1217 307.373 -37.3318 307.912 -35.7606 309.329C-35.2569 307.03 -33.5649 304.814 -33.5649 304.814C-33.5649 304.814 -31.2879 306.325 -30.0061 308.288C-27.9975 307.147 -25.4702 306.744 -25.4702 306.744C-25.4702 306.744 -25.3314 307.442 -25.2772 308.426C-24.5925 307.701 -23.6274 307.15 -22.6623 306.744C-20.9432 306.021 -19.2452 305.75 -19.2452 305.75C-19.2452 305.75 -19.1185 306.394 -19.0552 307.322C-18.4067 306.211 -17.7553 305.431 -17.7553 305.431C-17.7553 305.431 -16.6817 306.214 -15.6291 307.373C-14.8178 305.052 -12.5076 302.93 -12.5076 302.93C-12.5076 302.93 -9.32275 305.958 -9.22324 308.724C-8.3486 307.538 -7.44678 306.717 -7.44678 306.717C-7.44678 306.717 -6.02332 308.074 -5.04916 309.799C-5.41409 308.113 -5.4382 306.72 -5.4382 306.72C-5.4382 306.72 -0.501038 306.545 2.2887 308.417C3.25684 305.91 5.25037 303.724 5.25037 303.724C5.25037 303.724 7.12326 305.211 8.49854 307.198C9.73508 307.373 12.5249 307.912 14.0962 309.329C14.5999 307.03 16.2918 304.814 16.2918 304.814C16.2918 304.814 18.5688 306.325 19.8506 308.288C21.8592 307.147 24.3866 306.744 24.3866 306.744C24.3866 306.744 24.5253 307.442 24.5796 308.426C25.2612 307.701 26.2293 307.15 27.1914 306.744C28.9105 306.021 30.6115 305.75 30.6115 305.75C30.6115 305.75 30.7352 306.394 30.7985 307.322C31.4469 306.211 32.1014 305.431 32.1014 305.431C32.1014 305.431 33.172 306.214 34.2246 307.373C35.0359 305.052 37.3492 302.93 37.3492 302.93C37.3492 302.93 40.534 305.958 40.6305 308.724C41.5051 307.538 42.4069 306.717 42.4069 306.717C42.4069 306.717 43.8334 308.074 44.8076 309.799C44.4426 308.113 44.4155 306.72 44.4155 306.72C44.4155 306.72 49.3526 306.545 52.1424 308.417C53.1105 305.91 55.104 303.724 55.104 303.724C55.104 303.724 56.9769 305.211 58.3522 307.198C59.5888 307.373 62.3785 307.912 63.9498 309.329C64.4535 307.03 66.1455 304.814 66.1455 304.814C66.1455 304.814 68.4225 306.325 69.7043 308.288C71.7129 307.147 74.2403 306.744 74.2403 306.744C74.2403 306.744 74.376 307.442 74.4333 308.426C75.1149 307.701 76.083 307.15 77.0451 306.744C78.7642 306.021 80.4622 305.75 80.4622 305.75C80.4622 305.75 80.5889 306.394 80.6522 307.322C81.3006 306.211 81.949 305.431 81.949 305.431C81.949 305.431 83.0227 306.214 84.0723 307.373C84.8835 305.052 87.1998 302.93 87.1998 302.93C87.1998 302.93 90.3816 305.958 90.4812 308.724C91.3528 307.538 92.2546 306.717 92.2546 306.717C92.2546 306.717 93.6841 308.074 94.6552 309.799C94.2903 308.113 94.2662 306.72 94.2662 306.72C94.2662 306.72 99.2033 306.545 101.993 308.417C102.961 305.91 104.955 303.724 104.955 303.724C104.955 303.724 106.828 305.211 108.206 307.198C109.442 307.373 112.229 307.912 113.804 309.329C114.307 307.03 115.999 304.814 115.999 304.814C115.999 304.814 118.273 306.325 119.555 308.288C121.567 307.147 124.094 306.744 124.094 306.744C124.094 306.744 124.23 307.442 124.287 308.426C124.972 307.701 125.937 307.15 126.902 306.744C128.621 306.021 130.319 305.75 130.319 305.75C130.319 305.75 130.446 306.394 130.509 307.322C131.157 306.211 131.809 305.431 131.809 305.431C131.809 305.431 132.882 306.214 133.932 307.373C134.746 305.052 137.057 302.93 137.057 302.93C137.057 302.93 140.241 305.958 140.338 308.724C141.213 307.538 142.114 306.717 142.114 306.717C142.114 306.717 143.541 308.074 144.512 309.799C144.147 308.113 144.123 306.72 144.123 306.72C144.123 306.72 149.057 306.545 151.85 308.417C152.815 305.91 154.811 303.724 154.811 303.724C154.811 303.724 156.684 305.211 158.063 307.198C159.299 307.373 162.086 307.912 163.66 309.329C164.164 307.03 165.856 304.814 165.856 304.814C165.856 304.814 168.133 306.325 169.415 308.288C171.423 307.147 173.951 306.744 173.951 306.744C173.951 306.744 174.089 307.442 174.144 308.426C174.825 307.701 175.793 307.15 176.759 306.744C178.478 306.021 180.176 305.75 180.176 305.75C180.176 305.75 180.302 306.394 180.363 307.322C181.011 306.211 181.662 305.431 181.662 305.431C181.662 305.431 182.736 306.214 183.786 307.373C184.597 305.052 186.91 302.93 186.91 302.93C186.91 302.93 190.098 305.958 190.195 308.724C191.069 307.538 191.971 306.717 191.971 306.717C191.971 306.717 193.398 308.074 194.369 309.799C194.004 308.113 193.98 306.72 193.98 306.72C193.98 306.72 198.917 306.545 201.707 308.417C202.672 305.91 204.668 303.724 204.668 303.724C204.668 303.724 206.541 305.211 207.916 307.198C209.153 307.373 211.943 307.912 213.514 309.329C214.018 307.03 215.71 304.814 215.71 304.814C215.71 304.814 217.987 306.325 219.268 308.288C221.277 307.147 223.804 306.744 223.804 306.744C223.804 306.744 223.943 307.442 223.997 308.426C224.682 307.701 225.647 307.15 226.609 306.744C228.328 306.021 230.029 305.75 230.029 305.75C230.029 305.75 230.153 306.394 230.216 307.322C230.865 306.211 231.516 305.431 231.516 305.431C231.516 305.431 232.587 306.214 233.639 307.373C234.451 305.052 236.764 302.93 236.764 302.93C236.764 302.93 239.949 305.958 240.045 308.724C240.92 307.538 241.822 306.717 241.822 306.717C241.822 306.717 243.248 308.074 244.222 309.799C243.857 308.113 243.83 306.72 243.83 306.72C243.83 306.72 248.767 306.545 251.557 308.417C252.525 305.91 254.519 303.724 254.519 303.724C254.519 303.724 256.392 305.211 257.77 307.198C259.007 307.373 261.793 307.912 263.365 309.329C263.868 307.03 265.56 304.814 265.56 304.814C265.56 304.814 267.837 306.325 269.119 308.288C271.131 307.147 273.655 306.744 273.655 306.744C273.655 306.744 273.794 307.442 273.851 308.426C274.533 307.701 275.501 307.15 276.463 306.744V363.79H-122.388V306.744C-120.666 306.018 -118.965 305.75 -118.965 305.75Z" fill="#9BC769"/>
</g>
<mask id="mask12_1961_24227" style="mask-type:luminance" maskUnits="userSpaceOnUse" x="-123" y="1" width="400" height="399">
<path d="M-122.386 1.19582H276.465V399.287H-122.386V1.19582Z" fill="white"/>
</mask>
<g mask="url(#mask12_1961_24227)">
<path d="M-122.388 317.68H276.463V399.287H-122.388V317.68Z" fill="#B2BED1"/>
</g>
<mask id="mask13_1961_24227" style="mask-type:luminance" maskUnits="userSpaceOnUse" x="-123" y="1" width="400" height="399">
<path d="M-122.386 1.19582H276.465V399.287H-122.386V1.19582Z" fill="white"/>
</mask>
<g mask="url(#mask13_1961_24227)">
<mask id="mask14_1961_24227" style="mask-type:luminance" maskUnits="userSpaceOnUse" x="-123" y="317" width="400" height="8">
<path d="M-122.37 317.681H276.48V324.427H-122.37V317.681Z" fill="white"/>
</mask>
<g mask="url(#mask14_1961_24227)">
<path d="M-122.372 317.681H276.479V324.427H-122.372V317.681Z" fill="#B2BED1"/>
</g>
</g>
<mask id="mask15_1961_24227" style="mask-type:luminance" maskUnits="userSpaceOnUse" x="-123" y="1" width="400" height="399">
<path d="M-122.386 1.19582H276.465V399.287H-122.386V1.19582Z" fill="white"/>
</mask>
<g mask="url(#mask15_1961_24227)">
<g opacity="0.4">
<mask id="mask16_1961_24227" style="mask-type:luminance" maskUnits="userSpaceOnUse" x="12" y="343" width="235" height="14">
<path d="M12.6896 343.7H246.52V356.292H12.6896V343.7Z" fill="white"/>
</mask>
<g mask="url(#mask16_1961_24227)">
<path d="M12.6847 349.997C12.6847 353.474 65.0266 356.292 129.601 356.292C194.173 356.292 246.518 353.474 246.518 349.997C246.518 346.517 194.173 343.7 129.601 343.7C65.0266 343.7 12.6847 346.517 12.6847 349.997Z" fill="#B2BED1"/>
</g>
</g>
</g>
<mask id="mask17_1961_24227" style="mask-type:luminance" maskUnits="userSpaceOnUse" x="-123" y="1" width="400" height="399">
<path d="M-122.386 1.19582H276.465V399.287H-122.386V1.19582Z" fill="white"/>
</mask>
<g mask="url(#mask17_1961_24227)">
<g opacity="0.4">
<mask id="mask18_1961_24227" style="mask-type:luminance" maskUnits="userSpaceOnUse" x="-105" y="343" width="114" height="14">
<path d="M-104.204 343.7H8.72266V356.292H-104.204V343.7Z" fill="white"/>
</mask>
<g mask="url(#mask18_1961_24227)">
<path d="M-104.204 349.997C-104.204 353.474 -78.924 356.292 -47.739 356.292C-16.5571 356.292 8.72266 353.474 8.72266 349.997C8.72266 346.517 -16.5571 343.7 -47.739 343.7C-78.924 343.7 -104.204 346.517 -104.204 349.997Z" fill="#B2BED1"/>
</g>
</g>
</g>
<mask id="mask19_1961_24227" style="mask-type:luminance" maskUnits="userSpaceOnUse" x="-123" y="1" width="400" height="399">
<path d="M-122.386 1.19582H276.465V399.287H-122.386V1.19582Z" fill="white"/>
</mask>
<g mask="url(#mask19_1961_24227)">
<path d="M39.3281 234.875V230.893C32.8589 230.893 30.8232 223.912 30.8232 221.937V214.243H26.8331V221.937C26.8331 226.308 30.606 234.875 39.3281 234.875Z" fill="#B0654A"/>
</g>
<mask id="mask20_1961_24227" style="mask-type:luminance" maskUnits="userSpaceOnUse" x="-123" y="1" width="400" height="399">
<path d="M-122.386 1.19582H276.465V399.287H-122.386V1.19582Z" fill="white"/>
</mask>
<g mask="url(#mask20_1961_24227)">
<path d="M57.3183 258.346C57.3183 269.619 66.4717 278.758 77.7695 278.758H194.879C206.174 278.758 215.33 269.619 215.33 258.346H57.3183Z" fill="#3DD87C"/>
</g>
<mask id="mask21_1961_24227" style="mask-type:luminance" maskUnits="userSpaceOnUse" x="-123" y="1" width="400" height="399">
<path d="M-122.386 1.19582H276.465V399.287H-122.386V1.19582Z" fill="white"/>
</mask>
<g mask="url(#mask21_1961_24227)">
<path d="M39.3261 218.951H233.768V257.151H39.3261V218.951Z" fill="#04AF49"/>
</g>
<mask id="mask22_1961_24227" style="mask-type:luminance" maskUnits="userSpaceOnUse" x="-123" y="1" width="400" height="399">
<path d="M-122.386 1.19582H276.465V399.287H-122.386V1.19582Z" fill="white"/>
</mask>
<g mask="url(#mask22_1961_24227)">
<path d="M39.3261 253.584H233.768V258.346H39.3261V253.584Z" fill="#F7B92A"/>
</g>
<mask id="mask23_1961_24227" style="mask-type:luminance" maskUnits="userSpaceOnUse" x="-123" y="1" width="400" height="399">
<path d="M-122.386 1.19582H276.465V399.287H-122.386V1.19582Z" fill="white"/>
</mask>
<g mask="url(#mask23_1961_24227)">
<path d="M37.52 212.382H246.52V221.937H37.52V212.382Z" fill="#B0654A"/>
</g>
<mask id="mask24_1961_24227" style="mask-type:luminance" maskUnits="userSpaceOnUse" x="-123" y="1" width="400" height="399">
<path d="M-122.386 1.19582H276.465V399.287H-122.386V1.19582Z" fill="white"/>
</mask>
<g mask="url(#mask24_1961_24227)">
<path d="M71.7715 192.629C71.7715 192.629 69.1958 192.415 69.1958 194.769V198.385H66.1226V194.769C66.1226 192.412 63.547 192.629 63.547 192.629V191.684H71.7715V192.629ZM68.4027 193.827C68.4027 193.421 68.0679 193.087 67.6577 193.087C67.2476 193.087 66.9158 193.421 66.9158 193.827V195.218C66.9158 195.627 67.2476 195.961 67.6577 195.961C68.0679 195.961 68.4027 195.63 68.4027 195.218V193.827Z" fill="#303338"/>
</g>
<mask id="mask25_1961_24227" style="mask-type:luminance" maskUnits="userSpaceOnUse" x="-123" y="1" width="400" height="399">
<path d="M-122.386 1.19582H276.465V399.287H-122.386V1.19582Z" fill="white"/>
</mask>
<g mask="url(#mask25_1961_24227)">
<path d="M54.9434 191.681V192.626C54.9434 192.626 52.3647 192.413 52.3647 194.767V198.382H49.2914V194.767C49.2914 192.41 46.7128 192.626 46.7128 192.626V191.681H54.9434ZM50.0877 195.221C50.0877 195.631 50.4194 195.965 50.8296 195.965C51.2398 195.965 51.5745 195.634 51.5745 195.221V193.83C51.5745 193.424 51.2398 193.09 50.8296 193.09C50.4194 193.09 50.0877 193.424 50.0877 193.83V195.221Z" fill="#303338"/>
</g>
<mask id="mask26_1961_24227" style="mask-type:luminance" maskUnits="userSpaceOnUse" x="-123" y="1" width="400" height="399">
<path d="M-122.386 1.19582H276.465V399.287H-122.386V1.19582Z" fill="white"/>
</mask>
<g mask="url(#mask26_1961_24227)">
<path d="M118.729 207.307V212.386H112.446C112.446 212.386 111.152 209.848 107.91 209.848H103.573C103.573 209.848 103.323 208.454 100.084 207.307H118.729Z" fill="#35D375"/>
</g>
<mask id="mask27_1961_24227" style="mask-type:luminance" maskUnits="userSpaceOnUse" x="-123" y="1" width="400" height="399">
<path d="M-122.386 1.19582H276.465V399.287H-122.386V1.19582Z" fill="white"/>
</mask>
<g mask="url(#mask27_1961_24227)">
<g opacity="0.6">
<mask id="mask28_1961_24227" style="mask-type:luminance" maskUnits="userSpaceOnUse" x="100" y="207" width="19" height="3">
<path d="M100.109 207.307H118.754V209.847H100.109V207.307Z" fill="white"/>
</mask>
<g mask="url(#mask28_1961_24227)">
<path d="M100.109 207.307H118.754V209.848H107.936H103.599C103.599 209.848 103.348 208.454 100.109 207.307Z" fill="#B0654A"/>
</g>
</g>
</g>
<mask id="mask29_1961_24227" style="mask-type:luminance" maskUnits="userSpaceOnUse" x="-123" y="1" width="400" height="399">
<path d="M-122.386 1.19582H276.465V399.287H-122.386V1.19582Z" fill="white"/>
</mask>
<g mask="url(#mask29_1961_24227)">
<path d="M45.5643 207.307V212.386H51.8466C51.8466 212.386 53.1404 209.848 56.3826 209.848H60.7195C60.7195 209.848 60.9699 208.454 64.209 207.307H45.5643Z" fill="#35D375"/>
</g>
<mask id="mask30_1961_24227" style="mask-type:luminance" maskUnits="userSpaceOnUse" x="-123" y="1" width="400" height="399">
<path d="M-122.386 1.19582H276.465V399.287H-122.386V1.19582Z" fill="white"/>
</mask>
<g mask="url(#mask30_1961_24227)">
<g opacity="0.6">
<mask id="mask31_1961_24227" style="mask-type:luminance" maskUnits="userSpaceOnUse" x="45" y="207" width="20" height="3">
<path d="M45.5516 207.307H64.1992V209.847H45.5516V207.307Z" fill="white"/>
</mask>
<g mask="url(#mask31_1961_24227)">
<path d="M64.1992 207.307H45.5516V209.848H56.3698H60.7068C60.7068 209.848 60.9571 208.454 64.1992 207.307Z" fill="#B0654A"/>
</g>
</g>
</g>
<mask id="mask32_1961_24227" style="mask-type:luminance" maskUnits="userSpaceOnUse" x="-123" y="1" width="400" height="399">
<path d="M-122.386 1.19582H276.465V399.287H-122.386V1.19582Z" fill="white"/>
</mask>
<g mask="url(#mask32_1961_24227)">
<path d="M43.2012 196.462H121.076V208.304H43.2012V196.462Z" fill="#35D375"/>
</g>
<mask id="mask33_1961_24227" style="mask-type:luminance" maskUnits="userSpaceOnUse" x="-123" y="1" width="400" height="399">
<path d="M-122.386 1.19582H276.465V399.287H-122.386V1.19582Z" fill="white"/>
</mask>
<g mask="url(#mask33_1961_24227)">
<g opacity="0.6">
<mask id="mask34_1961_24227" style="mask-type:luminance" maskUnits="userSpaceOnUse" x="43" y="200" width="79" height="2">
<path d="M43.1993 200.058H121.074V201.172H43.1993V200.058Z" fill="white"/>
</mask>
<g mask="url(#mask34_1961_24227)">
<path d="M43.1993 200.058H121.074V201.172H43.1993V200.058Z" fill="#B0654A"/>
</g>
</g>
</g>
<mask id="mask35_1961_24227" style="mask-type:luminance" maskUnits="userSpaceOnUse" x="-123" y="1" width="400" height="399">
<path d="M-122.386 1.19582H276.465V399.287H-122.386V1.19582Z" fill="white"/>
</mask>
<g mask="url(#mask35_1961_24227)">
<path d="M85.8308 190.49C85.8308 191.149 86.3677 191.682 87.0251 191.682H123.054C123.714 191.682 124.248 191.146 124.248 190.49C124.248 189.831 123.711 189.298 123.054 189.298H87.0251C86.3677 189.298 85.8308 189.831 85.8308 190.49Z" fill="#35D375"/>
</g>
<mask id="mask36_1961_24227" style="mask-type:luminance" maskUnits="userSpaceOnUse" x="-123" y="1" width="400" height="399">
<path d="M-122.386 1.19582H276.465V399.287H-122.386V1.19582Z" fill="white"/>
</mask>
<g mask="url(#mask36_1961_24227)">
<path d="M40.0261 190.49C40.0261 191.149 40.56 191.682 41.2204 191.682H77.2491C77.9095 191.682 78.4434 191.146 78.4434 190.49C78.4434 189.831 77.9095 189.298 77.2491 189.298H41.2204C40.56 189.298 40.0261 189.831 40.0261 190.49Z" fill="#35D375"/>
</g>
<mask id="mask37_1961_24227" style="mask-type:luminance" maskUnits="userSpaceOnUse" x="-123" y="1" width="400" height="399">
<path d="M-122.386 1.19582H276.465V399.287H-122.386V1.19582Z" fill="white"/>
</mask>
<g mask="url(#mask37_1961_24227)">
<path d="M39.5957 168.395H88.6562C88.6562 168.395 81.8734 174.632 81.0108 175.363C80.1452 176.089 79.1862 176.953 78.8665 178.548C78.5528 180.14 77.6872 184.517 77.4218 185.98C77.1564 187.437 75.8445 189.3 72.1801 189.3H47.4915C43.8271 189.3 42.5152 187.437 42.2498 185.98C41.9844 184.52 39.0197 171.691 38.6035 170.119C38.0697 168.13 38.7331 168.395 39.5957 168.395Z" fill="#BAF4D2"/>
</g>
<mask id="mask38_1961_24227" style="mask-type:luminance" maskUnits="userSpaceOnUse" x="-123" y="1" width="400" height="399">
<path d="M-122.386 1.19582H276.465V399.287H-122.386V1.19582Z" fill="white"/>
</mask>
<g mask="url(#mask38_1961_24227)">
<g opacity="0.1">
<mask id="mask39_1961_24227" style="mask-type:luminance" maskUnits="userSpaceOnUse" x="39" y="172" width="39" height="18">
<path d="M39.1228 172.278H77.9199V189.295H39.1228V172.278Z" fill="white"/>
</mask>
<g mask="url(#mask39_1961_24227)">
<path d="M72.1776 189.298H47.489C43.8246 189.298 42.5126 187.435 42.2472 185.978C42.0331 184.813 40.109 176.429 39.1228 172.278C44.9767 177.152 60.4666 185.668 77.9199 183.356C77.7088 184.442 77.5218 185.421 77.4193 185.978C77.1539 187.435 75.842 189.298 72.1776 189.298Z" fill="#B7B9BC"/>
</g>
</g>
</g>
<mask id="mask40_1961_24227" style="mask-type:luminance" maskUnits="userSpaceOnUse" x="-123" y="1" width="400" height="399">
<path d="M-122.386 1.19582H276.465V399.287H-122.386V1.19582Z" fill="white"/>
</mask>
<g mask="url(#mask40_1961_24227)">
<path d="M172.103 210.712C171.542 209.996 171.862 209.114 172.112 208.659C172.359 208.204 172.567 207.62 172.616 206.675C172.685 205.282 172.118 203.421 174.121 201.079C176.678 198.09 180.409 197.365 182.532 197.855C184.655 198.346 185.819 199.267 186.335 199.213C186.848 199.156 187.777 199.204 188.184 199.854C188.639 200.474 188.338 201.353 188.094 201.805C187.849 202.259 188.274 203.686 187.943 205.832C187.608 207.982 185.91 210.829 182.119 211.889C178.325 212.949 176.962 212.009 176.051 211.738C175.14 211.465 174.534 211.404 174.015 211.465C173.499 211.528 172.558 211.498 172.103 210.712Z" fill="#F7B92A"/>
</g>
<mask id="mask41_1961_24227" style="mask-type:luminance" maskUnits="userSpaceOnUse" x="-123" y="1" width="400" height="399">
<path d="M-122.386 1.19582H276.465V399.287H-122.386V1.19582Z" fill="white"/>
</mask>
<g mask="url(#mask41_1961_24227)">
<path d="M156.063 210.712C155.499 209.996 155.822 209.114 156.069 208.659C156.319 208.204 156.524 207.62 156.573 206.675C156.642 205.282 156.078 203.421 158.081 201.079C160.635 198.09 164.369 197.365 166.492 197.855C168.615 198.346 169.78 199.267 170.292 199.213C170.805 199.156 171.737 199.204 172.141 199.854C172.596 200.474 172.295 201.353 172.051 201.805C171.806 202.259 172.232 203.686 171.9 205.832C171.568 207.982 169.867 210.829 166.073 211.889C162.282 212.949 160.919 212.009 160.005 211.738C159.097 211.465 158.491 211.404 157.975 211.465C157.459 211.528 156.518 211.498 156.063 210.712Z" fill="#F7B92A"/>
</g>
<mask id="mask42_1961_24227" style="mask-type:luminance" maskUnits="userSpaceOnUse" x="-123" y="1" width="400" height="399">
<path d="M-122.386 1.19582H276.465V399.287H-122.386V1.19582Z" fill="white"/>
</mask>
<g mask="url(#mask42_1961_24227)">
<path d="M140.005 210.712C139.441 209.996 139.764 209.114 140.011 208.659C140.262 208.204 140.467 207.62 140.515 206.675C140.587 205.282 140.017 203.421 142.023 201.079C144.577 198.09 148.308 197.365 150.434 197.855C152.561 198.346 153.725 199.267 154.238 199.213C154.747 199.156 155.682 199.204 156.086 199.854C156.542 200.474 156.24 201.353 155.996 201.805C155.755 202.259 156.177 203.686 155.845 205.832C155.513 207.982 153.812 210.829 150.018 211.889C146.227 212.949 144.861 212.009 143.95 211.738C143.042 211.465 142.436 211.404 141.917 211.465C141.402 211.528 140.464 211.498 140.005 210.712Z" fill="#F7B92A"/>
</g>
<mask id="mask43_1961_24227" style="mask-type:luminance" maskUnits="userSpaceOnUse" x="-123" y="1" width="400" height="399">
<path d="M-122.386 1.19582H276.465V399.287H-122.386V1.19582Z" fill="white"/>
</mask>
<g mask="url(#mask43_1961_24227)">
<path d="M123.935 210.712C123.374 209.996 123.694 209.114 123.944 208.659C124.195 208.204 124.4 207.62 124.448 206.675C124.517 205.282 123.95 203.421 125.953 201.079C128.511 198.09 132.241 197.365 134.364 197.855C136.491 198.346 137.655 199.267 138.168 199.213C138.68 199.159 139.609 199.204 140.016 199.854C140.469 200.474 140.167 201.353 139.923 201.805C139.679 202.259 140.107 203.686 139.772 205.832C139.44 207.982 137.742 210.829 133.948 211.889C130.157 212.949 128.791 212.009 127.88 211.738C126.972 211.465 126.363 211.404 125.847 211.465C125.335 211.528 124.394 211.498 123.935 210.712Z" fill="#F7B92A"/>
</g>
<mask id="mask44_1961_24227" style="mask-type:luminance" maskUnits="userSpaceOnUse" x="-123" y="1" width="400" height="399">
<path d="M-122.386 1.19582H276.465V399.287H-122.386V1.19582Z" fill="white"/>
</mask>
<g mask="url(#mask44_1961_24227)">
<path d="M166.613 196.711C166.052 195.995 166.374 195.113 166.622 194.655C166.872 194.201 167.077 193.62 167.125 192.672C167.198 191.275 166.631 189.418 168.633 187.076C171.188 184.083 174.919 183.361 177.042 183.852C179.168 184.342 180.332 185.266 180.845 185.212C181.358 185.152 182.29 185.2 182.694 185.85C183.149 186.474 182.848 187.35 182.603 187.801C182.359 188.256 182.787 189.679 182.452 191.829C182.118 193.978 180.42 196.826 176.629 197.885C172.835 198.948 171.468 198.006 170.558 197.735C169.65 197.464 169.044 197.401 168.528 197.464C168.009 197.527 167.065 197.497 166.613 196.711Z" fill="#F7B92A"/>
</g>
<mask id="mask45_1961_24227" style="mask-type:luminance" maskUnits="userSpaceOnUse" x="-123" y="1" width="400" height="399">
<path d="M-122.386 1.19582H276.465V399.287H-122.386V1.19582Z" fill="white"/>
</mask>
<g mask="url(#mask45_1961_24227)">
<path d="M150.565 196.711C150.001 195.995 150.323 195.113 150.571 194.655C150.821 194.201 151.023 193.62 151.074 192.672C151.144 191.275 150.577 189.418 152.582 187.076C155.14 184.083 158.871 183.361 160.994 183.852C163.117 184.342 164.284 185.266 164.797 185.212C165.307 185.152 166.239 185.2 166.646 185.85C167.101 186.474 166.797 187.35 166.555 187.801C166.311 188.256 166.739 189.679 166.404 191.829C166.073 193.978 164.372 196.826 160.581 197.885C156.787 198.948 155.423 198.006 154.513 197.735C153.605 197.464 152.996 197.401 152.48 197.464C151.961 197.527 151.023 197.497 150.565 196.711Z" fill="#F7B92A"/>
</g>
<mask id="mask46_1961_24227" style="mask-type:luminance" maskUnits="userSpaceOnUse" x="-123" y="1" width="400" height="399">
<path d="M-122.386 1.19582H276.465V399.287H-122.386V1.19582Z" fill="white"/>
</mask>
<g mask="url(#mask46_1961_24227)">
<path d="M134.516 196.711C133.952 195.995 134.275 195.113 134.522 194.655C134.772 194.201 134.98 193.62 135.029 192.672C135.095 191.275 134.531 189.418 136.534 187.076C139.091 184.083 142.822 183.361 144.945 183.852C147.068 184.342 148.232 185.266 148.748 185.212C149.261 185.152 150.19 185.2 150.597 185.85C151.052 186.474 150.748 187.35 150.506 187.801C150.262 188.256 150.687 189.679 150.356 191.829C150.021 193.978 148.323 196.826 144.532 197.885C140.738 198.948 139.375 198.006 138.461 197.735C137.55 197.464 136.947 197.401 136.428 197.464C135.912 197.527 134.971 197.497 134.516 196.711Z" fill="#F7B92A"/>
</g>
<mask id="mask47_1961_24227" style="mask-type:luminance" maskUnits="userSpaceOnUse" x="-123" y="1" width="400" height="399">
<path d="M-122.386 1.19582H276.465V399.287H-122.386V1.19582Z" fill="white"/>
</mask>
<g mask="url(#mask47_1961_24227)">
<path d="M161.149 182.711C160.585 181.998 160.908 181.113 161.155 180.655C161.405 180.203 161.61 179.62 161.659 178.671C161.728 177.275 161.161 175.42 163.167 173.075C165.721 170.086 169.452 169.361 171.575 169.851C173.701 170.342 174.866 171.266 175.378 171.212C175.891 171.155 176.823 171.203 177.227 171.853C177.682 172.473 177.381 173.352 177.136 173.804C176.895 174.261 177.32 175.685 176.986 177.831C176.654 179.984 174.956 182.828 171.162 183.891C167.371 184.951 166.005 184.011 165.094 183.737C164.183 183.464 163.58 183.403 163.061 183.464C162.542 183.524 161.604 183.497 161.149 182.711Z" fill="#F7B92A"/>
</g>
<mask id="mask48_1961_24227" style="mask-type:luminance" maskUnits="userSpaceOnUse" x="-123" y="1" width="400" height="399">
<path d="M-122.386 1.19582H276.465V399.287H-122.386V1.19582Z" fill="white"/>
</mask>
<g mask="url(#mask48_1961_24227)">
<path d="M145.098 182.711C144.537 181.998 144.857 181.113 145.107 180.655C145.354 180.203 145.559 179.62 145.611 178.671C145.677 177.275 145.113 175.42 147.116 173.075C149.67 170.086 153.401 169.361 155.527 169.851C157.65 170.342 158.815 171.266 159.33 171.212C159.843 171.155 160.772 171.203 161.179 171.853C161.634 172.473 161.33 173.352 161.086 173.804C160.844 174.261 161.27 175.685 160.935 177.831C160.603 179.984 158.905 182.828 155.111 183.891C151.317 184.951 149.954 184.011 149.043 183.737C148.135 183.464 147.526 183.403 147.01 183.464C146.494 183.527 145.553 183.497 145.098 182.711Z" fill="#F7B92A"/>
</g>
<mask id="mask49_1961_24227" style="mask-type:luminance" maskUnits="userSpaceOnUse" x="-123" y="1" width="400" height="399">
<path d="M-122.386 1.19582H276.465V399.287H-122.386V1.19582Z" fill="white"/>
</mask>
<g mask="url(#mask49_1961_24227)">
<path d="M204.619 183.38C204.619 183.38 203.76 182.001 202.592 181.691C202.357 182.004 202.306 182.176 202.17 182.311C202.348 182.462 204.502 183.533 204.502 183.533L204.619 183.38Z" fill="#B0654A"/>
</g>
<mask id="mask50_1961_24227" style="mask-type:luminance" maskUnits="userSpaceOnUse" x="-123" y="1" width="400" height="399">
<path d="M-122.386 1.19582H276.465V399.287H-122.386V1.19582Z" fill="white"/>
</mask>
<g mask="url(#mask50_1961_24227)">
<path d="M204.09 183.493C201.409 186.456 202.275 191.338 205.414 194.351C209.256 198.045 215.68 197.702 219.61 196.501C223.537 195.3 224.716 195.519 225.078 194.574C225.44 193.626 225.15 189.556 223.097 185.718C220.247 180.405 209.796 177.199 204.09 183.493Z" fill="#F7B92A"/>
</g>
<mask id="mask51_1961_24227" style="mask-type:luminance" maskUnits="userSpaceOnUse" x="-123" y="1" width="400" height="399">
<path d="M-122.386 1.19582H276.465V399.287H-122.386V1.19582Z" fill="white"/>
</mask>
<g mask="url(#mask51_1961_24227)">
<path d="M213.138 177.079C208.394 177.362 205.716 180.574 204.322 182.985L204.353 183.045C204.847 182.762 205.782 182.232 207.387 181.392C210.363 179.83 217.451 178.494 222.617 182.395C220.907 179.21 218.721 176.745 213.138 177.079Z" fill="#9BC769"/>
</g>
<mask id="mask52_1961_24227" style="mask-type:luminance" maskUnits="userSpaceOnUse" x="-123" y="1" width="400" height="399">
<path d="M-122.386 1.19582H276.465V399.287H-122.386V1.19582Z" fill="white"/>
</mask>
<g mask="url(#mask52_1961_24227)">
<path d="M207.387 181.393C205.785 182.233 204.847 182.763 204.356 183.046L204.413 183.16C204.413 183.16 206.141 182.23 208.717 182.904C211.295 183.578 219.236 184.421 222.617 182.398C217.451 178.494 210.363 179.834 207.387 181.393Z" fill="#68A356"/>
</g>
<mask id="mask53_1961_24227" style="mask-type:luminance" maskUnits="userSpaceOnUse" x="-123" y="1" width="400" height="399">
<path d="M-122.386 1.19582H276.465V399.287H-122.386V1.19582Z" fill="white"/>
</mask>
<g mask="url(#mask53_1961_24227)">
<path d="M194.582 198.584C194.582 198.584 193.719 197.206 192.552 196.899C192.317 197.212 192.266 197.38 192.13 197.522C192.308 197.669 194.461 198.744 194.461 198.744L194.582 198.584Z" fill="#B0654A"/>
</g>
<mask id="mask54_1961_24227" style="mask-type:luminance" maskUnits="userSpaceOnUse" x="-123" y="1" width="400" height="399">
<path d="M-122.386 1.19582H276.465V399.287H-122.386V1.19582Z" fill="white"/>
</mask>
<g mask="url(#mask54_1961_24227)">
<path d="M194.035 198.698C191.348 201.66 192.216 206.539 195.356 209.555C199.195 213.246 205.622 212.906 209.552 211.705C213.482 210.504 214.658 210.723 215.02 209.775C215.385 208.827 215.095 204.757 213.035 200.919C210.185 195.612 199.738 192.406 194.035 198.698Z" fill="#F7B92A"/>
</g>
<mask id="mask55_1961_24227" style="mask-type:luminance" maskUnits="userSpaceOnUse" x="-123" y="1" width="400" height="399">
<path d="M-122.386 1.19582H276.465V399.287H-122.386V1.19582Z" fill="white"/>
</mask>
<g mask="url(#mask55_1961_24227)">
<path d="M203.098 192.286C198.354 192.569 195.676 195.781 194.282 198.192L194.313 198.253C194.807 197.97 195.742 197.443 197.344 196.603C200.323 195.041 207.408 193.704 212.574 197.605C210.867 194.418 208.678 191.952 203.098 192.286Z" fill="#9BC769"/>
</g>
<mask id="mask56_1961_24227" style="mask-type:luminance" maskUnits="userSpaceOnUse" x="-123" y="1" width="400" height="399">
<path d="M-122.386 1.19582H276.465V399.287H-122.386V1.19582Z" fill="white"/>
</mask>
<g mask="url(#mask56_1961_24227)">
<path d="M197.344 196.604C195.739 197.447 194.804 197.97 194.313 198.253L194.37 198.368C194.37 198.368 196.098 197.434 198.677 198.109C201.252 198.783 209.193 199.629 212.574 197.603C207.411 193.702 200.323 195.041 197.344 196.604Z" fill="#68A356"/>
</g>
<mask id="mask57_1961_24227" style="mask-type:luminance" maskUnits="userSpaceOnUse" x="-123" y="1" width="400" height="399">
<path d="M-122.386 1.19582H276.465V399.287H-122.386V1.19582Z" fill="white"/>
</mask>
<g mask="url(#mask57_1961_24227)">
<path d="M217.18 198.584C217.18 198.584 216.317 197.206 215.15 196.899C214.918 197.212 214.863 197.38 214.728 197.522C214.906 197.669 217.062 198.744 217.062 198.744L217.18 198.584Z" fill="#B0654A"/>
</g>
<mask id="mask58_1961_24227" style="mask-type:luminance" maskUnits="userSpaceOnUse" x="-123" y="1" width="400" height="399">
<path d="M-122.386 1.19582H276.465V399.287H-122.386V1.19582Z" fill="white"/>
</mask>
<g mask="url(#mask58_1961_24227)">
<path d="M216.658 198.698C213.973 201.66 214.842 206.539 217.979 209.555C221.821 213.246 228.245 212.906 232.175 211.705C236.104 210.504 237.281 210.723 237.643 209.775C238.005 208.827 237.715 204.757 235.658 200.919C232.808 195.612 222.358 192.406 216.658 198.698Z" fill="#F7B92A"/>
</g>
<mask id="mask59_1961_24227" style="mask-type:luminance" maskUnits="userSpaceOnUse" x="-123" y="1" width="400" height="399">
<path d="M-122.386 1.19582H276.465V399.287H-122.386V1.19582Z" fill="white"/>
</mask>
<g mask="url(#mask59_1961_24227)">
<path d="M225.69 192.286C220.949 192.569 218.268 195.781 216.871 198.192L216.904 198.253C217.399 197.97 218.334 197.443 219.935 196.603C222.912 195.041 230.003 193.704 235.166 197.605C233.459 194.418 231.269 191.952 225.69 192.286Z" fill="#9BC769"/>
</g>
<mask id="mask60_1961_24227" style="mask-type:luminance" maskUnits="userSpaceOnUse" x="-123" y="1" width="400" height="399">
<path d="M-122.386 1.19582H276.465V399.287H-122.386V1.19582Z" fill="white"/>
</mask>
<g mask="url(#mask60_1961_24227)">
<path d="M219.932 196.604C218.328 197.447 217.393 197.97 216.901 198.253L216.962 198.368C216.962 198.368 218.69 197.434 221.265 198.109C223.841 198.783 231.785 199.629 235.166 197.603C230 193.702 222.912 195.041 219.932 196.604Z" fill="#68A356"/>
</g>
<mask id="mask61_1961_24227" style="mask-type:luminance" maskUnits="userSpaceOnUse" x="-123" y="1" width="400" height="399">
<path d="M-122.386 1.19582H276.465V399.287H-122.386V1.19582Z" fill="white"/>
</mask>
<g mask="url(#mask61_1961_24227)">
<path d="M185.234 306.157L173.213 279.266" stroke="white" stroke-miterlimit="10"/>
</g>
<mask id="mask62_1961_24227" style="mask-type:luminance" maskUnits="userSpaceOnUse" x="-123" y="1" width="400" height="399">
<path d="M-122.386 1.19582H276.465V399.287H-122.386V1.19582Z" fill="white"/>
</mask>
<g mask="url(#mask62_1961_24227)">
<path d="M184.111 307.722L160.228 290.428" stroke="white" stroke-miterlimit="10"/>
</g>
<mask id="mask63_1961_24227" style="mask-type:luminance" maskUnits="userSpaceOnUse" x="-123" y="1" width="400" height="399">
<path d="M-122.386 1.19582H276.465V399.287H-122.386V1.19582Z" fill="white"/>
</mask>
<g mask="url(#mask63_1961_24227)">
<path d="M183.918 309.633L154.576 306.581" stroke="white" stroke-miterlimit="10"/>
</g>
<mask id="mask64_1961_24227" style="mask-type:luminance" maskUnits="userSpaceOnUse" x="-123" y="1" width="400" height="399">
<path d="M-122.386 1.19582H276.465V399.287H-122.386V1.19582Z" fill="white"/>
</mask>
<g mask="url(#mask64_1961_24227)">
<path d="M184.721 311.388L157.776 323.387" stroke="white" stroke-miterlimit="10"/>
</g>
<mask id="mask65_1961_24227" style="mask-type:luminance" maskUnits="userSpaceOnUse" x="-123" y="1" width="400" height="399">
<path d="M-122.386 1.19582H276.465V399.287H-122.386V1.19582Z" fill="white"/>
</mask>
<g mask="url(#mask65_1961_24227)">
<path d="M186.289 312.505L168.965 336.343" stroke="white" stroke-miterlimit="10"/>
</g>
<mask id="mask66_1961_24227" style="mask-type:luminance" maskUnits="userSpaceOnUse" x="-123" y="1" width="400" height="399">
<path d="M-122.386 1.19582H276.465V399.287H-122.386V1.19582Z" fill="white"/>
</mask>
<g mask="url(#mask66_1961_24227)">
<path d="M188.209 312.695L185.148 341.981" stroke="white" stroke-miterlimit="10"/>
</g>
<mask id="mask67_1961_24227" style="mask-type:luminance" maskUnits="userSpaceOnUse" x="-123" y="1" width="400" height="399">
<path d="M-122.386 1.19582H276.465V399.287H-122.386V1.19582Z" fill="white"/>
</mask>
<g mask="url(#mask67_1961_24227)">
<path d="M189.959 311.9L201.98 338.79" stroke="white" stroke-miterlimit="10"/>
</g>
<mask id="mask68_1961_24227" style="mask-type:luminance" maskUnits="userSpaceOnUse" x="-123" y="1" width="400" height="399">
<path d="M-122.386 1.19582H276.465V399.287H-122.386V1.19582Z" fill="white"/>
</mask>
<g mask="url(#mask68_1961_24227)">
<path d="M191.081 310.335L214.961 327.625" stroke="white" stroke-miterlimit="10"/>
</g>
<mask id="mask69_1961_24227" style="mask-type:luminance" maskUnits="userSpaceOnUse" x="-123" y="1" width="400" height="399">
<path d="M-122.386 1.19582H276.465V399.287H-122.386V1.19582Z" fill="white"/>
</mask>
<g mask="url(#mask69_1961_24227)">
<path d="M191.261 308.424L220.604 311.476" stroke="white" stroke-miterlimit="10"/>
</g>
<mask id="mask70_1961_24227" style="mask-type:luminance" maskUnits="userSpaceOnUse" x="-123" y="1" width="400" height="399">
<path d="M-122.386 1.19582H276.465V399.287H-122.386V1.19582Z" fill="white"/>
</mask>
<g mask="url(#mask70_1961_24227)">
<path d="M190.475 306.669L217.42 294.67" stroke="white" stroke-miterlimit="10"/>
</g>
<mask id="mask71_1961_24227" style="mask-type:luminance" maskUnits="userSpaceOnUse" x="-123" y="1" width="400" height="399">
<path d="M-122.386 1.19582H276.465V399.287H-122.386V1.19582Z" fill="white"/>
</mask>
<g mask="url(#mask71_1961_24227)">
<path d="M188.917 305.549L206.24 281.711" stroke="white" stroke-miterlimit="10"/>
</g>
<mask id="mask72_1961_24227" style="mask-type:luminance" maskUnits="userSpaceOnUse" x="-123" y="1" width="400" height="399">
<path d="M-122.386 1.19582H276.465V399.287H-122.386V1.19582Z" fill="white"/>
</mask>
<g mask="url(#mask72_1961_24227)">
<path d="M187.003 305.362L190.064 276.075" stroke="white" stroke-miterlimit="10"/>
</g>
<mask id="mask73_1961_24227" style="mask-type:luminance" maskUnits="userSpaceOnUse" x="-123" y="1" width="400" height="399">
<path d="M-122.386 1.19582H276.465V399.287H-122.386V1.19582Z" fill="white"/>
</mask>
<g mask="url(#mask73_1961_24227)">
<path d="M187.591 270.14C209.11 270.14 226.551 287.551 226.551 309.026C226.551 330.5 209.107 347.911 187.591 347.911C166.075 347.911 148.631 330.5 148.631 309.026C148.631 287.551 166.072 270.14 187.591 270.14ZM187.591 340.479C204.993 340.479 219.101 326.397 219.101 309.029C219.101 291.66 204.993 277.578 187.591 277.578C170.189 277.578 156.08 291.66 156.08 309.029C156.08 326.397 170.189 340.479 187.591 340.479Z" fill="white"/>
</g>
<mask id="mask74_1961_24227" style="mask-type:luminance" maskUnits="userSpaceOnUse" x="-123" y="1" width="400" height="399">
<path d="M-122.386 1.19582H276.465V399.287H-122.386V1.19582Z" fill="white"/>
</mask>
<g mask="url(#mask74_1961_24227)">
<path d="M187.594 303.523C190.64 303.523 193.113 305.988 193.113 309.028C193.113 312.068 190.64 314.537 187.594 314.537C184.548 314.537 182.075 312.071 182.075 309.028C182.075 305.985 184.545 303.523 187.594 303.523Z" fill="#303338"/>
</g>
<mask id="mask75_1961_24227" style="mask-type:luminance" maskUnits="userSpaceOnUse" x="-123" y="1" width="400" height="399">
<path d="M-122.386 1.19582H276.465V399.287H-122.386V1.19582Z" fill="white"/>
</mask>
<g mask="url(#mask75_1961_24227)">
<path d="M187.597 266.298C211.242 266.298 230.408 285.428 230.408 309.025C230.408 332.622 211.242 351.752 187.597 351.752C163.955 351.752 144.788 332.622 144.788 309.025C144.788 285.428 163.955 266.298 187.597 266.298ZM187.597 343.585C206.718 343.585 222.22 328.113 222.22 309.028C222.22 289.944 206.715 274.471 187.597 274.471C168.476 274.471 152.974 289.944 152.974 309.028C152.974 328.113 168.473 343.585 187.597 343.585Z" fill="#303338"/>
</g>
<mask id="mask76_1961_24227" style="mask-type:luminance" maskUnits="userSpaceOnUse" x="-123" y="1" width="400" height="399">
<path d="M-122.386 1.19582H276.465V399.287H-122.386V1.19582Z" fill="white"/>
</mask>
<g mask="url(#mask76_1961_24227)">
<path d="M83.1191 306.157L71.0976 279.266" stroke="white" stroke-miterlimit="10"/>
</g>
<mask id="mask77_1961_24227" style="mask-type:luminance" maskUnits="userSpaceOnUse" x="-123" y="1" width="400" height="399">
<path d="M-122.386 1.19582H276.465V399.287H-122.386V1.19582Z" fill="white"/>
</mask>
<g mask="url(#mask77_1961_24227)">
<path d="M82.002 307.722L58.1186 290.428" stroke="white" stroke-miterlimit="10"/>
</g>
<mask id="mask78_1961_24227" style="mask-type:luminance" maskUnits="userSpaceOnUse" x="-123" y="1" width="400" height="399">
<path d="M-122.386 1.19582H276.465V399.287H-122.386V1.19582Z" fill="white"/>
</mask>
<g mask="url(#mask78_1961_24227)">
<path d="M81.8145 309.633L52.4722 306.581" stroke="white" stroke-miterlimit="10"/>
</g>
<mask id="mask79_1961_24227" style="mask-type:luminance" maskUnits="userSpaceOnUse" x="-123" y="1" width="400" height="399">
<path d="M-122.386 1.19582H276.465V399.287H-122.386V1.19582Z" fill="white"/>
</mask>
<g mask="url(#mask79_1961_24227)">
<path d="M82.6055 311.388L55.6609 323.387" stroke="white" stroke-miterlimit="10"/>
</g>
<mask id="mask80_1961_24227" style="mask-type:luminance" maskUnits="userSpaceOnUse" x="-123" y="1" width="400" height="399">
<path d="M-122.386 1.19582H276.465V399.287H-122.386V1.19582Z" fill="white"/>
</mask>
<g mask="url(#mask80_1961_24227)">
<path d="M84.1738 312.505L66.8502 336.343" stroke="white" stroke-miterlimit="10"/>
</g>
<mask id="mask81_1961_24227" style="mask-type:luminance" maskUnits="userSpaceOnUse" x="-123" y="1" width="400" height="399">
<path d="M-122.386 1.19582H276.465V399.287H-122.386V1.19582Z" fill="white"/>
</mask>
<g mask="url(#mask81_1961_24227)">
<path d="M86.0938 312.695L83.0326 341.981" stroke="white" stroke-miterlimit="10"/>
</g>
<mask id="mask82_1961_24227" style="mask-type:luminance" maskUnits="userSpaceOnUse" x="-123" y="1" width="400" height="399">
<path d="M-122.386 1.19582H276.465V399.287H-122.386V1.19582Z" fill="white"/>
</mask>
<g mask="url(#mask82_1961_24227)">
<path d="M87.8436 311.9L99.8652 338.79" stroke="white" stroke-miterlimit="10"/>
</g>
<mask id="mask83_1961_24227" style="mask-type:luminance" maskUnits="userSpaceOnUse" x="-123" y="1" width="400" height="399">
<path d="M-122.386 1.19582H276.465V399.287H-122.386V1.19582Z" fill="white"/>
</mask>
<g mask="url(#mask83_1961_24227)">
<path d="M88.9713 310.335L112.852 327.625" stroke="white" stroke-miterlimit="10"/>
</g>
<mask id="mask84_1961_24227" style="mask-type:luminance" maskUnits="userSpaceOnUse" x="-123" y="1" width="400" height="399">
<path d="M-122.386 1.19582H276.465V399.287H-122.386V1.19582Z" fill="white"/>
</mask>
<g mask="url(#mask84_1961_24227)">
<path d="M89.1519 308.424L118.494 311.476" stroke="white" stroke-miterlimit="10"/>
</g>
<mask id="mask85_1961_24227" style="mask-type:luminance" maskUnits="userSpaceOnUse" x="-123" y="1" width="400" height="399">
<path d="M-122.386 1.19582H276.465V399.287H-122.386V1.19582Z" fill="white"/>
</mask>
<g mask="url(#mask85_1961_24227)">
<path d="M88.369 306.669L115.311 294.67" stroke="white" stroke-miterlimit="10"/>
</g>
<mask id="mask86_1961_24227" style="mask-type:luminance" maskUnits="userSpaceOnUse" x="-123" y="1" width="400" height="399">
<path d="M-122.386 1.19582H276.465V399.287H-122.386V1.19582Z" fill="white"/>
</mask>
<g mask="url(#mask86_1961_24227)">
<path d="M86.8042 305.549L104.131 281.711" stroke="white" stroke-miterlimit="10"/>
</g>
<mask id="mask87_1961_24227" style="mask-type:luminance" maskUnits="userSpaceOnUse" x="-123" y="1" width="400" height="399">
<path d="M-122.386 1.19582H276.465V399.287H-122.386V1.19582Z" fill="white"/>
</mask>
<g mask="url(#mask87_1961_24227)">
<path d="M84.8676 305.362L87.9258 276.075" stroke="white" stroke-miterlimit="10"/>
</g>
<mask id="mask88_1961_24227" style="mask-type:luminance" maskUnits="userSpaceOnUse" x="-123" y="1" width="400" height="399">
<path d="M-122.386 1.19582H276.465V399.287H-122.386V1.19582Z" fill="white"/>
</mask>
<g mask="url(#mask88_1961_24227)">
<path d="M85.4872 270.14C107.003 270.14 124.447 287.551 124.447 309.026C124.447 330.5 107.003 347.911 85.4872 347.911C63.9684 347.911 46.5241 330.5 46.5241 309.026C46.5241 287.551 63.9684 270.14 85.4872 270.14ZM85.4872 340.479C102.889 340.479 116.995 326.397 116.995 309.029C116.995 291.66 102.886 277.578 85.4872 277.578C68.0821 277.578 53.9735 291.66 53.9735 309.029C53.9735 326.397 68.0821 340.479 85.4872 340.479Z" fill="white"/>
</g>
<mask id="mask89_1961_24227" style="mask-type:luminance" maskUnits="userSpaceOnUse" x="-123" y="1" width="400" height="399">
<path d="M-122.386 1.19582H276.465V399.287H-122.386V1.19582Z" fill="white"/>
</mask>
<g mask="url(#mask89_1961_24227)">
<path d="M85.4936 303.523C88.5397 303.523 91.0098 305.988 91.0098 309.028C91.0098 312.068 88.5397 314.537 85.4936 314.537C82.4444 314.537 79.9744 312.071 79.9744 309.028C79.9744 305.985 82.4444 303.523 85.4936 303.523Z" fill="#303338"/>
</g>
<mask id="mask90_1961_24227" style="mask-type:luminance" maskUnits="userSpaceOnUse" x="-123" y="1" width="400" height="399">
<path d="M-122.386 1.19582H276.465V399.287H-122.386V1.19582Z" fill="white"/>
</mask>
<g mask="url(#mask90_1961_24227)">
<path d="M85.4845 266.298C109.127 266.298 128.293 285.428 128.293 309.025C128.293 332.622 109.127 351.752 85.4845 351.752C61.8395 351.752 42.6731 332.622 42.6731 309.025C42.6731 285.428 61.8395 266.298 85.4845 266.298ZM85.4845 343.585C104.606 343.585 120.105 328.113 120.105 309.028C120.105 289.944 104.603 274.471 85.4845 274.471C66.3634 274.471 50.8614 289.944 50.8614 309.028C50.8614 328.113 66.3604 343.585 85.4845 343.585Z" fill="#303338"/>
</g>
<mask id="mask91_1961_24227" style="mask-type:luminance" maskUnits="userSpaceOnUse" x="-123" y="1" width="400" height="399">
<path d="M-122.386 1.19582H276.465V399.287H-122.386V1.19582Z" fill="white"/>
</mask>
<g mask="url(#mask91_1961_24227)">
<path d="M54.2327 258.346V274.763C54.2327 291.461 67.8437 305.049 84.5762 305.049H133.739V258.346H139.325V305.049H188.491C205.22 305.049 218.831 291.461 218.831 274.763V258.346H226.809V274.763C226.809 295.853 209.621 313.011 188.491 313.011H84.5762C63.4465 313.011 46.2556 295.853 46.2556 274.763V258.346H54.2327Z" fill="#B0654A"/>
</g>
<mask id="mask92_1961_24227" style="mask-type:luminance" maskUnits="userSpaceOnUse" x="-123" y="1" width="400" height="399">
<path d="M-122.386 1.19582H276.465V399.287H-122.386V1.19582Z" fill="white"/>
</mask>
<g mask="url(#mask92_1961_24227)">
<path d="M-36.0697 294.098C-37.3575 289.065 -37.3062 284.189 -36.6969 280.688C-36.0877 277.184 -36.6246 275.67 -37.1946 273.376L-19.4638 274.442C-19.3763 277.626 -18.0523 324.625 -17.7024 329.366C-17.2591 335.353 -16.5715 338.285 -15.2928 339.655C-14.011 341.021 -6.18152 344.775 -4.99022 345.392C-3.7959 346.012 -1.36204 346.452 -0.611067 346.629C0.139905 346.804 0.890854 347.689 0.269568 348.968C-0.348702 350.248 -1.71791 350.47 -3.22287 350.47C-4.72482 350.47 -5.34613 349.983 -5.34613 349.983C-5.34613 349.983 -7.64728 350.47 -10.3858 350.47C-13.1273 350.47 -19.0988 349.498 -20.4711 349.498C-21.8403 349.498 -25.0253 350.47 -26.5272 350.47C-28.0322 350.47 -29.7995 349.983 -29.6216 347.821C-29.4436 345.66 -26.88 339.742 -26.5694 338.466C-26.2617 337.186 -26.3764 336.064 -26.6026 334.552C-26.8288 333.032 -34.7789 299.131 -36.0697 294.098Z" fill="#E39D72"/>
</g>
<mask id="mask93_1961_24227" style="mask-type:luminance" maskUnits="userSpaceOnUse" x="-123" y="1" width="400" height="399">
<path d="M-122.386 1.19582H276.465V399.287H-122.386V1.19582Z" fill="white"/>
</mask>
<g mask="url(#mask93_1961_24227)">
<path d="M-9.73518 186.558C-9.73518 186.558 22.5717 205.667 23.368 206.116C24.1672 206.564 29.3033 206.263 30.6997 206.465C32.0961 206.666 34.4365 209.948 34.6386 210.396C34.8376 210.842 34.8889 213.482 34.3882 214.577C33.8906 215.67 33.2422 216.32 32.2952 216.766C31.3512 217.211 30.0513 217.612 29.6019 217.563C29.1525 217.512 28.3051 216.567 28.3051 216.567C28.3051 216.567 26.7579 216.666 24.9151 216.615C23.0694 216.567 21.0245 214.279 20.3761 213.981C19.7277 213.68 -11.8795 203.43 -11.8795 203.43L-14.3314 200.983V186.561L-9.73518 186.558Z" fill="#E39D72"/>
</g>
<mask id="mask94_1961_24227" style="mask-type:luminance" maskUnits="userSpaceOnUse" x="-123" y="1" width="400" height="399">
<path d="M-122.386 1.19582H276.465V399.287H-122.386V1.19582Z" fill="white"/>
</mask>
<g mask="url(#mask94_1961_24227)">
<path d="M25.8249 214.243C25.8249 215.892 27.164 217.229 28.8168 217.229C30.4695 217.229 31.8086 215.892 31.8086 214.243C31.8086 212.596 30.4695 211.257 28.8168 211.257C27.164 211.26 25.8249 212.596 25.8249 214.243Z" fill="#303338"/>
</g>
<path d="M-31.4334 350.738C-31.4334 351.301 -30.9749 351.755 -30.4139 351.755H-0.20011C0.366889 351.755 0.822266 351.301 0.822266 350.738C0.822266 350.172 0.363873 349.715 -0.20011 349.715H-30.4139C-30.9749 349.715 -31.4334 350.172 -31.4334 350.738Z" fill="#01A54F"/>
</g>
<path d="M264.469 95.875C264.422 95.875 264.375 95.8906 264.328 95.9062C264.453 95.9062 264.578 95.9219 264.703 95.9375C264.625 95.9062 264.547 95.875 264.469 95.875Z" fill="#F7BC0D"/>
<path d="M257.328 94.8437C257.328 94.8125 257.344 94.7812 257.344 94.75C257.344 94.7344 257.344 94.7188 257.359 94.7188C257.344 94.75 257.344 94.7969 257.328 94.8437ZM257.797 99.2812C257.797 99.2656 257.797 99.25 257.781 99.25C257.797 99.2969 257.813 99.3281 257.828 99.375C257.828 99.3437 257.812 99.3125 257.797 99.2812ZM259.438 90.7812C259.453 90.7656 259.484 90.7344 259.5 90.7187C259.516 90.7187 259.516 90.7031 259.531 90.6875C259.5 90.7187 259.469 90.75 259.438 90.7812ZM260.688 102.828C260.672 102.828 260.672 102.813 260.656 102.797C260.687 102.828 260.734 102.844 260.781 102.875L260.688 102.828ZM268.078 89C268.016 88.9687 267.969 88.9531 267.906 88.9375C267.969 88.9531 268.031 88.9844 268.078 89C268.141 89.0312 268.203 89.0469 268.25 89.0781C268.203 89.0469 268.141 89.0312 268.078 89ZM268.437 89.1562C268.609 89.2344 268.781 89.3281 268.953 89.4219C268.781 89.3281 268.609 89.2344 268.437 89.1562ZM269.906 90.0625C270.016 90.1406 270.109 90.2187 270.203 90.3125C270.109 90.2344 270.016 90.1406 269.906 90.0625ZM271.516 91.7344C271.562 91.7812 271.594 91.8437 271.625 91.8906C271.656 91.9375 271.672 91.9687 271.703 92.0156C271.641 91.9375 271.578 91.8281 271.516 91.7344Z" fill="#F7BC0D"/>
<path d="M310.446 104.666L310.407 122.37L310.342 140.087L309.822 141.204C309.185 142.595 308.067 143.713 306.676 144.35L305.558 144.87L292.053 144.935L278.522 145H252.967L239.462 144.935L225.93 144.87L224.813 144.35C223.422 143.713 222.291 142.595 221.654 141.204L221.134 140.087L221.069 122.37L221.043 104.666L221.784 104.991C224.215 106.057 227.204 106.616 230.09 106.616C231.481 106.616 232.846 106.486 234.106 106.213C234.314 106.174 234.522 106.122 234.717 106.07C236.628 105.576 239.202 104.536 240.502 103.717C241.06 103.379 241.593 103.08 241.762 103.08C241.931 103.08 242.542 103.379 243.166 103.743C249.405 107.396 258.153 107.396 264.393 103.743C265.017 103.379 265.627 103.08 265.744 103.08C265.861 103.08 266.485 103.379 267.109 103.743C268.513 104.562 270.021 105.199 271.581 105.641C272.179 105.81 272.79 105.953 273.413 106.07C278.483 107.045 284.007 106.265 288.336 103.743C288.726 103.509 289.141 103.301 289.57 103.119C289.674 103.119 289.778 103.132 289.882 103.145C290.285 103.327 290.688 103.535 291.065 103.769C292.378 104.549 293.769 105.173 295.225 105.628C295.251 105.654 295.277 105.68 295.316 105.719C295.29 105.693 295.251 105.654 295.225 105.628C296.824 106.148 298.487 106.473 300.164 106.603C303.141 106.824 307.066 106.161 309.705 105.004L310.446 104.666Z" fill="#F7BC0D"/>
<path d="M313.851 71.78C312.096 64.7739 310.614 59.3536 310.354 58.7946C309.782 57.6638 308.521 56.4809 307.261 55.909L306.351 55.4931L266.043 55.4541C234.041 55.4281 225.579 55.4801 224.942 55.675C223.304 56.169 221.939 57.2998 221.133 58.8076C220.873 59.3666 219.404 64.7999 217.637 71.793C214.725 83.4526 214.621 83.8685 214.738 85.3633C215.297 93.1624 221.367 99.4926 228.763 99.9995C230.635 100.142 232.52 99.9085 234.301 99.3236C234.314 99.2976 234.327 99.2716 234.34 99.2586C234.327 99.2846 234.314 99.3106 234.301 99.3366C236.64 98.5567 238.759 97.2179 240.462 95.4371L241.788 94.0333L243.14 95.4111C249.145 101.598 258.361 101.598 264.392 95.4111L265.718 94.0333L267.083 95.4111C270.15 98.5567 274.037 100.104 277.923 100.052C281.654 99.9865 285.371 98.4527 288.335 95.4111L289.661 94.0333L291.026 95.4371C294.184 98.6867 298.344 100.324 302.698 99.9995C310.107 99.4796 316.164 93.1624 316.723 85.3633C316.866 83.8555 316.775 83.4396 313.851 71.78Z" fill="#F7BC0D"/>
<path d="M248.054 131.003L292.243 120.892C294.193 120.45 295.948 119.345 297.196 117.786C298.444 116.226 299.133 114.277 299.133 112.276V110.885C299.133 109.572 298.847 108.286 298.275 107.09C297.716 105.908 296.897 104.855 295.883 104.036C294.869 103.205 293.673 102.62 292.399 102.295C291.125 101.983 289.799 101.957 288.512 102.217L246.078 110.807C244.895 111.054 243.673 111.041 242.477 110.794C241.294 110.547 240.176 110.053 239.187 109.352C238.199 108.65 237.367 107.753 236.743 106.726C236.119 105.687 235.703 104.543 235.547 103.347L235.521 103.114C235.222 100.891 235.768 98.63 237.068 96.7976C238.368 94.9652 240.319 93.6916 242.516 93.2497L292.399 83.074C294.232 82.6971 295.376 84.9974 293.972 86.232L246.442 127.858C245.012 129.105 246.208 131.418 248.054 131.003Z" fill="#10BAB2"/>
<path d="M290.825 80.3036C294.413 80.3036 297.313 77.4056 297.313 73.8317C297.313 70.2579 294.413 67.3598 290.825 67.3598C287.237 67.3598 284.338 70.2579 284.338 73.8317C284.338 77.4056 287.25 80.3036 290.825 80.3036Z" fill="#10BAB2"/>
<path d="M-33.8105 59H-195V469.508L395 476V384.11C93.2212 362.629 -6.51131 296.124 -33.8105 59Z" fill="white"/>
</g>
<defs>
<clipPath id="clip0_1961_24227">
<rect width="380" height="384" fill="white"/>
</clipPath>
</defs>
</svg>
