<svg width="201" height="200" viewBox="0 0 201 200" fill="none" xmlns="http://www.w3.org/2000/svg">
<path d="M98.5859 94.8438C98.5273 94.8438 98.4688 94.8633 98.4102 94.8828C98.5664 94.8828 98.7227 94.9023 98.8789 94.9219C98.7813 94.8828 98.6836 94.8438 98.5859 94.8438Z" fill="#F7BC0D"/>
<path d="M89.6602 93.5547C89.6602 93.5156 89.6797 93.4766 89.6797 93.4375C89.6797 93.418 89.6797 93.3984 89.6992 93.3984C89.6797 93.4375 89.6797 93.4961 89.6602 93.5547ZM90.2461 99.1016C90.2461 99.082 90.2461 99.0625 90.2266 99.0625C90.2461 99.1211 90.2656 99.1602 90.2852 99.2187C90.2852 99.1797 90.2656 99.1406 90.2461 99.1016ZM92.2969 88.4766C92.3164 88.457 92.3555 88.418 92.375 88.3984C92.3945 88.3984 92.3945 88.3789 92.4141 88.3594C92.375 88.3984 92.3359 88.4375 92.2969 88.4766ZM93.8594 103.535C93.8398 103.535 93.8398 103.516 93.8203 103.496C93.8594 103.535 93.918 103.555 93.9766 103.594L93.8594 103.535ZM103.098 86.25C103.02 86.2109 102.961 86.1914 102.883 86.1719C102.961 86.1914 103.039 86.2305 103.098 86.25C103.176 86.2891 103.254 86.3086 103.313 86.3477C103.254 86.3086 103.176 86.2891 103.098 86.25ZM103.547 86.4453C103.762 86.543 103.977 86.6602 104.191 86.7773C103.977 86.6602 103.762 86.543 103.547 86.4453ZM105.383 87.5781C105.52 87.6758 105.637 87.7734 105.754 87.8906C105.637 87.793 105.52 87.6758 105.383 87.5781ZM107.395 89.668C107.453 89.7266 107.492 89.8047 107.531 89.8633C107.57 89.9219 107.59 89.9609 107.629 90.0195C107.551 89.9219 107.473 89.7852 107.395 89.668Z" fill="#F7BC0D"/>
<path d="M167.352 106.955L167.293 133.556L167.195 160.177L166.414 161.857C165.457 163.947 163.777 165.626 161.688 166.583L160.008 167.365L139.715 167.462L119.383 167.56H80.9844L60.6914 167.462L40.3594 167.365L38.6797 166.583C36.5898 165.626 34.8906 163.947 33.9336 161.857L33.1523 160.177L33.0547 133.556L33.0156 106.955L34.1289 107.443C37.7813 109.044 42.2734 109.884 46.6094 109.884C48.6992 109.884 50.75 109.689 52.6445 109.279C52.957 109.22 53.2695 109.142 53.5625 109.064C56.4336 108.322 60.3008 106.759 62.2539 105.529C63.0938 105.021 63.8945 104.572 64.1484 104.572C64.4023 104.572 65.3203 105.021 66.2578 105.568C75.6328 111.056 88.7774 111.056 98.1524 105.568C99.0899 105.021 100.008 104.572 100.184 104.572C100.359 104.572 101.297 105.021 102.234 105.568C104.344 106.798 106.609 107.755 108.953 108.419C109.852 108.673 110.77 108.888 111.707 109.064C119.324 110.529 127.625 109.357 134.129 105.568C134.715 105.216 135.34 104.904 135.984 104.63C136.141 104.63 136.297 104.65 136.453 104.669C137.059 104.943 137.664 105.255 138.23 105.607C140.203 106.779 142.293 107.716 144.48 108.4C144.52 108.439 144.559 108.478 144.617 108.537C144.578 108.498 144.52 108.439 144.48 108.4C146.883 109.181 149.383 109.669 151.902 109.865C156.375 110.197 162.273 109.201 166.238 107.462L167.352 106.955Z" fill="#F7BC0D"/>
<path d="M172.469 57.5406C169.833 47.0133 167.606 38.8687 167.216 38.0289C166.356 36.3297 164.462 34.5523 162.567 33.6929L161.2 33.0679L100.634 33.0094C52.5476 32.9703 39.8327 33.0484 38.8757 33.3414C36.4148 34.0836 34.364 35.7828 33.1531 38.0484C32.7624 38.8883 30.5554 47.0523 27.8991 57.5601C23.5241 75.0797 23.3679 75.7047 23.5437 77.9508C24.3835 89.6695 33.5046 99.1812 44.6179 99.9429C47.4304 100.158 50.2624 99.8062 52.9382 98.9273C52.9577 98.8883 52.9773 98.8492 52.9968 98.8297C52.9773 98.8687 52.9577 98.9078 52.9382 98.9469C56.4538 97.775 59.6374 95.7633 62.196 93.0875L64.1882 90.9781L66.2195 93.0484C75.2429 102.345 89.0905 102.345 98.153 93.0484L100.145 90.9781L102.196 93.0484C106.805 97.775 112.645 100.099 118.485 100.021C124.091 99.9234 129.676 97.6187 134.13 93.0484L136.122 90.9781L138.173 93.0875C142.919 97.9703 149.169 100.431 155.712 99.9429C166.844 99.1617 175.946 89.6695 176.786 77.9508C177.001 75.6851 176.864 75.0601 172.469 57.5406Z" fill="#F7BC0D"/>
<path d="M73.5999 146.527L139.998 131.335C142.928 130.671 145.566 129.011 147.441 126.668C149.316 124.325 150.352 121.396 150.352 118.388V116.299C150.352 114.327 149.922 112.394 149.062 110.597C148.222 108.82 146.992 107.238 145.468 106.008C143.944 104.758 142.147 103.88 140.233 103.391C138.318 102.923 136.326 102.884 134.392 103.274L70.6306 116.182C68.8529 116.553 67.0167 116.533 65.2195 116.162C63.4418 115.791 61.7619 115.049 60.2772 113.995C58.7926 112.94 57.5424 111.593 56.6047 110.05C55.667 108.488 55.0419 106.77 54.8075 104.973L54.7684 104.622C54.3191 101.282 55.1396 97.8847 57.0931 95.1313C59.0465 92.378 61.9767 90.4643 65.2781 89.8003L140.233 74.5104C142.987 73.9441 144.706 77.4005 142.596 79.2556L71.1776 141.802C69.0287 143.676 70.8259 147.152 73.5999 146.527Z" fill="#10BAB2"/>
<path d="M137.869 70.3477C143.26 70.3477 147.617 65.9931 147.617 60.6231C147.617 55.253 143.26 50.8984 137.869 50.8984C132.477 50.8984 128.121 55.253 128.121 60.6231C128.121 65.9931 132.497 70.3477 137.869 70.3477Z" fill="#10BAB2"/>
</svg>
