<svg width="52" height="52" viewBox="0 0 52 52" fill="none" xmlns="http://www.w3.org/2000/svg">
<rect width="52" height="52" rx="26" fill="white"/>
<path d="M16.5889 41.5751L38.2303 36.6244C39.1874 36.4057 40.0419 35.8692 40.654 35.1026C41.266 34.3361 41.5996 33.3847 41.6 32.4044V31.7203C41.6001 31.0781 41.4574 30.4441 41.1821 29.8639C40.9067 29.2837 40.5056 28.7719 40.0077 28.3655C39.5099 27.9592 38.9278 27.6685 38.3036 27.5144C37.6795 27.3603 37.0288 27.3467 36.3987 27.4746L15.6158 31.6847C15.0346 31.8025 14.4352 31.8 13.8551 31.6774C13.2747 31.5548 12.7258 31.3147 12.2422 30.9717C11.7586 30.629 11.3505 30.1907 11.0433 29.6841C10.7359 29.1775 10.5359 28.6134 10.4556 28.0266L10.44 27.9099C10.2908 26.8204 10.5621 25.7148 11.199 24.8178C11.8359 23.9205 12.7907 23.299 13.8697 23.0791L38.3015 18.0927C39.199 17.9095 39.7584 19.0345 39.0699 19.6386L15.8004 40.0348C15.0986 40.6456 15.6847 41.7817 16.5889 41.5751Z" fill="#00A64F"/>
<path d="M37.2517 16.7456C39.0065 16.7456 40.429 15.325 40.429 13.5727C40.429 11.8205 39.0065 10.3999 37.2517 10.3999C35.4969 10.3999 34.0745 11.8205 34.0745 13.5727C34.0745 15.325 35.4969 16.7456 37.2517 16.7456Z" fill="#00A64F"/>
</svg>
