<svg width="140" height="140" viewBox="0 0 140 140" fill="none" xmlns="http://www.w3.org/2000/svg">
<path d="M70.0002 0C31.3602 0 0.000244141 31.36 0.000244141 70C0.000244141 108.64 31.3602 140 70.0002 140C108.64 140 140 108.64 140 70C140 31.36 108.64 0 70.0002 0ZM70.0002 21C81.6202 21 91.0002 30.38 91.0002 42C91.0002 53.62 81.6202 63 70.0002 63C58.3802 63 49.0002 53.62 49.0002 42C49.0002 30.38 58.3802 21 70.0002 21ZM70.0002 120.4C52.5002 120.4 37.0302 111.44 28.0002 97.86C28.2102 83.93 56.0002 76.3 70.0002 76.3C83.9302 76.3 111.79 83.93 112 97.86C102.97 111.44 87.5002 120.4 70.0002 120.4Z" fill="black" fill-opacity="0.1"/>
</svg>
