<svg width="80" height="80" viewBox="0 0 80 80" fill="none" xmlns="http://www.w3.org/2000/svg">
<mask id="mask0_220_1529" style="mask-type:alpha" maskUnits="userSpaceOnUse" x="0" y="0" width="80" height="80">
<rect width="80" height="80" fill="#D9D9D9"/>
</mask>
<g mask="url(#mask0_220_1529)">
<path d="M32.5607 20.522L32.5605 20.5222C30.5257 22.5873 29.5 25.0604 29.5 27.9165C29.5 30.8254 30.5239 33.3141 32.5631 35.3534C34.6024 37.3927 37.0911 38.4165 40 38.4165C42.9089 38.4165 45.3976 37.3927 47.4369 35.3534C49.4762 33.3141 50.5 30.8254 50.5 27.9165C50.5 25.0604 49.4743 22.5873 47.4395 20.5222L47.4393 20.522C45.4006 18.4553 42.9111 17.4165 40 17.4165C37.0889 17.4165 34.5995 18.4553 32.5607 20.522ZM16.1667 62.0832V62.5832H16.6667H63.3334H63.8334V62.0832V56.5832C63.8334 55.091 63.3993 53.7022 62.5415 52.4274L62.5409 52.4265C61.6844 51.1594 60.5477 50.173 59.1403 49.4693L59.1403 49.4692L59.1307 49.4646C55.9354 47.9511 52.7506 46.8134 49.5764 46.0536L49.576 46.0535C46.3988 45.2957 43.2065 44.9165 40 44.9165C36.7935 44.9165 33.6024 45.2957 30.4273 46.0535L30.427 46.0536C27.2506 46.8134 24.0646 47.9511 20.8693 49.4646L20.8693 49.4645L20.8597 49.4693C19.4523 50.173 18.3166 51.1595 17.4622 52.4268C16.6021 53.7017 16.1667 55.0906 16.1667 56.5832V62.0832ZM48.6774 50.2795L48.6777 50.2796C51.5541 50.9636 54.3639 51.9633 57.1073 53.2793C57.8825 53.6941 58.4711 54.188 58.8911 54.7534C59.3002 55.3094 59.5 55.9147 59.5 56.5832V58.2498H20.5V56.5832C20.5 55.9151 20.7007 55.3099 21.112 54.7538L21.1122 54.7536C21.5298 54.1883 22.1173 53.6943 22.8928 53.2793C25.6361 51.9633 28.447 50.9637 31.3256 50.2796L31.326 50.2795C34.2043 49.5929 37.0954 49.2498 40 49.2498C42.9047 49.2498 45.7969 49.5929 48.6774 50.2795ZM35.6466 23.5637L35.6472 23.5631C36.8586 22.3496 38.3005 21.7498 40 21.7498C41.6996 21.7498 43.1427 22.3497 44.3565 23.5634C45.5678 24.7747 46.1667 26.2167 46.1667 27.9165C46.1667 29.6163 45.5678 31.0583 44.3565 32.2696C43.1427 33.4834 41.6996 34.0832 40 34.0832C38.3005 34.0832 36.8586 33.4834 35.6472 32.2699L35.6466 32.2693C34.4331 31.0579 33.8334 29.616 33.8334 27.9165C33.8334 26.217 34.4331 24.7751 35.6466 23.5637Z" fill="#10BAB2" stroke="#10BAB2"/>
</g>
</svg>
