<svg width="808" height="157" viewBox="0 0 808 157" fill="none" xmlns="http://www.w3.org/2000/svg">
<g clip-path="url(#clip0_1064_8248)">
<rect x="96.3726" y="74.2412" width="96.3003" height="96.3003" rx="24" transform="rotate(-45 96.3726 74.2412)" fill="#B2E1BD"/>
<rect x="121.272" y="30.8572" width="86" height="86" rx="43" fill="#4CB966"/>
<path d="M192.8 69.1345C192.8 68.7253 192.538 68.3622 192.15 68.2329L183.6 65.3829C183.405 65.318 183.195 65.318 183 65.3829L174.45 68.2329C174.062 68.3622 173.8 68.7253 173.8 69.1345V79.5845C173.8 79.8365 173.9 80.0782 174.078 80.2563C174.256 80.4345 174.498 80.5345 174.75 80.5345H191.85C192.102 80.5345 192.344 80.4345 192.522 80.2563C192.7 80.0782 192.8 79.8365 192.8 79.5845V69.1345ZM179.5 78.6345V72.9345H187.1V78.6345H179.5ZM190.9 78.6345H189V71.9845C189 71.7326 188.9 71.4909 188.722 71.3128C188.544 71.1346 188.302 71.0345 188.05 71.0345H178.55C178.025 71.0345 177.6 71.4599 177.6 71.9845V78.6345H175.7V69.8195L183.3 67.2859L190.9 69.8195V78.6345Z" fill="white"/>
<path d="M192.8 90.9846C192.8 90.5754 192.538 90.2123 192.15 90.083L183.6 87.233C183.405 87.1681 183.195 87.1681 183 87.233L174.45 90.083C174.062 90.2123 173.8 90.5754 173.8 90.9846V101.435C173.8 101.687 173.9 101.928 174.078 102.106C174.256 102.285 174.498 102.385 174.75 102.385H191.85C192.102 102.385 192.344 102.285 192.522 102.106C192.7 101.928 192.8 101.687 192.8 101.435V90.9846ZM179.5 100.485V94.7846H187.1V100.485H179.5ZM190.9 100.485H189V93.8346C189 93.5827 188.9 93.341 188.722 93.1629C188.544 92.9847 188.302 92.8846 188.05 92.8846H178.55C178.025 92.8846 177.6 93.31 177.6 93.8346V100.485H175.7V91.6696L183.3 89.136L190.9 91.6696V100.485Z" fill="white"/>
<path d="M192.8 49.1846C192.8 48.7753 192.538 48.4123 192.15 48.2829L183.6 45.4329C183.405 45.3681 183.195 45.3681 183 45.4329L174.45 48.2829C174.062 48.4123 173.8 48.7753 173.8 49.1846V59.6346C173.8 59.8865 173.9 60.1283 174.078 60.3064C174.256 60.4845 174.498 60.5846 174.75 60.5846H191.85C192.102 60.5846 192.344 60.4845 192.522 60.3064C192.7 60.1283 192.8 59.8865 192.8 59.6346V49.1846ZM179.5 58.6846V52.9846H187.1V58.6846H179.5ZM190.9 58.6846H189V52.0346C189 51.7827 188.9 51.5409 188.722 51.3628C188.544 51.1847 188.302 51.0846 188.05 51.0846H178.55C178.025 51.0846 177.6 51.51 177.6 52.0346V58.6846H175.7V49.8696L183.3 47.336L190.9 49.8696V58.6846Z" fill="white"/>
<path d="M171.9 54.8846V52.9846H165.25C164.725 52.9846 164.3 53.41 164.3 53.9346V96.6846C164.3 96.9365 164.4 97.1783 164.578 97.3564C164.756 97.5345 164.998 97.6346 165.25 97.6346H171.9V95.7346H166.2V74.8346H171.9V72.9346H166.2V54.8846H171.9Z" fill="white"/>
<path d="M136.75 74.8346H139.6V77.6846C139.6 77.9365 139.7 78.1783 139.878 78.3564C140.056 78.5345 140.298 78.6346 140.55 78.6346H141.675C141.985 79.5333 142.728 80.2149 143.65 80.4485C144.571 80.6818 145.549 80.4358 146.25 79.7937C146.951 80.4358 147.928 80.6818 148.85 80.4485C149.772 80.2149 150.514 79.5333 150.825 78.6346H154.974C155.234 79.3798 155.793 79.9829 156.516 80.2988C157.239 80.6143 158.061 80.6143 158.784 80.2988C159.507 79.9828 160.065 79.3798 160.325 78.6346H161.45C161.702 78.6346 161.943 78.5345 162.121 78.3564C162.3 78.1783 162.4 77.9365 162.4 77.6846V72.9346C162.4 72.6827 162.3 72.441 162.121 72.2628L160.5 70.6414V60.5846C160.5 60.2555 160.33 59.9493 160.049 59.7762C159.769 59.6028 159.419 59.5871 159.125 59.7342L156.7 60.9476V54.8846C156.7 54.6327 156.599 54.3909 156.421 54.2128C156.243 54.0347 156.002 53.9346 155.75 53.9346H151.95C151.425 53.9346 151 54.36 151 54.8846V59.9976L149.1 60.9476V54.8846C149.1 54.6327 149 54.3909 148.821 54.2128C148.643 54.0347 148.402 53.9346 148.15 53.9346H144.35C143.825 53.9346 143.4 54.36 143.4 54.8846V59.9976L141.5 60.9476V54.8846C141.5 54.6327 141.4 54.3909 141.221 54.2128C141.043 54.0347 140.802 53.9346 140.55 53.9346H136.75C136.225 53.9346 135.8 54.36 135.8 54.8846V73.8846C135.8 74.1365 135.9 74.3782 136.078 74.5564C136.256 74.7345 136.498 74.8346 136.75 74.8346L136.75 74.8346ZM141.5 76.7346V69.1346H152.9V76.7346H150.825C150.514 75.8359 149.772 75.1544 148.85 74.9207C147.929 74.6875 146.951 74.9334 146.25 75.5755C145.549 74.9334 144.571 74.6875 143.65 74.9207C142.728 75.1544 141.986 75.8359 141.675 76.7346H141.5ZM144.35 78.6346C143.966 78.6346 143.619 78.4031 143.472 78.0481C143.325 77.6931 143.406 77.2847 143.678 77.0128C143.95 76.741 144.358 76.66 144.713 76.8072C145.068 76.9539 145.3 77.3004 145.3 77.6846C145.3 77.9365 145.2 78.1783 145.022 78.3564C144.844 78.5345 144.602 78.6346 144.35 78.6346ZM148.15 78.6346C147.766 78.6346 147.419 78.4031 147.272 78.0481C147.125 77.6931 147.206 77.2847 147.478 77.0128C147.75 76.741 148.158 76.66 148.513 76.8072C148.868 76.9539 149.1 77.3004 149.1 77.6846C149.1 77.9365 149 78.1783 148.822 78.3564C148.644 78.5345 148.402 78.6346 148.15 78.6346ZM157.65 78.6346C157.266 78.6346 156.919 78.4031 156.772 78.0481C156.625 77.6931 156.706 77.2847 156.978 77.0128C157.25 76.741 157.658 76.66 158.013 76.8072C158.368 76.9539 158.6 77.3004 158.6 77.6846C158.6 77.9365 158.5 78.1783 158.322 78.3564C158.144 78.5345 157.902 78.6346 157.65 78.6346ZM160.5 76.7346H160.325C160.066 75.9895 159.507 75.3864 158.784 75.0704C158.061 74.7549 157.239 74.7549 156.516 75.0704C155.793 75.3864 155.234 75.9895 154.975 76.7346H154.8V71.0346H158.207L160.5 73.3278L160.5 76.7346ZM152.9 55.8346H154.8V61.8977L152.9 62.8477V55.8346ZM145.3 55.8346H147.2V61.8977L145.3 62.8477V55.8346ZM143.4 63.4346V64.3846C143.4 64.7137 143.57 65.0199 143.85 65.193C144.13 65.3664 144.48 65.3821 144.774 65.235L151 62.1216V64.3846C151 64.7137 151.17 65.0199 151.45 65.193C151.73 65.3664 152.08 65.3821 152.374 65.235L158.6 62.1216V69.1346H154.8V68.1846C154.8 67.9327 154.7 67.691 154.522 67.5128C154.344 67.3347 154.102 67.2346 153.85 67.2346H140.55C140.025 67.2346 139.6 67.66 139.6 68.1846V72.9346H137.7V64.9716L143.4 62.1216L143.4 63.4346ZM139.6 55.8346V61.8977L137.7 62.8477V55.8346H139.6Z" fill="white"/>
</g>
<g clip-path="url(#clip1_1064_8248)">
<rect x="331.002" y="74.2412" width="96.3003" height="96.3003" rx="24" transform="rotate(-45 331.002 74.2412)" fill="#B2E1BD"/>
<rect x="356.272" y="30.8572" width="86" height="86" rx="43" fill="#4CB966"/>
<path d="M426.406 59.8569V56.287C426.403 56.0386 426.295 55.8034 426.108 55.6394L416.483 46.9593C416.325 46.8155 416.12 46.7347 415.906 46.7319H382.656C382.439 46.7323 382.23 46.8136 382.07 46.9593L372.445 55.6394C372.258 55.8034 372.15 56.0386 372.147 56.287V59.8569C372.15 61.0139 372.48 62.1464 373.099 63.1233C373.719 64.1007 374.602 64.8823 375.647 65.378V83.482H374.781C374.298 83.482 373.906 83.8738 373.906 84.357V87.857C373.906 88.0891 373.998 88.3117 374.162 88.4758C374.326 88.6398 374.549 88.732 374.781 88.732H375.656V100.107C375.656 100.339 375.748 100.562 375.912 100.726C376.076 100.89 376.299 100.982 376.531 100.982H422.031C422.263 100.982 422.486 100.89 422.65 100.726C422.814 100.562 422.906 100.339 422.906 100.107V88.732H423.781C424.013 88.732 424.236 88.6398 424.4 88.4758C424.564 88.3117 424.656 88.0891 424.656 87.857V84.357C424.656 84.125 424.564 83.9023 424.4 83.7383C424.236 83.5742 424.013 83.482 423.781 83.482H422.906V65.378C423.951 64.8823 424.835 64.1007 425.454 63.1233C426.073 62.1464 426.404 61.0139 426.406 59.8569H426.406ZM424.656 59.8569C424.656 61.4198 423.822 62.8643 422.469 63.6456C421.115 64.4273 419.447 64.4273 418.094 63.6456C416.74 62.8644 415.906 61.4198 415.906 59.8569V57.162H424.656V59.8569ZM387.031 83.4819V81.7319H411.531V83.4819H387.031ZM383.531 79.9819V78.2319H415.031V79.9819H383.531ZM394.906 57.1619H403.656V59.8568C403.656 61.4197 402.822 62.8642 401.469 63.6455C400.115 64.4272 398.447 64.4272 397.094 63.6455C395.74 62.8643 394.906 61.4197 394.906 59.8568V57.1619ZM405.117 55.4119L402.326 48.4818H406.771L413.053 55.4119H405.117ZM403.236 55.4119H395.361L398.117 48.4818H400.444L403.236 55.4119ZM393.444 55.4119H385.508L391.791 48.4818H396.236L393.444 55.4119ZM384.406 57.1619H393.156V59.8568C393.156 61.4197 392.322 62.8642 390.968 63.6455C389.615 64.4272 387.947 64.4272 386.593 63.6455C385.24 62.8643 384.406 61.4197 384.406 59.8568V57.1619ZM387.031 71.2319H394.031V76.4819H387.031V71.2319ZM401.031 76.4819H399.281V74.7319H401.031V76.4819ZM408.031 76.4819H406.281V74.7319H408.031V76.4819ZM409.781 76.4819V73.8569C409.781 73.6249 409.689 73.4022 409.524 73.2382C409.36 73.0741 409.138 72.9819 408.906 72.9819H405.406C404.923 72.9819 404.531 73.3737 404.531 73.8569V76.4819H402.781V73.8569C402.781 73.6249 402.689 73.4022 402.524 73.2382C402.36 73.0741 402.138 72.9819 401.906 72.9819H398.406C397.923 72.9819 397.531 73.3737 397.531 73.8569V76.4819H395.781V70.3569C395.781 70.1249 395.689 69.9022 395.524 69.7382C395.36 69.5741 395.138 69.4819 394.906 69.4819H387.031V65.728C387.599 65.8937 388.189 65.9792 388.781 65.9819C390.933 65.9792 392.927 64.8464 394.031 62.9983C395.138 64.8409 397.131 65.9682 399.281 65.9682C401.431 65.9682 403.423 64.8409 404.531 62.9983C405.635 64.8463 407.628 65.9792 409.781 65.9819C410.373 65.9792 410.962 65.8937 411.531 65.728V76.482L409.781 76.4819ZM409.781 64.2319C408.621 64.2319 407.508 63.771 406.687 62.9507C405.867 62.13 405.406 61.0171 405.406 59.8569V57.162H414.156V59.8569C414.156 61.0171 413.695 62.1299 412.875 62.9507C412.054 63.771 410.941 64.2319 409.781 64.2319ZM423.256 55.412H415.381L409.133 48.4819H415.573L423.256 55.412ZM382.988 48.4819H389.428L383.145 55.412H375.27L382.988 48.4819ZM373.905 59.8569V57.162H382.655V59.8569C382.655 61.4198 381.821 62.8643 380.468 63.6456C379.114 64.4273 377.446 64.4273 376.093 63.6456C374.739 62.8644 373.905 61.4198 373.905 59.8569ZM377.405 65.912C377.695 65.9573 377.987 65.9808 378.28 65.982C380.433 65.9792 382.426 64.8465 383.53 62.9984C383.976 63.7405 384.572 64.3816 385.28 64.8796V76.4815H382.655C382.172 76.4815 381.78 76.8733 381.78 77.3565V80.8565C381.78 81.0886 381.873 81.3112 382.037 81.4753C382.201 81.6394 382.423 81.7315 382.655 81.7315H385.28V83.4815H377.405V65.912ZM421.155 99.232H377.405V88.732H421.155V99.232ZM422.905 86.982H375.655V85.232H422.905V86.982ZM421.155 83.482H413.28V81.732H415.905C416.137 81.732 416.36 81.6398 416.524 81.4758C416.688 81.3117 416.78 81.0891 416.78 80.857V77.357C416.78 77.125 416.688 76.9023 416.524 76.7383C416.36 76.5742 416.137 76.482 415.905 76.482H413.28V64.88C413.989 64.382 414.585 63.7409 415.03 62.9988C416.134 64.8468 418.128 65.9797 420.28 65.9824C420.573 65.9813 420.866 65.9578 421.155 65.9125V83.482Z" fill="white"/>
<path d="M389.656 97.4819H408.906C409.138 97.4819 409.361 97.3897 409.525 97.2257C409.689 97.0616 409.781 96.839 409.781 96.6069V91.3569C409.781 91.1249 409.689 90.9022 409.525 90.7382C409.361 90.5741 409.138 90.4819 408.906 90.4819H389.656C389.173 90.4819 388.781 90.8737 388.781 91.3569V96.6069C388.781 96.839 388.873 97.0616 389.037 97.2257C389.201 97.3897 389.424 97.4819 389.656 97.4819ZM390.531 92.2319H408.031V95.7319H390.531V92.2319Z" fill="white"/>
</g>
<g clip-path="url(#clip2_1064_8248)">
<rect x="561.352" y="74.2412" width="96.3003" height="96.3003" rx="24" transform="rotate(-45 561.352 74.2412)" fill="#B2E1BD"/>
<rect x="586.272" y="30.8572" width="86" height="86" rx="43" fill="#4CB966"/>
<path d="M608.297 83.5069V88.7569C608.297 88.9897 608.389 89.212 608.554 89.3756L610.048 90.869V99.2569C610.048 99.7409 610.44 100.132 610.923 100.132H619.673C620.155 100.132 620.548 99.7409 620.548 99.2569V90.869L622.041 89.3752C622.206 89.212 622.298 88.9897 622.298 88.7569V83.5069C622.298 81.5432 620.998 79.8784 619.213 79.326C619.673 78.417 619.798 77.3635 619.542 76.3108C619.159 74.7307 617.889 73.4792 616.308 73.1206C614.978 72.8221 613.614 73.1257 612.568 73.9624C611.523 74.7979 610.923 76.0448 610.923 77.3819C610.923 78.0608 611.085 78.7249 611.387 79.3245C609.6 79.8757 608.298 81.5417 608.298 83.5069L608.297 83.5069ZM610.047 83.5069C610.047 82.0596 611.225 80.8819 612.672 80.8819H613.004C613.369 80.8819 613.696 80.6553 613.823 80.3147C613.951 79.9745 613.855 79.5885 613.58 79.3487C612.995 78.8362 612.672 78.1378 612.672 77.3819C612.672 76.5795 613.033 75.8315 613.66 75.3292C614.298 74.8198 615.101 74.6413 615.921 74.8276C616.845 75.0358 617.616 75.7979 617.841 76.7237C618.08 77.7054 617.77 78.6862 617.014 79.3479C616.74 79.5878 616.643 79.9725 616.771 80.3139C616.899 80.6554 617.226 80.8811 617.59 80.8811H617.922C619.37 80.8811 620.547 82.0588 620.547 83.5061V88.394L619.054 89.8878C618.889 90.0519 618.797 90.2742 618.797 90.507V98.382H611.797V90.507C611.797 90.2742 611.706 90.0519 611.541 89.8882L610.047 88.3948L610.047 83.5069Z" fill="white"/>
<path d="M650.297 95.7568V50.2568C650.297 48.8095 649.12 47.6318 647.672 47.6318H617.922C616.475 47.6318 615.297 48.8095 615.297 50.2568V71.2568H617.047V54.6318H648.547V87.8818H624.047V89.6318H648.547V95.7568C648.547 96.2396 648.154 96.6318 647.672 96.6318H622.297V98.3818H647.672C649.12 98.3818 650.297 97.2041 650.297 95.7568ZM617.047 52.8818V50.2568C617.047 49.774 617.44 49.3818 617.922 49.3818H647.672C648.154 49.3818 648.547 49.774 648.547 50.2568V52.8818H617.047Z" fill="white"/>
<path d="M635.422 93.1318C635.422 91.6845 634.245 90.5068 632.797 90.5068C631.35 90.5068 630.172 91.6845 630.172 93.1318C630.172 94.5791 631.35 95.7568 632.797 95.7568C634.245 95.7568 635.422 94.5791 635.422 93.1318ZM631.922 93.1318C631.922 92.649 632.315 92.2568 632.797 92.2568C633.279 92.2568 633.672 92.649 633.672 93.1318C633.672 93.6146 633.279 94.0068 632.797 94.0068C632.315 94.0068 631.922 93.6146 631.922 93.1318Z" fill="white"/>
<path d="M630.172 50.2568H635.422V52.0068H630.172V50.2568Z" fill="white"/>
<path d="M638.047 63.3818V61.6318H621.422C621.134 61.6318 620.864 61.7736 620.701 62.0115C620.538 62.2494 620.502 62.5521 620.606 62.8216L624.981 74.1966C625.111 74.5337 625.435 74.7568 625.797 74.7568H626.672V76.6677C625.656 77.0298 624.922 77.9923 624.922 79.1318C624.922 80.5791 626.1 81.7568 627.547 81.7568C628.995 81.7568 630.172 80.5791 630.172 79.1318C630.172 77.9927 629.438 77.0302 628.422 76.6677V74.7568H634.547V76.6677C633.531 77.0298 632.797 77.9923 632.797 79.1318C632.797 80.5791 633.975 81.7568 635.422 81.7568C636.87 81.7568 638.047 80.5791 638.047 79.1318C638.047 77.9927 637.313 77.0302 636.297 76.6677V74.7568H637.172C637.537 74.7568 637.864 74.5302 637.992 74.1896L643.029 60.7566H646.797V59.0066H642.422C642.058 59.0066 641.731 59.2332 641.603 59.5738L637.879 69.5066H628.423V71.2566H637.223L636.566 73.0066H626.398L624.379 67.7566H633.672V66.0066H623.706L622.696 63.3816L638.047 63.3818ZM627.547 80.0068C627.065 80.0068 626.672 79.6146 626.672 79.1318C626.672 78.649 627.065 78.2568 627.547 78.2568C628.029 78.2568 628.422 78.649 628.422 79.1318C628.422 79.6146 628.029 80.0068 627.547 80.0068ZM635.422 80.0068C634.94 80.0068 634.547 79.6146 634.547 79.1318C634.547 78.649 634.94 78.2568 635.422 78.2568C635.904 78.2568 636.297 78.649 636.297 79.1318C636.297 79.6146 635.904 80.0068 635.422 80.0068Z" fill="white"/>
<path d="M614.422 81.7568H616.172V83.5068H614.422V81.7568Z" fill="white"/>
<path d="M614.422 85.2568H616.172V87.0068H614.422V85.2568Z" fill="white"/>
</g>
<path d="M1 22.75L97.2725 126.973C135.234 163.594 195.175 164.233 233.908 128.429L330.739 27.4373C369.775 -8.6468 430.28 -7.67754 468.14 29.6384L556.146 126.973C597.036 167.275 663.454 164.709 701.113 121.372L753.073 50.9835C768.011 33.7936 787.35 23.0896 807.772 18.8416" stroke="url(#paint0_linear_1064_8248)" stroke-width="2" stroke-dasharray="6 6"/>
<path fill-rule="evenodd" clip-rule="evenodd" d="M263.131 90.4928H258.478C258.297 90.4928 258.149 90.6416 258.149 90.8222V92.6377C258.149 92.8182 258.297 92.967 258.478 92.967H263.131C262.965 92.1536 262.965 91.3053 263.131 90.4929V90.4928ZM269.154 89.084C270.615 89.084 271.799 90.2684 271.799 91.7292C271.799 93.1897 270.615 94.3745 269.154 94.3745C267.694 94.3745 266.509 93.19 266.509 91.7292C266.508 90.2688 267.693 89.084 269.154 89.084ZM267.235 70.1299L273.437 73.7111L279.639 70.1299L273.437 66.5487L267.235 70.1299ZM274.285 75.1711L280.48 71.5947V78.7565L274.285 82.333V75.1711ZM272.589 75.1711V82.3334L266.393 78.757V71.5942L272.589 75.1711ZM257.26 81.8537H250.564C250.095 81.8537 249.716 82.2333 249.716 82.7019C249.716 83.1705 250.095 83.5501 250.564 83.5501H257.26C257.729 83.5501 258.108 83.1705 258.108 82.7019C258.108 82.2337 257.728 81.8537 257.26 81.8537ZM269.154 87.2787C266.696 87.2787 264.703 89.2713 264.703 91.7296C264.703 94.1878 266.696 96.1804 269.154 96.1804C271.612 96.1804 273.605 94.1878 273.605 91.7296C273.605 89.2713 271.612 87.2787 269.154 87.2787ZM270.103 91.7296C270.103 91.2051 269.677 90.7799 269.153 90.7799C268.628 90.7799 268.203 91.2051 268.203 91.7296C268.203 92.254 268.628 92.6792 269.153 92.6792C269.677 92.6788 270.103 92.254 270.103 91.7296ZM297.346 91.7296C297.346 91.2051 296.921 90.7799 296.397 90.7799C295.872 90.7799 295.447 91.2051 295.447 91.7296C295.447 92.254 295.872 92.6792 296.397 92.6792C296.921 92.6788 297.346 92.254 297.346 91.7296ZM300.847 91.7296C300.847 94.1878 298.855 96.1804 296.397 96.1804C293.938 96.1804 291.946 94.1878 291.946 91.7296C291.946 89.2713 293.938 87.2787 296.397 87.2787C298.856 87.2787 300.847 89.2713 300.847 91.7296ZM296.397 89.0843C297.857 89.0843 299.042 90.2688 299.042 91.7296C299.042 93.19 297.857 94.3748 296.397 94.3748C294.936 94.3748 293.751 93.1903 293.751 91.7296C293.752 90.2691 294.936 89.0843 296.397 89.0843ZM250.563 67.5175H257.259C257.728 67.5175 258.107 67.1379 258.107 66.6693C258.107 66.2007 257.728 65.821 257.259 65.821H250.563C250.095 65.821 249.715 66.2007 249.715 66.6693C249.715 67.1379 250.095 67.5175 250.563 67.5175ZM260.556 80.3898C260.556 79.9212 260.176 79.5416 259.707 79.5416H252.84C252.371 79.5416 251.992 79.162 251.992 78.6934C251.992 78.2248 252.371 77.8451 252.84 77.8451H259.324V77.2295H262.328C262.797 77.2295 263.176 76.8499 263.176 76.3813C263.176 75.9127 262.797 75.5331 262.328 75.5331H255.117C254.649 75.5331 254.269 75.1535 254.269 74.6849C254.269 74.2163 254.649 73.8367 255.117 73.8367H259.324V73.221H261.14C261.608 73.221 261.988 72.8414 261.988 72.3728C261.988 71.9042 261.608 71.5246 261.14 71.5246H252.84C252.371 71.5246 251.992 71.145 251.992 70.6764C251.992 70.2078 252.371 69.8282 252.84 69.8282H259.324V61.1805C259.324 60.8465 259.597 60.5752 259.931 60.5752H286.941C287.275 60.5752 287.546 60.8473 287.546 61.1805V88.7972H274.555C273.48 86.8205 271.414 85.5832 269.152 85.5832C266.889 85.5832 264.824 86.8205 263.748 88.7972H259.324V81.2385H259.706C260.176 81.2385 260.555 80.8589 260.555 80.3903L260.556 80.3898ZM264.697 79.2419V70.1299C264.697 69.838 264.853 69.5538 265.124 69.3982L273.004 64.8489C273.257 64.698 273.583 64.6846 273.857 64.842L281.68 69.3586C281.972 69.4923 282.175 69.7877 282.175 70.1303V79.2423C282.175 79.5342 282.019 79.8184 281.748 79.974L273.868 84.5233C273.615 84.6742 273.289 84.6876 273.015 84.5302L265.192 80.0136C264.899 79.8794 264.697 79.5841 264.697 79.2419ZM289.243 69.1867V88.7956H290.993C292.068 86.8185 294.134 85.5816 296.396 85.5816C298.659 85.5816 300.724 86.8189 301.8 88.7956H306.224L306.225 81.3255H304.597C304.128 81.3255 303.749 80.9459 303.749 80.4773C303.749 80.0087 304.128 79.6291 304.597 79.6291H306.225V78.2718C306.225 77.9597 306.155 77.7147 305.986 77.4529L301.078 69.874C300.784 69.42 300.351 69.187 299.811 69.187L289.243 69.1874V69.1867ZM303.142 77.5764H291.529V71.491H299.202L303.142 77.5764ZM294.004 79.6296C294.472 79.6296 294.852 80.0092 294.852 80.4778C294.852 80.9464 294.472 81.326 294.004 81.326H291.528C291.06 81.326 290.68 80.9464 290.68 80.4778C290.68 80.0092 291.06 79.6296 291.528 79.6296H294.004ZM302.419 90.4931C302.585 91.3064 302.585 92.1538 302.419 92.9672H307.538C307.719 92.9672 307.867 92.8184 307.867 92.6378V90.8223C307.867 90.6418 307.719 90.493 307.538 90.493L302.419 90.4931ZM275.175 90.4931C275.341 91.3064 275.341 92.1538 275.175 92.9672H290.374C290.208 92.1538 290.208 91.3064 290.374 90.4931H275.175Z" fill="#666666"/>
<path d="M522.606 72.8458C522.492 72.8458 522.377 72.8356 522.262 72.8149L514.218 71.3752L512.936 74.5302L521.229 76.1934C521.843 76.3161 522.372 76.7007 522.671 77.2428C522.97 77.7846 523.011 78.4297 522.782 79.0041L518.787 89.0319C518.459 89.856 517.657 90.3587 516.81 90.3587C516.552 90.3587 516.291 90.3119 516.036 90.2145C514.943 89.793 514.407 88.5805 514.834 87.5054L517.907 79.7934L509.597 78.1264C508.98 78.003 508.45 77.6159 508.152 77.0707C507.852 76.525 507.816 75.8774 508.049 75.3023L512.444 64.4879C512.879 63.4157 514.115 62.8964 515.203 63.3235C516.292 63.7524 516.821 64.9685 516.386 66.0401L515.666 67.8141L522.946 69.1176C523.983 69.3029 524.67 70.2813 524.482 71.3026C524.314 72.2103 523.511 72.8459 522.605 72.8459L522.606 72.8458Z" fill="#666666"/>
<path d="M504.227 68.804L504.139 69.6765L487.565 67.0398L487.45 63.8887C487.45 63.8887 505.626 63.2988 504.228 68.8039L504.227 68.804Z" fill="#666666"/>
<path d="M503.428 76.6691H491.244C491.244 76.6691 488.648 76.276 487.848 74.7027L487.587 67.6416L504.079 70.2649L503.428 76.6691Z" fill="#666666"/>
<path d="M490.728 86.4565L493.673 87.1167C493.723 86.6913 493.803 86.267 493.922 85.8473C493.44 85.8824 493.002 85.9682 492.619 86.1099L492.014 85.7664C492.236 84.7473 492.616 83.7442 493.174 82.7929C496.041 77.9023 502.394 76.2271 507.361 79.0509C511.65 81.4883 513.499 86.4818 512.079 90.948H523.725L525.738 79.2588C525.798 78.7895 526.384 75.0056 529.387 73.1687C529.122 72.6129 528.352 71.8281 526.11 72.0194C525.414 72.0742 524.792 71.5683 524.73 70.8785C524.669 70.1888 525.188 69.5806 525.889 69.5208C527.893 69.3489 529.475 69.7444 530.597 70.6964C531.204 71.2111 531.553 71.7911 531.762 72.2904C531.767 72.289 531.772 72.2879 531.776 72.2872C531.847 72.2752 531.919 72.2696 531.991 72.2696H536.386C537.089 72.2696 537.659 72.8311 537.659 73.524C537.659 74.2163 537.089 74.7777 536.386 74.7777H532.106C528.813 75.4091 528.284 79.4159 528.263 79.5833C528.261 79.6065 528.258 79.6286 528.254 79.6515L526.056 92.4126C525.952 93.0155 525.421 93.457 524.8 93.457H510.881C510.377 94.2238 509.787 94.9065 509.127 95.4933L508.306 95.0278C508.213 94.7311 508.076 94.421 507.906 94.1042C505.256 96.5877 501.16 97.1832 497.836 95.2932C495.648 94.0491 494.247 91.9811 493.786 89.7157L490.163 88.9029C489.477 88.7492 489.047 88.077 489.203 87.4017C489.36 86.726 490.046 86.3027 490.729 86.457L490.728 86.4565ZM501.256 88.068C499.509 87.0752 497.907 86.4357 496.507 86.1032C496.318 86.6178 496.21 87.147 496.174 87.6774L503.104 89.2303C502.523 88.8288 501.908 88.4382 501.256 88.068H501.256ZM499.109 93.1193C501.36 94.399 504.114 94.046 505.969 92.4453L496.632 90.3532C497.115 91.4775 497.955 92.4629 499.109 93.1193L499.109 93.1193Z" fill="#666666"/>
<path d="M536.585 79.7407C541.252 79.7407 545.05 83.4778 545.05 88.0724C545.05 92.667 541.252 96.4048 536.585 96.4048C531.918 96.4048 528.12 92.667 528.12 88.0724C528.12 83.4778 531.918 79.7407 536.585 79.7407ZM536.585 93.8968C539.848 93.8968 542.502 91.2844 542.502 88.0725C542.502 84.8606 539.848 82.2481 536.585 82.2481C533.323 82.2481 530.668 84.8606 530.668 88.0725C530.668 91.2844 533.323 93.8968 536.585 93.8968Z" fill="#666666"/>
<path d="M523.017 59.8454C523.39 61.721 522.451 63.4862 520.923 63.7805C520.713 63.8209 520.503 63.829 520.296 63.8121C520.304 63.8202 520.31 63.8258 520.31 63.8258C514.902 63.0281 516.209 62.891 515.802 60.841C515.394 58.7917 516.752 56.8047 518.834 56.4032C520.917 56.0018 522.936 57.3388 523.343 59.388L522.924 59.4685C522.959 59.5916 522.992 59.716 523.017 59.8454L523.017 59.8454ZM522.189 60.0046C522.164 59.8749 522.129 59.7508 522.091 59.6292L519.572 60.1143C518.336 60.4961 518.672 61.5691 519.229 62.4635C519.676 62.8692 520.222 63.0696 520.762 62.9655C521.832 62.7592 522.473 61.4309 522.189 60.0047L522.189 60.0046Z" fill="#666666"/>
<defs>
<linearGradient id="paint0_linear_1064_8248" x1="-474.237" y1="126.136" x2="997.017" y2="120.786" gradientUnits="userSpaceOnUse">
<stop stop-color="#4CB966" stop-opacity="0.2"/>
<stop offset="0.513571" stop-color="#4CB966"/>
<stop offset="1" stop-color="#4CB966" stop-opacity="0.2"/>
</linearGradient>
<clipPath id="clip0_1064_8248">
<rect x="96.3726" y="74.2412" width="96.3003" height="96.3003" rx="24" transform="rotate(-45 96.3726 74.2412)" fill="white"/>
</clipPath>
<clipPath id="clip1_1064_8248">
<rect x="331.002" y="74.2412" width="96.3003" height="96.3003" rx="24" transform="rotate(-45 331.002 74.2412)" fill="white"/>
</clipPath>
<clipPath id="clip2_1064_8248">
<rect x="561.352" y="74.2412" width="96.3003" height="96.3003" rx="24" transform="rotate(-45 561.352 74.2412)" fill="white"/>
</clipPath>
</defs>
</svg>
