<svg width="201" height="200" viewBox="0 0 201 200" fill="none" xmlns="http://www.w3.org/2000/svg">
<path d="M167.5 78.329V99.4501C167.5 101.969 165.696 104.009 163.469 104.009C162.545 104.019 161.66 104.363 160.996 104.968C160.26 105.635 159.759 106.497 159.561 107.44L146.883 163.569C146.426 165.588 144.819 167 142.975 167H58.0228C56.1819 167 54.5818 165.588 54.1173 163.569L41.4394 107.44C40.9823 105.421 39.3748 104.009 37.5314 104.009C36.9806 103.999 36.439 103.874 35.9459 103.643C35.4528 103.412 35.0204 103.081 34.6802 102.673C33.9019 101.76 33.4849 100.621 33.5004 99.4501V78.329C33.5004 75.8105 35.3045 73.7703 37.5314 73.7703H71.529L71.2267 74.2532C69.3931 77.1714 70.0936 81.1849 72.7874 83.2136C73.788 83.9827 75.0393 84.4052 76.3317 84.4105C78.3939 84.4105 80.3061 83.3268 81.4466 81.5107L86.3108 73.7703H117.293L118.718 79.5467C119.426 82.4142 121.869 84.4197 124.659 84.4197C125.217 84.4223 125.773 84.3444 126.306 84.1887C129.523 83.2437 131.452 79.6784 130.607 76.2426L129.995 73.7703H163.467C165.696 73.7703 167.5 75.8105 167.5 78.329Z" fill="#00A64F"/>
<path d="M101.148 45.6063L83.4516 73.7701L79.3273 80.3344C78.6342 81.4412 77.5133 82.0997 76.3286 82.0997C75.5936 82.0929 74.8835 81.8481 74.3181 81.4065C72.573 80.0964 72.1256 77.3584 73.3349 75.4244L74.3746 73.7677L95.1537 40.6964C95.4063 40.2596 95.757 39.8799 96.1814 39.5834C96.6059 39.2869 97.0939 39.0809 97.6116 38.9796C97.7907 38.9481 97.9725 38.9326 98.1547 38.9334C98.8912 38.9406 99.6027 39.1853 100.17 39.6266C101.945 40.9574 102.385 43.64 101.148 45.6063Z" fill="#00A64F"/>
<path d="M125.57 81.9867C125.274 82.0745 124.966 82.1197 124.655 82.1207C123.016 82.1207 121.556 80.8522 121.109 79.0361L119.813 73.7702L111.095 38.3559C110.532 36.0685 111.717 33.7348 113.735 33.134C114.031 33.0456 114.341 33.0004 114.652 33C115.198 33.0029 115.734 33.1416 116.205 33.402C116.714 33.6976 117.153 34.0882 117.495 34.5496C117.837 35.011 118.075 35.5334 118.193 36.0846L127.472 73.7702L128.209 76.774C128.765 79.0499 127.59 81.3929 125.57 81.9867Z" fill="#00A64F"/>
<path d="M125.57 81.9867C125.274 82.0745 124.966 82.1197 124.655 82.1207C123.016 82.1207 121.556 80.8522 121.109 79.0361L119.813 73.7702L111.095 38.3559C110.532 36.0685 111.717 33.7348 113.735 33.134C114.031 33.0456 114.341 33.0004 114.652 33C115.198 33.0029 115.734 33.1416 116.205 33.402C116.714 33.6976 117.153 34.0882 117.495 34.5496C117.837 35.011 118.075 35.5334 118.193 36.0846L127.472 73.7702L128.209 76.774C128.765 79.0499 127.59 81.3929 125.57 81.9867Z" fill="#00A64F"/>
<path d="M80.8289 155.238L125.662 144.981C127.645 144.528 129.415 143.417 130.683 141.829C131.951 140.241 132.642 138.27 132.643 136.239V134.822C132.644 133.492 132.348 132.178 131.777 130.976C131.207 129.774 130.376 128.714 129.344 127.872C128.313 127.03 127.107 126.428 125.814 126.109C124.521 125.789 123.173 125.761 121.868 126.026L78.813 134.748C77.6089 134.992 76.3674 134.987 75.1653 134.733C73.9632 134.479 72.8261 133.982 71.8242 133.271C70.8222 132.561 69.9769 131.653 69.3403 130.604C68.7037 129.554 68.2894 128.385 68.123 127.17L68.0908 126.928C67.7815 124.671 68.3435 122.381 69.663 120.522C70.9825 118.664 72.9606 117.376 75.1959 116.92L125.81 106.59C127.669 106.211 128.828 108.541 127.402 109.793L79.1955 152.047C77.7417 153.312 78.9559 155.666 80.8289 155.238Z" fill="white"/>
<path d="M123.635 103.8C127.27 103.8 130.217 100.857 130.217 97.2268C130.217 93.5966 127.27 90.6538 123.635 90.6538C120 90.6538 117.053 93.5966 117.053 97.2268C117.053 100.857 120 103.8 123.635 103.8Z" fill="white"/>
</svg>
