<svg width="380" height="208" viewBox="0 0 380 208" fill="none" xmlns="http://www.w3.org/2000/svg">
<rect y="48" width="380" height="160" rx="10" fill="white"/>
<rect y="48" width="380" height="160" rx="10" fill="#4CB966" fill-opacity="0.1"/>
<rect x="150" width="80" height="80" rx="40" fill="white"/>
<g clip-path="url(#clip0_799_4220)">
<path d="M188.141 12.1097C186.423 12.3504 184.542 12.9301 183.098 13.641C181.206 14.6035 179.172 16.3207 177.794 18.1472C175.377 21.3629 174.261 25.8254 175.005 29.3363C175.792 33.0551 178.527 39.0816 182.858 46.6504C183.492 47.7551 183.984 48.6738 183.963 48.6957C183.941 48.7176 183.055 48.8597 181.983 49.0238C178.778 49.4832 176.109 50.2488 174.195 51.2441C173.156 51.791 171.942 52.9941 171.702 53.716C170.389 57.5988 175.606 60.3332 185.811 61.1207C187.966 61.2847 194.397 61.1863 196.234 60.9566C204.361 59.9285 208.484 57.9051 208.484 54.9301C208.484 53.8472 208.233 53.2894 207.347 52.4144C205.652 50.741 202.283 49.5597 197.339 48.9144C196.65 48.8269 196.07 48.7285 196.038 48.7066C196.016 48.6738 196.53 47.7004 197.197 46.541C200.981 39.8801 203.584 34.3676 204.591 30.8457C205.159 28.866 205.247 28.2535 205.17 26.4379C205.017 22.5004 203.355 18.9129 200.391 16.1238C198.356 14.2097 195.863 12.9082 193.084 12.3285C191.87 12.066 189.256 11.9566 188.141 12.1097ZM192.461 15.5441C196.902 16.4957 200.434 19.8863 201.605 24.316C201.933 25.5519 202.009 27.6738 201.769 28.7785C200.905 32.6613 197.361 39.9785 192.002 48.9363C191.313 50.0847 190.656 51.1129 190.536 51.2222C190.263 51.4629 189.738 51.4629 189.464 51.2222C189.245 51.0254 187.441 48.0504 185.866 45.3051C181.819 38.2176 179.095 32.3769 178.286 29.0082C178.034 27.9254 178.013 26.2629 178.253 25.016C179.194 20.0285 183.197 16.2004 188.316 15.391C189.202 15.2597 191.531 15.3363 192.461 15.5441ZM186.423 52.666C187.419 54.2082 189.016 54.9519 190.678 54.6566C191.969 54.416 192.866 53.7926 193.609 52.6113L194.069 51.8894L195.119 51.966C197.525 52.1519 201.167 52.8738 202.852 53.5082C203.781 53.8582 204.809 54.4051 205.061 54.6785C205.247 54.8863 205.247 54.8972 204.984 55.1051C203.388 56.3738 199.177 57.4347 194.277 57.8176C192.373 57.9707 187.627 57.9707 185.723 57.8176C180.823 57.4347 176.613 56.3738 175.016 55.1051C174.753 54.8972 174.753 54.8863 174.939 54.6785C175.191 54.4051 176.219 53.8582 177.138 53.5082C178.975 52.8191 183.208 52.0097 185.373 51.9441L185.942 51.9222L186.423 52.666Z" fill="#4CB966"/>
<path d="M188.6 20.2469C185.669 20.9906 183.722 23.6047 183.908 26.5578C184.116 29.8281 186.719 32.2891 190 32.2891C193.281 32.2891 195.884 29.8281 196.092 26.5578C196.223 24.3922 195.206 22.3359 193.413 21.1547C192.319 20.4328 191.564 20.1922 190.273 20.1375C189.584 20.1156 188.972 20.1484 188.6 20.2469ZM191.094 23.6047C191.695 23.8781 192.242 24.3812 192.548 24.9609C192.888 25.5844 192.877 26.8531 192.548 27.4875C192.089 28.3516 190.941 29.0625 190 29.0625C189.059 29.0625 187.911 28.3516 187.452 27.4875C187.123 26.8531 187.113 25.5844 187.452 24.9609C187.966 23.9984 188.961 23.375 190 23.375C190.372 23.375 190.788 23.4625 191.094 23.6047Z" fill="#4CB966"/>
<path d="M166.517 51.4406C164.844 52.3156 163.247 53.814 162.591 55.1484C161.847 56.6578 161.836 58.1672 162.58 59.6765C163.017 60.5734 164.537 62.1484 165.719 62.914C169.503 65.375 176.175 67.1359 184.258 67.8031C186.445 67.989 193.511 67.9781 195.742 67.8031C203.803 67.1468 210.486 65.3859 214.281 62.914C215.463 62.1484 216.983 60.5734 217.42 59.6765C218.481 57.5109 218.022 55.3234 216.097 53.3984C215.178 52.4797 213.822 51.5062 213.013 51.2C212.356 50.9484 211.831 51.0687 211.317 51.5828C210.792 52.0968 210.683 52.6218 210.945 53.3C211.109 53.7375 211.252 53.8687 212.214 54.4922C213.866 55.564 214.719 56.5484 214.719 57.3906C214.719 58.5172 213.188 59.95 210.748 61.1093C203.737 64.4453 190.612 65.6375 179.413 63.9422C172.314 62.8703 166.714 60.5406 165.5 58.1672C164.92 57.0187 165.609 55.9031 167.786 54.4922C168.748 53.8687 168.891 53.7375 169.055 53.3C169.383 52.4468 169 51.55 168.158 51.2C167.622 50.9703 167.337 51.014 166.517 51.4406Z" fill="#4CB966"/>
</g>
<defs>
<clipPath id="clip0_799_4220">
<rect width="56" height="56" fill="white" transform="translate(162 12)"/>
</clipPath>
</defs>
</svg>
