<svg width="85" height="68" viewBox="0 0 85 68" fill="none" xmlns="http://www.w3.org/2000/svg">
<path d="M62.7674 17.8916C65.6766 17.8916 68.0348 15.4534 68.0348 12.4457C68.0348 9.43821 65.6766 7 62.7674 7C59.8582 7 57.5 9.43821 57.5 12.4457C57.5 15.4534 59.8582 17.8916 62.7674 17.8916Z" fill="#4CB966"/>
<path d="M26.3218 60.4451L62.4153 51.9024C64.0118 51.5252 65.4369 50.5994 66.4578 49.2765C67.4784 47.954 68.0348 46.3124 68.0355 44.6209V43.4403C68.0358 42.3323 67.7976 41.2382 67.3386 40.2372C66.8792 39.2361 66.2101 38.3529 65.3797 37.6515C64.5494 36.9505 63.5786 36.4488 62.5379 36.1832C61.4969 35.9171 60.4115 35.8937 59.3606 36.1145L24.699 43.3789C23.7295 43.5822 22.73 43.5779 21.7624 43.3663C20.7945 43.1548 19.8789 42.7406 19.0724 42.1488C18.2658 41.5573 17.5853 40.8009 17.0729 39.9269C16.5602 39.0529 16.2267 38.0796 16.0928 37.067L16.0668 36.8657C15.8179 34.9857 16.2704 33.078 17.3326 31.5301C18.3948 29.982 19.9873 28.9095 21.7868 28.53L62.5341 19.926C64.031 19.61 64.9641 21.5511 63.8158 22.5934L25.0069 57.7872C23.8363 58.841 24.8139 60.8015 26.3218 60.4451Z" fill="#4CB966"/>
</svg>
