<svg width="379" height="208" viewBox="0 0 379 208" fill="none" xmlns="http://www.w3.org/2000/svg">
<rect y="48" width="379" height="160" rx="10" fill="white"/>
<rect y="48" width="379" height="160" rx="10" fill="#4CB966" fill-opacity="0.1"/>
<rect x="150" width="80" height="80" rx="40" fill="white"/>
<g clip-path="url(#clip0_799_4234)">
<path d="M172.806 12.2301C172.555 12.3613 172.303 12.6129 172.172 12.8754C171.964 13.291 171.953 13.5098 171.953 19.7879V26.2738L168.989 29.227C167.359 30.8566 165.883 32.3988 165.708 32.6613L165.391 33.1535V48.2691C165.391 58.091 165.434 63.5816 165.5 63.9645C165.872 65.9332 167.458 67.5191 169.427 67.891C170.236 68.0441 209.764 68.0441 210.573 67.891C212.542 67.5191 214.128 65.9332 214.5 63.9645C214.566 63.5816 214.609 58.091 214.609 48.291C214.609 33.602 214.598 33.1973 214.402 32.8035C214.281 32.5848 212.805 31.0207 211.12 29.3363L208.047 26.2738V19.7879C208.047 13.5098 208.036 13.291 207.828 12.8754C207.686 12.591 207.456 12.3613 207.172 12.2191C206.745 12.0004 206.57 12.0004 189.978 12.0004C173.495 12.0113 173.2 12.0113 172.806 12.2301ZM204.766 27.3348V39.3988L200.314 43.8504L195.852 48.3129H190H184.148L179.697 43.8613L175.234 39.3988V27.3457V15.2816H190H204.766V27.3348ZM171.953 33.5691V36.1176L170.673 34.8379L169.383 33.5473L170.641 32.2895C171.33 31.6004 171.909 31.0316 171.92 31.0316C171.942 31.0316 171.953 32.1801 171.953 33.5691ZM209.327 34.827L208.047 36.1176V33.5473V30.977L209.327 32.2676L210.617 33.5473L209.327 34.827ZM174.873 56.1551L168.672 62.3676V49.9535V37.5395L174.873 43.752L181.086 49.9535L174.873 56.1551ZM211.328 49.9754V62.3676L205.127 56.166L198.914 49.9535L205.094 43.7738C208.495 40.3723 211.284 37.5941 211.295 37.5941C211.317 37.5941 211.328 43.1723 211.328 49.9754ZM202.414 58.1566L208.977 64.7191H190H171.023L177.586 58.1566L184.148 51.5941H190H195.852L202.414 58.1566Z" fill="#4CB966"/>
<path d="M188.141 18.7272C181.666 19.8647 177.433 26.0663 178.789 32.421C179.577 36.1725 182.322 39.3882 185.844 40.7335C188.359 41.685 191.127 41.7507 193.664 40.9303C195.589 40.3069 196.158 39.8257 196.158 38.8632C196.158 37.9663 195.491 37.2663 194.637 37.2663C194.408 37.2663 193.73 37.4413 193.117 37.6491C191.706 38.1303 190.634 38.2944 189.453 38.2069C187.419 38.0538 185.855 37.3538 184.356 35.9319C181.884 33.5803 181.141 29.9928 182.453 26.8757C183.448 24.535 185.636 22.6866 188.141 22.0522C188.48 21.9647 189.289 21.8991 190 21.8991C190.711 21.8991 191.52 21.9647 191.859 22.0522C194.802 22.796 197.164 25.1147 197.941 28.0241C198.028 28.3194 198.127 28.9647 198.159 29.446C198.225 30.2116 198.203 30.3866 197.995 30.7913C197.394 31.9616 195.677 31.9616 195.152 30.7803C195.031 30.5288 194.9 29.9382 194.834 29.4788C194.561 27.2585 192.942 25.585 190.722 25.2132C187.561 24.6882 184.641 27.6085 185.166 30.7694C185.756 34.3569 189.737 36.096 192.778 34.0835L193.281 33.7444L193.784 34.0835C196.869 36.1288 200.883 34.3132 201.408 30.6382C201.703 28.6366 200.937 25.8366 199.537 23.7038C197.087 19.985 192.461 17.9725 188.141 18.7272ZM190.766 28.6366C191.63 29.1178 191.859 30.1569 191.302 30.9772C190.623 31.9616 189.125 31.8741 188.578 30.8132C188.305 30.2663 188.305 29.8288 188.578 29.2819C188.983 28.4835 189.978 28.1882 190.766 28.6366Z" fill="#4CB966"/>
</g>
<defs>
<clipPath id="clip0_799_4234">
<rect width="56" height="56" fill="white" transform="translate(162 12)"/>
</clipPath>
</defs>
</svg>
