<svg width="380" height="208" viewBox="0 0 380 208" fill="none" xmlns="http://www.w3.org/2000/svg">
<rect y="48" width="380" height="160" rx="10" fill="white"/>
<rect y="48" width="380" height="160" rx="10" fill="#4CB966" fill-opacity="0.1"/>
<rect x="150" width="80" height="80" rx="40" fill="white"/>
<path d="M174.786 13.903C173.55 14.3842 171.647 16.0248 169.405 18.5623C167.152 21.0998 164.92 24.1842 164.111 25.8795L163.706 26.6998L163.837 27.8045C164.844 36.4998 172.084 47.8639 181.797 55.9795C188.655 61.6998 196.048 65.4077 202.141 66.1514C203.147 66.2827 203.202 66.2717 203.836 66.0202C206.417 64.9592 212.52 60.0592 214.828 57.1827C215.845 55.9139 216.195 55.203 216.195 54.4373C216.184 53.6827 215.791 52.7858 215.167 52.1077C214.248 51.1123 208.528 47.4483 205.477 45.9061C203.442 44.878 202.359 44.4842 201.55 44.4842C200.281 44.4842 199.581 44.9873 197.602 47.2952C196.836 48.1811 196.147 48.9248 196.07 48.9467C195.841 49.0014 193.959 48.2358 192.647 47.5358C188.217 45.217 184.772 41.7717 182.464 37.3748C181.775 36.0405 180.998 34.1592 181.053 33.9295C181.075 33.8639 181.808 33.1748 182.683 32.4202C185.012 30.4186 185.505 29.7295 185.516 28.4827C185.516 26.8311 183.689 23.2327 180.091 17.8405C179.139 16.4186 178.198 15.117 177.914 14.8545C176.973 13.9905 175.628 13.5748 174.786 13.903ZM176.416 18.5842C178.166 21.0561 180.123 24.3373 181.381 26.9295C181.731 27.6514 182.016 28.2748 182.016 28.3186C182.016 28.3514 181.414 28.8983 180.681 29.5217C178.811 31.0858 177.684 32.1905 177.466 32.6498C177.214 33.1858 177.302 33.8858 177.87 35.5702C179.052 39.1248 181.698 43.2373 184.597 46.0155C187.736 49.0233 191.641 51.353 195.294 52.403C196.333 52.7092 196.825 52.753 197.273 52.578C197.711 52.4139 198.641 51.4733 200.194 49.6577C200.97 48.7389 201.637 47.9842 201.681 47.9842C201.725 47.9842 202.348 48.2686 203.07 48.6186C205.673 49.8873 208.933 51.8233 211.383 53.5623L212.641 54.4592L211.755 55.4327C209.83 57.5436 205.947 60.792 203.541 62.3014L202.808 62.7608L202.064 62.6295C192.417 61.0217 180.441 52.1405 173.102 41.1483C169.995 36.4889 168.048 32.0045 167.37 27.9358L167.239 27.192L167.622 26.5686C168.956 24.3702 172.358 20.2905 174.523 18.278C175.059 17.7748 175.519 17.3702 175.53 17.3592C175.541 17.3592 175.934 17.917 176.416 18.5842Z" fill="#4CB966"/>
<path d="M191.039 15.6527C190.011 16.1012 189.683 17.4902 190.405 18.3543C190.798 18.8137 191.28 18.9996 192.1 18.9996C195.37 18.9996 199.286 20.2137 202.217 22.1168C204.919 23.8668 207.281 26.4699 208.747 29.2918C210.158 31.9824 210.759 34.2355 210.978 37.5715C211.077 39.0043 211.164 39.2449 211.809 39.7152C212.236 40.0324 213.264 40.0324 213.691 39.7152C214.489 39.1246 214.609 38.5668 214.391 36.2699C213.658 28.2746 208.922 21.384 201.758 17.8512C199.384 16.6809 197 15.9809 194.288 15.6637C192.592 15.4668 191.477 15.4559 191.039 15.6527Z" fill="#4CB966"/>
<path d="M191.039 24.3918C189.978 24.884 189.683 26.273 190.448 27.148C190.853 27.5965 191.192 27.7168 192.461 27.7934C195.064 27.9574 197.328 29.0184 199.242 30.9652C201.102 32.8684 202.02 34.9355 202.239 37.7684C202.327 38.9934 202.447 39.2559 203.059 39.7152C203.486 40.0324 204.514 40.0324 204.941 39.7152C205.761 39.1137 205.892 38.3699 205.586 36.2699C205.148 33.2184 203.836 30.6152 201.605 28.3949C199.078 25.8574 196.016 24.4793 192.57 24.3043C191.663 24.2605 191.28 24.2824 191.039 24.3918Z" fill="#4CB966"/>
</svg>
