<svg width="86" height="85" viewBox="0 0 86 85" fill="none" xmlns="http://www.w3.org/2000/svg">
<path d="M85.5395 0.0300293L0.939453 84.63V36.97L37.8795 0.0300293H85.5395Z" fill="#F7BC0D"/>
<path d="M21.4399 48.77C20.3299 49.09 19.2099 49.11 18.0699 48.82C16.9399 48.53 15.9199 47.94 15.0199 47.05C14.1199 46.16 13.5199 45.15 13.2199 44.03C12.9199 42.91 12.9199 41.78 13.2299 40.67C13.5399 39.55 14.1199 38.57 14.9599 37.71C15.8099 36.84 16.7999 36.25 17.9099 35.93C19.0199 35.61 20.1399 35.59 21.2599 35.88C22.3799 36.17 23.3999 36.76 24.2999 37.65C25.1999 38.54 25.8099 39.55 26.1199 40.67C26.4299 41.79 26.4299 42.92 26.1199 44.03C25.8099 45.15 25.2299 46.14 24.3799 47C23.5299 47.86 22.5499 48.45 21.4399 48.77ZM24.2599 43.67C24.4499 42.92 24.4199 42.15 24.1699 41.37C23.9199 40.59 23.4499 39.87 22.7699 39.2C22.0899 38.53 21.3599 38.08 20.5799 37.84C19.7999 37.6 19.0399 37.59 18.2999 37.8C17.5599 38.01 16.8799 38.41 16.2799 39.02C15.6799 39.63 15.2799 40.31 15.0799 41.05C14.8799 41.8 14.9099 42.56 15.1499 43.33C15.3999 44.11 15.8599 44.83 16.5399 45.5C17.2199 46.17 17.9499 46.63 18.7299 46.87C19.5099 47.11 20.2799 47.13 21.0299 46.93C21.7799 46.73 22.4499 46.32 23.0499 45.71C23.6699 45.1 24.0599 44.42 24.2599 43.67Z" fill="white"/>
<path d="M27.34 31.6799L26.01 33.0299L32.08 39.0099L30.58 40.5299L24.51 34.5499L23.66 35.4099L22.43 34.1899L23.28 33.3299L22.76 32.8199C21.92 31.9899 21.53 31.1699 21.59 30.3399C21.65 29.5199 22.14 28.6299 23.08 27.6699L24.34 28.9099C23.89 29.3699 23.66 29.7799 23.64 30.1299C23.63 30.4899 23.84 30.8699 24.26 31.2899L24.78 31.7999L26.11 30.4499L27.34 31.6799Z" fill="white"/>
<path d="M31.6798 27.29L30.3498 28.64L36.4198 34.62L34.9198 36.14L28.8498 30.16L27.9998 31.02L26.7698 29.8L27.6198 28.94L27.0998 28.43C26.2598 27.6 25.8698 26.78 25.9298 25.95C25.9898 25.13 26.4798 24.24 27.4198 23.28L28.6798 24.52C28.2298 24.98 27.9998 25.39 27.9798 25.74C27.9698 26.1 28.1798 26.48 28.5998 26.9L29.1198 27.41L30.4498 26.06L31.6798 27.29Z" fill="white"/>
<path d="M42.519 22.2501L37.019 27.8301C37.649 28.3601 38.329 28.6101 39.059 28.5701C39.799 28.5301 40.439 28.2301 40.999 27.6601C41.799 26.8501 42.029 25.9401 41.679 24.9301L43.289 23.3001C43.739 24.1801 43.899 25.1201 43.759 26.1301C43.619 27.1301 43.119 28.0601 42.279 28.9201C41.589 29.6201 40.819 30.0901 39.959 30.3301C39.099 30.5701 38.229 30.5701 37.359 30.3201C36.479 30.0701 35.669 29.5801 34.919 28.8401C34.169 28.1001 33.659 27.3001 33.389 26.4301C33.119 25.5601 33.099 24.7001 33.339 23.8401C33.579 22.9801 34.049 22.2001 34.749 21.4801C35.429 20.7901 36.189 20.3301 37.019 20.0801C37.849 19.8401 38.689 19.8301 39.529 20.0701C40.369 20.3101 41.139 20.7701 41.849 21.4701C42.109 21.7401 42.339 22.0001 42.519 22.2501ZM39.799 22.5701C39.239 22.0301 38.589 21.7901 37.869 21.8501C37.149 21.9101 36.509 22.2201 35.939 22.8001C35.429 23.3201 35.149 23.9301 35.119 24.6301C35.089 25.3301 35.319 25.9901 35.809 26.6201L39.799 22.5701Z" fill="white"/>
<path d="M42.3803 14.36C42.5303 13.79 42.8603 13.25 43.3603 12.75L44.9203 14.29L44.5403 14.67C43.9603 15.26 43.6603 15.86 43.6603 16.46C43.6603 17.06 44.0303 17.73 44.7703 18.46L48.6103 22.25L47.1203 23.76L39.8203 16.56L41.3103 15.05L42.3703 16.1C42.2203 15.51 42.2203 14.93 42.3803 14.36Z" fill="white"/>
</svg>
