<svg width="86" height="85" viewBox="0 0 86 85" fill="none" xmlns="http://www.w3.org/2000/svg">
<path d="M85.5395 0L0.939453 84.6V36.94L37.8795 0H85.5395Z" fill="#662D91"/>
<path d="M21.4496 48.74C20.3396 49.06 19.2196 49.08 18.0796 48.79C16.9496 48.5 15.9296 47.91 15.0296 47.02C14.1296 46.13 13.5296 45.12 13.2296 44C12.9296 42.88 12.9296 41.75 13.2396 40.64C13.5496 39.52 14.1296 38.54 14.9696 37.68C15.8196 36.81 16.8096 36.22 17.9196 35.9C19.0296 35.58 20.1496 35.56 21.2696 35.85C22.3896 36.14 23.4096 36.73 24.3096 37.62C25.2096 38.51 25.8196 39.52 26.1296 40.64C26.4396 41.76 26.4396 42.89 26.1296 44C25.8196 45.12 25.2396 46.11 24.3896 46.97C23.5396 47.83 22.5596 48.42 21.4496 48.74ZM24.2596 43.64C24.4496 42.89 24.4196 42.12 24.1696 41.34C23.9196 40.56 23.4496 39.84 22.7696 39.17C22.0896 38.5 21.3596 38.05 20.5796 37.81C19.7996 37.57 19.0396 37.56 18.2996 37.77C17.5596 37.98 16.8796 38.38 16.2796 38.99C15.6796 39.6 15.2796 40.28 15.0796 41.02C14.8796 41.77 14.9096 42.53 15.1496 43.3C15.3996 44.08 15.8596 44.8 16.5396 45.47C17.2196 46.14 17.9496 46.6 18.7296 46.84C19.5096 47.08 20.2796 47.1 21.0296 46.9C21.7796 46.7 22.4496 46.29 23.0496 45.68C23.6696 45.07 24.0696 44.39 24.2596 43.64Z" fill="white"/>
<path d="M27.34 31.6499L26.01 32.9999L32.08 38.9799L30.58 40.4999L24.51 34.5199L23.66 35.3799L22.43 34.1599L23.28 33.2999L22.76 32.7899C21.92 31.9599 21.53 31.1399 21.59 30.3099C21.65 29.4899 22.14 28.5999 23.08 27.6399L24.34 28.8799C23.89 29.3399 23.66 29.7499 23.64 30.0999C23.63 30.4599 23.84 30.8399 24.26 31.2599L24.78 31.7699L26.11 30.4199L27.34 31.6499Z" fill="white"/>
<path d="M31.6798 27.26L30.3498 28.61L36.4198 34.59L34.9198 36.11L28.8498 30.13L27.9998 30.99L26.7698 29.77L27.6198 28.91L27.0998 28.4C26.2598 27.57 25.8698 26.75 25.9298 25.92C25.9898 25.1 26.4798 24.21 27.4198 23.25L28.6798 24.49C28.2298 24.95 27.9998 25.36 27.9798 25.71C27.9698 26.07 28.1798 26.45 28.5998 26.87L29.1198 27.38L30.4498 26.03L31.6798 27.26Z" fill="white"/>
<path d="M42.5288 22.2201L37.0288 27.8001C37.6588 28.3301 38.3388 28.5801 39.0688 28.5401C39.8088 28.5001 40.4488 28.2001 41.0088 27.6301C41.8088 26.8201 42.0388 25.9101 41.6888 24.9001L43.2988 23.2701C43.7488 24.1501 43.9088 25.0901 43.7688 26.1001C43.6288 27.1001 43.1288 28.0301 42.2888 28.8901C41.5988 29.5901 40.8288 30.0601 39.9688 30.3001C39.1088 30.5401 38.2388 30.5401 37.3688 30.2901C36.4888 30.0401 35.6788 29.5501 34.9288 28.8101C34.1788 28.0701 33.6688 27.2701 33.3988 26.4001C33.1288 25.5301 33.1088 24.6701 33.3488 23.8101C33.5888 22.9501 34.0588 22.1701 34.7588 21.4501C35.4388 20.7601 36.1988 20.3001 37.0288 20.0501C37.8588 19.8101 38.6988 19.8001 39.5388 20.0401C40.3788 20.2801 41.1488 20.7401 41.8588 21.4401C42.1088 21.7101 42.3388 21.9701 42.5288 22.2201ZM39.8088 22.5401C39.2488 22.0001 38.5988 21.7601 37.8788 21.8201C37.1588 21.8801 36.5188 22.1901 35.9488 22.7701C35.4388 23.2901 35.1588 23.9001 35.1288 24.6001C35.0988 25.3001 35.3288 25.9601 35.8188 26.5901L39.8088 22.5401Z" fill="white"/>
<path d="M42.3803 14.33C42.5303 13.76 42.8603 13.22 43.3603 12.72L44.9203 14.26L44.5403 14.64C43.9603 15.23 43.6603 15.83 43.6603 16.43C43.6603 17.03 44.0303 17.7 44.7703 18.43L48.6103 22.22L47.1203 23.73L39.8203 16.53L41.3103 15.02L42.3703 16.07C42.2303 15.48 42.2303 14.9 42.3803 14.33Z" fill="white"/>
</svg>
