<svg width="56" height="56" viewBox="0 0 56 56" fill="none" xmlns="http://www.w3.org/2000/svg">
<path d="M44.059 9.66875C47.8461 10.3906 51.1093 12.8516 52.8119 16.2641C53.7614 18.1781 54.198 20.1906 54.0997 22.2578C53.936 25.4734 52.7137 28.2187 50.4545 30.4172C48.9266 31.9156 47.3441 32.8453 45.4014 33.4031C44.2882 33.7203 44.2991 33.6766 45.0631 35.2625C46.089 37.3734 47.486 39.4953 49.1994 41.5516C50.3017 42.875 50.5527 43.5203 50.3126 44.5156C50.0398 45.6641 49.0139 46.4844 47.8461 46.4844C46.8093 46.4844 43.7862 45.325 41.6034 44.0781C34.7823 40.1953 30.8096 33.9172 29.8383 25.5172C29.5982 23.4719 29.6746 20.3219 29.9911 19.1406C31.0388 15.2031 33.5381 12.1187 36.9432 10.5437C38.4384 9.85469 39.5625 9.61406 41.527 9.55937C42.7057 9.5375 43.5242 9.57031 44.059 9.66875ZM39.8681 13.2344C38.2747 13.6172 36.8231 14.4812 35.6335 15.7719C34.7168 16.7672 34.0729 17.8609 33.6036 19.2281L33.2325 20.2891V22.5859C33.2325 25.3969 33.4508 27.0047 34.1711 29.5094C35.6772 34.7375 39.1587 38.9703 43.8953 41.3547C44.4956 41.65 44.943 41.8359 44.8885 41.7594C44.8448 41.6828 44.4192 41.0484 43.9499 40.3484C43.0331 38.9594 41.7889 36.6297 41.2651 35.3062C40.6648 33.8297 40.8394 32.5281 41.7671 31.5C42.3455 30.8547 42.9676 30.5156 44.0044 30.2531C46.6674 29.5969 49.0794 27.4531 50.0507 24.8719C51.1857 21.8422 50.6291 18.6047 48.5337 16.0672C47.4532 14.7656 45.6415 13.6391 43.9499 13.2234C42.8367 12.95 41.025 12.95 39.8681 13.2344Z" fill="#4CB966"/>
<path d="M16.425 9.73438C21.4344 10.7953 25.287 14.8094 26.0837 19.8188C26.302 21.1641 26.171 23.6578 25.8218 24.9266C25.2434 27.0047 24.152 28.8641 22.6349 30.3734C21.1725 31.8391 19.459 32.8453 17.4945 33.4141C16.9707 33.5672 16.5341 33.7094 16.5232 33.7203C16.4577 33.775 17.44 35.8422 17.9529 36.75C18.7387 38.1391 19.9065 39.8234 21.0524 41.2234C22.2202 42.6563 22.4712 43.1375 22.4822 43.9469C22.4822 44.6469 22.3075 45.1063 21.8164 45.6641C21.3362 46.2 20.725 46.4844 19.9829 46.4844C18.706 46.4844 14.7552 44.8219 12.4414 43.3125C9.60383 41.4531 7.17005 38.9813 5.43475 36.1813C3.66671 33.3375 2.43345 29.5641 1.95324 25.5938C1.75679 24.0188 1.75679 20.8141 1.95324 19.8516C2.99005 14.6016 6.85355 10.6203 11.8193 9.67969C13.0308 9.45 15.1808 9.47188 16.425 9.73438ZM11.9394 13.2344C8.57793 14.0875 6.0241 16.9531 5.3911 20.5953C4.98728 22.8813 5.46749 27.0156 6.50431 30.1766C7.71574 33.8844 9.95308 37.1 12.9326 39.3969C14.144 40.3484 17.0252 42.0547 17.0252 41.8359C17.0252 41.8031 16.7633 41.3984 16.4468 40.9281C15.2245 39.1672 13.6092 36.1266 13.1617 34.7484C12.7034 33.3594 13.26 31.7734 14.4932 30.9094C14.7333 30.7453 15.4318 30.4609 16.0539 30.2859C18.7605 29.4984 20.725 27.8906 21.8819 25.5172C22.9624 23.2859 22.9951 20.4203 21.9474 18.1125C20.8451 15.6734 18.4659 13.7375 15.8902 13.1797C14.8425 12.95 12.9544 12.9719 11.9394 13.2344Z" fill="#4CB966"/>
</svg>
