<svg width="234" height="67" viewBox="0 0 234 67" fill="none" xmlns="http://www.w3.org/2000/svg">
<path d="M26.2827 60.3565L62.3763 51.8138C63.9728 51.4365 65.3978 50.5108 66.4187 49.1879C67.4393 47.8654 67.9958 46.2237 67.9964 44.5322V43.3517C67.9967 42.2437 67.7586 41.1496 67.2995 40.1485C66.8401 39.1475 66.171 38.2643 65.3407 37.5629C64.5104 36.8619 63.5396 36.3602 62.4989 36.0945C61.4578 35.8285 60.3724 35.8051 59.3215 36.0259L24.6599 43.2903C23.6905 43.4936 22.6909 43.4893 21.7233 43.2777C20.7555 43.0662 19.8399 42.6519 19.0333 42.0602C18.2268 41.4687 17.5462 40.7123 17.0338 39.8383C16.5211 38.9643 16.1876 37.991 16.0537 36.9784L16.0277 36.7771C15.7788 34.8971 16.2313 32.9893 17.2935 31.4415C18.3557 29.8933 19.9482 28.8208 21.7477 28.4414L62.495 19.8373C63.9919 19.5213 64.925 21.4625 63.7767 22.5048L24.9678 57.6986C23.7973 58.7524 24.7749 60.7129 26.2827 60.3565Z" fill="#4CB966"/>
<path d="M60.8143 17.4927C63.7235 17.4927 66.0817 15.0545 66.0817 12.0468C66.0817 9.03928 63.7235 6.60107 60.8143 6.60107C57.9051 6.60107 55.5469 9.03928 55.5469 12.0468C55.5469 15.0545 57.9051 17.4927 60.8143 17.4927Z" fill="#4CB966"/>
<path d="M89.0629 45.877C87.4795 45.877 86.057 45.5958 84.7951 45.033C83.5555 44.4465 82.5802 43.6488 81.8693 42.6402C81.1577 41.6084 80.7902 40.4239 80.7676 39.0872H84.1065C84.2214 40.2361 84.6801 41.2097 85.4833 42.0071C86.3092 42.7811 87.5025 43.1679 89.0629 43.1679C90.5544 43.1679 91.725 42.793 92.5739 42.0424C93.446 41.2685 93.8818 40.2836 93.8818 39.0872C93.8818 38.1492 93.6296 37.3868 93.1246 36.8006C92.6195 36.2141 91.9887 35.7685 91.2312 35.4636C90.4743 35.1586 89.4527 34.8305 88.1681 34.4787C86.5844 34.0566 85.3113 33.6341 84.3472 33.212C83.4064 32.7896 82.5917 32.1333 81.9034 31.242C81.2381 30.327 80.9048 29.1075 80.9048 27.583C80.9048 26.2462 81.2381 25.0617 81.9034 24.0299C82.5687 22.9977 83.498 22.2004 84.6913 21.6377C85.9076 21.0746 87.296 20.7932 88.8564 20.7932C91.1054 20.7932 92.9413 21.3677 94.3638 22.5173C95.8097 23.6663 96.624 25.1908 96.8076 27.0907H93.3656C93.2507 26.1526 92.7693 25.3317 91.9198 24.6281C91.0706 23.9009 89.9466 23.5372 88.5464 23.5372C87.2385 23.5372 86.1719 23.889 85.3454 24.5926C84.5192 25.2731 84.1065 26.2344 84.1065 27.4776C84.1065 28.3689 84.3472 29.0957 84.8292 29.6589C85.3339 30.2216 85.9424 30.6556 86.6533 30.9606C87.3876 31.242 88.4091 31.5701 89.717 31.9456C91.3001 32.391 92.5739 32.8369 93.5377 33.2823C94.5014 33.7047 95.3276 34.3728 96.0159 35.2877C96.7045 36.1791 97.0486 37.3987 97.0486 38.9463C97.0486 40.1427 96.7386 41.2685 96.119 42.324C95.4997 43.3795 94.5819 44.2353 93.3656 44.8921C92.1493 45.5489 90.715 45.877 89.0629 45.877Z" fill="black"/>
<path d="M100.24 35.9055C100.24 33.9463 100.624 32.2317 101.392 30.7621C102.16 29.2694 103.21 28.1149 104.542 27.2986C105.897 26.4822 107.399 26.074 109.048 26.074C110.674 26.074 112.085 26.4351 113.283 27.1584C114.479 27.8817 115.372 28.7912 115.958 29.8874V26.3886H119.075V45.5617H115.958V41.9936C115.349 43.1128 114.434 44.0458 113.215 44.7924C112.017 45.5152 110.618 45.8769 109.014 45.8769C107.365 45.8769 105.875 45.4571 104.542 44.6175C103.21 43.7778 102.16 42.5995 101.392 41.0836C100.624 39.5674 100.24 37.8416 100.24 35.9055ZM115.958 35.9401C115.958 34.4942 115.676 33.2347 115.112 32.1616C114.547 31.0889 113.779 30.2725 112.808 29.7124C111.86 29.1293 110.809 28.8377 109.658 28.8377C108.506 28.8377 107.456 29.1176 106.507 29.6777C105.558 30.2372 104.802 31.0536 104.237 32.1268C103.673 33.1994 103.391 34.4592 103.391 35.9055C103.391 37.3749 103.673 38.6578 104.237 39.7542C104.802 40.8272 105.558 41.6549 106.507 42.2381C107.456 42.7982 108.506 43.0778 109.658 43.0778C110.809 43.0778 111.86 42.7982 112.808 42.2381C113.779 41.6549 114.547 40.8272 115.112 39.7542C115.676 38.6578 115.958 37.3867 115.958 35.9401Z" fill="black"/>
<path d="M127.219 29.5291C127.752 28.4357 128.509 27.5862 129.487 26.9816C130.487 26.3765 131.699 26.074 133.122 26.074V29.3546H132.322C128.919 29.3546 127.219 31.2857 127.219 35.1474V45.5469H124.184V26.4229H127.219V29.5291Z" fill="black"/>
<path d="M143.849 42.6128L149.621 26.4041H152.913L145.614 45.5469H142.016L134.717 26.4041H138.044L143.849 42.6128Z" fill="black"/>
<path d="M179.729 21.4531V45.5467H176.688V27.5809L169.003 45.5467H166.865L159.146 27.5463V45.5467H156.105V21.4531H159.38L167.933 41.3686L176.488 21.4531H179.729Z" fill="black"/>
<path d="M185.99 45.8768C185.401 45.8768 184.901 45.653 184.493 45.2061C184.085 44.7589 183.881 44.2127 183.881 43.5664C183.881 42.9202 184.085 42.374 184.493 41.9268C184.901 41.4799 185.401 41.2561 185.99 41.2561C186.557 41.2561 187.033 41.4799 187.419 41.9268C187.827 42.374 188.031 42.9202 188.031 43.5664C188.031 44.2127 187.827 44.7589 187.419 45.2061C187.033 45.653 186.557 45.8768 185.99 45.8768Z" fill="black"/>
<path d="M206.226 40.1577H196.01L194.128 45.5467H190.902L199.371 21.4531H202.899L211.333 45.5467H208.108L206.226 40.1577ZM205.352 37.5853L201.118 25.3471L196.884 37.5853H205.352Z" fill="black"/>
<path d="M218.039 21.123V45.5467H215.166V21.123H218.039Z" fill="black"/>
</svg>
