<svg width="80" height="80" viewBox="0 0 80 80" fill="none" xmlns="http://www.w3.org/2000/svg">
<path d="M29.1231 42.7657L27.3633 45.3598C25.9189 47.489 25.5804 50.1808 26.4528 52.6014C28.2696 57.642 34.4147 59.5299 38.7481 56.3787L72.9987 31.4722L67.3713 33.5005C63.2824 34.9742 58.8649 35.2843 54.6102 34.3965C50.3555 33.5086 45.9379 33.8188 41.8491 35.2925L36.0584 37.3796C33.2355 38.397 30.8076 40.2826 29.1231 42.7657Z" fill="#21AC63"/>
<path fill-rule="evenodd" clip-rule="evenodd" d="M36.3537 38.199C33.704 39.154 31.425 40.924 29.8438 43.2548L28.084 45.8488C26.796 47.7475 26.4943 50.1477 27.2722 52.3061C28.8922 56.8008 34.3717 58.4842 38.2358 55.6743L67.5391 34.3654C63.3344 35.8546 58.8005 36.1607 54.4322 35.2492C50.3354 34.3942 46.0816 34.6929 42.1444 36.112L36.3537 38.199ZM28.4023 42.2768C30.1901 39.6414 32.767 37.6401 35.763 36.5603L41.5537 34.4732C45.7942 32.9448 50.3756 32.6231 54.7881 33.5439C58.885 34.3988 63.1387 34.1002 67.0759 32.6811L72.7034 30.6529C73.1113 30.5058 73.5653 30.6813 73.7683 31.0644C73.9714 31.4475 73.8617 31.9217 73.511 32.1767L39.2603 57.0832C34.4576 60.5756 27.6469 58.4833 25.6334 52.8967C24.6665 50.2141 25.0416 47.2307 26.6425 44.8709L28.4023 42.2768Z" fill="black"/>
<path d="M48.9931 69.854L45.9744 70.6988C43.4967 71.3921 40.8367 70.8581 38.8186 69.2621C34.616 65.9385 34.7776 59.512 39.1419 56.4038L73.6371 31.837L69.9265 36.5289C67.2305 39.9379 65.5333 44.0283 65.0239 48.3446C64.5145 52.661 62.8173 56.7513 60.1212 60.1604L56.303 64.9884C54.4418 67.342 51.8827 69.0453 48.9931 69.854Z" fill="#21AC63"/>
<path fill-rule="evenodd" clip-rule="evenodd" d="M60.9777 58.7226C61.378 58.9894 61.9187 58.8813 62.1856 58.481L63.0566 57.1745C63.3234 56.7743 63.2152 56.2335 62.815 55.9667C62.4148 55.6999 61.874 55.808 61.6072 56.2083L60.7362 57.5147C60.4693 57.915 60.5775 58.4557 60.9777 58.7226ZM55.7405 63.7868C54.0459 66.0364 51.682 67.6913 48.9883 68.5139L45.9525 69.441C43.782 70.1038 41.4254 69.6881 39.6128 68.3226C35.8077 65.4561 35.8537 59.7282 39.7044 56.9233L69.2608 35.3937C65.9164 40.6739 63.7435 46.6359 62.9187 52.8761L62.7749 53.9643C62.7118 54.4412 63.0473 54.8789 63.5242 54.9419C64.0011 55.0049 64.4388 54.6694 64.5018 54.1925L64.6456 53.1043C65.6726 45.3349 68.8771 38.0147 73.8888 31.9897C73.9106 31.9635 73.9306 31.9365 73.9488 31.9086C74.0591 31.7399 74.1041 31.5436 74.0866 31.3531C74.0793 31.2734 74.061 31.1948 74.0322 31.1196C73.986 30.9995 73.9127 30.8882 73.8131 30.7955C73.7633 30.7491 73.7092 30.7095 73.6521 30.6767C73.4254 30.5466 73.1563 30.5282 72.9195 30.6148C72.8388 30.6442 72.7619 30.6859 72.6916 30.7395L38.6787 55.5153C33.8824 59.009 33.8251 66.1436 38.5646 69.7139C40.8225 71.4148 43.7578 71.9326 46.4613 71.107L49.4971 70.1799C52.5429 69.2498 55.2157 67.3786 57.1319 64.8349L59.5946 61.5657C59.8841 61.1815 59.8072 60.6354 59.423 60.346C59.0388 60.0565 58.4927 60.1334 58.2033 60.5176L55.7405 63.7868Z" fill="black"/>
<path d="M37.944 57.127L28.073 62.4178C27.5366 62.7053 27.3792 63.4013 27.7397 63.8916L29.3486 66.0797C29.7412 66.6136 30.5351 66.6249 30.9427 66.1023L37.944 57.127Z" fill="#21AC63" stroke="black" stroke-width="2"/>
<path d="M19.8877 8.20261C22.1539 4.01523 28.1306 3.92518 30.5219 8.0424L45.9504 34.6063C48.2485 38.563 45.5312 43.547 40.9605 43.7588L10.6878 45.1617L10.389 45.1755C5.64968 45.3952 2.48657 40.3558 4.74473 36.1833L19.8877 8.20261Z" fill="#21AC63"/>
<path fill-rule="evenodd" clip-rule="evenodd" d="M24.175 5.1014C22.4514 5.40443 20.8411 6.4409 19.8877 8.20261L4.74473 36.1833C2.48657 40.3558 5.64968 45.3952 10.389 45.1755L40.9605 43.7588C45.5312 43.547 48.2485 38.563 45.9504 34.6063L30.5219 8.0424C29.5657 6.396 28.0361 5.42237 26.3998 5.11447C25.6656 4.97633 24.91 4.97219 24.175 5.1014ZM15.1963 42.773L40.8597 41.5837C43.798 41.4475 45.5448 38.2435 44.0675 35.6999L28.639 9.13601C28.1997 8.3797 27.5723 7.84424 26.866 7.52796C29.046 20.5517 24.6079 33.7312 15.1963 42.773ZM11.7585 42.9323C22.1363 34.2537 27.0842 20.6165 24.6038 7.23773C23.4788 7.42224 22.4239 8.09116 21.8027 9.23901L6.65974 37.2196C5.20807 39.902 7.2415 43.1416 10.2882 43.0004L11.7585 42.9323Z" fill="black"/>
<path d="M30.9635 27.8202C30.9635 30.9469 28.4288 33.4816 25.3021 33.4816C22.1753 33.4816 19.6406 30.9469 19.6406 27.8202C19.6406 24.6934 22.1753 22.1587 25.3021 22.1587C28.4288 22.1587 30.9635 24.6934 30.9635 27.8202Z" fill="#DB2828"/>
<path fill-rule="evenodd" clip-rule="evenodd" d="M25.3019 23.2473C22.7765 23.2473 20.7292 25.2946 20.7292 27.82C20.7292 30.3454 22.7765 32.3927 25.3019 32.3927C27.8274 32.3927 29.8746 30.3454 29.8746 27.82C29.8746 25.2946 27.8274 23.2473 25.3019 23.2473ZM18.5518 27.82C18.5518 24.092 21.5739 21.0698 25.3019 21.0698C29.0299 21.0698 32.0521 24.092 32.0521 27.82C32.0521 31.548 29.0299 34.5702 25.3019 34.5702C21.5739 34.5702 18.5518 31.548 18.5518 27.82Z" fill="black"/>
</svg>
