<svg width="24" height="25" viewBox="0 0 24 25" fill="none" xmlns="http://www.w3.org/2000/svg">
<g clip-path="url(#clip0_89_1685)">
<path d="M17.031 9.56198C17.1718 9.42115 17.2509 9.23014 17.2509 9.03098C17.2509 8.83181 17.1718 8.64081 17.031 8.49998C16.8902 8.35915 16.6992 8.28003 16.5 8.28003C16.3008 8.28003 16.1098 8.35915 15.969 8.49998L12 12.4705L10.281 10.75C10.2113 10.6802 10.1285 10.6249 10.0374 10.5872C9.94627 10.5495 9.84862 10.53 9.75 10.53C9.65138 10.53 9.55373 10.5495 9.46262 10.5872C9.37152 10.6249 9.28873 10.6802 9.219 10.75C9.14927 10.8197 9.09395 10.9025 9.05621 10.9936C9.01848 11.0847 8.99905 11.1824 8.99905 11.281C8.99905 11.3796 9.01848 11.4772 9.05621 11.5684C9.09395 11.6595 9.14927 11.7422 9.219 11.812L11.469 14.062C11.5387 14.1318 11.6214 14.1872 11.7125 14.225C11.8037 14.2629 11.9013 14.2823 12 14.2823C12.0987 14.2823 12.1963 14.2629 12.2874 14.225C12.3786 14.1872 12.4613 14.1318 12.531 14.062L17.031 9.56198Z" fill="#4F5052"/>
<path d="M0.75 1.53101C0.551088 1.53101 0.360322 1.61002 0.21967 1.75068C0.0790176 1.89133 0 2.08209 0 2.28101C0 2.47992 0.0790176 2.67068 0.21967 2.81134C0.360322 2.95199 0.551088 3.03101 0.75 3.03101H2.415L3.0165 5.44151L5.2635 17.419C5.29567 17.5909 5.38688 17.7461 5.52137 17.8578C5.65585 17.9696 5.82515 18.0308 6 18.031H7.5C6.70435 18.031 5.94129 18.3471 5.37868 18.9097C4.81607 19.4723 4.5 20.2354 4.5 21.031C4.5 21.8267 4.81607 22.5897 5.37868 23.1523C5.94129 23.7149 6.70435 24.031 7.5 24.031C8.29565 24.031 9.05871 23.7149 9.62132 23.1523C10.1839 22.5897 10.5 21.8267 10.5 21.031C10.5 20.2354 10.1839 19.4723 9.62132 18.9097C9.05871 18.3471 8.29565 18.031 7.5 18.031H18C17.2044 18.031 16.4413 18.3471 15.8787 18.9097C15.3161 19.4723 15 20.2354 15 21.031C15 21.8267 15.3161 22.5897 15.8787 23.1523C16.4413 23.7149 17.2044 24.031 18 24.031C18.7957 24.031 19.5587 23.7149 20.1213 23.1523C20.6839 22.5897 21 21.8267 21 21.031C21 20.2354 20.6839 19.4723 20.1213 18.9097C19.5587 18.3471 18.7957 18.031 18 18.031H19.5C19.6749 18.0308 19.8442 17.9696 19.9786 17.8578C20.1131 17.7461 20.2043 17.5909 20.2365 17.419L22.4865 5.41901C22.5068 5.31076 22.5029 5.19938 22.4753 5.09278C22.4477 4.98618 22.3969 4.88698 22.3266 4.80221C22.2563 4.71745 22.1682 4.6492 22.0685 4.60233C21.9689 4.55546 21.8601 4.53111 21.75 4.53101H4.335L3.7275 2.09951C3.68701 1.93718 3.59342 1.79305 3.4616 1.69004C3.32978 1.58703 3.1673 1.53105 3 1.53101H0.75ZM6.6225 16.531L4.653 6.03101H20.847L18.8775 16.531H6.6225ZM9 21.031C9 21.4288 8.84196 21.8104 8.56066 22.0917C8.27936 22.373 7.89783 22.531 7.5 22.531C7.10218 22.531 6.72065 22.373 6.43934 22.0917C6.15804 21.8104 6 21.4288 6 21.031C6 20.6332 6.15804 20.2516 6.43934 19.9703C6.72065 19.689 7.10218 19.531 7.5 19.531C7.89783 19.531 8.27936 19.689 8.56066 19.9703C8.84196 20.2516 9 20.6332 9 21.031ZM19.5 21.031C19.5 21.4288 19.342 21.8104 19.0607 22.0917C18.7794 22.373 18.3978 22.531 18 22.531C17.6022 22.531 17.2206 22.373 16.9393 22.0917C16.658 21.8104 16.5 21.4288 16.5 21.031C16.5 20.6332 16.658 20.2516 16.9393 19.9703C17.2206 19.689 17.6022 19.531 18 19.531C18.3978 19.531 18.7794 19.689 19.0607 19.9703C19.342 20.2516 19.5 20.6332 19.5 21.031Z" fill="#4F5052"/>
</g>
<defs>
<clipPath id="clip0_89_1685">
<rect width="24" height="24" fill="white" transform="translate(0 0.0310059)"/>
</clipPath>
</defs>
</svg>
