<svg width="42" height="41" viewBox="0 0 42 41" fill="none" xmlns="http://www.w3.org/2000/svg">
<path d="M33.8002 29.942L32.3328 23.4539C32.1377 22.8097 31.8087 22.2116 31.3662 21.6969C30.9237 21.1822 30.3773 20.7619 29.761 20.4623L26.1143 18.6498C26.1085 18.6414 26.1066 18.6317 26.1002 18.6233L24.7296 16.8301C24.6756 16.7609 24.6074 16.7033 24.5295 16.661C24.4516 16.6187 24.3655 16.5926 24.2768 16.5843C24.188 16.576 24.0984 16.5857 24.0137 16.6128C23.9289 16.6399 23.8509 16.6838 23.7843 16.7417L23.7651 16.7589L23.7376 16.5836C24.8504 15.8667 25.7385 14.8636 26.3036 13.6851C26.7802 13.6908 27.2476 13.5571 27.6456 13.3012C28.0436 13.0454 28.3539 12.679 28.5365 12.2495C28.901 11.4414 28.8888 10.6698 28.4981 10.077C28.2165 9.662 27.7834 9.36723 27.287 9.25264C27.2825 9.1042 27.2834 8.9542 27.2748 8.80607C27.0371 4.77732 25.9384 2.44482 21.0258 2.44482C16.1132 2.44482 15.0145 4.77732 14.7768 8.80639C14.7679 8.95482 14.7691 9.10451 14.7647 9.25326C14.2682 9.36772 13.8352 9.66239 13.5536 10.0773C13.1641 10.6711 13.1506 11.4414 13.5151 12.2498C13.698 12.679 14.0083 13.045 14.4062 13.3006C14.8041 13.5561 15.2713 13.6896 15.7477 13.6839C16.3128 14.8623 17.2009 15.8654 18.3137 16.5823L18.2862 16.7576L18.267 16.7404C18.1999 16.6837 18.1217 16.6408 18.0371 16.6144C17.9525 16.588 17.8633 16.5787 17.7749 16.5869C17.6865 16.5952 17.6007 16.6209 17.5228 16.6625C17.4449 16.7041 17.3765 16.7607 17.3217 16.8289L15.9511 18.622C15.945 18.6301 15.9428 18.6401 15.937 18.6483L12.2902 20.4608C11.67 20.7633 11.1207 21.1877 10.6769 21.7075C10.2331 22.2272 9.90434 22.831 9.71141 23.4808L8.25142 29.942C8.06679 30.7641 8.10753 31.6191 8.36952 32.4209C8.63152 33.2228 9.10552 33.943 9.74376 34.5092L13.1432 37.517C13.2618 37.6203 13.4148 37.678 13.5737 37.6792H28.4782C28.6366 37.6757 28.7887 37.6183 28.9084 37.517L32.3079 34.5092C32.9461 33.943 33.4201 33.2228 33.6821 32.4209C33.9441 31.6191 33.9848 30.7641 33.8002 29.942ZM27.2229 10.5742C27.3008 10.6191 27.3679 10.6799 27.4196 10.7523C27.4928 10.9102 27.526 11.083 27.5163 11.256C27.5066 11.429 27.4543 11.5972 27.3638 11.7464C27.2697 11.9833 27.0908 12.179 26.8603 12.2973C27.0335 11.7346 27.1548 11.158 27.2229 10.5742ZM14.6878 11.7464C14.5973 11.5972 14.545 11.429 14.5353 11.256C14.5256 11.083 14.5588 10.9102 14.632 10.7523C14.6837 10.68 14.7508 10.6195 14.8287 10.5748C14.8968 11.1585 15.0181 11.735 15.1913 12.2976C14.9607 12.1793 14.7818 11.9835 14.6878 11.7464ZM12.9328 35.6436L10.6044 33.5833C10.1332 33.1653 9.78316 32.6334 9.58971 32.0414C9.39626 31.4494 9.3662 30.8181 9.50256 30.2111L9.74504 29.137C10.7914 28.8886 11.8825 28.8799 12.9328 29.1117V35.6436ZM26.1441 24.1451L27.1662 25.4242H22.9182L22.735 24.1451H26.1441ZM24.1261 18.1292L24.7911 18.9995L23.268 21.0404L22.4938 19.5814L24.1261 18.1292ZM16.1228 10.5733L17.4963 12.0979C17.5851 12.1966 17.7036 12.2654 17.8348 12.2946C17.966 12.3238 18.1033 12.312 18.2272 12.2608C18.404 12.1879 18.8512 11.9914 19.3525 11.7689C19.8781 11.5356 20.4488 11.4148 21.0263 11.4148C21.6037 11.4148 22.1745 11.5356 22.7001 11.7689C22.9477 11.8789 23.1962 11.9876 23.4422 12.1004C23.8061 12.2686 24.2344 12.4542 24.556 12.0976L25.9295 10.5729C25.5143 13.7183 23.4759 16.1186 21.0258 16.1186C18.5757 16.1186 16.5373 13.7183 16.1228 10.5733ZM21.7202 26.6742V28.7701H20.3314V26.6742H21.7202ZM20.4271 25.4242L20.6104 24.1451H21.4422L21.6254 25.4242H20.4271ZM17.9261 18.1292L19.5597 19.5814L18.7836 21.0404L17.2605 18.9995L17.9261 18.1292ZM15.9082 24.1451H19.3163L19.1331 25.4242H14.8851L15.9082 24.1451ZM27.8382 36.4292H14.214V26.6742H19.0508V29.3951C19.0508 29.5609 19.1183 29.7199 19.2384 29.8371C19.3585 29.9543 19.5215 30.0201 19.6914 30.0201H22.3615C22.5314 30.0201 22.6944 29.9543 22.8145 29.8371C22.9346 29.7199 23.0021 29.5609 23.0021 29.3951V26.6742H27.8389L27.8382 36.4292ZM31.4478 33.5833L29.1195 35.6436V29.112C30.1697 28.8804 31.2607 28.889 32.3069 29.1373L32.5497 30.2111C32.686 30.8181 32.6558 31.4495 32.4623 32.0415C32.2687 32.6335 31.9186 33.1653 31.4472 33.5833H31.4478Z" fill="white"/>
</svg>
