<svg width="24" height="25" viewBox="0 0 24 25" fill="none" xmlns="http://www.w3.org/2000/svg">
<path d="M10.591 3.00866C11.4946 2.6423 12.5054 2.6423 13.409 3.00866L20.907 6.04866C21.23 6.17948 21.5065 6.40374 21.7013 6.69271C21.896 6.98168 22 7.3222 22 7.67066V13.3057C21.5536 12.8773 21.0486 12.5147 20.5 12.2287V8.26866L12.75 11.2607V13.5587C12.0477 14.3091 11.5336 15.2157 11.25 16.2037V11.2597L3.5 8.24566V17.3237C3.50013 17.3733 3.51504 17.4218 3.54282 17.4629C3.5706 17.5041 3.61 17.536 3.656 17.5547L11.155 20.5947C11.186 20.6077 11.218 20.6197 11.25 20.6307L11.439 20.7067C11.498 20.7307 11.557 20.7507 11.618 20.7667C11.866 21.2927 12.183 21.7807 12.558 22.2177C11.8933 22.3177 11.2139 22.2372 10.591 21.9847L3.093 18.9447C2.77003 18.8138 2.49347 18.5896 2.29875 18.3006C2.10402 18.0116 2 17.6711 2 17.3227V7.67166C2 7.3232 2.10402 6.98268 2.29875 6.69371C2.49347 6.40474 2.77003 6.18048 3.093 6.04966L10.591 3.00866ZM12.845 4.39866C12.3031 4.17906 11.6969 4.17906 11.155 4.39866L9.24 5.17566L16.767 8.10266L19.437 7.07266L12.844 4.39966L12.845 4.39866ZM4.59 7.05966L12.001 9.94266L14.691 8.90266L7.216 5.99566L4.59 7.05966ZM17.5 23.4967C18.9587 23.4967 20.3576 22.9172 21.3891 21.8857C22.4205 20.8543 23 19.4553 23 17.9967C23 16.538 22.4205 15.139 21.3891 14.1076C20.3576 13.0761 18.9587 12.4967 17.5 12.4967C16.0413 12.4967 14.6424 13.0761 13.6109 14.1076C12.5795 15.139 12 16.538 12 17.9967C12 19.4553 12.5795 20.8543 13.6109 21.8857C14.6424 22.9172 16.0413 23.4967 17.5 23.4967ZM16.5 19.2897L20.146 15.6427C20.2398 15.5488 20.367 15.496 20.4996 15.4959C20.6323 15.4958 20.7596 15.5484 20.8535 15.6422C20.9474 15.7359 21.0002 15.8631 21.0003 15.9958C21.0004 16.1285 20.9478 16.2558 20.854 16.3497L16.854 20.3497C16.8076 20.3962 16.7524 20.4332 16.6916 20.4584C16.6309 20.4836 16.5658 20.4966 16.5 20.4966C16.4342 20.4966 16.3691 20.4836 16.3084 20.4584C16.2476 20.4332 16.1924 20.3962 16.146 20.3497L14.146 18.3497C14.0996 18.3032 14.0628 18.248 14.0377 18.1873C14.0126 18.1266 13.9997 18.0615 13.9997 17.9958C13.9998 17.9301 14.0128 17.8651 14.0379 17.8044C14.0631 17.7437 14.1 17.6886 14.1465 17.6422C14.193 17.5957 14.2482 17.5589 14.3089 17.5338C14.3696 17.5087 14.4347 17.4958 14.5004 17.4959C14.5661 17.4959 14.6311 17.5089 14.6918 17.5341C14.7525 17.5593 14.8076 17.5962 14.854 17.6427L16.5 19.2897Z" fill="#4F5052"/>
</svg>
