<svg width="24" height="25" viewBox="0 0 24 25" fill="none" xmlns="http://www.w3.org/2000/svg">
<path d="M1.75 4.83101C1.55109 4.83101 1.36032 4.90687 1.21967 5.04189C1.07902 5.17692 1 5.36005 1 5.55101V11.311C1 11.8839 1.23705 12.4333 1.65901 12.8384C2.08097 13.2434 2.65326 13.471 3.25 13.471H8.25C8.84674 13.471 9.41903 13.2434 9.84099 12.8384C10.2629 12.4333 10.5 11.8839 10.5 11.311V5.55101C10.5 5.36005 10.421 5.17692 10.2803 5.04189C10.1397 4.90687 9.94891 4.83101 9.75 4.83101H9.5V3.87101C9.49999 3.44973 9.38447 3.03587 9.16504 2.67103C8.94561 2.30619 8.63002 2.00323 8.24997 1.79259C7.86993 1.58196 7.43882 1.47107 6.99998 1.47107C6.56115 1.47107 6.13004 1.58197 5.75 1.79261C5.36996 1.58197 4.93885 1.47107 4.50002 1.47107C4.06118 1.47107 3.63007 1.58196 3.25003 1.79259C2.86998 2.00323 2.55439 2.30619 2.33496 2.67103C2.11553 3.03587 2.00001 3.44973 2 3.87101V4.83005H1.75V4.83101ZM7 4.83101V3.87101C7 3.53693 6.929 3.21821 6.8 2.93021C6.94531 2.90173 7.09539 2.90464 7.23938 2.93872C7.38338 2.97281 7.51767 3.03721 7.63253 3.12726C7.7474 3.21732 7.83996 3.33077 7.90352 3.45941C7.96707 3.58804 8.00003 3.72864 8 3.87101V4.83101H7ZM5.5 3.87101V4.83101H3.5V3.87101C3.5 3.6164 3.60536 3.37222 3.79289 3.19219C3.98043 3.01215 4.23478 2.91101 4.5 2.91101C4.76522 2.91101 5.01957 3.01215 5.20711 3.19219C5.39464 3.37222 5.5 3.6164 5.5 3.87101ZM2 17.071V14.191C2.385 14.3456 2.807 14.431 3.25 14.431H3.5V17.071C3.49998 17.249 3.56865 17.4207 3.69275 17.553C3.81685 17.6852 3.98759 17.7687 4.172 17.7872C4.37964 17.2262 4.7632 16.7407 5.26996 16.3976C5.77672 16.0544 6.38177 15.8704 7.00191 15.8708C7.62206 15.8712 8.22684 16.0561 8.73309 16.3999C9.23934 16.7438 9.62219 17.2297 9.829 17.791H12.171C12.378 17.2295 12.7611 16.7434 13.2677 16.3995C13.7744 16.0557 14.3796 15.871 15 15.871V5.55101C15 5.36005 14.921 5.17692 14.7803 5.04189C14.6397 4.90687 14.4489 4.83101 14.25 4.83101H11.332C11.1585 4.48088 10.8647 4.19882 10.5 4.03229V3.87101C10.5 3.70781 10.488 3.54749 10.465 3.39101H14.25C14.8467 3.39101 15.419 3.61858 15.841 4.02366C16.2629 4.42874 16.5 4.97814 16.5 5.55101V6.27101H18.05C18.92 6.27101 19.712 6.75197 20.084 7.50653L21.784 10.95C21.926 11.239 22 11.5548 22 11.8745V17.071C22 17.3547 21.9418 17.6355 21.8287 17.8976C21.7157 18.1597 21.5499 18.3978 21.341 18.5984C21.1321 18.7989 20.884 18.958 20.611 19.0666C20.3381 19.1751 20.0455 19.231 19.75 19.231H17.959C17.842 19.9033 17.4805 20.5139 16.9387 20.9543C16.3969 21.3948 15.71 21.6365 15 21.6365C14.29 21.6365 13.6031 21.3948 13.0613 20.9543C12.5195 20.5139 12.158 19.9033 12.041 19.231H9.96C9.8431 19.9043 9.48091 20.5158 8.938 20.9566C8.39509 21.3973 7.70677 21.6387 6.99576 21.6375C6.28475 21.6363 5.59727 21.3928 5.05592 20.9503C4.51457 20.5078 4.15453 19.8951 4.04 19.2214C3.48209 19.1712 2.96378 18.9229 2.58648 18.5252C2.20918 18.1275 2.00004 17.6089 2 17.071ZM17.83 17.791H19.75C19.9489 17.791 20.1397 17.7152 20.2803 17.5801C20.421 17.4451 20.5 17.262 20.5 17.071V16.831H19.25C19.0511 16.831 18.8603 16.7552 18.7197 16.6201C18.579 16.4851 18.5 16.302 18.5 16.111C18.5 15.9201 18.579 15.7369 18.7197 15.6019C18.8603 15.4669 19.0511 15.391 19.25 15.391H20.5V12.511H16.5V16.256C17.1192 16.5997 17.5907 17.1439 17.83 17.791ZM16.5 7.71101V11.071H20.183L18.73 8.12285C18.6691 7.99932 18.5728 7.89499 18.4523 7.82206C18.3319 7.74913 18.1924 7.71061 18.05 7.71101H16.5ZM7 20.191C7.39782 20.191 7.77936 20.0393 8.06066 19.7692C8.34196 19.4992 8.5 19.1329 8.5 18.751C8.5 18.3691 8.34196 18.0028 8.06066 17.7328C7.77936 17.4627 7.39782 17.311 7 17.311C6.60218 17.311 6.22064 17.4627 5.93934 17.7328C5.65804 18.0028 5.5 18.3691 5.5 18.751C5.5 19.1329 5.65804 19.4992 5.93934 19.7692C6.22064 20.0393 6.60218 20.191 7 20.191ZM16.5 18.751C16.5 18.3691 16.342 18.0028 16.0607 17.7328C15.7794 17.4627 15.3978 17.311 15 17.311C14.6022 17.311 14.2206 17.4627 13.9393 17.7328C13.658 18.0028 13.5 18.3691 13.5 18.751C13.5 19.1329 13.658 19.4992 13.9393 19.7692C14.2206 20.0393 14.6022 20.191 15 20.191C15.3978 20.191 15.7794 20.0393 16.0607 19.7692C16.342 19.4992 16.5 19.1329 16.5 18.751ZM3.5 3.87101C3.5 3.73469 3.53 3.60509 3.583 3.48701L3.5 3.87101Z" fill="#4F5052"/>
</svg>
