<svg width="25" height="25" viewBox="0 0 25 25" fill="none" xmlns="http://www.w3.org/2000/svg">
<path d="M0.500111 17.6033C0.503862 18.0352 0.603352 18.2067 0.851649 18.2067C1.09107 18.2067 1.19937 18.0347 1.20319 17.6532L1.19298 19.7129C1.18475 19.3912 1.17202 19.1806 1.15641 19.1531C1.08608 19.0094 0.856337 18.9301 0.725055 19.0044C0.570624 19.0912 0.524417 19.1221 0.508978 19.6733L0.500111 17.6033Z" fill="#4F5052"/>
<path d="M17.7542 12.6626C17.7542 14.0796 17.7589 14.1489 17.848 14.2431C17.9746 14.3769 18.2278 14.3719 18.345 14.2381C18.4294 14.144 18.4341 14.03 18.4482 12.7319L18.4537 16.4531C18.4462 15.3929 18.4242 15.3489 18.3591 15.2637C18.2372 15.1002 17.9887 15.0854 17.848 15.234C17.7542 15.3331 17.7542 15.3975 17.7542 18.9995V12.6626Z" fill="#4F5052"/>
<path fill-rule="evenodd" clip-rule="evenodd" d="M13.9236 4.41817C14.144 3.51644 14.4628 2.82775 14.9786 2.14402L15.9163 2.16384C15.1192 2.98135 14.641 4.0218 14.5144 5.20099C14.4206 6.11263 14.58 7.03418 14.9786 7.87646C15.5834 9.15969 16.6805 10.1159 17.9652 10.4875C18.5138 10.6411 19.6203 10.6461 20.2111 10.4875C22.0772 9.99206 23.4978 8.37191 23.751 6.44954C24.0417 4.24476 23.0243 2.23816 21.1019 1.22248L21.613 0.667562C24.5575 2.22825 25.4202 6.33063 23.4041 9.16465C22.9399 9.81865 22.0678 10.5519 21.4301 10.8294L21.177 10.9433V16.9185V22.8987L21.0691 23.0672C21.0128 23.1613 20.8909 23.2753 20.8019 23.3248C20.6471 23.4041 20.2017 23.409 13.0468 23.409L5.4559 23.4041L5.3762 23.5478C5.26836 23.7311 5.02455 23.9441 4.86982 23.9937C4.64946 24.0581 3.12096 24.0333 2.92872 23.9639C2.63334 23.8549 2.32857 23.4041 2.32857 23.0771C2.32857 23.0374 2.14572 23.0176 1.72843 23.0028C1.1611 22.9879 1.11421 22.978 0.926667 22.8492C0.790696 22.7501 0.692235 22.6312 0.612528 22.4528C0.5 22.2001 0.5 22.1753 0.5 20.7088C0.501403 20.2389 0.502386 19.9086 0.508978 19.6733C0.524417 19.1221 0.570624 19.0912 0.725055 19.0044C0.856337 18.9301 1.08608 19.0094 1.15641 19.1531C1.17202 19.1806 1.18475 19.3912 1.19298 19.7129C1.19958 19.9709 1.2033 20.3004 1.2033 20.6642C1.2033 21.9177 1.21267 22.101 1.283 22.1803C1.34865 22.2546 1.43304 22.2695 1.84564 22.2695H2.32857V19.6931V17.1167H1.85971C1.26425 17.1167 1.2033 17.1613 1.2033 17.632L1.20319 17.6532C1.19937 18.0347 1.09107 18.2067 0.851649 18.2067C0.603352 18.2067 0.503862 18.0352 0.500111 17.6033L0.5 17.5775C0.5 17.1712 0.575018 16.9235 0.771942 16.7005C1.00169 16.4429 1.21736 16.3735 1.79407 16.3735H2.3192L2.37546 16.1407C2.44579 15.8285 2.62396 15.5907 2.86308 15.4768C3.02718 15.3975 3.17722 15.3826 3.92272 15.3826C4.66352 15.3826 4.81825 15.3975 4.97766 15.4768C5.22147 15.5907 5.40902 15.8285 5.47466 16.106C5.50279 16.2249 5.54499 16.324 5.56374 16.324C5.5825 16.324 5.68096 16.2596 5.7888 16.1803C5.94352 16.0614 6.04199 15.8929 6.34675 15.2736L6.71246 14.5156L6.73591 11.964L6.73916 11.6351C6.75883 9.63156 6.76187 9.32185 6.91819 9.16234C6.94677 9.13317 6.98048 9.10902 7.02035 9.08046L7.05473 9.05565C7.17195 8.97142 7.39701 8.96646 10.9463 8.9516C13.014 8.94665 14.7066 8.92683 14.7066 8.91692C14.7066 8.90205 14.655 8.80792 14.5941 8.70387C14.4159 8.40164 14.1674 7.85169 14.0596 7.51973C13.8439 6.85582 13.7923 6.51891 13.7923 5.72122C13.797 5.0474 13.8111 4.88885 13.9236 4.41817ZM19.7757 0.0342922L19.6801 0.0185909C19.712 0.0180912 19.7442 0.0236912 19.7757 0.0342922ZM10.5618 13.1977C10.5478 13.1085 10.5337 12.2959 10.5337 11.3892V9.73442H9.0099H7.48609V11.6667V13.599L7.64082 13.6039C8.00653 13.6138 8.40507 13.9111 8.63481 14.3471C8.7614 14.5899 8.77547 14.6593 8.77547 15.0606C8.77547 15.4966 8.77078 15.5214 8.5551 15.9623L8.33943 16.4181L10.665 16.433L10.8629 16.4341C12.7451 16.4448 13.0949 16.4467 13.3167 16.6162C13.3673 16.6549 13.4112 16.7023 13.4652 16.7606L13.4923 16.7897C13.7361 17.0523 13.7923 17.201 13.7923 17.6221L13.7876 18.0085H14.0643C14.3878 18.0085 14.6269 18.1027 14.8379 18.3207C15.077 18.5585 15.1849 18.8211 15.1849 19.1431C15.1849 19.6039 14.9926 19.9606 14.655 20.144C14.4956 20.2282 14.4722 20.2579 14.505 20.3521C14.5238 20.4115 14.5425 20.5849 14.5378 20.7336C14.5331 21.0556 14.4065 21.3529 14.1862 21.5461C13.9142 21.7889 13.7689 21.8236 12.9765 21.8236H12.2451V22.2447V22.6658H15.002H17.7542V18.9995C17.7542 15.3975 17.7542 15.3331 17.848 15.234C17.9887 15.0854 18.2372 15.1002 18.3591 15.2637C18.4242 15.3489 18.4462 15.3929 18.4537 16.4531C18.4575 16.9969 18.4575 17.8081 18.4575 19.0292V22.6658H19.4656H20.4737V16.9384V11.2059L20.3002 11.2406C19.7141 11.3447 19.3202 11.3793 18.917 11.3546L18.4622 11.3298L18.4482 12.7319C18.4341 14.03 18.4294 14.144 18.345 14.2381C18.2278 14.3719 17.9746 14.3769 17.848 14.2431C17.7589 14.1489 17.7542 14.0796 17.7542 12.6626V11.1812L17.4401 11.0672C16.8259 10.8591 16.1742 10.4578 15.6397 9.97224L15.3724 9.73442H15.0161H14.6597V11.4388C14.6597 12.5238 14.641 13.1927 14.6082 13.2918C14.505 13.6039 14.1346 13.703 13.8533 13.4949C13.7689 13.4305 13.4594 13.1828 13.1687 12.94C12.8358 12.6626 12.6155 12.509 12.5686 12.5288C12.5311 12.5437 12.2263 12.7815 11.8934 13.054C11.298 13.5494 11.1245 13.6436 10.9229 13.6089C10.7775 13.5841 10.5994 13.376 10.5618 13.1977ZM13.933 12.6081C13.9471 12.6081 13.9564 11.959 13.9564 11.1712V9.73442H12.5967H11.237V11.1712C11.237 11.959 11.2511 12.6081 11.2651 12.6081C11.2792 12.6081 11.5183 12.4198 11.7903 12.1968C12.0669 11.9689 12.3388 11.7559 12.3951 11.7262C12.6342 11.5874 12.7796 11.6568 13.4688 12.2414C13.7126 12.4446 13.9189 12.6081 13.933 12.6081ZM8.09561 15.0754C8.09561 14.8525 7.95496 14.5304 7.80492 14.4214C7.74865 14.3769 7.6877 14.3422 7.67364 14.3422C7.59393 14.3471 7.50484 14.4958 7.16257 15.2191C6.52023 16.5816 6.29517 16.8591 5.69503 17.0672L5.51686 17.1266V19.8467V22.5668L5.64345 22.6014C5.71847 22.6262 7.0266 22.6411 8.5551 22.6411H11.3402L11.4527 22.5023C11.5933 22.324 11.5933 22.1654 11.4527 21.9871L11.3402 21.8483L10.3696 21.8236C9.47877 21.7988 9.39437 21.7889 9.33342 21.7047C9.23965 21.5659 9.25371 21.3628 9.35686 21.2241L9.44595 21.1052L11.4808 21.0952C12.5967 21.0853 13.5579 21.0705 13.6142 21.0556C13.722 21.0308 13.8627 20.8029 13.8627 20.6592C13.8627 20.6147 13.8017 20.5106 13.7267 20.4313L13.5907 20.2877H11.7059H9.82573L9.7132 20.1638C9.64756 20.0994 9.59598 19.9854 9.59598 19.9161C9.59598 19.8467 9.64756 19.7327 9.7132 19.6683L9.82573 19.5445H12.0106L12.1832 19.5445C13.9399 19.5446 14.3462 19.5447 14.4418 19.3724C14.4705 19.3205 14.4711 19.2531 14.472 19.1654L14.4722 19.1431C14.4722 19.0242 14.4394 18.9351 14.3737 18.8706C14.2799 18.7815 14.1534 18.7765 12.0575 18.7517C9.9617 18.727 9.8351 18.722 9.74133 18.6328C9.62412 18.5238 9.61005 18.2711 9.70851 18.1275C9.77415 18.0383 9.85855 18.0333 11.3308 18.0085L12.8874 17.9838L12.9999 17.845C13.1406 17.6667 13.1406 17.5081 12.9999 17.3298L12.8874 17.191L10.454 17.1663L10.2343 17.1642C8.2817 17.1461 7.97427 17.1433 7.82757 16.9883C7.80015 16.9593 7.77835 16.9251 7.75248 16.8844C7.74533 16.8731 7.73787 16.8614 7.7299 16.8492C7.56111 16.5915 7.59393 16.3537 7.86118 15.774C8.0206 15.4322 8.09561 15.2043 8.09561 15.0754ZM4.81356 19.7129C4.81356 16.6609 4.80418 16.2745 4.73854 16.2051C4.6307 16.0862 3.21473 16.0862 3.10689 16.2051C3.04125 16.2745 3.03187 16.656 3.03187 19.6733C3.03187 21.9177 3.05063 23.1018 3.07876 23.1663C3.12564 23.2554 3.1866 23.2604 3.91334 23.2604C4.46191 23.2604 4.71979 23.2406 4.7573 23.2009C4.79949 23.1563 4.81356 22.3141 4.81356 19.7129Z" fill="#4F5052"/>
<path d="M21.4211 3.38072L21.4214 3.3804C21.5664 3.23948 21.754 3.21064 21.9083 3.27969C22.0618 3.3484 22.1678 3.50738 22.1678 3.70973C22.1678 3.77106 22.148 3.83072 22.1037 3.9084C22.0601 3.98479 21.9878 4.08704 21.8726 4.23554C21.6413 4.53347 21.2249 5.03318 20.4847 5.91437C20.0272 6.45974 19.5943 6.96682 19.265 7.34515C19.1004 7.53427 18.9615 7.69153 18.8582 7.80544C18.8066 7.86233 18.7635 7.90888 18.7303 7.94334C18.7013 7.97345 18.6731 8.00171 18.6531 8.01631C18.5497 8.09481 18.4119 8.13741 18.2763 8.14837C18.1404 8.15937 17.9954 8.13947 17.8753 8.08073C17.8535 8.07047 17.8322 8.05336 17.8167 8.04018C17.7979 8.02424 17.7759 8.00385 17.7516 7.98021C17.7029 7.93278 17.6415 7.86879 17.5718 7.79323C17.4321 7.64192 17.2564 7.44123 17.0774 7.22722L17.0774 7.22721C16.6169 6.67629 16.3773 6.38817 16.2536 6.21954C16.1919 6.13552 16.1539 6.07438 16.1323 6.02076C16.1087 5.96194 16.107 5.91701 16.107 5.87488C16.107 5.62629 16.3114 5.42311 16.5587 5.42311C16.6049 5.42311 16.6531 5.42861 16.7092 5.4565C16.7609 5.48225 16.8139 5.52445 16.8778 5.5862C17.0053 5.70938 17.2014 5.93576 17.5492 6.34524L17.5495 6.3456L18.2242 7.14775L18.3492 7.00348L18.3495 7.00314C18.4421 6.89706 18.9442 6.30046 19.5439 5.58785C19.6672 5.44131 19.7947 5.28986 19.9236 5.13677C20.3012 4.68571 20.6577 4.26436 20.9281 3.94765C21.1959 3.63397 21.3842 3.41697 21.4211 3.38072Z" fill="#4F5052" stroke="#4F5052" stroke-width="0.2"/>
</svg>
