<svg width="24" height="25" viewBox="0 0 24 25" fill="none" xmlns="http://www.w3.org/2000/svg">
<path d="M10 17.0659L13 18.0659C13 18.0659 20.5 16.5659 21.5 16.5659C22.5 16.5659 22.5 17.5659 21.5 18.5659C20.5 19.5659 17 22.5659 14 22.5659C11 22.5659 9 21.0659 7 21.0659H2" stroke="#4F5052" stroke-width="1.6" stroke-linecap="round" stroke-linejoin="round"/>
<path d="M8 9.56592V5.56592C8 5.3007 8.10536 5.04635 8.29289 4.85881C8.48043 4.67128 8.73478 4.56592 9 4.56592H21C21.2652 4.56592 21.5196 4.67128 21.7071 4.85881C21.8946 5.04635 22 5.3007 22 5.56592V13.5659M2 15.0659C3 14.0659 5 12.5659 7 12.5659C9 12.5659 13.75 14.5659 14.5 15.5659C15.25 16.5659 13 18.0659 13 18.0659L2 15.0659Z" stroke="#4F5052" stroke-width="1.6" stroke-linecap="round" stroke-linejoin="round"/>
<path d="M12.5 4.56592H17.5V9.06592H12.5V4.56592Z" stroke="#4F5052" stroke-width="1.6" stroke-linecap="round" stroke-linejoin="round"/>
</svg>
