<svg width="24" height="25" viewBox="0 0 24 25" fill="none" xmlns="http://www.w3.org/2000/svg">
<path d="M18 18.531C18.83 18.531 19.5 17.861 19.5 17.031C19.5 16.201 18.83 15.531 18 15.531C17.17 15.531 16.5 16.201 16.5 17.031C16.5 17.861 17.17 18.531 18 18.531ZM19.5 9.53101H17V12.031H21.46L19.5 9.53101ZM6 18.531C6.83 18.531 7.5 17.861 7.5 17.031C7.5 16.201 6.83 15.531 6 15.531C5.17 15.531 4.5 16.201 4.5 17.031C4.5 17.861 5.17 18.531 6 18.531ZM20 8.03101L23 12.031V17.031H21C21 18.691 19.66 20.031 18 20.031C16.34 20.031 15 18.691 15 17.031H9C9 18.691 7.66 20.031 6 20.031C4.34 20.031 3 18.691 3 17.031H1V6.03101C1 4.92101 1.89 4.03101 3 4.03101H17V8.03101H20ZM3 6.03101V15.031H3.76C4.31 14.421 5.11 14.031 6 14.031C6.89 14.031 7.69 14.421 8.24 15.031H15V6.03101H3ZM10 7.03101L13.5 10.531L10 14.031V11.531H5V9.53101H10V7.03101Z" fill="#4F5052"/>
</svg>
