<svg width="80" height="81" viewBox="0 0 80 81" fill="none" xmlns="http://www.w3.org/2000/svg">
<rect y="0.5" width="80" height="80" rx="24" fill="url(#paint0_linear_919_1460)"/>
<path d="M27.0664 46.91C27.0664 45.09 27.6164 43.53 28.7164 42.23C29.8164 40.93 31.4164 39.77 33.5164 38.75C34.9964 38.03 36.0164 37.34 36.5764 36.68C37.1564 36 37.4464 35.06 37.4464 33.86C37.4464 32.84 37.1164 32.09 36.4564 31.61C35.8164 31.11 34.9064 30.86 33.7264 30.86C32.3864 30.86 31.2364 31.1 30.2764 31.58V33.35H27.1564V30.53C27.9964 29.97 28.9964 29.52 30.1564 29.18C31.3164 28.82 32.4964 28.64 33.6964 28.64C35.7764 28.64 37.4364 29.08 38.6764 29.96C39.9364 30.82 40.5664 32.12 40.5664 33.86C40.5664 34.92 40.3664 35.84 39.9664 36.62C39.5864 37.4 38.9664 38.12 38.1064 38.78C37.2664 39.42 36.1064 40.1 34.6264 40.82C33.1864 41.52 32.0964 42.3 31.3564 43.16C30.6364 44.02 30.2764 45.07 30.2764 46.31H40.3564V48.5H27.0664V46.91ZM46.6904 40.4H43.1504V38.21H46.6904V35.03H49.3304V38.21H52.9304V40.4H49.3304V43.58H46.6904V40.4Z" fill="#4F5052"/>
<defs>
<linearGradient id="paint0_linear_919_1460" x1="4.42454" y1="7.06049" x2="70.2098" y2="80.5" gradientUnits="userSpaceOnUse">
<stop stop-color="#F9CF56" stop-opacity="0.52"/>
<stop offset="1" stop-color="#F9CF56"/>
</linearGradient>
</defs>
</svg>
