<svg width="90" height="91" viewBox="0 0 90 91" fill="none" xmlns="http://www.w3.org/2000/svg">
<rect y="0.5" width="90" height="90" rx="24" fill="url(#paint0_linear_919_1536)"/>
<path d="M25.4759 53.164H27.3639C27.8332 53.164 28.1532 53.068 28.3239 52.876C28.5159 52.684 28.6119 52.3747 28.6119 51.948V38.06L25.5079 39.948L24.2279 37.836L29.0599 34.796H31.9719V51.948C31.9719 52.3747 32.0679 52.684 32.2599 52.876C32.4519 53.068 32.7825 53.164 33.2519 53.164H35.1079V55.5H25.4759V53.164ZM37.2279 53.132H38.0279C38.4545 53.132 38.7532 53.0467 38.9239 52.876C39.1159 52.684 39.2119 52.3747 39.2119 51.948V37.868C39.2119 37.4627 39.1159 37.164 38.9239 36.972C38.7532 36.78 38.4545 36.684 38.0279 36.684H37.3879V34.316H42.3159V41.74C43.0839 40.972 43.8625 40.4387 44.6519 40.14C45.4625 39.82 46.4759 39.66 47.6919 39.66C49.3559 39.66 50.6039 40.1187 51.4359 41.036C52.2892 41.9533 52.7159 43.2653 52.7159 44.972V51.948C52.7159 52.3747 52.8012 52.684 52.9719 52.876C53.1639 53.0467 53.4625 53.132 53.8679 53.132H54.7639V55.5H49.2279V45.004C49.2279 43.9373 48.9932 43.1587 48.5239 42.668C48.0545 42.1773 47.3399 41.932 46.3799 41.932C45.2919 41.932 44.3959 42.252 43.6919 42.892C42.9879 43.5107 42.6359 44.3747 42.6359 45.484V51.948C42.6359 52.3747 42.7105 52.684 42.8599 52.876C43.0305 53.0467 43.3079 53.132 43.6919 53.132H44.5559V55.5H37.2279V53.132ZM56.5404 53.132H57.3404C57.767 53.132 58.0657 53.0467 58.2364 52.876C58.4284 52.684 58.5244 52.3747 58.5244 51.948V43.692C58.5244 43.2867 58.439 42.988 58.2684 42.796C58.0977 42.604 57.8097 42.508 57.4044 42.508H56.7324V40.14H61.1484L61.5964 41.9C62.023 41.2387 62.567 40.78 63.2284 40.524C63.911 40.268 64.711 40.14 65.6284 40.14H67.1004V42.508H65.3084C64.0924 42.508 63.2284 42.7853 62.7164 43.34C62.2044 43.8733 61.9484 44.7053 61.9484 45.836V51.948C61.9484 52.3747 62.0337 52.684 62.2044 52.876C62.375 53.0467 62.663 53.132 63.0684 53.132H63.8684V55.5H56.5404V53.132Z" fill="#4F5052"/>
<defs>
<linearGradient id="paint0_linear_919_1536" x1="4.97761" y1="7.88055" x2="78.986" y2="90.5" gradientUnits="userSpaceOnUse">
<stop stop-color="#F9CF56" stop-opacity="0.52"/>
<stop offset="1" stop-color="#F9CF56"/>
</linearGradient>
</defs>
</svg>
