<svg width="91" height="91" viewBox="0 0 91 91" fill="none" xmlns="http://www.w3.org/2000/svg">
<rect x="0.375" y="0.5" width="90" height="90" rx="24" fill="url(#paint0_linear_919_1538)"/>
<path d="M16.1729 53.804C16.1729 51.8627 16.7595 50.1987 17.9329 48.812C19.1062 47.4253 20.8129 46.188 23.0529 45.1C24.6315 44.332 25.7195 43.596 26.3169 42.892C26.9355 42.1667 27.2449 41.164 27.2449 39.884C27.2449 38.796 26.8929 37.996 26.1889 37.484C25.5062 36.9507 24.5355 36.684 23.2769 36.684C21.8475 36.684 20.6209 36.94 19.5969 37.452V39.34H16.2689V36.332C17.1649 35.7347 18.2315 35.2547 19.4689 34.892C20.7062 34.508 21.9649 34.316 23.2449 34.316C25.4635 34.316 27.2342 34.7853 28.5569 35.724C29.9009 36.6413 30.5729 38.028 30.5729 39.884C30.5729 41.0147 30.3595 41.996 29.9329 42.828C29.5275 43.66 28.8662 44.428 27.9489 45.132C27.0529 45.8147 25.8155 46.54 24.2369 47.308C22.7009 48.0547 21.5382 48.8867 20.7489 49.804C19.9809 50.7213 19.5969 51.8413 19.5969 53.164H30.3489V55.5H16.1729V53.804ZM33.0091 53.132H33.8091C34.2358 53.132 34.5345 53.0467 34.7051 52.876C34.8971 52.684 34.9931 52.3747 34.9931 51.948V37.868C34.9931 37.4627 34.8971 37.164 34.7051 36.972C34.5345 36.78 34.2358 36.684 33.8091 36.684H33.1691V34.316H38.0971V41.74C38.8651 40.972 39.6438 40.4387 40.4331 40.14C41.2438 39.82 42.2571 39.66 43.4731 39.66C45.1371 39.66 46.3851 40.1187 47.2171 41.036C48.0705 41.9533 48.4971 43.2653 48.4971 44.972V51.948C48.4971 52.3747 48.5825 52.684 48.7531 52.876C48.9451 53.0467 49.2438 53.132 49.6491 53.132H50.5451V55.5H45.0091V45.004C45.0091 43.9373 44.7745 43.1587 44.3051 42.668C43.8358 42.1773 43.1211 41.932 42.1611 41.932C41.0731 41.932 40.1771 42.252 39.4731 42.892C38.7691 43.5107 38.4171 44.3747 38.4171 45.484V51.948C38.4171 52.3747 38.4918 52.684 38.6411 52.876C38.8118 53.0467 39.0891 53.132 39.4731 53.132H40.3371V55.5H33.0091V53.132ZM52.3216 53.132H53.1216C53.5483 53.132 53.847 53.0467 54.0176 52.876C54.2096 52.684 54.3056 52.3747 54.3056 51.948V43.692C54.3056 43.2867 54.2203 42.988 54.0496 42.796C53.879 42.604 53.591 42.508 53.1856 42.508H52.5136V40.14H56.9296L57.3776 41.9C57.8043 41.2387 58.3483 40.78 59.0096 40.524C59.6923 40.268 60.4923 40.14 61.4096 40.14H62.8816V42.508H61.0896C59.8736 42.508 59.0096 42.7853 58.4976 43.34C57.9856 43.8733 57.7296 44.7053 57.7296 45.836V51.948C57.7296 52.3747 57.815 52.684 57.9856 52.876C58.1563 53.0467 58.4443 53.132 58.8496 53.132H59.6496V55.5H52.3216V53.132ZM69.6599 55.98C67.0785 55.98 64.9345 55.3613 63.2279 54.124V51.628H66.3639V52.908C67.2385 53.42 68.3052 53.676 69.5639 53.676C70.5239 53.676 71.2385 53.5267 71.7079 53.228C72.1985 52.9293 72.4439 52.4387 72.4439 51.756C72.4439 51.308 72.3159 50.9453 72.0599 50.668C71.8252 50.3693 71.4945 50.124 71.0679 49.932C70.6412 49.7187 69.7985 49.356 68.5399 48.844C67.2812 48.332 66.3105 47.8947 65.6279 47.532C64.9665 47.148 64.4225 46.668 63.9959 46.092C63.5905 45.516 63.3879 44.7907 63.3879 43.916C63.3879 42.508 63.9319 41.452 65.0199 40.748C66.1079 40.0227 67.5905 39.66 69.4679 39.66C70.6625 39.66 71.7825 39.82 72.8279 40.14C73.8732 40.4387 74.7799 40.876 75.5479 41.452V43.852H72.4759V42.668C71.7079 42.1987 70.7905 41.964 69.7239 41.964C68.7639 41.964 68.0385 42.1133 67.5479 42.412C67.0785 42.7107 66.8439 43.212 66.8439 43.916C66.8439 44.556 67.0999 45.0573 67.6119 45.42C68.1239 45.7613 68.9132 46.124 69.9799 46.508C70.2785 46.5933 70.6092 46.7107 70.9719 46.86C72.0812 47.2867 72.9665 47.6813 73.6279 48.044C74.2892 48.4067 74.8332 48.8867 75.2599 49.484C75.6865 50.0813 75.8999 50.8387 75.8999 51.756C75.8999 53.1213 75.3772 54.1667 74.3319 54.892C73.3079 55.6173 71.7505 55.98 69.6599 55.98Z" fill="#4F5052"/>
<defs>
<linearGradient id="paint0_linear_919_1538" x1="5.35261" y1="7.88055" x2="79.361" y2="90.5" gradientUnits="userSpaceOnUse">
<stop stop-color="#F9CF56" stop-opacity="0.52"/>
<stop offset="1" stop-color="#F9CF56"/>
</linearGradient>
</defs>
</svg>
