<svg width="80" height="81" viewBox="0 0 80 81" fill="none" xmlns="http://www.w3.org/2000/svg">
<rect y="0.5" width="80" height="80" rx="24" fill="url(#paint0_linear_919_1456)"/>
<path d="M33.6273 48.95C32.2673 48.95 30.9973 48.76 29.8173 48.38C28.6573 48 27.6573 47.45 26.8173 46.73V43.91H29.9673V45.71C31.0473 46.39 32.2973 46.73 33.7173 46.73C35.1373 46.73 36.1573 46.43 36.7773 45.83C37.4173 45.23 37.7373 44.21 37.7373 42.77C37.7373 40.57 36.5073 39.47 34.0473 39.47H31.6473V37.25H34.1373C36.3973 37.25 37.5273 36.11 37.5273 33.83C37.5273 32.83 37.1973 32.09 36.5373 31.61C35.8773 31.11 34.9673 30.86 33.8073 30.86C32.5273 30.86 31.3773 31.09 30.3573 31.55V33.35H27.2073V30.56C28.0073 29.98 28.9973 29.52 30.1773 29.18C31.3573 28.82 32.5573 28.64 33.7773 28.64C35.8173 28.64 37.4673 29.07 38.7273 29.93C40.0073 30.77 40.6473 32.04 40.6473 33.74C40.6473 35.76 39.7773 37.29 38.0373 38.33C39.8973 39.19 40.8273 40.64 40.8273 42.68C40.8273 44.86 40.2373 46.45 39.0573 47.45C37.8973 48.45 36.0873 48.95 33.6273 48.95ZM46.9394 40.4H43.3994V38.21H46.9394V35.03H49.5794V38.21H53.1794V40.4H49.5794V43.58H46.9394V40.4Z" fill="#4F5052"/>
<defs>
<linearGradient id="paint0_linear_919_1456" x1="4.42454" y1="7.06049" x2="70.2098" y2="80.5" gradientUnits="userSpaceOnUse">
<stop stop-color="#F9CF56" stop-opacity="0.52"/>
<stop offset="1" stop-color="#F9CF56"/>
</linearGradient>
</defs>
</svg>
