<svg width="90" height="91" viewBox="0 0 90 91" fill="none" xmlns="http://www.w3.org/2000/svg">
<rect x="1" y="1.49805" width="88" height="88" rx="23" fill="url(#paint0_linear_919_1380)"/>
<g clip-path="url(#clip0_919_1380)">
<path d="M43.1251 24.4695C38.6345 24.7695 34.9408 25.6039 31.5283 27.0758C27.122 28.9789 23.747 31.9133 22.1345 35.2227C21.7126 36.1039 21.4689 36.7883 21.1783 37.9508C21.1033 38.2789 21.0564 39.8539 21.0283 43.2477C20.972 49.5383 21.0751 50.5695 21.9283 52.3883C22.6595 53.9445 23.822 55.3695 25.1439 56.307C26.0158 56.9258 27.3751 57.5539 28.4533 57.8352C29.2408 58.032 29.7189 58.0883 31.4533 58.1539C34.0501 58.2477 35.1376 58.482 36.797 59.2977C38.1283 59.9539 38.8033 60.432 40.3595 61.857C42.7501 64.0414 44.7845 65.1945 47.6158 65.9727C49.0595 66.3758 50.2689 66.5352 51.9376 66.5352C54.7033 66.5258 56.7845 66.0664 59.2033 64.9039C64.547 62.3352 68.147 57.3758 68.8689 51.6102C69.0283 50.2789 69.0564 41.3352 68.9064 39.8914C68.5408 36.507 67.0783 33.4977 64.6314 31.0977C60.8908 27.4133 54.5908 24.9945 47.4376 24.4977C46.1814 24.4133 44.1283 24.3945 43.1251 24.4695ZM48.7689 27.4508C54.5814 28.0977 59.7751 30.2164 62.6814 33.1039C65.2314 35.6445 66.4783 39.132 66.1033 42.6289C65.6533 46.7633 63.3751 50.4945 59.8783 52.8477C57.3845 54.5164 54.9001 55.2945 52.0314 55.2852C48.1408 55.2758 45.2345 54.0758 42.0564 51.1695C40.1345 49.4164 38.5408 48.4227 36.497 47.7195C34.9408 47.1758 33.8439 46.9883 31.6408 46.9039C29.4564 46.8195 28.8001 46.6883 27.7501 46.1633C26.972 45.7695 26.7001 45.5727 26.0251 44.9352C24.6095 43.5945 23.8783 41.8883 23.8783 39.9195C23.8876 36.7133 25.7345 33.8539 29.3533 31.4445C32.8501 29.1195 37.5845 27.6664 42.9376 27.2727C43.9033 27.207 47.5689 27.3102 48.7689 27.4508ZM24.5345 47.3914C25.0408 47.8414 26.0533 48.4977 26.672 48.7789C28.2095 49.4633 29.0251 49.6227 31.4064 49.7164C34.0408 49.8195 35.2126 50.0727 36.947 50.9352C38.1283 51.5164 38.8783 52.0602 40.3126 53.382C40.8001 53.832 41.5033 54.4227 41.8595 54.7039C46.172 58.0227 52.0314 59.0164 57.2251 57.2914C58.2939 56.9352 60.3001 55.9695 61.2189 55.3695C62.7283 54.3758 64.5751 52.6414 65.6158 51.2352C65.897 50.8695 66.1314 50.5602 66.1408 50.5602C66.1595 50.5602 66.1501 50.7383 66.122 50.9539C65.6345 55.2664 63.3939 58.932 59.7751 61.3602C55.547 64.182 50.2783 64.5289 45.7408 62.2695C44.6064 61.707 43.4345 60.8727 42.1876 59.7289C40.3501 58.0508 39.2814 57.3102 37.697 56.6164C35.7376 55.7539 34.2751 55.4445 31.6408 55.3414C29.3908 55.2477 28.9501 55.1633 27.6939 54.5445C26.0439 53.7383 24.6658 52.1164 24.1501 50.3727C23.8408 49.332 23.597 47.0539 23.7845 46.8758C23.8501 46.8008 23.972 46.8852 24.5345 47.3914Z" fill="#4F5052"/>
<path d="M42.5632 30.1235C36.6757 30.6391 31.557 32.636 28.7726 35.4954C27.5538 36.7516 26.8976 37.961 26.7007 39.3016C26.457 41.0173 27.3288 42.7235 28.8663 43.5673C29.5413 43.9329 30.3757 44.0923 31.6413 44.0923C34.9507 44.1016 37.9601 44.9266 40.7257 46.6048C41.8132 47.2516 42.7507 47.9829 43.9695 49.1173C45.6195 50.6454 46.857 51.4048 48.5726 51.9579C49.7445 52.3235 50.2788 52.4266 51.4132 52.4923C54.7132 52.6985 58.0695 51.2548 60.3757 48.6391C62.0726 46.7173 63.0663 44.3454 63.2445 41.8141C63.4226 39.311 62.3632 36.6579 60.4976 34.8954C58.5288 33.0391 54.582 31.2954 50.7382 30.5829C48.3476 30.1423 44.7195 29.936 42.5632 30.1235ZM47.0163 32.936C51.4695 33.2641 55.332 34.511 57.9757 36.461C59.2695 37.4173 60.0195 38.5985 60.3382 40.1548C60.7601 42.2735 59.9257 44.8985 58.2007 46.8579C57.2257 47.9641 55.3413 49.1173 53.907 49.4829C52.8851 49.736 51.5632 49.7641 50.5226 49.5485C48.6757 49.1641 47.3726 48.461 45.7976 46.9798C44.1757 45.4516 42.8632 44.5048 41.157 43.5954C38.2695 42.0766 34.9695 41.2798 31.4913 41.2798C30.6195 41.2798 30.4601 41.2516 30.1882 41.0641C29.6632 40.7079 29.4851 40.3891 29.4945 39.8173C29.5132 39.1423 29.8788 38.4391 30.6288 37.6235C33.5913 34.4266 40.4726 32.4579 47.0163 32.936Z" fill="#4F5052"/>
<path d="M50.9531 38.5599C49.1063 38.8036 47.4375 39.8818 46.7531 41.2693C46.4906 41.813 46.4531 41.9724 46.4531 42.6849C46.4531 43.3974 46.4813 43.5474 46.7625 44.1099C47.3438 45.2911 48.6469 46.2568 50.25 46.6786C51 46.8755 52.8844 46.9036 53.625 46.7349C55.3875 46.313 56.7188 45.3661 57.3094 44.1099C57.5719 43.5568 57.6094 43.388 57.6094 42.6849C57.6094 41.9818 57.5719 41.813 57.3094 41.2599C56.3906 39.3099 53.7656 38.1943 50.9531 38.5599ZM52.9875 41.3818C53.9625 41.588 54.8438 42.2255 54.8438 42.7036C54.8438 42.9943 54.1125 43.6411 53.5688 43.838C52.1438 44.3443 50.1938 44.0161 49.4625 43.1536C49.1531 42.7786 49.1531 42.5911 49.4625 42.2161C50.0906 41.4755 51.6562 41.1005 52.9875 41.3818Z" fill="#4F5052"/>
</g>
<rect x="1" y="1.49805" width="88" height="88" rx="23" stroke="white" stroke-width="2"/>
<defs>
<linearGradient id="paint0_linear_919_1380" x1="0" y1="0.498047" x2="90" y2="90.498" gradientUnits="userSpaceOnUse">
<stop stop-color="#F9CF56"/>
<stop offset="0.0001" stop-color="#F9CF56" stop-opacity="0.52"/>
<stop offset="1" stop-color="#F9CF56" stop-opacity="0.72"/>
</linearGradient>
<clipPath id="clip0_919_1380">
<rect width="48" height="48" fill="white" transform="translate(21 21.498)"/>
</clipPath>
</defs>
</svg>
