<svg width="40" height="36" viewBox="0 0 40 36" fill="none" xmlns="http://www.w3.org/2000/svg">
<path d="M3.20305 0.671875C2.94523 0.804688 2.80461 0.945312 2.6718 1.20312C2.57805 1.39844 1.92961 3.82031 1.24211 6.59375C0.0233577 11.4922 -0.0157047 11.6484 0.0311703 12.2266C0.0936703 13.0234 0.34367 13.9297 0.671795 14.5938C1.03898 15.3281 1.17961 15.5156 1.89055 16.25L2.49992 16.875L2.51555 25.7891C2.53898 34.6562 2.53898 34.7109 2.70305 34.9219C2.78898 35.0391 2.96086 35.2109 3.07805 35.2969C3.28898 35.4609 3.34367 35.4609 9.99992 35.4609C16.6562 35.4609 16.7109 35.4609 16.9218 35.2969C17.039 35.2109 17.2109 35.0391 17.2968 34.9219C17.4609 34.7109 17.4609 34.6172 17.4843 30.1016L17.4999 25.5H19.9999H22.4999L22.5155 30.1016C22.539 34.6172 22.539 34.7109 22.703 34.9219C22.789 35.0391 22.9609 35.2109 23.078 35.2969C23.289 35.4609 23.3437 35.4609 29.9999 35.4609C36.6562 35.4609 36.7109 35.4609 36.9218 35.2969C37.039 35.2109 37.2109 35.0391 37.2968 34.9219C37.4609 34.7109 37.4609 34.6562 37.4843 25.7891L37.4999 16.875L38.1093 16.25C38.8202 15.5156 38.9609 15.3281 39.328 14.5938C39.6562 13.9297 39.9062 13.0234 39.9687 12.2266C40.0155 11.6484 39.9765 11.4922 38.7577 6.59375C38.0702 3.82031 37.4218 1.39844 37.328 1.20312C37.1952 0.945312 37.0546 0.804688 36.7968 0.671875L36.453 0.5H19.9999H3.5468L3.20305 0.671875ZM36.3905 7.47656C37.4609 11.7656 37.5077 11.9766 37.4374 12.3828C37.1327 14.0234 36.0624 15.1562 34.5546 15.4375C33.5546 15.625 32.4452 15.2188 31.6874 14.3984C31.0077 13.6719 30.7734 13.1094 30.6327 11.875C30.5234 10.9297 30.1562 10.5391 29.3749 10.5391C28.5937 10.5391 28.2265 10.9297 28.1171 11.875C27.9765 13.1094 27.7421 13.6719 27.0624 14.3984C26.3046 15.2188 25.1952 15.625 24.203 15.4375C23.4609 15.2969 22.8202 14.9453 22.3124 14.3984C21.6327 13.6719 21.3984 13.1094 21.2577 11.875C21.1484 10.9297 20.7812 10.5391 19.9999 10.5391C19.2187 10.5391 18.8515 10.9297 18.7421 11.875C18.6015 13.1094 18.3671 13.6719 17.6874 14.3984C17.1796 14.9453 16.539 15.2969 15.7968 15.4375C14.8046 15.625 13.6952 15.2188 12.9374 14.3984C12.2577 13.6719 12.0234 13.1094 11.8827 11.875C11.7734 10.9297 11.4062 10.5391 10.6249 10.5391C9.84367 10.5391 9.47648 10.9297 9.36711 11.875C9.22648 13.1094 8.99211 13.6719 8.31242 14.3984C7.55461 15.2188 6.44523 15.625 5.45305 15.4375C3.93742 15.1562 2.86711 14.0234 2.56242 12.3828C2.49211 11.9766 2.53898 11.7656 3.6093 7.47656L4.72648 3H19.9999H35.2734L36.3905 7.47656ZM11.164 16.1875C13.5077 18.5938 17.1249 18.5938 19.4765 16.1719L19.9999 15.6328L20.5312 16.1719C22.8827 18.5938 26.4921 18.5938 28.8515 16.1719L29.3749 15.6328L29.9062 16.1797C31.1171 17.4297 32.789 18.0938 34.3905 17.9766L34.9999 17.9297V25.4609V33H29.9999H24.9999L24.9843 28.3984C24.9609 23.8828 24.9609 23.7891 24.7968 23.5781C24.7109 23.4609 24.539 23.2891 24.4218 23.2031C24.2109 23.0391 24.1249 23.0391 19.9999 23.0391C15.8749 23.0391 15.789 23.0391 15.578 23.2031C15.4609 23.2891 15.289 23.4609 15.203 23.5781C15.039 23.7891 15.039 23.8828 15.0155 28.3984L14.9999 33H9.99992H4.99992V25.4609V17.9297L5.6093 17.9766C7.20305 18.0938 8.89836 17.4219 10.078 16.1875C10.3593 15.8984 10.6015 15.6562 10.6171 15.6562C10.6327 15.6562 10.8827 15.8984 11.164 16.1875Z" fill="#10BAB2"/>
</svg>
