<svg width="24" height="24" viewBox="0 0 24 24" fill="none" xmlns="http://www.w3.org/2000/svg">
<path d="M6.26418 3.77399C2.29005 5.81399 1.14288 6.53932 1.14288 7.26465C1.14288 8.08064 1.51162 8.12598 12 8.12598C22.4475 8.12598 22.8572 8.08064 22.8572 7.26465C22.8572 6.53932 21.71 5.81399 17.572 3.72866C14.6631 2.278 12.082 1.09934 11.8361 1.14467C11.5903 1.14467 9.09113 2.32333 6.26418 3.77399Z" fill="#10BAB2"/>
<path d="M2.29039 9.98281C2.12651 10.4361 2.33136 10.9801 2.70009 11.2975C3.72435 12.1135 3.72435 20.0014 2.70009 20.8174C2.33136 21.1348 2.12651 21.6788 2.29039 22.1321C2.53621 22.7668 3.60144 22.8574 12.0004 22.8574C20.3993 22.8574 21.4645 22.7668 21.7103 22.1321C21.8742 21.6788 21.6694 21.1348 21.3006 20.8174C20.3583 20.0468 20.2764 11.5241 21.1777 11.5241C21.9562 11.5241 22.2839 10.3908 21.7103 9.75614C21.4235 9.43881 18.2688 9.25747 11.9184 9.25747C3.60144 9.25747 2.53621 9.34814 2.29039 9.98281ZM8.31303 16.0574V20.5908H6.87907H5.44511V16.0574V11.5241H6.87907H8.31303V16.0574ZM13.6392 16.0574V20.5908H12.0004H10.3615V16.0574V11.5241H12.0004H13.6392V16.0574ZM18.5556 16.0574V20.5908H17.1217H15.6877V16.0574V11.5241H17.1217H18.5556V16.0574Z" fill="#10BAB2"/>
</svg>
