<svg width="40" height="40" viewBox="0 0 40 40" fill="none" xmlns="http://www.w3.org/2000/svg">
<path d="M9.43396 4.84598C2.11321 8.60386 0 9.94 0 11.2761C0 12.7793 0.679245 12.8628 20 12.8628C39.2453 12.8628 40 12.7793 40 11.2761C40 9.94 37.8868 8.60386 30.2642 4.76247C24.9057 2.0902 20.1509 -0.0810163 19.6981 0.00249216C19.2453 0.00249216 14.6415 2.17371 9.43396 4.84598Z" fill="#10BAB2"/>
<path d="M2.11363 16.2836C1.81175 17.1187 2.1891 18.1208 2.86835 18.7053C4.75514 20.2085 4.75514 34.739 2.86835 36.2421C2.1891 36.8267 1.81175 37.8288 2.11363 38.6639C2.56646 39.833 4.52873 40 20.0004 40C35.4721 40 37.4344 39.833 37.8872 38.6639C38.1891 37.8288 37.8117 36.8267 37.1325 36.2421C35.3966 34.8225 35.2457 19.1229 36.9061 19.1229C38.34 19.1229 38.9438 17.0352 37.8872 15.8661C37.3589 15.2815 31.5476 14.9475 19.8495 14.9475C4.52873 14.9475 2.56646 15.1145 2.11363 16.2836ZM13.208 27.4737V35.8246H10.5665H7.92495V27.4737V19.1229H10.5665H13.208V27.4737ZM23.0193 27.4737V35.8246H20.0004H16.9816V27.4737V19.1229H20.0004H23.0193V27.4737ZM32.0759 27.4737V35.8246H29.4344H26.7929V27.4737V19.1229H29.4344H32.0759V27.4737Z" fill="#10BAB2"/>
</svg>
