<svg width="51" height="50" viewBox="0 0 51 50" fill="none" xmlns="http://www.w3.org/2000/svg">
<path d="M25.146 12.5C22.9732 12.5028 20.8902 13.3671 19.3537 14.9035C17.8173 16.44 16.953 18.523 16.9502 20.6958H21.1169C21.1169 18.4729 22.9252 16.6667 25.146 16.6667C27.3669 16.6667 29.1752 18.4729 29.1752 20.6958C29.1752 21.9417 28.1731 22.8458 26.6419 24.0833C26.1416 24.4752 25.6612 24.8917 25.2023 25.3313C23.1231 27.4083 23.0627 29.6146 23.0627 29.8604V31.25H27.2294L27.2273 29.9312C27.2294 29.8979 27.296 29.1271 28.146 28.2792C28.4585 27.9667 28.8523 27.6542 29.2606 27.325C30.8835 26.0104 33.3398 24.025 33.3398 20.6958C33.3381 18.523 32.4744 16.4397 30.9382 14.9031C29.402 13.3665 27.3188 12.5022 25.146 12.5ZM23.0627 33.3333H27.2294V37.5H23.0627V33.3333Z" fill="#10BAB2"/>
<path d="M25.1468 4.16699C13.6593 4.16699 4.31348 13.5128 4.31348 25.0003C4.31348 36.4878 13.6593 45.8337 25.1468 45.8337C36.6343 45.8337 45.9801 36.4878 45.9801 25.0003C45.9801 13.5128 36.6343 4.16699 25.1468 4.16699ZM25.1468 41.667C15.9572 41.667 8.48014 34.1899 8.48014 25.0003C8.48014 15.8107 15.9572 8.33366 25.1468 8.33366C34.3364 8.33366 41.8135 15.8107 41.8135 25.0003C41.8135 34.1899 34.3364 41.667 25.1468 41.667Z" fill="#10BAB2"/>
</svg>
