<svg width="32" height="32" viewBox="0 0 32 32" fill="none" xmlns="http://www.w3.org/2000/svg">
<path d="M17.3333 10.6667C18.3942 10.6667 19.4116 11.0881 20.1618 11.8382C20.9119 12.5884 21.3333 13.6058 21.3333 14.6667C21.3333 15.0203 21.4738 15.3594 21.7239 15.6095C21.9739 15.8595 22.313 16 22.6667 16C23.0203 16 23.3594 15.8595 23.6095 15.6095C23.8595 15.3594 24 15.0203 24 14.6667C24 12.8986 23.2976 11.2029 22.0474 9.95262C20.7971 8.70238 19.1014 8 17.3333 8C16.9797 8 16.6406 8.14048 16.3905 8.39052C16.1405 8.64057 16 8.97971 16 9.33333C16 9.68696 16.1405 10.0261 16.3905 10.2761C16.6406 10.5262 16.9797 10.6667 17.3333 10.6667Z" fill="#10BAB2"/>
<path d="M17.3337 5.33342C19.809 5.33342 22.183 6.31675 23.9333 8.06709C25.6837 9.81742 26.667 12.1914 26.667 14.6667C26.667 15.0204 26.8075 15.3595 27.0575 15.6096C27.3076 15.8596 27.6467 16.0001 28.0003 16.0001C28.3539 16.0001 28.6931 15.8596 28.9431 15.6096C29.1932 15.3595 29.3337 15.0204 29.3337 14.6667C29.3337 11.4842 28.0694 8.4319 25.8189 6.18147C23.5685 3.93103 20.5163 2.66675 17.3337 2.66675C16.98 2.66675 16.6409 2.80722 16.3909 3.05727C16.1408 3.30732 16.0003 3.64646 16.0003 4.00008C16.0003 4.3537 16.1408 4.69284 16.3909 4.94289C16.6409 5.19294 16.98 5.33342 17.3337 5.33342ZM29.0003 21.2134C28.927 20.9994 28.8004 20.8075 28.6324 20.6559C28.4645 20.5043 28.2607 20.3979 28.0403 20.3468L20.0403 18.5201C19.8232 18.4708 19.5972 18.4768 19.3829 18.5373C19.1686 18.5979 18.9729 18.7111 18.8137 18.8667C18.627 19.0401 18.6137 19.0534 17.747 20.7067C14.8713 19.3816 12.567 17.0679 11.2537 14.1867C12.947 13.3334 12.9603 13.3334 13.1337 13.1334C13.2893 12.9742 13.4025 12.7785 13.4631 12.5642C13.5236 12.3499 13.5296 12.1239 13.4803 11.9067L11.6537 4.00008C11.6025 3.77968 11.4961 3.57591 11.3445 3.40796C11.1929 3.24002 11.001 3.11342 10.787 3.04008C10.4756 2.92887 10.1541 2.84848 9.82699 2.80008C9.49 2.72194 9.1461 2.67728 8.80033 2.66675C7.17366 2.66675 5.61363 3.31294 4.4634 4.46316C3.31318 5.61338 2.66699 7.17342 2.66699 8.80008C2.67405 14.2437 4.83964 19.4623 8.68886 23.3115C12.5381 27.1608 17.7567 29.3264 23.2003 29.3334C24.0058 29.3334 24.8033 29.1748 25.5475 28.8665C26.2916 28.5583 26.9677 28.1065 27.5372 27.537C28.1068 26.9675 28.5586 26.2913 28.8668 25.5472C29.175 24.8031 29.3337 24.0055 29.3337 23.2001C29.3341 22.8607 29.3073 22.5219 29.2537 22.1868C29.1976 21.8556 29.1129 21.5299 29.0003 21.2134ZM23.2003 26.6668C18.4629 26.6632 13.9205 24.7797 10.5706 21.4298C7.2207 18.0799 5.33719 13.5375 5.33366 8.80008C5.33717 7.88175 5.70354 7.00203 6.3529 6.35266C7.00227 5.70329 7.88199 5.33693 8.80033 5.33342H9.24033L10.667 11.5201L9.94699 11.8934C8.80033 12.4934 7.89366 12.9734 8.37366 14.0134C9.15529 16.2262 10.42 18.2371 12.076 19.8999C13.7319 21.5628 15.7375 22.8359 17.947 23.6267C19.067 24.0801 19.507 23.2401 20.107 22.0801L20.4937 21.3468L26.667 22.7601V23.2001C26.6635 24.1184 26.2971 24.9981 25.6477 25.6475C24.9984 26.2969 24.1187 26.6632 23.2003 26.6668Z" fill="#10BAB2"/>
</svg>
