<svg width="34" height="34" viewBox="0 0 34 34" fill="none" xmlns="http://www.w3.org/2000/svg">
<g clip-path="url(#clip0_523_21)">
<path d="M3.57488 1.125C2.95613 1.2875 2.48738 1.56875 1.99988 2.05625C1.51863 2.55 1.28738 2.94375 1.12488 3.6C0.999879 4.06875 0.999879 4.31875 0.999879 13.6187C0.999879 24.1687 0.981129 23.6187 1.40613 24.4312C1.81238 25.2062 2.58738 25.8562 3.43113 26.1375C3.83738 26.275 3.91238 26.275 8.12488 26.3L12.4124 26.3187L13.7436 28.9875C14.4749 30.4562 15.1999 31.825 15.3436 32.0375C16.2436 33.3 17.7561 33.3 18.6561 32.0375C18.7999 31.825 19.5249 30.4562 20.2561 28.9875L21.5874 26.3187L25.8749 26.3C30.6374 26.275 30.4061 26.2937 31.2436 25.8312C32.0499 25.3875 32.7186 24.4812 32.9061 23.5813C32.9811 23.225 32.9999 21.6562 32.9999 13.6187C32.9999 4.30625 32.9999 4.06875 32.8749 3.6C32.7124 2.95625 32.4436 2.49375 31.9436 2C31.4561 1.51875 31.0561 1.29375 30.3999 1.125C29.9249 1 29.6686 1 16.9749 1.00625C4.41238 1.00625 4.01863 1.0125 3.57488 1.125ZM30.0811 2.975C30.2561 3.0375 30.4874 3.1875 30.6499 3.35C31.1624 3.8625 31.1311 3.0375 31.1124 13.75L31.0936 23.2812L30.9561 23.5375C30.8811 23.675 30.7124 23.8875 30.5874 24C30.0999 24.425 30.3874 24.4 25.2811 24.4375C20.9749 24.4688 20.6374 24.475 20.4811 24.5813C20.3499 24.6625 19.9311 25.4437 18.7874 27.7375C17.9499 29.4125 17.2061 30.85 17.1311 30.9375L16.9999 31.0938L16.8686 30.9375C16.7936 30.85 16.0499 29.4125 15.2124 27.7375C14.0686 25.4437 13.6499 24.6625 13.5186 24.5813C13.3624 24.475 13.0249 24.4688 8.71863 24.4375C4.43738 24.4062 4.07488 24.4 3.84363 24.2937C3.53113 24.15 3.21863 23.8562 3.04363 23.5312L2.90613 23.2812L2.88738 13.75C2.86863 3.0375 2.83738 3.85 3.34363 3.34375C3.83738 2.84375 2.64363 2.8875 16.9749 2.88125C28.5749 2.875 29.8186 2.8875 30.0811 2.975Z" fill="#10BAB2" stroke="#10BAB2" stroke-width="0.5"/>
<path d="M16.5623 5.0375C16.2686 5.09375 15.6561 5.33125 15.4123 5.4875C14.7998 5.875 14.2748 6.63125 14.1248 7.3375C14.0811 7.5625 14.0623 8.54375 14.0748 10.325C14.0936 12.9313 14.0936 12.975 14.2436 13.3313C14.5623 14.1375 15.3061 14.8375 16.1061 15.1C16.5998 15.2563 17.4061 15.2563 17.9061 15.0938C18.6936 14.8375 19.4373 14.1375 19.7561 13.3313C19.9061 12.975 19.9061 12.9313 19.9248 10.325C19.9373 8.54375 19.9186 7.5625 19.8748 7.3375C19.6686 6.35 18.8998 5.50625 17.8998 5.1625C17.5873 5.05625 16.8436 4.9875 16.5623 5.0375ZM17.4061 6.99375C17.6936 7.125 17.8998 7.33125 17.9936 7.58125C18.0998 7.8625 18.0873 12.45 17.9748 12.7063C17.8561 12.9938 17.4936 13.2938 17.1998 13.3438C16.7061 13.425 16.1748 13.1313 16.0061 12.6688C15.9123 12.425 15.9123 7.825 16.0061 7.58125C16.1373 7.225 16.6311 6.875 16.9998 6.875C17.0873 6.875 17.2686 6.93125 17.4061 6.99375Z" fill="#10BAB2"/>
<path d="M16.3311 17.4625C15.5561 17.65 14.7811 18.2375 14.4248 18.9125C13.8248 20.025 13.9873 21.3625 14.8248 22.2813C15.4186 22.9313 16.1311 23.25 16.9998 23.25C18.9186 23.25 20.3248 21.4438 19.8436 19.5938C19.4436 18.0563 17.8561 17.0938 16.3311 17.4625ZM17.3561 19.3188C17.9498 19.5375 18.2248 20.25 17.9373 20.8125C17.7436 21.1938 17.4811 21.3438 16.9998 21.3438C16.5186 21.3438 16.2561 21.1938 16.0623 20.8125C15.6311 19.9625 16.4748 18.9875 17.3561 19.3188Z" fill="#10BAB2"/>
</g>
<defs>
<clipPath id="clip0_523_21">
<rect width="32" height="32" fill="white" transform="translate(1 1)"/>
</clipPath>
</defs>
</svg>
