<svg width="34" height="35" viewBox="0 0 34 35" fill="none" xmlns="http://www.w3.org/2000/svg">
<path d="M15.4262 1.03516C11.4551 1.42031 7.81602 3.13359 4.99375 5.94922C2.31094 8.63203 0.690625 11.9258 0.119531 15.877C0.053125 16.3418 0.0332031 18.4137 0.0332031 25.2734V34.0723L0.192578 34.3246C0.278906 34.4641 0.471484 34.6566 0.617578 34.7562L0.889844 34.9355H9.68867C16.5551 34.9355 18.627 34.9156 19.0918 34.8492C23.0363 34.2781 26.3102 32.6711 29.0063 29.9883C31.6426 27.352 33.2563 24.1312 33.8473 20.293C34.0066 19.2238 34.0066 16.7137 33.8473 15.6445C33.2563 11.8129 31.6559 8.61211 29.0195 5.9625C26.4031 3.33945 23.1426 1.70586 19.3906 1.13477C18.5605 1.00859 16.2828 0.955467 15.4262 1.03516ZM19.1582 3.79102C22.2262 4.26914 24.9289 5.64375 27.127 7.8418C29.3449 10.0598 30.6996 12.7426 31.191 15.877C31.2707 16.3949 31.3039 17.0059 31.3039 17.9688C31.3039 18.9316 31.2707 19.5426 31.191 20.0605C30.6996 23.1949 29.3449 25.8777 27.127 28.0957C24.9422 30.2805 22.3656 31.5953 19.1914 32.1598C18.6336 32.2527 17.6574 32.2727 10.6051 32.2926L2.64961 32.3191L2.67617 24.3637C2.69609 17.3113 2.71602 16.3352 2.80898 15.7773C3.37344 12.6031 4.68828 10.0266 6.87305 7.8418C9.3168 5.39805 12.2188 4.04336 15.8379 3.66484C16.3758 3.61172 18.5141 3.69141 19.1582 3.79102Z" fill="#10BAB2"/>
<path d="M15.7516 10.3387C13.8789 10.6242 12.4312 11.793 12.2519 13.1609C12.1391 13.9844 12.7367 14.6551 13.5801 14.6617C14.025 14.6684 14.1777 14.5621 14.6426 13.9445C15.2601 13.1211 15.8246 12.8754 16.9336 12.9352C18.182 13.0082 18.8926 13.6789 18.7598 14.6684C18.6668 15.3856 18.3082 15.8438 17.0996 16.8133C16.1101 17.6035 15.6652 18.2145 15.3598 19.2106C15.2734 19.5027 15.2402 19.8215 15.2402 20.5254C15.2402 21.568 15.3199 21.827 15.7117 22.0129C15.984 22.1457 16.6148 22.1856 17.0398 22.0926C17.4715 21.993 17.7969 21.6742 17.7969 21.3356C17.8035 21.216 17.8301 20.8309 17.8566 20.4789C17.9363 19.609 18.1555 19.1906 18.8859 18.5398C20.3801 17.2117 20.8117 16.7203 21.2766 15.7973C22.4586 13.4797 21.157 11.1223 18.3215 10.4316C17.7969 10.3055 16.316 10.2523 15.7516 10.3387Z" fill="#10BAB2"/>
<path d="M16.0238 23.8391C15.1539 24.118 14.6891 24.8086 14.7621 25.7117C14.875 27.1793 16.5883 27.8367 17.6707 26.8207C18.0293 26.4887 18.2617 25.9774 18.2617 25.5391C18.2617 24.9082 17.757 24.1578 17.1727 23.9121C16.834 23.766 16.3359 23.7395 16.0238 23.8391Z" fill="#10BAB2"/>
</svg>
