<svg width="24" height="24" viewBox="0 0 24 24" fill="none" xmlns="http://www.w3.org/2000/svg">
<path d="M7.07812 7.03125V13.0625C7.07812 13.6148 7.52584 14.0625 8.07812 14.0625H14.8125H21.5469C22.0992 14.0625 22.5469 13.6148 22.5469 13.0625V7.03125V0.999999C22.5469 0.447715 22.0992 -9.53674e-07 21.5469 -9.53674e-07H14.8125H8.07812C7.52584 -9.53674e-07 7.07812 0.447714 7.07812 0.999999V7.03125ZM12.7031 3.51562V5.625H14.8125H16.9219V3.51562V1.40625H19.0312H20.1406C20.6929 1.40625 21.1406 1.85396 21.1406 2.40625V7.03125V11.6562C21.1406 12.2085 20.6929 12.6562 20.1406 12.6562H14.8125H9.48438C8.93209 12.6562 8.48438 12.2085 8.48438 11.6562V7.03125V2.40625C8.48438 1.85396 8.93209 1.40625 9.48438 1.40625H10.5938H12.7031V3.51562ZM15.5156 2.8125V4.21875H14.8125H14.1094V2.8125V1.40625H14.8125H15.5156V2.8125Z" fill="#08908C"/>
<path d="M8.66719 15.6328C8.10469 15.7875 7.52344 16.2516 7.30781 16.7203L7.19531 16.9687H3.6H1C0.447716 16.9687 0 17.4165 0 17.9687V20.4844V23C0 23.5523 0.447715 24 1 24H2.83594H4.96875C5.35708 24 5.67188 23.6852 5.67188 23.2969V22.5938H14.8359H22.8516C23.4858 22.5938 24 22.0796 24 21.4453C24 20.7703 23.9766 20.1984 23.9484 20.0531C23.775 19.2469 23.1234 18.5953 22.3219 18.4266C22.1625 18.3937 21.3984 18.375 20.2031 18.375H18.3281V16.9687C18.3281 16.1923 17.6983 15.5631 16.9219 15.5639L13.6078 15.5672C9.9375 15.5719 8.83594 15.5859 8.66719 15.6328ZM16.9219 17.6719V18.375H14.8125H12.7031V19.0781V19.7812H17.3672C21.9516 19.7812 22.0359 19.7812 22.2188 19.875C22.5 20.0203 22.5938 20.2406 22.5938 20.7656V21.1875H14.1328H5.67188V19.7812V18.375H7.07813H8.48438V17.9391C8.48906 17.4281 8.56406 17.25 8.84063 17.0812L9.02344 16.9687H12.975H16.9219V17.6719ZM4.26562 20.4844V22.5938H2.83594H1.40625V20.4844V18.375H2.83594H4.26562V20.4844Z" fill="#08908C"/>
</svg>
