<svg width="22" height="22" viewBox="0 0 22 22" fill="none" xmlns="http://www.w3.org/2000/svg">
<path d="M6.6922 0.57493C5.90001 0.785868 5.28126 1.41868 5.07032 2.22024C4.97189 2.59993 4.9672 9.56087 5.06564 9.97806L5.12657 10.2499H3.80939C2.77345 10.2499 2.42657 10.264 2.21095 10.3202C1.4047 10.5312 0.781262 11.1593 0.570325 11.9702C0.4672 12.3687 0.4672 19.3812 0.570325 19.7796C0.78595 20.614 1.47501 21.2796 2.29532 21.4531C2.46876 21.4859 3.67814 21.4999 6.2422 21.4906C10.3906 21.4718 10.1422 21.4952 10.7094 21.1249L11 20.9374L11.2906 21.1249C11.8578 21.4952 11.6094 21.4718 15.7578 21.4906C18.3219 21.4999 19.5313 21.4859 19.7047 21.4531C20.525 21.2796 21.2141 20.614 21.4297 19.7796C21.5375 19.3718 21.5328 12.3687 21.4297 11.9609C21.2188 11.1546 20.5906 10.5312 19.7797 10.3202C19.5735 10.264 19.2125 10.2499 18.1906 10.2499H16.8735L16.9344 9.97806C16.986 9.76712 17 8.97024 17 6.10149C17 3.00774 16.9906 2.44993 16.9297 2.21087C16.7188 1.40462 16.0906 0.781181 15.2797 0.570244C14.886 0.467117 7.07657 0.471806 6.6922 0.57493ZM8.75939 3.32181C8.77345 4.58743 8.77814 4.65774 8.88126 4.85931C9.04533 5.19681 9.23283 5.39368 9.55626 5.56712L9.85157 5.72649H11H12.1484L12.3875 5.59993C12.7438 5.41243 12.8891 5.27181 13.0672 4.94368L13.2266 4.64837L13.2406 3.32181L13.2547 1.99524L14.1406 2.00931C15.1063 2.02337 15.1484 2.03743 15.3781 2.34681C15.4766 2.47337 15.4766 2.51087 15.4766 6.12493C15.4766 9.73899 15.4766 9.77649 15.3781 9.90306C15.3266 9.97337 15.2235 10.0765 15.1531 10.1281C15.0266 10.2265 14.9938 10.2265 11 10.2265C7.00626 10.2265 6.97345 10.2265 6.84689 10.1281C6.77658 10.0765 6.67345 9.97337 6.62189 9.90306C6.52345 9.77649 6.52345 9.72493 6.50939 6.25149C6.50001 4.31087 6.50939 2.66087 6.52345 2.57649C6.55626 2.38899 6.75314 2.14993 6.94532 2.06556C7.04376 2.02337 7.33439 2.00462 7.91564 1.99993H8.74533L8.75939 3.32181ZM11.75 3.12493V4.24993H11H10.25V3.12493V1.99993H11H11.75V3.12493ZM3.50939 12.6968C3.52345 13.5687 3.53282 13.6671 3.63126 13.8593C3.79532 14.1921 3.98282 14.3937 4.30626 14.5671L4.60157 14.7265H6.12501H7.64845L7.94376 14.5671C8.27189 14.389 8.41251 14.2437 8.60001 13.8874C8.72189 13.6531 8.72657 13.6202 8.74064 12.6968L8.75939 11.7406L9.26564 11.7593C9.81408 11.7734 9.92189 11.8156 10.1281 12.0968C10.2266 12.2234 10.2266 12.2609 10.2266 15.8749C10.2266 19.489 10.2266 19.5265 10.1281 19.6531C10.0766 19.7234 9.97345 19.8265 9.90314 19.8781C9.77658 19.9765 9.73907 19.9765 6.12501 19.9765C2.51095 19.9765 2.47345 19.9765 2.34689 19.8781C2.27657 19.8265 2.17345 19.7234 2.12189 19.6531C2.02345 19.5265 2.02345 19.4749 2.00939 16.0015C2.00001 14.0609 2.00939 12.4109 2.02345 12.3265C2.05626 12.139 2.25314 11.8999 2.44532 11.8156C2.5297 11.7781 2.76876 11.7546 3.04064 11.7499H3.49064L3.50939 12.6968ZM7.25001 12.4999V13.2499H6.12501H5.00001V12.4999V11.7499H6.12501H7.25001V12.4999ZM13.2594 12.6968C13.2734 13.5687 13.2828 13.6671 13.3813 13.8593C13.5453 14.1921 13.7328 14.3937 14.0563 14.5671L14.3516 14.7265H15.875H17.3985L17.6938 14.5671C18.0219 14.389 18.1625 14.2437 18.35 13.8874C18.4719 13.6531 18.4766 13.6202 18.4906 12.6968L18.5094 11.7406L19.0156 11.7593C19.5641 11.7734 19.6719 11.8156 19.8781 12.0968C19.9766 12.2234 19.9766 12.2609 19.9766 15.8749C19.9766 19.489 19.9766 19.5265 19.8781 19.6531C19.8266 19.7234 19.7234 19.8265 19.6531 19.8781C19.5266 19.9765 19.4891 19.9765 15.875 19.9765C12.261 19.9765 12.2234 19.9765 12.0969 19.8781C12.0266 19.8265 11.9235 19.7234 11.8719 19.6531C11.7734 19.5265 11.7734 19.4749 11.7594 16.0015C11.75 14.0609 11.7594 12.4109 11.7734 12.3265C11.8063 12.139 12.0031 11.8999 12.1953 11.8156C12.2797 11.7781 12.5188 11.7546 12.7906 11.7499H13.2406L13.2594 12.6968ZM17 12.4999V13.2499H15.875H14.75V12.4999V11.7499H15.875H17V12.4999Z" fill="#08908C"/>
</svg>
