<svg width="42" height="36" viewBox="0 0 42 36" fill="none" xmlns="http://www.w3.org/2000/svg">
<path d="M4.15845 0.582432L4.15737 0.58297C4.0221 0.65266 3.91321 0.726662 3.81996 0.819916C3.7267 0.91317 3.6527 1.02206 3.58302 1.15733L3.58173 1.15984L3.58177 1.15985C3.56621 1.19226 3.54364 1.25926 3.51626 1.34742C3.48788 1.43885 3.45193 1.56118 3.40947 1.71043C3.32453 2.00906 3.21304 2.41739 3.08309 2.90593C2.82316 3.88311 2.48904 5.18249 2.14517 6.56967L2.14519 6.5696L2.24223 6.59375L2.14517 6.56969L4.15845 0.582432ZM4.15845 0.582432L4.5022 0.410557L4.52331 0.400002H4.54692H21H37.4532H37.4768L37.4979 0.410557L37.8416 0.582424L37.8427 0.582977C37.978 0.65266 38.0869 0.726662 38.1801 0.819916C38.2734 0.91317 38.3474 1.02206 38.4171 1.15731L38.4183 1.15985C38.4339 1.19226 38.4564 1.25926 38.4838 1.34742C38.5122 1.43885 38.5482 1.56118 38.5906 1.71043C38.6755 2.00906 38.787 2.41739 38.917 2.90593C39.1769 3.8831 39.511 5.18245 39.8549 6.5696L4.15845 0.582432ZM4.01787 35.3767C4.045 35.3978 4.07645 35.4216 4.1219 35.4421C4.16717 35.4626 4.22177 35.478 4.29627 35.4904C4.44303 35.5148 4.68442 35.5302 5.11976 35.5404C5.99301 35.5609 7.67146 35.5609 10.996 35.5609H11H11.004C14.3286 35.5609 16.0071 35.5609 16.8803 35.5404C17.3157 35.5302 17.5571 35.5148 17.7038 35.4904C17.7783 35.478 17.8329 35.4626 17.8782 35.4421C17.9236 35.4216 17.9551 35.3977 17.9822 35.3767C17.9826 35.3764 17.983 35.3761 17.9833 35.3758L4.01787 35.3767ZM4.01787 35.3767C4.01826 35.3769 4.01864 35.3772 4.01903 35.3775L4.07817 35.2969L4.01677 35.3758C4.01714 35.3761 4.0175 35.3764 4.01787 35.3767ZM25.2032 15.4375C24.461 15.2969 23.8204 14.9453 23.3125 14.3984C22.6329 13.6719 22.3985 13.1094 22.2579 11.875C22.1485 10.9297 21.7813 10.5391 21 10.5391C20.2188 10.5391 19.8516 10.9297 19.7422 11.875C19.6016 13.1094 19.3672 13.6719 18.6875 14.3984C18.1797 14.9453 17.5391 15.2969 16.7969 15.4375M25.2032 15.4375L25.2217 15.3392M25.2032 15.4375L25.2218 15.3392C25.2218 15.3392 25.2218 15.3392 25.2217 15.3392M25.2032 15.4375C26.1954 15.625 27.3047 15.2188 28.0625 14.3984H13.9375M25.2217 15.3392C24.5002 15.2025 23.8789 14.8614 23.3858 14.3304L23.3856 14.3301C23.051 13.9725 22.8305 13.6601 22.6753 13.2886C22.5195 12.9156 22.4271 12.4772 22.3572 11.8637L22.3572 11.8635C22.3016 11.3828 22.1787 11.023 21.9537 10.784C21.7254 10.5414 21.4074 10.4391 21 10.4391C20.5927 10.4391 20.2747 10.5414 20.0464 10.784C19.8214 11.023 19.6985 11.3828 19.6429 11.8635L19.6429 11.8637C19.573 12.4772 19.4806 12.9156 19.3248 13.2886C19.1696 13.6601 18.9491 13.9725 18.6145 14.3301L18.6143 14.3304C18.1212 14.8614 17.4999 15.2025 16.7783 15.3392M25.2217 15.3392C26.1757 15.5195 27.2515 15.129 27.9891 14.3306L27.9895 14.3301C28.3241 13.9725 28.5446 13.6601 28.6998 13.2886C28.8556 12.9156 28.948 12.4772 29.0179 11.8637L29.0179 11.8635C29.0735 11.3828 29.1964 11.023 29.4214 10.784C29.6497 10.5414 29.9677 10.4391 30.375 10.4391C30.7824 10.4391 31.1004 10.5414 31.3287 10.784C31.5537 11.023 31.6766 11.3828 31.7322 11.8635L31.7322 11.8637C31.8021 12.4772 31.8945 12.9156 32.0503 13.2886C32.2055 13.6601 32.426 13.9725 32.7606 14.3301L32.761 14.3306C33.4985 15.1289 34.5743 15.5196 35.5363 15.3392L35.5364 15.3392C36.999 15.0664 38.0411 13.9693 38.3391 12.365C38.3709 12.1814 38.3798 12.0418 38.244 11.4066C38.1078 10.7691 37.8291 9.64634 37.2936 7.50077L36.1954 3.1H21H5.80472L4.70644 7.50077C4.17103 9.64634 3.8923 10.7691 3.75604 11.4066C3.62023 12.042 3.62922 12.1815 3.66097 12.3652C3.95909 13.9693 5.001 15.0663 6.47141 15.3392L6.47174 15.3392C7.42567 15.5195 8.50146 15.129 9.23909 14.3306L9.23951 14.3301C9.57405 13.9725 9.79458 13.6601 9.94976 13.2886C10.1056 12.9156 10.198 12.4772 10.2679 11.8637L10.2679 11.8635C10.3235 11.3828 10.4464 11.023 10.6714 10.784C10.8997 10.5414 11.2177 10.4391 11.625 10.4391C12.0324 10.4391 12.3504 10.5414 12.5787 10.784C12.8037 11.023 12.9266 11.3828 12.9822 11.8635L12.9822 11.8637C13.0521 12.4772 13.1445 12.9156 13.3003 13.2886C13.4555 13.6601 13.676 13.9725 14.0106 14.3301L14.011 14.3306C14.7486 15.129 15.8244 15.5195 16.7783 15.3392M16.7783 15.3392L16.7969 15.4375M16.7783 15.3392C16.7783 15.3392 16.7783 15.3392 16.7783 15.3392L16.7969 15.4375M16.7969 15.4375C15.8047 15.625 14.6954 15.2188 13.9375 14.3984M13.9375 14.3984C13.2579 13.6719 13.0235 13.1094 12.8829 11.875C12.7735 10.9297 12.4063 10.5391 11.625 10.5391C10.8438 10.5391 10.4766 10.9297 10.3672 11.875L13.9375 14.3984ZM12.0924 16.2572L12.0925 16.2573C14.4756 18.7039 18.1576 18.7037 20.5483 16.2415L21.0006 15.7758L21.4595 16.2415C21.4596 16.2416 21.4596 16.2416 21.4597 16.2417C23.8506 18.7039 27.5247 18.7037 29.9232 16.2417L29.9233 16.2415L30.3751 15.7763L30.8345 16.2493L12.0924 16.2572ZM12.0924 16.2572C11.9523 16.1132 11.8202 15.9811 11.7214 15.8852C11.6802 15.8453 11.6452 15.812 11.618 15.7869C11.5916 15.8119 11.5577 15.8449 11.5177 15.8845C11.4207 15.9805 11.2905 16.1126 11.1503 16.2568C9.95124 17.5113 8.22735 18.1958 6.60208 18.0763L6.60175 18.0763L6.10004 18.0377M12.0924 16.2572L6.10004 18.0377M6.10004 18.0377V25.4609V32.9H11H15.9004L15.9157 28.3981L15.9157 28.3979L15.9159 28.3527C15.9275 26.1259 15.9334 24.9825 15.9568 24.3702C15.9685 24.0632 15.9847 23.8827 16.0102 23.7643C16.0232 23.7036 16.0392 23.6567 16.0595 23.616C16.0795 23.5758 16.102 23.5453 16.1234 23.5178C16.2153 23.3929 16.3929 23.2153 16.5179 23.1233C16.578 23.0766 16.6362 23.0378 16.756 23.0107C16.8682 22.9854 17.0359 22.9699 17.3177 22.9596C17.883 22.9391 18.9369 22.9391 20.9943 22.9391H21H21.0058C23.0632 22.9391 24.1171 22.9391 24.6824 22.9596C24.9641 22.9699 25.1319 22.9854 25.2441 23.0107C25.3639 23.0378 25.4221 23.0766 25.4822 23.1233C25.4826 23.1236 25.4829 23.1239 25.4833 23.1242L6.10004 18.0377ZM0.931611 12.2345C0.931607 12.2345 0.931603 12.2344 0.931599 12.2344L1.03129 12.2266L0.931619 12.2346C0.931617 12.2346 0.931614 12.2346 0.931611 12.2345ZM3.41567 25.7893L3.41567 25.7892L3.70317 34.9219L3.62423 34.9833C3.62395 34.9829 3.62366 34.9825 3.62338 34.9822C3.6017 34.9543 3.57708 34.9216 3.55624 34.87C3.53606 34.82 3.52109 34.7567 3.50885 34.6662C3.48453 34.4863 3.46841 34.177 3.4567 33.6036C3.43329 32.4563 3.42741 30.2312 3.41574 25.816L3.41567 25.7893ZM18.4406 34.884C18.4206 34.9242 18.398 34.9547 18.3767 34.9822L23.6242 34.9833C23.6239 34.9829 23.6237 34.9825 23.6234 34.9822C23.602 34.9547 23.5795 34.9242 23.5595 34.884C23.5392 34.8433 23.5232 34.7964 23.5102 34.7357C23.4847 34.6173 23.4685 34.4368 23.4568 34.1298C23.4334 33.5175 23.4275 32.3742 23.4159 30.1475L23.4157 30.1021V30.1019L23.4004 25.6H21H18.5997L18.5844 30.1019L18.5844 30.1021L18.5842 30.1475C18.5726 32.3742 18.5667 33.5175 18.5433 34.1298C18.5316 34.4368 18.5154 34.6173 18.4899 34.7357C18.4769 34.7964 18.4609 34.8433 18.4406 34.884ZM24.1219 35.4421C24.0764 35.4216 24.045 35.3977 24.0179 35.3767L37.9833 35.3758C37.983 35.3761 37.9826 35.3764 37.9822 35.3767C37.9551 35.3977 37.9236 35.4216 37.8782 35.4421C37.8329 35.4626 37.7783 35.478 37.7038 35.4904C37.5571 35.5148 37.3157 35.5302 36.8803 35.5404C36.0071 35.5609 34.3286 35.5609 31.004 35.5609H31H30.996C27.6715 35.5609 25.993 35.5609 25.1198 35.5404C24.6844 35.5302 24.443 35.5148 24.2963 35.4904C24.2218 35.478 24.1672 35.4626 24.1219 35.4421ZM38.4438 34.87C38.423 34.9216 38.3984 34.9543 38.3767 34.9822L39.7614 6.60812C40.9767 11.4925 41.0156 11.649 40.9688 12.2266L41.0685 12.2344C41.0685 12.2345 41.0685 12.2346 41.0685 12.2346C41.005 13.0437 40.7517 13.9623 40.4178 14.6381L40.4176 14.6385C40.2334 15.0068 40.1034 15.2436 39.9282 15.4812C39.7538 15.7178 39.5365 15.9527 39.1813 16.3196L39.181 16.3198L38.6 16.9158L38.5844 25.7892V25.7893L38.5843 25.8143C38.5727 30.2306 38.5668 32.4562 38.5434 33.6036C38.5317 34.177 38.5156 34.4863 38.4912 34.6662C38.479 34.7567 38.464 34.82 38.4438 34.87ZM25.8767 23.5178C25.898 23.5453 25.9206 23.5758 25.9406 23.616C25.9609 23.6567 25.9769 23.7036 25.9899 23.7643C26.0154 23.8827 26.0316 24.0632 26.0433 24.3702C26.0667 24.9825 26.0726 26.1258 26.0842 28.3525L26.0844 28.3979V28.3981L26.0997 32.9H31H35.9V25.4609V18.0377L35.3983 18.0763L35.398 18.0763C33.7646 18.1958 32.0644 17.5188 30.8346 16.2494L25.8767 23.5178ZM3.50004 16.875L3.42844 16.9448L3.40011 16.9158L3.40004 16.8752L3.50004 16.875Z" fill="#10BAB2" stroke="#10BAB2" stroke-width="0.2"/>
</svg>
