<svg width="21" height="23" viewBox="0 0 21 23" fill="none" xmlns="http://www.w3.org/2000/svg">
<path d="M4.78728 8.67588C3.64968 8.67588 2.71008 8.32668 1.96848 7.62828C1.23408 6.92988 0.866882 5.97948 0.866882 4.77708C0.866882 3.63228 1.21608 2.68908 1.91448 1.94748C2.61288 1.20588 3.54888 0.835078 4.72248 0.835078C5.29128 0.835078 5.84568 0.946679 6.38568 1.16988C6.92568 1.39308 7.38648 1.72068 7.76808 2.15268L6.68808 3.05988C6.14088 2.53428 5.48568 2.27148 4.72248 2.27148C4.07448 2.27148 3.53448 2.49828 3.10248 2.95188C2.67048 3.40548 2.45448 4.01388 2.45448 4.77708C2.45448 5.49708 2.66688 6.09468 3.09168 6.56988C3.51648 7.04508 4.08168 7.28268 4.78728 7.28268C5.34888 7.28268 5.86728 7.13868 6.34248 6.85068V5.71668H4.61448V4.42068H7.80048V7.72548C7.44768 8.01348 7.00128 8.24388 6.46128 8.41668C5.92128 8.58948 5.36328 8.67588 4.78728 8.67588Z" fill="#10BAB2"/>
<path d="M11.6229 8.68668C10.5357 8.68668 9.60332 8.28348 8.82572 7.47708L9.73292 6.35388C10.0065 6.67068 10.3125 6.91188 10.6509 7.07748C10.9893 7.23588 11.3205 7.31508 11.6445 7.31508C12.0045 7.31508 12.2781 7.24308 12.4653 7.09908C12.6525 6.94788 12.7461 6.74988 12.7461 6.50508C12.7461 6.23868 12.6489 6.03708 12.4545 5.90028C12.2601 5.75628 11.9109 5.59788 11.4069 5.42508C11.0613 5.30268 10.7733 5.18748 10.5429 5.07948C10.3125 4.96428 10.0749 4.81308 9.83012 4.62588C9.58532 4.43868 9.40172 4.21188 9.27932 3.94548C9.15692 3.67908 9.09572 3.37308 9.09572 3.02748C9.09572 2.41548 9.33332 1.90068 9.80852 1.48308C10.2837 1.06548 10.8669 0.849479 11.5581 0.835078C12.4941 0.827878 13.3545 1.15188 14.1393 1.80708L13.2645 2.95188C12.6597 2.44788 12.1017 2.19588 11.5905 2.19588C11.3169 2.19588 11.0937 2.26428 10.9209 2.40108C10.7553 2.53788 10.6725 2.72508 10.6725 2.96268C10.6653 3.18588 10.7553 3.36588 10.9425 3.50268C11.1297 3.63228 11.4681 3.79428 11.9577 3.98868C12.7497 4.29828 13.2681 4.53588 13.5129 4.70148C14.0601 5.07588 14.3337 5.61948 14.3337 6.33228C14.3337 7.10268 14.0601 7.68948 13.5129 8.09268C12.9657 8.48868 12.3357 8.68668 11.6229 8.68668Z" fill="#10BAB2"/>
<path d="M17.1114 8.60028V2.29308H14.9946V0.932278H20.751V2.29308H18.6234V8.60028H17.1114Z" fill="#10BAB2"/>
<path d="M9.54139 22.0487L8.48299 21.5951L11.885 13.9703L12.9434 14.4239L9.54139 22.0487ZM7.79179 18.3443C7.17979 18.3443 6.66499 18.1427 6.24739 17.7395C5.82979 17.3363 5.62099 16.8179 5.62099 16.1843C5.62099 15.5867 5.82259 15.0827 6.22579 14.6723C6.63619 14.2547 7.15819 14.0459 7.79179 14.0459C8.41099 14.0459 8.92939 14.2439 9.34699 14.6399C9.76459 15.0359 9.97339 15.5507 9.97339 16.1843C9.97339 16.7891 9.76819 17.3003 9.35779 17.7179C8.95459 18.1355 8.43259 18.3443 7.79179 18.3443ZM7.80259 17.3399C8.11939 17.3399 8.37499 17.2319 8.56939 17.0159C8.77099 16.7927 8.87179 16.5191 8.87179 16.1951C8.87179 15.8639 8.76739 15.5939 8.55859 15.3851C8.35699 15.1691 8.10499 15.0611 7.80259 15.0611C7.49299 15.0611 7.23739 15.1727 7.03579 15.3959C6.84139 15.6119 6.74419 15.8783 6.74419 16.1951C6.74419 16.5263 6.84499 16.7999 7.04659 17.0159C7.25539 17.2319 7.50739 17.3399 7.80259 17.3399ZM13.5914 21.8867C12.9866 21.8867 12.4718 21.6887 12.047 21.2927C11.6294 20.8895 11.4206 20.3711 11.4206 19.7375C11.4206 19.1399 11.6222 18.6323 12.0254 18.2147C12.4358 17.7971 12.9578 17.5883 13.5914 17.5883C14.2106 17.5883 14.729 17.7899 15.1466 18.1931C15.5642 18.5891 15.773 19.1039 15.773 19.7375C15.773 20.3423 15.5714 20.8535 15.1682 21.2711C14.765 21.6815 14.2394 21.8867 13.5914 21.8867ZM13.6022 20.8823C13.919 20.8823 14.1746 20.7743 14.369 20.5583C14.5706 20.3351 14.6714 20.0651 14.6714 19.7483C14.6714 19.4171 14.567 19.1471 14.3582 18.9383C14.1566 18.7223 13.9046 18.6143 13.6022 18.6143C13.2926 18.6143 13.037 18.7259 12.8354 18.9491C12.641 19.1651 12.5438 19.4315 12.5438 19.7483C12.5438 20.0795 12.6446 20.3531 12.8462 20.5691C13.055 20.7779 13.307 20.8823 13.6022 20.8823Z" fill="#10BAB2"/>
</svg>
