<svg width="20" height="20" viewBox="0 0 20 20" fill="none" xmlns="http://www.w3.org/2000/svg">
<path d="M10.0001 1.66666C5.40508 1.66666 1.66675 4.6575 1.66675 8.33333C1.66675 10.7567 3.24841 12.93 5.83342 14.1117V18.3333L10.2834 14.9958C14.7476 14.8767 18.3334 11.9333 18.3334 8.33333C18.3334 4.6575 14.5951 1.66666 10.0001 1.66666ZM10.0001 13.3333H9.72258L7.50008 15V12.9858L6.96592 12.78C4.72508 11.9175 3.33341 10.2133 3.33341 8.33333C3.33341 5.57583 6.32425 3.33333 10.0001 3.33333C13.6759 3.33333 16.6667 5.57583 16.6667 8.33333C16.6667 11.0908 13.6759 13.3333 10.0001 13.3333Z" fill="#888888"/>
</svg>
