<svg width="24" height="24" viewBox="0 0 24 24" fill="none" xmlns="http://www.w3.org/2000/svg">
<path d="M11.9993 6C10.9564 6.00132 9.95649 6.41622 9.21901 7.1537C8.48153 7.89118 8.06663 8.89104 8.06531 9.934H10.0653C10.0653 8.867 10.9333 8 11.9993 8C13.0653 8 13.9333 8.867 13.9333 9.934C13.9333 10.532 13.4523 10.966 12.7173 11.56C12.4772 11.7481 12.2466 11.948 12.0263 12.159C11.0283 13.156 10.9993 14.215 10.9993 14.333V15H12.9993L12.9983 14.367C12.9993 14.351 13.0313 13.981 13.4393 13.574C13.5893 13.424 13.7783 13.274 13.9743 13.116C14.7533 12.485 15.9323 11.532 15.9323 9.934C15.9315 8.89106 15.5169 7.89104 14.7795 7.15347C14.0422 6.41591 13.0423 6.00106 11.9993 6ZM10.9993 16H12.9993V18H10.9993V16Z" fill="#10BAB2"/>
<path d="M11.9997 2C6.48569 2 1.99969 6.486 1.99969 12C1.99969 17.514 6.48569 22 11.9997 22C17.5137 22 21.9997 17.514 21.9997 12C21.9997 6.486 17.5137 2 11.9997 2ZM11.9997 20C7.5887 20 3.99969 16.411 3.99969 12C3.99969 7.589 7.5887 4 11.9997 4C16.4107 4 19.9997 7.589 19.9997 12C19.9997 16.411 16.4107 20 11.9997 20Z" fill="#10BAB2"/>
</svg>
