<svg width="20" height="20" viewBox="0 0 20 20" fill="none" xmlns="http://www.w3.org/2000/svg">
<path d="M10.8333 6.66667C11.4964 6.66667 12.1323 6.93006 12.6011 7.3989C13.0699 7.86774 13.3333 8.50363 13.3333 9.16667C13.3333 9.38768 13.4211 9.59964 13.5774 9.75592C13.7337 9.9122 13.9457 10 14.1667 10C14.3877 10 14.5996 9.9122 14.7559 9.75592C14.9122 9.59964 15 9.38768 15 9.16667C15 8.0616 14.561 7.00179 13.7796 6.22039C12.9982 5.43899 11.9384 5 10.8333 5C10.6123 5 10.4004 5.0878 10.2441 5.24408C10.0878 5.40036 10 5.61232 10 5.83333C10 6.05435 10.0878 6.26631 10.2441 6.42259C10.4004 6.57887 10.6123 6.66667 10.8333 6.66667Z" fill="#10BAB2"/>
<path d="M10.8334 3.33333C12.3805 3.33333 13.8642 3.94791 14.9582 5.04187C16.0522 6.13584 16.6667 7.61957 16.6667 9.16666C16.6667 9.38768 16.7545 9.59964 16.9108 9.75592C17.0671 9.9122 17.2791 10 17.5001 10C17.7211 10 17.9331 9.9122 18.0893 9.75592C18.2456 9.59964 18.3334 9.38768 18.3334 9.16666C18.3334 7.17754 17.5432 5.26989 16.1367 3.86336C14.7302 2.45684 12.8225 1.66666 10.8334 1.66666C10.6124 1.66666 10.4004 1.75446 10.2442 1.91074C10.0879 2.06702 10.0001 2.27898 10.0001 2.5C10.0001 2.72101 10.0879 2.93297 10.2442 3.08925C10.4004 3.24553 10.6124 3.33333 10.8334 3.33333ZM18.1251 13.2583C18.0792 13.1246 18.0001 13.0046 17.8952 12.9099C17.7902 12.8151 17.6628 12.7486 17.5251 12.7167L12.5251 11.575C12.3894 11.5442 12.2481 11.5479 12.1142 11.5858C11.9803 11.6236 11.858 11.6944 11.7584 11.7917C11.6417 11.9 11.6334 11.9083 11.0917 12.9417C9.29441 12.1135 7.85424 10.6674 7.03341 8.86666C8.09175 8.33333 8.10008 8.33333 8.20842 8.20833C8.30567 8.1088 8.37645 7.98649 8.4143 7.85257C8.45215 7.71865 8.45585 7.57738 8.42508 7.44166L7.28341 2.5C7.25145 2.36224 7.18496 2.23489 7.0902 2.12992C6.99544 2.02496 6.87553 1.94583 6.74175 1.9C6.54714 1.83049 6.34617 1.78025 6.14175 1.75C5.93112 1.70116 5.71619 1.67325 5.50008 1.66666C4.48342 1.66666 3.50839 2.07053 2.78951 2.78942C2.07062 3.50831 1.66675 4.48333 1.66675 5.5C1.67116 8.90226 3.02465 12.1639 5.43041 14.5697C7.83618 16.9754 11.0978 18.3289 14.5001 18.3333C15.0035 18.3333 15.502 18.2342 15.967 18.0415C16.4321 17.8489 16.8547 17.5665 17.2107 17.2106C17.5666 16.8546 17.849 16.432 18.0416 15.967C18.2343 15.5019 18.3334 15.0034 18.3334 14.5C18.3337 14.2879 18.317 14.0761 18.2834 13.8667C18.2484 13.6597 18.1954 13.4561 18.1251 13.2583ZM14.5001 16.6667C11.5392 16.6645 8.70017 15.4873 6.60649 13.3936C4.51282 11.2999 3.33562 8.4609 3.33341 5.5C3.33561 4.92604 3.56459 4.37621 3.97044 3.97036C4.3763 3.5645 4.92612 3.33553 5.50008 3.33333H5.77508L6.66675 7.2L6.21675 7.43333C5.50008 7.80833 4.93341 8.10833 5.23341 8.75833C5.72193 10.1413 6.51239 11.3981 7.54736 12.4374C8.58233 13.4767 9.83581 14.2724 11.2167 14.7667C11.9167 15.05 12.1917 14.525 12.5667 13.8L12.8084 13.3417L16.6667 14.225V14.5C16.6646 15.074 16.4356 15.6238 16.0297 16.0296C15.6239 16.4355 15.074 16.6645 14.5001 16.6667Z" fill="#10BAB2"/>
</svg>
