<svg width="22" height="24" viewBox="0 0 22 24" fill="none" xmlns="http://www.w3.org/2000/svg">
<path d="M14.1219 0.0703125C12.3313 0.360937 10.7703 1.36875 9.79063 2.85938L9.49531 3.30469L5.64219 3.32812L1.78906 3.35156L1.52656 3.48281C1.21719 3.63281 0.907813 3.94687 0.767188 4.25625L0.664062 4.47656V13.6641V22.8516L0.767188 23.0719C0.907813 23.3812 1.21719 23.6953 1.52656 23.8453L1.78906 23.9766H8.5625H15.3359L15.5984 23.8453C15.9078 23.6953 16.2172 23.3812 16.3578 23.0719C16.4609 22.8562 16.4609 22.8141 16.475 19.7109C16.4844 17.5828 16.475 16.5141 16.4375 16.3969C16.3766 16.1906 16.1281 15.9609 15.8797 15.8859C15.5141 15.7781 15.1297 15.9516 14.9516 16.3125L14.8438 16.5187V19.4391V22.3594H8.5625H2.28125V13.6641V4.96875H5.59063H8.90469L8.87188 5.11406C8.78281 5.55937 8.74063 6.16875 8.76875 6.61875L8.80156 7.125H6.90313C5.675 7.125 4.95781 7.14375 4.87344 7.17656C4.59688 7.27969 4.34844 7.64062 4.34375 7.94062C4.34375 8.16562 4.52188 8.47969 4.73281 8.61562L4.925 8.74219L7.09063 8.75625L9.25625 8.77031L9.45312 9.15469C9.72031 9.67969 10.0672 10.1672 10.4797 10.6031L10.8219 10.9687H7.8875C4.64844 10.9687 4.81719 10.9547 4.54531 11.2687C4.175 11.6859 4.4 12.4078 4.93906 12.5578C5.1875 12.6281 11.9422 12.6281 12.1859 12.5578C12.2891 12.5297 12.4438 12.4312 12.5422 12.3281L12.7203 12.1453L13.0578 12.2578C14.3188 12.6844 15.7953 12.6891 17.0609 12.2625C17.9844 11.9531 18.7672 11.4562 19.5078 10.7156C20.4359 9.78281 20.9984 8.73281 21.2516 7.4625C21.3781 6.825 21.3641 5.64844 21.2234 5.02031C20.6797 2.55469 18.875 0.726562 16.4375 0.159374C15.8 0.00937462 14.7406 -0.0281258 14.1219 0.0703125ZM16.1656 1.77656C17.8672 2.21719 19.1188 3.46875 19.5875 5.19375C19.7328 5.72812 19.7328 6.80156 19.5875 7.37344C19.25 8.72344 18.3641 9.83906 17.1359 10.4578C15.1953 11.4328 12.7953 10.9078 11.4406 9.21094C9.22344 6.44531 10.7516 2.37187 14.2578 1.71094C14.7594 1.61719 15.6781 1.65 16.1656 1.77656Z" fill="#10BAB2"/>
<path d="M14.6234 2.22656C14.5016 2.30156 14.3937 2.41875 14.3328 2.54531C14.2391 2.74219 14.2344 2.81719 14.2344 4.58438C14.2344 6.52969 14.2437 6.61875 14.4594 6.85781C14.5906 7.00781 16.6578 8.01562 16.8266 8.01562C17.5156 8.01094 17.8812 7.1625 17.4266 6.64219C17.3375 6.54844 17.0328 6.36563 16.5828 6.14063L15.875 5.79375V4.26563C15.875 2.55938 15.8562 2.47031 15.5422 2.24531C15.3031 2.07656 14.8812 2.06719 14.6234 2.22656Z" fill="#10BAB2"/>
<path d="M15.4531 13.0876C15.05 13.2047 14.8438 13.5188 14.8438 14.0297C14.8438 14.5126 14.9844 14.7844 15.3219 14.9579C15.6266 15.1126 15.9641 15.061 16.2219 14.8219C16.4188 14.6391 16.4844 14.4376 16.4844 14.0391C16.4844 13.6829 16.4234 13.486 16.2547 13.2938C16.0859 13.1016 15.7297 13.0079 15.4531 13.0876Z" fill="#10BAB2"/>
<path d="M4.96252 14.775C4.4047 14.9016 4.16564 15.6328 4.54533 16.0594C4.82189 16.3782 4.57814 16.3594 8.5672 16.3594H12.186L12.3875 16.2422C12.9172 15.9282 12.8844 15.1078 12.3266 14.8313C12.1578 14.7469 11.9891 14.7422 8.65627 14.7328C6.53752 14.7328 5.08439 14.7469 4.96252 14.775Z" fill="#10BAB2"/>
<path d="M4.92032 18.6142C4.70469 18.6751 4.45157 18.947 4.38594 19.1813C4.28751 19.547 4.47032 19.9548 4.82188 20.1376C5.00938 20.236 12.1156 20.236 12.3031 20.1376C12.8844 19.8329 12.9359 19.0735 12.4016 18.7173L12.2 18.586L8.63751 18.5767C6.50001 18.572 5.00938 18.586 4.92032 18.6142Z" fill="#10BAB2"/>
</svg>
