<svg width="24" height="24" viewBox="0 0 24 24" fill="none" xmlns="http://www.w3.org/2000/svg">
<path d="M15.1219 0.0703125C13.3313 0.360937 11.7703 1.36875 10.7906 2.85938L10.4953 3.30469L6.64219 3.32812L2.78906 3.35156L2.52656 3.48281C2.21719 3.63281 1.90781 3.94687 1.76719 4.25625L1.66406 4.47656V13.6641V22.8516L1.76719 23.0719C1.90781 23.3812 2.21719 23.6953 2.52656 23.8453L2.78906 23.9766H9.5625H16.3359L16.5984 23.8453C16.9078 23.6953 17.2172 23.3812 17.3578 23.0719C17.4609 22.8562 17.4609 22.8141 17.475 19.7109C17.4844 17.5828 17.475 16.5141 17.4375 16.3969C17.3766 16.1906 17.1281 15.9609 16.8797 15.8859C16.5141 15.7781 16.1297 15.9516 15.9516 16.3125L15.8438 16.5187V19.4391V22.3594H9.5625H3.28125V13.6641V4.96875H6.59063H9.90469L9.87188 5.11406C9.78281 5.55937 9.74063 6.16875 9.76875 6.61875L9.80156 7.125H7.90313C6.675 7.125 5.95781 7.14375 5.87344 7.17656C5.59688 7.27969 5.34844 7.64062 5.34375 7.94062C5.34375 8.16562 5.52188 8.47969 5.73281 8.61562L5.925 8.74219L8.09063 8.75625L10.2563 8.77031L10.4531 9.15469C10.7203 9.67969 11.0672 10.1672 11.4797 10.6031L11.8219 10.9687H8.8875C5.64844 10.9687 5.81719 10.9547 5.54531 11.2687C5.175 11.6859 5.4 12.4078 5.93906 12.5578C6.1875 12.6281 12.9422 12.6281 13.1859 12.5578C13.2891 12.5297 13.4438 12.4312 13.5422 12.3281L13.7203 12.1453L14.0578 12.2578C15.3188 12.6844 16.7953 12.6891 18.0609 12.2625C18.9844 11.9531 19.7672 11.4562 20.5078 10.7156C21.4359 9.78281 21.9984 8.73281 22.2516 7.4625C22.3781 6.825 22.3641 5.64844 22.2234 5.02031C21.6797 2.55469 19.875 0.726562 17.4375 0.159374C16.8 0.00937462 15.7406 -0.0281258 15.1219 0.0703125ZM17.1656 1.77656C18.8672 2.21719 20.1188 3.46875 20.5875 5.19375C20.7328 5.72812 20.7328 6.80156 20.5875 7.37344C20.25 8.72344 19.3641 9.83906 18.1359 10.4578C16.1953 11.4328 13.7953 10.9078 12.4406 9.21094C10.2234 6.44531 11.7516 2.37187 15.2578 1.71094C15.7594 1.61719 16.6781 1.65 17.1656 1.77656Z" fill="#4F5052"/>
<path d="M15.6234 2.22656C15.5016 2.30156 15.3937 2.41875 15.3328 2.54531C15.2391 2.74219 15.2344 2.81719 15.2344 4.58438C15.2344 6.52969 15.2437 6.61875 15.4594 6.85781C15.5906 7.00781 17.6578 8.01562 17.8266 8.01562C18.5156 8.01094 18.8812 7.1625 18.4266 6.64219C18.3375 6.54844 18.0328 6.36563 17.5828 6.14063L16.875 5.79375V4.26563C16.875 2.55938 16.8562 2.47031 16.5422 2.24531C16.3031 2.07656 15.8812 2.06719 15.6234 2.22656Z" fill="#4F5052"/>
<path d="M16.4531 13.0876C16.05 13.2047 15.8438 13.5188 15.8438 14.0297C15.8438 14.5126 15.9844 14.7844 16.3219 14.9579C16.6266 15.1126 16.9641 15.061 17.2219 14.8219C17.4188 14.6391 17.4844 14.4376 17.4844 14.0391C17.4844 13.6829 17.4234 13.486 17.2547 13.2938C17.0859 13.1016 16.7297 13.0079 16.4531 13.0876Z" fill="#4F5052"/>
<path d="M5.96258 14.775C5.40476 14.9016 5.1657 15.6328 5.54539 16.0594C5.82195 16.3782 5.5782 16.3594 9.56726 16.3594H13.186L13.3876 16.2422C13.9173 15.9282 13.8845 15.1078 13.3266 14.8313C13.1579 14.7469 12.9891 14.7422 9.65633 14.7328C7.53758 14.7328 6.08445 14.7469 5.96258 14.775Z" fill="#4F5052"/>
<path d="M5.92023 18.614C5.7046 18.675 5.45148 18.9469 5.38585 19.1812C5.28741 19.5469 5.47023 19.9547 5.82179 20.1375C6.00929 20.2359 13.1155 20.2359 13.303 20.1375C13.8843 19.8328 13.9359 19.0734 13.4015 18.7172L13.1999 18.5859L9.63741 18.5765C7.49991 18.5719 6.00929 18.5859 5.92023 18.614Z" fill="#4F5052"/>
</svg>
