<svg width="24" height="24" viewBox="0 0 24 24" fill="none" xmlns="http://www.w3.org/2000/svg">
<path d="M7.69238 1.57505C6.9002 1.78599 6.28145 2.4188 6.07051 3.22037C5.97207 3.60005 5.96738 10.561 6.06582 10.9782L6.12676 11.2501H4.80957C3.77363 11.2501 3.42676 11.2641 3.21113 11.3204C2.40488 11.5313 1.78145 12.1594 1.57051 12.9704C1.46738 13.3688 1.46738 20.3813 1.57051 20.7797C1.78613 21.6141 2.4752 22.2797 3.29551 22.4532C3.46895 22.486 4.67832 22.5001 7.24238 22.4907C11.3908 22.4719 11.1424 22.4954 11.7096 22.1251L12.0002 21.9376L12.2908 22.1251C12.858 22.4954 12.6096 22.4719 16.758 22.4907C19.3221 22.5001 20.5314 22.486 20.7049 22.4532C21.5252 22.2797 22.2143 21.6141 22.4299 20.7797C22.5377 20.3719 22.533 13.3688 22.4299 12.961C22.2189 12.1547 21.5908 11.5313 20.7799 11.3204C20.5736 11.2641 20.2127 11.2501 19.1908 11.2501H17.8736L17.9346 10.9782C17.9861 10.7672 18.0002 9.97037 18.0002 7.10162C18.0002 4.00787 17.9908 3.45005 17.9299 3.21099C17.7189 2.40474 17.0908 1.7813 16.2799 1.57037C15.8861 1.46724 8.07676 1.47193 7.69238 1.57505ZM9.75957 4.32193C9.77363 5.58755 9.77832 5.65787 9.88145 5.85943C10.0455 6.19693 10.233 6.3938 10.5564 6.56724L10.8518 6.72662H12.0002H13.1486L13.3877 6.60005C13.7439 6.41255 13.8893 6.27193 14.0674 5.9438L14.2268 5.64849L14.2408 4.32193L14.2549 2.99537L15.1408 3.00943C16.1064 3.02349 16.1486 3.03755 16.3783 3.34693C16.4768 3.47349 16.4768 3.51099 16.4768 7.12505C16.4768 10.7391 16.4768 10.7766 16.3783 10.9032C16.3268 10.9735 16.2236 11.0766 16.1533 11.1282C16.0268 11.2266 15.9939 11.2266 12.0002 11.2266C8.00645 11.2266 7.97363 11.2266 7.84707 11.1282C7.77676 11.0766 7.67363 10.9735 7.62207 10.9032C7.52363 10.7766 7.52363 10.7251 7.50957 7.25162C7.5002 5.31099 7.50957 3.66099 7.52363 3.57662C7.55645 3.38912 7.75332 3.15005 7.94551 3.06568C8.04395 3.02349 8.33457 3.00474 8.91582 3.00005H9.74551L9.75957 4.32193ZM12.7502 4.12505V5.25005H12.0002H11.2502V4.12505V3.00005H12.0002H12.7502V4.12505ZM4.50957 13.6969C4.52363 14.5688 4.53301 14.6672 4.63145 14.8594C4.79551 15.1922 4.98301 15.3938 5.30645 15.5672L5.60176 15.7266H7.1252H8.64863L8.94395 15.5672C9.27207 15.3891 9.4127 15.2438 9.6002 14.8876C9.72207 14.6532 9.72676 14.6204 9.74082 13.6969L9.75957 12.7407L10.2658 12.7594C10.8143 12.7735 10.9221 12.8157 11.1283 13.0969C11.2268 13.2235 11.2268 13.261 11.2268 16.8751C11.2268 20.4891 11.2268 20.5266 11.1283 20.6532C11.0768 20.7235 10.9736 20.8266 10.9033 20.8782C10.7768 20.9766 10.7393 20.9766 7.1252 20.9766C3.51113 20.9766 3.47363 20.9766 3.34707 20.8782C3.27676 20.8266 3.17363 20.7235 3.12207 20.6532C3.02363 20.5266 3.02363 20.4751 3.00957 17.0016C3.0002 15.061 3.00957 13.411 3.02363 13.3266C3.05645 13.1391 3.25332 12.9001 3.44551 12.8157C3.52988 12.7782 3.76895 12.7547 4.04082 12.7501H4.49082L4.50957 13.6969ZM8.2502 13.5001V14.2501H7.1252H6.0002V13.5001V12.7501H7.1252H8.2502V13.5001ZM14.2596 13.6969C14.2736 14.5688 14.283 14.6672 14.3814 14.8594C14.5455 15.1922 14.733 15.3938 15.0564 15.5672L15.3518 15.7266H16.8752H18.3986L18.6939 15.5672C19.0221 15.3891 19.1627 15.2438 19.3502 14.8876C19.4721 14.6532 19.4768 14.6204 19.4908 13.6969L19.5096 12.7407L20.0158 12.7594C20.5643 12.7735 20.6721 12.8157 20.8783 13.0969C20.9768 13.2235 20.9768 13.261 20.9768 16.8751C20.9768 20.4891 20.9768 20.5266 20.8783 20.6532C20.8268 20.7235 20.7236 20.8266 20.6533 20.8782C20.5268 20.9766 20.4893 20.9766 16.8752 20.9766C13.2611 20.9766 13.2236 20.9766 13.0971 20.8782C13.0268 20.8266 12.9236 20.7235 12.8721 20.6532C12.7736 20.5266 12.7736 20.4751 12.7596 17.0016C12.7502 15.061 12.7596 13.411 12.7736 13.3266C12.8064 13.1391 13.0033 12.9001 13.1955 12.8157C13.2799 12.7782 13.5189 12.7547 13.7908 12.7501H14.2408L14.2596 13.6969ZM18.0002 13.5001V14.2501H16.8752H15.7502V13.5001V12.7501H16.8752H18.0002V13.5001Z" fill="#4F5052"/>
</svg>
