<svg width="40" height="40" viewBox="0 0 40 40" fill="none" xmlns="http://www.w3.org/2000/svg">
<path d="M28.5702 4.83594C27.0312 6.01562 25.0155 6.91406 23.0702 7.28125C22.578 7.375 22.1015 7.50781 22.0077 7.57812C21.8046 7.74219 21.7421 8.21875 21.6718 10.2344C21.5624 13.5234 21.9999 16.3203 22.8671 17.875C23.8671 19.6641 25.953 21.6094 28.3124 22.9453C28.789 23.2109 29.2655 23.4375 29.3749 23.4375C29.7968 23.4375 31.6405 22.3125 32.9374 21.2656C35.3984 19.2891 36.4921 17.4062 36.914 14.4375C37.0859 13.25 37.1484 10.6328 37.0468 9.10156C36.9374 7.48438 36.9609 7.52344 35.7734 7.29688C33.7109 6.89844 31.8202 6.07031 30.1952 4.84375C29.8124 4.55469 29.4921 4.375 29.3749 4.375C29.2499 4.375 28.9452 4.55469 28.5702 4.83594ZM30.0546 6.28125C31.3827 7.19531 33.1015 7.95312 34.7577 8.35156C35.289 8.48438 35.7499 8.60938 35.7734 8.64062C35.8671 8.73438 35.8202 13.3125 35.7187 14.0625C35.4921 15.6484 35.203 16.5781 34.6718 17.4688C33.7109 19.0625 31.953 20.6562 29.8202 21.8672L29.3671 22.125L28.5468 21.6328C25.7343 19.9375 23.8827 17.8359 23.3593 15.7578C23.0077 14.3594 22.9296 13.5156 22.9296 11.0391C22.9296 9.74219 22.953 8.66406 22.9765 8.64062C22.9999 8.60938 23.4452 8.49219 23.953 8.36719C25.6327 7.95312 27.164 7.28906 28.5546 6.375C28.9843 6.09375 29.3593 5.85938 29.3905 5.85938C29.414 5.85938 29.7187 6.04688 30.0546 6.28125Z" fill="#10BAB2"/>
<path fill-rule="evenodd" clip-rule="evenodd" d="M28.3303 4.51594L28.327 4.51847C26.8383 5.65952 24.8808 6.53244 22.9961 6.88819L22.9955 6.88831C22.7397 6.93703 22.4865 6.99613 22.2821 7.05321C22.1803 7.08164 22.0861 7.1108 22.0077 7.13928C21.9455 7.16184 21.8448 7.20038 21.7678 7.25812L21.7621 7.26243L21.7565 7.26695C21.5162 7.46103 21.4417 7.78052 21.3933 8.16145C21.3407 8.57443 21.3072 9.21618 21.2721 10.2204L21.2721 10.2211C21.1621 13.5304 21.5963 16.4177 22.5179 18.0699L22.5181 18.0702C23.5634 19.9404 25.712 21.9325 28.1154 23.2934L28.1178 23.2947L28.1178 23.2947C28.3623 23.431 28.6093 23.5587 28.8122 23.6534C28.9131 23.7006 29.0081 23.7419 29.0891 23.7723C29.1293 23.7875 29.1711 23.8018 29.2115 23.8129C29.2444 23.822 29.306 23.8375 29.375 23.8375C29.4985 23.8375 29.6265 23.8004 29.7287 23.7645C29.841 23.725 29.9673 23.6702 30.1011 23.6056C30.3694 23.4761 30.6921 23.2956 31.0364 23.0856C31.7253 22.6655 32.5249 22.1127 33.1885 21.5771C34.4447 20.5681 35.3709 19.5677 36.0362 18.4249C36.7019 17.281 37.0937 16.016 37.31 14.4945C37.4869 13.2721 37.5489 10.6261 37.446 9.07509L37.446 9.07457C37.4439 9.04417 37.4419 9.01423 37.4399 8.98474C37.416 8.62978 37.3965 8.34025 37.3649 8.11387C37.3313 7.87285 37.2769 7.63865 37.1409 7.44661C36.9933 7.23808 36.7901 7.13355 36.5803 7.06617C36.403 7.00922 36.1791 6.96674 35.9289 6.91925C35.9023 6.91422 35.8755 6.90913 35.8484 6.90396L35.7735 7.29664L35.8493 6.90413C33.8442 6.51677 32.0105 5.71273 30.4363 4.52449C30.2353 4.37268 30.0448 4.24508 29.8833 4.15324C29.8029 4.10755 29.7236 4.0672 29.6496 4.0371C29.5875 4.01182 29.4855 3.975 29.375 3.975C29.2642 3.975 29.1631 4.0106 29.098 4.03717C29.0234 4.06766 28.9448 4.10834 28.8664 4.1536C28.709 4.24452 28.5251 4.36988 28.3303 4.51594ZM30.1953 4.84375C31.8203 6.07031 33.711 6.89844 35.7735 7.29687C36.3072 7.39869 36.5963 7.44687 36.7627 7.61584C36.9667 7.82285 36.9867 8.21117 37.0469 9.10156C37.1485 10.6328 37.086 13.25 36.9141 14.4375C36.4922 17.4062 35.3985 19.2891 32.9375 21.2656C31.6406 22.3125 29.7969 23.4375 29.375 23.4375C29.2656 23.4375 28.7891 23.2109 28.3125 22.9453C25.9531 21.6094 23.8672 19.6641 22.8672 17.875C22 16.3203 21.5625 13.5234 21.6719 10.2344C21.7422 8.21875 21.8047 7.74219 22.0078 7.57812C22.1016 7.50781 22.5781 7.375 23.0703 7.28125C25.0156 6.91406 27.0313 6.01562 28.5703 4.83594C28.9453 4.55469 29.25 4.375 29.375 4.375C29.4922 4.375 29.8125 4.55469 30.1953 4.84375ZM29.8258 6.6093L29.8279 6.61076C31.198 7.55368 32.9616 8.33062 34.6625 8.74004C34.926 8.80593 35.1692 8.86917 35.3481 8.91932C35.3681 8.92494 35.3871 8.93033 35.405 8.93548C35.411 9.05995 35.4156 9.22737 35.4188 9.42822C35.4259 9.87756 35.4257 10.4783 35.4194 11.1014C35.4066 12.3617 35.3691 13.6613 35.3226 14.0075C35.1001 15.5638 34.8223 16.4355 34.3289 17.263C33.4128 18.782 31.714 20.3321 29.6228 21.5193L29.6225 21.5195L29.3726 21.6617L28.7534 21.2902C28.7533 21.2902 28.7532 21.2901 28.7532 21.2901C25.9847 19.6213 24.2342 17.5931 23.7473 15.6603C23.4074 14.3083 23.3297 13.5022 23.3297 11.0391C23.3297 10.3927 23.3356 9.80172 23.3443 9.37039C23.3478 9.19501 23.3518 9.04745 23.356 8.93394C23.3667 8.93096 23.3778 8.9279 23.3892 8.92477C23.5617 8.87739 23.7958 8.81786 24.0488 8.75559L24.0489 8.75556C25.7709 8.33105 27.3442 7.64928 28.7739 6.70961C28.9872 6.57001 29.1852 6.44311 29.3327 6.35178C29.3521 6.33975 29.3705 6.32847 29.3877 6.31796C29.3893 6.31897 29.3909 6.31998 29.3925 6.321C29.508 6.39367 29.6629 6.49561 29.8258 6.6093ZM23.3594 15.7578C23.8828 17.8359 25.7344 19.9375 28.5469 21.6328L29.3672 22.125L29.8203 21.8672C31.9531 20.6562 33.711 19.0625 34.6719 17.4687C35.2031 16.5781 35.4922 15.6484 35.7188 14.0625C35.8203 13.3125 35.8672 8.73437 35.7735 8.64062C35.75 8.60937 35.2891 8.48437 34.7578 8.35156C33.1016 7.95312 31.3828 7.19531 30.0547 6.28125C29.7188 6.04687 29.4141 5.85937 29.3906 5.85937C29.3594 5.85937 28.9844 6.09375 28.5547 6.375C27.1641 7.28906 25.6328 7.95312 23.9531 8.36719C23.4453 8.49219 23 8.60937 22.9766 8.64062C22.9531 8.66406 22.9297 9.74219 22.9297 11.0391C22.9297 13.5156 23.0078 14.3594 23.3594 15.7578Z" fill="#10BAB2"/>
<path d="M32.7422 11.1174L32.7431 11.1171C32.9996 11.0223 33.266 11.0934 33.4595 11.2416C33.6534 11.3902 33.7937 11.63 33.7937 11.9062C33.7937 12.0104 33.7596 12.1063 33.6897 12.2173C33.6228 12.3236 33.5147 12.4566 33.3494 12.6391C33.017 13.0061 32.4209 13.608 31.3677 14.6573L31.3677 14.6573C30.361 15.6601 29.7578 16.2536 29.3817 16.5961C29.1944 16.7667 29.0566 16.8814 28.9493 16.9542C28.8451 17.0248 28.7431 17.075 28.6328 17.075C28.5359 17.075 28.446 17.0404 28.3538 16.9851C28.2629 16.9305 28.1552 16.8467 28.0189 16.7279C27.7454 16.4893 27.3265 16.082 26.648 15.4075L26.6476 15.407C26.2009 14.9603 25.7888 14.5326 25.4848 14.203C25.333 14.0384 25.2068 13.8969 25.1164 13.789C25.0714 13.7354 25.0333 13.6878 25.0049 13.6487C24.9908 13.6294 24.9772 13.6095 24.9659 13.5905C24.9579 13.5771 24.9403 13.5469 24.9311 13.5099C24.8873 13.3393 24.9396 13.1363 25.007 12.9864C25.0431 12.9061 25.0894 12.8274 25.1436 12.761C25.1956 12.6973 25.2668 12.6302 25.3568 12.595L25.3567 12.5948L25.3664 12.5915C25.4639 12.559 25.6512 12.5344 25.7968 12.5344C25.9756 12.5344 26.1316 12.6257 26.3576 12.8142C26.5889 13.0071 26.9351 13.3398 27.4998 13.8967L27.4999 13.8968L28.6791 15.062L30.546 13.2023C30.5461 13.2023 30.5461 13.2023 30.5461 13.2022C31.0978 12.6506 31.6144 12.1457 32.0013 11.7754C32.1947 11.5904 32.3563 11.4384 32.474 11.3307C32.5326 11.277 32.5815 11.2333 32.6185 11.2018C32.6368 11.1861 32.6538 11.1721 32.6686 11.1607C32.6758 11.1552 32.6843 11.1489 32.6933 11.1429L32.6935 11.1428C32.6992 11.139 32.7178 11.1266 32.7422 11.1174Z" fill="#10BAB2" stroke="#10BAB2" stroke-width="0.4"/>
<path d="M5.20304 11.375C4.93742 11.4609 4.70304 11.6172 4.40617 11.9062C3.70304 12.6172 3.74992 11.8359 3.74992 22.5C3.74992 33.1641 3.70304 32.3828 4.40617 33.0938C5.12492 33.8047 3.8671 33.75 18.7499 33.75C33.6327 33.75 32.3749 33.8047 33.0937 33.0938C33.7655 32.4219 33.7499 32.5234 33.7499 27.6797V23.5078L33.5546 23.3203C33.328 23.0859 32.9765 23.0703 32.7265 23.2734L32.539 23.4219L32.4999 27.6875L32.4609 31.9531L32.203 32.2031L31.953 32.4609H18.7499H5.54679L5.29679 32.2031L5.03898 31.9531V22.5V13.0469L5.29679 12.7969L5.54679 12.5391L12.7812 12.5L20.0155 12.4609L20.164 12.2734C20.3671 12.0234 20.3515 11.6719 20.1171 11.4453L19.9296 11.25L12.7577 11.2578C6.6171 11.2578 5.53117 11.2812 5.20304 11.375Z" fill="#10BAB2"/>
<path fill-rule="evenodd" clip-rule="evenodd" d="M5.08003 10.9944C4.7345 11.1062 4.44858 11.3068 4.12724 11.6197L4.12183 11.6249C4.08366 11.6635 4.04757 11.6976 4.00928 11.7336L4.00334 11.7392C3.96821 11.7721 3.92826 11.8096 3.89022 11.8485C3.80413 11.9366 3.71901 12.0403 3.64773 12.1862C3.5148 12.4582 3.45331 12.8332 3.41526 13.4459C3.34781 14.5319 3.34844 16.5708 3.34967 20.6173C3.34984 21.2019 3.35004 21.8284 3.35004 22.5C3.35004 23.1716 3.34984 23.7981 3.34967 24.3827C3.34844 28.4292 3.34781 30.4681 3.41526 31.5541C3.45331 32.1668 3.5148 32.5418 3.64773 32.8138C3.71901 32.9597 3.80413 33.0634 3.89022 33.1515C3.92827 33.1904 3.96823 33.2279 4.00336 33.2609C4.00535 33.2627 4.00732 33.2646 4.00928 33.2664C4.04757 33.3024 4.08371 33.3364 4.12188 33.375L4.12498 33.3782C4.15994 33.4127 4.18993 33.4459 4.2216 33.482C4.22689 33.4881 4.23254 33.4946 4.23847 33.5014C4.26487 33.5316 4.297 33.5685 4.32908 33.6021C4.41977 33.6972 4.52972 33.7889 4.69681 33.8624C4.99137 33.9919 5.44148 34.051 6.24827 34.0881C7.65898 34.1529 10.3696 34.1521 15.7836 34.1506C16.6938 34.1503 17.6804 34.15 18.75 34.15C19.8197 34.15 20.8063 34.1503 21.7165 34.1506C27.1305 34.1521 29.8411 34.1529 31.2518 34.0881C32.0586 34.051 32.5087 33.9919 32.8033 33.8624C32.9703 33.7889 33.0803 33.6972 33.171 33.6021C33.2031 33.5685 33.2352 33.5316 33.2616 33.5013C33.2675 33.4945 33.2732 33.4881 33.2785 33.482C33.3101 33.4459 33.3401 33.4127 33.3751 33.3781L33.3766 33.3766C33.39 33.3632 33.4036 33.3497 33.4172 33.3362C33.5602 33.194 33.7117 33.0433 33.8259 32.8459C33.957 32.6195 34.0277 32.3579 34.071 31.9991C34.1504 31.3404 34.1503 30.2095 34.1501 28.048C34.15 27.9284 34.15 27.8057 34.15 27.6797V23.3373L33.8365 23.0363C33.4625 22.6555 32.8815 22.634 32.4766 22.9612L32.1409 23.227L32.0625 31.7823L31.9159 31.9245L31.7839 32.0609H5.71621L5.5755 31.9158L5.4391 31.7838V13.2162L5.58421 13.0755L5.7171 12.9381L20.21 12.8599L20.4764 12.5234C20.8035 12.1185 20.782 11.5374 20.4012 11.1635L20.1 10.8498L12.7578 10.8578C12.7577 10.8578 12.758 10.8578 12.7578 10.8578C9.68858 10.8578 7.87821 10.8637 6.79431 10.8813C6.25298 10.8901 5.88692 10.9019 5.63331 10.9179C5.386 10.9335 5.2197 10.9543 5.09327 10.9904L5.08003 10.9944ZM20.1172 11.4453C20.3516 11.6719 20.3672 12.0234 20.1641 12.2734L20.0157 12.4609L5.54691 12.5391L5.29691 12.7969L5.0391 13.0469V31.9531L5.29691 32.2031L5.54691 32.4609H31.9532L32.2032 32.2031L32.461 31.9531L32.5391 23.4219L32.7266 23.2734C32.9766 23.0703 33.3282 23.0859 33.5547 23.3203L33.75 23.5078V27.6797C33.75 31.5404 33.76 32.2594 33.4238 32.7324C33.3382 32.8529 33.2301 32.9574 33.0938 33.0938C32.9905 33.1959 32.928 33.2823 32.8526 33.3552C32.4032 33.7901 31.4942 33.75 18.75 33.75C6.00584 33.75 5.09683 33.7901 4.64745 33.3552C4.57204 33.2823 4.50957 33.1959 4.40629 33.0938C4.29574 32.982 4.20374 32.9071 4.12717 32.8188C3.71674 32.3456 3.75004 31.4875 3.75004 22.5C3.75004 13.5125 3.71674 12.6544 4.12717 12.1812C4.20374 12.0929 4.29574 12.018 4.40629 11.9062C4.70316 11.6172 4.93754 11.4609 5.20316 11.375C5.53129 11.2812 6.61722 11.2578 12.7578 11.2578L19.9297 11.25L20.1172 11.4453Z" fill="#10BAB2"/>
<path d="M18.5729 30.0667C18.9018 29.9689 19.2264 29.752 19.4893 29.4891C19.7521 29.2263 19.9689 28.9019 20.0667 28.5732C20.2099 28.0975 20.2341 27.5038 20.1647 26.9094C20.0951 26.3134 19.9296 25.7014 19.6802 25.1863L19.6801 25.1861C19.1363 24.0659 18.1388 23.1224 17.0339 22.6965C17.0336 22.6964 17.0333 22.6963 17.033 22.6962L16.838 22.6188L17.0057 22.4168L17.0057 22.4168L17.0072 22.4149C18.3972 20.6979 18.3325 18.3753 16.8266 16.7547C15.8237 15.6698 14.1227 15.1702 12.7063 15.549L12.7054 15.5492C11.1755 15.9665 9.97128 17.1935 9.61027 18.7196C9.29843 20.0328 9.61245 21.3302 10.501 22.4149L10.6707 22.627L10.4867 22.6948C10.4866 22.6948 10.4864 22.6949 10.4862 22.695C10.1498 22.817 9.7581 23.0451 9.3992 23.306C9.03968 23.5674 8.69898 23.872 8.46971 24.1555L8.46914 24.1562C7.97577 24.7719 7.62017 25.5458 7.43547 26.326C7.25112 27.1047 7.2334 27.9054 7.43357 28.5729C7.53139 28.9017 7.74825 29.2262 8.01113 29.4891C8.27402 29.752 8.59853 29.9688 8.92735 30.0666M18.5729 30.0667C18.5141 30.0843 18.4285 30.0966 18.3341 30.1068C18.2346 30.1175 18.1099 30.1273 17.9647 30.1361C17.6739 30.1539 17.2941 30.1687 16.8562 30.1804C15.9798 30.2039 14.8646 30.2156 13.7502 30.2156C12.6358 30.2156 11.5206 30.2039 10.6443 30.1804C10.2063 30.1687 9.8265 30.1539 9.53573 30.1361C9.39048 30.1273 9.26577 30.1175 9.16632 30.1068C9.0718 30.0966 8.98611 30.0842 8.92735 30.0666M18.5729 30.0667C18.5729 30.0667 18.5728 30.0667 18.5728 30.0667L18.5158 29.875L18.5733 30.0666C18.5732 30.0666 18.573 30.0666 18.5729 30.0667ZM8.92735 30.0666C8.92727 30.0666 8.92719 30.0666 8.92712 30.0666L8.98459 29.875L8.92759 30.0667C8.92751 30.0667 8.92743 30.0667 8.92735 30.0666ZM14.8079 17.3226L14.8081 17.3227C15.3653 17.576 15.8619 18.072 16.1235 18.6311C16.2145 18.8282 16.2614 18.9555 16.2881 19.096C16.3155 19.24 16.3236 19.4071 16.3236 19.6875C16.3236 19.9678 16.3155 20.135 16.2881 20.279C16.2614 20.4195 16.2145 20.5468 16.1235 20.7439C15.8621 21.3026 15.3654 21.7993 14.7992 22.0606L14.7992 22.0606L14.7979 22.0612C14.6048 22.1521 14.4796 22.1988 14.3405 22.2254C14.1977 22.2528 14.0307 22.2609 13.7502 22.2609C13.4698 22.2609 13.3028 22.2528 13.1599 22.2254C13.0208 22.1988 12.8956 22.1521 12.7026 22.0612L12.7012 22.0606C12.135 21.7993 11.6383 21.3026 11.3769 20.7439C11.286 20.5468 11.2391 20.4195 11.2123 20.279C11.1849 20.135 11.1768 19.9678 11.1768 19.6875C11.1768 19.4071 11.1849 19.2401 11.2123 19.0972C11.2389 18.9581 11.2856 18.8329 11.3765 18.6398L11.3765 18.6398C12.0041 17.3042 13.5063 16.7296 14.8079 17.3226ZM18.5349 27.6602L18.5348 27.6621C18.5229 27.905 18.5093 28.0159 18.4818 28.0929C18.4584 28.1584 18.421 28.2104 18.3119 28.3195L18.1205 28.5109H9.37993L9.18851 28.3195C9.07944 28.2104 9.04204 28.1584 9.01864 28.0929C8.99113 28.0159 8.97754 27.905 8.9656 27.662L8.96551 27.6604C8.86937 25.9817 9.94031 24.4971 11.5591 24.0606C11.6867 24.0276 11.9809 23.9982 12.3823 23.9779C12.7765 23.958 13.2543 23.9476 13.7338 23.9471C14.2134 23.9466 14.6925 23.9561 15.0895 23.9758C15.4941 23.9958 15.7928 24.0257 15.9257 24.0606C16.539 24.2231 17.0398 24.5096 17.5237 24.9861C18.2318 25.6868 18.5942 26.646 18.5349 27.6602Z" fill="#10BAB2" stroke="#10BAB2" stroke-width="0.4"/>
<path d="M22.8828 26.45H22.7976L22.7385 26.3885L22.5544 26.1967C22.3941 26.0443 22.3 25.8304 22.3 25.625C22.3 25.4196 22.3941 25.2057 22.5544 25.0533L22.7385 24.8615L22.7976 24.8H22.8828H25H27.1172H27.2024L27.2615 24.8615L27.4456 25.0533C27.6059 25.2057 27.7 25.4196 27.7 25.625C27.7 25.8304 27.6059 26.0443 27.4456 26.1967L27.2615 26.3885L27.2024 26.45H27.1172H25H22.8828Z" fill="#10BAB2" stroke="#10BAB2" stroke-width="0.4"/>
<path d="M22.8828 30.2H22.7976L22.7385 30.1385L22.5544 29.9467C22.3941 29.7943 22.3 29.5804 22.3 29.375C22.3 29.1696 22.3941 28.9557 22.5544 28.8033L22.7385 28.6115L22.7976 28.55H22.8828H26.25H29.6172H29.7024L29.7615 28.6115L29.9456 28.8033C30.1059 28.9557 30.2 29.1696 30.2 29.375C30.2 29.5804 30.1059 29.7943 29.9456 29.9467L29.7615 30.1385L29.7024 30.2H29.6172H26.25H22.8828Z" fill="#10BAB2" stroke="#10BAB2" stroke-width="0.4"/>
</svg>
