<svg width="16" height="16" viewBox="0 0 16 16" fill="none" xmlns="http://www.w3.org/2000/svg">
<path d="M1.51834 14.4817C1.9049 14.8688 2.36415 15.1757 2.86969 15.3848C3.37523 15.5939 3.9171 15.701 4.46418 15.7C5.01137 15.701 5.55336 15.5938 6.05903 15.3847C6.5647 15.1757 7.0241 14.8688 7.41084 14.4817L9.76751 12.1242L8.58918 10.9458L6.23251 13.3033C5.7629 13.7708 5.12724 14.0333 4.46459 14.0333C3.80195 14.0333 3.16628 13.7708 2.69668 13.3033C2.22876 12.8339 1.96601 12.1982 1.96601 11.5354C1.96601 10.8726 2.22876 10.2369 2.69668 9.76749L5.05418 7.41083L3.87584 6.23249L1.51834 8.58916C0.738181 9.37121 0.300049 10.4308 0.300049 11.5354C0.300049 12.6401 0.738181 13.6996 1.51834 14.4817ZM14.4817 7.41083C15.2614 6.62856 15.6993 5.56909 15.6993 4.46458C15.6993 3.36006 15.2614 2.30059 14.4817 1.51833C13.6996 0.738166 12.6401 0.300034 11.5354 0.300034C10.4308 0.300034 9.37122 0.738166 8.58918 1.51833L6.23251 3.87583L7.41084 5.05416L9.76751 2.69666C10.2371 2.22915 10.8728 1.96668 11.5354 1.96668C12.1981 1.96668 12.8337 2.22915 13.3033 2.69666C13.7713 3.16605 14.034 3.8018 14.034 4.46458C14.034 5.12735 13.7713 5.7631 13.3033 6.23249L10.9458 8.58916L12.1242 9.76749L14.4817 7.41083Z" fill="#10BAB2"/>
</svg>
