<svg width="40" height="40" viewBox="0 0 40 40" fill="none" xmlns="http://www.w3.org/2000/svg">
<path d="M35 21.3167C34.7378 24.1537 33.6731 26.8573 31.9304 29.1113C30.1877 31.3653 27.8391 33.0763 25.1595 34.0442C22.4798 35.0121 19.5799 35.1969 16.7991 34.5768C14.0183 33.9568 11.4716 32.5576 9.457 30.543C7.44239 28.5283 6.04319 25.9816 5.42314 23.2008C4.80308 20.42 4.98782 17.5201 5.95572 14.8405C6.92363 12.1608 8.63468 9.81228 10.8886 8.06959C13.1426 6.3269 15.8463 5.26218 18.6833 5C17.0223 7.24711 16.223 10.0157 16.4308 12.8024C16.6386 15.589 17.8397 18.2084 19.8156 20.1843C21.7915 22.1602 24.411 23.3613 27.1976 23.5691C29.9842 23.7769 32.7528 22.9776 35 21.3167Z" stroke="#4F5052" stroke-width="4" stroke-linecap="round" stroke-linejoin="round"/>
</svg>
