<svg width="28" height="32" viewBox="0 0 28 32" fill="none" xmlns="http://www.w3.org/2000/svg">
<path d="M12.909 0.672251C12.2559 0.850374 12.2188 0.872643 10.4004 1.9785C9.584 2.47577 8.84924 2.90624 8.7676 2.93592C8.68596 2.96561 7.38713 3.24022 5.88049 3.54452C2.60002 4.20506 2.34768 4.29413 1.44963 5.19959C0.744551 5.9121 0.388301 6.58749 0.217598 7.54491C0.0617385 8.46522 0.113692 15.2191 0.291817 16.414C0.707442 19.2418 1.65744 21.743 3.16408 23.9844C5.49455 27.4504 9.02736 30.0332 12.961 31.1465C13.8738 31.4062 14.2301 31.3988 15.2692 31.0797C20.9395 29.3578 25.3703 24.9047 27.0996 19.1824C27.4485 18.0394 27.7082 16.5996 27.7973 15.2933C27.9235 13.6308 27.9012 8.19803 27.7676 7.47069C27.5004 5.97889 26.3797 4.66522 24.9399 4.16053C24.7024 4.07889 23.3367 3.7746 21.9043 3.49256C20.4793 3.21053 19.1879 2.91366 19.0469 2.84686C18.9059 2.77264 18.1414 2.31991 17.3547 1.83749C16.5235 1.32538 15.6996 0.880062 15.3879 0.768734C14.6531 0.51639 13.6512 0.471859 12.909 0.672251ZM14.9797 3.18085C15.1949 3.29959 15.9817 3.7746 16.7313 4.22733C17.5477 4.7246 18.275 5.11053 18.5571 5.19959C18.8094 5.27381 20.1305 5.56327 21.4961 5.83045C22.8617 6.10506 24.116 6.37967 24.2793 6.45389C24.7024 6.63202 25.0363 6.95116 25.2664 7.38905L25.4668 7.76756V11.4785C25.4668 14.143 25.4371 15.3973 25.3703 15.9316C24.9028 19.4199 23.4035 22.5223 21.0137 24.9121C19.7223 26.2109 18.3789 27.1609 16.7313 27.9551C15.811 28.393 14.2821 28.957 14.0074 28.957C13.9406 28.957 13.6363 28.8754 13.3321 28.7789C7.49846 26.9086 3.44611 22.0473 2.62971 15.9316C2.56291 15.3973 2.53322 14.143 2.53322 11.4785V7.76756L2.73361 7.38905C2.96369 6.95116 3.29768 6.63202 3.72072 6.45389C3.884 6.37967 5.1383 6.10506 6.50393 5.83045C7.86955 5.56327 9.19065 5.27381 9.44299 5.19959C9.73244 5.11053 10.5266 4.68006 11.5285 4.07889C12.4192 3.5371 13.2578 3.05467 13.4063 3.00272C13.8219 2.84686 14.5121 2.92108 14.9797 3.18085Z" fill="#10BAB2"/>
<path d="M18.3492 11.7011C18.1191 11.7828 17.3844 12.473 15.2246 14.6328L12.4043 17.4531L11.5879 16.6293C11.1352 16.1765 10.6824 15.7609 10.5711 15.7015C10.1184 15.464 9.39101 15.6422 9.08672 16.0652C8.8789 16.3547 8.81953 16.9781 8.97539 17.275C9.04219 17.3937 9.70273 18.0988 10.4523 18.841C11.9293 20.3031 12.1 20.4144 12.6937 20.2734C12.9535 20.214 13.4285 19.7687 16.3602 16.8445C18.2602 14.9445 19.7742 13.3785 19.8336 13.2449C20.2344 12.3172 19.2992 11.3523 18.3492 11.7011Z" fill="#10BAB2"/>
</svg>
