<svg width="32" height="21" viewBox="0 0 32 21" fill="none" xmlns="http://www.w3.org/2000/svg">
<path fill-rule="evenodd" clip-rule="evenodd" d="M8.60157 4.74186C9.04483 4.74186 9.46993 4.91519 9.78336 5.22372C10.0968 5.53225 10.2729 5.95071 10.2729 6.38704C10.2729 6.82336 10.0968 7.24182 9.78336 7.55035C9.46993 7.85888 9.04483 8.03221 8.60157 8.03221C8.15832 8.03221 7.73322 7.85888 7.41979 7.55035C7.10636 7.24182 6.93028 6.82336 6.93028 6.38704C6.93028 5.95071 7.10636 5.53225 7.41979 5.22372C7.73322 4.91519 8.15832 4.74186 8.60157 4.74186ZM11.9442 6.38704C11.9442 5.51438 11.592 4.67746 10.9651 4.0604C10.3383 3.44334 9.48808 3.09668 8.60157 3.09668C7.71507 3.09668 6.86487 3.44334 6.23801 4.0604C5.61115 4.67746 5.25899 5.51438 5.25899 6.38704C5.25899 7.25969 5.61115 8.09661 6.23801 8.71367C6.86487 9.33073 7.71507 9.67739 8.60157 9.67739C9.48808 9.67739 10.3383 9.33073 10.9651 8.71367C11.592 8.09661 11.9442 7.25969 11.9442 6.38704ZM13.3698 13.6809C13.6063 13.9154 13.6155 14.0437 13.6155 14.0898V16.2581H3.5877V14.0898C3.5877 14.0437 3.59605 13.9154 3.83338 13.6809C4.08407 13.4317 4.50607 13.1594 5.09186 12.9077C6.27179 12.3985 7.71579 12.1452 8.60157 12.1452C9.48736 12.1452 10.9314 12.4002 12.1113 12.9069C12.6971 13.1586 13.1182 13.4317 13.3698 13.6809ZM8.60157 10.5C10.8327 10.5 15.2867 11.7026 15.2867 14.0898V17.9033H1.91641V14.0898C1.91641 11.7026 6.3704 10.5 8.60157 10.5Z" fill="#10BAB2"/>
<path fill-rule="evenodd" clip-rule="evenodd" d="M15.6826 14.5508C15.6826 14.1907 15.8577 13.8528 16.166 13.6134C16.4588 13.3861 16.9188 13.2098 17.6278 13.2098H27.3536V11.8687H17.6278C16.3917 11.8687 15.3928 12.1953 14.713 12.7223C14.0487 13.2372 13.7375 13.9051 13.7375 14.5508V17.9033H15.6826V14.5508Z" fill="#10BAB2"/>
<path fill-rule="evenodd" clip-rule="evenodd" d="M28.8163 12.6067L25.4033 8.64399L24.5577 9.6258L27.1251 12.6067L24.5577 15.5875L25.4033 16.5693L28.8163 12.6067Z" fill="#10BAB2"/>
</svg>
