<svg width="52" height="30" viewBox="0 0 52 30" fill="none" xmlns="http://www.w3.org/2000/svg">
<path fill-rule="evenodd" clip-rule="evenodd" d="M13.4392 4.12305C14.2644 4.12305 15.0558 4.45321 15.6393 5.04089C16.2228 5.62856 16.5506 6.42562 16.5506 7.25673C16.5506 8.08783 16.2228 8.88489 15.6393 9.47257C15.0558 10.0602 14.2644 10.3904 13.4392 10.3904C12.614 10.3904 11.8226 10.0602 11.2391 9.47257C10.6555 8.88489 10.3277 8.08783 10.3277 7.25673C10.3277 6.42562 10.6555 5.62856 11.2391 5.04089C11.8226 4.45321 12.614 4.12305 13.4392 4.12305ZM19.6621 7.25673C19.6621 5.59452 19.0064 4.0004 17.8394 2.82504C16.6724 1.64969 15.0896 0.98938 13.4392 0.98938C11.7888 0.98938 10.2059 1.64969 9.03893 2.82504C7.87191 4.0004 7.21628 5.59452 7.21628 7.25673C7.21628 8.91893 7.87191 10.5131 9.03893 11.6884C10.2059 12.8638 11.7888 13.5241 13.4392 13.5241C15.0896 13.5241 16.6724 12.8638 17.8394 11.6884C19.0064 10.5131 19.6621 8.91893 19.6621 7.25673ZM22.3161 21.1499C22.7564 21.5964 22.7735 21.8408 22.7735 21.9286V26.0588H4.10484V21.9286C4.10484 21.8408 4.12039 21.5964 4.56222 21.1499C5.02893 20.6751 5.81458 20.1565 6.90514 19.677C9.10182 18.7072 11.7901 18.2246 13.4392 18.2246C15.0882 18.2246 17.7765 18.7103 19.9732 19.6755C21.0638 20.1549 21.8479 20.6751 22.3161 21.1499ZM13.4392 15.0909C17.593 15.0909 25.885 17.3816 25.885 21.9286V29.1924H0.993387V21.9286C0.993387 17.3816 9.2854 15.0909 13.4392 15.0909Z" fill="#10BAB2"/>
<path fill-rule="evenodd" clip-rule="evenodd" d="M26.622 22.8066C26.622 22.1207 26.9479 21.4771 27.5219 21.0211C28.0669 20.5882 28.9233 20.2523 30.2433 20.2523H48.3498V17.6979H30.2433C27.942 17.6979 26.0824 18.3199 24.8168 19.3238C23.5801 20.3046 23.0007 21.5767 23.0007 22.8066V29.1924H26.622V22.8066Z" fill="#10BAB2"/>
<path fill-rule="evenodd" clip-rule="evenodd" d="M51.073 19.1035L44.719 11.5556L43.1447 13.4257L47.9244 19.1035L43.1447 24.7814L44.719 26.6515L51.073 19.1035Z" fill="#10BAB2"/>
</svg>
