<svg width="24" height="24" viewBox="0 0 24 24" fill="none" xmlns="http://www.w3.org/2000/svg">
<path d="M20.2498 12.5696V11.4221L21.6898 10.1621C21.9552 9.92811 22.1294 9.60784 22.1815 9.25787C22.2337 8.9079 22.1605 8.55076 21.9748 8.24957L20.2048 5.24957C20.0732 5.02177 19.8841 4.83256 19.6564 4.70092C19.4287 4.56928 19.1703 4.49984 18.9073 4.49957C18.7442 4.49832 18.5821 4.52366 18.4273 4.57457L16.6048 5.18957C16.2901 4.98048 15.9619 4.79256 15.6223 4.62707L15.2398 2.73707C15.1712 2.39178 14.9833 2.0816 14.7091 1.86085C14.4349 1.6401 14.0917 1.52283 13.7398 1.52957H10.2298C9.87779 1.52283 9.53465 1.6401 9.26042 1.86085C8.98619 2.0816 8.79835 2.39178 8.72976 2.73707L8.34726 4.62707C8.00521 4.79252 7.67449 4.98043 7.35726 5.18957L5.57226 4.54457C5.41574 4.50379 5.25364 4.48859 5.09226 4.49957C4.82922 4.49984 4.57087 4.56928 4.34313 4.70092C4.1154 4.83256 3.92628 5.02177 3.79476 5.24957L2.02476 8.24957C1.8497 8.55031 1.78465 8.90257 1.84075 9.246C1.89685 9.58943 2.0706 9.90267 2.33226 10.1321L3.74976 11.4296V12.5771L2.33226 13.8371C2.06321 14.0681 1.8847 14.3869 1.82841 14.737C1.77212 15.0871 1.84168 15.4459 2.02476 15.7496L3.79476 18.7496C3.92628 18.9774 4.1154 19.1666 4.34313 19.2982C4.57087 19.4299 4.82922 19.4993 5.09226 19.4996C5.25527 19.5008 5.4174 19.4755 5.57226 19.4246L7.39476 18.8096C7.70942 19.0187 8.03764 19.2066 8.37726 19.3721L8.75976 21.2621C8.82835 21.6074 9.01619 21.9175 9.29042 22.1383C9.56465 22.3591 9.90779 22.4763 10.2598 22.4696H13.7998C14.1517 22.4763 14.4949 22.3591 14.7691 22.1383C15.0433 21.9175 15.2312 21.6074 15.2998 21.2621L15.6823 19.3721C16.0243 19.2066 16.355 19.0187 16.6723 18.8096L18.4873 19.4246C18.6421 19.4755 18.8043 19.5008 18.9673 19.4996C19.2303 19.4993 19.4887 19.4299 19.7164 19.2982C19.9441 19.1666 20.1332 18.9774 20.2648 18.7496L21.9748 15.7496C22.1498 15.4488 22.2149 15.0966 22.1588 14.7532C22.1027 14.4097 21.9289 14.0965 21.6673 13.8671L20.2498 12.5696ZM18.9073 17.9996L16.3348 17.1296C15.7326 17.6397 15.0443 18.0384 14.3023 18.3071L13.7698 20.9996H10.2298L9.69726 18.3371C8.96108 18.0608 8.27655 17.6627 7.67226 17.1596L5.09226 17.9996L3.32226 14.9996L5.36226 13.1996C5.22359 12.4232 5.22359 11.6284 5.36226 10.8521L3.32226 8.99957L5.09226 5.99957L7.66476 6.86957C8.26696 6.35949 8.95521 5.96076 9.69726 5.69207L10.2298 2.99957H13.7698L14.3023 5.66207C15.0384 5.93839 15.723 6.33643 16.3273 6.83957L18.9073 5.99957L20.6773 8.99957L18.6373 10.7996C18.7759 11.5759 18.7759 12.3707 18.6373 13.1471L20.6773 14.9996L18.9073 17.9996Z" fill="#10BAB2"/>
<path d="M12 16.5C11.11 16.5 10.24 16.2361 9.49994 15.7416C8.75991 15.2471 8.18314 14.5443 7.84254 13.7221C7.50195 12.8998 7.41283 11.995 7.58647 11.1221C7.7601 10.2492 8.18869 9.44736 8.81802 8.81802C9.44736 8.18868 10.2492 7.7601 11.1221 7.58647C11.995 7.41283 12.8998 7.50195 13.7221 7.84254C14.5443 8.18314 15.2471 8.75991 15.7416 9.49994C16.2361 10.24 16.5 11.11 16.5 12C16.506 12.5926 16.3937 13.1805 16.1697 13.7292C15.9457 14.2779 15.6145 14.7763 15.1954 15.1954C14.7763 15.6145 14.2779 15.9457 13.7292 16.1697C13.1805 16.3937 12.5926 16.506 12 16.5ZM12 9C11.6035 8.99077 11.2093 9.06205 10.8411 9.20954C10.473 9.35704 10.1386 9.57768 9.85812 9.85812C9.57768 10.1386 9.35704 10.473 9.20954 10.8411C9.06205 11.2093 8.99077 11.6035 9 12C8.99077 12.3965 9.06205 12.7907 9.20954 13.1589C9.35704 13.527 9.57768 13.8615 9.85812 14.1419C10.1386 14.4223 10.473 14.643 10.8411 14.7905C11.2093 14.938 11.6035 15.0092 12 15C12.3965 15.0092 12.7907 14.938 13.1589 14.7905C13.527 14.643 13.8615 14.4223 14.1419 14.1419C14.4223 13.8615 14.643 13.527 14.7905 13.1589C14.938 12.7907 15.0092 12.3965 15 12C15.0092 11.6035 14.938 11.2093 14.7905 10.8411C14.643 10.473 14.4223 10.1386 14.1419 9.85812C13.8615 9.57768 13.527 9.35704 13.1589 9.20954C12.7907 9.06205 12.3965 8.99077 12 9Z" fill="#10BAB2"/>
</svg>
