<svg width="26" height="22" viewBox="0 0 26 22" fill="none" xmlns="http://www.w3.org/2000/svg">
<path d="M2.92189 0.603125C2.7672 0.682812 2.68283 0.767187 2.60314 0.921875C2.54689 1.03906 2.15783 2.49219 1.74533 4.15625C1.01408 7.09531 0.990638 7.18906 1.01876 7.53594C1.05626 8.01406 1.20626 8.55781 1.40314 8.95625C1.62345 9.39687 1.70783 9.50937 2.13439 9.95L2.50001 10.325L2.50939 15.6734C2.52345 20.9937 2.52345 21.0266 2.62189 21.1531C2.67345 21.2234 2.77658 21.3266 2.84689 21.3781C2.97345 21.4766 3.00626 21.4766 7.00001 21.4766C10.9938 21.4766 11.0266 21.4766 11.1531 21.3781C11.2235 21.3266 11.3266 21.2234 11.3781 21.1531C11.4766 21.0266 11.4766 20.9703 11.4906 18.2609L11.5 15.5H13H14.5L14.5094 18.2609C14.5235 20.9703 14.5235 21.0266 14.6219 21.1531C14.6735 21.2234 14.7766 21.3266 14.8469 21.3781C14.9735 21.4766 15.0063 21.4766 19 21.4766C22.9938 21.4766 23.0266 21.4766 23.1531 21.3781C23.2235 21.3266 23.3266 21.2234 23.3781 21.1531C23.4766 21.0266 23.4766 20.9937 23.4906 15.6734L23.5 10.325L23.8656 9.95C24.2922 9.50937 24.3766 9.39687 24.5969 8.95625C24.7938 8.55781 24.9438 8.01406 24.9813 7.53594C25.0094 7.18906 24.986 7.09531 24.2547 4.15625C23.8422 2.49219 23.4531 1.03906 23.3969 0.921875C23.3172 0.767187 23.2328 0.682812 23.0781 0.603125L22.8719 0.5H13H3.12814L2.92189 0.603125ZM22.8344 4.68594C23.4766 7.25937 23.5047 7.38594 23.4625 7.62969C23.2797 8.61406 22.6375 9.29375 21.7328 9.4625C21.1328 9.575 20.4672 9.33125 20.0125 8.83906C19.6047 8.40312 19.4641 8.06562 19.3797 7.325C19.3141 6.75781 19.0938 6.52344 18.625 6.52344C18.1563 6.52344 17.936 6.75781 17.8703 7.325C17.786 8.06562 17.6453 8.40312 17.2375 8.83906C16.7828 9.33125 16.1172 9.575 15.5219 9.4625C15.0766 9.37812 14.6922 9.16719 14.3875 8.83906C13.9797 8.40312 13.8391 8.06562 13.7547 7.325C13.6891 6.75781 13.4688 6.52344 13 6.52344C12.5313 6.52344 12.311 6.75781 12.2453 7.325C12.161 8.06562 12.0203 8.40312 11.6125 8.83906C11.3078 9.16719 10.9235 9.37812 10.4781 9.4625C9.88283 9.575 9.2172 9.33125 8.76251 8.83906C8.3547 8.40312 8.21408 8.06562 8.1297 7.325C8.06408 6.75781 7.84376 6.52344 7.37501 6.52344C6.90626 6.52344 6.68595 6.75781 6.62033 7.325C6.53595 8.06562 6.39533 8.40312 5.98751 8.83906C5.53283 9.33125 4.8672 9.575 4.27189 9.4625C3.36251 9.29375 2.72033 8.61406 2.53751 7.62969C2.49533 7.38594 2.52345 7.25937 3.16564 4.68594L3.83595 2H13H22.1641L22.8344 4.68594ZM7.69845 9.9125C9.1047 11.3562 11.275 11.3562 12.686 9.90312L13 9.57969L13.3188 9.90312C14.7297 11.3562 16.8953 11.3562 18.311 9.90312L18.625 9.57969L18.9438 9.90781C19.6703 10.6578 20.6735 11.0562 21.6344 10.9859L22 10.9578V15.4766V20H19H16L15.9906 17.2391C15.9766 14.5297 15.9766 14.4734 15.8781 14.3469C15.8266 14.2766 15.7235 14.1734 15.6531 14.1219C15.5266 14.0234 15.475 14.0234 13 14.0234C10.525 14.0234 10.4735 14.0234 10.3469 14.1219C10.2766 14.1734 10.1735 14.2766 10.1219 14.3469C10.0235 14.4734 10.0235 14.5297 10.0094 17.2391L10 20H7.00001H4.00001V15.4766V10.9578L4.36564 10.9859C5.32189 11.0562 6.33908 10.6531 7.04689 9.9125C7.21564 9.73906 7.36095 9.59375 7.37033 9.59375C7.3797 9.59375 7.5297 9.73906 7.69845 9.9125Z" fill="#10BAB2"/>
<path fill-rule="evenodd" clip-rule="evenodd" d="M2.86819 0.495909L2.8669 0.496557C2.78192 0.540342 2.71102 0.588123 2.64951 0.649637C2.58799 0.711151 2.54021 0.782055 2.49643 0.867037L2.49488 0.870041C2.48324 0.894291 2.46843 0.939182 2.45241 0.99078C2.43518 1.0463 2.41346 1.12021 2.38793 1.20996C2.33683 1.38961 2.26984 1.63497 2.19183 1.92825C2.03578 2.51491 1.83523 3.29483 1.62885 4.12739M1.62885 4.12739L1.62539 4.14127C1.26235 5.60044 1.07391 6.35779 0.979952 6.79295C0.884764 7.2338 0.88379 7.35653 0.899113 7.54559C0.937789 8.03842 1.09169 8.59701 1.29553 9.00953C1.40637 9.2312 1.4865 9.37756 1.5948 9.52445C1.70214 9.67003 1.83519 9.81361 2.04814 10.0336L2.38007 10.374L2.38941 15.6916C2.3964 18.3392 2.39993 19.6746 2.41399 20.3635C2.421 20.7071 2.43069 20.896 2.44581 21.0079C2.45346 21.0645 2.46329 21.108 2.47807 21.1446C2.49358 21.183 2.51228 21.2078 2.52614 21.2256C2.58486 21.3052 2.69487 21.4152 2.77447 21.474C2.79141 21.4871 2.81475 21.5048 2.84835 21.5201C2.88187 21.5352 2.92012 21.5456 2.96788 21.5535C3.06072 21.569 3.20961 21.5782 3.4704 21.5843C3.99506 21.5967 5.00256 21.5967 6.9952 21.5967H7.00477C8.99741 21.5967 10.0049 21.5967 10.5296 21.5843C10.7904 21.5782 10.9392 21.569 11.0321 21.5535C11.0798 21.5456 11.1181 21.5352 11.1516 21.5201C11.1852 21.5048 11.2086 21.4871 11.2255 21.474C11.3051 21.4152 11.4151 21.3052 11.4738 21.2256C11.4873 21.2083 11.5035 21.1864 11.518 21.1573C11.5329 21.1274 11.5439 21.0942 11.5526 21.0542C11.5691 20.9774 11.5789 20.8644 11.5859 20.6803C11.6 20.3119 11.6035 19.6252 11.6104 18.2918L11.6106 18.2617L11.6196 15.6201H14.3804L14.3894 18.2615L14.3895 18.2918C14.3964 19.6252 14.4 20.3119 14.4141 20.6803C14.4211 20.8644 14.4309 20.9774 14.4474 21.0542C14.456 21.0942 14.467 21.1274 14.482 21.1573C14.4965 21.1864 14.5127 21.2083 14.5261 21.2256C14.5848 21.3052 14.6949 21.4152 14.7745 21.474C14.7914 21.4871 14.8148 21.5048 14.8484 21.5201C14.8819 21.5352 14.9201 21.5456 14.9679 21.5535C15.0607 21.569 15.2096 21.5782 15.4704 21.5843C15.9951 21.5967 17.0026 21.5967 18.9952 21.5967H19.0048C20.9974 21.5967 22.0049 21.5967 22.5296 21.5843C22.7904 21.5782 22.9393 21.569 23.0321 21.5535C23.0798 21.5456 23.1181 21.5352 23.1516 21.5201C23.1852 21.5048 23.2086 21.4871 23.2255 21.4739C23.3051 21.4152 23.4151 21.3052 23.4738 21.2256C23.4877 21.2078 23.5064 21.183 23.5219 21.1446C23.5367 21.108 23.5465 21.0645 23.5542 21.0079C23.5693 20.896 23.579 20.7071 23.586 20.3635C23.6 19.6745 23.6036 18.3388 23.6106 15.6905L23.6106 15.6739L23.6199 10.374L23.9515 10.0339C24.1645 9.81391 24.2978 9.67003 24.4052 9.52445C24.5135 9.37756 24.5934 9.23171 24.7042 9.01003C24.908 8.59751 25.0622 8.0384 25.1009 7.54556C25.1162 7.35652 25.1152 7.23378 25.02 6.79295C24.9261 6.35785 24.7377 5.60066 24.3747 4.14192L24.3711 4.12749C24.1648 3.2949 23.9642 2.51493 23.8081 1.92825C23.7301 1.63497 23.6631 1.38961 23.612 1.20996C23.5865 1.12021 23.5648 1.0463 23.5476 0.99078C23.5315 0.939182 23.5167 0.894312 23.505 0.870062L23.5036 0.867014C23.4598 0.782032 23.412 0.711151 23.3505 0.649637C23.2889 0.588123 23.218 0.540342 23.1331 0.496563L23.1318 0.495903L22.9002 0.380116H3.09978L2.86819 0.495909M24.2547 4.15637L24.2568 4.16499C24.986 7.09561 25.0093 7.18952 24.9812 7.53605C24.9437 8.01418 24.7937 8.55793 24.5969 8.95637C24.3765 9.39699 24.2922 9.50949 23.8656 9.95012L23.5 10.3251L23.4906 15.6876C23.4765 20.9939 23.4765 21.0268 23.3781 21.1532C23.3265 21.2236 23.2234 21.3267 23.1531 21.3782C23.0265 21.4767 22.9937 21.4767 19 21.4767C15.0062 21.4767 14.9734 21.4767 14.8469 21.3782C14.7765 21.3267 14.6734 21.2236 14.6219 21.1532C14.5237 21.0271 14.5234 20.9708 14.5095 18.2852L14.5094 18.2611L14.5 15.5001H11.5L11.4906 18.2611L11.4905 18.2852C11.4765 20.9708 11.4763 21.0271 11.3781 21.1532C11.3265 21.2236 11.2234 21.3267 11.1531 21.3782C11.0265 21.4767 10.9937 21.4767 6.99998 21.4767C3.00623 21.4767 2.97342 21.4767 2.84686 21.3782C2.77655 21.3267 2.67342 21.2236 2.62186 21.1532C2.52351 21.0268 2.52342 20.9939 2.5094 15.6876L2.49998 10.3251L2.13436 9.95012C1.7078 9.50949 1.62342 9.39699 1.40311 8.95637C1.20623 8.55793 1.05623 8.01418 1.01873 7.53605C0.990636 7.18952 1.014 7.09561 1.74315 4.16499L1.7453 4.15637C2.1578 2.4923 2.54686 1.03918 2.60311 0.921991C2.6828 0.767303 2.76717 0.682928 2.92186 0.603241L3.12811 0.500116H22.8719L23.0781 0.603241C23.2328 0.682928 23.3172 0.767303 23.3969 0.921991C23.4531 1.03918 23.8422 2.4923 24.2547 4.15637ZM3.16561 4.68605C2.52342 7.25949 2.4953 7.38605 2.53748 7.6298C2.7203 8.61418 3.36248 9.29387 4.27186 9.46262C4.86717 9.57512 5.5328 9.33137 5.98748 8.83918C6.3953 8.40324 6.53592 8.06574 6.6203 7.32512C6.68592 6.75793 6.90623 6.52355 7.37498 6.52355C7.84373 6.52355 8.06405 6.75793 8.12967 7.32512C8.21405 8.06574 8.35467 8.40324 8.76248 8.83918C9.21717 9.33137 9.8828 9.57512 10.4781 9.46262C10.9234 9.37824 11.3078 9.1673 11.6125 8.83918C12.0203 8.40324 12.1609 8.06574 12.2453 7.32512C12.3109 6.75793 12.5312 6.52355 13 6.52355C13.4687 6.52355 13.689 6.75793 13.7547 7.32512C13.839 8.06574 13.9797 8.40324 14.3875 8.83918C14.6922 9.1673 15.0765 9.37824 15.5219 9.46262C16.1172 9.57512 16.7828 9.33137 17.2375 8.83918C17.6453 8.40324 17.7859 8.06574 17.8703 7.32512C17.9359 6.75793 18.1562 6.52355 18.625 6.52355C19.0937 6.52355 19.314 6.75793 19.3797 7.32512C19.464 8.06574 19.6047 8.40324 20.0125 8.83918C20.4672 9.33137 21.1328 9.57512 21.7328 9.46262C22.6375 9.29387 23.2797 8.61418 23.4625 7.6298C23.5047 7.38605 23.4765 7.25949 22.8344 4.68605L22.164 2.00012H3.83592L3.16561 4.68605ZM3.92965 2.12012L3.28204 4.71511C2.96063 6.00307 2.79374 6.67541 2.71225 7.05664C2.63134 7.43521 2.63858 7.51014 2.6556 7.60862C2.83053 8.5492 3.43863 9.18595 4.29375 9.34463C4.84316 9.44845 5.46887 9.22372 5.89934 8.75775L5.89985 8.7572C6.09739 8.54604 6.22492 8.36449 6.31445 8.15015C6.40474 7.93402 6.45938 7.67746 6.50107 7.31153C6.535 7.01823 6.61101 6.78673 6.75908 6.6294C6.91125 6.46772 7.12058 6.40355 7.37498 6.40355C7.62939 6.40355 7.83872 6.46772 7.99088 6.6294C8.13896 6.78673 8.21494 7.01802 8.24888 7.31132C8.29057 7.67725 8.34523 7.93402 8.43552 8.15015C8.52505 8.36449 8.65258 8.54604 8.85012 8.7572L8.85063 8.75775C9.28108 9.2237 9.90638 9.44851 10.4558 9.34471C10.8763 9.26503 11.2376 9.06657 11.5245 8.75752C11.7221 8.54636 11.8499 8.36449 11.9395 8.15015C12.0297 7.93402 12.0844 7.67746 12.1261 7.31153C12.16 7.01823 12.236 6.78673 12.3841 6.6294C12.5363 6.46772 12.7456 6.40355 13 6.40355C13.2544 6.40355 13.4637 6.46772 13.6159 6.6294C13.764 6.78673 13.8399 7.01802 13.8739 7.31132C13.9156 7.67725 13.9702 7.93402 14.0605 8.15015C14.15 8.36449 14.2776 8.54604 14.4751 8.7572C14.7621 9.06624 15.1236 9.26503 15.5442 9.34471C16.0936 9.44851 16.7189 9.2237 17.1493 8.75775L17.1499 8.7572C17.3474 8.54604 17.4749 8.36449 17.5645 8.15015C17.6547 7.93402 17.7094 7.67746 17.7511 7.31153C17.785 7.01823 17.861 6.78673 18.0091 6.6294C18.1613 6.46772 18.3706 6.40355 18.625 6.40355C18.8794 6.40355 19.0887 6.46772 19.2409 6.6294C19.389 6.78673 19.4649 7.01802 19.4989 7.31132C19.5406 7.67725 19.5952 7.93402 19.6855 8.15015C19.775 8.36449 19.9026 8.54604 20.1001 8.7572L20.1006 8.75775C20.531 9.22357 21.1563 9.44862 21.7107 9.34467C22.561 9.18606 23.1694 8.54939 23.3443 7.60874C23.3614 7.51021 23.3687 7.43536 23.2877 7.05664C23.2062 6.67541 23.0393 6.00307 22.7179 4.71511L22.0703 2.12012H3.92965ZM7.61246 9.99635C9.06595 11.4886 11.3141 11.4884 12.772 9.98683L13.0006 9.75141L13.2326 9.98683C13.2325 9.98673 13.2327 9.98694 13.2326 9.98683C14.6908 11.4883 16.9343 11.4883 18.3969 9.98698L18.625 9.75204L18.8575 9.99142C19.6068 10.7649 20.6439 11.1788 21.6431 11.1057L21.88 11.0875V19.8801H16.1196L16.1106 17.2388L16.1104 17.2084C16.1035 15.875 16.1 15.1883 16.0859 14.82C16.0789 14.6359 16.0691 14.5228 16.0526 14.4461C16.0439 14.406 16.0329 14.3728 16.018 14.3429C16.0035 14.3138 15.9872 14.2919 15.9738 14.2746C15.9151 14.195 15.8051 14.085 15.7255 14.0262C15.6848 13.9948 15.6421 13.9666 15.5596 13.948C15.4863 13.9315 15.3806 13.9221 15.2116 13.9159C14.8713 13.9036 14.2383 13.9036 13.007 13.9036H12.993C11.7617 13.9036 11.1287 13.9036 10.7884 13.9159C10.6193 13.9221 10.5136 13.9315 10.4403 13.948C10.3579 13.9666 10.3151 13.9948 10.2745 14.0263C10.1949 14.085 10.0849 14.195 10.0261 14.2746C10.0127 14.2919 9.99648 14.3138 9.98196 14.3429C9.96702 14.3728 9.95603 14.406 9.94741 14.4461C9.93091 14.5228 9.92108 14.6359 9.91405 14.82C9.9 15.1883 9.89644 15.875 9.88952 17.2084L9.88936 17.2386L9.88039 19.8801H4.11998V11.0875L4.35641 11.1057C5.3504 11.1788 6.40221 10.7606 7.13321 9.99594C7.21724 9.90958 7.29503 9.83064 7.35277 9.77348C7.35923 9.76709 7.3654 9.761 7.37127 9.75524C7.37752 9.76125 7.38411 9.76761 7.39102 9.77431C7.44979 9.83136 7.5287 9.91026 7.61246 9.99635ZM7.04686 9.91262C6.33905 10.6532 5.32186 11.0564 4.36561 10.9861L3.99998 10.9579V20.0001H9.99998L10.0094 17.2392L10.0095 17.2151C10.0234 14.5295 10.0237 14.4732 10.1219 14.347C10.1734 14.2767 10.2765 14.1736 10.3469 14.122C10.4734 14.0236 10.525 14.0236 13 14.0236C15.475 14.0236 15.5265 14.0236 15.6531 14.122C15.7234 14.1736 15.8265 14.2767 15.8781 14.347C15.9763 14.4732 15.9765 14.5295 15.9905 17.2151L15.9906 17.2392L16 20.0001H22V10.9579L21.6344 10.9861C20.6734 11.0564 19.6703 10.6579 18.9437 9.90793L18.625 9.5798L18.3109 9.90324C16.8953 11.3564 14.7297 11.3564 13.3187 9.90324L13 9.5798L12.6859 9.90324C11.275 11.3564 9.10467 11.3564 7.69842 9.91262C7.52967 9.73918 7.37967 9.59387 7.3703 9.59387C7.36092 9.59387 7.21561 9.73918 7.04686 9.91262Z" fill="#10BAB2"/>
</svg>
