<svg width="36" height="36" viewBox="0 0 36 36" fill="none" xmlns="http://www.w3.org/2000/svg">
<path d="M14.0625 0.0390701C11.6297 0.172665 8.57109 0.531258 7.48125 0.819538C4.76016 1.52969 2.20078 3.85001 1.125 6.57813C0.499219 8.16016 0 12.8852 0 17.1953C0 20.6195 0.39375 25.1758 0.84375 26.9266C1.575 29.7883 4.10625 32.4602 7.02422 33.4375C7.97344 33.7609 10.2516 34.0844 13.0078 34.2953C14.5758 34.4149 19.7719 34.4149 21.4523 34.2953L22.7602 34.1969L23.2102 34.5133C27.3094 37.368 33.0258 35.8422 35.1914 31.3141C36.45 28.6844 36.2039 25.5484 34.5516 23.1789L34.2281 22.7219L34.3195 21.4211C34.4461 19.7477 34.4461 14.5586 34.3266 12.9766C34.1156 10.1992 33.7922 7.94219 33.4617 6.97188C32.5547 4.25782 30.15 1.85313 27.4359 0.953133C26.4797 0.636726 24.1102 0.299225 21.5156 0.109383C20.1375 0.00391388 15.4969 -0.0382729 14.0625 0.0390701ZM20.1164 2.71095C22.7602 2.84454 25.7414 3.20313 26.5992 3.49141C28.3219 4.06798 29.8969 5.50938 30.6844 7.22501C31.0078 7.9211 31.1133 8.35704 31.3172 9.88282C31.725 12.9484 31.8867 16.7242 31.732 19.6774C31.6969 20.4578 31.6758 20.5774 31.5773 20.5422C31.5141 20.5281 31.1836 20.3945 30.8391 20.2539C29.8547 19.8461 29.0531 19.6984 27.8086 19.7055C26.6906 19.7055 26.1562 19.7899 25.2 20.1133C23.2664 20.7602 21.4945 22.3211 20.5383 24.2055C19.4977 26.2797 19.4344 28.8391 20.3695 31.0328C20.5031 31.3563 20.6016 31.6375 20.5805 31.6516C20.4961 31.743 15.975 31.7641 14.4141 31.6867C11.9883 31.5672 9.21797 31.2578 8.19141 30.9977C6.53203 30.5828 4.8375 29.1906 3.9375 27.5102C3.41719 26.5399 3.23438 25.668 2.95312 22.9188C2.51719 18.5734 2.60156 13.6727 3.17109 9.63673C3.36797 8.24454 3.48047 7.82266 3.825 7.10547C4.51406 5.69219 5.7375 4.47579 7.13672 3.80079C7.875 3.44923 8.31797 3.32969 9.66797 3.13985C12.7687 2.70391 16.6852 2.54219 20.1164 2.71095ZM29.1656 22.5039C30.2062 22.75 31.3734 23.4813 32.0625 24.318C32.4844 24.8313 32.9977 25.8297 33.1664 26.4766C33.3352 27.1094 33.3352 28.5227 33.1664 29.1484C32.8781 30.2313 32.182 31.3352 31.3664 32.0102C30.832 32.4531 29.8406 32.9594 29.1797 33.1352C28.4766 33.325 27.1266 33.3039 26.4094 33.1C22.8164 32.0664 21.2414 27.9109 23.2734 24.8383C24.1031 23.5797 25.4039 22.7078 26.8453 22.4336C27.4781 22.3141 28.5047 22.3422 29.1656 22.5039Z" fill="#10BAB2"/>
<path d="M8.05077 9.08828C7.53749 9.35547 7.2914 9.73516 7.2914 10.2695C7.28436 10.8813 7.6289 11.3594 8.21952 11.5563C8.54296 11.6688 25.7836 11.6758 26.1773 11.5633C26.5078 11.4719 26.9226 11.1203 27.0422 10.818C27.2391 10.3539 27.0914 9.61563 26.7469 9.30625C26.3461 8.95469 26.7398 8.96875 17.1773 8.96875C9.18983 8.97578 8.24061 8.98282 8.05077 9.08828Z" fill="#10BAB2"/>
<path d="M8.19141 17.35C7.24922 17.6875 6.96797 18.9109 7.67813 19.5578C8.11407 19.9586 7.81172 19.9445 13.8094 19.9234L19.3219 19.9023L19.5961 19.6844C19.9758 19.375 20.1375 19.0656 20.1375 18.6367C20.1375 18.1726 19.9336 17.7789 19.5539 17.5117L19.2516 17.3008L13.8305 17.2867C10.1039 17.2797 8.33907 17.3008 8.19141 17.35Z" fill="#10BAB2"/>
<path d="M27.3164 23.7274C26.9789 23.8821 26.7609 24.1071 26.6133 24.4516C26.5289 24.6555 26.5078 25.0071 26.5078 26.0688C26.5078 27.2922 26.5219 27.4469 26.6555 27.7211C27.0281 28.4946 27.9773 28.7125 28.6805 28.1852C29.1164 27.8477 29.1797 27.6016 29.1797 26.0407C29.1797 25.2321 29.1516 24.5782 29.1023 24.4586C29.0039 24.1914 28.6312 23.8118 28.357 23.6922C28.0477 23.5586 27.6539 23.5727 27.3164 23.7274Z" fill="#10BAB2"/>
<path d="M27.4219 29.3594C26.6555 29.4297 26.4726 29.725 26.5219 30.843C26.543 31.4547 26.564 31.5531 26.7187 31.7148C26.9578 31.968 27.3515 32.0523 28.0828 32.0101C28.6664 31.982 28.7156 31.9609 28.9265 31.757C29.1445 31.5391 29.1445 31.525 29.1656 30.7445C29.1797 30.0484 29.1656 29.9289 29.039 29.725C28.9617 29.5984 28.8281 29.4719 28.7367 29.4367C28.5187 29.3523 27.8789 29.3172 27.4219 29.3594Z" fill="#10BAB2"/>
</svg>
