<svg width="36" height="37" viewBox="0 0 36 37" fill="none" xmlns="http://www.w3.org/2000/svg">
<g opacity="0.4">
<path d="M4.85163 4.7375C2.32741 5.22969 0.555534 6.9664 0.0985029 9.40625C-0.0350908 10.1023 6.53993e-05 11.1641 0.182878 11.832C0.337565 12.4227 0.717253 13.2102 1.08288 13.7164C1.25163 13.9555 2.3696 15.1227 3.56491 16.318L5.73053 18.4766L8.02272 16.1773C10.4626 13.7305 10.6805 13.4562 11.0743 12.4086C12.2344 9.31484 10.4837 5.82031 7.31257 4.90625C6.79225 4.75859 5.2946 4.65312 4.85163 4.7375ZM6.47585 8.77344C7.06647 9.07578 7.45319 9.70156 7.45319 10.3555C7.45319 11.6703 6.01882 12.5281 4.85866 11.9023C4.24694 11.5648 3.93757 11.0445 3.93757 10.3344C3.93757 9.04062 5.32272 8.18984 6.47585 8.77344Z" fill="#888888"/>
<path d="M10.8985 17.4148C10.8985 18.0012 11.3739 18.4766 11.9603 18.4766H14.5056C18.4853 18.4766 18.7524 18.5047 19.3923 18.8984C21.1782 19.9953 21.0235 22.5898 19.1251 23.4969L18.6681 23.7148L12.9024 23.757C6.46182 23.7992 6.89072 23.7641 5.76572 24.3195C4.60557 24.8961 3.66338 26.0844 3.33291 27.4062C3.08682 28.3695 3.23447 29.7477 3.68447 30.6266C4.29619 31.8359 5.47041 32.7641 6.80635 33.1086C7.3126 33.2352 7.67119 33.2422 16.2212 33.2422H24.047C24.6295 33.2422 25.1017 32.77 25.1017 32.1875C25.1017 31.6047 24.6297 31.1321 24.047 31.1311L16.1931 31.1187L7.27744 31.0977L6.84853 30.9008C6.17353 30.5914 5.59697 29.9094 5.40713 29.2203C5.05557 27.9195 5.74463 26.5695 7.01728 26.0562L7.41807 25.8945L13.2188 25.8594L19.0196 25.8172L19.5751 25.6203C21.0235 25.093 22.1626 23.8836 22.6126 22.3789C22.8095 21.725 22.7954 20.4945 22.5845 19.8125C22.0853 18.2023 20.8688 17.0141 19.2306 16.5359C18.8579 16.4234 18.3728 16.4094 14.8571 16.3883L11.9532 16.3676C11.3719 16.3635 10.8985 16.8336 10.8985 17.4148Z" fill="#888888"/>
<path d="M29.0883 19.5734C27.3516 19.9602 25.9102 21.0922 25.1367 22.6813C24.307 24.3758 24.3844 26.4078 25.3547 28.0742C25.6359 28.5523 26.0156 28.9742 27.9773 30.943L30.2695 33.2422L32.4703 31.0484C33.6867 29.8391 34.8047 28.6648 34.9594 28.4328C37.1953 25.1914 35.6133 20.7617 31.8375 19.6648C31.1484 19.468 29.7633 19.4188 29.0883 19.5734ZM30.6352 23.3984C31.1273 23.5109 31.5844 23.8695 31.8164 24.3406C31.9781 24.6781 32.0062 24.7977 31.9781 25.2195C31.943 25.8523 31.6828 26.2953 31.1625 26.6047C30.6844 26.893 30.2695 26.9563 29.7914 26.8156C28.0266 26.3023 28.0617 23.8273 29.8477 23.3914C30.157 23.3211 30.2625 23.3211 30.6352 23.3984Z" fill="#888888"/>
</g>
</svg>
