<svg width="24" height="24" viewBox="0 0 24 24" fill="none" xmlns="http://www.w3.org/2000/svg">
<path d="M4.0583 3.06032C3.91678 3.08784 3.63373 3.19792 3.4293 3.2962C3.12659 3.44559 2.99686 3.53994 2.73739 3.80334C2.47007 4.06673 2.38358 4.1886 2.23812 4.49524C1.91576 5.15963 1.93541 4.65249 1.93541 12.0001C1.93541 19.3476 1.91576 18.8405 2.23812 19.5049C2.38358 19.8115 2.47007 19.9334 2.73739 20.1968C2.99686 20.4602 3.12659 20.5545 3.4293 20.7039C4.08189 21.0223 3.4293 21.0027 11.9995 21.0027C20.5697 21.0027 19.9171 21.0223 20.5697 20.7039C20.8724 20.5545 21.0021 20.4602 21.2577 20.2007C21.5171 19.9412 21.6115 19.8115 21.7609 19.5088C22.0832 18.8444 22.0675 19.2218 22.0557 13.0615L22.0439 7.61668L21.9378 7.30218C21.6704 6.51199 21.1004 5.89871 20.3535 5.596L20.0783 5.48593L20.0508 5.2815C19.925 4.41662 19.3274 3.63036 18.5058 3.25296C17.9239 2.9817 18.38 2.99742 10.9892 3.00136C5.44212 3.00136 4.27059 3.01315 4.0583 3.06032ZM17.9161 4.36944C18.0773 4.43627 18.2188 4.53456 18.3682 4.68394C18.5726 4.88837 18.7613 5.20287 18.7613 5.33654C18.7613 5.38764 17.9043 5.39551 11.4609 5.40337L4.15659 5.41516L3.8814 5.50951C3.73201 5.56062 3.52365 5.64318 3.42144 5.69428C3.31922 5.74539 3.22487 5.78863 3.20915 5.78863C3.19342 5.78863 3.19342 5.69822 3.20915 5.58814C3.2917 4.95914 3.72808 4.452 4.30991 4.31047C4.46716 4.27116 5.94532 4.2633 11.0953 4.26723L17.6802 4.27509L17.9161 4.36944ZM19.8817 6.76752C20.2041 6.89726 20.5618 7.255 20.6916 7.57737C20.782 7.80931 20.7859 7.83683 20.7859 9.07125V10.3293L18.4664 10.3489L16.147 10.3686L15.8168 10.4826C15.3647 10.6438 14.8379 11.0015 14.543 11.3514C14.26 11.6895 13.9848 12.2399 13.9022 12.6291C13.8079 13.0694 13.8433 13.7338 13.9809 14.1426C14.3032 15.0979 15.0462 15.7898 16.0487 16.0729C16.2767 16.1358 16.5323 16.1436 18.5569 16.1554L20.8095 16.1711L20.7977 17.3781C20.782 18.7697 20.7623 18.8601 20.4124 19.2454C20.1844 19.497 19.925 19.6425 19.6065 19.7054C19.4335 19.7368 17.3382 19.7447 11.8619 19.7368L4.35315 19.725L4.11727 19.6307C3.79491 19.5009 3.43716 19.1432 3.30743 18.8208L3.21308 18.585V13.1991V7.81324L3.30743 7.57737C3.48041 7.15279 3.95216 6.77145 4.40033 6.69283C4.50647 6.6771 7.97779 6.66531 12.1174 6.66924L19.6458 6.67317L19.8817 6.76752ZM20.8056 13.2384V14.8699H18.6512C16.7957 14.8699 16.4654 14.862 16.2807 14.807C15.6045 14.6104 15.1091 13.946 15.1052 13.2305C15.1052 12.9907 15.2113 12.6212 15.3529 12.3814C15.5455 12.0551 15.9779 11.7367 16.3514 11.6502C16.434 11.6305 17.4679 11.6148 18.6552 11.6109L20.8056 11.6069V13.2384Z" fill="#10BAB2"/>
<path d="M16.6779 12.7158C16.2651 12.9242 16.2022 13.4824 16.556 13.7812C16.9885 14.1468 17.6214 13.8637 17.6293 13.3055C17.6332 12.7787 17.1457 12.4799 16.6779 12.7158Z" fill="#10BAB2"/>
</svg>
