<svg width="18" height="14" viewBox="0 0 18 14" fill="none" xmlns="http://www.w3.org/2000/svg">
<path d="M4.83268 12.8646C5.75316 12.8646 6.49935 12.1184 6.49935 11.1979C6.49935 10.2774 5.75316 9.53125 4.83268 9.53125C3.91221 9.53125 3.16602 10.2774 3.16602 11.1979C3.16602 12.1184 3.91221 12.8646 4.83268 12.8646Z" stroke="#4F5052" stroke-width="1.3" stroke-linecap="round" stroke-linejoin="round"/>
<path d="M13.1667 12.8646C14.0871 12.8646 14.8333 12.1184 14.8333 11.1979C14.8333 10.2774 14.0871 9.53125 13.1667 9.53125C12.2462 9.53125 11.5 10.2774 11.5 11.1979C11.5 12.1184 12.2462 12.8646 13.1667 12.8646Z" stroke="#4F5052" stroke-width="1.3" stroke-linecap="round" stroke-linejoin="round"/>
<path d="M6.49935 11.1973H11.4993M16.4993 6.19727V11.1973H14.8327L9.83268 6.19727H16.4993ZM16.4993 6.19727L13.9993 2.0306H9.83268L16.4993 6.19727ZM1.49935 4.5306H4.83268M3.16602 11.1973H1.49935V7.86393L3.16602 11.1973ZM0.666016 1.19727H9.83268V11.1973L0.666016 1.19727Z" stroke="#4F5052" stroke-width="1.3" stroke-linecap="round" stroke-linejoin="round"/>
</svg>
