<svg width="25" height="18" viewBox="0 0 25 18" fill="none" xmlns="http://www.w3.org/2000/svg">
<path d="M1.65778 0.796893C1.22653 0.909393 0.818719 1.25158 0.635906 1.66408C0.556219 1.84221 0.528094 1.99221 0.528094 2.29689C0.523406 2.65314 0.537469 2.71877 0.664031 2.94846C0.818719 3.22971 1.07184 3.46408 1.38591 3.61877C1.70934 3.77814 2.25778 3.76877 2.61872 3.60002C2.94684 3.45002 3.22341 3.16408 3.38747 2.82189C3.49528 2.59221 3.50934 2.51721 3.49059 2.20314C3.46716 1.79064 3.34059 1.49533 3.06403 1.20939C2.73122 0.867206 2.11247 0.684393 1.65778 0.796893Z" fill="#00A64F"/>
<path d="M6.10159 0.815625C5.81565 0.904687 5.65159 1.00312 5.45002 1.20469C4.87815 1.76719 4.87815 2.72812 5.45002 3.3C5.55315 3.39844 5.75002 3.53906 5.89065 3.60469L6.14846 3.72656H14H21.8516L22.1141 3.60469C22.6625 3.34687 22.9766 2.85469 22.9766 2.25C22.9766 1.64531 22.6625 1.15312 22.1141 0.895312L21.8516 0.773438L14.0703 0.764062C7.88752 0.759375 6.25159 0.76875 6.10159 0.815625Z" fill="#00A64F"/>
<path d="M1.60156 7.56091C1.30156 7.65935 1.14687 7.75778 0.940622 7.9781C0.584372 8.34841 0.448435 8.79372 0.55156 9.27185C0.62656 9.63747 0.734372 9.83435 0.992185 10.0734C1.27812 10.3359 1.55937 10.4531 1.97187 10.4859C2.27656 10.5093 2.34687 10.5 2.59062 10.3875C2.95156 10.2234 3.19531 9.97966 3.36406 9.63278C3.72031 8.89216 3.3875 8.00153 2.62344 7.65466C2.31406 7.51403 1.87343 7.47185 1.60156 7.56091Z" fill="#00A64F"/>
<path d="M5.9797 7.6125C5.55314 7.78594 5.31408 8.01562 5.13127 8.42344C4.98595 8.7375 4.99064 9.25781 5.13595 9.59531C5.27189 9.90469 5.65158 10.2656 5.96095 10.3875C6.19064 10.4766 6.41564 10.4766 14.7735 10.4766H23.3516L23.6094 10.3547C24.275 10.0359 24.6313 9.29062 24.4391 8.62031C24.2891 8.10938 23.886 7.69687 23.3938 7.55625C23.2485 7.51406 21.1016 7.5 14.7219 7.5H6.2422L5.9797 7.6125Z" fill="#00A64F"/>
<path d="M1.60158 14.3109C1.31096 14.4093 1.14689 14.5078 0.954706 14.7046C0.350018 15.3046 0.382831 16.275 1.02502 16.8515C1.28752 17.0906 1.55471 17.1984 1.96721 17.2312C2.28127 17.2593 2.34221 17.25 2.59064 17.1375C2.95158 16.9734 3.19533 16.7296 3.36408 16.3828C3.54689 16.0031 3.55627 15.5203 3.38752 15.1546C3.08283 14.4984 2.23908 14.1 1.60158 14.3109Z" fill="#00A64F"/>
<path d="M6.07814 14.3109C5.82501 14.3859 5.44532 14.6531 5.31407 14.8499C5.09376 15.164 5.02814 15.3749 5.03282 15.7499C5.03282 16.2093 5.15939 16.5093 5.48751 16.8187C5.95157 17.2593 5.47814 17.2265 11.3984 17.2265H16.6016L16.8594 17.1046C17.9094 16.6077 18.0453 15.1734 17.1078 14.5265C16.6906 14.2359 16.9438 14.2499 11.3563 14.2546C7.87345 14.2593 6.19064 14.2734 6.07814 14.3109Z" fill="#00A64F"/>
</svg>
