<svg width="25" height="39" viewBox="0 0 25 39" fill="none" xmlns="http://www.w3.org/2000/svg">
<path d="M1.95938 28.595H3.05313L5.10879 34.0784L7.15957 28.595H8.25332L5.53848 35.7043H4.66934L1.95938 28.595ZM1.46133 28.595H2.50137L2.68203 33.3411V35.7043H1.46133V28.595ZM7.71133 28.595H8.75625V35.7043H7.53066V33.3411L7.71133 28.595ZM9.96953 33.1213V33.009C9.96953 32.6282 10.0249 32.275 10.1355 31.9495C10.2462 31.6207 10.4057 31.3359 10.6141 31.095C10.8257 30.8508 11.0828 30.662 11.3855 30.5286C11.6915 30.3918 12.0366 30.3235 12.4207 30.3235C12.8081 30.3235 13.1531 30.3918 13.4559 30.5286C13.7618 30.662 14.0206 30.8508 14.2322 31.095C14.4438 31.3359 14.6049 31.6207 14.7156 31.9495C14.8263 32.275 14.8816 32.6282 14.8816 33.009V33.1213C14.8816 33.5022 14.8263 33.8554 14.7156 34.1809C14.6049 34.5064 14.4438 34.7913 14.2322 35.0354C14.0206 35.2763 13.7635 35.4651 13.4607 35.6018C13.158 35.7353 12.8146 35.802 12.4305 35.802C12.0431 35.802 11.6964 35.7353 11.3904 35.6018C11.0877 35.4651 10.8305 35.2763 10.6189 35.0354C10.4074 34.7913 10.2462 34.5064 10.1355 34.1809C10.0249 33.8554 9.96953 33.5022 9.96953 33.1213ZM11.1463 33.009V33.1213C11.1463 33.359 11.1707 33.5836 11.2195 33.7952C11.2684 34.0068 11.3449 34.1923 11.449 34.3518C11.5532 34.5113 11.6867 34.6366 11.8494 34.7278C12.0122 34.8189 12.2059 34.8645 12.4305 34.8645C12.6486 34.8645 12.8374 34.8189 12.9969 34.7278C13.1596 34.6366 13.2931 34.5113 13.3973 34.3518C13.5014 34.1923 13.5779 34.0068 13.6268 33.7952C13.6788 33.5836 13.7049 33.359 13.7049 33.1213V33.009C13.7049 32.7747 13.6788 32.5533 13.6268 32.345C13.5779 32.1334 13.4998 31.9462 13.3924 31.7834C13.2882 31.6207 13.1548 31.4937 12.992 31.4026C12.8325 31.3082 12.6421 31.261 12.4207 31.261C12.1993 31.261 12.0073 31.3082 11.8445 31.4026C11.685 31.4937 11.5532 31.6207 11.449 31.7834C11.3449 31.9462 11.2684 32.1334 11.2195 32.345C11.1707 32.5533 11.1463 32.7747 11.1463 33.009ZM17.1496 31.427V35.7043H15.9729V30.4211H17.0959L17.1496 31.427ZM18.7658 30.387L18.7561 31.4807C18.6844 31.4677 18.6063 31.4579 18.5217 31.4514C18.4403 31.4449 18.3589 31.4417 18.2775 31.4417C18.0757 31.4417 17.8983 31.4709 17.7453 31.5295C17.5923 31.5849 17.4637 31.6663 17.3596 31.7737C17.2587 31.8778 17.1805 32.0048 17.1252 32.1545C17.0699 32.3043 17.0373 32.4719 17.0275 32.6575L16.759 32.677C16.759 32.345 16.7915 32.0374 16.8566 31.7542C16.9217 31.4709 17.0194 31.2219 17.1496 31.0071C17.2831 30.7922 17.4491 30.6246 17.6477 30.5042C17.8495 30.3837 18.0822 30.3235 18.3459 30.3235C18.4175 30.3235 18.494 30.33 18.5754 30.343C18.66 30.356 18.7235 30.3707 18.7658 30.387ZM21.8346 35.802C21.4439 35.802 21.0908 35.7385 20.775 35.6116C20.4625 35.4814 20.1956 35.3007 19.9742 35.0696C19.7561 34.8385 19.5885 34.5667 19.4713 34.2542C19.3541 33.9417 19.2955 33.6047 19.2955 33.2434V33.0481C19.2955 32.6347 19.3557 32.2603 19.4762 31.925C19.5966 31.5898 19.7643 31.3033 19.9791 31.0657C20.1939 30.8248 20.4479 30.6409 20.7408 30.5139C21.0338 30.387 21.3512 30.3235 21.693 30.3235C22.0706 30.3235 22.401 30.387 22.6842 30.5139C22.9674 30.6409 23.2018 30.8199 23.3873 31.051C23.5761 31.2789 23.7161 31.5507 23.8072 31.8665C23.9016 32.1822 23.9488 32.5305 23.9488 32.9114V33.4143H19.8668V32.5696H22.7867V32.4768C22.7802 32.2652 22.7379 32.0667 22.6598 31.8811C22.5849 31.6956 22.4693 31.5458 22.3131 31.4319C22.1568 31.318 21.9485 31.261 21.6881 31.261C21.4928 31.261 21.3186 31.3033 21.1656 31.3879C21.0159 31.4693 20.8906 31.5881 20.7896 31.7444C20.6887 31.9006 20.6106 32.0894 20.5553 32.3108C20.5032 32.5289 20.4771 32.7747 20.4771 33.0481V33.2434C20.4771 33.4745 20.5081 33.6894 20.5699 33.8879C20.635 34.0833 20.7294 34.2542 20.8531 34.4006C20.9768 34.5471 21.1266 34.6627 21.3023 34.7473C21.4781 34.8287 21.6783 34.8694 21.9029 34.8694C22.1861 34.8694 22.4384 34.8124 22.6598 34.6985C22.8811 34.5846 23.0732 34.4234 23.2359 34.2151L23.8561 34.8157C23.7421 34.9817 23.594 35.1412 23.4117 35.2942C23.2294 35.4439 23.0064 35.566 22.7428 35.6604C22.4824 35.7548 22.1796 35.802 21.8346 35.802Z" fill="white"/>
<rect x="0.604736" y="4.67749" width="23.7903" height="15.5269" rx="0.5" stroke="white"/>
<path d="M0.924952 4.53253L18.9359 1.41209" stroke="white" stroke-linecap="round"/>
<path d="M19.0046 1.35767C18.1338 1.8763 16.9146 3.2482 19.0046 4.58678" stroke="white" stroke-linecap="round"/>
<line x1="2.20059" y1="9.03452" x2="17.6607" y2="9.03452" stroke="white" stroke-width="0.7" stroke-linecap="round"/>
<line x1="2.20059" y1="12.3795" x2="12.1503" y2="12.3795" stroke="white" stroke-width="0.7" stroke-linecap="round"/>
<line x1="2.20059" y1="15.7245" x2="9.12232" y2="15.7245" stroke="white" stroke-width="0.7" stroke-linecap="round"/>
</svg>
