<svg width="24" height="22" viewBox="0 0 24 22" fill="none" xmlns="http://www.w3.org/2000/svg">
<path d="M1.92183 0.603125C1.76714 0.682812 1.68276 0.767187 1.60308 0.921875C1.54683 1.03906 1.15776 2.49219 0.745265 4.15625C0.0140146 7.09531 -0.00942283 7.18906 0.0187022 7.53594C0.0562022 8.01406 0.206202 8.55781 0.403077 8.95625C0.62339 9.39687 0.707765 9.50937 1.13433 9.95L1.49995 10.325L1.50933 15.6734C1.52339 20.9937 1.52339 21.0266 1.62183 21.1531C1.67339 21.2234 1.77651 21.3266 1.84683 21.3781C1.97339 21.4766 2.0062 21.4766 5.99995 21.4766C9.9937 21.4766 10.0265 21.4766 10.1531 21.3781C10.2234 21.3266 10.3265 21.2234 10.3781 21.1531C10.4765 21.0266 10.4765 20.9703 10.4906 18.2609L10.5 15.5H12H13.5L13.5093 18.2609C13.5234 20.9703 13.5234 21.0266 13.6218 21.1531C13.6734 21.2234 13.7765 21.3266 13.8468 21.3781C13.9734 21.4766 14.0062 21.4766 18 21.4766C21.9937 21.4766 22.0265 21.4766 22.1531 21.3781C22.2234 21.3266 22.3265 21.2234 22.3781 21.1531C22.4765 21.0266 22.4765 20.9937 22.4906 15.6734L22.5 10.325L22.8656 9.95C23.2921 9.50937 23.3765 9.39687 23.5968 8.95625C23.7937 8.55781 23.9437 8.01406 23.9812 7.53594C24.0093 7.18906 23.9859 7.09531 23.2546 4.15625C22.8421 2.49219 22.4531 1.03906 22.3968 0.921875C22.3171 0.767187 22.2328 0.682812 22.0781 0.603125L21.8718 0.5H12H2.12808L1.92183 0.603125ZM21.8343 4.68594C22.4765 7.25937 22.5046 7.38594 22.4625 7.62969C22.2796 8.61406 21.6375 9.29375 20.7328 9.4625C20.1328 9.575 19.4671 9.33125 19.0125 8.83906C18.6046 8.40312 18.464 8.06562 18.3796 7.325C18.314 6.75781 18.0937 6.52344 17.625 6.52344C17.1562 6.52344 16.9359 6.75781 16.8703 7.325C16.7859 8.06562 16.6453 8.40312 16.2375 8.83906C15.7828 9.33125 15.1171 9.575 14.5218 9.4625C14.0765 9.37812 13.6921 9.16719 13.3875 8.83906C12.9796 8.40312 12.839 8.06562 12.7546 7.325C12.689 6.75781 12.4687 6.52344 12 6.52344C11.5312 6.52344 11.3109 6.75781 11.2453 7.325C11.1609 8.06562 11.0203 8.40312 10.6125 8.83906C10.3078 9.16719 9.92339 9.37812 9.47808 9.4625C8.88276 9.575 8.21714 9.33125 7.76245 8.83906C7.35464 8.40312 7.21401 8.06562 7.12964 7.325C7.06401 6.75781 6.8437 6.52344 6.37495 6.52344C5.9062 6.52344 5.68589 6.75781 5.62026 7.325C5.53589 8.06562 5.39526 8.40312 4.98745 8.83906C4.53276 9.33125 3.86714 9.575 3.27183 9.4625C2.36245 9.29375 1.72026 8.61406 1.53745 7.62969C1.49526 7.38594 1.52339 7.25937 2.16558 4.68594L2.83589 2H12H21.164L21.8343 4.68594ZM6.69839 9.9125C8.10464 11.3562 10.275 11.3562 11.6859 9.90312L12 9.57969L12.3187 9.90312C13.7296 11.3562 15.8953 11.3562 17.3109 9.90312L17.625 9.57969L17.9437 9.90781C18.6703 10.6578 19.6734 11.0562 20.6343 10.9859L21 10.9578V15.4766V20H18H15L14.9906 17.2391C14.9765 14.5297 14.9765 14.4734 14.8781 14.3469C14.8265 14.2766 14.7234 14.1734 14.6531 14.1219C14.5265 14.0234 14.475 14.0234 12 14.0234C9.52495 14.0234 9.47339 14.0234 9.34683 14.1219C9.27652 14.1734 9.17339 14.2766 9.12183 14.3469C9.02339 14.4734 9.02339 14.5297 9.00933 17.2391L8.99995 20H5.99995H2.99995V15.4766V10.9578L3.36558 10.9859C4.32183 11.0562 5.33901 10.6531 6.04683 9.9125C6.21558 9.73906 6.36089 9.59375 6.37026 9.59375C6.37964 9.59375 6.52964 9.73906 6.69839 9.9125Z" fill="#00A64F"/>
</svg>
