<svg width="25" height="24" viewBox="0 0 25 24" fill="none" xmlns="http://www.w3.org/2000/svg">
<path d="M3.24224 4.66406C2.6188 4.88437 2.58599 5.775 3.19068 6.05156C3.37349 6.13594 3.67818 6.14062 11.2813 6.14062C16.4797 6.14062 19.236 6.12187 19.3532 6.09375C19.5829 6.02812 19.8407 5.7375 19.8829 5.49375C19.9391 5.15156 19.6954 4.7625 19.3485 4.64531C19.2313 4.60781 17.0844 4.59375 11.3094 4.59375C4.65787 4.59844 3.40162 4.60781 3.24224 4.66406Z" fill="#0077B6"/>
<path d="M3.2516 8.45625C3.02191 8.54062 2.9516 8.60625 2.83441 8.83125C2.66097 9.17344 2.77347 9.54844 3.12503 9.78281L3.27972 9.89062H11.3235C19.2688 9.89062 19.3672 9.89062 19.5219 9.79688C19.9953 9.50625 19.9766 8.79844 19.4844 8.5125C19.3203 8.41406 19.2969 8.41406 11.375 8.40469C4.81253 8.39531 3.39691 8.40469 3.2516 8.45625Z" fill="#0077B6"/>
<path d="M17.8203 11.3531C17.6984 11.4234 17.5953 11.5359 17.5297 11.6719C17.4266 11.8734 17.4219 11.9203 17.4219 13.2281V14.5781H16.0484C14.8063 14.5781 14.6609 14.5875 14.5156 14.6672C14.2719 14.7938 14.1406 15.0141 14.1406 15.2906C14.1406 15.5719 14.2297 15.75 14.4547 15.9234L14.6234 16.0547L16.0203 16.0688L17.4172 16.0828L17.4313 17.4844C17.4453 18.8203 17.45 18.8906 17.5438 19.0172C17.8063 19.3734 18.2656 19.4719 18.5984 19.2469C18.9125 19.0359 18.9219 18.9703 18.9219 17.4422V16.0781H20.2719C21.5797 16.0781 21.6266 16.0734 21.8281 15.9703C22.1141 15.8297 22.2594 15.5719 22.2359 15.2672C22.2125 15.0141 22.1094 14.8406 21.875 14.6813C21.725 14.5781 21.6969 14.5781 20.3234 14.5781H18.9219V13.1766C18.9219 11.8031 18.9219 11.775 18.8188 11.625C18.5703 11.2641 18.1672 11.1563 17.8203 11.3531Z" fill="#0077B6"/>
<path d="M3.19063 12.2766C2.90469 12.4078 2.77344 12.6187 2.77344 12.9469C2.77344 13.2469 2.8625 13.4016 3.125 13.5844L3.27969 13.6875L7.55938 13.6781C11.7922 13.6641 11.8391 13.6641 11.9703 13.5656C12.125 13.4531 12.3125 13.1109 12.3125 12.9328C12.3125 12.7125 12.1156 12.4125 11.8906 12.2953L11.6891 12.1875H7.53594C3.58906 12.1875 3.37344 12.1922 3.19063 12.2766Z" fill="#0077B6"/>
<path d="M3.18134 16.064C2.73134 16.2843 2.61415 16.8515 2.94227 17.2265C3.02196 17.3155 3.16259 17.414 3.25634 17.4374C3.37352 17.4749 4.7704 17.4843 7.62977 17.4749L11.8298 17.4608L11.9938 17.3343C12.4391 16.9921 12.3735 16.303 11.8766 16.078C11.6891 15.989 11.5204 15.9843 7.5079 15.9843C3.76259 15.9843 3.32196 15.9936 3.18134 16.064Z" fill="#0077B6"/>
</svg>
