<svg width="18" height="22" viewBox="0 0 18 22" fill="none" xmlns="http://www.w3.org/2000/svg">
<path d="M9 11.9899C10.6569 11.9899 12 10.6617 12 9.02327C12 7.38484 10.6569 6.05664 9 6.05664C7.34315 6.05664 6 7.38484 6 9.02327C6 10.6617 7.34315 11.9899 9 11.9899Z" stroke="#4F5052" stroke-width="1.5" stroke-linecap="round" stroke-linejoin="round"/>
<path d="M9 1.11133C6.87827 1.11133 4.84344 1.94481 3.34315 3.42841C1.84285 4.91201 1 6.9242 1 9.02233C1 10.8933 1.402 12.1175 2.5 13.4723L9 20.8888L15.5 13.4723C16.598 12.1175 17 10.8933 17 9.02233C17 6.9242 16.1571 4.91201 14.6569 3.42841C13.1566 1.94481 11.1217 1.11133 9 1.11133V1.11133Z" stroke="#4F5052" stroke-width="1.5" stroke-linecap="round" stroke-linejoin="round"/>
</svg>
