<svg width="24" height="24" viewBox="0 0 24 24" fill="none" xmlns="http://www.w3.org/2000/svg">
<g clip-path="url(#clip0_475_5314)">
<path d="M16.6172 0.853075C16.2609 0.89995 16.0641 0.960888 15.7641 1.12964C15.3516 1.35464 2.51719 10.3593 2.33438 10.5468C2.175 10.7109 2.15625 10.7578 2.15625 10.9781C2.15625 11.2734 2.27344 11.4937 2.48906 11.6015C2.56875 11.6437 3.47344 11.8265 4.49531 12.0093C5.51719 12.1875 6.35156 12.3375 6.35625 12.3421C6.35625 12.3468 7.90781 14.564 9.80156 17.2734C12.0656 20.5125 13.3313 22.2843 13.5094 22.4578C13.9922 22.9312 14.5688 23.1562 15.2813 23.1609C15.75 23.1609 16.1484 23.0671 16.4859 22.875C16.6172 22.8 18.15 21.7453 19.8844 20.5312C22.1531 18.9468 23.1141 18.2484 23.3016 18.0468C24.0047 17.3015 24.1922 16.1906 23.7703 15.2578C23.7 15.1031 22.9969 14.0578 22.2094 12.9328C21.4266 11.8125 20.7703 10.8703 20.7516 10.8421C20.7328 10.8093 20.9578 10.6218 21.3328 10.3546C22.0219 9.86245 22.2422 9.63745 22.4766 9.16401C22.8844 8.35308 22.8516 7.42495 22.3969 6.67964C22.3172 6.55308 21.4922 5.36714 20.5641 4.04058C18.7922 1.51401 18.6703 1.3687 18.1453 1.1062C17.6953 0.876513 17.1422 0.787451 16.6172 0.853075ZM17.5172 2.35776C17.5875 2.39995 17.7141 2.49839 17.7938 2.58745C18.1031 2.91558 21.2484 7.47183 21.3141 7.68745C21.4359 8.0812 21.3094 8.54526 20.9906 8.84058C20.8219 9.00464 19.9734 9.60933 19.9172 9.60933C19.8984 9.60933 18.9281 8.24526 17.7609 6.57183C16.5938 4.90308 15.5672 3.44057 15.4828 3.32339L15.3328 3.10776L15.8297 2.76089C16.1063 2.5687 16.3828 2.38589 16.4438 2.35308C16.7063 2.20308 17.2266 2.20776 17.5172 2.35776ZM15.6094 5.95776C16.3875 7.0687 17.0156 7.98276 17.0063 7.99683C16.9922 8.0062 14.6766 8.6812 11.8547 9.49683L6.72656 10.9734L5.70469 10.7953C5.14688 10.6968 4.69219 10.6031 4.69688 10.5843C4.71094 10.5421 14.1141 3.94683 14.1656 3.94214C14.1844 3.93745 14.8359 4.84682 15.6094 5.95776ZM20.1844 12.4875C21.4266 14.264 22.4672 15.7734 22.5 15.839C22.5891 16.0359 22.6125 16.4203 22.5469 16.6218C22.4063 17.039 22.3688 17.0718 19.0969 19.3593C17.3531 20.5781 15.8531 21.614 15.7594 21.6609C15.5297 21.7781 15.0422 21.7781 14.7891 21.6609C14.6859 21.614 14.5359 21.5015 14.4516 21.4171C14.3203 21.2718 7.92188 12.164 7.92188 12.1171C7.92188 12.0937 8.34375 11.9671 10.4063 11.3718C15.0656 10.0359 16.6219 9.58589 17.1797 9.42183C17.5172 9.32339 17.8172 9.2437 17.8547 9.24839C17.8922 9.25308 18.9375 10.7109 20.1844 12.4875Z" fill="#08908C"/>
<path d="M14.2688 12.4547C13.875 12.6844 12.9094 13.4016 12.8344 13.5235C12.7875 13.6032 12.75 13.7532 12.75 13.875C12.75 14.4141 13.2938 14.7422 13.7719 14.4844C14.1844 14.2641 15.1078 13.5657 15.1922 13.4063C15.3563 13.1016 15.2672 12.7032 14.9906 12.5016C14.8172 12.375 14.4563 12.3516 14.2688 12.4547Z" fill="#08908C"/>
<path d="M15.9562 14.7187C15.8249 14.7703 14.7281 15.539 14.564 15.6937C14.2265 16.0125 14.3062 16.5937 14.7187 16.8047C14.8828 16.889 15.2015 16.8984 15.3421 16.8187C15.5484 16.7109 16.6218 15.9422 16.7249 15.8297C16.9453 15.5953 16.9406 15.1594 16.7203 14.9109C16.5328 14.7047 16.1953 14.6203 15.9562 14.7187Z" fill="#08908C"/>
<path d="M17.5871 17.0156C17.5262 17.0391 17.1746 17.2734 16.7996 17.5359C16.0684 18.0469 15.9746 18.1547 15.9746 18.4969C15.9746 18.8953 16.2605 19.1719 16.6777 19.1719C16.8934 19.1719 16.9496 19.1438 17.6199 18.6797C18.009 18.4078 18.3652 18.1266 18.4121 18.0609C18.5293 17.8781 18.5199 17.4797 18.3934 17.3156C18.1871 17.0344 17.8449 16.9078 17.5871 17.0156Z" fill="#08908C"/>
<path d="M2.20311 13.4625C2.09061 13.5421 1.81404 13.9734 1.14373 15.1312C0.64217 15.989 0.19217 16.8234 0.13592 16.9828C-0.210955 18.0046 0.178107 19.2328 1.04998 19.8515C1.58904 20.2312 1.94998 20.3437 2.60154 20.3484C3.90936 20.3484 4.96873 19.4156 5.15623 18.1031C5.20779 17.7328 5.14686 17.2078 5.01092 16.8703C4.85154 16.4625 3.23436 13.7203 3.04217 13.5328C2.87811 13.3781 2.84061 13.3593 2.61092 13.3593C2.42342 13.3593 2.31561 13.3875 2.20311 13.4625ZM3.09373 16.289C3.72654 17.3765 3.75467 17.4375 3.75467 17.7703C3.75936 18.2859 3.44529 18.7359 2.96717 18.8953C2.87811 18.9234 2.65779 18.9375 2.48436 18.9281C2.21717 18.914 2.12342 18.8859 1.95936 18.7687C1.57498 18.4968 1.35936 18.0421 1.42498 17.6156C1.44842 17.4609 1.60779 17.1328 1.97811 16.4906C2.54529 15.4968 2.57811 15.45 2.62498 15.5015C2.64373 15.5203 2.85467 15.8765 3.09373 16.289Z" fill="#08908C"/>
</g>
<defs>
<clipPath id="clip0_475_5314">
<rect width="24" height="24" fill="white"/>
</clipPath>
</defs>
</svg>
