<svg width="26" height="39" viewBox="0 0 26 39" fill="none" xmlns="http://www.w3.org/2000/svg">
<path d="M2.45938 28.564H3.55313L5.60879 34.0474L7.65957 28.564H8.75332L6.03848 35.6733H5.16934L2.45938 28.564ZM1.96133 28.564H3.00137L3.18203 33.3101V35.6733H1.96133V28.564ZM8.21133 28.564H9.25625V35.6733H8.03066V33.3101L8.21133 28.564ZM10.4695 33.0903V32.978C10.4695 32.5972 10.5249 32.244 10.6355 31.9185C10.7462 31.5897 10.9057 31.3049 11.1141 31.064C11.3257 30.8198 11.5828 30.631 11.8855 30.4976C12.1915 30.3608 12.5366 30.2925 12.9207 30.2925C13.3081 30.2925 13.6531 30.3608 13.9559 30.4976C14.2618 30.631 14.5206 30.8198 14.7322 31.064C14.9438 31.3049 15.1049 31.5897 15.2156 31.9185C15.3263 32.244 15.3816 32.5972 15.3816 32.978V33.0903C15.3816 33.4712 15.3263 33.8244 15.2156 34.1499C15.1049 34.4754 14.9438 34.7603 14.7322 35.0044C14.5206 35.2453 14.2635 35.4341 13.9607 35.5708C13.658 35.7043 13.3146 35.771 12.9305 35.771C12.5431 35.771 12.1964 35.7043 11.8904 35.5708C11.5877 35.4341 11.3305 35.2453 11.1189 35.0044C10.9074 34.7603 10.7462 34.4754 10.6355 34.1499C10.5249 33.8244 10.4695 33.4712 10.4695 33.0903ZM11.6463 32.978V33.0903C11.6463 33.328 11.6707 33.5526 11.7195 33.7642C11.7684 33.9757 11.8449 34.1613 11.949 34.3208C12.0532 34.4803 12.1867 34.6056 12.3494 34.6968C12.5122 34.7879 12.7059 34.8335 12.9305 34.8335C13.1486 34.8335 13.3374 34.7879 13.4969 34.6968C13.6596 34.6056 13.7931 34.4803 13.8973 34.3208C14.0014 34.1613 14.0779 33.9757 14.1268 33.7642C14.1788 33.5526 14.2049 33.328 14.2049 33.0903V32.978C14.2049 32.7437 14.1788 32.5223 14.1268 32.314C14.0779 32.1024 13.9998 31.9152 13.8924 31.7524C13.7882 31.5897 13.6548 31.4627 13.492 31.3716C13.3325 31.2772 13.1421 31.23 12.9207 31.23C12.6993 31.23 12.5073 31.2772 12.3445 31.3716C12.185 31.4627 12.0532 31.5897 11.949 31.7524C11.8449 31.9152 11.7684 32.1024 11.7195 32.314C11.6707 32.5223 11.6463 32.7437 11.6463 32.978ZM17.6496 31.396V35.6733H16.4729V30.3901H17.5959L17.6496 31.396ZM19.2658 30.356L19.2561 31.4497C19.1844 31.4367 19.1063 31.4269 19.0217 31.4204C18.9403 31.4139 18.8589 31.4106 18.7775 31.4106C18.5757 31.4106 18.3983 31.4399 18.2453 31.4985C18.0923 31.5539 17.9637 31.6353 17.8596 31.7427C17.7587 31.8468 17.6805 31.9738 17.6252 32.1235C17.5699 32.2733 17.5373 32.4409 17.5275 32.6265L17.259 32.646C17.259 32.314 17.2915 32.0063 17.3566 31.7231C17.4217 31.4399 17.5194 31.1909 17.6496 30.9761C17.7831 30.7612 17.9491 30.5936 18.1477 30.4731C18.3495 30.3527 18.5822 30.2925 18.8459 30.2925C18.9175 30.2925 18.994 30.299 19.0754 30.312C19.16 30.325 19.2235 30.3397 19.2658 30.356ZM22.3346 35.771C21.9439 35.771 21.5908 35.7075 21.275 35.5806C20.9625 35.4504 20.6956 35.2697 20.4742 35.0386C20.2561 34.8075 20.0885 34.5356 19.9713 34.2231C19.8541 33.9106 19.7955 33.5737 19.7955 33.2124V33.0171C19.7955 32.6037 19.8557 32.2293 19.9762 31.894C20.0966 31.5588 20.2643 31.2723 20.4791 31.0347C20.6939 30.7938 20.9479 30.6099 21.2408 30.4829C21.5338 30.356 21.8512 30.2925 22.193 30.2925C22.5706 30.2925 22.901 30.356 23.1842 30.4829C23.4674 30.6099 23.7018 30.7889 23.8873 31.02C24.0761 31.2479 24.2161 31.5197 24.3072 31.8354C24.4016 32.1512 24.4488 32.4995 24.4488 32.8804V33.3833H20.3668V32.5386H23.2867V32.4458C23.2802 32.2342 23.2379 32.0356 23.1598 31.8501C23.0849 31.6646 22.9693 31.5148 22.8131 31.4009C22.6568 31.2869 22.4485 31.23 22.1881 31.23C21.9928 31.23 21.8186 31.2723 21.6656 31.3569C21.5159 31.4383 21.3906 31.5571 21.2896 31.7134C21.1887 31.8696 21.1106 32.0584 21.0553 32.2798C21.0032 32.4979 20.9771 32.7437 20.9771 33.0171V33.2124C20.9771 33.4435 21.0081 33.6584 21.0699 33.8569C21.135 34.0522 21.2294 34.2231 21.3531 34.3696C21.4768 34.5161 21.6266 34.6317 21.8023 34.7163C21.9781 34.7977 22.1783 34.8384 22.4029 34.8384C22.6861 34.8384 22.9384 34.7814 23.1598 34.6675C23.3811 34.5535 23.5732 34.3924 23.7359 34.1841L24.3561 34.7847C24.2421 34.9507 24.094 35.1102 23.9117 35.2632C23.7294 35.4129 23.5064 35.535 23.2428 35.6294C22.9824 35.7238 22.6796 35.771 22.3346 35.771Z" fill="white"/>
<rect x="1.10486" y="4.64648" width="23.7903" height="15.5269" rx="0.5" stroke="white"/>
<path d="M1.42507 4.50149L19.436 1.38106" stroke="white" stroke-linecap="round"/>
<path d="M19.5046 1.32666C18.6338 1.84529 17.4146 3.21719 19.5046 4.55578" stroke="white" stroke-linecap="round"/>
<line x1="2.70071" y1="9.00357" x2="18.1608" y2="9.00357" stroke="white" stroke-width="0.7" stroke-linecap="round"/>
<line x1="2.70071" y1="12.3485" x2="12.6504" y2="12.3485" stroke="white" stroke-width="0.7" stroke-linecap="round"/>
<line x1="2.70071" y1="15.6935" x2="9.62244" y2="15.6935" stroke="white" stroke-width="0.7" stroke-linecap="round"/>
</svg>
