<svg width="42" height="50" viewBox="0 0 42 50" fill="none" xmlns="http://www.w3.org/2000/svg">
<path d="M21 29.1748C25.5563 29.1748 29.25 25.4812 29.25 20.9248C29.25 16.3685 25.5563 12.6748 21 12.6748C16.4437 12.6748 12.75 16.3685 12.75 20.9248C12.75 25.4812 16.4437 29.1748 21 29.1748Z" stroke="#F4A259" stroke-width="4" stroke-linecap="round" stroke-linejoin="round"/>
<path d="M5.89738 31.5503C5.91342 31.5703 5.92984 31.59 5.94663 31.6093L19.4883 47.2343C19.8682 47.6727 20.4196 47.9245 20.9997 47.9245C21.5797 47.9245 22.1312 47.6727 22.5111 47.2343L36.0527 31.6093C36.0695 31.59 36.0859 31.5703 36.102 31.5503C37.3612 29.9791 38.275 28.4143 38.8601 26.6491C39.4422 24.8928 39.6663 23.0365 39.6663 20.9245C39.6663 15.9738 37.6997 11.2258 34.199 7.72515C30.6983 4.22447 25.9504 2.25781 20.9997 2.25781C16.049 2.25781 11.301 4.22447 7.80035 7.72515C4.29967 11.2258 2.33301 15.9738 2.33301 20.9245C2.33301 23.0365 2.55711 24.8928 3.13927 26.6491C3.72439 28.4143 4.63813 29.9791 5.89738 31.5503Z" stroke="#F4A259" stroke-width="4" stroke-linecap="round" stroke-linejoin="round"/>
</svg>
