<svg class="def-store" width="84" height="84" padding="10px" viewBox="0 0 84 84" fill="none" xmlns="http://www.w3.org/2000/svg">
<path d="M8.44918 5.47989C7.07106 5.90645 5.93902 6.85801 5.31559 8.05566C5.10231 8.51504 3.88824 12.9775 2.44449 18.7361C0.0491807 28.3174 -0.0328506 28.6619 0.0655869 29.8924C0.524962 36.3072 5.51246 41.508 11.5992 41.9346C15.1757 42.1971 18.6047 40.8518 21.2132 38.1775L22.3125 37.0291L23.4281 38.1611C28.3664 43.2471 35.9461 43.2471 40.9007 38.1611L42 37.0291L43.1156 38.1611C48.0539 43.2471 55.6336 43.2471 60.5882 38.1611L61.6875 37.0291L62.8031 38.1775C65.3953 40.8518 68.8242 42.1971 72.4007 41.9346C78.4875 41.508 83.475 36.3072 83.9343 29.8924C84.0328 28.6619 83.9508 28.3174 81.5554 18.7361C80.1117 12.9775 78.8976 8.51504 78.6843 8.05566C78.2086 7.12051 77.175 6.15254 76.1414 5.67676L75.3867 5.33223L42.2461 5.29942C15.9304 5.28301 8.97418 5.31582 8.44918 5.47989Z" fill="#AAAAAA"/>
<path d="M21.2461 44.8221C20.1797 45.4947 18.0633 46.3478 16.4883 46.758C13.2398 47.5947 8.97422 47.2338 5.85703 45.8721L5.25 45.6096L5.28281 60.1619L5.33203 74.7307L5.75859 75.6494C6.3 76.8143 7.18594 77.7002 8.35078 78.2416L9.26953 78.6682L20.393 78.7174L31.5 78.7666L43.1156 78.6682H46.4502L50.7568 78.7666H52.5L63.6234 78.7174L74.7305 78.6682L75.6492 78.2416C76.8141 77.7002 77.7 76.8143 78.2414 75.6494L78.668 74.7307L78.7172 60.1619L78.75 45.6096L78.143 45.8721C75.9773 46.8236 72.7453 47.365 70.3008 47.1846C67.7906 47.0205 64.8539 46.1018 62.8195 44.8549C62.3109 44.5596 61.8023 44.2971 61.6875 44.2971C61.5891 44.2971 61.0805 44.5432 60.5719 44.8385C55.4367 47.8408 48.2508 47.8408 43.1156 44.8385C42.607 44.5432 42.0984 44.2971 42 44.2971C41.9016 44.2971 41.393 44.5432 40.8844 44.8385C35.7492 47.8408 28.5633 47.8408 23.4281 44.8385C22.9195 44.5432 22.4109 44.2971 22.2797 44.2971C22.1648 44.2971 21.7055 44.5432 21.2461 44.8221Z" fill="#AAAAAA"/>
</svg>
