<svg width="48" height="49" viewBox="0 0 48 49" fill="none" xmlns="http://www.w3.org/2000/svg">
<g opacity="0.5">
<g clip-path="url(#clip0_619_4138)">
<path d="M5.54067 3.04419C4.68989 3.26763 4.04536 3.65435 3.37505 4.32466C2.71333 5.00356 2.39536 5.54497 2.17192 6.44732C2.00005 7.09185 2.00005 7.4356 2.00005 20.2231C2.00005 34.7293 1.97427 33.9731 2.55864 35.0903C3.11723 36.1559 4.18286 37.0497 5.34302 37.4364C5.90161 37.6254 6.00474 37.6254 11.7969 37.6598L17.6922 37.6856L19.5227 41.3551C20.5282 43.3747 21.525 45.2567 21.7227 45.5489C22.9602 47.2848 25.0399 47.2848 26.2774 45.5489C26.475 45.2567 27.4719 43.3747 28.4774 41.3551L30.3079 37.6856L36.2032 37.6598C42.7516 37.6254 42.4336 37.6512 43.5852 37.0153C44.6938 36.4051 45.6133 35.159 45.8711 33.9215C45.9743 33.4317 46 31.2747 46 20.2231C46 7.41841 46 7.09185 45.8282 6.44732C45.6047 5.56216 45.2352 4.92622 44.5477 4.24731C43.8774 3.58559 43.3274 3.27622 42.425 3.04419C41.7719 2.87231 41.4196 2.87231 23.9657 2.88091C6.69224 2.88091 6.15083 2.8895 5.54067 3.04419ZM41.9868 5.58794C42.2274 5.67388 42.5454 5.88013 42.7688 6.10357C43.4735 6.80825 43.4305 5.67388 43.4047 20.4036L43.379 33.509L43.1899 33.8614C43.0868 34.0504 42.8547 34.3426 42.6829 34.4973C42.0125 35.0817 42.4079 35.0473 35.3868 35.0989C29.4657 35.1418 29.0016 35.1504 28.7868 35.2965C28.6063 35.4083 28.0305 36.4825 26.4579 39.6364C25.3063 41.9395 24.2836 43.9161 24.1805 44.0364L24 44.2512L23.8196 44.0364C23.7165 43.9161 22.6938 41.9395 21.5422 39.6364C19.9696 36.4825 19.3938 35.4083 19.2133 35.2965C18.9985 35.1504 18.5344 35.1418 12.6133 35.0989C6.72661 35.0559 6.22817 35.0473 5.9102 34.9012C5.48052 34.7036 5.05083 34.2997 4.8102 33.8528L4.62114 33.509L4.59536 20.4036C4.56958 5.67388 4.52661 6.79107 5.2227 6.09497C5.90161 5.40747 4.2602 5.46762 23.9657 5.45903C39.9157 5.45044 41.6258 5.46762 41.9868 5.58794Z" fill="#4F5052" stroke="#4F5052" stroke-width="0.5"/>
<path d="M23.3984 8.42391C22.9945 8.50125 22.1523 8.82782 21.8172 9.04266C20.975 9.57547 20.2531 10.6153 20.0469 11.5864C19.9867 11.8958 19.9609 13.245 19.9781 15.6942C20.0039 19.2778 20.0039 19.338 20.2102 19.8278C20.6484 20.9364 21.6711 21.8989 22.7711 22.2598C23.45 22.4747 24.5586 22.4747 25.2461 22.2513C26.3289 21.8989 27.3516 20.9364 27.7898 19.8278C27.9961 19.338 27.9961 19.2778 28.0219 15.6942C28.0391 13.245 28.0133 11.8958 27.9531 11.5864C27.6695 10.2286 26.6125 9.06844 25.2375 8.59579C24.8078 8.44969 23.7852 8.35516 23.3984 8.42391ZM24.5586 11.1138C24.9539 11.2942 25.2375 11.5778 25.3664 11.9216C25.5125 12.3083 25.4953 18.6161 25.3406 18.9684C25.1773 19.3638 24.6789 19.7763 24.275 19.845C23.5961 19.9567 22.8656 19.5528 22.6336 18.9169C22.5047 18.5817 22.5047 12.2567 22.6336 11.9216C22.8141 11.4317 23.493 10.9505 24 10.9505C24.1203 10.9505 24.3695 11.0278 24.5586 11.1138Z" fill="#4F5052"/>
<path d="M23.0805 25.5083C22.0149 25.7661 20.9493 26.5739 20.4594 27.502C19.6344 29.0317 19.8579 30.8708 21.0094 32.134C21.8258 33.0278 22.8055 33.4661 24.0001 33.4661C26.6383 33.4661 28.5719 30.9825 27.9102 28.4387C27.3602 26.3247 25.1774 25.0012 23.0805 25.5083ZM24.4899 28.0606C25.3063 28.3614 25.6844 29.3411 25.2891 30.1145C25.0227 30.6387 24.6618 30.845 24.0001 30.845C23.3383 30.845 22.9774 30.6387 22.711 30.1145C22.118 28.9458 23.2782 27.6051 24.4899 28.0606Z" fill="#4F5052"/>
</g>
</g>
<defs>
<clipPath id="clip0_619_4138">
<rect width="44" height="44" fill="white" transform="translate(2 2.87231)"/>
</clipPath>
</defs>
</svg>
