<svg width="85" height="24" viewBox="0 0 85 24" fill="none" xmlns="http://www.w3.org/2000/svg">
<path d="M9.99996 2.66663C5.40496 2.66663 1.66663 6.40496 1.66663 11V14.4525C1.66663 15.3058 2.41413 16 3.33329 16H4.16663C4.38764 16 4.5996 15.9122 4.75588 15.7559C4.91216 15.5996 4.99996 15.3876 4.99996 15.1666V10.8808C4.99996 10.6598 4.91216 10.4478 4.75588 10.2915C4.5996 10.1353 4.38764 10.0475 4.16663 10.0475H3.40996C3.87329 6.82246 6.64829 4.33329 9.99996 4.33329C13.3516 4.33329 16.1266 6.82246 16.59 10.0475H15.8333C15.6123 10.0475 15.4003 10.1353 15.244 10.2915C15.0878 10.4478 15 10.6598 15 10.8808V16C15 16.9191 14.2525 17.6666 13.3333 17.6666H11.6666V16.8333H8.33329V19.3333H13.3333C15.1716 19.3333 16.6666 17.8383 16.6666 16C17.5858 16 18.3333 15.3058 18.3333 14.4525V11C18.3333 6.40496 14.595 2.66663 9.99996 2.66663Z" fill="#00A64F"/>
<path d="M6.99086 13.952L6.99084 13.952C6.86635 13.9767 6.74145 13.9993 6.6162 14.0198L6.61584 14.0199C6.42777 14.05 6.29645 13.8568 6.36581 13.6935M6.99086 13.952L6.45785 13.7326M6.99086 13.952C7.91486 13.7686 8.49709 13.5283 8.78864 13.3847L6.99086 13.952ZM6.36581 13.6935L6.45785 13.7326M6.36581 13.6935C6.3658 13.6935 6.3658 13.6935 6.36579 13.6935L6.45785 13.7326M6.36581 13.6935C6.41088 13.5872 6.45221 13.4794 6.48972 13.3702M6.45785 13.7326C6.5041 13.6235 6.54649 13.5129 6.58494 13.4008M6.48972 13.3702L6.48915 13.3721L6.58494 13.4008M6.48972 13.3702C6.48993 13.3696 6.49014 13.369 6.49035 13.3683L6.58494 13.4008M6.48972 13.3702L6.49072 13.3669L6.49187 13.363L6.49195 13.363C6.61417 13.0082 6.71413 12.6034 6.75515 12.2245C6.11935 11.5715 5.73337 10.7217 5.73337 9.79195C5.73337 7.71105 7.65673 6.04612 10 6.04612C12.3433 6.04612 14.2667 7.71105 14.2667 9.79195C14.2667 11.8728 12.3434 13.5377 10.0002 13.5378C10.0001 13.5378 10.0001 13.5378 10 13.5378L6.58494 13.4008M7.29901 11.7495L7.29898 11.7495C6.76301 11.212 6.45421 10.5273 6.45421 9.79195C6.45421 8.19626 7.96167 6.76695 10 6.76695C12.0384 6.76695 13.5459 8.19626 13.5459 9.79195C13.5459 11.3882 12.0384 12.817 10 12.817H9.99988C9.64132 12.8175 9.28424 12.771 8.93778 12.6787C8.79022 12.6392 8.6333 12.6556 8.49705 12.7246C8.31798 12.8153 7.9339 12.9853 7.31293 13.1416C7.39089 12.8484 7.44579 12.5495 7.47711 12.2476L7.47719 12.2468C7.48589 12.1559 7.47443 12.0642 7.44363 11.9782C7.41283 11.8923 7.36345 11.8142 7.29901 11.7495ZM6.97139 13.8539C6.84799 13.8784 6.72419 13.9008 6.60004 13.9211L6.97139 13.8539Z" fill="#00A64F" stroke="#00A64F" stroke-width="0.2"/>
<path d="M32.266 14.438C32.266 14.9047 32.154 15.3387 31.93 15.74C31.706 16.1413 31.3653 16.468 30.908 16.72C30.4507 16.972 29.886 17.098 29.214 17.098C28.5607 17.098 27.9773 16.9813 27.464 16.748C26.96 16.5053 26.554 16.1787 26.246 15.768C25.9473 15.348 25.7747 14.872 25.728 14.34H27.086C27.114 14.62 27.2073 14.8953 27.366 15.166C27.534 15.4273 27.7673 15.6467 28.066 15.824C28.374 15.992 28.7427 16.076 29.172 16.076C29.732 16.076 30.1613 15.9267 30.46 15.628C30.7587 15.3293 30.908 14.9467 30.908 14.48C30.908 14.0787 30.8007 13.752 30.586 13.5C30.3807 13.248 30.124 13.052 29.816 12.912C29.508 12.7627 29.088 12.604 28.556 12.436C27.9307 12.2307 27.4267 12.0393 27.044 11.862C26.6707 11.6753 26.3487 11.4 26.078 11.036C25.8167 10.672 25.686 10.1913 25.686 9.594C25.686 9.08067 25.8073 8.628 26.05 8.236C26.302 7.844 26.6567 7.54067 27.114 7.326C27.5807 7.11133 28.1267 7.004 28.752 7.004C29.7227 7.004 30.4927 7.242 31.062 7.718C31.6313 8.18467 31.9627 8.782 32.056 9.51H30.684C30.6093 9.118 30.4087 8.77267 30.082 8.474C29.7553 8.17533 29.312 8.026 28.752 8.026C28.2387 8.026 27.828 8.16133 27.52 8.432C27.212 8.69333 27.058 9.06667 27.058 9.552C27.058 9.93467 27.156 10.2473 27.352 10.49C27.5573 10.7233 27.8093 10.91 28.108 11.05C28.4067 11.1807 28.8173 11.33 29.34 11.498C29.9747 11.7033 30.4833 11.8993 30.866 12.086C31.258 12.2727 31.5893 12.5573 31.86 12.94C32.1307 13.3133 32.266 13.8127 32.266 14.438ZM35.183 7.13V13.052C35.183 14.0227 35.3977 14.7413 35.827 15.208C36.2564 15.6653 36.849 15.894 37.605 15.894C38.3517 15.894 38.935 15.6607 39.355 15.194C39.775 14.7273 39.985 14.0133 39.985 13.052V7.13H41.259V13.052C41.259 14.396 40.923 15.4087 40.251 16.09C39.5884 16.762 38.697 17.098 37.577 17.098C36.4664 17.098 35.575 16.762 34.903 16.09C34.2404 15.4087 33.909 14.396 33.909 13.052V7.13H35.183ZM44.5089 13.024V17H43.2349V7.13H46.3709C47.5002 7.13 48.3449 7.396 48.9049 7.928C49.4649 8.45067 49.7449 9.16933 49.7449 10.084C49.7449 11.008 49.4556 11.7313 48.8769 12.254C48.2982 12.7673 47.4629 13.024 46.3709 13.024H44.5089ZM46.2589 11.96C47.0336 11.96 47.5889 11.7967 47.9249 11.47C48.2702 11.1433 48.4429 10.6813 48.4429 10.084C48.4429 9.468 48.2702 9.00133 47.9249 8.684C47.5889 8.35733 47.0336 8.194 46.2589 8.194H44.5089V11.96H46.2589ZM52.5069 13.024V17H51.2329V7.13H54.3689C55.4983 7.13 56.3429 7.396 56.9029 7.928C57.4629 8.45067 57.7429 9.16933 57.7429 10.084C57.7429 11.008 57.4536 11.7313 56.8749 12.254C56.2963 12.7673 55.4609 13.024 54.3689 13.024H52.5069ZM54.2569 11.96C55.0316 11.96 55.5869 11.7967 55.9229 11.47C56.2683 11.1433 56.4409 10.6813 56.4409 10.084C56.4409 9.468 56.2683 9.00133 55.9229 8.684C55.5869 8.35733 55.0316 8.194 54.2569 8.194H52.5069V11.96H54.2569ZM63.753 7.004C64.6677 7.004 65.489 7.21867 66.217 7.648C66.9543 8.07733 67.533 8.67933 67.953 9.454C68.373 10.2193 68.583 11.0873 68.583 12.058C68.583 13.0287 68.373 13.9013 67.953 14.676C67.533 15.4413 66.9543 16.0387 66.217 16.468C65.489 16.8973 64.6677 17.112 63.753 17.112C62.8383 17.112 62.0077 16.8973 61.261 16.468C60.5237 16.0387 59.945 15.4413 59.525 14.676C59.105 13.9013 58.895 13.0287 58.895 12.058C58.895 11.0873 59.105 10.2193 59.525 9.454C59.945 8.67933 60.5237 8.07733 61.261 7.648C62.0077 7.21867 62.8383 7.004 63.753 7.004ZM63.753 8.194C63.0717 8.194 62.4603 8.35267 61.919 8.67C61.387 8.978 60.967 9.426 60.659 10.014C60.3603 10.5927 60.211 11.274 60.211 12.058C60.211 12.8327 60.3603 13.514 60.659 14.102C60.967 14.69 61.387 15.1427 61.919 15.46C62.4603 15.768 63.0717 15.922 63.753 15.922C64.425 15.922 65.027 15.7633 65.559 15.446C66.1003 15.1287 66.5203 14.6807 66.819 14.102C67.127 13.514 67.281 12.8327 67.281 12.058C67.281 11.274 67.127 10.5927 66.819 10.014C66.5203 9.426 66.1003 8.978 65.559 8.67C65.027 8.35267 64.425 8.194 63.753 8.194ZM75.5412 17L72.9652 12.968H71.5792V17H70.3052V7.13H73.5532C74.6732 7.13 75.5132 7.40067 76.0732 7.942C76.6332 8.474 76.9132 9.18333 76.9132 10.07C76.9132 10.8727 76.6892 11.5213 76.2412 12.016C75.7932 12.5013 75.1445 12.8047 74.2952 12.926L76.9832 17H75.5412ZM71.5792 12.044H73.4412C74.8879 12.044 75.6112 11.4093 75.6112 10.14C75.6112 8.87067 74.8879 8.236 73.4412 8.236H71.5792V12.044ZM84.5153 7.13V8.166H81.7293V17H80.4553V8.166H77.6693V7.13H84.5153Z" fill="#00A64F"/>
</svg>
