<svg width="48" height="49" viewBox="0 0 48 49" fill="none" xmlns="http://www.w3.org/2000/svg">
<path d="M4.64847 12.8258L4.64848 12.8256C4.72296 9.96313 6.24181 7.81736 8.40047 6.61149M4.64847 12.8258L21.4757 43.1338C23.8227 44.6992 26.4233 44.7421 28.6405 43.7216C30.8198 42.7187 32.5759 40.7221 33.4865 38.2605C33.7206 37.6279 33.8147 36.952 33.7621 36.2794C33.7096 35.6069 33.5117 34.9538 33.1821 34.3652L33.1821 34.3651L30.8925 30.2804C30.8925 30.2804 30.8925 30.2803 30.8925 30.2803C30.1593 28.9708 28.9794 27.9688 27.5684 27.4574C26.1574 26.9461 24.6095 26.9596 23.2075 27.4954L23.2074 27.4955L21.6094 28.1073C20.9009 28.3771 20.2993 28.2357 19.9829 27.9231L19.9824 27.9226C18.6635 26.627 17.7158 24.8639 17.2863 22.958L17.2862 22.9577C17.1733 22.4593 17.3975 21.8276 18.0139 21.362L18.0139 21.362L19.4562 20.2725C20.6709 19.3559 21.5094 18.0277 21.8146 16.5369C22.1197 15.0461 21.8705 13.4951 21.1137 12.175L21.1137 12.175L18.7809 8.10698L18.7808 8.10692C18.4551 7.53926 18.0185 7.04293 17.497 6.64747C16.9756 6.25205 16.3799 5.96555 15.7455 5.80503C13.196 5.15786 10.5131 5.42908 8.40047 6.61149M4.64847 12.8258C4.53688 17.1974 5.54964 23.0463 9.54724 29.8973M4.64847 12.8258L9.54724 29.8973M8.40047 6.61149L8.52239 6.82974L8.40029 6.61159C8.40035 6.61156 8.40041 6.61152 8.40047 6.61149ZM7.55492 12.7415L7.55071 12.9035C7.45113 16.7276 8.32707 22.0434 12.0503 28.4357L7.55492 12.7415ZM7.55492 12.7415C7.64902 11.0642 8.52117 9.86768 9.8157 9.1431L9.81571 9.14309C11.1977 8.36944 13.1035 8.12495 15.032 8.61524L15.0324 8.61533C15.2903 8.68048 15.5325 8.79689 15.7445 8.95763C15.9565 9.11837 16.134 9.32014 16.2663 9.55092L18.5967 13.6188L18.5967 13.6189C19.0023 14.3262 19.136 15.1572 18.9728 15.956C18.8096 16.7549 18.3606 17.4668 17.7101 17.9583C17.7101 17.9583 17.7101 17.9583 17.7101 17.9583L16.2679 19.0477C16.2679 19.0477 16.2678 19.0478 16.2678 19.0478C14.9616 20.0325 14.0358 21.7377 14.4561 23.5961C14.9986 25.9954 16.1987 28.2739 17.9496 29.9929L17.9497 29.993C19.2912 31.3088 21.1888 31.3732 22.6446 30.816L22.6446 30.816L24.243 30.204C24.9945 29.9164 25.8244 29.9088 26.581 30.1828C27.3376 30.4567 27.9703 30.9938 28.3635 31.6959L30.6506 35.783L30.6507 35.7832C30.9029 36.2329 30.9449 36.7709 30.7663 37.2543L30.7663 37.2543C30.0906 39.0834 28.8253 40.4423 27.4282 41.0859C26.0695 41.7117 24.5422 41.6947 23.0853 40.7211L23.0851 40.7209C19.8264 38.5485 15.7752 34.8158 12.0504 28.4359L7.55492 12.7415ZM9.54724 29.8973C13.4904 36.6573 17.8487 40.7174 21.4757 43.1337L9.54724 29.8973ZM30.7047 5.69926L30.7047 5.69925C30.3686 5.51235 29.972 5.46663 29.6022 5.57214C29.2324 5.67764 28.9196 5.92574 28.7327 6.26185C28.5458 6.59796 28.5001 6.99454 28.6056 7.36436C28.7111 7.73418 28.9592 8.04694 29.2953 8.23384L30.2167 8.74732L30.217 8.74749C33.0608 10.3273 35.4798 12.5721 37.2673 15.2901C39.0548 18.0081 40.1577 21.1185 40.4816 24.3554L40.4817 24.3558L40.5579 25.1064C40.5695 25.2999 40.6198 25.4891 40.7059 25.6628C40.7927 25.8383 40.9143 25.9944 41.0631 26.1216C41.212 26.2489 41.3851 26.3447 41.5719 26.4032C41.7588 26.4617 41.9556 26.4818 42.1505 26.4622C42.3453 26.4426 42.5342 26.3837 42.7056 26.2891C42.8771 26.1945 43.0276 26.0662 43.1482 25.9119C43.2687 25.7575 43.3567 25.5804 43.4069 25.3911C43.4566 25.2037 43.4682 25.0084 43.441 24.8165L43.3672 24.0684L43.3672 24.0681C42.997 20.3645 41.7354 16.8057 39.6903 13.6959C37.6453 10.5861 34.8776 8.01774 31.6239 6.21046C31.6239 6.21044 31.6238 6.21042 31.6238 6.21039L30.7047 5.69926ZM27.5561 12.2209L27.3284 12.5997H27.3993C27.386 12.6505 27.3755 12.702 27.3678 12.7541C27.3398 12.9425 27.3493 13.1345 27.3956 13.3193C27.442 13.504 27.5242 13.6778 27.6377 13.8308L27.825 13.6917L27.6377 13.8308C27.7511 13.9835 27.8935 14.1125 28.0567 14.2103C28.0568 14.2104 28.057 14.2105 28.0572 14.2106L28.3538 14.3901L28.3545 14.3905C29.9619 15.3552 31.3407 16.6573 32.3957 18.207C33.4506 19.7566 34.1565 21.5169 34.4646 23.366L34.4647 23.3665L34.5722 24.0044C34.5998 24.1946 34.6649 24.3774 34.7638 24.5423C34.8633 24.7081 34.995 24.8523 35.151 24.9665C35.307 25.0806 35.4844 25.1624 35.6725 25.2071C35.8606 25.2517 36.0558 25.2583 36.2465 25.2263C36.4372 25.1944 36.6196 25.1247 36.7829 25.0212C36.9463 24.9178 37.0873 24.7827 37.1977 24.624C37.308 24.4652 37.3856 24.286 37.4257 24.0969C37.4655 23.9089 37.4676 23.7148 37.4318 23.526L37.3267 22.8883L37.3266 22.8878C36.9489 20.6241 36.0841 18.4695 34.7919 16.5728C33.4998 14.6761 31.8113 13.0826 29.8429 11.9025L29.8425 11.9023L29.5455 11.725C29.5454 11.725 29.5453 11.7249 29.5452 11.7248C29.2157 11.527 28.8211 11.4681 28.4481 11.5611C28.0751 11.6541 27.7542 11.8914 27.5561 12.2209Z" fill="#4F5052" stroke="#4F5052" stroke-width="0.5"/>
</svg>
