<svg width="24" height="20" viewBox="0 0 24 20" fill="none" xmlns="http://www.w3.org/2000/svg">
<path d="M3.23438 0.5125C1.55157 0.840625 0.370315 1.99844 0.0656279 3.625C-0.0234346 4.08906 2.90945e-06 4.79688 0.121878 5.24219C0.225003 5.63594 0.478128 6.16094 0.721878 6.49844C0.834378 6.65781 1.57969 7.43594 2.37657 8.23281L3.82032 9.67188L5.34844 8.13906C6.975 6.50781 7.12032 6.325 7.38281 5.62656C8.15625 3.56406 6.98907 1.23438 4.875 0.625C4.52813 0.526562 3.52969 0.456249 3.23438 0.5125ZM4.31719 3.20312C4.71094 3.40469 4.96875 3.82187 4.96875 4.25781C4.96875 5.13437 4.0125 5.70625 3.23907 5.28906C2.83125 5.06406 2.625 4.71719 2.625 4.24375C2.625 3.38125 3.54844 2.81406 4.31719 3.20312Z" fill="white"/>
<path d="M7.26563 8.96406C7.26563 9.35498 7.58253 9.67188 7.97344 9.67188H9.67032C12.3234 9.67188 12.5016 9.69063 12.9281 9.95312C14.1188 10.6844 14.0156 12.4141 12.75 13.0187L12.4453 13.1641L8.60157 13.1922C4.30782 13.2203 4.59375 13.1969 3.84375 13.5672C3.07032 13.9516 2.44219 14.7437 2.22188 15.625C2.05782 16.2672 2.15625 17.1859 2.45625 17.7719C2.86407 18.5781 3.64688 19.1969 4.5375 19.4266C4.875 19.5109 5.11407 19.5156 10.8141 19.5156H16.0313C16.4196 19.5156 16.7344 19.2008 16.7344 18.8125C16.7344 18.424 16.4198 18.1089 16.0313 18.1083L10.7953 18.1L4.85157 18.0859L4.56563 17.9547C4.11563 17.7484 3.73125 17.2937 3.60469 16.8344C3.37032 15.9672 3.82969 15.0672 4.67813 14.725L4.94532 14.6172L8.8125 14.5938L12.6797 14.5656L13.05 14.4344C14.0156 14.0828 14.775 13.2766 15.075 12.2734C15.2063 11.8375 15.1969 11.0172 15.0563 10.5625C14.7234 9.48906 13.9125 8.69687 12.8203 8.37812C12.5719 8.30312 12.2484 8.29375 9.90469 8.27969L7.96874 8.26593C7.58123 8.26318 7.26563 8.57655 7.26563 8.96406Z" fill="white"/>
<path d="M19.3922 10.4031C18.2344 10.6609 17.2734 11.4156 16.7578 12.475C16.2047 13.6047 16.2563 14.9594 16.9031 16.0703C17.0906 16.3891 17.3437 16.6703 18.6516 17.9828L20.1797 19.5156L21.6469 18.0531C22.4578 17.2469 23.2031 16.4641 23.3062 16.3094C24.7969 14.1484 23.7422 11.1953 21.225 10.4641C20.7656 10.3328 19.8422 10.3 19.3922 10.4031ZM20.4234 12.9531C20.7516 13.0281 21.0562 13.2672 21.2109 13.5812C21.3187 13.8062 21.3375 13.8859 21.3187 14.1672C21.2953 14.5891 21.1219 14.8844 20.775 15.0906C20.4562 15.2828 20.1797 15.325 19.8609 15.2312C18.6844 14.8891 18.7078 13.2391 19.8984 12.9484C20.1047 12.9016 20.175 12.9016 20.4234 12.9531Z" fill="white"/>
</svg>
