<svg width="24" height="24" viewBox="0 0 24 24" fill="none" xmlns="http://www.w3.org/2000/svg">
<path d="M21.056 11.9999H19.056C18.7908 11.9999 18.5364 12.1052 18.3489 12.2928C18.1614 12.4803 18.056 12.7347 18.056 12.9999C18.056 13.2651 18.1614 13.5195 18.3489 13.707C18.5364 13.8945 18.7908 13.9999 19.056 13.9999V15.9999H17.87C17.9888 15.6797 18.0514 15.3414 18.055 14.9999C18.055 14.3395 17.837 13.6976 17.435 13.1737C17.033 12.6498 16.4693 12.2732 15.8315 12.1022C15.1936 11.9313 14.5171 11.9756 13.907 12.2283C13.2969 12.481 12.7872 12.928 12.457 13.4999C12.3903 13.6137 12.3468 13.7395 12.3289 13.8702C12.311 14.0008 12.3192 14.1337 12.3529 14.2612C12.3866 14.3887 12.4452 14.5083 12.5253 14.6131C12.6054 14.7178 12.7055 14.8057 12.8197 14.8716C12.9339 14.9376 13.06 14.9803 13.1908 14.9973C13.3216 15.0143 13.4544 15.0052 13.5817 14.9707C13.709 14.9361 13.8281 14.8768 13.9324 14.7959C14.0366 14.7151 14.1238 14.6145 14.189 14.4999C14.2768 14.3479 14.403 14.2216 14.555 14.1339C14.707 14.0461 14.8795 13.9999 15.055 13.9999C15.3202 13.9999 15.5746 14.1052 15.7621 14.2928C15.9496 14.4803 16.055 14.7347 16.055 14.9999C16.055 15.2651 15.9496 15.5195 15.7621 15.707C15.5746 15.8945 15.3202 15.9999 15.055 15.9999C14.7898 15.9999 14.5354 16.1052 14.3479 16.2928C14.1604 16.4803 14.055 16.7347 14.055 16.9999C14.055 17.2651 14.1604 17.5195 14.3479 17.707C14.5354 17.8945 14.7898 17.9999 15.055 17.9999C15.3202 17.9999 15.5746 18.1052 15.7621 18.2928C15.9496 18.4803 16.055 18.7347 16.055 18.9999C16.055 19.2651 15.9496 19.5195 15.7621 19.707C15.5746 19.8945 15.3202 19.9999 15.055 19.9999C14.8795 19.9999 14.707 19.9537 14.555 19.8659C14.403 19.7781 14.2768 19.6519 14.189 19.4999C14.1238 19.3852 14.0366 19.2846 13.9324 19.2038C13.8281 19.123 13.709 19.0636 13.5817 19.0291C13.4544 18.9945 13.3216 18.9855 13.1908 19.0025C13.06 19.0195 12.9339 19.0622 12.8197 19.1281C12.7055 19.1941 12.6054 19.2819 12.5253 19.3867C12.4452 19.4915 12.3866 19.611 12.3529 19.7385C12.3192 19.866 12.311 19.9989 12.3289 20.1296C12.3468 20.2603 12.3903 20.3861 12.457 20.4999C12.7872 21.0718 13.2969 21.5187 13.907 21.7714C14.5171 22.0241 15.1936 22.0684 15.8315 21.8975C16.4693 21.7266 17.033 21.35 17.435 20.8261C17.837 20.3022 18.055 19.6603 18.055 18.9999C18.0514 18.6584 17.9888 18.3201 17.87 17.9999H19.055V20.9999C19.055 21.2651 19.1604 21.5195 19.3479 21.707C19.5354 21.8945 19.7898 21.9999 20.055 21.9999C20.3202 21.9999 20.5746 21.8945 20.7621 21.707C20.9496 21.5195 21.055 21.2651 21.055 20.9999V13.9999C21.3202 13.9999 21.5746 13.8945 21.7621 13.707C21.9496 13.5195 22.055 13.2651 22.055 12.9999C22.055 12.7347 21.9496 12.4803 21.7621 12.2928C21.5746 12.1052 21.3202 11.9999 21.055 11.9999H21.056ZM9.086 11.2429C9.11714 11.3711 9.17334 11.4918 9.25136 11.5982C9.32938 11.7046 9.42768 11.7945 9.54059 11.8627C9.6535 11.9309 9.7788 11.9761 9.90926 11.9957C10.0397 12.0153 10.1728 12.0089 10.3007 11.9768C10.4287 11.9448 10.5491 11.8877 10.6549 11.8089C10.7607 11.7302 10.8499 11.6312 10.9173 11.5178C10.9847 11.4044 11.029 11.2788 11.0477 11.1482C11.0663 11.0176 11.059 10.8846 11.026 10.7569L9.269 3.72688C9.14609 3.23307 8.86151 2.79456 8.46057 2.48118C8.05963 2.1678 7.56538 1.99756 7.0565 1.99756C6.54761 1.99756 6.05336 2.1678 5.65242 2.48118C5.25148 2.79456 4.9669 3.23307 4.844 3.72688L3.086 10.7569C3.05302 10.8846 3.04565 11.0176 3.06431 11.1482C3.08296 11.2788 3.12727 11.4044 3.19469 11.5178C3.2621 11.6312 3.35129 11.7302 3.45711 11.8089C3.56293 11.8877 3.68329 11.9448 3.81125 11.9768C3.93922 12.0089 4.07227 12.0153 4.20273 11.9957C4.33319 11.9761 4.45849 11.9309 4.5714 11.8627C4.68431 11.7945 4.78261 11.7046 4.86063 11.5982C4.93865 11.4918 4.99485 11.3711 5.026 11.2429L5.585 8.99988H8.525L9.086 11.2429ZM6.086 6.99988L6.783 4.21288C6.80402 4.15749 6.84139 4.10981 6.89015 4.07616C6.93891 4.04251 6.99675 4.02449 7.056 4.02449C7.11524 4.02449 7.17308 4.04251 7.22184 4.07616C7.2706 4.10981 7.30797 4.15749 7.329 4.21288L8.026 6.99988H6.086ZM14.056 6.99988H15.056C15.3211 7.00015 15.5753 7.10559 15.7628 7.29307C15.9503 7.48055 16.0557 7.73475 16.056 7.99988V8.99988C16.056 9.2651 16.1614 9.51945 16.3489 9.70699C16.5364 9.89453 16.7908 9.99988 17.056 9.99988C17.3212 9.99988 17.5756 9.89453 17.7631 9.70699C17.9506 9.51945 18.056 9.2651 18.056 8.99988V7.99988C18.0552 7.20448 17.7389 6.44188 17.1764 5.87944C16.614 5.317 15.8514 5.00068 15.056 4.99988H14.056C13.7908 4.99988 13.5364 5.10524 13.3489 5.29278C13.1614 5.48031 13.056 5.73467 13.056 5.99988C13.056 6.2651 13.1614 6.51945 13.3489 6.70699C13.5364 6.89453 13.7908 6.99988 14.056 6.99988ZM10.056 15.9999H9.056C8.79086 15.9996 8.53666 15.8942 8.34918 15.7067C8.1617 15.5192 8.05626 15.265 8.056 14.9999V13.9999C8.056 13.7347 7.95064 13.4803 7.7631 13.2928C7.57557 13.1052 7.32121 12.9999 7.056 12.9999C6.79078 12.9999 6.53643 13.1052 6.34889 13.2928C6.16135 13.4803 6.056 13.7347 6.056 13.9999V14.9999C6.05679 15.7953 6.37312 16.5579 6.93555 17.1203C7.49799 17.6828 8.26059 17.9991 9.056 17.9999H10.056C10.3212 17.9999 10.5756 17.8945 10.7631 17.707C10.9506 17.5195 11.056 17.2651 11.056 16.9999C11.056 16.7347 10.9506 16.4803 10.7631 16.2928C10.5756 16.1052 10.3212 15.9999 10.056 15.9999Z" fill="#4F5052"/>
</svg>
