<svg width="21" height="21" viewBox="0 0 21 21" fill="none" xmlns="http://www.w3.org/2000/svg">
<path d="M20.19 19.19L1.81001 0.81L0.390015 2.22L2.66001 4.49C1.61001 6.07 1.00001 7.96 1.00001 10C1.00001 15.52 5.48001 20 11 20C13.04 20 14.93 19.39 16.51 18.34L18.78 20.61L20.19 19.19ZM9.59001 14.6L5.35001 10.36L6.76002 8.95L9.59001 11.78L9.77001 11.6L11.18 13.01L9.59001 14.6ZM12.59 8.76L5.49001 1.66C7.07001 0.61 8.96001 0 11 0C16.52 0 21 4.48 21 10C21 12.04 20.39 13.93 19.34 15.51L14 10.17L16.65 7.52L15.24 6.11L12.59 8.76Z" fill="#FF4A4A"/>
</svg>
