<svg width="12" height="14" viewBox="0 0 12 14" fill="none" xmlns="http://www.w3.org/2000/svg">
<path d="M6.38563 10.3291C6.59889 10.5572 6.59889 10.9258 6.38563 11.1539L4.04404 13.6582C3.83132 13.8857 3.55206 13.9994 3.27279 13.9994C2.99352 13.9994 2.71426 13.8857 2.50153 13.6582L0.159951 11.1539C-0.053317 10.9258 -0.053317 10.5572 0.159951 10.3291C0.373219 10.101 0.717938 10.101 0.931206 10.3291L2.72735 12.25V0.583333C2.72735 0.26075 2.9717 0 3.27279 0C3.57387 0 3.81823 0.26075 3.81823 0.583333V12.25L5.61437 10.3291C5.82764 10.101 6.17236 10.101 6.38563 10.3291ZM11.84 2.84608L9.49846 0.341833C9.07357 -0.112583 8.38085 -0.112583 7.95596 0.341833L5.61437 2.84608C5.4011 3.07417 5.4011 3.44283 5.61437 3.67092C5.82764 3.899 6.17236 3.899 6.38563 3.67092L8.18177 1.75V13.4167C8.18177 13.7392 8.42558 14 8.72721 14C9.02884 14 9.27265 13.7392 9.27265 13.4167V1.75L11.0688 3.67092C11.1752 3.78467 11.3148 3.84183 11.4544 3.84183C11.5941 3.84183 11.7337 3.78467 11.84 3.67092C12.0533 3.44283 12.0533 3.07417 11.84 2.84608Z" fill="#00A64F"/>
</svg>
