<svg width="60" height="60" viewBox="0 0 60 60" fill="none" xmlns="http://www.w3.org/2000/svg">
<g clip-path="url(#clip0_470_740)">
<mask id="path-1-outside-1_470_740" maskUnits="userSpaceOnUse" x="-0.0625" y="0.0471191" width="60" height="60" fill="black">
<rect fill="white" x="-0.0625" y="0.0471191" width="60" height="60"/>
<path d="M16.418 1.12501C15.4453 1.38282 14.4844 1.95704 13.793 2.6836C13.4531 3.04688 13.1133 3.42188 13.0547 3.52735C12.9961 3.63282 12.6328 3.76173 12.1875 3.84376C10.2773 4.1836 8.66016 5.50782 7.92187 7.33595C7.6875 7.89845 7.58203 8.01563 7.07812 8.25001C4.66406 9.38673 3.01172 11.8594 2.84766 14.5899C2.76562 15.9609 3.01172 17.0977 3.64453 18.3984C4.04297 19.1953 4.33594 19.582 5.09766 20.332L6.05859 21.2695L5.89453 21.7383C5.80078 21.9961 5.69531 22.6055 5.66016 23.0859C5.55469 24.5742 6.08203 26.0977 7.08984 27.1758L7.60547 27.7266L7.53516 28.5938C7.32422 31.3477 9.10547 33.8086 11.7891 34.5117C12.1641 34.6055 12.4687 34.6992 12.4805 34.7109C12.5391 34.8164 14.5312 40.4766 14.4961 40.4883C14.1914 40.6172 12.9961 41.8008 12.4922 42.457L11.8242 43.3359L11.3906 43.2305C7.83984 42.4453 6.63281 42.1875 6.36328 42.1875C5.68359 42.1875 5.09766 42.4453 4.55859 42.9961C3.91406 43.6289 3.70312 44.25 3.77344 45.2578C3.82031 45.8672 3.79687 45.9375 3.59766 45.9375C2.29687 45.9375 0.9375 47.3789 0.9375 48.75C0.9375 50.1211 2.29687 51.5625 3.59766 51.5625C3.79687 51.5625 3.82031 51.6328 3.77344 52.2422C3.70312 53.25 3.91406 53.8711 4.55859 54.5039C5.09766 55.0547 5.68359 55.3125 6.36328 55.3125C6.63281 55.3125 7.83984 55.0547 11.3906 54.2695L11.8242 54.1641L12.5391 55.1016C14.5898 57.75 17.918 59.2383 21.3164 59.0273C22.793 58.9336 54.8555 53.9766 55.5469 53.7305C56.3672 53.4375 56.9648 53.0391 57.6094 52.3594C59.8477 49.9922 59.3789 46.0547 56.6602 44.332C56.3672 44.1563 56.1328 43.957 56.1328 43.9102C56.1328 43.8633 56.3437 43.5469 56.5898 43.207C57.668 41.7773 58.5352 39.6914 58.875 37.7461C59.0859 36.4805 59.1211 33.3516 58.9453 32.0508C58.6875 30.2461 58.1016 28.6172 57.1523 27C56.3437 25.6172 54.1758 23.4024 53.168 22.9219C51.8555 22.3008 50.4023 22.4063 49.1836 23.2149L48.6211 23.5781L48.1523 23.25C47.8945 23.0742 47.4141 22.8399 47.0742 22.7227C46.5234 22.5352 46.4648 22.4883 46.4883 22.1836C46.5117 22.0078 46.6055 20.9297 46.7109 19.8047C46.8164 18.6797 46.8633 17.4961 46.8164 17.1797C46.6758 16.0547 45.9141 15.0117 44.8242 14.4375C44.3086 14.168 44.0977 14.1328 43.125 14.1328C42.1523 14.1328 41.9414 14.168 41.4258 14.4375C40.3594 15 39.5977 16.0313 39.4336 17.1328C39.3633 17.5781 39.6094 21.2578 39.7852 22.2774C39.8203 22.5352 39.7734 22.582 39.3281 22.7109C39.0586 22.7813 38.5664 23.0274 38.2266 23.25C37.5117 23.7539 37.4414 23.6836 37.4766 22.6172C37.5117 21.7149 37.2656 20.6953 36.8086 19.8399L36.4687 19.2188L36.8086 18.5977C38.543 15.375 36.7969 11.4258 33.1992 10.4883C32.8359 10.3945 32.3203 10.3125 32.0508 10.3125C31.5937 10.3125 31.5703 10.3008 31.1953 9.56251C30.6797 8.57813 29.6602 7.60548 28.6289 7.12501C28.1953 6.92579 27.5625 6.50391 27.2344 6.19923C26.2852 5.3086 24.7852 4.68751 23.6133 4.68751C23.1562 4.68751 23.1328 4.67579 22.7578 3.93751C21.5977 1.69923 18.8437 0.468758 16.418 1.12501ZM19.5586 3.28126C20.7656 3.92579 21.2109 4.64063 21.6094 6.57423L21.668 6.8672L22.5234 6.70313C23.3437 6.52735 24.4922 6.57423 24.4922 6.77345C24.4922 6.82032 24.1875 6.98438 23.8242 7.13673C23.1445 7.44141 21.9375 8.46095 21.6094 9.01173C21.457 9.28126 21.293 9.35157 20.6484 9.46876C18.75 9.78516 17.0977 11.1328 16.3594 12.9609C16.125 13.5234 16.0195 13.6406 15.5156 13.875C13.1016 15.0117 11.4492 17.4844 11.2852 20.2149C11.2031 21.5859 11.4492 22.7227 12.082 24.0234C12.4805 24.8203 12.7734 25.207 13.5352 25.957L14.4961 26.8945L14.332 27.3633C14.2383 27.6211 14.1328 28.2305 14.0977 28.7109C13.9922 30.1992 14.5195 31.7227 15.5273 32.8008L16.0312 33.3398L15.9727 34.2773C15.8672 35.7773 16.3711 37.2891 17.3086 38.332C17.543 38.5898 17.707 38.8125 17.6836 38.8242C17.6602 38.8477 17.3086 39 16.8984 39.1641L16.1602 39.4805L16.0664 39.2227C16.0195 39.082 15.4805 37.582 14.8828 35.9063L13.8047 32.8477L12.9375 32.7773C10.4062 32.5898 8.85937 30.3398 9.59766 27.9141C9.72656 27.457 9.84375 27.0703 9.84375 27.0469C9.84375 27.0117 9.55078 26.7891 9.19922 26.5547C8.15625 25.8281 7.48828 24.5742 7.5 23.332C7.51172 22.6524 7.71094 22.0781 8.26172 21.1875C8.49609 20.8125 8.67187 20.4727 8.66016 20.4609C8.63672 20.4375 8.27344 20.25 7.86328 20.0391C4.44141 18.3281 3.64453 13.9102 6.24609 11.1563C6.9375 10.4414 7.57031 10.0313 8.58984 9.66798L9.30469 9.41016L9.45703 8.7422C9.75 7.44141 10.4648 6.52735 11.6016 5.98829C12.1172 5.75391 12.4336 5.6836 13.1719 5.67188H14.0977L14.3555 5.13282C14.7422 4.32423 15.082 3.90235 15.6211 3.52735C16.8516 2.6836 18.2695 2.60157 19.5586 3.28126ZM27.9961 8.90626C28.9922 9.44532 29.6133 10.2656 29.8711 11.3789C29.9297 11.6602 30.0117 12.0352 30.0469 12.1992L30.1172 12.5039L30.8437 12.3399C31.8633 12.0938 32.7773 12.2109 33.6562 12.6797C34.4297 13.0899 34.793 13.4649 35.25 14.3438C35.5078 14.8477 35.5547 15.0938 35.5547 15.9375C35.5547 17.0859 35.3086 17.6953 34.4531 18.6563L33.9609 19.2188L34.4531 19.7695C35.0859 20.4844 35.4727 21.2695 35.5664 21.9844L35.6484 22.5586L34.7227 22.5703C33.3281 22.582 32.7187 22.9102 31.0547 24.5977C30.0703 25.5938 29.543 26.2383 29.1094 26.9766L28.5 28.0078L27.9492 26.4024L27.3984 24.8086L27.6094 24.0352C28.1836 21.8672 29.2969 19.8984 30.8789 18.2578L31.5234 17.6016L30.9727 16.9102C30.668 16.5352 30.4102 16.207 30.375 16.1719C30.3516 16.1367 29.918 16.5469 29.4023 17.0859C28.3477 18.1992 27.2812 19.7578 26.707 21.0352C26.4844 21.5156 26.2852 21.9141 26.25 21.9141C26.2148 21.9141 25.8516 21.1758 25.4414 20.2852C24.7852 18.832 22.9922 15.4805 22.5 14.7656L22.3125 14.4961L21.5508 15L20.7891 15.5039L21.5391 16.8047C22.4883 18.457 23.8477 21.1875 23.7773 21.2695C23.7422 21.3047 23.4844 21.2461 23.1914 21.1524C22.2539 20.8359 20.6133 20.625 19.1484 20.625H17.6953L17.7656 21.1758C17.8008 21.4922 17.8477 21.9024 17.8828 22.1016L17.9297 22.4649L19.6641 22.5352C21.5156 22.6055 22.4297 22.7813 23.6367 23.3203C25.0078 23.9414 25.0898 24.0469 25.875 26.168C26.707 28.418 27.0117 29.3906 26.9297 29.4727C26.8945 29.5078 26.5898 29.4141 26.2383 29.25C25.0312 28.7227 23.332 28.3359 21.5859 28.1836L20.625 28.0898V29.0391V29.9766L21.5156 30.0586C23.5195 30.2461 25.7578 30.9023 26.7656 31.6172L27.2109 31.9336L27.2344 34.7461C27.2578 37.1484 27.3047 37.6875 27.5039 38.4609C27.6328 38.9648 27.7383 39.375 27.7266 39.375C27.7148 39.375 26.332 39.1641 24.668 38.9063C22.9922 38.6484 21.457 38.4375 21.2461 38.4375C20.5664 38.4375 19.5586 37.9688 18.9844 37.3945C17.918 36.3164 17.5898 35.0039 18.0352 33.5391C18.1641 33.082 18.2812 32.6953 18.2812 32.6719C18.2812 32.6367 17.9883 32.4141 17.6367 32.1797C16.5937 31.4531 15.9258 30.1992 15.9375 28.957C15.9492 28.2773 16.1484 27.7031 16.6992 26.8125C16.9336 26.4375 17.1094 26.0977 17.0977 26.0859C17.0742 26.0625 16.7109 25.875 16.3008 25.6641C12.8789 23.9531 12.082 19.5352 14.6836 16.7813C15.375 16.0664 16.0078 15.6563 17.0273 15.293L17.7422 15.0352L17.8945 14.3672C18.1875 13.0664 18.9023 12.1524 20.0391 11.6133C20.5547 11.3789 20.8711 11.3086 21.6094 11.2969H22.5352L22.793 10.7578C23.1797 9.94923 23.5195 9.52735 24.0586 9.15235C25.2891 8.3086 26.707 8.22657 27.9961 8.90626ZM44.0742 16.1719C44.3906 16.3359 44.6133 16.5703 44.7891 16.9219L45.0352 17.4258L44.5898 22.2539C44.3437 24.9727 44.1914 27.1289 44.25 27.1758C44.3086 27.2227 44.6016 27.3633 44.9062 27.4688C45.5859 27.7148 46.0078 28.043 45.8906 28.2305C45.6445 28.6172 44.1914 29.0625 43.125 29.0625C42.0586 29.0625 40.6055 28.6172 40.3594 28.2305C40.2422 28.043 40.6641 27.7148 41.3437 27.4688C41.6484 27.3633 41.9414 27.2227 42 27.1758C42.0586 27.1289 41.9062 24.9727 41.6602 22.2539L41.2148 17.4258L41.4609 16.9219C41.9062 16.0078 43.0898 15.6797 44.0742 16.1719ZM35.5898 24.5508C36.375 24.8789 36.375 24.9258 35.7891 25.6055C34.6289 26.9766 33.668 28.9219 33.1289 31.0313C32.8945 31.9805 32.8711 32.3086 32.8711 35.625C32.8711 37.8867 32.918 39.3867 33.0117 39.6914C33.082 39.9727 33.1289 40.1953 33.1055 40.1953C32.918 40.1953 29.9414 39.7031 29.8711 39.6563C29.7187 39.5742 29.3203 38.1328 29.168 37.1484C28.957 35.7656 29.0859 32.1563 29.3906 31.0195C29.918 29.0625 30.9961 27.2344 32.4609 25.7695C33.7969 24.457 34.6055 24.1406 35.5898 24.5508ZM52.3477 24.6211C52.9922 24.9375 54.5391 26.4492 55.1836 27.4102C55.875 28.418 56.5312 29.8477 56.8594 31.0547C57.1055 31.957 57.1289 32.2969 57.1289 34.6875C57.1289 37.0664 57.1055 37.418 56.8594 38.3203C56.2969 40.418 54.4922 43.3594 53.7773 43.3594C53.4492 43.3594 52.2539 43.1484 52.1836 43.0781C52.1602 43.0664 52.2773 42.7383 52.4414 42.375C52.793 41.5781 53.1562 40.2188 53.3203 39.082C53.4727 37.9805 53.4727 33.293 53.3086 32.1563C53.0156 30.0234 51.9609 27.4688 50.6953 25.8164C50.332 25.3477 50.0391 24.9375 50.0391 24.9024C50.0391 24.7617 51.0586 24.375 51.4336 24.375C51.6562 24.375 52.0664 24.4805 52.3477 24.6211ZM40.0078 24.8555C40.1367 25.5469 40.0898 25.9922 39.8672 26.0625C39.5391 26.168 38.7656 26.9766 38.6016 27.3867C38.3906 27.8672 38.3906 28.3828 38.5898 28.8633C38.7773 29.3086 39.5625 30.0469 40.1484 30.3164L40.5469 30.5156L40.4648 31.3945C40.3125 32.9063 40.3477 39.5625 40.5234 40.4766C40.6055 40.9102 40.6523 41.2969 40.6406 41.3203C40.5469 41.4141 35.2148 40.5117 35.1328 40.3945C34.8516 39.9492 34.7461 38.5313 34.7461 35.4492C34.7578 32.4023 34.7695 32.0977 35.0273 31.1719C35.543 29.2266 36.5156 27.5039 37.8984 26.0508C38.6016 25.3008 39.6211 24.4922 39.8437 24.4922C39.8906 24.4922 39.9609 24.6563 40.0078 24.8555ZM47.1445 24.8555C48.4336 25.7109 50.0508 27.8672 50.7422 29.6836C51.4687 31.5469 51.5039 31.8398 51.4922 35.6836C51.4922 38.9063 51.4687 39.2695 51.2461 40.1016C50.8594 41.4844 50.2852 42.7734 50.0625 42.7734C49.9453 42.7734 48.2461 42.5273 46.2656 42.2227L42.668 41.6719L42.5508 41.1445C42.2461 39.7148 42.1641 38.0742 42.2227 34.8281C42.2461 32.9766 42.3164 31.3477 42.3633 31.1953C42.4453 30.9609 42.5273 30.9375 43.1719 30.9375C44.8125 30.9258 46.3945 30.3633 47.2031 29.4844C48.0352 28.582 48.0117 27.6328 47.1445 26.707C46.8516 26.4024 46.5117 26.1094 46.3945 26.0742C46.1602 25.9922 46.1016 25.5586 46.2422 24.8555C46.3359 24.3984 46.4648 24.3984 47.1445 24.8555ZM37.9102 42.832C46.9336 44.2266 54.5039 45.4102 54.7266 45.4688C56.0977 45.8438 57.1875 47.2852 57.1875 48.75C57.1875 50.2148 56.0977 51.6563 54.7266 52.0313C54.5039 52.0898 46.9102 53.2852 37.8516 54.6797C22.3477 57.0586 21.3164 57.2109 20.2148 57.1523C18 57.0352 16.3125 56.2734 14.707 54.668C13.6406 53.6016 13.0195 52.6172 12.5742 51.2695C12.3047 50.4375 12.2695 50.1445 12.2695 48.75C12.2695 47.3555 12.3047 47.0625 12.5742 46.2305C13.0195 44.8828 13.6406 43.8984 14.707 42.832C16.418 41.1211 18.2109 40.3594 20.625 40.3242C21.2344 40.3125 26.4492 41.0742 37.9102 42.832ZM8.58984 44.5313C9.76172 44.7891 10.7812 45.0234 10.8516 45.0469C10.957 45.082 10.957 45.2109 10.8516 45.5156L10.7227 45.9375H8.41406C6.24609 45.9375 6.08203 45.9258 5.85937 45.7031C5.39062 45.2344 5.68359 44.0625 6.26953 44.0625C6.36328 44.0625 7.40625 44.2734 8.58984 44.5313ZM10.3125 48.75V49.6875H6.85547H3.38672L3.10547 49.3945C2.91797 49.2188 2.8125 48.9727 2.8125 48.75C2.8125 48.5273 2.91797 48.2813 3.10547 48.1055L3.38672 47.8125H6.85547H10.3125V48.75ZM10.8516 51.9844C10.957 52.2891 10.957 52.418 10.8516 52.4531C10.582 52.5469 6.44531 53.4375 6.26953 53.4375C5.92969 53.4375 5.625 52.9922 5.625 52.5C5.625 52.1836 5.70703 51.9492 5.85937 51.7969C6.08203 51.5742 6.24609 51.5625 8.41406 51.5625H10.7227L10.8516 51.9844Z"/>
</mask>
<path d="M16.418 1.12501C15.4453 1.38282 14.4844 1.95704 13.793 2.6836C13.4531 3.04688 13.1133 3.42188 13.0547 3.52735C12.9961 3.63282 12.6328 3.76173 12.1875 3.84376C10.2773 4.1836 8.66016 5.50782 7.92187 7.33595C7.6875 7.89845 7.58203 8.01563 7.07812 8.25001C4.66406 9.38673 3.01172 11.8594 2.84766 14.5899C2.76562 15.9609 3.01172 17.0977 3.64453 18.3984C4.04297 19.1953 4.33594 19.582 5.09766 20.332L6.05859 21.2695L5.89453 21.7383C5.80078 21.9961 5.69531 22.6055 5.66016 23.0859C5.55469 24.5742 6.08203 26.0977 7.08984 27.1758L7.60547 27.7266L7.53516 28.5938C7.32422 31.3477 9.10547 33.8086 11.7891 34.5117C12.1641 34.6055 12.4687 34.6992 12.4805 34.7109C12.5391 34.8164 14.5312 40.4766 14.4961 40.4883C14.1914 40.6172 12.9961 41.8008 12.4922 42.457L11.8242 43.3359L11.3906 43.2305C7.83984 42.4453 6.63281 42.1875 6.36328 42.1875C5.68359 42.1875 5.09766 42.4453 4.55859 42.9961C3.91406 43.6289 3.70312 44.25 3.77344 45.2578C3.82031 45.8672 3.79687 45.9375 3.59766 45.9375C2.29687 45.9375 0.9375 47.3789 0.9375 48.75C0.9375 50.1211 2.29687 51.5625 3.59766 51.5625C3.79687 51.5625 3.82031 51.6328 3.77344 52.2422C3.70312 53.25 3.91406 53.8711 4.55859 54.5039C5.09766 55.0547 5.68359 55.3125 6.36328 55.3125C6.63281 55.3125 7.83984 55.0547 11.3906 54.2695L11.8242 54.1641L12.5391 55.1016C14.5898 57.75 17.918 59.2383 21.3164 59.0273C22.793 58.9336 54.8555 53.9766 55.5469 53.7305C56.3672 53.4375 56.9648 53.0391 57.6094 52.3594C59.8477 49.9922 59.3789 46.0547 56.6602 44.332C56.3672 44.1563 56.1328 43.957 56.1328 43.9102C56.1328 43.8633 56.3437 43.5469 56.5898 43.207C57.668 41.7773 58.5352 39.6914 58.875 37.7461C59.0859 36.4805 59.1211 33.3516 58.9453 32.0508C58.6875 30.2461 58.1016 28.6172 57.1523 27C56.3437 25.6172 54.1758 23.4024 53.168 22.9219C51.8555 22.3008 50.4023 22.4063 49.1836 23.2149L48.6211 23.5781L48.1523 23.25C47.8945 23.0742 47.4141 22.8399 47.0742 22.7227C46.5234 22.5352 46.4648 22.4883 46.4883 22.1836C46.5117 22.0078 46.6055 20.9297 46.7109 19.8047C46.8164 18.6797 46.8633 17.4961 46.8164 17.1797C46.6758 16.0547 45.9141 15.0117 44.8242 14.4375C44.3086 14.168 44.0977 14.1328 43.125 14.1328C42.1523 14.1328 41.9414 14.168 41.4258 14.4375C40.3594 15 39.5977 16.0313 39.4336 17.1328C39.3633 17.5781 39.6094 21.2578 39.7852 22.2774C39.8203 22.5352 39.7734 22.582 39.3281 22.7109C39.0586 22.7813 38.5664 23.0274 38.2266 23.25C37.5117 23.7539 37.4414 23.6836 37.4766 22.6172C37.5117 21.7149 37.2656 20.6953 36.8086 19.8399L36.4687 19.2188L36.8086 18.5977C38.543 15.375 36.7969 11.4258 33.1992 10.4883C32.8359 10.3945 32.3203 10.3125 32.0508 10.3125C31.5937 10.3125 31.5703 10.3008 31.1953 9.56251C30.6797 8.57813 29.6602 7.60548 28.6289 7.12501C28.1953 6.92579 27.5625 6.50391 27.2344 6.19923C26.2852 5.3086 24.7852 4.68751 23.6133 4.68751C23.1562 4.68751 23.1328 4.67579 22.7578 3.93751C21.5977 1.69923 18.8437 0.468758 16.418 1.12501ZM19.5586 3.28126C20.7656 3.92579 21.2109 4.64063 21.6094 6.57423L21.668 6.8672L22.5234 6.70313C23.3437 6.52735 24.4922 6.57423 24.4922 6.77345C24.4922 6.82032 24.1875 6.98438 23.8242 7.13673C23.1445 7.44141 21.9375 8.46095 21.6094 9.01173C21.457 9.28126 21.293 9.35157 20.6484 9.46876C18.75 9.78516 17.0977 11.1328 16.3594 12.9609C16.125 13.5234 16.0195 13.6406 15.5156 13.875C13.1016 15.0117 11.4492 17.4844 11.2852 20.2149C11.2031 21.5859 11.4492 22.7227 12.082 24.0234C12.4805 24.8203 12.7734 25.207 13.5352 25.957L14.4961 26.8945L14.332 27.3633C14.2383 27.6211 14.1328 28.2305 14.0977 28.7109C13.9922 30.1992 14.5195 31.7227 15.5273 32.8008L16.0312 33.3398L15.9727 34.2773C15.8672 35.7773 16.3711 37.2891 17.3086 38.332C17.543 38.5898 17.707 38.8125 17.6836 38.8242C17.6602 38.8477 17.3086 39 16.8984 39.1641L16.1602 39.4805L16.0664 39.2227C16.0195 39.082 15.4805 37.582 14.8828 35.9063L13.8047 32.8477L12.9375 32.7773C10.4062 32.5898 8.85937 30.3398 9.59766 27.9141C9.72656 27.457 9.84375 27.0703 9.84375 27.0469C9.84375 27.0117 9.55078 26.7891 9.19922 26.5547C8.15625 25.8281 7.48828 24.5742 7.5 23.332C7.51172 22.6524 7.71094 22.0781 8.26172 21.1875C8.49609 20.8125 8.67187 20.4727 8.66016 20.4609C8.63672 20.4375 8.27344 20.25 7.86328 20.0391C4.44141 18.3281 3.64453 13.9102 6.24609 11.1563C6.9375 10.4414 7.57031 10.0313 8.58984 9.66798L9.30469 9.41016L9.45703 8.7422C9.75 7.44141 10.4648 6.52735 11.6016 5.98829C12.1172 5.75391 12.4336 5.6836 13.1719 5.67188H14.0977L14.3555 5.13282C14.7422 4.32423 15.082 3.90235 15.6211 3.52735C16.8516 2.6836 18.2695 2.60157 19.5586 3.28126ZM27.9961 8.90626C28.9922 9.44532 29.6133 10.2656 29.8711 11.3789C29.9297 11.6602 30.0117 12.0352 30.0469 12.1992L30.1172 12.5039L30.8437 12.3399C31.8633 12.0938 32.7773 12.2109 33.6562 12.6797C34.4297 13.0899 34.793 13.4649 35.25 14.3438C35.5078 14.8477 35.5547 15.0938 35.5547 15.9375C35.5547 17.0859 35.3086 17.6953 34.4531 18.6563L33.9609 19.2188L34.4531 19.7695C35.0859 20.4844 35.4727 21.2695 35.5664 21.9844L35.6484 22.5586L34.7227 22.5703C33.3281 22.582 32.7187 22.9102 31.0547 24.5977C30.0703 25.5938 29.543 26.2383 29.1094 26.9766L28.5 28.0078L27.9492 26.4024L27.3984 24.8086L27.6094 24.0352C28.1836 21.8672 29.2969 19.8984 30.8789 18.2578L31.5234 17.6016L30.9727 16.9102C30.668 16.5352 30.4102 16.207 30.375 16.1719C30.3516 16.1367 29.918 16.5469 29.4023 17.0859C28.3477 18.1992 27.2812 19.7578 26.707 21.0352C26.4844 21.5156 26.2852 21.9141 26.25 21.9141C26.2148 21.9141 25.8516 21.1758 25.4414 20.2852C24.7852 18.832 22.9922 15.4805 22.5 14.7656L22.3125 14.4961L21.5508 15L20.7891 15.5039L21.5391 16.8047C22.4883 18.457 23.8477 21.1875 23.7773 21.2695C23.7422 21.3047 23.4844 21.2461 23.1914 21.1524C22.2539 20.8359 20.6133 20.625 19.1484 20.625H17.6953L17.7656 21.1758C17.8008 21.4922 17.8477 21.9024 17.8828 22.1016L17.9297 22.4649L19.6641 22.5352C21.5156 22.6055 22.4297 22.7813 23.6367 23.3203C25.0078 23.9414 25.0898 24.0469 25.875 26.168C26.707 28.418 27.0117 29.3906 26.9297 29.4727C26.8945 29.5078 26.5898 29.4141 26.2383 29.25C25.0312 28.7227 23.332 28.3359 21.5859 28.1836L20.625 28.0898V29.0391V29.9766L21.5156 30.0586C23.5195 30.2461 25.7578 30.9023 26.7656 31.6172L27.2109 31.9336L27.2344 34.7461C27.2578 37.1484 27.3047 37.6875 27.5039 38.4609C27.6328 38.9648 27.7383 39.375 27.7266 39.375C27.7148 39.375 26.332 39.1641 24.668 38.9063C22.9922 38.6484 21.457 38.4375 21.2461 38.4375C20.5664 38.4375 19.5586 37.9688 18.9844 37.3945C17.918 36.3164 17.5898 35.0039 18.0352 33.5391C18.1641 33.082 18.2812 32.6953 18.2812 32.6719C18.2812 32.6367 17.9883 32.4141 17.6367 32.1797C16.5937 31.4531 15.9258 30.1992 15.9375 28.957C15.9492 28.2773 16.1484 27.7031 16.6992 26.8125C16.9336 26.4375 17.1094 26.0977 17.0977 26.0859C17.0742 26.0625 16.7109 25.875 16.3008 25.6641C12.8789 23.9531 12.082 19.5352 14.6836 16.7813C15.375 16.0664 16.0078 15.6563 17.0273 15.293L17.7422 15.0352L17.8945 14.3672C18.1875 13.0664 18.9023 12.1524 20.0391 11.6133C20.5547 11.3789 20.8711 11.3086 21.6094 11.2969H22.5352L22.793 10.7578C23.1797 9.94923 23.5195 9.52735 24.0586 9.15235C25.2891 8.3086 26.707 8.22657 27.9961 8.90626ZM44.0742 16.1719C44.3906 16.3359 44.6133 16.5703 44.7891 16.9219L45.0352 17.4258L44.5898 22.2539C44.3437 24.9727 44.1914 27.1289 44.25 27.1758C44.3086 27.2227 44.6016 27.3633 44.9062 27.4688C45.5859 27.7148 46.0078 28.043 45.8906 28.2305C45.6445 28.6172 44.1914 29.0625 43.125 29.0625C42.0586 29.0625 40.6055 28.6172 40.3594 28.2305C40.2422 28.043 40.6641 27.7148 41.3437 27.4688C41.6484 27.3633 41.9414 27.2227 42 27.1758C42.0586 27.1289 41.9062 24.9727 41.6602 22.2539L41.2148 17.4258L41.4609 16.9219C41.9062 16.0078 43.0898 15.6797 44.0742 16.1719ZM35.5898 24.5508C36.375 24.8789 36.375 24.9258 35.7891 25.6055C34.6289 26.9766 33.668 28.9219 33.1289 31.0313C32.8945 31.9805 32.8711 32.3086 32.8711 35.625C32.8711 37.8867 32.918 39.3867 33.0117 39.6914C33.082 39.9727 33.1289 40.1953 33.1055 40.1953C32.918 40.1953 29.9414 39.7031 29.8711 39.6563C29.7187 39.5742 29.3203 38.1328 29.168 37.1484C28.957 35.7656 29.0859 32.1563 29.3906 31.0195C29.918 29.0625 30.9961 27.2344 32.4609 25.7695C33.7969 24.457 34.6055 24.1406 35.5898 24.5508ZM52.3477 24.6211C52.9922 24.9375 54.5391 26.4492 55.1836 27.4102C55.875 28.418 56.5312 29.8477 56.8594 31.0547C57.1055 31.957 57.1289 32.2969 57.1289 34.6875C57.1289 37.0664 57.1055 37.418 56.8594 38.3203C56.2969 40.418 54.4922 43.3594 53.7773 43.3594C53.4492 43.3594 52.2539 43.1484 52.1836 43.0781C52.1602 43.0664 52.2773 42.7383 52.4414 42.375C52.793 41.5781 53.1562 40.2188 53.3203 39.082C53.4727 37.9805 53.4727 33.293 53.3086 32.1563C53.0156 30.0234 51.9609 27.4688 50.6953 25.8164C50.332 25.3477 50.0391 24.9375 50.0391 24.9024C50.0391 24.7617 51.0586 24.375 51.4336 24.375C51.6562 24.375 52.0664 24.4805 52.3477 24.6211ZM40.0078 24.8555C40.1367 25.5469 40.0898 25.9922 39.8672 26.0625C39.5391 26.168 38.7656 26.9766 38.6016 27.3867C38.3906 27.8672 38.3906 28.3828 38.5898 28.8633C38.7773 29.3086 39.5625 30.0469 40.1484 30.3164L40.5469 30.5156L40.4648 31.3945C40.3125 32.9063 40.3477 39.5625 40.5234 40.4766C40.6055 40.9102 40.6523 41.2969 40.6406 41.3203C40.5469 41.4141 35.2148 40.5117 35.1328 40.3945C34.8516 39.9492 34.7461 38.5313 34.7461 35.4492C34.7578 32.4023 34.7695 32.0977 35.0273 31.1719C35.543 29.2266 36.5156 27.5039 37.8984 26.0508C38.6016 25.3008 39.6211 24.4922 39.8437 24.4922C39.8906 24.4922 39.9609 24.6563 40.0078 24.8555ZM47.1445 24.8555C48.4336 25.7109 50.0508 27.8672 50.7422 29.6836C51.4687 31.5469 51.5039 31.8398 51.4922 35.6836C51.4922 38.9063 51.4687 39.2695 51.2461 40.1016C50.8594 41.4844 50.2852 42.7734 50.0625 42.7734C49.9453 42.7734 48.2461 42.5273 46.2656 42.2227L42.668 41.6719L42.5508 41.1445C42.2461 39.7148 42.1641 38.0742 42.2227 34.8281C42.2461 32.9766 42.3164 31.3477 42.3633 31.1953C42.4453 30.9609 42.5273 30.9375 43.1719 30.9375C44.8125 30.9258 46.3945 30.3633 47.2031 29.4844C48.0352 28.582 48.0117 27.6328 47.1445 26.707C46.8516 26.4024 46.5117 26.1094 46.3945 26.0742C46.1602 25.9922 46.1016 25.5586 46.2422 24.8555C46.3359 24.3984 46.4648 24.3984 47.1445 24.8555ZM37.9102 42.832C46.9336 44.2266 54.5039 45.4102 54.7266 45.4688C56.0977 45.8438 57.1875 47.2852 57.1875 48.75C57.1875 50.2148 56.0977 51.6563 54.7266 52.0313C54.5039 52.0898 46.9102 53.2852 37.8516 54.6797C22.3477 57.0586 21.3164 57.2109 20.2148 57.1523C18 57.0352 16.3125 56.2734 14.707 54.668C13.6406 53.6016 13.0195 52.6172 12.5742 51.2695C12.3047 50.4375 12.2695 50.1445 12.2695 48.75C12.2695 47.3555 12.3047 47.0625 12.5742 46.2305C13.0195 44.8828 13.6406 43.8984 14.707 42.832C16.418 41.1211 18.2109 40.3594 20.625 40.3242C21.2344 40.3125 26.4492 41.0742 37.9102 42.832ZM8.58984 44.5313C9.76172 44.7891 10.7812 45.0234 10.8516 45.0469C10.957 45.082 10.957 45.2109 10.8516 45.5156L10.7227 45.9375H8.41406C6.24609 45.9375 6.08203 45.9258 5.85937 45.7031C5.39062 45.2344 5.68359 44.0625 6.26953 44.0625C6.36328 44.0625 7.40625 44.2734 8.58984 44.5313ZM10.3125 48.75V49.6875H6.85547H3.38672L3.10547 49.3945C2.91797 49.2188 2.8125 48.9727 2.8125 48.75C2.8125 48.5273 2.91797 48.2813 3.10547 48.1055L3.38672 47.8125H6.85547H10.3125V48.75ZM10.8516 51.9844C10.957 52.2891 10.957 52.418 10.8516 52.4531C10.582 52.5469 6.44531 53.4375 6.26953 53.4375C5.92969 53.4375 5.625 52.9922 5.625 52.5C5.625 52.1836 5.70703 51.9492 5.85937 51.7969C6.08203 51.5742 6.24609 51.5625 8.41406 51.5625H10.7227L10.8516 51.9844Z" fill="#4F5052"/>
<path d="M16.418 1.12501C15.4453 1.38282 14.4844 1.95704 13.793 2.6836C13.4531 3.04688 13.1133 3.42188 13.0547 3.52735C12.9961 3.63282 12.6328 3.76173 12.1875 3.84376C10.2773 4.1836 8.66016 5.50782 7.92187 7.33595C7.6875 7.89845 7.58203 8.01563 7.07812 8.25001C4.66406 9.38673 3.01172 11.8594 2.84766 14.5899C2.76562 15.9609 3.01172 17.0977 3.64453 18.3984C4.04297 19.1953 4.33594 19.582 5.09766 20.332L6.05859 21.2695L5.89453 21.7383C5.80078 21.9961 5.69531 22.6055 5.66016 23.0859C5.55469 24.5742 6.08203 26.0977 7.08984 27.1758L7.60547 27.7266L7.53516 28.5938C7.32422 31.3477 9.10547 33.8086 11.7891 34.5117C12.1641 34.6055 12.4687 34.6992 12.4805 34.7109C12.5391 34.8164 14.5312 40.4766 14.4961 40.4883C14.1914 40.6172 12.9961 41.8008 12.4922 42.457L11.8242 43.3359L11.3906 43.2305C7.83984 42.4453 6.63281 42.1875 6.36328 42.1875C5.68359 42.1875 5.09766 42.4453 4.55859 42.9961C3.91406 43.6289 3.70312 44.25 3.77344 45.2578C3.82031 45.8672 3.79687 45.9375 3.59766 45.9375C2.29687 45.9375 0.9375 47.3789 0.9375 48.75C0.9375 50.1211 2.29687 51.5625 3.59766 51.5625C3.79687 51.5625 3.82031 51.6328 3.77344 52.2422C3.70312 53.25 3.91406 53.8711 4.55859 54.5039C5.09766 55.0547 5.68359 55.3125 6.36328 55.3125C6.63281 55.3125 7.83984 55.0547 11.3906 54.2695L11.8242 54.1641L12.5391 55.1016C14.5898 57.75 17.918 59.2383 21.3164 59.0273C22.793 58.9336 54.8555 53.9766 55.5469 53.7305C56.3672 53.4375 56.9648 53.0391 57.6094 52.3594C59.8477 49.9922 59.3789 46.0547 56.6602 44.332C56.3672 44.1563 56.1328 43.957 56.1328 43.9102C56.1328 43.8633 56.3437 43.5469 56.5898 43.207C57.668 41.7773 58.5352 39.6914 58.875 37.7461C59.0859 36.4805 59.1211 33.3516 58.9453 32.0508C58.6875 30.2461 58.1016 28.6172 57.1523 27C56.3437 25.6172 54.1758 23.4024 53.168 22.9219C51.8555 22.3008 50.4023 22.4063 49.1836 23.2149L48.6211 23.5781L48.1523 23.25C47.8945 23.0742 47.4141 22.8399 47.0742 22.7227C46.5234 22.5352 46.4648 22.4883 46.4883 22.1836C46.5117 22.0078 46.6055 20.9297 46.7109 19.8047C46.8164 18.6797 46.8633 17.4961 46.8164 17.1797C46.6758 16.0547 45.9141 15.0117 44.8242 14.4375C44.3086 14.168 44.0977 14.1328 43.125 14.1328C42.1523 14.1328 41.9414 14.168 41.4258 14.4375C40.3594 15 39.5977 16.0313 39.4336 17.1328C39.3633 17.5781 39.6094 21.2578 39.7852 22.2774C39.8203 22.5352 39.7734 22.582 39.3281 22.7109C39.0586 22.7813 38.5664 23.0274 38.2266 23.25C37.5117 23.7539 37.4414 23.6836 37.4766 22.6172C37.5117 21.7149 37.2656 20.6953 36.8086 19.8399L36.4687 19.2188L36.8086 18.5977C38.543 15.375 36.7969 11.4258 33.1992 10.4883C32.8359 10.3945 32.3203 10.3125 32.0508 10.3125C31.5937 10.3125 31.5703 10.3008 31.1953 9.56251C30.6797 8.57813 29.6602 7.60548 28.6289 7.12501C28.1953 6.92579 27.5625 6.50391 27.2344 6.19923C26.2852 5.3086 24.7852 4.68751 23.6133 4.68751C23.1562 4.68751 23.1328 4.67579 22.7578 3.93751C21.5977 1.69923 18.8437 0.468758 16.418 1.12501ZM19.5586 3.28126C20.7656 3.92579 21.2109 4.64063 21.6094 6.57423L21.668 6.8672L22.5234 6.70313C23.3437 6.52735 24.4922 6.57423 24.4922 6.77345C24.4922 6.82032 24.1875 6.98438 23.8242 7.13673C23.1445 7.44141 21.9375 8.46095 21.6094 9.01173C21.457 9.28126 21.293 9.35157 20.6484 9.46876C18.75 9.78516 17.0977 11.1328 16.3594 12.9609C16.125 13.5234 16.0195 13.6406 15.5156 13.875C13.1016 15.0117 11.4492 17.4844 11.2852 20.2149C11.2031 21.5859 11.4492 22.7227 12.082 24.0234C12.4805 24.8203 12.7734 25.207 13.5352 25.957L14.4961 26.8945L14.332 27.3633C14.2383 27.6211 14.1328 28.2305 14.0977 28.7109C13.9922 30.1992 14.5195 31.7227 15.5273 32.8008L16.0312 33.3398L15.9727 34.2773C15.8672 35.7773 16.3711 37.2891 17.3086 38.332C17.543 38.5898 17.707 38.8125 17.6836 38.8242C17.6602 38.8477 17.3086 39 16.8984 39.1641L16.1602 39.4805L16.0664 39.2227C16.0195 39.082 15.4805 37.582 14.8828 35.9063L13.8047 32.8477L12.9375 32.7773C10.4062 32.5898 8.85937 30.3398 9.59766 27.9141C9.72656 27.457 9.84375 27.0703 9.84375 27.0469C9.84375 27.0117 9.55078 26.7891 9.19922 26.5547C8.15625 25.8281 7.48828 24.5742 7.5 23.332C7.51172 22.6524 7.71094 22.0781 8.26172 21.1875C8.49609 20.8125 8.67187 20.4727 8.66016 20.4609C8.63672 20.4375 8.27344 20.25 7.86328 20.0391C4.44141 18.3281 3.64453 13.9102 6.24609 11.1563C6.9375 10.4414 7.57031 10.0313 8.58984 9.66798L9.30469 9.41016L9.45703 8.7422C9.75 7.44141 10.4648 6.52735 11.6016 5.98829C12.1172 5.75391 12.4336 5.6836 13.1719 5.67188H14.0977L14.3555 5.13282C14.7422 4.32423 15.082 3.90235 15.6211 3.52735C16.8516 2.6836 18.2695 2.60157 19.5586 3.28126ZM27.9961 8.90626C28.9922 9.44532 29.6133 10.2656 29.8711 11.3789C29.9297 11.6602 30.0117 12.0352 30.0469 12.1992L30.1172 12.5039L30.8437 12.3399C31.8633 12.0938 32.7773 12.2109 33.6562 12.6797C34.4297 13.0899 34.793 13.4649 35.25 14.3438C35.5078 14.8477 35.5547 15.0938 35.5547 15.9375C35.5547 17.0859 35.3086 17.6953 34.4531 18.6563L33.9609 19.2188L34.4531 19.7695C35.0859 20.4844 35.4727 21.2695 35.5664 21.9844L35.6484 22.5586L34.7227 22.5703C33.3281 22.582 32.7187 22.9102 31.0547 24.5977C30.0703 25.5938 29.543 26.2383 29.1094 26.9766L28.5 28.0078L27.9492 26.4024L27.3984 24.8086L27.6094 24.0352C28.1836 21.8672 29.2969 19.8984 30.8789 18.2578L31.5234 17.6016L30.9727 16.9102C30.668 16.5352 30.4102 16.207 30.375 16.1719C30.3516 16.1367 29.918 16.5469 29.4023 17.0859C28.3477 18.1992 27.2812 19.7578 26.707 21.0352C26.4844 21.5156 26.2852 21.9141 26.25 21.9141C26.2148 21.9141 25.8516 21.1758 25.4414 20.2852C24.7852 18.832 22.9922 15.4805 22.5 14.7656L22.3125 14.4961L21.5508 15L20.7891 15.5039L21.5391 16.8047C22.4883 18.457 23.8477 21.1875 23.7773 21.2695C23.7422 21.3047 23.4844 21.2461 23.1914 21.1524C22.2539 20.8359 20.6133 20.625 19.1484 20.625H17.6953L17.7656 21.1758C17.8008 21.4922 17.8477 21.9024 17.8828 22.1016L17.9297 22.4649L19.6641 22.5352C21.5156 22.6055 22.4297 22.7813 23.6367 23.3203C25.0078 23.9414 25.0898 24.0469 25.875 26.168C26.707 28.418 27.0117 29.3906 26.9297 29.4727C26.8945 29.5078 26.5898 29.4141 26.2383 29.25C25.0312 28.7227 23.332 28.3359 21.5859 28.1836L20.625 28.0898V29.0391V29.9766L21.5156 30.0586C23.5195 30.2461 25.7578 30.9023 26.7656 31.6172L27.2109 31.9336L27.2344 34.7461C27.2578 37.1484 27.3047 37.6875 27.5039 38.4609C27.6328 38.9648 27.7383 39.375 27.7266 39.375C27.7148 39.375 26.332 39.1641 24.668 38.9063C22.9922 38.6484 21.457 38.4375 21.2461 38.4375C20.5664 38.4375 19.5586 37.9688 18.9844 37.3945C17.918 36.3164 17.5898 35.0039 18.0352 33.5391C18.1641 33.082 18.2812 32.6953 18.2812 32.6719C18.2812 32.6367 17.9883 32.4141 17.6367 32.1797C16.5937 31.4531 15.9258 30.1992 15.9375 28.957C15.9492 28.2773 16.1484 27.7031 16.6992 26.8125C16.9336 26.4375 17.1094 26.0977 17.0977 26.0859C17.0742 26.0625 16.7109 25.875 16.3008 25.6641C12.8789 23.9531 12.082 19.5352 14.6836 16.7813C15.375 16.0664 16.0078 15.6563 17.0273 15.293L17.7422 15.0352L17.8945 14.3672C18.1875 13.0664 18.9023 12.1524 20.0391 11.6133C20.5547 11.3789 20.8711 11.3086 21.6094 11.2969H22.5352L22.793 10.7578C23.1797 9.94923 23.5195 9.52735 24.0586 9.15235C25.2891 8.3086 26.707 8.22657 27.9961 8.90626ZM44.0742 16.1719C44.3906 16.3359 44.6133 16.5703 44.7891 16.9219L45.0352 17.4258L44.5898 22.2539C44.3437 24.9727 44.1914 27.1289 44.25 27.1758C44.3086 27.2227 44.6016 27.3633 44.9062 27.4688C45.5859 27.7148 46.0078 28.043 45.8906 28.2305C45.6445 28.6172 44.1914 29.0625 43.125 29.0625C42.0586 29.0625 40.6055 28.6172 40.3594 28.2305C40.2422 28.043 40.6641 27.7148 41.3437 27.4688C41.6484 27.3633 41.9414 27.2227 42 27.1758C42.0586 27.1289 41.9062 24.9727 41.6602 22.2539L41.2148 17.4258L41.4609 16.9219C41.9062 16.0078 43.0898 15.6797 44.0742 16.1719ZM35.5898 24.5508C36.375 24.8789 36.375 24.9258 35.7891 25.6055C34.6289 26.9766 33.668 28.9219 33.1289 31.0313C32.8945 31.9805 32.8711 32.3086 32.8711 35.625C32.8711 37.8867 32.918 39.3867 33.0117 39.6914C33.082 39.9727 33.1289 40.1953 33.1055 40.1953C32.918 40.1953 29.9414 39.7031 29.8711 39.6563C29.7187 39.5742 29.3203 38.1328 29.168 37.1484C28.957 35.7656 29.0859 32.1563 29.3906 31.0195C29.918 29.0625 30.9961 27.2344 32.4609 25.7695C33.7969 24.457 34.6055 24.1406 35.5898 24.5508ZM52.3477 24.6211C52.9922 24.9375 54.5391 26.4492 55.1836 27.4102C55.875 28.418 56.5312 29.8477 56.8594 31.0547C57.1055 31.957 57.1289 32.2969 57.1289 34.6875C57.1289 37.0664 57.1055 37.418 56.8594 38.3203C56.2969 40.418 54.4922 43.3594 53.7773 43.3594C53.4492 43.3594 52.2539 43.1484 52.1836 43.0781C52.1602 43.0664 52.2773 42.7383 52.4414 42.375C52.793 41.5781 53.1562 40.2188 53.3203 39.082C53.4727 37.9805 53.4727 33.293 53.3086 32.1563C53.0156 30.0234 51.9609 27.4688 50.6953 25.8164C50.332 25.3477 50.0391 24.9375 50.0391 24.9024C50.0391 24.7617 51.0586 24.375 51.4336 24.375C51.6562 24.375 52.0664 24.4805 52.3477 24.6211ZM40.0078 24.8555C40.1367 25.5469 40.0898 25.9922 39.8672 26.0625C39.5391 26.168 38.7656 26.9766 38.6016 27.3867C38.3906 27.8672 38.3906 28.3828 38.5898 28.8633C38.7773 29.3086 39.5625 30.0469 40.1484 30.3164L40.5469 30.5156L40.4648 31.3945C40.3125 32.9063 40.3477 39.5625 40.5234 40.4766C40.6055 40.9102 40.6523 41.2969 40.6406 41.3203C40.5469 41.4141 35.2148 40.5117 35.1328 40.3945C34.8516 39.9492 34.7461 38.5313 34.7461 35.4492C34.7578 32.4023 34.7695 32.0977 35.0273 31.1719C35.543 29.2266 36.5156 27.5039 37.8984 26.0508C38.6016 25.3008 39.6211 24.4922 39.8437 24.4922C39.8906 24.4922 39.9609 24.6563 40.0078 24.8555ZM47.1445 24.8555C48.4336 25.7109 50.0508 27.8672 50.7422 29.6836C51.4687 31.5469 51.5039 31.8398 51.4922 35.6836C51.4922 38.9063 51.4687 39.2695 51.2461 40.1016C50.8594 41.4844 50.2852 42.7734 50.0625 42.7734C49.9453 42.7734 48.2461 42.5273 46.2656 42.2227L42.668 41.6719L42.5508 41.1445C42.2461 39.7148 42.1641 38.0742 42.2227 34.8281C42.2461 32.9766 42.3164 31.3477 42.3633 31.1953C42.4453 30.9609 42.5273 30.9375 43.1719 30.9375C44.8125 30.9258 46.3945 30.3633 47.2031 29.4844C48.0352 28.582 48.0117 27.6328 47.1445 26.707C46.8516 26.4024 46.5117 26.1094 46.3945 26.0742C46.1602 25.9922 46.1016 25.5586 46.2422 24.8555C46.3359 24.3984 46.4648 24.3984 47.1445 24.8555ZM37.9102 42.832C46.9336 44.2266 54.5039 45.4102 54.7266 45.4688C56.0977 45.8438 57.1875 47.2852 57.1875 48.75C57.1875 50.2148 56.0977 51.6563 54.7266 52.0313C54.5039 52.0898 46.9102 53.2852 37.8516 54.6797C22.3477 57.0586 21.3164 57.2109 20.2148 57.1523C18 57.0352 16.3125 56.2734 14.707 54.668C13.6406 53.6016 13.0195 52.6172 12.5742 51.2695C12.3047 50.4375 12.2695 50.1445 12.2695 48.75C12.2695 47.3555 12.3047 47.0625 12.5742 46.2305C13.0195 44.8828 13.6406 43.8984 14.707 42.832C16.418 41.1211 18.2109 40.3594 20.625 40.3242C21.2344 40.3125 26.4492 41.0742 37.9102 42.832ZM8.58984 44.5313C9.76172 44.7891 10.7812 45.0234 10.8516 45.0469C10.957 45.082 10.957 45.2109 10.8516 45.5156L10.7227 45.9375H8.41406C6.24609 45.9375 6.08203 45.9258 5.85937 45.7031C5.39062 45.2344 5.68359 44.0625 6.26953 44.0625C6.36328 44.0625 7.40625 44.2734 8.58984 44.5313ZM10.3125 48.75V49.6875H6.85547H3.38672L3.10547 49.3945C2.91797 49.2188 2.8125 48.9727 2.8125 48.75C2.8125 48.5273 2.91797 48.2813 3.10547 48.1055L3.38672 47.8125H6.85547H10.3125V48.75ZM10.8516 51.9844C10.957 52.2891 10.957 52.418 10.8516 52.4531C10.582 52.5469 6.44531 53.4375 6.26953 53.4375C5.92969 53.4375 5.625 52.9922 5.625 52.5C5.625 52.1836 5.70703 51.9492 5.85937 51.7969C6.08203 51.5742 6.24609 51.5625 8.41406 51.5625H10.7227L10.8516 51.9844Z" stroke="#4F5052" stroke-width="0.6" mask="url(#path-1-outside-1_470_740)"/>
<path d="M19.6875 53.5875H19.5375V53.4375V48.75V44.0625V43.9125H19.6875H20.625H21.5625H21.7125V44.0625V48.75V53.4375V53.5875H21.5625H20.625H19.6875Z" fill="#4F5052" stroke="#4F5052" stroke-width="0.3"/>
<path d="M27.1875 53.5875H27.0375V53.4375V48.75V44.0625V43.9125H27.1875H28.125H29.0625H29.2125V44.0625V48.75V53.4375V53.5875H29.0625H28.125H27.1875Z" fill="#4F5052" stroke="#4F5052" stroke-width="0.3"/>
<path d="M34.6875 53.5875H34.5375V53.4375V48.75V44.0625V43.9125H34.6875H35.625H36.5625H36.7125V44.0625V48.75V53.4375V53.5875H36.5625H35.625H34.6875Z" fill="#4F5052" stroke="#4F5052" stroke-width="0.3"/>
<path d="M42.1875 51.7125H42.0375V51.5625V48.75V45.9375V45.7875H42.1875H43.125H44.0625H44.2125V45.9375V48.75V51.5625V51.7125H44.0625H43.125H42.1875Z" fill="#4F5052" stroke="#4F5052" stroke-width="0.3"/>
<path d="M49.6875 50.775H49.5375V50.625V48.75V46.875V46.725H49.6875H50.625H51.5625H51.7125V46.875V48.75V50.625V50.775H51.5625H50.625H49.6875Z" fill="#4F5052" stroke="#4F5052" stroke-width="0.3"/>
</g>
<defs>
<clipPath id="clip0_470_740">
<rect width="60" height="60" fill="white"/>
</clipPath>
</defs>
</svg>
