<svg width="24" height="24" viewBox="0 0 24 24" fill="none" xmlns="http://www.w3.org/2000/svg">
<path d="M3.44531 0.0656261C3.27188 0.145313 3.11719 0.309376 3.05156 0.482813C3.01875 0.562501 3 1.07813 3 1.80469V2.99531L1.73906 3.00938C0.548438 3.02344 0.46875 3.02813 0.346875 3.12188C0.276563 3.17344 0.173438 3.27656 0.121875 3.34688C0.0234375 3.47344 0.0234375 3.50625 0.0234375 7.5C0.0234375 11.4938 0.0234375 11.5266 0.121875 11.6531C0.173438 11.7234 0.276563 11.8266 0.346875 11.8781C0.473438 11.9766 0.501563 11.9766 5.25 11.9766C9.99844 11.9766 10.0266 11.9766 10.1531 11.8781C10.2234 11.8266 10.3266 11.7234 10.3781 11.6531C10.4766 11.5266 10.4766 11.5078 10.4766 6C10.4766 0.492188 10.4766 0.473438 10.3781 0.346876C10.3266 0.276564 10.2234 0.173438 10.1531 0.121876C10.0266 0.0234385 9.975 0.0234385 6.80625 0.0140629C4.19531 0.00468826 3.55781 0.0140629 3.44531 0.0656261ZM9 6V10.5H8.25469H7.50938L7.49063 9.98906C7.47656 9.43594 7.43438 9.32813 7.15313 9.12188C6.97031 8.98594 6.52969 8.98594 6.34688 9.12188C6.06563 9.32813 6.02344 9.43594 6.00938 9.98906L5.99063 10.5H5.24531H4.5V6V1.5H6.75H9V6ZM3 7.5V10.5H2.25H1.5V7.5V4.5H2.25H3V7.5Z" fill="#08908C"/>
<path d="M6.44535 3.06563C5.97191 3.27188 5.85941 3.9 6.22972 4.27031C6.75472 4.8 7.61722 4.32656 7.48129 3.58594C7.39691 3.14531 6.86722 2.87813 6.44535 3.06563Z" fill="#08908C"/>
<path d="M6.44535 6.06563C5.97191 6.27188 5.85941 6.9 6.22972 7.27031C6.75472 7.8 7.61722 7.32656 7.48129 6.58594C7.39691 6.14531 6.86722 5.87813 6.44535 6.06563Z" fill="#08908C"/>
<path d="M13.9454 1.56562C13.8704 1.60312 13.411 2.02969 12.9282 2.5125C11.6673 3.79219 11.6673 3.7125 12.9751 5.025C13.7579 5.80781 13.9266 5.95312 14.0766 5.97656C14.3579 6.02812 14.5782 5.9625 14.7704 5.77031C15.0798 5.46094 15.0751 5.05312 14.7563 4.70625L14.5641 4.5H17.0298H19.5001L19.5095 7.26094C19.5235 9.97031 19.5235 10.0266 19.622 10.1531C19.8048 10.4016 19.9548 10.4766 20.2501 10.4766C20.5454 10.4766 20.6954 10.4016 20.8782 10.1531C20.9766 10.0266 20.9766 9.98437 20.9766 6.75C20.9766 3.51562 20.9766 3.47344 20.8782 3.34687C20.8266 3.27656 20.7235 3.17344 20.6532 3.12187C20.5266 3.02344 20.4704 3.02344 17.5454 3.00937L14.5688 3L14.7563 2.79375C15.0516 2.475 15.0798 2.07656 14.8266 1.77656C14.6063 1.51875 14.2454 1.42969 13.9454 1.56562Z" fill="#08908C"/>
<path d="M16.9453 12.0656C16.7719 12.1453 16.6172 12.3094 16.5516 12.4828C16.5188 12.5625 16.5 13.0781 16.5 13.8047V14.9953L15.2391 15.0094C14.0484 15.0234 13.9688 15.0281 13.8469 15.1219C13.7766 15.1734 13.6734 15.2766 13.6219 15.3469C13.5234 15.4734 13.5234 15.5063 13.5234 19.5C13.5234 23.4938 13.5234 23.5266 13.6219 23.6531C13.6734 23.7234 13.7766 23.8266 13.8469 23.8781C13.9734 23.9766 14.0016 23.9766 18.75 23.9766C23.4984 23.9766 23.5266 23.9766 23.6531 23.8781C23.7234 23.8266 23.8266 23.7234 23.8781 23.6531C23.9766 23.5266 23.9766 23.5078 23.9766 18C23.9766 12.4922 23.9766 12.4734 23.8781 12.3469C23.8266 12.2766 23.7234 12.1734 23.6531 12.1219C23.5266 12.0234 23.475 12.0234 20.3063 12.0141C17.6953 12.0047 17.0578 12.0141 16.9453 12.0656ZM22.5 18V22.5H21.7547H21.0094L20.9906 21.9891C20.9766 21.4359 20.9344 21.3281 20.6531 21.1219C20.4703 20.9859 20.0297 20.9859 19.8469 21.1219C19.5656 21.3281 19.5234 21.4359 19.5094 21.9891L19.4906 22.5H18.7453H18V18V13.5H20.25H22.5V18ZM16.5 19.5V22.5H15.75H15V19.5V16.5H15.75H16.5V19.5Z" fill="#08908C"/>
<path d="M19.9453 15.0658C19.4719 15.2721 19.3594 15.9002 19.7297 16.2705C20.0344 16.5752 20.4657 16.5752 20.7703 16.2705C21.3516 15.6893 20.7 14.7377 19.9453 15.0658Z" fill="#08908C"/>
<path d="M19.9453 18.0658C19.4719 18.2721 19.3594 18.9002 19.7297 19.2705C20.0344 19.5752 20.4657 19.5752 20.7703 19.2705C21.3516 18.6893 20.7 17.7377 19.9453 18.0658Z" fill="#08908C"/>
<path d="M3.44508 13.5658C3.25289 13.6502 3.05602 13.8892 3.02321 14.0767C3.00914 14.1611 2.99977 15.6424 3.00914 17.3767C3.02321 20.4705 3.02321 20.5267 3.12164 20.6533C3.17321 20.7236 3.27633 20.8267 3.34664 20.8783C3.47321 20.9767 3.52946 20.9767 6.45446 20.9908L9.43102 21.0002L9.24352 21.2064C8.92477 21.5533 8.92008 21.9611 9.22946 22.2705C9.42164 22.4627 9.64196 22.5283 9.92789 22.4767C10.0732 22.4533 10.242 22.308 11.0248 21.5252C12.342 20.208 12.342 20.2924 11.0248 18.9752C10.242 18.1924 10.0732 18.047 9.92789 18.0236C9.64196 17.972 9.42164 18.0377 9.22946 18.2299C8.92008 18.5392 8.92477 18.947 9.24352 19.2939L9.43571 19.5002H6.97008H4.49977L4.49039 16.7392C4.47633 14.0299 4.47633 13.9736 4.37789 13.847C4.32633 13.7767 4.22789 13.6736 4.16227 13.6267C4.00758 13.5095 3.63258 13.4767 3.44508 13.5658Z" fill="#08908C"/>
</svg>
