<svg width="24" height="24" viewBox="0 0 24 24" fill="none" xmlns="http://www.w3.org/2000/svg">
<path d="M2.85938 1.45325V2.15637H1.42969H0V12.0001V21.8439H4.58906H9.17813L9.54375 22.2095C9.96094 22.6267 10.4109 22.8986 10.9922 23.0954C11.3156 23.2032 11.4469 23.2173 11.9766 23.222C12.4922 23.2267 12.6422 23.2079 12.9375 23.1189C13.5516 22.9267 13.9969 22.6595 14.4328 22.2329L14.8266 21.8439H19.4156H24V12.0001V2.15637H22.5703H21.1406V1.45325V0.745434L17.0531 0.759497C12.4875 0.77356 12.8016 0.750122 12.2438 1.10637L11.9953 1.26575L11.7844 1.12043C11.6672 1.04075 11.4516 0.928246 11.3063 0.871996C11.0438 0.77356 11.0016 0.77356 6.95156 0.759497L2.85938 0.745434V1.45325ZM10.9219 2.25012C11.0438 2.31106 11.1422 2.4095 11.2031 2.53137C11.2969 2.71418 11.2969 2.78918 11.2969 10.172V17.6251H7.78125H4.26562V9.89074V2.15637H7.5C10.6547 2.15637 10.7438 2.16106 10.9219 2.25012ZM19.7344 9.89074V17.6251H16.2188H12.7031V10.1579C12.7078 3.06106 12.7125 2.68606 12.7922 2.53606C12.8391 2.45168 12.9563 2.32981 13.0594 2.26887L13.2422 2.15637H16.4906H19.7344V9.89074ZM2.85938 11.297V19.0314H12H21.1406V11.297V3.56262H21.8672H22.5938V12.0001V20.4376H18.3094H14.0203L13.8469 20.7236C13.4109 21.4454 12.7547 21.8439 12 21.8439C11.2594 21.8439 10.6547 21.4923 10.2094 20.8079L9.97031 20.4376H5.68594H1.40625V12.0001V3.56262H2.13281H2.85938V11.297Z" fill="#08908C"/>
<path d="M5.67188 5.67188V7.78125H7.78125H9.89062V5.67188V3.5625H7.78125H5.67188V5.67188ZM8.48438 5.67188V6.375H7.78125H7.07812V5.67188V4.96875H7.78125H8.48438V5.67188Z" fill="#08908C"/>
<path d="M5.67188 9.89062V10.5938H7.78125H9.89062V9.89062V9.1875H7.78125H5.67188V9.89062Z" fill="#08908C"/>
<path d="M5.67188 12.7031V13.4062H7.78125H9.89062V12.7031V12H7.78125H5.67188V12.7031Z" fill="#08908C"/>
<path d="M5.67188 15.5156V16.2188H7.78125H9.89062V15.5156V14.8125H7.78125H5.67188V15.5156Z" fill="#08908C"/>
<path d="M14.1094 4.26562V4.96875H16.2188H18.3281V4.26562V3.5625H16.2188H14.1094V4.26562Z" fill="#08908C"/>
<path d="M14.1094 7.07812V7.78125H16.2188H18.3281V7.07812V6.375H16.2188H14.1094V7.07812Z" fill="#08908C"/>
<path d="M14.1094 9.89062V10.5938H16.2188H18.3281V9.89062V9.1875H16.2188H14.1094V9.89062Z" fill="#08908C"/>
<path d="M14.1094 14.1094V16.2188H16.2188H18.3281V14.1094V12H16.2188H14.1094V14.1094ZM16.9219 14.1094V14.8125H16.2188H15.5156V14.1094V13.4062H16.2188H16.9219V14.1094Z" fill="#08908C"/>
</svg>
