<svg width="18" height="19" viewBox="0 0 18 19" fill="none" xmlns="http://www.w3.org/2000/svg">
<path d="M15.1875 4.39038H12.7969L12.2273 2.79429C12.188 2.68507 12.1159 2.59067 12.0209 2.52397C11.9259 2.45727 11.8126 2.42153 11.6965 2.42163H6.30352C6.06621 2.42163 5.85352 2.57105 5.77441 2.79429L5.20312 4.39038H2.8125C2.03555 4.39038 1.40625 5.01968 1.40625 5.79663V13.8123C1.40625 14.5892 2.03555 15.2185 2.8125 15.2185H15.1875C15.9645 15.2185 16.5938 14.5892 16.5938 13.8123V5.79663C16.5938 5.01968 15.9645 4.39038 15.1875 4.39038ZM15.3281 13.8123C15.3281 13.8896 15.2648 13.9529 15.1875 13.9529H2.8125C2.73516 13.9529 2.67188 13.8896 2.67188 13.8123V5.79663C2.67188 5.71929 2.73516 5.65601 2.8125 5.65601H6.09434L6.39492 4.81577L6.79746 3.68726H11.2008L11.6033 4.81577L11.9039 5.65601H15.1875C15.2648 5.65601 15.3281 5.71929 15.3281 5.79663V13.8123ZM9 6.78101C7.44609 6.78101 6.1875 8.0396 6.1875 9.59351C6.1875 11.1474 7.44609 12.406 9 12.406C10.5539 12.406 11.8125 11.1474 11.8125 9.59351C11.8125 8.0396 10.5539 6.78101 9 6.78101ZM9 11.281C8.06836 11.281 7.3125 10.5251 7.3125 9.59351C7.3125 8.66187 8.06836 7.90601 9 7.90601C9.93164 7.90601 10.6875 8.66187 10.6875 9.59351C10.6875 10.5251 9.93164 11.281 9 11.281Z" fill="white"/>
</svg>
