<svg width="24" height="24" viewBox="0 0 24 24" fill="none" xmlns="http://www.w3.org/2000/svg">
<g clip-path="url(#clip0_1685_2378)">
<path d="M1.68301 0.88604C1.09707 1.07354 0.637697 1.44385 0.309572 1.98292C-0.0185528 2.53604 0.000197239 1.90323 0.000197239 12.0001C0.000197239 22.097 -0.0185528 21.4642 0.309572 22.0173C0.642385 22.5657 1.13457 22.9548 1.72988 23.1282C1.95957 23.1939 2.97207 23.2032 12.0002 23.2032C23.058 23.2032 22.1955 23.2267 22.7955 22.9079C23.3252 22.6267 23.8174 21.9564 23.9486 21.3376C24.0236 20.986 24.0236 3.01417 23.9486 2.6626C23.8174 2.04385 23.3252 1.37354 22.7955 1.09229C22.1955 0.77354 23.0627 0.796978 11.9814 0.801666C2.49863 0.801666 1.93145 0.806353 1.68301 0.88604ZM21.9518 2.40948C22.1486 2.48917 22.3408 2.71885 22.4064 2.94385C22.4346 3.05167 22.4533 3.87198 22.4533 5.07198V7.03135H12.0002H1.54707V5.07198C1.54707 3.87198 1.56582 3.05167 1.59395 2.94385C1.65488 2.72354 1.85176 2.48917 2.03926 2.40948C2.25488 2.31573 21.7268 2.31573 21.9518 2.40948ZM6.28145 15.1407V21.6564H4.24238C2.6252 21.6564 2.17051 21.6423 2.04863 21.5907C1.85176 21.511 1.65957 21.2814 1.59395 21.0564C1.56582 20.9392 1.54707 18.8251 1.54707 14.7517V8.6251H3.91426H6.28145V15.1407ZM22.4439 14.8454C22.4299 21.811 22.458 21.2251 22.0924 21.5017L21.9236 21.6329L14.8736 21.647L7.82832 21.6564V15.1407V8.6251H15.1408H22.4533L22.4439 14.8454Z" fill="#08908C"/>
<path d="M3.75488 3.94252C3.558 3.98471 3.38457 4.11127 3.24394 4.31752C3.08925 4.53784 3.11269 4.93627 3.2955 5.17065C3.633 5.61596 4.3455 5.55034 4.59863 5.04877C4.88925 4.48159 4.37832 3.81127 3.75488 3.94252Z" fill="#08908C"/>
<path d="M6.87188 3.94688C6.49219 4.02656 6.28125 4.30313 6.28125 4.725C6.28125 4.88438 6.31406 5.00156 6.38906 5.11406C6.50625 5.29688 6.84375 5.48438 7.05 5.48438C7.26094 5.48438 7.55625 5.32031 7.6875 5.12344C7.84219 4.89375 7.85156 4.47656 7.70625 4.28438C7.49063 3.99375 7.2 3.87656 6.87188 3.94688Z" fill="#08908C"/>
<path d="M10.0314 3.9374C9.70792 3.99365 9.50636 4.18115 9.42198 4.50459C9.35636 4.74365 9.42667 5.01553 9.61417 5.22647C9.87667 5.52647 10.3642 5.55459 10.6642 5.29209C11.2735 4.75772 10.8235 3.79678 10.0314 3.9374Z" fill="#08908C"/>
<path d="M9.91412 11.2737C9.53912 11.4096 9.3235 11.8127 9.42662 12.1971C9.49225 12.4455 9.72662 12.6799 9.97037 12.7455C10.1063 12.783 11.6391 12.7971 15.2438 12.7877L20.3204 12.7737L20.4844 12.6705C20.9719 12.3658 20.9719 11.6346 20.4844 11.3299L20.3204 11.2268L15.211 11.2174C10.8938 11.208 10.0735 11.2174 9.91412 11.2737Z" fill="#08908C"/>
<path d="M9.86737 14.4094C9.78768 14.4422 9.66581 14.5406 9.59549 14.6203C9.28143 14.9953 9.34706 15.5062 9.73612 15.7734L9.91424 15.8906H15.1221H20.3299L20.4892 15.7828C20.7611 15.6 20.8689 15.3937 20.8502 15.0891C20.8267 14.7703 20.6861 14.5547 20.4189 14.4328C20.2361 14.3484 20.0017 14.3437 15.1174 14.3484C10.9736 14.3484 9.97987 14.3578 9.86737 14.4094Z" fill="#08908C"/>
<path d="M9.89092 17.5359C9.69873 17.6109 9.46904 17.8687 9.41748 18.0609C9.32842 18.3984 9.47842 18.7547 9.79248 18.9281L9.97529 19.0312L15.1784 19.0219C20.3534 19.0078 20.3862 19.0078 20.5128 18.9094C20.7237 18.7547 20.8269 18.5812 20.8456 18.3422C20.8784 18.0469 20.78 17.8172 20.5503 17.6437L20.3769 17.5078L15.1925 17.4984C11.8269 17.4937 9.96592 17.5078 9.89092 17.5359Z" fill="#08908C"/>
</g>
<defs>
<clipPath id="clip0_1685_2378">
<rect width="24" height="24" fill="white"/>
</clipPath>
</defs>
</svg>
