<svg width="28" height="28" viewBox="0 0 28 28" fill="none" xmlns="http://www.w3.org/2000/svg">
<path d="M18.8944 3.57662C18.3804 3.80084 18.2163 4.49537 18.5772 4.9274C18.8124 5.20631 18.9929 5.25006 19.8624 5.25006H20.6444L19.1022 6.79225C17.4397 8.46022 17.4343 8.47115 17.5272 8.9524C17.5765 9.22037 17.9046 9.5485 18.1726 9.59772C18.6538 9.69068 18.6647 9.68522 20.3272 8.02818L21.8694 6.49147L21.8858 7.34459C21.9022 8.10475 21.9132 8.21412 22.0171 8.34537C22.2304 8.63522 22.4054 8.72272 22.7499 8.72272C23.0944 8.72272 23.2694 8.63522 23.4827 8.34537C23.5921 8.19772 23.5976 8.13209 23.5976 6.13053V4.06334L23.4499 3.87193C23.1655 3.50553 23.1491 3.50006 20.989 3.50006C19.5069 3.50553 19.0202 3.52193 18.8944 3.57662Z" fill="#08908C"/>
<path d="M12.5836 3.64228C9.99693 3.99228 7.61802 5.31571 5.93365 7.33368C3.8938 9.77821 3.06802 13.0977 3.72974 16.1876C4.30943 18.9001 5.87349 21.2134 8.17037 22.7556C12.3102 25.5392 17.8555 25.0087 21.3883 21.4923C23.1383 19.7477 24.2102 17.4837 24.4508 15.0118C24.5657 13.8579 24.418 12.0751 24.1829 11.7579C24.1282 11.6813 23.9969 11.561 23.893 11.4954C23.7399 11.386 23.6524 11.3696 23.4008 11.386C22.8211 11.4298 22.5477 11.7743 22.6079 12.4087C22.6899 13.2727 22.7063 14.6509 22.6461 15.1212C22.0719 19.4688 18.3422 22.7501 13.9727 22.7501C9.73443 22.7501 6.07583 19.6657 5.35396 15.4767C5.2063 14.6181 5.2063 13.3821 5.35396 12.5235C5.98833 8.84306 8.90318 5.9665 12.6055 5.354C12.8188 5.32118 13.486 5.27743 14.093 5.25556C15.0883 5.22821 15.2086 5.21181 15.3454 5.1079C15.6243 4.90009 15.7227 4.71962 15.7227 4.40243C15.7227 4.07431 15.6133 3.8829 15.3126 3.67509C15.143 3.56025 15.0829 3.55478 14.1422 3.56025C13.5954 3.56571 12.8954 3.59853 12.5836 3.64228Z" fill="#08908C"/>
<path d="M13.6445 7.95186C13.2398 8.13779 13.1249 8.40576 13.1249 9.15498V9.71279L12.7312 9.80576C11.796 10.03 11.0851 10.5605 10.746 11.2769C10.3085 12.1956 10.4781 13.087 11.2491 13.9019C11.8234 14.5034 12.6054 14.7878 13.896 14.8698C14.9624 14.9409 15.3726 15.0995 15.6734 15.5589C15.8702 15.8542 15.5366 16.3026 14.9788 16.494C14.5577 16.6417 13.4421 16.6417 13.021 16.494C12.6273 16.3573 12.3156 16.0729 12.2718 15.8159C12.2116 15.4331 12.1351 15.2636 11.9491 15.0995C11.4788 14.6894 10.7241 14.8972 10.5437 15.4878C10.4562 15.7886 10.5546 16.3245 10.7788 16.7784C11.1179 17.4456 11.9765 18.0745 12.764 18.2331L13.0976 18.3042L13.1249 18.9386C13.1523 19.6222 13.2015 19.7425 13.5296 19.9831C13.7429 20.1417 14.257 20.1417 14.4702 19.9831C14.7984 19.7425 14.8476 19.6222 14.8749 18.9386L14.9023 18.3097L15.3015 18.2058C16.4882 17.905 17.2866 17.1284 17.4616 16.1003C17.5765 15.4222 17.3413 14.7331 16.7835 14.137C16.182 13.4917 15.4218 13.2128 14.0765 13.1253C13.6281 13.0979 13.1796 13.0542 13.0866 13.0214C12.6163 12.8792 12.2499 12.5456 12.2499 12.2503C12.2499 12.0315 12.4577 11.769 12.7585 11.6269C13.1577 11.43 13.6116 11.3589 14.2187 11.3917C15.0937 11.4409 15.6515 11.7308 15.7226 12.1847C15.7882 12.5675 15.8648 12.737 16.0507 12.9011C16.6304 13.4097 17.4999 12.9886 17.4999 12.2011C17.4999 11.9003 17.3249 11.3698 17.1171 11.0472C16.7452 10.4675 15.9577 9.94795 15.214 9.78936L14.8859 9.72373L14.864 9.07295C14.8476 8.37842 14.8038 8.26358 14.4812 8.02295C14.2952 7.88623 13.8632 7.84795 13.6445 7.95186Z" fill="#08908C"/>
</svg>
