<svg width="45" height="45" viewBox="0 0 45 45" fill="none" xmlns="http://www.w3.org/2000/svg">
<path d="M26.9397 0.368961C25.5616 1.25021 24.4835 3.12521 24.1272 5.27208L24.0803 5.61896L23.4335 5.35646C22.2241 4.85958 20.3866 4.51271 18.9897 4.51271C18.5397 4.51271 18.4085 4.55021 18.221 4.74709C17.7803 5.17833 17.8835 5.45958 18.8116 6.36896C19.2616 6.81896 19.8241 7.41896 20.0678 7.70021C20.5647 8.30021 21.2678 9.29396 21.2678 9.39708C21.2678 9.43459 20.996 9.35021 20.6585 9.19083C19.5053 8.67521 17.4522 8.26271 15.971 8.26271C15.5397 8.26271 15.4085 8.30021 15.221 8.49709C14.7803 8.93771 14.8741 9.17208 15.971 10.2783C17.1616 11.4877 18.0147 12.6033 18.6053 13.7471L19.0553 14.6096L18.3241 15.4346C16.3272 17.6752 15.2303 20.2627 15.0241 23.1971L14.9585 24.0596L14.0116 24.369C13.4866 24.5377 12.896 24.7815 12.6991 24.9127C12.5022 25.044 12.3241 25.1283 12.2866 25.1002C12.2022 25.0158 12.446 23.4315 12.6991 22.4377C12.821 21.9502 13.046 21.3033 13.2053 20.994C13.3553 20.6752 13.4866 20.319 13.4866 20.1971C13.4866 19.8971 13.0835 19.5127 12.7835 19.5127C12.3522 19.5127 12.1647 19.7002 11.7991 20.4783C11.3866 21.3783 11.1241 22.3533 10.9085 23.8346C10.8241 24.4252 10.721 25.0252 10.6928 25.1658L10.6272 25.4283L9.99908 25.044C9.6522 24.8377 8.9772 24.5377 8.49908 24.369C7.73033 24.1065 7.50533 24.069 6.59595 24.069C5.51783 24.069 4.64595 24.2565 3.78345 24.6877C1.57095 25.8033 0.174076 28.1002 0.0147008 30.9033C-0.0321742 31.6908 0.0240758 32.2158 0.314701 34.1846C0.502201 35.469 0.717826 36.8002 0.792826 37.1377C1.20533 38.8908 2.13345 41.1221 2.92095 42.2283C3.75533 43.3908 4.93658 44.2815 6.21158 44.7033C6.86783 44.919 7.12095 44.9565 8.09595 44.9565C9.15533 44.9565 9.2772 44.9377 10.2241 44.6096L11.2366 44.2533L12.2303 44.6002C14.4522 45.3596 16.5053 45.0221 18.2491 43.6065L18.8491 43.1283L19.7022 43.5033C23.8366 45.3033 28.4866 45.4815 32.8835 44.0283C39.5116 41.8158 44.5647 35.9283 44.9491 29.9471C45.0147 29.0096 45.0053 29.0002 44.771 28.7565L44.5272 28.5127H42.5116H40.5053L40.4585 25.4002C40.421 22.7002 40.3928 22.1658 40.2241 21.4346C39.6991 19.1096 38.7522 17.2533 37.1585 15.444L36.4178 14.6096L36.8585 13.7565C37.4303 12.6408 38.2928 11.4971 39.5022 10.2783C40.6085 9.16271 40.7022 8.93771 40.2428 8.47834C39.9991 8.23458 39.9897 8.23458 38.9397 8.30021C37.2991 8.39396 35.5272 8.80646 34.5053 9.33146C34.3366 9.41584 34.2053 9.45333 34.2053 9.40646C34.2053 9.12521 35.5366 7.48458 36.6616 6.36896C37.5991 5.44083 37.6928 5.17833 37.2428 4.72834C36.9991 4.48458 36.9991 4.48458 35.9116 4.55021C34.5522 4.62521 33.3897 4.85958 32.2647 5.28146L31.3928 5.60958L31.3366 5.27208C31.1022 3.78146 30.3991 2.18771 29.5835 1.27834C29.021 0.650211 28.1022 0.0127106 27.746 0.0127106C27.6147 0.0127106 27.2491 0.172085 26.9397 0.368961ZM28.3741 2.19709C29.1241 3.00333 29.6585 4.25021 29.8928 5.75959L29.9866 6.38771L29.0678 7.30646C28.5616 7.80333 28.0647 8.35646 27.971 8.51583C27.8678 8.68459 27.7647 8.82521 27.7366 8.82521C27.7085 8.82521 27.6053 8.68459 27.5022 8.51583C27.4085 8.35646 26.9116 7.80333 26.4053 7.30646L25.4866 6.38771L25.5803 5.75959C25.7116 4.89708 26.0116 3.93146 26.3491 3.25646C26.6678 2.62833 27.4928 1.70021 27.7366 1.70021C27.821 1.70021 28.1116 1.92521 28.3741 2.19709ZM21.7835 6.39708C23.996 6.96896 25.8616 8.42208 26.846 10.3252C27.0897 10.794 27.2678 11.1971 27.2491 11.2158C27.2397 11.2346 26.8178 11.2908 26.3303 11.3471C25.8428 11.4033 25.0928 11.544 24.6616 11.6471C24.2303 11.7502 23.8647 11.8252 23.8553 11.8065C23.846 11.7971 23.771 11.4971 23.6772 11.1408C23.3772 9.94083 22.4116 8.19709 21.221 6.73458C20.9678 6.42521 20.8366 6.20021 20.9116 6.20021C20.9866 6.20021 21.3803 6.28458 21.7835 6.39708ZM34.2147 6.78146C33.0147 8.27208 32.1053 9.90334 31.796 11.1408C31.7022 11.4877 31.6272 11.7971 31.6085 11.8158C31.5991 11.8252 31.3085 11.769 30.9522 11.6846C30.6053 11.5908 29.996 11.469 29.6116 11.4127L28.9085 11.3002L28.7491 10.8502L28.5803 10.4002L28.8335 9.92208C28.9835 9.65021 29.5085 9.01271 30.0335 8.48771C30.8678 7.65334 31.0835 7.49396 31.9553 7.06271C32.8366 6.62209 34.0553 6.21896 34.5147 6.20958C34.6553 6.20021 34.5803 6.33146 34.2147 6.78146ZM18.7928 10.1377C20.2272 10.5033 22.3928 11.7971 22.3928 12.294C22.3928 12.3877 22.271 12.5096 22.1022 12.5752C21.9428 12.6502 21.4647 12.9221 21.0335 13.1846L20.2647 13.6721L20.0116 13.1565C19.7022 12.5283 18.896 11.319 18.2585 10.5315C17.9772 10.1846 17.8366 9.95021 17.9116 9.95021C17.9866 9.95021 18.3803 10.0346 18.7928 10.1377ZM37.2147 10.5315C36.5772 11.319 35.771 12.5283 35.4616 13.1565L35.2085 13.6721L34.4397 13.1846C34.0085 12.9221 33.5303 12.6502 33.371 12.5752C33.2022 12.5096 33.0803 12.3877 33.0803 12.294C33.0803 11.8065 35.2272 10.5127 36.6428 10.1471C37.7491 9.85646 37.7585 9.86583 37.2147 10.5315ZM24.8303 14.169C24.1366 14.8346 23.5366 15.3783 23.4991 15.3783C23.4616 15.3877 23.1522 15.1252 22.8147 14.8065L22.1866 14.2252L22.5991 14.0096C23.5647 13.5033 25.8803 12.7721 26.0491 12.9221C26.0678 12.9408 25.5241 13.5033 24.8303 14.169ZM31.3928 13.3721C31.6272 13.4471 32.1428 13.6721 32.546 13.8596L33.2772 14.2065L32.6866 14.7971C32.3585 15.1252 32.0491 15.3783 31.9835 15.369C31.8897 15.3408 29.4241 12.969 29.4241 12.894C29.4241 12.8471 30.9897 13.2221 31.3928 13.3721ZM29.3678 17.9846C28.5147 18.8283 27.7928 19.5127 27.7553 19.5127C27.7178 19.5127 26.996 18.8377 26.1428 18.0127L24.596 16.5221L26.171 14.9565L27.7366 13.4002L29.3303 14.9283L30.9147 16.4658L29.3678 17.9846ZM21.7272 15.8002L22.4116 16.494L20.8366 18.0408L19.2522 19.5971L18.6241 18.9783L17.996 18.3596L18.4741 17.6471C18.971 16.8971 20.696 15.1065 20.9116 15.1065C20.9772 15.1065 21.3522 15.4158 21.7272 15.8002ZM35.6022 16.0158C36.1085 16.5221 36.7366 17.2721 37.0178 17.6752L37.5147 18.4158L36.9147 18.9596C36.5866 19.2596 36.2772 19.5033 36.2303 19.5127C36.1835 19.5127 35.4522 18.8283 34.6085 17.9846L33.0616 16.4658L33.8022 15.7908C34.2053 15.4158 34.571 15.1065 34.6085 15.1065C34.6553 15.1065 35.1053 15.519 35.6022 16.0158ZM25.7678 19.7471L26.6585 20.6471L25.1116 22.1377C24.2585 22.9627 23.5178 23.6283 23.4522 23.6096C23.396 23.6002 22.6647 22.9252 21.8397 22.1096L20.3303 20.619L21.896 19.0908L23.471 17.5721L24.1741 18.2096C24.5585 18.5565 25.2803 19.2502 25.7678 19.7471ZM35.1428 20.6377C35.1428 20.6658 34.4397 21.369 33.5678 22.194L32.0022 23.7033L30.4085 22.1565L28.8147 20.619L30.4085 19.0908L31.9928 17.5627L33.5678 19.0721C34.4303 19.8971 35.1428 20.6002 35.1428 20.6377ZM17.7522 20.2627L18.1178 20.6377L17.396 21.369L16.6647 22.0908L16.7303 21.7158C16.8241 21.1627 17.2366 19.8877 17.3116 19.8877C17.3585 19.8877 17.5553 20.0565 17.7522 20.2627ZM38.4522 20.6096C38.5835 21.0127 38.7147 21.5096 38.7428 21.7158L38.8084 22.0908L38.0772 21.369L37.3553 20.6377L37.721 20.2627C37.9178 20.0565 38.1147 19.8877 38.1616 19.8877C38.1991 19.8877 38.3303 20.2158 38.4522 20.6096ZM22.3928 24.7627C22.3928 24.7908 22.0366 25.1377 21.596 25.5408L20.7991 26.2815L20.3022 25.8315C19.346 24.969 18.3335 24.4252 17.2085 24.1815L16.7397 24.0877L17.996 22.8877L19.2522 21.6971L20.8178 23.2065C21.6897 24.0408 22.3928 24.7346 22.3928 24.7627ZM29.3866 26.2346C28.5616 27.0783 27.8397 27.7627 27.7835 27.7627C27.7366 27.7627 26.996 27.0877 26.1428 26.2627L24.596 24.7721L26.171 23.2065L27.746 21.6502L29.321 23.1783L30.896 24.7158L29.3866 26.2346ZM37.6647 23.0377L38.9866 24.3127V24.7627V25.2127L37.6553 26.4877C36.9241 27.1908 36.2772 27.7627 36.2303 27.7627C36.1835 27.7627 35.4616 27.0877 34.6366 26.2627L33.1272 24.7627L34.6272 23.2627C35.4522 22.4377 36.1741 21.7627 36.2303 21.7627C36.296 21.7627 36.9335 22.3346 37.6647 23.0377ZM8.04908 25.794C8.3772 25.9065 8.93033 26.1596 9.26783 26.3565C9.60533 26.5533 10.0366 26.7596 10.2335 26.8252L10.5991 26.9377L10.5335 27.6596C10.496 28.0533 10.4491 28.3815 10.4397 28.4002C10.3928 28.4565 9.7272 28.1471 9.48345 27.9502C8.9772 27.5471 8.23658 27.8846 8.23658 28.5221C8.23658 29.244 9.8022 30.0127 11.2647 30.0127C12.7085 30.0033 14.2366 29.2346 14.2366 28.5221C14.2366 27.8846 13.496 27.5471 12.9897 27.9502C12.7085 28.1752 12.0803 28.4471 12.0147 28.3815C11.9866 28.3533 11.996 27.9971 12.0335 27.5846C12.0991 26.8627 12.1085 26.8346 12.3616 26.7783C12.5116 26.7502 12.896 26.5533 13.2241 26.3565C15.3616 25.0721 17.5928 25.3158 19.3085 27.0127C20.321 28.0158 20.846 29.2815 20.9491 30.9502C20.996 31.6908 20.9491 32.2252 20.6678 34.0908C20.171 37.3346 19.8241 38.5721 18.8491 40.4658C17.8366 42.4533 15.9241 43.6627 14.0678 43.4846C13.7678 43.4658 13.0553 43.2877 12.4741 43.1002C11.9022 42.9127 11.3397 42.7627 11.2366 42.7627C11.1335 42.7627 10.571 42.9127 9.99908 43.1002C8.76158 43.5033 8.08658 43.5783 7.28033 43.4283C6.30533 43.2315 5.55533 42.819 4.75845 42.0221C4.13033 41.4033 3.97095 41.1596 3.47408 40.1377C2.54595 38.244 2.29283 37.3158 1.8147 34.1283C1.63658 32.9096 1.48658 31.6252 1.48658 31.2877C1.48658 28.0252 3.88658 25.4096 6.73658 25.5502C7.12095 25.569 7.71158 25.6815 8.04908 25.794ZM25.8616 28.0815L26.2741 28.5127H24.1553H22.0272L21.8303 28.0721L21.6335 27.6315L22.5428 26.7221L23.4616 25.8033L24.446 26.7315C24.9897 27.2377 25.6272 27.8471 25.8616 28.0815ZM34.4397 28.1565L34.8147 28.5127H32.0116H29.1991L30.6053 27.1627L32.0022 25.8127L33.0335 26.8065C33.6053 27.3502 34.2335 27.9596 34.4397 28.1565ZM38.9866 27.9033V28.5127H38.3585H37.7303L38.3303 27.9033C38.6585 27.5658 38.9491 27.294 38.9585 27.294C38.9772 27.294 38.9866 27.5658 38.9866 27.9033ZM40.2991 30.1815C40.2991 31.0158 39.1647 33.519 38.1991 34.794C36.9897 36.4065 34.9741 38.1033 33.2491 38.9752C30.1647 40.5221 27.0147 40.8877 23.7053 40.0815C22.9366 39.894 21.2397 39.294 21.0991 39.1627C21.0897 39.144 21.146 38.9471 21.221 38.7221C21.5303 37.8596 21.8397 36.3596 22.1678 34.1377C22.4397 32.2815 22.496 31.6627 22.4585 30.9221L22.4116 30.0127H31.3553C39.8491 30.0127 40.2991 30.0221 40.2991 30.1815ZM43.4491 30.219C43.421 30.3408 43.3553 30.7252 43.2991 31.0721C42.6428 35.169 39.0522 39.5377 34.5335 41.7408C30.0522 43.9252 25.0272 44.0846 20.4616 42.1908L19.796 41.9096L20.1335 41.2627C20.321 40.8971 20.5085 40.6065 20.5553 40.6065C20.6022 40.6065 21.0147 40.7565 21.4741 40.944C28.1303 43.6065 35.9022 41.0658 39.9334 34.9065C40.8335 33.519 41.471 31.9815 41.8366 30.2658C41.8928 30.0127 41.9022 30.0127 42.6897 30.0127C43.4678 30.0127 43.4866 30.0221 43.4491 30.219Z" fill="#76C893"/>
<path d="M36.2209 31.7471C35.7521 32.2064 36.0802 33.0127 36.7365 33.0127C37.1209 33.0127 37.4865 32.6471 37.4865 32.2627C37.4865 31.8783 37.1209 31.5127 36.7365 31.5127C36.5584 31.5127 36.3615 31.5971 36.2209 31.7471Z" fill="#76C893"/>
<path d="M24.2209 33.2471C23.7521 33.7064 24.0802 34.5127 24.7365 34.5127C25.1209 34.5127 25.4865 34.1471 25.4865 33.7627C25.4865 33.3783 25.1209 33.0127 24.7365 33.0127C24.5584 33.0127 24.3615 33.0971 24.2209 33.2471Z" fill="#76C893"/>
<path d="M28.7209 33.2471C28.2521 33.7064 28.5802 34.5127 29.2365 34.5127C29.6209 34.5127 29.9865 34.1471 29.9865 33.7627C29.9865 33.3783 29.6209 33.0127 29.2365 33.0127C29.0584 33.0127 28.8615 33.0971 28.7209 33.2471Z" fill="#76C893"/>
<path d="M32.4709 35.4971C32.0021 35.9564 32.3302 36.7627 32.9865 36.7627C33.3709 36.7627 33.7365 36.3971 33.7365 36.0127C33.7365 35.6283 33.3709 35.2627 32.9865 35.2627C32.8084 35.2627 32.6115 35.3471 32.4709 35.4971Z" fill="#76C893"/>
<path d="M26.4709 37.7471C26.0021 38.2064 26.3302 39.0127 26.9865 39.0127C27.3709 39.0127 27.7365 38.6471 27.7365 38.2627C27.7365 37.8783 27.3709 37.5127 26.9865 37.5127C26.8084 37.5127 26.6115 37.5971 26.4709 37.7471Z" fill="#76C893"/>
</svg>
