<svg width="22" height="22" viewBox="0 0 22 22" fill="none" xmlns="http://www.w3.org/2000/svg">
<path d="M15.8944 0.576622C15.3804 0.800841 15.2163 1.49537 15.5772 1.9274C15.8124 2.20631 15.9929 2.25006 16.8624 2.25006H17.6444L16.1022 3.79225C14.4397 5.46022 14.4343 5.47115 14.5272 5.9524C14.5765 6.22037 14.9046 6.5485 15.1726 6.59772C15.6538 6.69068 15.6647 6.68522 17.3272 5.02818L18.8694 3.49147L18.8858 4.34459C18.9022 5.10475 18.9132 5.21412 19.0171 5.34537C19.2304 5.63522 19.4054 5.72272 19.7499 5.72272C20.0944 5.72272 20.2694 5.63522 20.4827 5.34537C20.5921 5.19772 20.5976 5.13209 20.5976 3.13053V1.06334L20.4499 0.871934C20.1655 0.505528 20.1491 0.500059 17.989 0.500059C16.5069 0.505528 16.0202 0.521934 15.8944 0.576622Z" fill="#08908C"/>
<path d="M9.58365 0.642277C6.99693 0.992277 4.61802 2.31571 2.93365 4.33368C0.893803 6.77821 0.0680215 10.0977 0.72974 13.1876C1.30943 15.9001 2.87349 18.2134 5.17037 19.7556C9.31021 22.5392 14.8555 22.0087 18.3883 18.4923C20.1383 16.7477 21.2102 14.4837 21.4508 12.0118C21.5657 10.8579 21.418 9.07509 21.1829 8.7579C21.1282 8.68134 20.9969 8.56103 20.893 8.4954C20.7399 8.38603 20.6524 8.36962 20.4008 8.38603C19.8211 8.42978 19.5477 8.77431 19.6079 9.40868C19.6899 10.2727 19.7063 11.6509 19.6461 12.1212C19.0719 16.4688 15.3422 19.7501 10.9727 19.7501C6.73443 19.7501 3.07583 16.6657 2.35396 12.4767C2.2063 11.6181 2.2063 10.3821 2.35396 9.52353C2.98833 5.84306 5.90318 2.9665 9.60552 2.354C9.8188 2.32118 10.486 2.27743 11.093 2.25556C12.0883 2.22821 12.2086 2.21181 12.3454 2.1079C12.6243 1.90009 12.7227 1.71962 12.7227 1.40243C12.7227 1.07431 12.6133 0.882902 12.3126 0.67509C12.143 0.560246 12.0829 0.554777 11.1422 0.560246C10.5954 0.565715 9.89537 0.598527 9.58365 0.642277Z" fill="#08908C"/>
<path d="M10.6445 4.95186C10.2398 5.13779 10.1249 5.40576 10.1249 6.15498V6.71279L9.73118 6.80576C8.79602 7.02998 8.08508 7.56045 7.74602 8.27686C7.30852 9.19561 7.47805 10.087 8.24915 10.9019C8.82336 11.5034 9.6054 11.7878 10.896 11.8698C11.9624 11.9409 12.3726 12.0995 12.6734 12.5589C12.8702 12.8542 12.5366 13.3026 11.9788 13.494C11.5577 13.6417 10.4421 13.6417 10.021 13.494C9.62727 13.3573 9.31555 13.0729 9.2718 12.8159C9.21165 12.4331 9.13508 12.2636 8.94915 12.0995C8.47883 11.6894 7.72415 11.8972 7.54368 12.4878C7.45618 12.7886 7.55461 13.3245 7.77883 13.7784C8.1179 14.4456 8.97649 15.0745 9.76399 15.2331L10.0976 15.3042L10.1249 15.9386C10.1523 16.6222 10.2015 16.7425 10.5296 16.9831C10.7429 17.1417 11.257 17.1417 11.4702 16.9831C11.7984 16.7425 11.8476 16.6222 11.8749 15.9386L11.9023 15.3097L12.3015 15.2058C13.4882 14.905 14.2866 14.1284 14.4616 13.1003C14.5765 12.4222 14.3413 11.7331 13.7835 11.137C13.182 10.4917 12.4218 10.2128 11.0765 10.1253C10.6281 10.0979 10.1796 10.0542 10.0866 10.0214C9.61633 9.8792 9.24993 9.54561 9.24993 9.25029C9.24993 9.03154 9.45774 8.76904 9.75852 8.62686C10.1577 8.42998 10.6116 8.35889 11.2187 8.3917C12.0937 8.44092 12.6515 8.73076 12.7226 9.18467C12.7882 9.56748 12.8648 9.73701 13.0507 9.90107C13.6304 10.4097 14.4999 9.98857 14.4999 9.20108C14.4999 8.90029 14.3249 8.36983 14.1171 8.04717C13.7452 7.46748 12.9577 6.94795 12.214 6.78936L11.8859 6.72373L11.864 6.07295C11.8476 5.37842 11.8038 5.26358 11.4812 5.02295C11.2952 4.88623 10.8632 4.84795 10.6445 4.95186Z" fill="#08908C"/>
</svg>
