<svg width="70" height="71" viewBox="0 0 70 71" fill="none" xmlns="http://www.w3.org/2000/svg">
<rect y="0.46875" width="70" height="70" rx="18" fill="white"/>
<path d="M39.9397 13.8377C38.5616 14.719 37.4835 16.594 37.1272 18.7408L37.0803 19.0877L36.4335 18.8252C35.2241 18.3283 33.3866 17.9815 31.9897 17.9815C31.5397 17.9815 31.4085 18.019 31.221 18.2158C30.7803 18.6471 30.8835 18.9283 31.8116 19.8377C32.2616 20.2877 32.8241 20.8877 33.0678 21.169C33.5647 21.769 34.2678 22.7627 34.2678 22.8658C34.2678 22.9033 33.996 22.819 33.6585 22.6596C32.5053 22.144 30.4522 21.7315 28.971 21.7315C28.5397 21.7315 28.4085 21.769 28.221 21.9658C27.7803 22.4065 27.8741 22.6408 28.971 23.7471C30.1616 24.9565 31.0147 26.0721 31.6053 27.2158L32.0553 28.0783L31.3241 28.9033C29.3272 31.144 28.2303 33.7315 28.0241 36.6658L27.9585 37.5283L27.0116 37.8377C26.4866 38.0065 25.896 38.2502 25.6991 38.3815C25.5022 38.5127 25.3241 38.5971 25.2866 38.569C25.2022 38.4846 25.446 36.9002 25.6991 35.9065C25.821 35.419 26.046 34.7721 26.2053 34.4627C26.3553 34.144 26.4866 33.7877 26.4866 33.6658C26.4866 33.3658 26.0835 32.9815 25.7835 32.9815C25.3522 32.9815 25.1647 33.169 24.7991 33.9471C24.3866 34.8471 24.1241 35.8221 23.9085 37.3033C23.8241 37.894 23.721 38.494 23.6928 38.6346L23.6272 38.8971L22.9991 38.5127C22.6522 38.3065 21.9772 38.0065 21.4991 37.8377C20.7303 37.5752 20.5053 37.5377 19.596 37.5377C18.5178 37.5377 17.646 37.7252 16.7835 38.1565C14.571 39.2721 13.1741 41.569 13.0147 44.3721C12.9678 45.1596 13.0241 45.6846 13.3147 47.6533C13.5022 48.9377 13.7178 50.269 13.7928 50.6065C14.2053 52.3596 15.1335 54.5908 15.921 55.6971C16.7553 56.8596 17.9366 57.7502 19.2116 58.1721C19.8678 58.3877 20.121 58.4252 21.096 58.4252C22.1553 58.4252 22.2772 58.4065 23.2241 58.0783L24.2366 57.7221L25.2303 58.069C27.4522 58.8283 29.5053 58.4908 31.2491 57.0752L31.8491 56.5971L32.7022 56.9721C36.8366 58.7721 41.4866 58.9502 45.8835 57.4971C52.5116 55.2846 57.5647 49.3971 57.9491 43.4158C58.0147 42.4783 58.0053 42.469 57.771 42.2252L57.5272 41.9815H55.5116H53.5053L53.4585 38.869C53.421 36.169 53.3928 35.6346 53.2241 34.9033C52.6991 32.5783 51.7522 30.7221 50.1585 28.9127L49.4178 28.0783L49.8585 27.2252C50.4303 26.1096 51.2928 24.9658 52.5022 23.7471C53.6085 22.6315 53.7022 22.4065 53.2428 21.9471C52.9991 21.7033 52.9897 21.7033 51.9397 21.769C50.2991 21.8627 48.5272 22.2752 47.5053 22.8002C47.3366 22.8846 47.2053 22.9221 47.2053 22.8752C47.2053 22.594 48.5366 20.9533 49.6616 19.8377C50.5991 18.9096 50.6928 18.6471 50.2428 18.1971C49.9991 17.9533 49.9991 17.9533 48.9116 18.019C47.5522 18.094 46.3897 18.3283 45.2647 18.7502L44.3928 19.0783L44.3366 18.7408C44.1022 17.2502 43.3991 15.6565 42.5835 14.7471C42.021 14.119 41.1022 13.4815 40.746 13.4815C40.6147 13.4815 40.2491 13.6408 39.9397 13.8377ZM41.3741 15.6658C42.1241 16.4721 42.6585 17.719 42.8928 19.2283L42.9866 19.8565L42.0678 20.7752C41.5616 21.2721 41.0647 21.8252 40.971 21.9846C40.8678 22.1533 40.7647 22.294 40.7366 22.294C40.7085 22.294 40.6053 22.1533 40.5022 21.9846C40.4085 21.8252 39.9116 21.2721 39.4053 20.7752L38.4866 19.8565L38.5803 19.2283C38.7116 18.3658 39.0116 17.4002 39.3491 16.7252C39.6678 16.0971 40.4928 15.169 40.7366 15.169C40.821 15.169 41.1116 15.394 41.3741 15.6658ZM34.7835 19.8658C36.996 20.4377 38.8616 21.8908 39.846 23.794C40.0897 24.2627 40.2678 24.6658 40.2491 24.6846C40.2397 24.7033 39.8178 24.7596 39.3303 24.8158C38.8428 24.8721 38.0928 25.0127 37.6616 25.1158C37.2303 25.219 36.8647 25.294 36.8553 25.2752C36.846 25.2658 36.771 24.9658 36.6772 24.6096C36.3772 23.4096 35.4116 21.6658 34.221 20.2033C33.9678 19.894 33.8366 19.669 33.9116 19.669C33.9866 19.669 34.3803 19.7533 34.7835 19.8658ZM47.2147 20.2502C46.0147 21.7408 45.1053 23.3721 44.796 24.6096C44.7022 24.9565 44.6272 25.2658 44.6085 25.2846C44.5991 25.294 44.3085 25.2377 43.9522 25.1533C43.6053 25.0596 42.996 24.9377 42.6116 24.8815L41.9085 24.769L41.7491 24.319L41.5803 23.869L41.8335 23.3908C41.9835 23.119 42.5085 22.4815 43.0335 21.9565C43.8678 21.1221 44.0835 20.9627 44.9553 20.5315C45.8366 20.0908 47.0553 19.6877 47.5147 19.6783C47.6553 19.669 47.5803 19.8002 47.2147 20.2502ZM31.7928 23.6065C33.2272 23.9721 35.3928 25.2658 35.3928 25.7627C35.3928 25.8565 35.271 25.9783 35.1022 26.044C34.9428 26.119 34.4647 26.3908 34.0335 26.6533L33.2647 27.1408L33.0116 26.6252C32.7022 25.9971 31.896 24.7877 31.2585 24.0002C30.9772 23.6533 30.8366 23.419 30.9116 23.419C30.9866 23.419 31.3803 23.5033 31.7928 23.6065ZM50.2147 24.0002C49.5772 24.7877 48.771 25.9971 48.4616 26.6252L48.2085 27.1408L47.4397 26.6533C47.0085 26.3908 46.5303 26.119 46.371 26.044C46.2022 25.9783 46.0803 25.8565 46.0803 25.7627C46.0803 25.2752 48.2272 23.9815 49.6428 23.6158C50.7491 23.3252 50.7585 23.3346 50.2147 24.0002ZM37.8303 27.6377C37.1366 28.3033 36.5366 28.8471 36.4991 28.8471C36.4616 28.8565 36.1522 28.594 35.8147 28.2752L35.1866 27.694L35.5991 27.4783C36.5647 26.9721 38.8803 26.2408 39.0491 26.3908C39.0678 26.4096 38.5241 26.9721 37.8303 27.6377ZM44.3928 26.8408C44.6272 26.9158 45.1428 27.1408 45.546 27.3283L46.2772 27.6752L45.6866 28.2658C45.3585 28.594 45.0491 28.8471 44.9835 28.8377C44.8897 28.8096 42.4241 26.4377 42.4241 26.3627C42.4241 26.3158 43.9897 26.6908 44.3928 26.8408ZM42.3678 31.4533C41.5147 32.2971 40.7928 32.9815 40.7553 32.9815C40.7178 32.9815 39.996 32.3065 39.1428 31.4815L37.596 29.9908L39.171 28.4252L40.7366 26.869L42.3303 28.3971L43.9147 29.9346L42.3678 31.4533ZM34.7272 29.269L35.4116 29.9627L33.8366 31.5096L32.2522 33.0658L31.6241 32.4471L30.996 31.8283L31.4741 31.1158C31.971 30.3658 33.696 28.5752 33.9116 28.5752C33.9772 28.5752 34.3522 28.8846 34.7272 29.269ZM48.6022 29.4846C49.1085 29.9908 49.7366 30.7408 50.0178 31.144L50.5147 31.8846L49.9147 32.4283C49.5866 32.7283 49.2772 32.9721 49.2303 32.9815C49.1835 32.9815 48.4522 32.2971 47.6085 31.4533L46.0616 29.9346L46.8022 29.2596C47.2053 28.8846 47.571 28.5752 47.6085 28.5752C47.6553 28.5752 48.1053 28.9877 48.6022 29.4846ZM38.7678 33.2158L39.6585 34.1158L38.1116 35.6065C37.2585 36.4315 36.5178 37.0971 36.4522 37.0783C36.396 37.069 35.6647 36.394 34.8397 35.5783L33.3303 34.0877L34.896 32.5596L36.471 31.0408L37.1741 31.6783C37.5585 32.0252 38.2803 32.719 38.7678 33.2158ZM48.1428 34.1065C48.1428 34.1346 47.4397 34.8377 46.5678 35.6627L45.0022 37.1721L43.4085 35.6252L41.8147 34.0877L43.4085 32.5596L44.9928 31.0315L46.5678 32.5408C47.4303 33.3658 48.1428 34.069 48.1428 34.1065ZM30.7522 33.7315L31.1178 34.1065L30.396 34.8377L29.6647 35.5596L29.7303 35.1846C29.8241 34.6315 30.2366 33.3565 30.3116 33.3565C30.3585 33.3565 30.5553 33.5252 30.7522 33.7315ZM51.4522 34.0783C51.5835 34.4815 51.7147 34.9783 51.7428 35.1846L51.8084 35.5596L51.0772 34.8377L50.3553 34.1065L50.721 33.7315C50.9178 33.5252 51.1147 33.3565 51.1616 33.3565C51.1991 33.3565 51.3303 33.6846 51.4522 34.0783ZM35.3928 38.2315C35.3928 38.2596 35.0366 38.6065 34.596 39.0096L33.7991 39.7502L33.3022 39.3002C32.346 38.4377 31.3335 37.894 30.2085 37.6502L29.7397 37.5565L30.996 36.3565L32.2522 35.1658L33.8178 36.6752C34.6897 37.5096 35.3928 38.2033 35.3928 38.2315ZM42.3866 39.7033C41.5616 40.5471 40.8397 41.2315 40.7835 41.2315C40.7366 41.2315 39.996 40.5565 39.1428 39.7315L37.596 38.2408L39.171 36.6752L40.746 35.119L42.321 36.6471L43.896 38.1846L42.3866 39.7033ZM50.6647 36.5065L51.9866 37.7815V38.2315V38.6815L50.6553 39.9565C49.9241 40.6596 49.2772 41.2315 49.2303 41.2315C49.1835 41.2315 48.4616 40.5565 47.6366 39.7315L46.1272 38.2315L47.6272 36.7315C48.4522 35.9065 49.1741 35.2315 49.2303 35.2315C49.296 35.2315 49.9335 35.8033 50.6647 36.5065ZM21.0491 39.2627C21.3772 39.3752 21.9303 39.6283 22.2678 39.8252C22.6053 40.0221 23.0366 40.2283 23.2335 40.294L23.5991 40.4065L23.5335 41.1283C23.496 41.5221 23.4491 41.8502 23.4397 41.869C23.3928 41.9252 22.7272 41.6158 22.4835 41.419C21.9772 41.0158 21.2366 41.3533 21.2366 41.9908C21.2366 42.7127 22.8022 43.4815 24.2647 43.4815C25.7085 43.4721 27.2366 42.7033 27.2366 41.9908C27.2366 41.3533 26.496 41.0158 25.9897 41.419C25.7085 41.644 25.0803 41.9158 25.0147 41.8502C24.9866 41.8221 24.996 41.4658 25.0335 41.0533C25.0991 40.3315 25.1085 40.3033 25.3616 40.2471C25.5116 40.219 25.896 40.0221 26.2241 39.8252C28.3616 38.5408 30.5928 38.7846 32.3085 40.4815C33.321 41.4846 33.846 42.7502 33.9491 44.419C33.996 45.1596 33.9491 45.694 33.6678 47.5596C33.171 50.8033 32.8241 52.0408 31.8491 53.9346C30.8366 55.9221 28.9241 57.1315 27.0678 56.9533C26.7678 56.9346 26.0553 56.7565 25.4741 56.569C24.9022 56.3815 24.3397 56.2315 24.2366 56.2315C24.1335 56.2315 23.571 56.3815 22.9991 56.569C21.7616 56.9721 21.0866 57.0471 20.2803 56.8971C19.3053 56.7002 18.5553 56.2877 17.7585 55.4908C17.1303 54.8721 16.971 54.6283 16.4741 53.6065C15.546 51.7127 15.2928 50.7846 14.8147 47.5971C14.6366 46.3783 14.4866 45.094 14.4866 44.7565C14.4866 41.494 16.8866 38.8783 19.7366 39.019C20.121 39.0377 20.7116 39.1502 21.0491 39.2627ZM38.8616 41.5502L39.2741 41.9815H37.1553H35.0272L34.8303 41.5408L34.6335 41.1002L35.5428 40.1908L36.4616 39.2721L37.446 40.2002C37.9897 40.7065 38.6272 41.3158 38.8616 41.5502ZM47.4397 41.6252L47.8147 41.9815H45.0116H42.1991L43.6053 40.6315L45.0022 39.2815L46.0335 40.2752C46.6053 40.819 47.2335 41.4283 47.4397 41.6252ZM51.9866 41.3721V41.9815H51.3585H50.7303L51.3303 41.3721C51.6585 41.0346 51.9491 40.7627 51.9585 40.7627C51.9772 40.7627 51.9866 41.0346 51.9866 41.3721ZM53.2991 43.6502C53.2991 44.4846 52.1647 46.9877 51.1991 48.2627C49.9897 49.8752 47.9741 51.5721 46.2491 52.444C43.1647 53.9908 40.0147 54.3565 36.7053 53.5502C35.9366 53.3627 34.2397 52.7627 34.0991 52.6315C34.0897 52.6127 34.146 52.4158 34.221 52.1908C34.5303 51.3283 34.8397 49.8283 35.1678 47.6065C35.4397 45.7502 35.496 45.1315 35.4585 44.3908L35.4116 43.4815H44.3553C52.8491 43.4815 53.2991 43.4908 53.2991 43.6502ZM56.4491 43.6877C56.421 43.8096 56.3553 44.194 56.2991 44.5408C55.6428 48.6377 52.0522 53.0065 47.5335 55.2096C43.0522 57.394 38.0272 57.5533 33.4616 55.6596L32.796 55.3783L33.1335 54.7315C33.321 54.3658 33.5085 54.0752 33.5553 54.0752C33.6022 54.0752 34.0147 54.2252 34.4741 54.4127C41.1303 57.0752 48.9022 54.5346 52.9334 48.3752C53.8335 46.9877 54.471 45.4502 54.8366 43.7346C54.8928 43.4815 54.9022 43.4815 55.6897 43.4815C56.4678 43.4815 56.4866 43.4908 56.4491 43.6877Z" fill="#76C893"/>
<path d="M49.2206 45.2168C48.7519 45.6762 49.08 46.4824 49.7362 46.4824C50.1206 46.4824 50.4862 46.1168 50.4862 45.7324C50.4862 45.348 50.1206 44.9824 49.7362 44.9824C49.5581 44.9824 49.3612 45.0668 49.2206 45.2168Z" fill="#76C893"/>
<path d="M37.2206 46.7168C36.7519 47.1762 37.08 47.9824 37.7362 47.9824C38.1206 47.9824 38.4862 47.6168 38.4862 47.2324C38.4862 46.848 38.1206 46.4824 37.7362 46.4824C37.5581 46.4824 37.3612 46.5668 37.2206 46.7168Z" fill="#76C893"/>
<path d="M41.7206 46.7168C41.2519 47.1762 41.58 47.9824 42.2362 47.9824C42.6206 47.9824 42.9862 47.6168 42.9862 47.2324C42.9862 46.848 42.6206 46.4824 42.2362 46.4824C42.0581 46.4824 41.8612 46.5668 41.7206 46.7168Z" fill="#76C893"/>
<path d="M45.4706 48.9668C45.0019 49.4262 45.33 50.2324 45.9862 50.2324C46.3706 50.2324 46.7362 49.8668 46.7362 49.4824C46.7362 49.098 46.3706 48.7324 45.9862 48.7324C45.8081 48.7324 45.6112 48.8168 45.4706 48.9668Z" fill="#76C893"/>
<path d="M39.4706 51.2168C39.0019 51.6762 39.33 52.4824 39.9862 52.4824C40.3706 52.4824 40.7362 52.1168 40.7362 51.7324C40.7362 51.348 40.3706 50.9824 39.9862 50.9824C39.8081 50.9824 39.6112 51.0668 39.4706 51.2168Z" fill="#76C893"/>
</svg>
