<svg width="45" height="46" viewBox="0 0 45 46" fill="none" xmlns="http://www.w3.org/2000/svg">
<path d="M26.9397 0.83771C25.5616 1.71896 24.4835 3.59396 24.1272 5.74083L24.0803 6.08771L23.4335 5.82521C22.2241 5.32833 20.3866 4.98146 18.9897 4.98146C18.5397 4.98146 18.4085 5.01896 18.221 5.21583C17.7803 5.64708 17.8835 5.92833 18.8116 6.83771C19.2616 7.28771 19.8241 7.88771 20.0678 8.16896C20.5647 8.76896 21.2678 9.76271 21.2678 9.86583C21.2678 9.90333 20.996 9.81896 20.6585 9.65958C19.5053 9.14396 17.4522 8.73146 15.971 8.73146C15.5397 8.73146 15.4085 8.76896 15.221 8.96583C14.7803 9.40646 14.8741 9.64083 15.971 10.7471C17.1616 11.9565 18.0147 13.0721 18.6053 14.2158L19.0553 15.0783L18.3241 15.9033C16.3272 18.144 15.2303 20.7315 15.0241 23.6658L14.9585 24.5283L14.0116 24.8377C13.4866 25.0065 12.896 25.2502 12.6991 25.3815C12.5022 25.5127 12.3241 25.5971 12.2866 25.569C12.2022 25.4846 12.446 23.9002 12.6991 22.9065C12.821 22.419 13.046 21.7721 13.2053 21.4627C13.3553 21.144 13.4866 20.7877 13.4866 20.6658C13.4866 20.3658 13.0835 19.9815 12.7835 19.9815C12.3522 19.9815 12.1647 20.169 11.7991 20.9471C11.3866 21.8471 11.1241 22.8221 10.9085 24.3033C10.8241 24.894 10.721 25.494 10.6928 25.6346L10.6272 25.8971L9.99908 25.5127C9.6522 25.3065 8.9772 25.0065 8.49908 24.8377C7.73033 24.5752 7.50533 24.5377 6.59595 24.5377C5.51783 24.5377 4.64595 24.7252 3.78345 25.1565C1.57095 26.2721 0.174076 28.569 0.0147008 31.3721C-0.0321742 32.1596 0.0240758 32.6846 0.314701 34.6533C0.502201 35.9377 0.717826 37.269 0.792826 37.6065C1.20533 39.3596 2.13345 41.5908 2.92095 42.6971C3.75533 43.8596 4.93658 44.7502 6.21158 45.1721C6.86783 45.3877 7.12095 45.4252 8.09595 45.4252C9.15533 45.4252 9.2772 45.4065 10.2241 45.0783L11.2366 44.7221L12.2303 45.069C14.4522 45.8283 16.5053 45.4908 18.2491 44.0752L18.8491 43.5971L19.7022 43.9721C23.8366 45.7721 28.4866 45.9502 32.8835 44.4971C39.5116 42.2846 44.5647 36.3971 44.9491 30.4158C45.0147 29.4783 45.0053 29.469 44.771 29.2252L44.5272 28.9815H42.5116H40.5053L40.4585 25.869C40.421 23.169 40.3928 22.6346 40.2241 21.9033C39.6991 19.5783 38.7522 17.7221 37.1585 15.9127L36.4178 15.0783L36.8585 14.2252C37.4303 13.1096 38.2928 11.9658 39.5022 10.7471C40.6085 9.63146 40.7022 9.40646 40.2428 8.94708C39.9991 8.70333 39.9897 8.70333 38.9397 8.76896C37.2991 8.86271 35.5272 9.27521 34.5053 9.80021C34.3366 9.88458 34.2053 9.92208 34.2053 9.87521C34.2053 9.59396 35.5366 7.95333 36.6616 6.83771C37.5991 5.90958 37.6928 5.64708 37.2428 5.19708C36.9991 4.95333 36.9991 4.95333 35.9116 5.01896C34.5522 5.09396 33.3897 5.32833 32.2647 5.75021L31.3928 6.07833L31.3366 5.74083C31.1022 4.25021 30.3991 2.65646 29.5835 1.74709C29.021 1.11896 28.1022 0.48146 27.746 0.48146C27.6147 0.48146 27.2491 0.640835 26.9397 0.83771ZM28.3741 2.66584C29.1241 3.47209 29.6585 4.71896 29.8928 6.22833L29.9866 6.85646L29.0678 7.77521C28.5616 8.27208 28.0647 8.82521 27.971 8.98458C27.8678 9.15333 27.7647 9.29396 27.7366 9.29396C27.7085 9.29396 27.6053 9.15333 27.5022 8.98458C27.4085 8.82521 26.9116 8.27208 26.4053 7.77521L25.4866 6.85646L25.5803 6.22833C25.7116 5.36583 26.0116 4.40021 26.3491 3.72521C26.6678 3.09709 27.4928 2.16896 27.7366 2.16896C27.821 2.16896 28.1116 2.39396 28.3741 2.66584ZM21.7835 6.86583C23.996 7.43771 25.8616 8.89083 26.846 10.794C27.0897 11.2627 27.2678 11.6658 27.2491 11.6846C27.2397 11.7033 26.8178 11.7596 26.3303 11.8158C25.8428 11.8721 25.0928 12.0127 24.6616 12.1158C24.2303 12.219 23.8647 12.294 23.8553 12.2752C23.846 12.2658 23.771 11.9658 23.6772 11.6096C23.3772 10.4096 22.4116 8.66583 21.221 7.20333C20.9678 6.89396 20.8366 6.66896 20.9116 6.66896C20.9866 6.66896 21.3803 6.75333 21.7835 6.86583ZM34.2147 7.25021C33.0147 8.74083 32.1053 10.3721 31.796 11.6096C31.7022 11.9565 31.6272 12.2658 31.6085 12.2846C31.5991 12.294 31.3085 12.2377 30.9522 12.1533C30.6053 12.0596 29.996 11.9377 29.6116 11.8815L28.9085 11.769L28.7491 11.319L28.5803 10.869L28.8335 10.3908C28.9835 10.119 29.5085 9.48146 30.0335 8.95646C30.8678 8.12208 31.0835 7.96271 31.9553 7.53146C32.8366 7.09083 34.0553 6.68771 34.5147 6.67833C34.6553 6.66896 34.5803 6.80021 34.2147 7.25021ZM18.7928 10.6065C20.2272 10.9721 22.3928 12.2658 22.3928 12.7627C22.3928 12.8565 22.271 12.9783 22.1022 13.044C21.9428 13.119 21.4647 13.3908 21.0335 13.6533L20.2647 14.1408L20.0116 13.6252C19.7022 12.9971 18.896 11.7877 18.2585 11.0002C17.9772 10.6533 17.8366 10.419 17.9116 10.419C17.9866 10.419 18.3803 10.5033 18.7928 10.6065ZM37.2147 11.0002C36.5772 11.7877 35.771 12.9971 35.4616 13.6252L35.2085 14.1408L34.4397 13.6533C34.0085 13.3908 33.5303 13.119 33.371 13.044C33.2022 12.9783 33.0803 12.8565 33.0803 12.7627C33.0803 12.2752 35.2272 10.9815 36.6428 10.6158C37.7491 10.3252 37.7585 10.3346 37.2147 11.0002ZM24.8303 14.6377C24.1366 15.3033 23.5366 15.8471 23.4991 15.8471C23.4616 15.8565 23.1522 15.594 22.8147 15.2752L22.1866 14.694L22.5991 14.4783C23.5647 13.9721 25.8803 13.2408 26.0491 13.3908C26.0678 13.4096 25.5241 13.9721 24.8303 14.6377ZM31.3928 13.8408C31.6272 13.9158 32.1428 14.1408 32.546 14.3283L33.2772 14.6752L32.6866 15.2658C32.3585 15.594 32.0491 15.8471 31.9835 15.8377C31.8897 15.8096 29.4241 13.4377 29.4241 13.3627C29.4241 13.3158 30.9897 13.6908 31.3928 13.8408ZM29.3678 18.4533C28.5147 19.2971 27.7928 19.9815 27.7553 19.9815C27.7178 19.9815 26.996 19.3065 26.1428 18.4815L24.596 16.9908L26.171 15.4252L27.7366 13.869L29.3303 15.3971L30.9147 16.9346L29.3678 18.4533ZM21.7272 16.269L22.4116 16.9627L20.8366 18.5096L19.2522 20.0658L18.6241 19.4471L17.996 18.8283L18.4741 18.1158C18.971 17.3658 20.696 15.5752 20.9116 15.5752C20.9772 15.5752 21.3522 15.8846 21.7272 16.269ZM35.6022 16.4846C36.1085 16.9908 36.7366 17.7408 37.0178 18.144L37.5147 18.8846L36.9147 19.4283C36.5866 19.7283 36.2772 19.9721 36.2303 19.9815C36.1835 19.9815 35.4522 19.2971 34.6085 18.4533L33.0616 16.9346L33.8022 16.2596C34.2053 15.8846 34.571 15.5752 34.6085 15.5752C34.6553 15.5752 35.1053 15.9877 35.6022 16.4846ZM25.7678 20.2158L26.6585 21.1158L25.1116 22.6065C24.2585 23.4315 23.5178 24.0971 23.4522 24.0783C23.396 24.069 22.6647 23.394 21.8397 22.5783L20.3303 21.0877L21.896 19.5596L23.471 18.0408L24.1741 18.6783C24.5585 19.0252 25.2803 19.719 25.7678 20.2158ZM35.1428 21.1065C35.1428 21.1346 34.4397 21.8377 33.5678 22.6627L32.0022 24.1721L30.4085 22.6252L28.8147 21.0877L30.4085 19.5596L31.9928 18.0315L33.5678 19.5408C34.4303 20.3658 35.1428 21.069 35.1428 21.1065ZM17.7522 20.7315L18.1178 21.1065L17.396 21.8377L16.6647 22.5596L16.7303 22.1846C16.8241 21.6315 17.2366 20.3565 17.3116 20.3565C17.3585 20.3565 17.5553 20.5252 17.7522 20.7315ZM38.4522 21.0783C38.5835 21.4815 38.7147 21.9783 38.7428 22.1846L38.8085 22.5596L38.0772 21.8377L37.3553 21.1065L37.721 20.7315C37.9178 20.5252 38.1147 20.3565 38.1616 20.3565C38.1991 20.3565 38.3303 20.6846 38.4522 21.0783ZM22.3928 25.2315C22.3928 25.2596 22.0366 25.6065 21.596 26.0096L20.7991 26.7502L20.3022 26.3002C19.346 25.4377 18.3335 24.894 17.2085 24.6502L16.7397 24.5565L17.996 23.3565L19.2522 22.1658L20.8178 23.6752C21.6897 24.5096 22.3928 25.2033 22.3928 25.2315ZM29.3866 26.7033C28.5616 27.5471 27.8397 28.2315 27.7835 28.2315C27.7366 28.2315 26.996 27.5565 26.1428 26.7315L24.596 25.2408L26.171 23.6752L27.746 22.119L29.321 23.6471L30.896 25.1846L29.3866 26.7033ZM37.6647 23.5065L38.9866 24.7815V25.2315V25.6815L37.6553 26.9565C36.9241 27.6596 36.2772 28.2315 36.2303 28.2315C36.1835 28.2315 35.4616 27.5565 34.6366 26.7315L33.1272 25.2315L34.6272 23.7315C35.4522 22.9065 36.1741 22.2315 36.2303 22.2315C36.296 22.2315 36.9335 22.8033 37.6647 23.5065ZM8.04908 26.2627C8.3772 26.3752 8.93033 26.6283 9.26783 26.8252C9.60533 27.0221 10.0366 27.2283 10.2335 27.294L10.5991 27.4065L10.5335 28.1283C10.496 28.5221 10.4491 28.8502 10.4397 28.869C10.3928 28.9252 9.7272 28.6158 9.48345 28.419C8.9772 28.0158 8.23658 28.3533 8.23658 28.9908C8.23658 29.7127 9.8022 30.4815 11.2647 30.4815C12.7085 30.4721 14.2366 29.7033 14.2366 28.9908C14.2366 28.3533 13.496 28.0158 12.9897 28.419C12.7085 28.644 12.0803 28.9158 12.0147 28.8502C11.9866 28.8221 11.996 28.4658 12.0335 28.0533C12.0991 27.3315 12.1085 27.3033 12.3616 27.2471C12.5116 27.219 12.896 27.0221 13.2241 26.8252C15.3616 25.5408 17.5928 25.7846 19.3085 27.4815C20.321 28.4846 20.846 29.7502 20.9491 31.419C20.996 32.1596 20.9491 32.694 20.6678 34.5596C20.171 37.8033 19.8241 39.0408 18.8491 40.9346C17.8366 42.9221 15.9241 44.1315 14.0678 43.9533C13.7678 43.9346 13.0553 43.7565 12.4741 43.569C11.9022 43.3815 11.3397 43.2315 11.2366 43.2315C11.1335 43.2315 10.571 43.3815 9.99908 43.569C8.76158 43.9721 8.08658 44.0471 7.28033 43.8971C6.30533 43.7002 5.55533 43.2877 4.75845 42.4908C4.13033 41.8721 3.97095 41.6283 3.47408 40.6065C2.54595 38.7127 2.29283 37.7846 1.8147 34.5971C1.63658 33.3783 1.48658 32.094 1.48658 31.7565C1.48658 28.494 3.88658 25.8783 6.73658 26.019C7.12095 26.0377 7.71158 26.1502 8.04908 26.2627ZM25.8616 28.5502L26.2741 28.9815H24.1553H22.0272L21.8303 28.5408L21.6335 28.1002L22.5428 27.1908L23.4616 26.2721L24.446 27.2002C24.9897 27.7065 25.6272 28.3158 25.8616 28.5502ZM34.4397 28.6252L34.8147 28.9815H32.0116H29.1991L30.6053 27.6315L32.0022 26.2815L33.0335 27.2752C33.6053 27.819 34.2335 28.4283 34.4397 28.6252ZM38.9866 28.3721V28.9815H38.3585H37.7303L38.3303 28.3721C38.6585 28.0346 38.9491 27.7627 38.9585 27.7627C38.9772 27.7627 38.9866 28.0346 38.9866 28.3721ZM40.2991 30.6502C40.2991 31.4846 39.1647 33.9877 38.1991 35.2627C36.9897 36.8752 34.9741 38.5721 33.2491 39.444C30.1647 40.9908 27.0147 41.3565 23.7053 40.5502C22.9366 40.3627 21.2397 39.7627 21.0991 39.6315C21.0897 39.6127 21.146 39.4158 21.221 39.1908C21.5303 38.3283 21.8397 36.8283 22.1678 34.6065C22.4397 32.7502 22.496 32.1315 22.4585 31.3908L22.4116 30.4815H31.3553C39.8491 30.4815 40.2991 30.4908 40.2991 30.6502ZM43.4491 30.6877C43.421 30.8096 43.3553 31.194 43.2991 31.5408C42.6428 35.6377 39.0522 40.0065 34.5335 42.2096C30.0522 44.394 25.0272 44.5533 20.4616 42.6596L19.796 42.3783L20.1335 41.7315C20.321 41.3658 20.5085 41.0752 20.5553 41.0752C20.6022 41.0752 21.0147 41.2252 21.4741 41.4127C28.1303 44.0752 35.9022 41.5346 39.9335 35.3752C40.8335 33.9877 41.471 32.4502 41.8366 30.7346C41.8928 30.4815 41.9022 30.4815 42.6897 30.4815C43.4678 30.4815 43.4866 30.4908 43.4491 30.6877Z" fill="#76C893"/>
<path d="M36.2206 32.2168C35.7519 32.6762 36.08 33.4824 36.7362 33.4824C37.1206 33.4824 37.4862 33.1168 37.4862 32.7324C37.4862 32.348 37.1206 31.9824 36.7362 31.9824C36.5581 31.9824 36.3612 32.0668 36.2206 32.2168Z" fill="#76C893"/>
<path d="M24.2206 33.7168C23.7519 34.1762 24.08 34.9824 24.7362 34.9824C25.1206 34.9824 25.4862 34.6168 25.4862 34.2324C25.4862 33.848 25.1206 33.4824 24.7362 33.4824C24.5581 33.4824 24.3612 33.5668 24.2206 33.7168Z" fill="#76C893"/>
<path d="M28.7206 33.7168C28.2519 34.1762 28.58 34.9824 29.2362 34.9824C29.6206 34.9824 29.9862 34.6168 29.9862 34.2324C29.9862 33.848 29.6206 33.4824 29.2362 33.4824C29.0581 33.4824 28.8612 33.5668 28.7206 33.7168Z" fill="#76C893"/>
<path d="M32.4706 35.9668C32.0019 36.4262 32.33 37.2324 32.9862 37.2324C33.3706 37.2324 33.7362 36.8668 33.7362 36.4824C33.7362 36.098 33.3706 35.7324 32.9862 35.7324C32.8081 35.7324 32.6112 35.8168 32.4706 35.9668Z" fill="#76C893"/>
<path d="M26.4706 38.2168C26.0019 38.6762 26.33 39.4824 26.9862 39.4824C27.3706 39.4824 27.7362 39.1168 27.7362 38.7324C27.7362 38.348 27.3706 37.9824 26.9862 37.9824C26.8081 37.9824 26.6112 38.0668 26.4706 38.2168Z" fill="#76C893"/>
</svg>
