<svg width="24" height="24" viewBox="0 0 24 24" fill="none" xmlns="http://www.w3.org/2000/svg">
<circle cx="12" cy="12" r="11.5" fill="white" stroke="#10BAB2"/>
<path d="M12.625 9.5C13.1223 9.5 13.5992 9.69754 13.9508 10.0492C14.3025 10.4008 14.5 10.8777 14.5 11.375C14.5 11.5408 14.5658 11.6997 14.6831 11.8169C14.8003 11.9342 14.9592 12 15.125 12C15.2908 12 15.4497 11.9342 15.5669 11.8169C15.6842 11.6997 15.75 11.5408 15.75 11.375C15.75 10.5462 15.4208 9.75134 14.8347 9.16529C14.2487 8.57924 13.4538 8.25 12.625 8.25C12.4592 8.25 12.3003 8.31585 12.1831 8.43306C12.0658 8.55027 12 8.70924 12 8.875C12 9.04076 12.0658 9.19973 12.1831 9.31694C12.3003 9.43415 12.4592 9.5 12.625 9.5Z" fill="#10BAB2"/>
<path d="M12.625 7C13.7853 7 14.8981 7.46094 15.7186 8.28141C16.5391 9.10188 17 10.2147 17 11.375C17 11.5408 17.0658 11.6997 17.1831 11.8169C17.3003 11.9342 17.4592 12 17.625 12C17.7908 12 17.9497 11.9342 18.0669 11.8169C18.1842 11.6997 18.25 11.5408 18.25 11.375C18.25 9.88316 17.6574 8.45242 16.6025 7.39752C15.5476 6.34263 14.1168 5.75 12.625 5.75C12.4592 5.75 12.3003 5.81585 12.1831 5.93306C12.0658 6.05027 12 6.20924 12 6.375C12 6.54076 12.0658 6.69973 12.1831 6.81694C12.3003 6.93415 12.4592 7 12.625 7ZM18.0938 14.4438C18.0594 14.3434 18 14.2535 17.9213 14.1824C17.8426 14.1113 17.7471 14.0615 17.6438 14.0375L13.8938 13.1813C13.792 13.1582 13.686 13.161 13.5856 13.1893C13.4851 13.2177 13.3934 13.2708 13.3187 13.3438C13.2312 13.425 13.225 13.4312 12.8188 14.2063C11.4707 13.5851 10.3906 12.5005 9.775 11.15C10.5687 10.75 10.575 10.75 10.6562 10.6562C10.7292 10.5816 10.7823 10.4899 10.8107 10.3894C10.839 10.289 10.8418 10.183 10.8187 10.0813L9.9625 6.375C9.93853 6.27168 9.88866 6.17617 9.81759 6.09744C9.74652 6.01872 9.65658 5.95938 9.55625 5.925C9.41029 5.87287 9.25957 5.83519 9.10625 5.8125C8.94828 5.77587 8.78708 5.75494 8.625 5.75C7.8625 5.75 7.13124 6.0529 6.59207 6.59207C6.0529 7.13124 5.75 7.8625 5.75 8.625C5.75331 11.1767 6.76843 13.6229 8.57275 15.4272C10.3771 17.2316 12.8233 18.2467 15.375 18.25C15.7526 18.25 16.1264 18.1756 16.4752 18.0312C16.824 17.8867 17.141 17.6749 17.4079 17.4079C17.6749 17.141 17.8867 16.824 18.0312 16.4752C18.1756 16.1264 18.25 15.7526 18.25 15.375C18.2502 15.2159 18.2377 15.0571 18.2125 14.9C18.1862 14.7448 18.1465 14.5921 18.0938 14.4438ZM15.375 17C13.1543 16.9983 11.0251 16.1154 9.45481 14.5452C7.88455 12.9749 7.00166 10.8457 7 8.625C7.00165 8.19453 7.17338 7.78216 7.47777 7.47777C7.78216 7.17338 8.19453 7.00165 8.625 7H8.83125L9.5 9.9L9.1625 10.075C8.625 10.3562 8.2 10.5813 8.425 11.0688C8.79139 12.106 9.38423 13.0486 10.1605 13.8281C10.9367 14.6075 11.8768 15.2043 12.9125 15.575C13.4375 15.7875 13.6438 15.3937 13.925 14.85L14.1062 14.5063L17 15.1687V15.375C16.9984 15.8055 16.8266 16.2178 16.5222 16.5222C16.2178 16.8266 15.8055 16.9984 15.375 17Z" fill="#10BAB2"/>
</svg>
