<svg width="14" height="13" viewBox="0 0 14 13" fill="none" xmlns="http://www.w3.org/2000/svg">
<path d="M5.83317 8.62516L7.58317 9.2085C7.58317 9.2085 11.9582 8.3335 12.5415 8.3335C13.1248 8.3335 13.1248 8.91683 12.5415 9.50016C11.9582 10.0835 9.9165 11.8335 8.1665 11.8335C6.4165 11.8335 5.24984 10.9585 4.08317 10.9585H1.1665" stroke="#4F5052" stroke-width="1.3" stroke-linecap="round" stroke-linejoin="round"/>
<path d="M4.6665 4.25016V1.91683C4.6665 1.76212 4.72796 1.61375 4.83736 1.50435C4.94675 1.39495 5.09513 1.3335 5.24984 1.3335H12.2498C12.4045 1.3335 12.5529 1.39495 12.6623 1.50435C12.7717 1.61375 12.8332 1.76212 12.8332 1.91683V6.5835M1.1665 7.4585C1.74984 6.87516 2.9165 6.00016 4.08317 6.00016C5.24984 6.00016 8.02067 7.16683 8.45817 7.75016C8.89567 8.3335 7.58317 9.2085 7.58317 9.2085L1.1665 7.4585Z" stroke="#4F5052" stroke-width="1.3" stroke-linecap="round" stroke-linejoin="round"/>
<path d="M7.2915 1.3335H10.2082V3.9585H7.2915V1.3335Z" stroke="#4F5052" stroke-width="1.3" stroke-linecap="round" stroke-linejoin="round"/>
</svg>
