<svg width="60" height="56" viewBox="0 0 60 56" fill="none" xmlns="http://www.w3.org/2000/svg">
<path d="M11.3086 0.554685C10.4531 0.871091 9.83203 1.30468 9.28125 1.94922C7.74609 3.73047 7.44141 6.48437 8.54297 8.64062C8.92969 9.40234 9.98437 10.457 10.7227 10.8203C12.5273 11.6992 14.4375 11.3359 15.8672 9.83593C17.2148 8.41797 17.7422 6.42578 17.2852 4.46875C16.8867 2.76953 15.9258 1.48047 14.5664 0.812497C13.5469 0.308591 12.2461 0.203122 11.3086 0.554685Z" fill="#10BAB2"/>
<path d="M10.7813 15.3789C10.7813 18.1328 10.7109 18.0391 12.6914 18.0391C14.625 18.0391 14.5312 18.168 14.5312 15.4023V13.2344H12.6562H10.7813V15.3789Z" fill="#10BAB2"/>
<path d="M7.19531 13.5742C6.92578 13.6914 6.57422 13.9727 6.41016 14.1836C6.03516 14.6992 0.117187 29.0312 0.0351556 29.6523C-0.0468757 30.2148 0.246093 31.0234 0.679687 31.4687C1.69922 32.4883 3.44531 32.3008 4.23047 31.082C4.41797 30.7773 4.57031 30.5547 4.57031 30.5898C4.57031 30.6133 4.28906 32.0078 3.9375 33.6836C3.08203 37.8086 3.08203 37.75 3.73828 38.4648L4.20703 38.957L5.37891 38.9922L6.55078 39.0391L6.58594 46.3867L6.62109 53.7461L6.97266 54.3203C8.13281 56.1953 10.875 56.0547 11.7891 54.0742L12.0703 53.4883V46.2461V39.0156H12.6562H13.2422V46.2461V53.4883L13.5234 54.0742C14.4375 56.0547 17.1797 56.1953 18.3398 54.3203L18.6914 53.7461L18.7266 46.3867L18.75 39.0391L19.9102 38.9922C20.9648 38.957 21.1055 38.9336 21.3867 38.6641L21.7031 38.3711L17.2617 38.3125L12.832 38.2539L12.1758 37.9492C11.0039 37.3984 10.1367 36.4141 9.78516 35.2305L9.64453 34.7383L8.92969 34.6562C8.15625 34.5742 7.74609 34.3633 7.41797 33.8828C7.23047 33.6016 7.20703 33.2383 7.17187 30.7773L7.13672 28H6.14062C5.02734 28 5.07422 28.0469 5.32031 27.0039L5.44922 26.418L7.35937 26.3828L9.25781 26.3594V19.8555V13.3516H8.47266C7.94531 13.3516 7.51172 13.4336 7.19531 13.5742Z" fill="#10BAB2"/>
<path d="M16.0547 19.8555V26.3594L17.9531 26.3828L19.8633 26.418L19.9922 27.0039C20.2383 28.0469 20.2852 28 19.1602 28H18.1641V28.8789V29.7578L21.7148 29.7344L25.2539 29.6992L25.2188 29.4062C25.1602 28.9258 19.2188 14.6172 18.9023 14.1953C18.4688 13.6094 17.8477 13.3516 16.875 13.3516H16.0547V19.8555Z" fill="#10BAB2"/>
<path d="M44.6367 14.0664C43.582 14.2188 42.7148 14.8867 42.1641 15.9297C41.7891 16.6562 41.7773 18.1094 42.1523 18.8125C42.5742 19.5977 42.9727 19.9961 43.7344 20.3711C46.207 21.6133 48.9961 19.4805 48.4922 16.75C48.1758 14.9687 46.4883 13.7969 44.6367 14.0664Z" fill="#10BAB2"/>
<path d="M40.3125 20.1367C38.7656 20.6172 37.8516 21.8594 37.8516 23.4766C37.8516 25.5391 39.8086 27.1211 41.8242 26.6992C43.3945 26.3711 44.4023 25.2109 44.5078 23.5703C44.5547 22.7969 44.5312 22.6562 44.1914 21.9648C43.9805 21.543 43.6289 21.0508 43.3828 20.8516C42.5625 20.1836 41.2148 19.8672 40.3125 20.1367Z" fill="#10BAB2"/>
<path d="M48.0937 20.2188C46.5937 20.7578 45.6094 22.4922 45.9258 24.0391C46.2656 25.668 47.5664 26.7461 49.2187 26.7461C51.1523 26.7461 52.5469 25.3281 52.5586 23.3711C52.5586 22.3867 52.2656 21.707 51.5391 20.9805C50.6719 20.125 49.2422 19.8086 48.0937 20.2188Z" fill="#10BAB2"/>
<path d="M36.1523 26.1602C34.9922 26.5469 34.1367 27.3438 33.7969 28.375C33.5273 29.2188 33.6211 30.3789 34.0312 31.1055C34.1953 31.4102 34.3359 31.6797 34.3359 31.7031C34.3359 31.7266 29.543 31.7617 23.6836 31.7734L13.0312 31.8086L12.5859 32.1719C11.918 32.7109 11.6953 33.0742 11.625 33.7305C11.5195 34.8672 12.1992 35.9219 13.2305 36.2031C13.5352 36.2852 20.6953 36.3086 35.9883 36.2969L58.3008 36.2617L58.7695 36.0156C60.0469 35.3477 60.375 33.6602 59.4375 32.5469C58.9453 31.9609 58.3477 31.75 57.0938 31.75C56.4844 31.75 56.0156 31.7148 56.0391 31.6563C56.707 30.3438 56.7422 30.2148 56.6953 29.3008C56.6133 27.9414 55.9922 26.9922 54.7266 26.3359C54.0117 25.9727 52.6875 25.9609 51.9023 26.3125C49.9453 27.2148 49.207 29.7344 50.4141 31.4219L50.6367 31.75H49.2891C48.5391 31.75 47.9297 31.7148 47.9297 31.668C47.9297 31.6328 48 31.5039 48.0938 31.4102C48.457 30.9766 48.668 30.1328 48.6094 29.2656C48.5156 27.9297 47.8828 26.9688 46.6758 26.3477C45.9258 25.9727 44.6133 25.9492 43.8164 26.3125C41.8594 27.2148 41.1211 29.7344 42.3281 31.4219L42.5508 31.75H41.2031C40.4531 31.75 39.8438 31.7266 39.8438 31.7031C39.8438 31.6797 39.9844 31.375 40.1719 31.0352C40.4414 30.5078 40.4883 30.2734 40.4883 29.4648C40.4766 28.6797 40.4297 28.4336 40.1719 27.9297C39.4219 26.5 37.582 25.6914 36.1523 26.1602Z" fill="#10BAB2"/>
<path d="M34.8633 46.6445C39.4453 51.2266 43.418 55.1289 43.6992 55.3164C44.6016 55.9023 45.7266 55.7148 46.3711 54.8711C46.7695 54.3437 46.875 53.4062 46.582 52.832C46.4766 52.6094 43.207 49.2578 39.3398 45.3672L32.2852 38.3125H29.4141H26.543L34.8633 46.6445Z" fill="#10BAB2"/>
<path d="M38.2617 39.3672L37.207 40.4219L38.6133 41.8281L40.0195 43.2344L42.4805 40.7734L44.9414 38.3125H42.1289H39.3164L38.2617 39.3672Z" fill="#10BAB2"/>
<path d="M28.2773 49.3516C26.5312 51.1094 25.043 52.6797 24.9609 52.832C24.7617 53.2187 24.7852 54.1445 24.9961 54.5547C25.4766 55.4805 26.5312 55.8906 27.5039 55.5391C27.6797 55.4687 29.2969 53.9453 31.0781 52.1641L34.3359 48.918L32.9648 47.5469C32.2031 46.7852 31.5586 46.1641 31.5234 46.1641C31.4883 46.1641 30.0352 47.6055 28.2773 49.3516Z" fill="#10BAB2"/>
</svg>
