<svg width="50" height="50" viewBox="0 0 50 50" fill="none" xmlns="http://www.w3.org/2000/svg">
<g opacity="0.4">
<path d="M22.8862 44.808L22.8941 44.8127C23.5288 45.1989 24.2574 45.4032 25.0003 45.4032C25.7433 45.4032 26.4719 45.1989 27.1066 44.8128L27.1144 44.808C36.3131 39.1529 41.5167 33.4424 44.412 28.4196C47.3138 23.3854 47.8337 19.1512 47.8337 16.5625C47.8337 9.74303 42.2545 4.25 35.417 4.25C31.8447 4.25 28.7892 6.16599 26.7753 7.83516C26.0894 8.40367 25.4924 8.97016 25.0003 9.47358C24.5083 8.97016 23.9112 8.40367 23.2253 7.83516C21.2115 6.16599 18.156 4.25 14.5837 4.25C7.74617 4.25 2.16699 9.74303 2.16699 16.5625C2.16699 19.1512 2.68683 23.3854 5.58868 28.4196C8.48395 33.4424 13.6875 39.1529 22.8862 44.808Z" stroke="#888888" stroke-width="4" stroke-linecap="round" stroke-linejoin="round"/>
</g>
</svg>
