<svg width="50" height="50" viewBox="0 0 50 50" fill="none" xmlns="http://www.w3.org/2000/svg">
<g opacity="0.4">
<path d="M24.9995 12.5C22.8267 12.5028 20.7437 13.3671 19.2073 14.9035C17.6708 16.44 16.8065 18.523 16.8037 20.6958H20.9704C20.9704 18.4729 22.7787 16.6667 24.9995 16.6667C27.2204 16.6667 29.0287 18.4729 29.0287 20.6958C29.0287 21.9417 28.0266 22.8458 26.4954 24.0833C25.9951 24.4752 25.5147 24.8917 25.0558 25.3313C22.9766 27.4083 22.9162 29.6146 22.9162 29.8604V31.25H27.0829L27.0808 29.9312C27.0829 29.8979 27.1495 29.1271 27.9995 28.2792C28.312 27.9667 28.7058 27.6542 29.1141 27.325C30.737 26.0104 33.1933 24.025 33.1933 20.6958C33.1916 18.523 32.3279 16.4397 30.7917 14.9031C29.2555 13.3665 27.1723 12.5022 24.9995 12.5ZM22.9162 33.3333H27.0829V37.5H22.9162V33.3333Z" fill="#888888"/>
<path d="M25.0003 4.16699C13.5128 4.16699 4.16699 13.5128 4.16699 25.0003C4.16699 36.4878 13.5128 45.8337 25.0003 45.8337C36.4878 45.8337 45.8337 36.4878 45.8337 25.0003C45.8337 13.5128 36.4878 4.16699 25.0003 4.16699ZM25.0003 41.667C15.8107 41.667 8.33366 34.1899 8.33366 25.0003C8.33366 15.8107 15.8107 8.33366 25.0003 8.33366C34.1899 8.33366 41.667 15.8107 41.667 25.0003C41.667 34.1899 34.1899 41.667 25.0003 41.667Z" fill="#888888"/>
</g>
</svg>
