<svg width="88" height="68" viewBox="0 0 88 68" fill="none" xmlns="http://www.w3.org/2000/svg">
<path d="M0.924 63H2.016V54.636H0.924V63ZM8.68913 63H9.76913V59.124C9.76913 57.24 8.60513 56.304 7.08113 56.304C6.19313 56.304 5.40113 56.676 4.96913 57.36V56.424H3.87713V63H4.96913V59.364C4.96913 57.948 5.73713 57.252 6.85313 57.252C7.95713 57.252 8.68913 57.936 8.68913 59.28V63ZM20.1881 60.72C20.1881 57.624 15.6761 58.968 15.6761 56.808C15.6761 55.908 16.3841 55.44 17.2841 55.464C18.3041 55.476 18.8321 56.112 18.9041 56.676H20.1041C19.9721 55.404 18.9281 54.528 17.3321 54.528C15.6761 54.528 14.5601 55.464 14.5601 56.844C14.5601 59.952 19.0841 58.512 19.0841 60.768C19.0841 61.56 18.4601 62.16 17.4041 62.16C16.2401 62.16 15.7481 61.464 15.6761 60.768H14.5121C14.5361 62.148 15.7241 63.084 17.4041 63.084C19.2161 63.084 20.1881 61.908 20.1881 60.72ZM22.0351 61.2C22.0351 62.52 22.6951 63 23.8591 63H24.8431V62.076H24.0391C23.3671 62.076 23.1271 61.848 23.1271 61.2V57.324H24.8431V56.424H23.1271V54.768H22.0351V56.424H21.1831V57.324H22.0351V61.2ZM32.4062 59.7C32.4062 57.624 30.9542 56.316 29.0822 56.316C27.2222 56.316 25.7582 57.624 25.7582 59.7C25.7582 61.788 27.1742 63.108 29.0342 63.108C30.9062 63.108 32.4062 61.788 32.4062 59.7ZM26.8742 59.7C26.8742 58.044 27.9182 57.264 29.0702 57.264C30.1982 57.264 31.2902 58.044 31.2902 59.7C31.2902 61.368 30.1742 62.148 29.0342 62.148C27.8942 62.148 26.8742 61.368 26.8742 59.7ZM34.934 59.424C34.934 57.9 35.726 57.432 36.77 57.432H37.058V56.304C36.014 56.304 35.306 56.76 34.934 57.492V56.424H33.842V63H34.934V59.424ZM41.1145 57.24C42.2425 57.24 43.2025 57.948 43.1905 59.232H39.0385C39.1585 57.948 40.0465 57.24 41.1145 57.24ZM44.1865 60.972H43.0105C42.7705 61.68 42.1465 62.184 41.1625 62.184C40.0465 62.184 39.1105 61.452 39.0265 60.12H44.2825C44.3065 59.892 44.3185 59.7 44.3185 59.46C44.3185 57.66 43.0705 56.316 41.1625 56.316C39.2425 56.316 37.9105 57.624 37.9105 59.7C37.9105 61.788 39.2905 63.108 41.1625 63.108C42.7945 63.108 43.8505 62.172 44.1865 60.972ZM50.0512 58.608V55.536H51.6592C52.9072 55.536 53.4352 56.112 53.4352 57.084C53.4352 58.02 52.9072 58.608 51.6592 58.608H50.0512ZM54.5512 57.084C54.5512 55.716 53.6272 54.636 51.6592 54.636H48.9592V63H50.0512V59.508H51.6592C53.7352 59.508 54.5512 58.356 54.5512 57.084ZM55.9084 63H57.0004V56.424H55.9084V63ZM56.4724 55.356C56.8684 55.356 57.1924 55.032 57.1924 54.612C57.1924 54.192 56.8684 53.868 56.4724 53.868C56.0524 53.868 55.7284 54.192 55.7284 54.612C55.7284 55.032 56.0524 55.356 56.4724 55.356ZM58.4535 59.7C58.4535 61.788 59.7855 63.108 61.6575 63.108C63.2895 63.108 64.3575 62.196 64.6935 60.888H63.5175C63.2775 61.716 62.6295 62.184 61.6575 62.184C60.4575 62.184 59.5695 61.332 59.5695 59.7C59.5695 58.092 60.4575 57.24 61.6575 57.24C62.6295 57.24 63.2895 57.744 63.5175 58.536H64.6935C64.3575 57.156 63.2895 56.316 61.6575 56.316C59.7855 56.316 58.4535 57.636 58.4535 59.7ZM66.1506 63H67.2426V60.096L69.8226 63H71.3106L68.2026 59.7L71.2986 56.424H69.7746L67.2426 59.34V54.12H66.1506V63ZM78.1583 56.424H77.0663V60.036C77.0663 61.452 76.3103 62.148 75.1823 62.148C74.0783 62.148 73.3463 61.464 73.3463 60.132V56.424H72.2663V60.276C72.2663 62.16 73.4543 63.096 74.9663 63.096C75.8423 63.096 76.6463 62.712 77.0663 62.028V63H78.1583V56.424ZM81.0941 57.636V56.424H80.0021V66.12H81.0941V61.788C81.5021 62.46 82.3541 63.108 83.5541 63.108C85.3181 63.108 86.6741 61.728 86.6741 59.688C86.6741 57.636 85.3181 56.316 83.5541 56.316C82.3541 56.316 81.4901 56.94 81.0941 57.636ZM85.5581 59.688C85.5581 61.236 84.5381 62.148 83.3261 62.148C82.1381 62.148 81.0941 61.248 81.0941 59.7C81.0941 58.176 82.1381 57.264 83.3261 57.264C84.5381 57.264 85.5581 58.14 85.5581 59.688Z" fill="#464646"/>
<path d="M66.5 25C66.5 37.4368 56.64 47.5 44.5 47.5C32.36 47.5 22.5 37.4368 22.5 25C22.5 12.5632 32.36 2.5 44.5 2.5C56.64 2.5 66.5 12.5632 66.5 25Z" fill="white" stroke="#1A89DA"/>
<path d="M33.9218 14.6031C33.7671 14.6828 33.6828 14.7672 33.6031 14.9219C33.5468 15.0391 33.1578 16.4922 32.7453 18.1562C32.014 21.0953 31.9906 21.1891 32.0187 21.5359C32.0562 22.0141 32.2062 22.5578 32.4031 22.9562C32.6234 23.3969 32.7078 23.5094 33.1343 23.95L33.5 24.325L33.5093 29.6734C33.5234 34.9937 33.5234 35.0266 33.6218 35.1531C33.6734 35.2234 33.7765 35.3266 33.8468 35.3781C33.9734 35.4766 34.0062 35.4766 38 35.4766C41.9937 35.4766 42.0265 35.4766 42.1531 35.3781C42.2234 35.3266 42.3265 35.2234 42.3781 35.1531C42.4765 35.0266 42.4765 34.9703 42.4906 32.2609L42.5 29.5H44H45.5L45.5093 32.2609C45.5234 34.9703 45.5234 35.0266 45.6218 35.1531C45.6734 35.2234 45.7765 35.3266 45.8468 35.3781C45.9734 35.4766 46.0062 35.4766 50 35.4766C53.9937 35.4766 54.0265 35.4766 54.1531 35.3781C54.2234 35.3266 54.3265 35.2234 54.3781 35.1531C54.4765 35.0266 54.4765 34.9937 54.4906 29.6734L54.5 24.325L54.8656 23.95C55.2921 23.5094 55.3765 23.3969 55.5968 22.9562C55.7937 22.5578 55.9437 22.0141 55.9812 21.5359C56.0093 21.1891 55.9859 21.0953 55.2546 18.1562C54.8421 16.4922 54.4531 15.0391 54.3968 14.9219C54.3171 14.7672 54.2328 14.6828 54.0781 14.6031L53.8718 14.5H44H34.1281L33.9218 14.6031ZM53.8343 18.6859C54.4765 21.2594 54.5046 21.3859 54.4625 21.6297C54.2796 22.6141 53.6375 23.2937 52.7328 23.4625C52.1328 23.575 51.4671 23.3312 51.0125 22.8391C50.6046 22.4031 50.464 22.0656 50.3796 21.325C50.314 20.7578 50.0937 20.5234 49.625 20.5234C49.1562 20.5234 48.9359 20.7578 48.8703 21.325C48.7859 22.0656 48.6453 22.4031 48.2375 22.8391C47.7828 23.3312 47.1171 23.575 46.5218 23.4625C46.0765 23.3781 45.6921 23.1672 45.3875 22.8391C44.9796 22.4031 44.839 22.0656 44.7546 21.325C44.689 20.7578 44.4687 20.5234 44 20.5234C43.5312 20.5234 43.3109 20.7578 43.2453 21.325C43.1609 22.0656 43.0203 22.4031 42.6125 22.8391C42.3078 23.1672 41.9234 23.3781 41.4781 23.4625C40.8828 23.575 40.2171 23.3312 39.7625 22.8391C39.3546 22.4031 39.214 22.0656 39.1296 21.325C39.064 20.7578 38.8437 20.5234 38.375 20.5234C37.9062 20.5234 37.6859 20.7578 37.6203 21.325C37.5359 22.0656 37.3953 22.4031 36.9875 22.8391C36.5328 23.3312 35.8671 23.575 35.2718 23.4625C34.3625 23.2937 33.7203 22.6141 33.5375 21.6297C33.4953 21.3859 33.5234 21.2594 34.1656 18.6859L34.8359 16H44H53.164L53.8343 18.6859ZM38.6984 23.9125C40.1046 25.3562 42.275 25.3562 43.6859 23.9031L44 23.5797L44.3187 23.9031C45.7296 25.3562 47.8953 25.3562 49.3109 23.9031L49.625 23.5797L49.9437 23.9078C50.6703 24.6578 51.6734 25.0562 52.6343 24.9859L53 24.9578V29.4766V34H50H47L46.9906 31.2391C46.9765 28.5297 46.9765 28.4734 46.8781 28.3469C46.8265 28.2766 46.7234 28.1734 46.6531 28.1219C46.5265 28.0234 46.475 28.0234 44 28.0234C41.525 28.0234 41.4734 28.0234 41.3468 28.1219C41.2765 28.1734 41.1734 28.2766 41.1218 28.3469C41.0234 28.4734 41.0234 28.5297 41.0093 31.2391L41 34H38H35V29.4766V24.9578L35.3656 24.9859C36.3218 25.0562 37.339 24.6531 38.0468 23.9125C38.2156 23.7391 38.3609 23.5938 38.3703 23.5938C38.3796 23.5938 38.5296 23.7391 38.6984 23.9125Z" fill="#107C48"/>
<circle cx="66" cy="10" r="10" fill="white"/>
<circle cx="66" cy="10" r="9.5" stroke="#D9D9D9" stroke-opacity="0.5"/>
<path d="M69.0001 7.49992L68.2951 6.79492L65.1251 9.96492L65.8301 10.6699L69.0001 7.49992ZM71.1201 6.79492L65.8301 12.0849L63.7401 9.99992L63.0351 10.7049L65.8301 13.4999L71.8301 7.49992L71.1201 6.79492ZM60.2051 10.7049L63.0001 13.4999L63.7051 12.7949L60.9151 9.99992L60.2051 10.7049Z" fill="#0AC511"/>
</svg>
