<svg width="50" height="50" viewBox="0 0 50 50" fill="none" xmlns="http://www.w3.org/2000/svg">
<g opacity="0.4">
<path d="M25 29.084C29.5563 29.084 33.25 25.3903 33.25 20.834C33.25 16.2776 29.5563 12.584 25 12.584C20.4437 12.584 16.75 16.2776 16.75 20.834C16.75 25.3903 20.4437 29.084 25 29.084Z" stroke="#888888" stroke-width="4" stroke-linecap="round" stroke-linejoin="round"/>
<path d="M9.89738 31.4594C9.91342 31.4794 9.92984 31.4991 9.94663 31.5185L23.4883 47.1435C23.8682 47.5818 24.4196 47.8337 24.9997 47.8337C25.5797 47.8337 26.1312 47.5818 26.5111 47.1435L40.0527 31.5185C40.0695 31.4991 40.0859 31.4794 40.102 31.4594C41.3612 29.8882 42.275 28.3235 42.8601 26.5583C43.4422 24.802 43.6663 22.9457 43.6663 20.8337C43.6663 15.883 41.6997 11.135 38.199 7.63433C34.6983 4.13365 29.9504 2.16699 24.9997 2.16699C20.049 2.16699 15.301 4.13365 11.8003 7.63433C8.29967 11.135 6.33301 15.883 6.33301 20.8337C6.33301 22.9457 6.55711 24.802 7.13927 26.5583C7.72439 28.3235 8.63813 29.8882 9.89738 31.4594Z" stroke="#888888" stroke-width="4" stroke-linecap="round" stroke-linejoin="round"/>
</g>
</svg>
