<svg width="16" height="18" viewBox="0 0 16 18" fill="none" xmlns="http://www.w3.org/2000/svg">
<path d="M13.3338 2.31558C11.9193 0.901096 10.0009 0.106445 8.00048 0.106445C6.00009 0.106445 4.08163 0.901096 2.66715 2.31558C1.25266 3.73007 0.458008 5.64853 0.458008 7.64892C0.458008 9.64931 1.25266 11.5678 2.66715 12.9822L7.35159 17.6756C7.43422 17.7589 7.53254 17.825 7.64085 17.8702C7.74917 17.9153 7.86536 17.9385 7.9827 17.9385C8.10004 17.9385 8.21623 17.9153 8.32455 17.8702C8.43287 17.825 8.53118 17.7589 8.61381 17.6756L13.3338 12.9378C14.7424 11.5292 15.5337 9.61874 15.5337 7.62669C15.5337 5.63465 14.7424 3.72419 13.3338 2.31558ZM12.0627 11.6667L8.00048 15.7467L3.93826 11.6667C3.13572 10.8634 2.58935 9.84025 2.36821 8.72651C2.14707 7.61277 2.26109 6.45847 2.69586 5.40952C3.13063 4.36057 3.86663 3.46407 4.81082 2.83334C5.75501 2.20261 6.865 1.86597 8.00048 1.86597C9.13596 1.86597 10.2459 2.20261 11.1901 2.83334C12.1343 3.46407 12.8703 4.36057 13.3051 5.40952C13.7399 6.45847 13.8539 7.61277 13.6327 8.72651C13.4116 9.84025 12.8652 10.8634 12.0627 11.6667ZM5.33381 4.92003C4.61623 5.63983 4.21327 6.61475 4.21327 7.63114C4.21327 8.64752 4.61623 9.62245 5.33381 10.3422C5.86693 10.8763 6.54589 11.241 7.2855 11.3906C8.02511 11.5402 8.79244 11.4681 9.49121 11.1833C10.19 10.8984 10.7891 10.4136 11.2133 9.78958C11.6376 9.16556 11.8682 8.43014 11.876 7.67558C11.88 7.17177 11.783 6.67226 11.5906 6.20659C11.3982 5.74093 11.1145 5.31857 10.756 4.96447C10.4037 4.6041 9.98366 4.31695 9.51997 4.11955C9.05627 3.92216 8.55812 3.81841 8.05417 3.81428C7.55022 3.81015 7.05043 3.90571 6.58356 4.09548C6.1167 4.28525 5.69196 4.56548 5.33381 4.92003ZM9.5027 9.08003C9.16585 9.42202 8.72067 9.63639 8.24326 9.68647C7.76585 9.73656 7.28587 9.61926 6.88537 9.35463C6.48488 9.09 6.18874 8.69446 6.0476 8.23566C5.90645 7.77685 5.92906 7.28326 6.11155 6.83928C6.29405 6.39529 6.6251 6.02849 7.04811 5.80157C7.47112 5.57466 7.95981 5.50172 8.43064 5.59524C8.90147 5.68876 9.3252 5.94292 9.62938 6.31428C9.93355 6.68563 10.0993 7.15111 10.0983 7.63114C10.0853 8.17982 9.85514 8.70094 9.45826 9.08003H9.5027Z" fill="white"/>
</svg>
