<svg width="80" height="60" viewBox="0 0 80 60" fill="none" xmlns="http://www.w3.org/2000/svg">
<rect width="80" height="60" fill="white"/>
<g clip-path="url(#clip0_2912_422)">
<path d="M30.8594 9.45325V10.1564H29.4297H28V20.0001V29.8439H32.5891H37.1781L37.5438 30.2095C37.9609 30.6267 38.4109 30.8986 38.9922 31.0954C39.3156 31.2032 39.4469 31.2173 39.9766 31.222C40.4922 31.2267 40.6422 31.2079 40.9375 31.1189C41.5516 30.9267 41.9969 30.6595 42.4328 30.2329L42.8266 29.8439H47.4156H52V20.0001V10.1564H50.5703H49.1406V9.45325V8.74543L45.0531 8.7595C40.4875 8.77356 40.8016 8.75012 40.2438 9.10637L39.9953 9.26575L39.7844 9.12043C39.6672 9.04075 39.4516 8.92825 39.3063 8.872C39.0438 8.77356 39.0016 8.77356 34.9516 8.7595L30.8594 8.74543V9.45325ZM38.9219 10.2501C39.0438 10.3111 39.1422 10.4095 39.2031 10.5314C39.2969 10.7142 39.2969 10.7892 39.2969 18.172V25.6251H35.7813H32.2656V17.8907V10.1564H35.5C38.6547 10.1564 38.7438 10.1611 38.9219 10.2501ZM47.7344 17.8907V25.6251H44.2188H40.7031V18.1579C40.7078 11.0611 40.7125 10.6861 40.7922 10.5361C40.8391 10.4517 40.9563 10.3298 41.0594 10.2689L41.2422 10.1564H44.4906H47.7344V17.8907ZM30.8594 19.297V27.0314H40H49.1406V19.297V11.5626H49.8672H50.5938V20.0001V28.4376H46.3094H42.0203L41.8469 28.7236C41.4109 29.4454 40.7547 29.8439 40 29.8439C39.2594 29.8439 38.6547 29.4923 38.2094 28.8079L37.9703 28.4376H33.6859H29.4062V20.0001V11.5626H30.1328H30.8594V19.297Z" fill="#08908C"/>
<path d="M33.6719 13.6719V15.7812H35.7812H37.8906V13.6719V11.5625H35.7812H33.6719V13.6719ZM36.4844 13.6719V14.375H35.7812H35.0781V13.6719V12.9688H35.7812H36.4844V13.6719Z" fill="#08908C"/>
<path d="M33.6719 17.8906V18.5938H35.7812H37.8906V17.8906V17.1875H35.7812H33.6719V17.8906Z" fill="#08908C"/>
<path d="M33.6719 20.7031V21.4062H35.7812H37.8906V20.7031V20H35.7812H33.6719V20.7031Z" fill="#08908C"/>
<path d="M33.6719 23.5156V24.2188H35.7812H37.8906V23.5156V22.8125H35.7812H33.6719V23.5156Z" fill="#08908C"/>
<path d="M42.1094 12.2656V12.9688H44.2188H46.3281V12.2656V11.5625H44.2188H42.1094V12.2656Z" fill="#08908C"/>
<path d="M42.1094 15.0781V15.7812H44.2188H46.3281V15.0781V14.375H44.2188H42.1094V15.0781Z" fill="#08908C"/>
<path d="M42.1094 17.8906V18.5938H44.2188H46.3281V17.8906V17.1875H44.2188H42.1094V17.8906Z" fill="#08908C"/>
<path d="M42.1094 22.1094V24.2188H44.2188H46.3281V22.1094V20H44.2188H42.1094V22.1094ZM44.9219 22.1094V22.8125H44.2188H43.5156V22.1094V21.4062H44.2188H44.9219V22.1094Z" fill="#08908C"/>
</g>
<path d="M14.424 39.48H15.468V48H14.424V41.472H14.4L11.628 46.284H10.92L8.148 41.472H8.124V48H7.08V39.48H8.136L11.268 44.988H11.292L14.424 39.48ZM21.7909 42.156H22.8229L19.5229 50.376H18.4909L19.5349 47.76L17.0629 42.156H18.1069L20.0029 46.608H20.0269L21.7909 42.156ZM31.8674 48.06C30.6594 48.06 29.6474 47.68 28.8314 46.92C28.0234 46.16 27.6194 45.112 27.6194 43.776C27.6194 42.512 27.9954 41.468 28.7474 40.644C29.5074 39.812 30.5474 39.396 31.8674 39.396C33.2114 39.396 34.3194 39.94 35.1914 41.028L34.4114 41.676C33.7314 40.82 32.8834 40.392 31.8674 40.392C30.9074 40.392 30.1394 40.708 29.5634 41.34C28.9954 41.964 28.7114 42.776 28.7114 43.776C28.7114 44.776 29.0074 45.576 29.5994 46.176C30.1914 46.768 30.9474 47.064 31.8674 47.064C32.8834 47.064 33.7314 46.64 34.4114 45.792L35.1914 46.452C34.3274 47.524 33.2194 48.06 31.8674 48.06ZM41.2833 42.156H42.2553V48H41.3193V47.076H41.3073C40.8113 47.74 40.1313 48.072 39.2673 48.072C38.4433 48.072 37.7593 47.8 37.2153 47.256C36.6713 46.712 36.3993 46 36.3993 45.12C36.3993 44.256 36.6673 43.536 37.2033 42.96C37.7473 42.376 38.4313 42.084 39.2553 42.084C40.0873 42.084 40.7593 42.4 41.2713 43.032H41.2833V42.156ZM39.3513 47.184C39.8953 47.184 40.3593 46.992 40.7433 46.608C41.1273 46.216 41.3193 45.72 41.3193 45.12C41.3193 44.52 41.1313 44.016 40.7553 43.608C40.3873 43.192 39.9233 42.984 39.3633 42.984C38.8033 42.984 38.3313 43.184 37.9473 43.584C37.5713 43.976 37.3833 44.488 37.3833 45.12C37.3833 45.72 37.5633 46.216 37.9233 46.608C38.2913 46.992 38.7673 47.184 39.3513 47.184ZM45.9441 48.072C44.9281 48.072 44.4201 47.468 44.4201 46.26V42.996H43.6761V42.156H44.4201V40.164L45.3921 40.056V42.156H47.3361V42.996H45.3921V46.116C45.3921 46.476 45.4441 46.74 45.5481 46.908C45.6601 47.076 45.8481 47.16 46.1121 47.16C46.4161 47.16 46.7441 47.06 47.0961 46.86L47.3601 47.712C46.9281 47.952 46.4561 48.072 45.9441 48.072ZM53.1773 42.156H54.1493V48H53.2133V47.076H53.2013C52.7053 47.74 52.0253 48.072 51.1613 48.072C50.3373 48.072 49.6533 47.8 49.1093 47.256C48.5653 46.712 48.2933 46 48.2933 45.12C48.2933 44.256 48.5613 43.536 49.0973 42.96C49.6413 42.376 50.3253 42.084 51.1493 42.084C51.9813 42.084 52.6533 42.4 53.1653 43.032H53.1773V42.156ZM51.2453 47.184C51.7893 47.184 52.2533 46.992 52.6373 46.608C53.0213 46.216 53.2133 45.72 53.2133 45.12C53.2133 44.52 53.0253 44.016 52.6493 43.608C52.2813 43.192 51.8173 42.984 51.2573 42.984C50.6973 42.984 50.2253 43.184 49.8413 43.584C49.4653 43.976 49.2773 44.488 49.2773 45.12C49.2773 45.72 49.4573 46.216 49.8173 46.608C50.1853 46.992 50.6613 47.184 51.2453 47.184ZM56.2661 48V39.168H57.2381V48H56.2661ZM62.0861 48.072C61.1901 48.072 60.4621 47.788 59.9021 47.22C59.3421 46.652 59.0621 45.94 59.0621 45.084C59.0621 44.228 59.3421 43.516 59.9021 42.948C60.4621 42.372 61.1901 42.084 62.0861 42.084C62.9501 42.084 63.6661 42.364 64.2341 42.924C64.8021 43.484 65.0861 44.204 65.0861 45.084C65.0861 45.964 64.8021 46.684 64.2341 47.244C63.6661 47.796 62.9501 48.072 62.0861 48.072ZM62.0861 47.184C62.6541 47.184 63.1301 46.988 63.5141 46.596C63.9061 46.196 64.1021 45.692 64.1021 45.084C64.1021 44.468 63.9101 43.964 63.5261 43.572C63.1421 43.18 62.6621 42.984 62.0861 42.984C61.4861 42.984 60.9941 43.188 60.6101 43.596C60.2341 43.996 60.0461 44.492 60.0461 45.084C60.0461 45.676 60.2341 46.176 60.6101 46.584C60.9941 46.984 61.4861 47.184 62.0861 47.184ZM71.2623 42.156H72.2223V47.556C72.2223 48.452 71.9863 49.156 71.5143 49.668C71.0503 50.188 70.3303 50.448 69.3543 50.448C68.4743 50.448 67.6823 50.236 66.9783 49.812L67.2063 48.912C67.9343 49.32 68.6343 49.524 69.3063 49.524C69.9383 49.524 70.4223 49.36 70.7583 49.032C71.1023 48.712 71.2743 48.304 71.2743 47.808V46.992H71.2503C70.7623 47.592 70.1023 47.892 69.2703 47.892C68.4703 47.892 67.7983 47.624 67.2543 47.088C66.7103 46.552 66.4383 45.856 66.4383 45C66.4383 44.168 66.7023 43.476 67.2303 42.924C67.7663 42.364 68.4303 42.084 69.2223 42.084C70.0463 42.084 70.7183 42.38 71.2383 42.972H71.2623V42.156ZM69.3423 46.98C69.9263 46.98 70.3983 46.792 70.7583 46.416C71.1183 46.032 71.2983 45.544 71.2983 44.952C71.2983 44.376 71.1103 43.908 70.7343 43.548C70.3663 43.18 69.9023 42.996 69.3423 42.996C68.7903 42.996 68.3343 43.184 67.9743 43.56C67.6143 43.928 67.4343 44.396 67.4343 44.964C67.4343 45.572 67.6183 46.06 67.9863 46.428C68.3543 46.796 68.8063 46.98 69.3423 46.98Z" fill="#08908C"/>
<defs>
<clipPath id="clip0_2912_422">
<rect width="24" height="24" fill="white" transform="translate(28 8)"/>
</clipPath>
</defs>
</svg>
