<svg width="25" height="25" viewBox="0 0 25 25" fill="none" xmlns="http://www.w3.org/2000/svg">
<path d="M15.446 10.6914H14.2397C14.1346 10.2521 13.9488 9.84137 13.6938 9.48481H15.446C15.5908 9.48481 15.7296 9.42125 15.832 9.30811C15.9344 9.19497 15.9919 9.04151 15.9919 8.88151C15.9919 8.7215 15.9344 8.56804 15.832 8.4549C15.7296 8.34176 15.5908 8.2782 15.446 8.2782H9.44167C9.29691 8.2782 9.15807 8.34176 9.0557 8.4549C8.95333 8.56804 8.89583 8.7215 8.89583 8.88151C8.89583 9.04151 8.95333 9.19497 9.0557 9.30811C9.15807 9.42125 9.29691 9.48481 9.44167 9.48481H11.3521C11.7125 9.48621 12.0652 9.60025 12.3695 9.81376C12.6737 10.0273 12.9171 10.3315 13.0716 10.6914H9.44167C9.29691 10.6914 9.15807 10.755 9.0557 10.8681C8.95333 10.9813 8.89583 11.1347 8.89583 11.2947C8.89583 11.4547 8.95333 11.6082 9.0557 11.7213C9.15807 11.8345 9.29691 11.898 9.44167 11.898H13.2626C13.1972 12.3991 12.971 12.8576 12.6253 13.1898C12.2797 13.522 11.8375 13.7059 11.3794 13.708H9.44167C9.41627 13.7051 9.39066 13.7051 9.36526 13.708C9.32908 13.7017 9.29226 13.7017 9.25609 13.708C9.21888 13.722 9.18388 13.7423 9.15237 13.7683L9.08687 13.8105C9.05697 13.8404 9.03122 13.8749 9.01045 13.9131C8.99217 13.9398 8.97575 13.9681 8.96133 13.9975C8.95647 14.0335 8.95647 14.0701 8.96133 14.1061C8.92243 14.1663 8.89972 14.2374 8.89583 14.3113C8.89327 14.3394 8.89327 14.3676 8.89583 14.3957C8.89019 14.4357 8.89019 14.4764 8.89583 14.5164C8.9085 14.5575 8.92692 14.5962 8.95041 14.631C8.95041 14.631 8.95041 14.6793 8.98862 14.7034L12.2637 18.9266C12.3578 19.0482 12.4918 19.1235 12.6361 19.1359C12.7804 19.1484 12.9233 19.0969 13.0334 18.9929C13.1434 18.8889 13.2115 18.7409 13.2228 18.5813C13.234 18.4218 13.1875 18.2639 13.0934 18.1423L10.6316 14.9146H11.3521C12.1033 14.918 12.8283 14.6101 13.3841 14.0517C13.9398 13.4932 14.286 12.7248 14.3543 11.898H15.446C15.5908 11.898 15.7296 11.8345 15.832 11.7213C15.9344 11.6082 15.9919 11.4547 15.9919 11.2947C15.9919 11.1347 15.9344 10.9813 15.832 10.8681C15.7296 10.755 15.5908 10.6914 15.446 10.6914Z" fill="#1D70EC"/>
<path d="M20.0282 16.9237C19.7981 17.4943 19.509 18.0426 19.1638 18.5592C18.243 19.9372 16.662 21.1849 15.1194 21.8238C13.5972 22.4543 11.561 22.5513 9.91253 22.2234C8.299 21.9024 6.66716 20.8987 5.47652 19.708C4.32222 18.5538 3.69946 16.9793 3.36754 15.3106C3.04431 13.6856 3.26152 11.8771 3.90067 10.3341C4.53722 8.7973 5.61517 7.48381 6.99822 6.55969C8.30156 5.68882 9.82069 5.2006 11.3835 5.14722C11.7562 5.13449 12.0707 4.83195 12.0707 4.44147C12.0707 4.05785 11.7573 3.73284 11.3571 3.74564C9.52623 3.80417 7.746 4.37423 6.21948 5.39422C4.60592 6.47237 3.34831 8.00477 2.60567 9.79766C1.86304 11.5905 1.66873 13.5634 2.04732 15.4667C2.42591 17.37 3.3604 19.1183 4.73262 20.4905C6.10483 21.8628 7.85314 22.7972 9.75646 23.1758C11.6598 23.5544 13.6326 23.3601 15.4255 22.6175C17.2129 21.8771 18.7415 20.6249 19.8191 19.0184C20.2339 18.4999 20.547 17.8742 20.778 17.2035C21.2319 16.0712 21.4728 14.8588 21.4822 13.6275C21.4843 13.3639 21.2707 13.1525 21.0106 13.1525C20.7515 13.1525 20.54 13.3615 20.5385 13.6218C20.5323 14.6946 20.3818 15.8872 20.0282 16.9237ZM20.6823 13.6214C20.6823 13.6218 20.6823 13.6222 20.6823 13.6226C20.6823 13.6222 20.6823 13.6218 20.6823 13.6214Z" fill="#1D70EC" stroke="#1D70EC" stroke-width="0.8"/>
<path d="M11.5268 3.06523L13.4585 4.18051L11.5268 5.29579L11.5268 3.06523Z" fill="#1D70EC" stroke="#1D70EC"/>
</svg>
