<svg width="73" height="24" viewBox="0 0 73 24" fill="none" xmlns="http://www.w3.org/2000/svg">
<path d="M41.536 17H39.856L36.976 12.664H34.832V17H33.44V5.64H37.472C38.7307 5.64 39.6693 5.96 40.288 6.6C40.9173 7.24 41.232 8.09333 41.232 9.16C41.232 10.0987 40.992 10.8507 40.512 11.416C40.0427 11.9813 39.3813 12.3547 38.528 12.536V12.552L41.536 17ZM34.832 6.92V11.384H37.104C38.0107 11.384 38.6827 11.1813 39.12 10.776C39.568 10.36 39.792 9.81067 39.792 9.128C39.792 8.41333 39.5733 7.86933 39.136 7.496C38.6987 7.112 38.0853 6.92 37.296 6.92H34.832ZM50.3148 12.984C50.3148 13.0693 50.3094 13.1813 50.2987 13.32L50.2828 13.512H44.2828C44.3681 14.2373 44.6454 14.8187 45.1148 15.256C45.5948 15.6933 46.1868 15.912 46.8908 15.912C47.7974 15.912 48.5281 15.56 49.0828 14.856L49.9948 15.64C49.2374 16.6107 48.1868 17.096 46.8428 17.096C45.7228 17.096 44.7948 16.728 44.0588 15.992C43.3334 15.2453 42.9708 14.2853 42.9708 13.112C42.9708 11.9493 43.3228 10.9947 44.0268 10.248C44.7414 9.49067 45.6321 9.112 46.6988 9.112C47.7761 9.112 48.6454 9.47467 49.3068 10.2C49.9788 10.9253 50.3148 11.8533 50.3148 12.984ZM48.2828 10.888C47.8881 10.504 47.3814 10.312 46.7628 10.312C46.1441 10.312 45.6108 10.504 45.1628 10.888C44.7254 11.2613 44.4481 11.7787 44.3307 12.44H49.0348C48.9281 11.7893 48.6774 11.272 48.2828 10.888ZM54.6629 17.096C53.4575 17.096 52.4389 16.7227 51.6069 15.976L52.2789 15C52.9509 15.6187 53.7455 15.928 54.6629 15.928C55.1109 15.928 55.4682 15.8267 55.7349 15.624C56.0015 15.4213 56.1349 15.176 56.1349 14.888C56.1349 14.5893 56.0015 14.3653 55.7349 14.216C55.4789 14.056 55.0255 13.864 54.3749 13.64C54.3322 13.6293 54.3002 13.6187 54.2789 13.608C53.5215 13.3413 52.9402 13.0373 52.5349 12.696C52.1402 12.3547 51.9429 11.8587 51.9429 11.208C51.9429 10.6107 52.1829 10.1147 52.6629 9.72C53.1535 9.31467 53.7722 9.112 54.5189 9.112C55.5109 9.112 56.4015 9.432 57.1909 10.072L56.5189 11.096C55.9002 10.5627 55.2122 10.296 54.4549 10.296C54.1455 10.296 53.8682 10.3813 53.6229 10.552C53.3775 10.7227 53.2549 10.9413 53.2549 11.208C53.2549 11.4853 53.3722 11.7093 53.6069 11.88C53.8522 12.0507 54.2255 12.232 54.7269 12.424C54.8122 12.456 54.9669 12.5147 55.1909 12.6C55.4255 12.6853 55.5802 12.744 55.6549 12.776C55.7295 12.808 55.8575 12.8667 56.0389 12.952C56.2202 13.0267 56.3429 13.0853 56.4069 13.128C56.4709 13.16 56.5669 13.2187 56.6949 13.304C56.8335 13.3893 56.9242 13.464 56.9669 13.528C57.0202 13.592 57.0842 13.6773 57.1589 13.784C57.2442 13.8907 57.3029 13.9973 57.3349 14.104C57.3669 14.2 57.3935 14.3173 57.4149 14.456C57.4362 14.584 57.4469 14.7227 57.4469 14.872C57.4469 15.512 57.2069 16.0453 56.7269 16.472C56.2469 16.888 55.5589 17.096 54.6629 17.096ZM66.1585 12.984C66.1585 13.0693 66.1532 13.1813 66.1425 13.32L66.1265 13.512H60.1265C60.2118 14.2373 60.4892 14.8187 60.9585 15.256C61.4385 15.6933 62.0305 15.912 62.7345 15.912C63.6412 15.912 64.3718 15.56 64.9265 14.856L65.8385 15.64C65.0812 16.6107 64.0305 17.096 62.6865 17.096C61.5665 17.096 60.6385 16.728 59.9025 15.992C59.1772 15.2453 58.8145 14.2853 58.8145 13.112C58.8145 11.9493 59.1665 10.9947 59.8705 10.248C60.5852 9.49067 61.4758 9.112 62.5425 9.112C63.6198 9.112 64.4892 9.47467 65.1505 10.2C65.8225 10.9253 66.1585 11.8533 66.1585 12.984ZM64.1265 10.888C63.7318 10.504 63.2252 10.312 62.6065 10.312C61.9878 10.312 61.4545 10.504 61.0065 10.888C60.5692 11.2613 60.2918 11.7787 60.1745 12.44H64.8785C64.7718 11.7893 64.5212 11.272 64.1265 10.888ZM70.3306 17.096C68.976 17.096 68.2986 16.2907 68.2986 14.68V10.328H67.3066V9.208H68.2986V6.552L69.5946 6.408V9.208H72.1866V10.328H69.5946V14.488C69.5946 14.968 69.664 15.32 69.8026 15.544C69.952 15.768 70.2026 15.88 70.5546 15.88C70.96 15.88 71.3973 15.7467 71.8666 15.48L72.2186 16.616C71.6426 16.936 71.0133 17.096 70.3306 17.096Z" fill="#10BAB2"/>
<path d="M1 4V10H7" stroke="#10BAB2" stroke-width="2" stroke-linecap="round" stroke-linejoin="round"/>
<path d="M23 20V14H17" stroke="#10BAB2" stroke-width="2" stroke-linecap="round" stroke-linejoin="round"/>
<path d="M20.49 9.00008C19.9828 7.56686 19.1209 6.28548 17.9845 5.27549C16.8482 4.26551 15.4745 3.55984 13.9917 3.22433C12.5089 2.88883 10.9652 2.93442 9.50481 3.35685C8.04437 3.77928 6.71475 4.56479 5.64 5.64008L1 10.0001M23 14.0001L18.36 18.3601C17.2853 19.4354 15.9556 20.2209 14.4952 20.6433C13.0348 21.0657 11.4911 21.1113 10.0083 20.7758C8.52547 20.4403 7.1518 19.7346 6.01547 18.7247C4.87913 17.7147 4.01717 16.4333 3.51 15.0001" stroke="#10BAB2" stroke-width="2" stroke-linecap="round" stroke-linejoin="round"/>
</svg>
