<svg width="24" height="24" viewBox="0 0 24 24" fill="none" xmlns="http://www.w3.org/2000/svg">
<g clip-path="url(#clip0_1685_2348)">
<path d="M18.2324 0.000347137C18.3554 0.0460148 18.4621 0.086834 18.5751 0.17588C18.6866 0.263702 18.7993 0.394171 18.9491 0.611324C19.247 1.04313 19.7118 1.84829 20.6234 3.42723L20.6321 3.44228C21.5685 5.06228 22.386 6.48573 22.4436 6.59607L22.4443 6.59761L22.5428 6.79448L22.5533 6.8156V6.8392V14.6626C22.5533 15.1391 22.5534 15.5878 22.5534 16.0103C22.5539 19.4251 22.5541 21.1338 22.5222 22.0338C22.5044 22.5373 22.4764 22.7981 22.4289 22.9653C22.39 23.1024 22.3356 23.1798 22.2781 23.2616C22.263 23.2832 22.2476 23.3051 22.2322 23.3285L22.2318 23.329C22.1308 23.4807 21.9432 23.6682 21.7916 23.7693L21.7361 23.6861L21.7923 23.7688C21.7666 23.7863 21.7429 23.8042 21.7193 23.822C21.6442 23.8787 21.5701 23.9347 21.435 23.9736C21.2641 24.0229 20.985 24.0515 20.4239 24.0696C19.4434 24.1013 17.5674 24.101 13.8188 24.1003C13.2559 24.1002 12.6508 24.1001 12.0002 24.1001C11.3496 24.1001 10.7445 24.1002 10.1816 24.1003C6.43301 24.101 4.55696 24.1013 3.57647 24.0696C3.01544 24.0515 2.73633 24.0229 2.56536 23.9736C2.43029 23.9347 2.35619 23.8787 2.28109 23.822C2.2576 23.8042 2.234 23.7864 2.20842 23.769C2.05687 23.6679 1.86955 23.4805 1.76856 23.329L1.76856 23.329L1.76819 23.3285C1.75282 23.3051 1.73744 23.2832 1.72226 23.2616C1.66484 23.1798 1.61049 23.1023 1.57155 22.9659C1.52404 22.7995 1.49603 22.5406 1.4782 22.0414C1.44631 21.1493 1.44653 19.4563 1.44697 16.0729C1.44702 15.6543 1.44708 15.2098 1.44708 14.7376C1.44708 11.5409 1.44942 9.59748 1.4588 8.43156C1.46349 7.84875 1.46994 7.45929 1.47878 7.20436C1.48319 7.077 1.48824 6.98206 1.49409 6.91286C1.4996 6.84759 1.50638 6.79675 1.51718 6.76273C1.5217 6.74784 1.5296 6.72992 1.53707 6.71379C1.54574 6.69507 1.55718 6.67173 1.57102 6.64437C1.59876 6.58954 1.63732 6.51622 1.6853 6.42691C1.78133 6.24816 1.91611 6.00343 2.0797 5.71056C2.40693 5.1247 2.85014 4.34498 3.33079 3.51263C4.26458 1.89313 4.74064 1.06811 5.04283 0.625763C5.19422 0.404156 5.30685 0.271091 5.41671 0.181377C5.52856 0.0900402 5.63273 0.047863 5.75275 0.00078392L5.75415 0.000257492L17.1918 -0.0875435C17.9784 -0.0764904 18.091 -0.0540047 18.2324 0.000347137ZM18.2324 0.000347137C18.2326 0.000417709 18.2328 0.000486374 18.233 0.000556946L18.1971 0.0938911L18.2319 0.000148773C18.2321 0.00021553 18.2323 0.00028038 18.2324 0.000347137ZM3.86786 5.82351C3.85521 5.82245 3.84372 5.82135 3.83332 5.82023C3.81311 5.81804 3.79836 5.81587 3.78785 5.81385C3.7767 5.81172 3.77334 5.81032 3.77437 5.81074C3.77506 5.81101 3.77881 5.81255 3.78395 5.81605C3.78902 5.81949 3.79787 5.82648 3.80582 5.83843C3.82481 5.86701 3.82297 5.89796 3.81535 5.91883C3.80768 5.91795 3.80056 5.91706 3.79397 5.91613C3.7308 5.90727 3.71589 5.89636 3.72208 5.88295L3.86786 5.82351ZM3.86786 5.82351C3.87155 5.81688 3.8754 5.80996 3.87943 5.80276C3.92175 5.72692 3.982 5.62008 4.05641 5.48878C4.20522 5.22623 4.41037 4.86645 4.64149 4.4625C5.10367 3.65472 5.66949 2.67068 6.09591 1.93498C6.09597 1.93487 6.09603 1.93477 6.09609 1.93466L6.34802 1.50639H8.79395H11.1971V3.67983V5.85327H7.49551C5.79823 5.85327 4.84897 5.85092 4.3275 5.84098C4.09883 5.83662 3.95533 5.83084 3.86786 5.82351ZM12.8502 5.85327V5.95327H16.5518C18.9364 5.95327 19.917 5.94454 20.21 5.91794L12.7502 3.67983V5.85327H12.8502ZM12.8502 5.85327V3.67983V1.50677M12.8502 5.85327H16.5518C18.066 5.85327 19.0132 5.84975 19.5776 5.84039C19.8581 5.83574 20.0422 5.82967 20.1539 5.82204C19.9717 5.50922 19.4775 4.65402 18.9168 3.68304L12.8502 1.50677M12.8502 1.50677L15.2387 1.51577H15.2389L17.6705 1.5295L18.9167 3.68296L12.8502 1.50677ZM11.9861 -0.095171C11.9861 -0.095171 11.9861 -0.095171 11.9861 -0.095171V0.00482941L11.9861 -0.095171ZM20.2633 5.81121C20.2917 5.85995 20.3082 5.88799 20.3111 5.89233C20.3148 5.89754 20.3086 5.90235 20.2905 5.90678C20.29 5.90691 20.2894 5.90704 20.2889 5.90716C20.2731 5.91088 20.2488 5.91432 20.2148 5.9175C20.2106 5.90031 20.2106 5.87993 20.2193 5.85863C20.231 5.83013 20.252 5.81742 20.2567 5.81464C20.2592 5.81318 20.2614 5.81206 20.2633 5.81121ZM20.8898 22.4387C20.8903 22.4386 20.8908 22.4385 20.8912 22.4383C20.8921 22.4348 20.8931 22.4304 20.8942 22.4249C20.9002 22.3941 20.9062 22.3424 20.9117 22.2557C20.9225 22.0832 20.9301 21.7868 20.9354 21.2733C20.9459 20.2474 20.9471 18.3637 20.9471 14.8923V7.45952H12.0002H3.05333V14.897C3.05333 18.5208 3.0545 20.4068 3.06563 21.3957C3.0712 21.891 3.07925 22.1583 3.09061 22.3058C3.09621 22.3785 3.10227 22.4166 3.10745 22.4368C3.11216 22.4379 3.11842 22.4392 3.12658 22.4406C3.16308 22.4469 3.22378 22.453 3.32499 22.4584C3.5264 22.4693 3.87421 22.4769 4.47822 22.4822C5.68529 22.4927 7.90776 22.4939 12.0096 22.4939C16.2825 22.4939 18.5038 22.4927 19.6656 22.4816C20.2473 22.476 20.5609 22.468 20.7331 22.4565C20.8201 22.4508 20.8656 22.4444 20.8898 22.4387Z" fill="#08908C" stroke="#08908C" stroke-width="0.2"/>
<path d="M10.4775 15.0888L10.4772 15.0886C10.3031 14.9144 10.1299 14.7471 9.99111 14.6184C9.92178 14.5541 9.8605 14.4989 9.8117 14.4571C9.76655 14.4184 9.72333 14.3835 9.69418 14.3679L9.69353 14.3676L9.69352 14.3676C9.34675 14.1859 8.88795 14.3357 8.68058 14.6758C8.61274 14.7862 8.57965 14.9298 8.57454 15.0665C8.56943 15.2031 8.59177 15.3469 8.64877 15.458L8.65053 15.4615L8.65059 15.4614C8.661 15.4799 8.67881 15.5024 8.69605 15.523C8.71514 15.5459 8.73988 15.5741 8.7691 15.6063C8.82762 15.671 8.90618 15.7545 8.9979 15.8501C9.18146 16.0413 9.41947 16.2827 9.65916 16.5215C9.89885 16.7603 10.1407 16.997 10.3319 17.179C10.4275 17.2698 10.5109 17.3475 10.5753 17.4051C10.6075 17.4338 10.6355 17.4581 10.6584 17.4768C10.6785 17.4932 10.7017 17.5113 10.7215 17.5215C10.8053 17.565 10.9211 17.5819 11.0311 17.5819C11.1433 17.5819 11.2648 17.5643 11.3653 17.5262L10.4775 15.0888ZM10.4775 15.0888L11.0397 15.6552L12.5858 14.1136M10.4775 15.0888L12.5858 14.1136M12.5858 14.1136C13.0314 13.668 13.4491 13.2573 13.7638 12.9549M12.5858 14.1136L13.7638 12.9549M13.7638 12.9549C13.921 12.8038 14.053 12.6793 14.1501 12.5909M13.7638 12.9549L14.1501 12.5909M14.1501 12.5909C14.1985 12.5468 14.239 12.511 14.2699 12.4852M14.1501 12.5909L14.2699 12.4852M14.2699 12.4852C14.2853 12.4724 14.2992 12.4612 14.3111 12.4524M14.2699 12.4852L14.3111 12.4524M14.3111 12.4524L14.3112 12.4524M14.3111 12.4524L14.3112 12.4524M14.3112 12.4524C14.3187 12.4468 14.3348 12.435 14.353 12.4276L14.3112 12.4524Z" fill="#08908C" stroke="#08908C" stroke-width="0.2"/>
</g>
<defs>
<clipPath id="clip0_1685_2348">
<rect width="24" height="24" fill="white"/>
</clipPath>
</defs>
</svg>
