<svg width="24" height="24" viewBox="0 0 24 24" fill="none" xmlns="http://www.w3.org/2000/svg">
<g clip-path="url(#clip0_1685_2335)">
<path d="M4.90307 16.5187C4.92651 16.3641 4.88432 16.2469 4.62651 15.7266C3.86713 14.1984 3.5812 12.6844 3.75463 11.1187C4.14838 7.51875 6.78276 4.56094 10.2703 3.80156M4.90307 16.5187L5.0024 16.5304C5.00233 16.5309 5.00226 16.5315 5.0022 16.532M4.90307 16.5187L5.00194 16.5337C5.00203 16.5332 5.00211 16.5326 5.0022 16.532M4.90307 16.5187C4.86088 16.8797 4.57026 17.1328 4.19995 17.1328C3.82026 17.1328 3.68901 17.0016 3.34213 16.3078C2.6812 14.9625 2.36713 13.7578 2.31088 12.3047C2.22651 10.1203 2.9437 7.86562 4.29838 6.05625C4.64526 5.59687 5.49838 4.71094 5.95307 4.34531M5.0022 16.532C5.01643 16.4365 5.00863 16.3522 4.96463 16.2267C4.92237 16.1061 4.84438 15.941 4.71611 15.6822L4.71606 15.6821C3.9645 14.1697 3.68287 12.6748 3.85403 11.1298L3.85404 11.1296C4.2432 7.57159 6.84675 4.64944 10.2913 3.89932M5.0022 16.532C4.95321 16.9442 4.61868 17.2328 4.19995 17.2328C3.99504 17.2328 3.83808 17.1963 3.68923 17.0524C3.55125 16.919 3.42476 16.6967 3.25269 16.3525L3.25269 16.3525L3.25238 16.3519C2.58559 14.9947 2.26778 13.7763 2.21096 12.3086L2.21096 12.3085C2.12567 10.1004 2.85041 7.82337 4.21833 5.99632L4.21858 5.99599C4.5702 5.53033 5.42889 4.63854 5.89026 4.2675M10.2913 3.89932C10.2912 3.89934 10.2912 3.89935 10.2911 3.89937L10.2703 3.80156M10.2913 3.89932C11.0064 3.74711 11.6908 3.70469 13.3069 3.71875L14.594 3.73066M10.2913 3.89932C10.2914 3.8993 10.2915 3.89929 10.2915 3.89927L10.2703 3.80156M10.2703 3.80156C10.9968 3.64687 11.6906 3.60469 13.3078 3.61875L14.594 3.73066M14.594 3.73066L14.1919 4.1495L14.1917 4.14963C14.0364 4.312 13.8891 4.47107 13.7769 4.59691C13.7208 4.65976 13.673 4.71484 13.6372 4.75816C13.6193 4.77977 13.6039 4.79908 13.5917 4.81531C13.5814 4.82909 13.5696 4.84553 13.5617 4.86084M14.594 3.73066L13.8789 5.85089C13.7109 5.74788 13.5906 5.57961 13.5321 5.40132C13.4739 5.22402 13.473 5.02457 13.5617 4.86084M13.5617 4.86084C13.5613 4.86159 13.5609 4.86234 13.5605 4.86309L13.6499 4.90781L13.5621 4.86003C13.562 4.8603 13.5618 4.86057 13.5617 4.86084ZM5.89026 4.2675L5.95307 4.34531M5.89026 4.2675C5.89031 4.26746 5.89036 4.26742 5.89041 4.26738L5.95307 4.34531M5.89026 4.2675C7.06967 3.31544 8.56563 2.6099 10.0209 2.32071M5.95307 4.34531C7.12026 3.40312 8.60151 2.70469 10.0406 2.41875L10.0208 2.32073C10.0208 2.32072 10.0208 2.32072 10.0209 2.32071M10.0209 2.32071C10.8888 2.14524 11.5298 2.10312 13.2609 2.10312H14.5878L14.1646 1.67328L14.1645 1.67314C13.928 1.432 13.7758 1.26924 13.6796 1.1487C13.5837 1.02849 13.5348 0.939962 13.5187 0.847343C13.462 0.542463 13.5347 0.282047 13.7449 0.0824203C13.8176 0.0121002 13.8782 -0.0409546 13.9618 -0.069891C14.0413 -0.0974102 14.1335 -0.1 14.2593 -0.1C14.4749 -0.1 14.6176 -0.0705986 14.7518 0.0129299C14.7522 0.0131664 14.7526 0.0133972 14.7529 0.0136356L10.0209 2.32071Z" fill="#08908C" stroke="#08908C" stroke-width="0.2"/>
<path d="M20.1145 13.4705L20.1145 13.4706C19.9569 14.2493 19.7301 14.9065 19.3638 15.6346L19.3638 15.6346C18.9558 16.4459 18.5538 17.0143 17.9279 17.668L20.1145 13.4705ZM20.1145 13.4705C20.2062 13.0213 20.2203 12.8232 20.2203 11.9062C20.2156 10.9939 20.2015 10.7959 20.1147 10.3802C19.957 9.66623 19.6879 8.89624 19.3685 8.25727C19.1503 7.8255 19.0719 7.6214 19.0719 7.4389C19.0719 7.14775 19.2433 6.8746 19.5013 6.7452C19.6102 6.68828 19.7184 6.65629 19.8303 6.65282C19.9422 6.64934 20.0518 6.67458 20.1632 6.7237M20.1145 13.4705L10.5447 18.9363M10.5447 18.9363L10.5449 18.9355C10.6408 18.5839 10.5063 18.243 10.201 18.0554C10.0735 17.9761 9.90197 17.9452 9.74346 17.9509C9.58622 17.9566 9.42032 17.9992 9.30797 18.0904C9.28602 18.1077 9.23279 18.1581 9.16209 18.2268C9.08697 18.2997 8.98586 18.3993 8.86618 18.5184C8.62683 18.7566 8.31255 19.0732 7.98189 19.4109C7.98182 19.411 7.98175 19.4111 7.98167 19.4111L6.77277 20.6294L6.74375 20.6586V20.6998V20.9483C6.74375 21.0203 6.75139 21.101 6.76398 21.1734C6.77607 21.243 6.79457 21.3158 6.82114 21.3656C6.83184 21.3857 6.85285 21.4114 6.87196 21.4339C6.89405 21.46 6.92361 21.4933 6.95938 21.5324C7.03104 21.6109 7.12972 21.7155 7.24804 21.8385C7.4848 22.0846 7.80172 22.4063 8.14194 22.7441C8.67807 23.2779 8.99426 23.5871 9.19597 23.7669C9.39469 23.944 9.49668 24.0096 9.60269 24.032L9.60554 24.0326L9.60555 24.0326C10.1913 24.1391 10.6788 23.631 10.5507 23.0547L10.5502 23.0521L10.5501 23.0521C10.5281 22.9638 10.4725 22.8745 10.373 22.7547C10.2726 22.6338 10.1186 22.4715 9.88669 22.2373L9.88661 22.2372L9.46224 21.8095L11.1621 21.7889L11.1623 21.7889C13.2215 21.7607 13.5503 21.7326 14.5422 21.4763L14.5422 21.4763C17.9297 20.5999 20.6567 17.8436 21.5422 14.3966L21.5422 14.3965C21.7646 13.5258 21.85 12.8424 21.85 11.9295C21.85 10.353 21.5276 8.98778 20.8223 7.57243L20.8223 7.57231C20.6797 7.28726 20.5787 7.10214 20.4831 6.97644C20.3834 6.84521 20.2886 6.77714 20.1632 6.7237M10.5447 18.9363C10.5182 19.0304 10.464 19.1225 10.3631 19.2466C10.2625 19.3703 10.1094 19.5327 9.87741 19.767C9.87738 19.767 9.87735 19.767 9.87732 19.7671L9.45438 20.1967M10.5447 18.9363L9.45438 20.1967M20.1632 6.7237C20.1634 6.7238 20.1636 6.7239 20.1639 6.724L20.1234 6.81547L20.1626 6.72345C20.1628 6.72353 20.163 6.72362 20.1632 6.7237ZM9.45438 20.1967H10.7578C12.4214 20.1967 13.0637 20.1543 13.7556 20.0067C15.4091 19.6501 16.7414 18.9009 17.9278 17.6682L9.45438 20.1967Z" fill="#08908C" stroke="#08908C" stroke-width="0.2"/>
<path d="M11.7185 7.11095C11.6294 7.15782 11.5075 7.26564 11.4513 7.3547C11.3575 7.49064 11.3435 7.57501 11.3435 7.96408V8.41876L11.0153 8.47032C10.5981 8.53595 10.2419 8.70939 9.91377 9.00939C9.47314 9.41251 9.23408 9.95157 9.23408 10.5422C9.23408 11.2734 9.59502 11.9297 10.2231 12.3328C10.6263 12.5906 10.7997 12.6234 11.9388 12.6516C12.8903 12.6797 12.9888 12.6891 13.106 12.7781C13.3403 12.9516 13.4247 13.1063 13.4247 13.3594C13.4247 13.6219 13.331 13.7859 13.0778 13.9547C12.9231 14.0625 12.9044 14.0625 11.3481 14.0625C9.94189 14.0625 9.75439 14.0719 9.60908 14.1469C9.10752 14.3953 9.10752 15.1359 9.60908 15.3844C9.74502 15.4547 9.90439 15.4688 10.5606 15.4688H11.3435V15.9328C11.3435 16.3313 11.3575 16.4109 11.4513 16.5516C11.7372 16.9781 12.2997 16.9688 12.6278 16.5328C12.7028 16.4297 12.7263 16.3125 12.7403 15.9469L12.7591 15.4875L13.0591 15.4359C13.9731 15.2766 14.6622 14.5875 14.8169 13.6734C14.9575 12.8391 14.4841 11.8875 13.7435 11.5125C13.3075 11.2922 13.0403 11.25 12.07 11.25C11.2919 11.25 11.156 11.2406 11.0153 11.1609C10.5419 10.9125 10.5091 10.2422 10.9544 9.95157C11.0669 9.87657 11.245 9.8672 12.731 9.84376C14.306 9.82032 14.3903 9.81564 14.5122 9.72189C14.7419 9.55314 14.8263 9.39376 14.831 9.14532C14.8356 8.8922 14.7513 8.73283 14.5122 8.55939C14.395 8.47032 14.306 8.46095 13.57 8.44689L12.7591 8.43283L12.7403 7.96876C12.7263 7.47189 12.6747 7.3547 12.4122 7.15782C12.2388 7.02658 11.92 7.00782 11.7185 7.11095Z" fill="#08908C"/>
</g>
<defs>
<clipPath id="clip0_1685_2335">
<rect width="24" height="24" fill="white"/>
</clipPath>
</defs>
</svg>
