<svg width="90" height="91" viewBox="0 0 90 91" fill="none" xmlns="http://www.w3.org/2000/svg">
<rect y="0.5" width="90" height="90" rx="24" fill="url(#paint0_linear_919_1376)"/>
<g clip-path="url(#clip0_919_1376)">
<path d="M23.3915 21.6312C22.5571 21.9969 22.2383 23.1781 22.7915 23.8719C22.8946 24.0031 23.2977 24.3125 23.7008 24.5562C25.2758 25.5125 27.0946 27.1344 28.6977 29C35.5227 36.9969 40.4821 49.8219 43.3133 66.7812C43.6415 68.7219 43.7633 69.0031 44.4008 69.3125C44.9915 69.6031 45.554 69.5281 46.0133 69.0969C46.3977 68.7406 46.5008 68.4219 46.5946 67.2312C47.1758 60.2281 48.8446 52.9719 51.2071 47.2062L51.6852 46.0437L52.2102 46.1094C52.5008 46.1469 53.2602 46.175 53.9071 46.175C58.2571 46.1562 62.1196 44.1031 65.0071 40.2594C66.2633 38.5812 66.9196 36.7625 67.3321 33.875C67.5102 32.5625 67.4915 28.8312 67.2758 27.0781C67.1165 25.7281 66.7508 23.5062 66.5633 22.8031C66.254 21.6687 65.1102 21.1719 64.2383 21.8094C64.079 21.9219 63.5821 22.2969 63.1321 22.6344C61.2571 24.0875 57.7977 25.8781 53.9258 27.4156C51.3758 28.4281 50.129 29.1969 48.8821 30.5187C46.3227 33.2187 45.6383 37.0719 46.979 41.1875C47.2883 42.1344 48.1977 44.0937 48.6008 44.6844L48.8352 45.0312L48.2258 46.5594C47.0258 49.5219 45.8446 53.4219 45.0852 56.9375L44.7665 58.3812L44.6633 57.9687C44.5977 57.7344 44.354 56.7219 44.1102 55.7187C42.5446 49.2781 40.3696 43.025 37.8852 37.8687C34.6415 31.1187 30.3008 25.4469 26.204 22.6062C24.6852 21.5469 24.0665 21.3406 23.3915 21.6312ZM64.2758 27.1719C64.5102 28.9625 64.5102 32.5812 64.2946 33.9687C64.0977 35.1594 63.7415 36.4437 63.3852 37.2031C62.8602 38.3375 61.2008 40.2312 59.8602 41.2344C58.9602 41.9094 57.3758 42.65 56.2508 42.9219C55.3602 43.1375 53.0633 43.3625 53.0633 43.2312C53.0633 43.2031 53.2977 42.7625 53.5883 42.2562C54.7321 40.2312 55.9696 38.4781 57.5258 36.6687C58.1446 35.9562 58.4165 35.5719 58.4633 35.3375C58.6508 34.2875 57.8352 33.3875 56.804 33.5281C56.3071 33.5937 55.9977 33.8469 55.0977 34.8875C53.6165 36.6125 52.2852 38.5062 51.0946 40.5969C50.7665 41.1781 50.4665 41.6281 50.429 41.5812C50.2883 41.4406 49.7821 40.0531 49.5852 39.3031C49.3133 38.2062 49.2477 36.5656 49.4446 35.6562C49.7258 34.3531 50.4946 33.0312 51.4977 32.1312C52.3977 31.3344 52.754 31.1562 55.8946 29.8531C58.6133 28.7375 61.5665 27.2656 63.2821 26.1781C63.6665 25.925 64.0133 25.7562 64.0508 25.7937C64.079 25.8312 64.1915 26.45 64.2758 27.1719Z" fill="#4F5052"/>
</g>
<defs>
<linearGradient id="paint0_linear_919_1376" x1="0" y1="0.5" x2="85.7792" y2="83.4514" gradientUnits="userSpaceOnUse">
<stop stop-color="#F9CF56" stop-opacity="0.52"/>
<stop offset="1" stop-color="#F9CF56" stop-opacity="0.72"/>
</linearGradient>
<clipPath id="clip0_919_1376">
<rect width="48" height="48" fill="white" transform="translate(21 21.5)"/>
</clipPath>
</defs>
</svg>
