<svg width="48" height="48" viewBox="0 0 48 48" fill="none" xmlns="http://www.w3.org/2000/svg">
<path d="M16.9312 0.131236C16.35 0.356236 16.725 1.08749 18.0937 2.43749C19.275 3.61874 19.5562 3.80624 19.8375 3.63749C20.5312 3.18749 20.3437 2.64374 18.9937 1.29374C17.7562 0.0749865 17.475 -0.0937636 16.9312 0.131236Z" fill="#39934E"/>
<path d="M29.0812 1.38749C27.6937 2.79374 27.5062 3.22499 28.1625 3.63749C28.4437 3.80624 28.725 3.61874 29.9062 2.43749C31.3125 1.03124 31.65 0.356237 31.0125 0.112487C30.5437 -0.0750134 30.525 -0.0562632 29.0812 1.38749Z" fill="#39934E"/>
<path d="M22.4062 4.23748C19.8187 5.56873 19.3875 9.07498 21.6187 10.7625C24.6 13.05 28.725 10.2187 27.6562 6.61873C27.3562 5.62498 26.325 4.48123 25.3875 4.12498C24.6562 3.84373 23.0437 3.89998 22.4062 4.23748ZM25.2562 5.73748C25.8187 6.09373 26.4375 7.08748 26.4375 7.64998C26.4375 8.94373 25.275 10.125 24 10.125C22.7062 10.125 21.5625 8.94373 21.5625 7.63123C21.5625 6.97498 22.3125 5.96248 23.0625 5.56873C23.775 5.19373 24.5437 5.24998 25.2562 5.73748Z" fill="#39934E"/>
<path d="M13.95 7.0125C13.8937 7.1625 13.875 7.44375 13.9125 7.63125C13.9687 7.93125 14.1937 7.96875 16.1062 7.96875C17.8875 7.96875 18.2812 7.9125 18.4312 7.65C18.5812 7.425 18.5625 7.25625 18.3937 7.05C18.0375 6.6375 14.1 6.6 13.95 7.0125Z" fill="#39934E"/>
<path d="M29.625 7.05C29.4375 7.25625 29.4188 7.425 29.5687 7.65C29.7187 7.9125 30.1125 7.96875 31.8937 7.96875H34.0312V7.40625V6.84375L31.95 6.7875C30.225 6.75 29.8312 6.7875 29.625 7.05Z" fill="#39934E"/>
<path d="M4.5375 9.46873C3.7125 10.1625 3.45 10.9125 3.73125 11.8125C3.99375 12.675 4.06875 12.7312 8.4375 15.5812L11.7 17.7187L14.7938 17.7562C16.4813 17.7937 17.8875 17.8312 17.9063 17.85C17.9438 17.8875 17.7938 24.1125 17.6063 31.6875C17.4 39.2625 17.2875 45.7312 17.3438 46.0687C17.475 46.8187 18.525 47.7562 19.425 47.925C20.325 48.0937 21.375 47.7562 22.0125 47.0812C22.5375 46.5375 22.5938 46.2937 23.175 42.15C23.5125 39.75 23.8125 37.5562 23.8125 37.2562C23.8125 36.975 23.8688 36.75 23.9625 36.75C24.0375 36.75 24.375 38.8875 24.7313 41.475C25.1063 44.4187 25.4625 46.4062 25.65 46.725C25.8 46.9875 26.2688 47.4 26.6813 47.625C27.9938 48.375 29.6438 47.9062 30.4313 46.5562C30.7313 46.0125 30.7313 45.4312 30.4875 34.8562C30.3188 28.725 30.15 22.4062 30.0938 20.775L29.9813 17.85L33.1313 17.775L36.3 17.7187L40.0312 15.2812C43.1625 13.2375 43.8375 12.7125 44.1375 12.1125C45.075 10.2187 42.9563 8.30624 41.025 9.29999C40.7063 9.46873 39.4688 10.2375 38.2688 11.0437L36.0938 12.4687L31.4625 12.5625L26.8125 12.6562L25.4625 14.0062L24.1125 15.3562L22.6313 14.0062L21.1313 12.6562L16.5188 12.5625L11.9063 12.4687L9.69375 11.025C8.49375 10.2187 7.25625 9.44999 6.9375 9.28123C6.1125 8.84999 5.175 8.92499 4.5375 9.46873ZM8.98125 12.2812L11.7563 14.0625H16.125H20.4938L21.9563 15.375C23.1188 16.425 23.5312 16.6875 24.0188 16.6875C24.5063 16.6875 24.9 16.425 26.0813 15.375L27.525 14.0625H31.875H36.2438L39.0375 12.2812C41.8125 10.5 42.2812 10.2937 42.7125 10.725C43.2938 11.3062 42.9375 11.6437 39.375 13.9687L35.8125 16.3125H32.3625C29.25 16.3125 28.875 16.35 28.725 16.6312C28.6313 16.8375 28.7063 22.8562 28.9125 31.3687C29.2688 45.0562 29.2688 45.8062 28.95 46.1437C28.6313 46.5 27.8813 46.6125 27.3 46.3875C26.8313 46.2187 26.7 45.45 25.6875 37.7812C25.1438 33.75 24.6188 30.3562 24.525 30.225C24.2812 29.925 23.7188 29.925 23.475 30.225C23.3813 30.3562 22.8563 33.7125 22.3313 37.6875C21.2063 46.0312 21.2438 45.8625 20.8688 46.2187C20.475 46.6125 19.4438 46.575 19.05 46.1437C18.7313 45.8062 18.7313 45.0375 19.0875 31.3687C19.3125 22.65 19.3875 16.8375 19.275 16.6312C19.125 16.35 18.75 16.3125 15.675 16.3125H12.225L8.7 14.0062C6.65625 12.6937 5.1375 11.5687 5.1 11.3812C5.00625 10.95 5.38125 10.5 5.85 10.5C6.0375 10.5 7.4625 11.3062 8.98125 12.2812Z" fill="#39934E"/>
<path d="M10.1813 23.6625C8.85 24.7875 7.6875 25.95 7.6875 26.175C7.6875 26.4562 8.19375 27 8.45625 27C8.55 27 8.94375 26.7 9.35625 26.3437C9.75 25.9875 10.125 25.6875 10.2 25.6875C10.2563 25.6875 10.3125 27.9187 10.3125 30.6562C10.3125 35.4 10.3313 35.625 10.6875 35.8125C10.9875 35.9625 11.1375 35.925 11.4375 35.625C11.8125 35.25 11.8313 35.0625 11.775 30.4687C11.7375 27.8437 11.775 25.6875 11.8313 25.6875C11.8875 25.6875 12.1313 25.9125 12.3938 26.175C12.6375 26.4375 12.9938 26.7375 13.1813 26.8312C13.5938 27.075 14.25 26.7187 14.25 26.2687C14.25 25.9312 11.4188 23.0625 11.0625 23.0625C10.9688 23.0625 10.575 23.325 10.1813 23.6625Z" fill="#39934E"/>
<path d="M35.25 24.4875C33.7125 25.95 33.4687 26.4562 34.1062 26.8125C34.6125 27.075 34.5937 27.075 35.4375 26.325L36.1875 25.65V30.525C36.1875 35.325 36.1875 35.4187 36.6 35.7C36.8812 35.9062 37.0875 35.925 37.35 35.7937C37.6687 35.625 37.6875 35.2875 37.6875 30.6562C37.6875 27.9187 37.7625 25.6875 37.8375 25.6875C37.9312 25.6875 38.1937 25.9125 38.4562 26.175C38.7 26.4375 39.0562 26.7375 39.225 26.8312C39.8625 27.1875 40.4812 26.5312 40.125 25.875C39.9 25.4437 37.1812 23.0625 36.9375 23.0625C36.825 23.0625 36.075 23.7 35.25 24.4875Z" fill="#39934E"/>
<path d="M1.98749 29.1187C0.787488 30.225 0.543738 30.5625 0.581238 30.9375C0.693738 31.7062 1.40624 31.65 2.26874 30.825L2.99999 30.1125L3.03749 35.1562C3.09374 39.6937 3.13124 40.2 3.43124 40.3875C3.65624 40.5375 3.84374 40.5375 4.08749 40.3875C4.36874 40.2 4.40624 39.6937 4.46249 35.1562L4.49999 30.1125L5.23124 30.825C6.09374 31.65 6.80624 31.7062 6.91874 30.9375C6.97499 30.5625 6.71249 30.225 5.51249 29.1187C4.68749 28.3687 3.89999 27.75 3.74999 27.75C3.59999 27.7687 2.81249 28.3687 1.98749 29.1187Z" fill="#39934E"/>
<path d="M42.4875 29.1187C41.2875 30.225 41.0437 30.5625 41.0812 30.9375C41.1937 31.7062 41.9062 31.65 42.7687 30.825L43.5 30.1125L43.5375 35.1562C43.5937 39.6937 43.6312 40.2 43.9312 40.3875C44.1562 40.5375 44.3437 40.5375 44.5875 40.3875C44.8687 40.2 44.9062 39.6937 44.9625 35.1562L45 30.1125L45.7312 30.825C46.5937 31.6687 47.3062 31.7062 47.4 30.9187C47.4562 30.525 47.1937 30.1875 45.975 29.1C45.15 28.35 44.3625 27.75 44.2312 27.75C44.0812 27.75 43.3125 28.3687 42.4875 29.1187Z" fill="#39934E"/>
</svg>
