<svg width="48" height="48" viewBox="0 0 48 48" fill="none" xmlns="http://www.w3.org/2000/svg">
<path d="M19.4531 0.0843735C19.35 0.131248 19.1813 0.262501 19.0781 0.375C18.9094 0.5625 18.8906 0.740623 18.8625 2.20312L18.8344 3.825L17.4563 4.275C16.65 4.5375 15.5156 5.00625 14.7281 5.40937L13.3688 6.08437L12.225 4.96875C11.1188 3.88125 11.0625 3.84375 10.6781 3.84375H10.275L7.14376 6.95625C5.41876 8.67188 3.95626 10.2 3.89064 10.35C3.68439 10.8281 3.86251 11.1187 5.01564 12.2812L6.09376 13.3594L5.49376 14.5312C4.87501 15.75 4.36876 17.0062 4.03126 18.1594L3.83439 18.8437H2.36251C0.750014 18.8437 0.356264 18.9469 0.121889 19.4062C0.028139 19.5844 0.00938896 20.6531 0.018764 24.1125L0.046889 28.5937L0.309389 28.8469L0.562514 29.1094L2.19376 29.1375L3.83439 29.175L4.03126 29.8406C4.45314 31.275 5.32501 33.3187 5.92501 34.2937L6.12189 34.6125L5.02501 35.7094C3.95626 36.7781 3.75001 37.1062 3.82501 37.5469C3.83439 37.65 5.27814 39.1781 7.01251 40.95L10.1719 44.1562H10.6219C11.0813 44.1562 11.0813 44.1562 12.2156 43.0406L13.3594 41.9156L14.7563 42.6094C15.5531 43.0125 16.7156 43.4906 17.4938 43.7437L18.8344 44.175L18.8625 45.8062L18.8906 47.4375L19.1531 47.6906L19.4063 47.9531H21.8906H24.375L24.6281 47.6906L24.8906 47.4375L24.9188 42.75L24.9469 38.0625H29.6063H34.2656L35.6438 40.5844L37.0313 43.1062L36.8344 43.5469C36.3 44.7656 36.6094 46.2 37.6219 47.1281C38.1563 47.6156 38.4469 47.7656 39.1688 47.9156C39.6375 48.0187 39.8625 48.0187 40.3313 47.9156C41.0531 47.7656 41.3438 47.6156 41.8781 47.1281C42.7219 46.35 43.0781 45.3 42.8531 44.2219C42.7125 43.5 42.4219 42.9937 41.8781 42.4969C41.3438 42.0094 41.0531 41.8594 40.3313 41.7094C39.8625 41.6156 39.6469 41.6156 39.1406 41.7094C38.8031 41.775 38.4938 41.8125 38.4656 41.775C38.4281 41.7469 37.7625 40.5469 36.975 39.1125C35.9344 37.2281 35.475 36.4687 35.2781 36.3562C35.0344 36.2062 34.6031 36.1875 29.9813 36.1875H24.9469L24.9188 34.7344C24.8906 33.3094 24.8906 33.2812 24.6375 33.0375C24.4219 32.8125 24.2906 32.775 23.4656 32.7094C19.6031 32.3812 16.5656 29.8781 15.5438 26.175C15.2531 25.1344 15.2531 22.8656 15.5438 21.825C16.3969 18.7219 18.7406 16.3875 21.8531 15.5438C22.8563 15.2719 24.8906 15.2531 25.9125 15.4969C28.5844 16.1625 30.7313 17.9062 31.9219 20.3906C32.1469 20.8687 32.4281 21.3281 32.55 21.4125C33.1219 21.8156 33.9375 21.3656 33.9375 20.6531C33.9375 20.0156 33.0469 18.375 31.9875 17.0719L31.6688 16.6875H35.8594C38.7375 16.6875 40.1063 16.6594 40.2469 16.5844C40.3594 16.5281 41.0906 15.8438 41.8781 15.0656L43.3031 13.65L43.7813 13.8187C44.4469 14.0625 45.5344 13.9969 46.1719 13.6875C46.7906 13.3875 47.4 12.7594 47.7 12.1125C48.0563 11.3438 48.0563 10.3031 47.6906 9.51562C46.7813 7.56562 44.2219 7.05 42.6656 8.5125C41.7656 9.36562 41.4188 10.65 41.7938 11.7656L41.9906 12.3281L40.7531 13.5656L39.5156 14.8125H34.3969H29.2781L28.4906 14.4469C27.5625 14.0062 26.3156 13.6312 25.5094 13.5375L24.9375 13.4719V12.6V11.7188H30.0375C34.9781 11.7188 35.1375 11.7094 35.3719 11.5312C35.4938 11.4281 36.2438 10.1812 37.0313 8.76562C37.8094 7.35 38.4938 6.1875 38.5594 6.1875C38.6156 6.1875 38.9063 6.23438 39.2063 6.3C39.6375 6.39375 39.8719 6.38437 40.3313 6.29062C41.0531 6.14062 41.3438 5.99062 41.8781 5.50312C42.7219 4.725 43.0781 3.675 42.8531 2.59687C42.7125 1.875 42.4219 1.36875 41.8781 0.871876C41.3438 0.384377 41.0531 0.234375 40.3313 0.0843735C39.8625 -0.0187492 39.6375 -0.0187492 39.1688 0.0843735C38.4469 0.234375 38.1563 0.384377 37.6219 0.871876C36.6094 1.8 36.3 3.23438 36.8344 4.45312L37.0313 4.89375L35.6625 7.36875L34.2938 9.84375H29.6156H24.9469L24.9188 5.20312L24.8906 0.5625L24.6281 0.309376L24.375 0.046875L22.0031 0.0281258C20.7094 0.0187492 19.5563 0.046875 19.4531 0.0843735ZM23.0438 7.65937L23.0156 13.4531L22.4531 13.5187C20.4188 13.7719 18.2344 14.8594 16.6031 16.4344C12.8344 20.0906 12.3469 26.0344 15.4688 30.2812C15.9844 30.975 17.1656 32.1469 17.8594 32.6437C19.0219 33.4687 20.6625 34.1625 22.0313 34.4062C22.3688 34.4625 22.7344 34.5281 22.8563 34.5562L23.0625 34.5937V40.3594V46.125H21.8906H20.7188V44.625V43.125L20.4656 42.8437C20.25 42.6094 20.0156 42.5062 19.1719 42.2812C17.3813 41.8125 15.8813 41.1844 14.1844 40.1812C13.0969 39.5437 13.0219 39.5719 11.6813 40.875L10.6313 41.8969L8.34376 39.6094L6.04689 37.3125L7.12501 36.2344C8.44689 34.9031 8.45626 34.8937 7.67814 33.5625C6.76876 32.0156 6.10314 30.3844 5.61564 28.5187C5.46564 27.9187 5.35314 27.6937 5.13751 27.5156C4.86564 27.2906 4.81876 27.2812 3.36564 27.2812H1.87501V24V20.7187H3.41251C4.92189 20.7187 4.95001 20.7187 5.18439 20.4844C5.34376 20.325 5.48439 19.9875 5.61564 19.4719C6.09376 17.6437 6.84376 15.8344 7.79064 14.2406C8.44689 13.1437 8.41876 13.0687 7.12501 11.7656L6.04689 10.6875L8.34376 8.39062L10.6406 6.09375L11.5781 7.02187C13.0406 8.46563 13.0688 8.475 14.2031 7.81875C16.0219 6.77813 17.3625 6.20625 19.1625 5.71875C20.2313 5.42812 20.475 5.31562 20.6156 4.99688C20.6719 4.86562 20.7188 4.15313 20.7188 3.32812V1.875H21.8906H23.0625L23.0438 7.65937ZM40.4156 2.09063C41.2594 2.65313 41.2406 3.7875 40.3781 4.3125C39.7875 4.67812 39.0094 4.45312 38.625 3.825C37.9406 2.70937 39.3281 1.35938 40.4156 2.09063ZM45.525 9.74062C45.8438 9.9375 46.125 10.4437 46.125 10.8281C46.125 11.2219 45.8531 11.7 45.5156 11.9062C45.1313 12.15 44.4844 12.15 44.1 11.9156C43.7813 11.7188 43.5 11.2125 43.5 10.8281C43.5 10.4437 43.7813 9.9375 44.1 9.74062C44.475 9.50625 45.15 9.50625 45.525 9.74062ZM40.4156 43.7156C41.2594 44.2781 41.2406 45.4125 40.3781 45.9375C39.7875 46.3031 39.0094 46.0781 38.625 45.45C37.9406 44.3344 39.3281 42.9844 40.4156 43.7156Z" fill="#39934E"/>
<path d="M18.4688 10.35C18.2906 10.4156 17.7844 10.65 17.3531 10.875C12.7313 13.1906 9.6094 17.9437 9.3094 23.0812C9.24377 24.2344 9.33752 24.5812 9.77815 24.8062C10.1344 24.9937 10.5938 24.9094 10.875 24.6094C11.0625 24.4031 11.1 24.2344 11.1656 23.3437C11.2688 22.0031 11.3813 21.3469 11.7281 20.2125C12.6 17.3625 14.4 14.9344 16.8281 13.3406C17.1844 13.0969 17.9719 12.6656 18.5719 12.3656C19.4531 11.925 19.6875 11.7656 19.7813 11.5406C20.1094 10.7437 19.3219 10.0219 18.4688 10.35Z" fill="#39934E"/>
<path d="M22.7344 17.0062C19.1625 17.6906 16.6969 20.8219 16.9031 24.4219C17.2125 29.8219 23.1094 32.8687 27.7688 30.0375C28.4906 29.5969 29.4656 28.6406 29.9531 27.8906C30.6563 26.8125 31.2469 24.7312 31.0875 23.8781C30.9469 23.1187 30.0375 22.8375 29.5406 23.4C29.325 23.6344 29.2688 23.8125 29.2219 24.3469C28.9594 27.15 26.7281 29.25 24 29.25C22.1063 29.25 20.2594 28.1344 19.3875 26.475C17.6063 23.0812 19.7906 19.1437 23.6531 18.7781C24.5156 18.7031 24.8906 18.4125 24.8906 17.8219C24.8906 17.0062 24.1688 16.7344 22.7344 17.0062Z" fill="#39934E"/>
<path d="M44.0625 20.9344C43.8281 21 43.4812 21.1312 43.2844 21.225C42.8437 21.4406 42.0469 22.3031 41.9062 22.725L41.8031 23.0531L40.2187 23.0812C38.7094 23.1094 38.6344 23.1187 38.4 23.3344C38.1094 23.6156 38.0062 24.0187 38.1562 24.3844C38.3625 24.8625 38.6344 24.9375 40.2844 24.9375H41.7656L41.9344 25.35C42.1594 25.9031 42.8719 26.6062 43.5 26.8969C44.2406 27.2437 45.3844 27.2437 46.125 26.8969C48.1781 25.9312 48.6094 23.2594 46.9594 21.6844C46.2656 21.0281 44.9437 20.6812 44.0625 20.9344ZM45.5531 22.9406C45.8625 23.1656 46.125 23.6812 46.125 24.0469C46.125 24.4219 45.825 24.8906 45.45 25.125C44.5781 25.65 43.425 24.9281 43.5281 23.9156C43.6312 22.9125 44.7656 22.3687 45.5531 22.9406Z" fill="#39934E"/>
<path d="M33.1313 23.2312C32.7188 23.5594 32.6156 24 32.85 24.4594C33.1969 25.1156 34.1344 25.0781 34.4625 24.3937C34.7625 23.7562 34.3313 23.0625 33.6375 23.0625C33.4688 23.0625 33.2344 23.1375 33.1313 23.2312Z" fill="#39934E"/>
<path d="M28.7625 31.4625C28.4438 31.6313 28.3125 31.8656 28.3125 32.2781C28.3125 32.9531 29.0063 33.3656 29.6063 33.0563C29.9531 32.8781 30.0938 32.6438 30.0938 32.25C30.0938 31.8563 29.9531 31.6219 29.625 31.4531C29.2875 31.275 29.0906 31.2844 28.7625 31.4625Z" fill="#39934E"/>
<path d="M32.6062 31.4625C32.2875 31.6312 32.1562 31.8656 32.1562 32.25C32.1562 32.6437 32.2969 32.8781 32.625 33.0469C32.85 33.1687 33.4406 33.1875 36.2062 33.1875H39.5156L40.7531 34.425L41.9906 35.6719L41.7937 36.2344C41.5312 37.0031 41.5969 37.7719 41.9906 38.5781C43.1625 40.9594 46.5656 40.9031 47.6906 38.4844C48.0562 37.6969 48.0562 36.6562 47.7 35.8875C47.4 35.2406 46.7906 34.6125 46.1719 34.3125C45.5344 34.0031 44.4469 33.9375 43.7812 34.1812L43.3031 34.35L41.8781 32.9344C41.0906 32.1562 40.3594 31.4719 40.2469 31.4156C40.1062 31.35 38.8969 31.3125 36.45 31.3125C33.4687 31.3219 32.8125 31.3406 32.6062 31.4625ZM45.5156 36.0937C45.6844 36.1969 45.8906 36.4312 45.975 36.6C46.5187 37.7437 45.3094 38.8969 44.175 38.3062C43.3406 37.875 43.2937 36.6094 44.0906 36.1031C44.4844 35.85 45.1219 35.85 45.5156 36.0937Z" fill="#39934E"/>
</svg>
