<svg width="44" height="44" viewBox="0 0 44 44" fill="none" xmlns="http://www.w3.org/2000/svg">
<path d="M22.0476 21.2667C21.2462 21.2631 20.4788 21.5888 19.9249 22.1676C19.3706 22.7461 19.0786 23.5269 19.1169 24.3274C19.1552 25.1275 19.5209 25.8769 20.1276 26.4H19.7999C19.022 26.4 18.2759 26.7091 17.7256 27.2591C17.1756 27.8094 16.8665 28.5555 16.8665 29.3333V35.2C16.8665 35.3945 16.9438 35.5811 17.0813 35.7186C17.2188 35.8561 17.4054 35.9333 17.5999 35.9333H19.0789V43.2667C19.0789 43.4611 19.1562 43.6477 19.2937 43.7852C19.4312 43.9227 19.6178 44 19.8123 44H24.2123C24.4067 44 24.5934 43.9227 24.7309 43.7852C24.8684 43.6477 24.9456 43.4611 24.9456 43.2667V35.9333H26.4123C26.6067 35.9333 26.7934 35.8561 26.9309 35.7186C27.0684 35.5811 27.1456 35.3945 27.1456 35.2V29.3333C27.1456 28.5555 26.8366 27.8094 26.2866 27.2591C25.7362 26.7091 24.9901 26.4 24.2123 26.4H23.9674C24.5744 25.8769 24.9398 25.1274 24.9781 24.3274C25.0164 23.527 24.7243 22.7462 24.1701 22.1676C23.6162 21.5888 22.8487 21.2631 22.0477 21.2667H22.0476ZM22.0476 22.7333C22.4366 22.7333 22.8094 22.8879 23.0844 23.1629C23.3598 23.4379 23.5143 23.8111 23.5143 24.2C23.5143 24.5889 23.3598 24.9622 23.0844 25.2372C22.8094 25.5122 22.4366 25.6667 22.0476 25.6667C21.6584 25.6667 21.2855 25.5122 21.0105 25.2372C20.7355 24.9622 20.581 24.5889 20.581 24.2C20.581 23.8111 20.7355 23.4379 21.0105 23.1629C21.2855 22.8879 21.6584 22.7333 22.0476 22.7333ZM24.2123 27.8667C24.6012 27.8667 24.9744 28.0212 25.2494 28.2962C25.5244 28.5712 25.6789 28.9444 25.6789 29.3333V34.4667H24.9456V30.0667H23.4789V42.5333H22.7456V34.4667H21.2789V42.5333H20.5456V30.1547H19.0789V34.4666H18.3332V29.3333C18.3332 28.9443 18.4877 28.5711 18.7627 28.2961C19.0377 28.0211 19.4109 27.8666 19.7998 27.8666L24.2123 27.8667Z" fill="#39934E"/>
<path d="M1.46653 19.0667H12.8965L15.6151 21.7853H15.6148C15.7523 21.9228 15.9389 22.0001 16.1333 22.0001C16.2296 22.0004 16.3252 21.9814 16.4142 21.9444C16.6882 21.8308 16.8667 21.5633 16.8667 21.2667V19.0667H18.3333C18.7223 19.0667 19.0955 18.9122 19.3705 18.6372C19.6455 18.3622 19.8 17.989 19.8 17.6001V4.40009C19.8 4.01116 19.6455 3.63794 19.3705 3.36295C19.0955 3.08795 18.7223 2.93342 18.3333 2.93342H1.46667C1.07774 2.93342 0.70452 3.08795 0.429524 3.36295C0.154528 3.63794 0 4.01116 0 4.40009V17.6001C0 17.989 0.154528 18.3622 0.429524 18.6372C0.70452 18.9122 1.07774 19.0667 1.46667 19.0667L1.46653 19.0667ZM1.46653 4.40004H18.3332V17.6H16.1332C15.7282 17.6 15.3999 17.9284 15.3999 18.3334V19.4966L13.7185 17.8152V17.8148C13.581 17.6773 13.3944 17.6001 13.1999 17.6001H1.46658L1.46653 4.40004Z" fill="#39934E"/>
<path d="M42.5332 4.52386e-05H25.6665C25.2776 4.52386e-05 24.9044 0.154573 24.6294 0.429569C24.3544 0.704564 24.1999 1.07778 24.1999 1.46671V14.6667C24.1999 15.0556 24.3544 15.4288 24.6294 15.7038C24.9044 15.9788 25.2776 16.1334 25.6665 16.1334H27.1332V18.3334C27.1332 18.63 27.3116 18.8974 27.5856 19.011C27.6747 19.048 27.7703 19.067 27.8665 19.0667C28.061 19.0667 28.2476 18.9894 28.3851 18.8519L31.1034 16.1333H42.5333C42.9223 16.1333 43.2955 15.9788 43.5705 15.7038C43.8455 15.4288 44 15.0556 44 14.6667V1.46666C44 1.07774 43.8455 0.704519 43.5705 0.429523C43.2955 0.154528 42.9223 0 42.5333 0L42.5332 4.52386e-05ZM42.5332 14.6667H30.7999C30.6054 14.6667 30.4188 14.744 30.2813 14.8815L28.5999 16.5632V15.4C28.5999 15.2055 28.5226 15.0189 28.3851 14.8814C28.2476 14.7439 28.061 14.6667 27.8666 14.6667H25.6666V1.46667H42.5332L42.5332 14.6667Z" fill="#39934E"/>
<path d="M11.8606 8.00636C12.205 7.62005 12.684 7.37943 13.1996 7.33327V5.86661C12.0806 5.94551 11.053 6.51285 10.3903 7.41842C8.9338 7.12149 7.42557 7.57589 6.37535 8.62813C5.32547 9.68002 4.87399 11.1893 5.17352 12.6451C5.47306 14.101 6.48371 15.3093 7.86364 15.8613C9.2439 16.4133 10.8091 16.2355 12.0299 15.3879C13.251 14.54 13.9647 13.1359 13.9297 11.6498C13.895 10.1639 13.1161 8.79479 11.8571 8.00514L11.8606 8.00636ZM9.53296 14.6666C8.49615 14.6702 7.53494 14.1258 7.00493 13.2346C6.4749 12.3438 6.45558 11.239 6.95385 10.3298C7.45245 9.42065 8.39404 8.84287 9.43017 8.8101C9.21279 9.19248 9.01932 9.58795 8.8517 9.99457L10.2136 10.5393C10.4136 10.0637 10.6543 9.60628 10.9329 9.1719C11.7029 9.58767 12.2456 10.3265 12.4129 11.1853C12.5799 12.044 12.3537 12.9325 11.7958 13.6069C11.2383 14.281 10.408 14.67 9.53296 14.6667L9.53296 14.6666Z" fill="#39934E"/>
<path d="M30.7999 12.4667H38.1332C38.3277 12.4667 38.5143 12.3894 38.6518 12.2519C38.7893 12.1144 38.8665 11.9278 38.8665 11.7334V4.40004C38.8665 4.20558 38.7893 4.01897 38.6518 3.88147C38.5143 3.74397 38.3277 3.66671 38.1332 3.66671H30.7999C30.3949 3.66671 30.0665 3.99508 30.0665 4.40004V11.7334C30.0665 11.9278 30.1438 12.1144 30.2813 12.2519C30.4188 12.3894 30.6054 12.4667 30.7999 12.4667ZM31.5332 5.13338H33.7332V6.60004H35.1999V5.13338H37.3999V11H31.5332V5.13338Z" fill="#39934E"/>
</svg>
