<svg width="43" height="45" viewBox="0 0 43 45" fill="none" xmlns="http://www.w3.org/2000/svg">
<path d="M14.8159 17.6581C15.5424 20.2704 17.692 22.9308 19.7646 22.9308C19.8989 22.9308 20.0322 22.9196 20.1649 22.8966C20.5643 22.8274 20.8516 22.6655 21.0608 22.5476C21.2741 22.4274 21.3556 22.3801 21.5497 22.3885C21.7709 22.3951 21.8672 22.4505 22.0583 22.5609C22.2897 22.6948 22.6066 22.8774 23.0796 22.908C25.344 23.0684 27.1583 18.9312 27.4299 17.602C27.5443 17.0409 27.6665 16.3905 27.6665 15.7775C27.6665 13.8603 26.4081 11.4106 24.3745 10.7963C23.7122 10.5958 22.6829 10.7648 21.9152 10.9905C21.9259 10.7524 21.9413 10.5273 21.9627 10.3206C22.8586 10.2453 23.594 9.93231 24.1569 9.38657C25.2696 8.30806 25.2134 6.78001 25.2027 6.6089C25.1805 6.23254 24.923 5.91828 24.5728 5.81277C24.3375 5.73874 23.1353 5.42171 21.9804 6.24857C21.397 6.6666 20.9498 7.29346 20.6411 8.1242C19.9832 7.50588 19.1641 7.30052 18.4242 7.2744C17.9277 7.24915 17.5239 7.63963 17.507 8.12912C17.4897 8.61844 17.8722 9.02898 18.3617 9.0463C19.3752 9.08223 19.8934 9.65222 20.0684 10.9746C19.3489 10.7981 18.4632 10.6896 17.8842 10.7667C15.8459 11.0384 14.4349 13.6278 14.4433 15.7811C14.4455 16.4172 14.5873 16.8894 14.724 17.3455C14.7548 17.4464 14.7859 17.5501 14.816 17.6582L14.8159 17.6581ZM22.9944 7.70308C23.091 7.63165 23.189 7.58028 23.2847 7.54392C23.2081 7.74609 23.091 7.95171 22.9145 8.12069C22.7847 8.24435 22.6277 8.34233 22.4432 8.4142C22.6313 8.03614 22.8343 7.82239 22.9943 7.70307L22.9944 7.70308ZM18.1184 12.5236C18.1827 12.5152 18.2563 12.5112 18.3365 12.5112C18.9381 12.5112 19.9244 12.7288 20.1597 12.8548C20.7147 13.1784 21.4054 13.1784 21.9595 12.8548C22.2764 12.6729 23.5181 12.3903 23.8621 12.4934C25.0245 12.8445 25.8933 14.5167 25.8933 15.7773C25.8933 16.2251 25.7896 16.7707 25.692 17.2469C25.364 18.8556 23.781 21.1686 23.1935 21.1376C23.143 21.1344 23.1058 21.1173 22.9439 21.0242C22.6752 20.8691 22.2696 20.635 21.6012 20.6155C20.9185 20.5965 20.4779 20.8404 20.1902 21.0026C20.035 21.0899 19.957 21.1324 19.863 21.1489C18.9401 21.3085 17.1452 19.4155 16.5246 17.1828C16.4914 17.0626 16.4568 16.9479 16.4231 16.8354C16.3087 16.4541 16.2188 16.1527 16.2171 15.7737C16.21 14.1891 17.2748 12.6363 18.1184 12.5236L18.1184 12.5236Z" fill="#39934E"/>
<path d="M41.3916 32.1603C41.5667 31.6301 41.67 31.0724 41.67 30.4966V13.8408C41.67 11.8992 40.6122 10.1123 38.9105 9.17727L23.3947 0.659656C21.7922 -0.219885 19.878 -0.219885 18.2749 0.659656L2.7595 9.17764C1.0573 10.1121 0 11.899 0 13.8408V30.4962C0 32.4383 1.0573 34.2248 2.7595 35.1594L18.2749 43.677C19.0764 44.1171 19.9559 44.337 20.835 44.337C21.7141 44.337 22.5936 44.1171 23.3951 43.677L28.9762 40.6129C30.2884 42.8354 32.7018 44.3336 35.4639 44.3336C39.6191 44.3336 43 40.9526 43 36.7975C43 35.0483 42.3958 33.4409 41.3918 32.1603H41.3916ZM17.5311 41.2457L16.164 40.4952V36.7415C16.164 36.6577 16.2322 36.589 16.3165 36.589H17.3787C17.4625 36.589 17.5312 36.6573 17.5312 36.7415L17.5311 41.2457ZM25.506 39.2332V40.4953L24.1389 41.2458V36.7917C24.1389 36.7079 24.2072 36.6392 24.2914 36.6392H25.3536C25.4375 36.6392 25.5062 36.7075 25.5062 36.7917L25.506 39.2332ZM27.9277 36.7977C27.9277 37.5588 28.0435 38.2933 28.2544 38.9867L27.2793 39.5222V36.7923C27.2793 35.7301 26.4157 34.8666 25.3535 34.8666H24.2913C23.2291 34.8666 22.3656 35.7301 22.3656 36.7923V42.2058C21.393 42.673 20.2768 42.673 19.3042 42.2058V36.7421C19.3042 35.6799 18.4402 34.8164 17.3785 34.8164H16.3163C15.2546 34.8164 14.3905 35.6799 14.3905 36.7421V39.5221L11.7581 38.0769L11.7584 32.7909H29.0925C28.3589 33.9533 27.9276 35.3245 27.9276 36.7976L27.9277 36.7977ZM9.83265 30.9952V28.3474H31.8376V30.1951C31.42 30.4251 31.0259 30.693 30.6616 30.9952H9.83265ZM39.6308 37.4216L36.2002 40.8522C36.1717 40.8927 36.1416 40.9321 36.1054 40.968C35.932 41.1413 35.7055 41.2277 35.4785 41.2277C35.4749 41.2277 35.4714 41.2269 35.4678 41.2269C35.4642 41.2269 35.4607 41.2277 35.4571 41.2277C35.3991 41.2277 35.341 41.2215 35.2834 41.2104C35.2568 41.2051 35.2325 41.1954 35.2068 41.1878C35.1771 41.1789 35.1469 41.1722 35.1182 41.1603C35.0876 41.1479 35.0602 41.1306 35.0313 41.1147C35.0095 41.1028 34.9866 41.0929 34.9656 41.0788C34.873 41.0168 34.7932 40.9378 34.7299 40.8465L31.3054 37.422C30.9592 37.0758 30.9592 36.5147 31.3054 36.1683C31.6516 35.8221 32.2128 35.8221 32.5591 36.1683L34.5709 38.18L34.5706 33.2483C34.5706 32.759 34.9678 32.3617 35.4572 32.3617C35.9465 32.3617 36.3438 32.759 36.3438 33.2483V38.2007L38.3767 36.1678C38.7229 35.8216 39.284 35.8216 39.6304 36.1678C39.9766 36.514 39.9775 37.0751 39.6308 37.4214L39.6308 37.4216ZM39.8968 30.4965C39.8968 30.5675 39.8865 30.6362 39.8826 30.7062C38.6396 29.8019 37.115 29.2615 35.4637 29.2615C34.8231 29.2615 34.2048 29.3505 33.6102 29.5017V27.4613C33.6102 26.972 33.213 26.5747 32.7236 26.5747H8.94585C8.45652 26.5747 8.05925 26.972 8.05925 27.4613V31.8825C8.05925 32.3718 8.45652 32.7691 8.94585 32.7691H9.98498V37.1041L3.61256 33.6057C2.4776 32.9827 1.77283 31.7917 1.77283 30.4968V13.841C1.77283 12.5466 2.4776 11.3554 3.61256 10.7321L19.128 2.21451C19.6622 1.92144 20.2487 1.77484 20.8347 1.77484C21.4207 1.77484 22.0071 1.92159 22.5413 2.21496L38.0568 10.7326C39.1917 11.3555 39.8965 12.5466 39.8965 13.841L39.8968 30.4965Z" fill="#39934E"/>
</svg>
