<svg width="37" height="37" viewBox="0 0 37 37" fill="none" xmlns="http://www.w3.org/2000/svg">
<path d="M19.2169 12.0151V15.0151H20.4169V12.6151H22.2169C22.4595 12.6151 22.6781 12.4689 22.7711 12.2447C22.864 12.0205 22.8126 11.7625 22.6411 11.5908L18.4411 7.39084C18.2068 7.15673 17.8269 7.15673 17.5926 7.39084L13.3926 11.5908C13.2211 11.7625 13.1697 12.0205 13.2627 12.2447C13.3556 12.4689 13.5742 12.6151 13.8169 12.6151H15.6169V15.0151H16.8169V12.0151C16.8169 11.856 16.7536 11.7033 16.6411 11.5908C16.5286 11.4783 16.376 11.4151 16.2169 11.4151H15.2652L18.0169 8.66342L20.7686 11.4151H19.8169C19.4855 11.4151 19.2169 11.6838 19.2169 12.0151Z" fill="#39934E"/>
<path d="M35.4169 32.4151H31.8169V29.9736C33.0878 29.8124 34.2415 29.1497 35.0212 28.1332C35.8009 27.1167 36.1419 25.8307 35.9683 24.5616C35.7947 23.2922 35.1208 22.145 34.0968 21.3751C34.6344 20.6584 34.8854 19.7669 34.8007 18.8749C34.7161 17.9832 34.302 17.1548 33.6393 16.5521C32.9763 15.9491 32.1127 15.6151 31.2168 15.6151C30.3208 15.6151 29.4572 15.9491 28.7943 16.5521C28.1316 17.1548 27.7175 17.9832 27.6328 18.8749C27.5482 19.7669 27.7992 20.6584 28.3368 21.3751C28.1418 21.5211 27.958 21.6816 27.7871 21.8551L28.644 22.6951C28.9073 22.4265 29.2111 22.2001 29.544 22.025C29.7197 21.9323 29.8381 21.759 29.8606 21.5616C29.8829 21.3642 29.8062 21.1686 29.6557 21.0392C29.1553 20.6115 28.8529 19.997 28.8189 19.3397C28.7846 18.6826 29.022 18.0401 29.4752 17.5627C29.9281 17.0857 30.5576 16.8154 31.2157 16.8154C31.8736 16.8154 32.503 17.0857 32.956 17.5627C33.4092 18.0401 33.6465 18.6826 33.6123 19.3397C33.5782 19.997 33.2758 20.6115 32.7757 21.0392C32.6247 21.1686 32.5478 21.3644 32.5703 21.5618C32.5925 21.7595 32.7112 21.9331 32.8872 22.0255C33.7813 22.4956 34.437 23.3195 34.6939 24.2964C34.951 25.2732 34.7858 26.3131 34.2385 27.1622C33.6913 28.0113 32.8127 28.5915 31.8169 28.761V27.261L33.4412 25.6367L32.5929 24.7884L31.8169 25.5668V18.615H30.6169V23.7667L29.8413 22.991L28.993 23.8393L30.617 25.4634V28.7586C29.664 28.5995 28.8149 28.064 28.261 27.2725L27.2768 27.9577C28.0539 29.0733 29.2678 29.8073 30.617 29.9768V32.4151H25.817V26.9299C26.2314 26.826 26.6101 26.6125 26.9131 26.3112C26.9444 26.2823 26.9733 26.2509 27.0001 26.2177C27.3976 25.7787 27.6175 25.2074 27.617 24.6151V22.2151C27.6167 22.1506 27.6063 22.0866 27.5859 22.0255L25.7859 16.6255C25.7042 16.3807 25.4752 16.2154 25.217 16.2151H10.817C10.5588 16.2154 10.3297 16.3807 10.248 16.6255L8.44805 22.0255C8.42769 22.0866 8.41725 22.1506 8.41698 22.2151V24.6151C8.41564 25.2036 8.63287 25.7717 9.02662 26.2094C9.34108 26.5651 9.75629 26.8169 10.217 26.931V32.4151H5.41695V29.9768C6.76616 29.8072 7.98008 29.0733 8.75713 27.9577L7.773 27.2725C7.21907 28.064 6.36996 28.5995 5.41695 28.7586V25.4634L7.04127 23.8391L6.19297 22.9908L5.41702 23.7667V18.615H4.21702V25.5668L3.44134 24.7909L2.59277 25.6394L4.21709 27.2635V28.7635C3.22068 28.5945 2.34132 28.0145 1.79377 27.1651C1.246 26.3157 1.08077 25.2752 1.33788 24.298C1.59503 23.3206 2.25126 22.4965 3.14618 22.0269C3.3219 21.9342 3.44056 21.7604 3.46279 21.563C3.48502 21.3655 3.40788 21.1697 3.25707 21.0404C2.75698 20.6126 2.45431 19.9981 2.4203 19.3411C2.38628 18.6838 2.62333 18.0415 3.07655 17.5641C3.52976 17.0868 4.15895 16.8166 4.81709 16.8166C5.47524 16.8166 6.10439 17.0868 6.55764 17.5641C7.01086 18.0415 7.24788 18.6838 7.21389 19.3411C7.17988 19.9981 6.87719 20.6126 6.37712 21.0404C6.22658 21.1697 6.14971 21.3655 6.1722 21.5627C6.19444 21.7601 6.3131 21.9337 6.48881 22.0261C6.82176 22.2015 7.12524 22.4276 7.38881 22.6963L8.24568 21.8563H8.24541C8.07452 21.683 7.89077 21.5225 7.69604 21.3763C8.23336 20.6597 8.48434 19.7683 8.39972 18.8763C8.31507 17.9844 7.90097 17.1562 7.23826 16.5532C6.57557 15.9505 5.71172 15.6163 4.81604 15.6163C3.92008 15.6163 3.05622 15.9505 2.39355 16.5532C1.73087 17.1562 1.31677 17.9844 1.23208 18.8763C1.14744 19.7683 1.39842 20.6597 1.93604 21.3763C0.912267 22.1463 0.23917 23.2936 0.0658903 24.5627C-0.10741 25.8318 0.233835 27.1175 1.01327 28.1338C1.793 29.15 2.94637 29.8124 4.21714 29.9737V32.4152H0.617136C0.285798 32.4152 0.0171356 32.6838 0.0171356 33.0152V35.4152C0.0171356 35.5743 0.0803503 35.7269 0.19285 35.8394C0.30535 35.9519 0.458029 36.0152 0.617136 36.0152H35.4171C35.5762 36.0152 35.7289 35.9519 35.8414 35.8394C35.9539 35.7269 36.0171 35.5743 36.0171 35.4152V33.0152C36.0171 32.8561 35.9539 32.7034 35.8414 32.5909C35.7289 32.4784 35.5762 32.4152 35.4171 32.4152L35.4169 32.4151ZM26.4168 24.6151C26.4171 24.9098 26.3078 25.194 26.1102 25.4125C26.0986 25.4257 26.0753 25.4492 26.0646 25.4629C25.8284 25.689 25.5112 25.8108 25.1842 25.8015C24.8571 25.7921 24.5475 25.652 24.3246 25.4125C24.1267 25.1942 24.0168 24.91 24.0168 24.6151V23.4151H26.4168L26.4168 24.6151ZM14.1988 17.4151H15.9388L15.6508 22.2151H13.3371L13.4097 21.8125L14.1988 17.4151ZM22.6269 21.8125L22.6971 22.2151H20.3822L20.0943 17.4151H21.8343L22.6269 21.8125ZM19.1798 22.2151H16.8543L17.1417 17.4151H18.8924L19.1798 22.2151ZM13.2171 23.4151H15.6171V24.6151C15.6173 24.9098 15.508 25.194 15.3104 25.4126C15.2988 25.4257 15.2755 25.4493 15.2648 25.4629C15.0286 25.689 14.7114 25.8109 14.3844 25.8015C14.0573 25.7921 13.7477 25.652 13.5248 25.4126C13.3269 25.1942 13.2171 24.9101 13.2171 24.6151L13.2171 23.4151ZM16.8171 23.4151H19.2171V24.6151C19.2173 24.9098 19.108 25.194 18.9104 25.4126C18.8988 25.4257 18.8755 25.4493 18.8648 25.4629C18.6286 25.689 18.3114 25.8109 17.9844 25.8015C17.6573 25.7921 17.3477 25.652 17.1248 25.4126C16.9269 25.1942 16.8171 24.9101 16.8171 24.6151L16.8171 23.4151ZM20.4171 23.4151H22.8171V24.6151C22.8173 24.9098 22.708 25.194 22.5104 25.4126C22.4988 25.4257 22.4755 25.4493 22.4648 25.4629C22.2286 25.689 21.9114 25.8109 21.5844 25.8015C21.2573 25.7921 20.9477 25.652 20.7248 25.4126C20.5269 25.1942 20.4171 24.9101 20.4171 24.6151L20.4171 23.4151ZM24.7844 17.4151L26.3846 22.2151H23.9187L23.1272 17.8177L23.057 17.4151L24.7844 17.4151ZM11.2498 17.4151H12.9772L12.9046 17.8177L12.1155 22.2151H9.64959L11.2498 17.4151ZM9.61719 24.6151V23.4151H12.0172V24.6151C12.0175 24.9098 11.9082 25.194 11.7105 25.4126C11.699 25.4257 11.6757 25.4493 11.665 25.4629C11.4287 25.689 11.1116 25.8109 10.7845 25.8015C10.4574 25.7921 10.1478 25.652 9.92496 25.4126C9.72701 25.1942 9.61719 24.9101 9.61719 24.6151H9.61719ZM11.4172 26.93C11.7764 26.8368 12.1088 26.6605 12.3873 26.4151H12.8499C13.2812 26.8014 13.8397 27.0151 14.4188 27.0151C14.9976 27.0151 15.5561 26.8014 15.9873 26.4151H16.4499C16.8812 26.8014 17.4397 27.0151 18.0188 27.0151C18.5976 27.0151 19.1561 26.8014 19.5874 26.4151H20.0499C20.4812 26.8014 21.0397 27.0151 21.6188 27.0151C22.1976 27.0151 22.7561 26.8014 23.1874 26.4151H23.65C23.9269 26.6613 24.2585 26.8381 24.6172 26.931V32.4152H11.4172L11.4172 26.93ZM34.8172 34.815H1.21719V33.615H34.8172V34.815Z" fill="#39934E"/>
<path d="M10.8168 15.0151H12.0168V13.8151H10.8168C9.74515 13.8151 8.75463 13.2433 8.21888 12.3151C7.6829 11.387 7.6829 10.2432 8.21888 9.31512C8.7546 8.38701 9.74515 7.81512 10.8168 7.81512C10.9893 7.81352 11.1618 7.82959 11.3311 7.86307C11.5194 7.90298 11.7155 7.84968 11.8583 7.72004C12.0008 7.59066 12.0726 7.40048 12.0511 7.20924C11.8532 5.39394 12.5858 3.60176 13.9984 2.4451C15.4113 1.2885 17.3129 0.924184 19.0532 1.4768C20.7934 2.02912 22.1368 3.42389 22.6237 5.18343C22.6665 5.34013 22.771 5.47272 22.9132 5.55093C23.0555 5.62914 23.2231 5.64629 23.3785 5.59861C24.5464 5.24156 25.812 5.41057 26.8454 6.06173C27.8788 6.71263 28.5777 7.78137 28.7598 8.98912C28.9417 10.1969 28.5889 11.4242 27.7933 12.3507C26.9978 13.2775 25.8382 13.8121 24.6168 13.815H23.4168V15.015H24.6168C26.1361 15.0126 27.5841 14.37 28.6055 13.2451C29.6271 12.1204 30.1272 10.6171 29.9837 9.1048C29.8401 7.59218 29.066 6.21005 27.8509 5.29751C26.6362 4.38489 25.0931 4.02653 23.6003 4.30994C22.8736 2.36183 21.2713 0.870397 19.2763 0.284591C17.2816 -0.301215 15.1272 0.0871809 13.4625 1.33298C11.7978 2.57851 10.8174 4.53602 10.8168 6.61511C9.31629 6.61511 7.92985 7.41575 7.17961 8.71511C6.42937 10.0145 6.42937 11.6157 7.17961 12.9151C7.92985 14.2145 9.31629 15.0151 10.8168 15.0151L10.8168 15.0151Z" fill="#39934E"/>
<path d="M22.2169 30.0151H13.8169V27.6151H12.6169V30.6151C12.6169 30.7742 12.6801 30.9269 12.7926 31.0394C12.9051 31.1519 13.0577 31.2151 13.2169 31.2151H22.8169C22.976 31.2151 23.1286 31.1519 23.2411 31.0394C23.3536 30.9269 23.4169 30.7742 23.4169 30.6151V27.6151H22.2169V30.0151Z" fill="#39934E"/>
</svg>
