<svg width="60" height="68" viewBox="0 0 60 68" fill="none" xmlns="http://www.w3.org/2000/svg">
<path d="M11.4372 23.8367C11.4363 27.0073 12.2713 30.1031 13.8588 32.8318L11.2854 42.155L20.901 39.6533C23.5606 41.0899 26.5404 41.8427 29.5685 41.8429H29.5765C39.5729 41.8429 47.7102 33.7716 47.7144 23.8509C47.7164 19.0437 45.8313 14.5232 42.4065 11.1223C38.9822 7.72168 34.4281 5.8479 29.5758 5.8457C19.5782 5.8457 11.4415 13.9165 11.4374 23.8367" fill="url(#paint0_linear_1581_2191)"/>
<path d="M10.7897 23.8307C10.7887 27.1153 11.6535 30.3219 13.2977 33.1483L10.632 42.8057L20.5924 40.2143C23.3368 41.699 26.4267 42.4818 29.5709 42.483H29.579C39.934 42.483 48.3636 34.1214 48.368 23.8456C48.3698 18.8656 46.417 14.1827 42.8698 10.6599C39.3221 7.1376 34.6051 5.19638 29.579 5.19434C19.2222 5.19434 10.794 13.5548 10.7898 23.8307H10.7897ZM16.7213 32.6615L16.3494 32.0757C14.786 29.6091 13.9608 26.7588 13.962 23.8319C13.9654 15.2908 20.9708 8.34194 29.5849 8.34194C33.7565 8.34369 37.6769 9.95727 40.6257 12.8849C43.5742 15.8128 45.1967 19.7049 45.1957 23.8444C45.1919 32.3855 38.1864 39.3353 29.579 39.3353H29.5728C26.7702 39.3338 24.0215 38.587 21.6244 37.1757L21.0539 36.84L15.1432 38.3777L16.7213 32.6614V32.6615Z" fill="url(#paint1_linear_1581_2191)"/>
<path d="M24.883 16.0394C24.5312 15.2637 24.1611 15.2481 23.8266 15.2345C23.5528 15.2228 23.2397 15.2236 22.9269 15.2236C22.6138 15.2236 22.1051 15.3405 21.6751 15.8064C21.2447 16.2727 20.0318 17.3995 20.0318 19.6913C20.0318 21.9832 21.7142 24.1981 21.9487 24.5092C22.1835 24.8197 25.1965 29.6734 29.9683 31.5406C33.9342 33.0923 34.7412 32.7837 35.6019 32.7058C36.4628 32.6283 38.3796 31.5793 38.7707 30.4916C39.1621 29.4039 39.1621 28.4716 39.0447 28.2768C38.9274 28.0827 38.6143 27.9662 38.1448 27.7333C37.6752 27.5003 35.3671 26.3733 34.9368 26.2179C34.5064 26.0625 34.1934 25.985 33.8804 26.4515C33.5673 26.9172 32.6682 27.9662 32.3942 28.2768C32.1205 28.5882 31.8464 28.627 31.3771 28.394C30.9073 28.1602 29.3954 27.6689 27.6016 26.0821C26.2059 24.8474 25.2637 23.3226 24.9898 22.8561C24.7159 22.3904 24.9605 22.138 25.1959 21.9059C25.4068 21.6971 25.6655 21.3619 25.9005 21.09C26.1346 20.8179 26.2127 20.6239 26.3693 20.3132C26.5259 20.0022 26.4475 19.7302 26.3303 19.4972C26.2127 19.2642 25.3004 16.9605 24.883 16.0395" fill="white"/>
<path d="M13.5046 57.03L11.4846 64H10.4646L8.84461 58.39L7.16461 64L6.15461 64.01L4.20461 57.03H5.17461L6.69461 62.94L8.37461 57.03H9.39461L10.9946 62.92L12.5246 57.03H13.5046ZM17.2205 58.42C17.6338 58.42 18.0071 58.51 18.3405 58.69C18.6738 58.8633 18.9338 59.1267 19.1205 59.48C19.3138 59.8333 19.4105 60.2633 19.4105 60.77V64H18.5105V60.9C18.5105 60.3533 18.3738 59.9367 18.1005 59.65C17.8271 59.3567 17.4538 59.21 16.9805 59.21C16.5005 59.21 16.1171 59.36 15.8305 59.66C15.5505 59.96 15.4105 60.3967 15.4105 60.97V64H14.5005V56.6H15.4105V59.3C15.5905 59.02 15.8371 58.8033 16.1505 58.65C16.4705 58.4967 16.8271 58.42 17.2205 58.42ZM20.557 61.24C20.557 60.68 20.6703 60.19 20.897 59.77C21.1236 59.3433 21.4336 59.0133 21.827 58.78C22.227 58.5467 22.6703 58.43 23.157 58.43C23.637 58.43 24.0536 58.5333 24.407 58.74C24.7603 58.9467 25.0236 59.2067 25.197 59.52V58.52H26.117V64H25.197V62.98C25.017 63.3 24.747 63.5667 24.387 63.78C24.0336 63.9867 23.6203 64.09 23.147 64.09C22.6603 64.09 22.2203 63.97 21.827 63.73C21.4336 63.49 21.1236 63.1533 20.897 62.72C20.6703 62.2867 20.557 61.7933 20.557 61.24ZM25.197 61.25C25.197 60.8367 25.1136 60.4767 24.947 60.17C24.7803 59.8633 24.5536 59.63 24.267 59.47C23.987 59.3033 23.677 59.22 23.337 59.22C22.997 59.22 22.687 59.3 22.407 59.46C22.127 59.62 21.9036 59.8533 21.737 60.16C21.5703 60.4667 21.487 60.8267 21.487 61.24C21.487 61.66 21.5703 62.0267 21.737 62.34C21.9036 62.6467 22.127 62.8833 22.407 63.05C22.687 63.21 22.997 63.29 23.337 63.29C23.677 63.29 23.987 63.21 24.267 63.05C24.5536 62.8833 24.7803 62.6467 24.947 62.34C25.1136 62.0267 25.197 61.6633 25.197 61.25ZM28.7648 59.27V62.5C28.7648 62.7667 28.8214 62.9567 28.9348 63.07C29.0481 63.1767 29.2448 63.23 29.5248 63.23H30.1948V64H29.3748C28.8681 64 28.4881 63.8833 28.2348 63.65C27.9814 63.4167 27.8548 63.0333 27.8548 62.5V59.27H27.1448V58.52H27.8548V57.14H28.7648V58.52H30.1948V59.27H28.7648ZM33.2373 64.09C32.8173 64.09 32.4407 64.02 32.1073 63.88C31.774 63.7333 31.5107 63.5333 31.3173 63.28C31.124 63.02 31.0173 62.7233 30.9973 62.39H31.9373C31.964 62.6633 32.0907 62.8867 32.3173 63.06C32.5507 63.2333 32.854 63.32 33.2273 63.32C33.574 63.32 33.8473 63.2433 34.0473 63.09C34.2473 62.9367 34.3473 62.7433 34.3473 62.51C34.3473 62.27 34.2407 62.0933 34.0273 61.98C33.814 61.86 33.484 61.7433 33.0373 61.63C32.6307 61.5233 32.2973 61.4167 32.0373 61.31C31.784 61.1967 31.564 61.0333 31.3773 60.82C31.1973 60.6 31.1073 60.3133 31.1073 59.96C31.1073 59.68 31.1907 59.4233 31.3573 59.19C31.524 58.9567 31.7607 58.7733 32.0673 58.64C32.374 58.5 32.724 58.43 33.1173 58.43C33.724 58.43 34.214 58.5833 34.5873 58.89C34.9607 59.1967 35.1607 59.6167 35.1873 60.15H34.2773C34.2573 59.8633 34.1407 59.6333 33.9273 59.46C33.7207 59.2867 33.4407 59.2 33.0873 59.2C32.7607 59.2 32.5007 59.27 32.3073 59.41C32.114 59.55 32.0173 59.7333 32.0173 59.96C32.0173 60.14 32.074 60.29 32.1873 60.41C32.3073 60.5233 32.454 60.6167 32.6273 60.69C32.8073 60.7567 33.054 60.8333 33.3673 60.92C33.7607 61.0267 34.0807 61.1333 34.3273 61.24C34.574 61.34 34.784 61.4933 34.9573 61.7C35.1373 61.9067 35.2307 62.1767 35.2373 62.51C35.2373 62.81 35.154 63.08 34.9873 63.32C34.8207 63.56 34.584 63.75 34.2773 63.89C33.9773 64.0233 33.6307 64.09 33.2373 64.09ZM36.182 61.24C36.182 60.68 36.2953 60.19 36.522 59.77C36.7486 59.3433 37.0586 59.0133 37.452 58.78C37.852 58.5467 38.2953 58.43 38.782 58.43C39.262 58.43 39.6786 58.5333 40.032 58.74C40.3853 58.9467 40.6486 59.2067 40.822 59.52V58.52H41.742V64H40.822V62.98C40.642 63.3 40.372 63.5667 40.012 63.78C39.6586 63.9867 39.2453 64.09 38.772 64.09C38.2853 64.09 37.8453 63.97 37.452 63.73C37.0586 63.49 36.7486 63.1533 36.522 62.72C36.2953 62.2867 36.182 61.7933 36.182 61.24ZM40.822 61.25C40.822 60.8367 40.7386 60.4767 40.572 60.17C40.4053 59.8633 40.1786 59.63 39.892 59.47C39.612 59.3033 39.302 59.22 38.962 59.22C38.622 59.22 38.312 59.3 38.032 59.46C37.752 59.62 37.5286 59.8533 37.362 60.16C37.1953 60.4667 37.112 60.8267 37.112 61.24C37.112 61.66 37.1953 62.0267 37.362 62.34C37.5286 62.6467 37.752 62.8833 38.032 63.05C38.312 63.21 38.622 63.29 38.962 63.29C39.302 63.29 39.612 63.21 39.892 63.05C40.1786 62.8833 40.4053 62.6467 40.572 62.34C40.7386 62.0267 40.822 61.6633 40.822 61.25ZM44.1898 59.53C44.3698 59.2167 44.6364 58.9567 44.9898 58.75C45.3498 58.5367 45.7664 58.43 46.2398 58.43C46.7264 58.43 47.1664 58.5467 47.5598 58.78C47.9598 59.0133 48.2731 59.3433 48.4998 59.77C48.7264 60.19 48.8398 60.68 48.8398 61.24C48.8398 61.7933 48.7264 62.2867 48.4998 62.72C48.2731 63.1533 47.9598 63.49 47.5598 63.73C47.1664 63.97 46.7264 64.09 46.2398 64.09C45.7731 64.09 45.3598 63.9867 44.9998 63.78C44.6464 63.5667 44.3764 63.3033 44.1898 62.99V66.6H43.2798V58.52H44.1898V59.53ZM47.9098 61.24C47.9098 60.8267 47.8264 60.4667 47.6598 60.16C47.4931 59.8533 47.2664 59.62 46.9798 59.46C46.6998 59.3 46.3898 59.22 46.0498 59.22C45.7164 59.22 45.4064 59.3033 45.1198 59.47C44.8398 59.63 44.6131 59.8667 44.4398 60.18C44.2731 60.4867 44.1898 60.8433 44.1898 61.25C44.1898 61.6633 44.2731 62.0267 44.4398 62.34C44.6131 62.6467 44.8398 62.8833 45.1198 63.05C45.4064 63.21 45.7164 63.29 46.0498 63.29C46.3898 63.29 46.6998 63.21 46.9798 63.05C47.2664 62.8833 47.4931 62.6467 47.6598 62.34C47.8264 62.0267 47.9098 61.66 47.9098 61.24ZM50.9476 59.53C51.1276 59.2167 51.3942 58.9567 51.7476 58.75C52.1076 58.5367 52.5242 58.43 52.9976 58.43C53.4842 58.43 53.9242 58.5467 54.3176 58.78C54.7176 59.0133 55.0309 59.3433 55.2576 59.77C55.4842 60.19 55.5976 60.68 55.5976 61.24C55.5976 61.7933 55.4842 62.2867 55.2576 62.72C55.0309 63.1533 54.7176 63.49 54.3176 63.73C53.9242 63.97 53.4842 64.09 52.9976 64.09C52.5309 64.09 52.1176 63.9867 51.7576 63.78C51.4042 63.5667 51.1342 63.3033 50.9476 62.99V66.6H50.0376V58.52H50.9476V59.53ZM54.6676 61.24C54.6676 60.8267 54.5842 60.4667 54.4176 60.16C54.2509 59.8533 54.0242 59.62 53.7376 59.46C53.4576 59.3 53.1476 59.22 52.8076 59.22C52.4742 59.22 52.1642 59.3033 51.8776 59.47C51.5976 59.63 51.3709 59.8667 51.1976 60.18C51.0309 60.4867 50.9476 60.8433 50.9476 61.25C50.9476 61.6633 51.0309 62.0267 51.1976 62.34C51.3709 62.6467 51.5976 62.8833 51.8776 63.05C52.1642 63.21 52.4742 63.29 52.8076 63.29C53.1476 63.29 53.4576 63.21 53.7376 63.05C54.0242 62.8833 54.2509 62.6467 54.4176 62.34C54.5842 62.0267 54.6676 61.66 54.6676 61.24Z" fill="#00A64F"/>
<defs>
<linearGradient id="paint0_linear_1581_2191" x1="29.4999" y1="42.155" x2="29.4999" y2="5.8457" gradientUnits="userSpaceOnUse">
<stop stop-color="#1FAF38"/>
<stop offset="1" stop-color="#60D669"/>
</linearGradient>
<linearGradient id="paint1_linear_1581_2191" x1="29.5" y1="42.8057" x2="29.5" y2="5.19434" gradientUnits="userSpaceOnUse">
<stop stop-color="#F9F9F9"/>
<stop offset="1" stop-color="white"/>
</linearGradient>
</defs>
</svg>
