<svg width="24" height="24" viewBox="0 0 24 24" fill="none" xmlns="http://www.w3.org/2000/svg">
<g clip-path="url(#clip0_1950_373)">
<path d="M22.555 13.6622L20.655 6.82618C20.0981 4.82351 18.8877 3.06447 17.2163 1.82865C15.5449 0.592832 13.5084 -0.0488349 11.4304 0.00564524C9.3525 0.0601253 7.35239 0.807625 5.74805 2.12933C4.1437 3.45103 3.02719 5.27108 2.57598 7.30018L1.10498 13.9152C0.942497 14.6461 0.946254 15.4042 1.11597 16.1335C1.2857 16.8628 1.61705 17.5446 2.08556 18.1287C2.55408 18.7128 3.1478 19.1842 3.82289 19.5081C4.49798 19.832 5.23721 20.0002 5.98598 20.0002H7.09998C7.3295 21.1305 7.94271 22.1467 8.83572 22.8766C9.72874 23.6065 10.8466 24.0052 12 24.0052C13.1533 24.0052 14.2712 23.6065 15.1642 22.8766C16.0573 22.1467 16.6705 21.1305 16.9 20.0002H17.738C18.5088 20.0002 19.2692 19.8221 19.9597 19.4796C20.6503 19.1372 21.2523 18.6397 21.7188 18.026C22.1853 17.4124 22.5036 16.6992 22.6488 15.9422C22.794 15.1852 22.7622 14.4049 22.556 13.6622H22.555ZM12 22.0002C11.3817 21.9976 10.7794 21.8041 10.2753 21.4461C9.77121 21.0881 9.39007 20.5831 9.18398 20.0002H14.816C14.6099 20.5831 14.2288 21.0881 13.7247 21.4461C13.2206 21.8041 12.6182 21.9976 12 22.0002ZM20.126 16.8152C19.8473 17.1848 19.4863 17.4844 19.0716 17.6901C18.6569 17.8958 18.1999 18.002 17.737 18.0002H5.98598C5.53677 18.0001 5.0933 17.8991 4.68832 17.7048C4.28334 17.5104 3.92719 17.2275 3.64614 16.8771C3.3651 16.5266 3.16634 16.1176 3.06454 15.68C2.96274 15.2425 2.9605 14.7877 3.05798 14.3492L4.52798 7.73318C4.88233 6.13939 5.75929 4.70978 7.01944 3.67163C8.27959 2.63347 9.85061 2.04635 11.4828 2.00359C13.1149 1.96083 14.7145 2.4649 16.0273 3.43565C17.3401 4.4064 18.2907 5.78813 18.728 7.36118L20.628 14.1972C20.7535 14.6426 20.7735 15.1111 20.6864 15.5655C20.5992 16.02 20.4074 16.4478 20.126 16.8152Z" fill="#4F5052"/>
</g>
<defs>
<clipPath id="clip0_1950_373">
<rect width="24" height="24" fill="white"/>
</clipPath>
</defs>
</svg>
