<svg width="25" height="24" viewBox="0 0 25 24" fill="none" xmlns="http://www.w3.org/2000/svg">
<path fill-rule="evenodd" clip-rule="evenodd" d="M6.25 3C6.07531 3.00009 5.9037 3.04594 5.75223 3.13298C5.60077 3.22002 5.47475 3.34521 5.38672 3.49609L3.63672 6.49609C3.54733 6.64899 3.50015 6.82289 3.5 7V19C3.5 19.3626 3.59979 19.7047 3.77307 20L5.5 18.5V9H17.5L21.0739 6L19.6133 3.49609C19.5252 3.34521 19.3992 3.22002 19.2478 3.13298C19.0963 3.04594 18.9247 3.00009 18.75 3H6.25ZM19.5 9.13278V19H7.6317L5.5 21H19.5C20.5931 21 21.5 20.0931 21.5 19V7.5L19.5 9.13278ZM6.82422 5H18.1758L19.3418 7H5.6582L6.82422 5ZM9.5 11V13H12.5L15 11H9.5Z" fill="#888888"/>
<path d="M2.5 20.5L22 4" stroke="#888888" stroke-width="2"/>
</svg>
