<svg width="40" height="40" viewBox="0 0 40 40" fill="none" xmlns="http://www.w3.org/2000/svg">
<path d="M18.2031 0.0781288C14.3438 0.453129 10.7813 1.875 7.65625 4.28125C6.13281 5.45313 4.15625 7.65625 3.01563 9.45313C2.52344 10.2266 1.5625 12.1953 1.21875 13.1328C0.835938 14.1797 0.421875 15.7891 0.21875 17.0313C-0.0234375 18.5547 -0.0234375 21.4453 0.21875 22.9688C0.570313 25.125 1.125 26.8594 2.07031 28.7891C3.10156 30.8906 4.17188 32.3828 5.89063 34.1094C7.61719 35.8281 9.10938 36.8984 11.2109 37.9297C13.1406 38.875 14.875 39.4297 17.0313 39.7813C18.5547 40.0234 21.4453 40.0234 22.9688 39.7813C25.125 39.4297 26.8594 38.875 28.7891 37.9297C30.8906 36.8984 32.3828 35.8281 34.1094 34.1094C35.8281 32.3828 36.8984 30.8906 37.9297 28.7891C38.6172 27.3906 38.9609 26.4766 39.3359 25.0703C39.8281 23.1953 39.9453 22.1719 39.9453 20C39.9453 17.8281 39.8281 16.8047 39.3359 14.9297C38.9609 13.5234 38.6172 12.6094 37.9297 11.2109C36.8984 9.10938 35.8281 7.61719 34.1094 5.89063C32.3828 4.17188 30.8906 3.10157 28.7891 2.07032C26.8672 1.125 25.0859 0.562504 23.0078 0.234379C21.8594 0.0546913 19.2969 -0.0312462 18.2031 0.0781288ZM22.1719 3.78907C27.6953 4.5625 32.3984 8.00782 34.7813 13.0313C35.8516 15.2813 36.3281 17.4375 36.3281 20C36.3281 21.4922 36.2031 22.5703 35.8672 23.9531C34.4453 29.7422 29.7422 34.4453 23.9531 35.8672C22.5703 36.2031 21.4922 36.3281 20 36.3281C18.5078 36.3281 17.4297 36.2031 16.0469 35.8672C10.2578 34.4453 5.55469 29.7422 4.13281 23.9531C3.79688 22.5703 3.67188 21.4922 3.67188 20C3.67188 18.5078 3.79688 17.4297 4.13281 16.0469C5.55469 10.25 10.2578 5.54688 16.0625 4.13282C16.5859 4.00782 17.3438 3.85157 17.7422 3.79688C18.7656 3.64844 21.1172 3.64063 22.1719 3.78907Z" fill="#10BAB2"/>
<path d="M11.7188 13.7813C11.2031 13.8906 11.0156 13.9922 10.6094 14.3594C9.67969 15.1953 9.59375 16.7344 10.4219 17.7031C10.5703 17.875 10.875 18.1172 11.1016 18.2422C11.4844 18.4531 11.5938 18.4766 12.2266 18.4766C13.0234 18.4766 13.3984 18.3359 13.9297 17.8281C15.125 16.6797 14.7656 14.6172 13.25 13.9453C12.7344 13.7109 12.25 13.6641 11.7188 13.7813Z" fill="#10BAB2"/>
<path d="M27.2891 13.75C25.4141 14.125 24.6953 16.5156 26.0703 17.8281C26.6016 18.3359 26.9766 18.4766 27.7734 18.4766C28.4063 18.4766 28.5156 18.4531 28.8984 18.2422C29.4219 17.9531 29.7969 17.5234 30.0078 16.9609C30.4219 15.8516 29.9063 14.5 28.8516 13.9531C28.6563 13.8594 27.7891 13.6562 27.6641 13.6797C27.6406 13.6875 27.4688 13.7188 27.2891 13.75Z" fill="#10BAB2"/>
<path d="M18.5156 21.9141C16.7188 22.1641 15.0703 22.8594 13.5938 23.9922C12.3984 24.8984 12.0312 25.4219 12.0312 26.1875C12.0391 27.1953 12.8281 27.9688 13.8438 27.9688C14.3828 27.9609 14.7578 27.7812 15.4297 27.1875C16.7422 26.0312 18.2344 25.4687 20 25.4687C21.7656 25.4687 23.2578 26.0312 24.5703 27.1875C25.25 27.7891 25.6172 27.9688 26.1719 27.9688C27.1797 27.9688 27.9688 27.1797 27.9688 26.1719C27.9688 25.4219 27.5938 24.8906 26.4062 23.9922C24.1328 22.25 21.3516 21.5234 18.5156 21.9141Z" fill="#10BAB2"/>
</svg>
