<svg width="87" height="68" viewBox="0 0 87 68" fill="none" xmlns="http://www.w3.org/2000/svg">
<path d="M7.368 54.636V63H6.276V59.208H2.016V63H0.924V54.636H2.016V58.308H6.276V54.636H7.368ZM12.1006 63.108C11.4846 63.108 10.9246 62.968 10.4206 62.688C9.92459 62.408 9.53259 62.012 9.24459 61.5C8.96459 60.98 8.82459 60.38 8.82459 59.7C8.82459 59.028 8.96859 58.436 9.25659 57.924C9.55259 57.404 9.95259 57.008 10.4566 56.736C10.9606 56.456 11.5246 56.316 12.1486 56.316C12.7726 56.316 13.3366 56.456 13.8406 56.736C14.3446 57.008 14.7406 57.4 15.0286 57.912C15.3246 58.424 15.4726 59.02 15.4726 59.7C15.4726 60.38 15.3206 60.98 15.0166 61.5C14.7206 62.012 14.3166 62.408 13.8046 62.688C13.2926 62.968 12.7246 63.108 12.1006 63.108ZM12.1006 62.148C12.4926 62.148 12.8606 62.056 13.2046 61.872C13.5486 61.688 13.8246 61.412 14.0326 61.044C14.2486 60.676 14.3566 60.228 14.3566 59.7C14.3566 59.172 14.2526 58.724 14.0446 58.356C13.8366 57.988 13.5646 57.716 13.2286 57.54C12.8926 57.356 12.5286 57.264 12.1366 57.264C11.7366 57.264 11.3686 57.356 11.0326 57.54C10.7046 57.716 10.4406 57.988 10.2406 58.356C10.0406 58.724 9.94059 59.172 9.94059 59.7C9.94059 60.236 10.0366 60.688 10.2286 61.056C10.4286 61.424 10.6926 61.7 11.0206 61.884C11.3486 62.06 11.7086 62.148 12.1006 62.148ZM24.8164 56.304C25.3284 56.304 25.7844 56.412 26.1844 56.628C26.5844 56.836 26.9004 57.152 27.1324 57.576C27.3644 58 27.4804 58.516 27.4804 59.124V63H26.4004V59.28C26.4004 58.624 26.2364 58.124 25.9084 57.78C25.5884 57.428 25.1524 57.252 24.6004 57.252C24.0324 57.252 23.5804 57.436 23.2444 57.804C22.9084 58.164 22.7404 58.688 22.7404 59.376V63H21.6604V59.28C21.6604 58.624 21.4964 58.124 21.1684 57.78C20.8484 57.428 20.4124 57.252 19.8604 57.252C19.2924 57.252 18.8404 57.436 18.5044 57.804C18.1684 58.164 18.0004 58.688 18.0004 59.376V63H16.9084V56.424H18.0004V57.372C18.2164 57.028 18.5044 56.764 18.8644 56.58C19.2324 56.396 19.6364 56.304 20.0764 56.304C20.6284 56.304 21.1164 56.428 21.5404 56.676C21.9644 56.924 22.2804 57.288 22.4884 57.768C22.6724 57.304 22.9764 56.944 23.4004 56.688C23.8244 56.432 24.2964 56.304 24.8164 56.304ZM35.2717 59.46C35.2717 59.668 35.2597 59.888 35.2357 60.12H29.9797C30.0197 60.768 30.2397 61.276 30.6397 61.644C31.0477 62.004 31.5397 62.184 32.1157 62.184C32.5877 62.184 32.9797 62.076 33.2917 61.86C33.6117 61.636 33.8357 61.34 33.9637 60.972H35.1397C34.9637 61.604 34.6117 62.12 34.0837 62.52C33.5557 62.912 32.8997 63.108 32.1157 63.108C31.4917 63.108 30.9317 62.968 30.4357 62.688C29.9477 62.408 29.5637 62.012 29.2837 61.5C29.0037 60.98 28.8637 60.38 28.8637 59.7C28.8637 59.02 28.9997 58.424 29.2717 57.912C29.5437 57.4 29.9237 57.008 30.4117 56.736C30.9077 56.456 31.4757 56.316 32.1157 56.316C32.7397 56.316 33.2917 56.452 33.7717 56.724C34.2517 56.996 34.6197 57.372 34.8757 57.852C35.1397 58.324 35.2717 58.86 35.2717 59.46ZM34.1437 59.232C34.1437 58.816 34.0517 58.46 33.8677 58.164C33.6837 57.86 33.4317 57.632 33.1117 57.48C32.7997 57.32 32.4517 57.24 32.0677 57.24C31.5157 57.24 31.0437 57.416 30.6517 57.768C30.2677 58.12 30.0477 58.608 29.9917 59.232H34.1437ZM42.5163 54.636C43.4283 54.636 44.2163 54.808 44.8803 55.152C45.5523 55.488 46.0643 55.972 46.4163 56.604C46.7763 57.236 46.9563 57.98 46.9563 58.836C46.9563 59.692 46.7763 60.436 46.4163 61.068C46.0643 61.692 45.5523 62.172 44.8803 62.508C44.2163 62.836 43.4283 63 42.5163 63H39.9123V54.636H42.5163ZM42.5163 62.1C43.5963 62.1 44.4203 61.816 44.9883 61.248C45.5563 60.672 45.8403 59.868 45.8403 58.836C45.8403 57.796 45.5523 56.984 44.9763 56.4C44.4083 55.816 43.5883 55.524 42.5163 55.524H41.0043V62.1H42.5163ZM54.3967 59.46C54.3967 59.668 54.3847 59.888 54.3607 60.12H49.1047C49.1447 60.768 49.3647 61.276 49.7647 61.644C50.1727 62.004 50.6647 62.184 51.2407 62.184C51.7127 62.184 52.1047 62.076 52.4167 61.86C52.7367 61.636 52.9607 61.34 53.0887 60.972H54.2647C54.0887 61.604 53.7367 62.12 53.2087 62.52C52.6807 62.912 52.0247 63.108 51.2407 63.108C50.6167 63.108 50.0567 62.968 49.5607 62.688C49.0727 62.408 48.6887 62.012 48.4087 61.5C48.1287 60.98 47.9887 60.38 47.9887 59.7C47.9887 59.02 48.1247 58.424 48.3967 57.912C48.6687 57.4 49.0487 57.008 49.5367 56.736C50.0327 56.456 50.6007 56.316 51.2407 56.316C51.8647 56.316 52.4167 56.452 52.8967 56.724C53.3767 56.996 53.7447 57.372 54.0007 57.852C54.2647 58.324 54.3967 58.86 54.3967 59.46ZM53.2687 59.232C53.2687 58.816 53.1767 58.46 52.9927 58.164C52.8087 57.86 52.5567 57.632 52.2367 57.48C51.9247 57.32 51.5767 57.24 51.1927 57.24C50.6407 57.24 50.1687 57.416 49.7767 57.768C49.3927 58.12 49.1727 58.608 49.1167 59.232H53.2687ZM56.9301 54.12V63H55.8381V54.12H56.9301ZM59.3552 55.356C59.1472 55.356 58.9712 55.284 58.8272 55.14C58.6832 54.996 58.6112 54.82 58.6112 54.612C58.6112 54.404 58.6832 54.228 58.8272 54.084C58.9712 53.94 59.1472 53.868 59.3552 53.868C59.5552 53.868 59.7232 53.94 59.8592 54.084C60.0032 54.228 60.0752 54.404 60.0752 54.612C60.0752 54.82 60.0032 54.996 59.8592 55.14C59.7232 55.284 59.5552 55.356 59.3552 55.356ZM59.8832 56.424V63H58.7912V56.424H59.8832ZM64.1923 61.992L66.2323 56.424H67.3963L64.8163 63H63.5443L60.9643 56.424H62.1403L64.1923 61.992ZM74.4709 59.46C74.4709 59.668 74.4589 59.888 74.4349 60.12H69.1789C69.2189 60.768 69.4389 61.276 69.8389 61.644C70.2469 62.004 70.7389 62.184 71.3149 62.184C71.7869 62.184 72.1789 62.076 72.4909 61.86C72.8109 61.636 73.0349 61.34 73.1629 60.972H74.3389C74.1629 61.604 73.8109 62.12 73.2829 62.52C72.7549 62.912 72.0989 63.108 71.3149 63.108C70.6909 63.108 70.1309 62.968 69.6349 62.688C69.1469 62.408 68.7629 62.012 68.4829 61.5C68.2029 60.98 68.0629 60.38 68.0629 59.7C68.0629 59.02 68.1989 58.424 68.4709 57.912C68.7429 57.4 69.1229 57.008 69.6109 56.736C70.1069 56.456 70.6749 56.316 71.3149 56.316C71.9389 56.316 72.4909 56.452 72.9709 56.724C73.4509 56.996 73.8189 57.372 74.0749 57.852C74.3389 58.324 74.4709 58.86 74.4709 59.46ZM73.3429 59.232C73.3429 58.816 73.2509 58.46 73.0669 58.164C72.8829 57.86 72.6309 57.632 72.3109 57.48C71.9989 57.32 71.6509 57.24 71.2669 57.24C70.7149 57.24 70.2429 57.416 69.8509 57.768C69.4669 58.12 69.2469 58.608 69.1909 59.232H73.3429ZM77.0043 57.492C77.1963 57.116 77.4683 56.824 77.8203 56.616C78.1803 56.408 78.6163 56.304 79.1283 56.304V57.432H78.8403C77.6163 57.432 77.0043 58.096 77.0043 59.424V63H75.9123V56.424H77.0043V57.492ZM86.0528 56.424L82.0928 66.096H80.9648L82.2608 62.928L79.6088 56.424H80.8208L82.8848 61.752L84.9248 56.424H86.0528Z" fill="#464646"/>
<path d="M66.5 24C66.5 36.4368 56.64 46.5 44.5 46.5C32.36 46.5 22.5 36.4368 22.5 24C22.5 11.5632 32.36 1.5 44.5 1.5C56.64 1.5 66.5 11.5632 66.5 24Z" fill="white" stroke="#DDDDDD"/>
<g clip-path="url(#clip0_2907_1657)">
<path d="M39.8398 31.1399C39.8398 31.3737 39.9327 31.598 40.0981 31.7633C40.2634 31.9286 40.4876 32.0215 40.7214 32.0215C40.9552 32.0215 41.1795 31.9286 41.3448 31.7633C41.5101 31.598 41.603 31.3737 41.603 31.1399V30.5251H39.8398V31.1399Z" fill="white"/>
<path d="M53.8856 30.3803C54.0217 30.4547 54.1357 30.5636 54.2162 30.6962C54.2968 30.8287 54.3409 30.9802 54.3442 31.1352C54.3475 31.2903 54.3098 31.4434 54.235 31.5793C54.1602 31.7151 54.0509 31.8289 53.9181 31.909C53.7853 31.9891 53.6337 32.0327 53.4787 32.0355C53.3236 32.0383 53.1705 32.0002 53.0349 31.925C52.8993 31.8497 52.7859 31.74 52.7063 31.607C52.6266 31.474 52.5834 31.3222 52.5811 31.1672C52.5883 30.9917 52.6448 30.8219 52.744 30.677C52.8433 30.5321 52.9812 30.418 53.1421 30.3478C53.501 30.2005 53.8306 30.3536 53.8856 30.3803V30.3803Z" fill="white"/>
<path d="M33.9517 21.6287H36.6189C36.7121 21.6287 36.8016 21.5917 36.8675 21.5257C36.9334 21.4598 36.9705 21.3704 36.9705 21.2771C36.9705 21.1839 36.9334 21.0945 36.8675 21.0285C36.8016 20.9626 36.7121 20.9256 36.6189 20.9256H33.9517C33.8585 20.9256 33.7691 20.9626 33.7031 21.0285C33.6372 21.0945 33.6002 21.1839 33.6002 21.2771C33.6002 21.3704 33.6372 21.4598 33.7031 21.5257C33.7691 21.5917 33.8585 21.6287 33.9517 21.6287V21.6287ZM33.2486 23.0349H36.6189C36.7121 23.0349 36.8016 22.9979 36.8675 22.932C36.9334 22.866 36.9705 22.7766 36.9705 22.6834C36.9705 22.5901 36.9334 22.5007 36.8675 22.4348C36.8016 22.3689 36.7121 22.3318 36.6189 22.3318H33.2486C33.1554 22.3318 33.0659 22.3689 33 22.4348C32.9341 22.5007 32.897 22.5901 32.897 22.6834C32.897 22.7766 32.9341 22.866 33 22.932C33.0659 22.9979 33.1554 23.0349 33.2486 23.0349V23.0349ZM34.6548 20.2224H36.6189C36.7121 20.2224 36.8016 20.1854 36.8675 20.1195C36.9334 20.0535 36.9705 19.9641 36.9705 19.8709C36.9705 19.7776 36.9334 19.6882 36.8675 19.6223C36.8016 19.5564 36.7121 19.5193 36.6189 19.5193H34.6548C34.5616 19.5193 34.4722 19.5564 34.4063 19.6223C34.3403 19.6882 34.3033 19.7776 34.3033 19.8709C34.3033 19.9641 34.3403 20.0535 34.4063 20.1195C34.4722 20.1854 34.5616 20.2224 34.6548 20.2224V20.2224ZM56.1484 33.1093H55.2356C55.6742 32.714 55.9663 32.1822 56.0646 31.6C56.1778 30.9286 56.0287 30.2394 55.648 29.675L55.8488 29.5554C55.9289 29.5078 55.9868 29.4302 56.0098 29.3398C56.0327 29.2495 56.0188 29.1537 55.9712 29.0736C55.6495 28.5338 55.1745 28.1019 54.6068 27.8327C54.039 27.5635 53.404 27.4692 52.7825 27.5617C52.483 26.8485 52.1747 25.8326 51.8761 24.8479C51.7019 24.2734 51.5231 23.6841 51.3443 23.1485H51.535C51.6283 23.1485 51.7177 23.1115 51.7836 23.0456C51.8496 22.9796 51.8866 22.8902 51.8866 22.797V20.7302C51.8866 20.6369 51.8496 20.5475 51.7836 20.4816C51.7177 20.4156 51.6283 20.3786 51.535 20.3786H50.1117C49.8057 20.379 49.5084 20.4805 49.2662 20.6674C49.0239 20.8544 48.8502 21.1161 48.7721 21.412H47.4269C47.3337 21.412 47.2443 21.449 47.1783 21.515C47.1124 21.5809 47.0754 21.6703 47.0754 21.7636C47.0754 21.8568 47.1124 21.9462 47.1783 22.0121C47.2443 22.0781 47.3337 22.1151 47.4269 22.1151H48.7721C48.8242 22.313 48.9197 22.4968 49.0515 22.6533C49.0545 22.674 49.0594 22.6943 49.0661 22.7141C49.262 23.2872 49.6067 24.5747 49.6315 24.6917C50.0161 26.5078 50.0699 28.7619 48.1424 29.1864C47.7214 29.2768 47.2839 29.2541 46.8744 29.1205C46.465 28.9869 46.0983 28.7471 45.8117 28.4257C45.0865 27.5953 45.0383 26.3173 45.6943 25.3171C45.8753 25.2018 46.014 25.0308 46.0896 24.8299C46.1651 24.629 46.1734 24.409 46.1133 24.2029C46.0531 23.9969 45.9277 23.8159 45.7559 23.6873C45.5842 23.5586 45.3753 23.4891 45.1606 23.4893H44.8605C44.8664 23.4504 44.8695 23.4112 44.8698 23.372V22.0349C45.3608 21.9905 45.8325 21.823 46.2415 21.5479C46.6505 21.2728 46.9834 20.8989 47.2095 20.4609C47.4356 20.0229 47.5476 19.535 47.535 19.0422C47.5224 18.5495 47.3857 18.0679 47.1375 17.642C46.8893 17.2161 46.5377 16.8597 46.1152 16.6059C45.6927 16.352 45.213 16.2088 44.7204 16.1896C44.2279 16.1704 43.7385 16.2758 43.2975 16.4959C42.8565 16.7161 42.4782 17.044 42.1976 17.4493H38.4939C38.2764 17.4495 38.0679 17.536 37.9141 17.6898C37.7603 17.8436 37.6738 18.0521 37.6736 18.2696V23.3719C37.6738 23.5894 37.7603 23.7979 37.9141 23.9517C38.0679 24.1055 38.2764 24.192 38.4939 24.1922H39.0414C38.986 24.3732 38.9837 24.5662 39.0348 24.7484C39.0859 24.9306 39.1882 25.0943 39.3296 25.22C39.2085 25.2761 39.0899 25.3375 38.9741 25.4041C37.7695 26.1002 36.7502 27.4562 36.3775 28.8587C36.1454 29.7319 36.1969 30.5253 36.5216 31.096C36.5221 31.097 36.5226 31.0979 36.5231 31.0989C36.5257 31.1034 36.5279 31.108 36.5305 31.1124C36.5316 31.1145 36.5331 31.1162 36.5344 31.1183C36.5399 31.1274 36.5459 31.1362 36.5522 31.1448C36.5541 31.1473 36.5558 31.15 36.5578 31.1525C36.5661 31.1631 36.575 31.1731 36.5845 31.1826C36.5871 31.1853 36.5899 31.1878 36.5926 31.1904C36.6002 31.1976 36.6082 31.2045 36.6165 31.2111C36.6193 31.2134 36.6221 31.2157 36.6251 31.2178C36.6357 31.2257 36.6467 31.233 36.6581 31.2397L36.6593 31.2405C36.6717 31.2476 36.6844 31.2538 36.6976 31.2593C36.7003 31.2604 36.703 31.2614 36.7058 31.2624C36.7159 31.2664 36.7263 31.2699 36.7369 31.273L36.749 31.2763C36.7528 31.2773 36.7564 31.2785 36.7602 31.2793C36.7668 31.2807 36.7734 31.2814 36.78 31.2825C36.7838 31.2831 36.7874 31.2838 36.7911 31.2843C36.8056 31.2862 36.8201 31.2872 36.8347 31.2873C36.8356 31.2873 36.8364 31.2871 36.8372 31.2871H36.8388L38.0853 31.2709C38.1026 31.6205 38.1895 31.9631 38.3408 32.2788C38.4921 32.5945 38.7047 32.8768 38.9664 33.1093H32.8516C32.7583 33.1093 32.6689 33.1464 32.603 33.2123C32.537 33.2782 32.5 33.3676 32.5 33.4609C32.5 33.5541 32.537 33.6435 32.603 33.7095C32.6689 33.7754 32.7583 33.8124 32.8516 33.8124H56.1484C56.2417 33.8124 56.3311 33.7754 56.397 33.7095C56.463 33.6435 56.5 33.5541 56.5 33.4609C56.5 33.3676 56.463 33.2782 56.397 33.2123C56.3311 33.1464 56.2417 33.1093 56.1484 33.1093V33.1093ZM53.2488 28.2316C53.616 28.2313 53.9787 28.313 54.3104 28.4708C54.642 28.6286 54.9342 28.8586 55.1656 29.1438L54.9971 29.2441C54.9568 29.2589 54.9197 29.281 54.8874 29.3093L50.8412 31.7171C50.6152 31.1706 50.5933 30.5611 50.7796 29.9998C50.9658 29.4386 51.3477 28.963 51.8555 28.66L51.9949 28.577C52.374 28.3508 52.8073 28.2314 53.2488 28.2316L53.2488 28.2316ZM53.9852 31.2436C53.9646 31.3635 53.9034 31.4727 53.8118 31.5528C53.7202 31.633 53.6038 31.6791 53.4822 31.6836C53.3605 31.688 53.2411 31.6504 53.1439 31.5772C53.0467 31.5039 52.9777 31.3995 52.9485 31.2813L53.8203 30.7625C53.8859 30.8225 53.9353 30.898 53.9641 30.982C53.9929 31.0661 54.0002 31.156 53.9852 31.2436V31.2436ZM49.4298 21.7636C49.4301 21.5828 49.502 21.4095 49.6298 21.2816C49.7576 21.1538 49.931 21.0819 50.1117 21.0817H51.1835V22.4454H50.1117C49.931 22.4452 49.7577 22.3733 49.6298 22.2455C49.502 22.1176 49.4301 21.9443 49.4299 21.7636H49.4298ZM45.1606 24.1924C45.2373 24.1919 45.3111 24.2219 45.3656 24.2758C45.4202 24.3297 45.4512 24.4031 45.4516 24.4798C45.4521 24.5565 45.4221 24.6303 45.3682 24.6848C45.3143 24.7394 45.2409 24.7703 45.1642 24.7708H41.8191C41.6007 24.7584 41.3817 24.7585 41.1633 24.7711H39.9906C39.9523 24.7715 39.9143 24.7644 39.8788 24.7501C39.8432 24.7358 39.8109 24.7145 39.7836 24.6876C39.7564 24.6607 39.7347 24.6286 39.72 24.5933C39.7052 24.558 39.6976 24.52 39.6976 24.4817C39.6976 24.4434 39.7052 24.4055 39.72 24.3701C39.7347 24.3348 39.7564 24.3027 39.7836 24.2758C39.8109 24.2489 39.8432 24.2277 39.8788 24.2133C39.9143 24.199 39.9523 24.1919 39.9906 24.1924H45.1606ZM44.6042 16.8906C45.0446 16.8905 45.4752 17.0211 45.8414 17.2657C46.2077 17.5104 46.4932 17.8581 46.6618 18.265C46.8304 18.6719 46.8745 19.1197 46.7886 19.5517C46.7027 19.9837 46.4907 20.3805 46.1793 20.692C45.8678 21.0035 45.471 21.2156 45.039 21.3015C44.6071 21.3875 44.1593 21.3434 43.7524 21.1749C43.3454 21.0063 42.9976 20.7209 42.7529 20.3547C42.5082 19.9885 42.3776 19.5579 42.3776 19.1175C42.3782 18.5271 42.613 17.9611 43.0304 17.5436C43.4478 17.1262 44.0138 16.8913 44.6041 16.8906H44.6042ZM38.4939 23.4892C38.4628 23.4891 38.4331 23.4768 38.4111 23.4548C38.3891 23.4328 38.3768 23.403 38.3767 23.372V18.2696C38.3768 18.2386 38.3891 18.2088 38.4111 18.1868C38.4331 18.1648 38.4628 18.1525 38.4939 18.1524H41.8384C41.6963 18.559 41.6456 18.9919 41.69 19.4202C41.7343 19.8486 41.8726 20.2619 42.0949 20.6307C42.3172 20.9996 42.6182 21.3148 42.9763 21.554C43.3344 21.7932 43.7409 21.9505 44.1667 22.0147V23.372C44.1667 23.403 44.1543 23.4328 44.1324 23.4548C44.1104 23.4768 44.0806 23.4891 44.0495 23.4892H38.4939ZM37.057 29.0393C37.3842 27.8082 38.2748 26.6203 39.3259 26.0128C39.8947 25.6917 40.5305 25.5073 41.1828 25.4742H44.8141C44.3145 26.6339 44.4791 27.9688 45.2822 28.8882C45.6523 29.3039 46.126 29.614 46.655 29.787C47.184 29.96 47.7495 29.9897 48.2937 29.873C50.2368 29.4451 50.9562 27.5533 50.3194 24.5461C50.2955 24.4329 50.1118 23.7422 49.9339 23.1367C49.9929 23.1445 50.0523 23.1484 50.1117 23.1485H50.6019C50.8023 23.7298 51.0057 24.4006 51.2032 25.0519C51.4952 26.0147 51.7963 27.0069 52.098 27.7463C51.9379 27.8092 51.7832 27.885 51.6353 27.9728L51.496 28.0557C51.1383 28.2673 50.8261 28.5476 50.5775 28.8806C50.3288 29.2136 50.1488 29.5926 50.0476 29.9957C50.013 30.133 49.9874 30.2724 49.9712 30.4131L44.5863 30.4832C44.2312 28.8514 43.0919 27.5442 41.6778 27.1818C40.7148 26.9351 39.6207 27.1285 38.676 27.7125C37.9447 28.1701 37.3498 28.8157 36.9535 29.5819C36.9744 29.3987 37.009 29.2173 37.057 29.0393V29.0393ZM37.295 30.578C37.6037 29.629 38.2255 28.8176 39.0457 28.3105C39.8287 27.8266 40.7245 27.6634 41.5033 27.863C42.623 28.1499 43.5366 29.1825 43.8667 30.4925L37.295 30.578ZM41.2434 31.2298C41.2225 31.3518 41.1595 31.4626 41.0655 31.543C40.9714 31.6234 40.8521 31.6683 40.7283 31.6699C40.6046 31.6715 40.4842 31.6297 40.388 31.5518C40.2918 31.4739 40.226 31.3648 40.2019 31.2434L41.2434 31.2298ZM40.7216 33.0765C40.2293 33.0759 39.7557 32.888 39.3968 32.551C39.038 32.214 38.8208 31.753 38.7893 31.2617L39.4939 31.2526C39.5222 31.5616 39.666 31.8485 39.8965 32.0561C40.1271 32.2638 40.4274 32.3769 40.7376 32.3728C41.0479 32.3688 41.3452 32.2479 41.5702 32.0344C41.7953 31.8208 41.9316 31.5302 41.9518 31.2206L42.6565 31.2114C42.6374 31.7121 42.4254 32.1859 42.0647 32.5336C41.704 32.8813 41.2226 33.0759 40.7216 33.0765V33.0765ZM42.4768 33.1093C42.747 32.8691 42.9649 32.5758 43.1168 32.2477C43.2687 31.9196 43.3514 31.5638 43.3598 31.2023L44.2742 31.1904C44.2901 31.1913 44.3061 31.1911 44.3221 31.1898L49.9679 31.1164C50.017 31.5672 50.1627 32.0022 50.3952 32.3916C50.4429 32.4717 50.5204 32.5296 50.6108 32.5526C50.7012 32.5755 50.7969 32.5616 50.8771 32.514L51.1197 32.3696C51.2641 32.648 51.4569 32.8985 51.6892 33.1093H42.4768ZM54.5811 32.7351C54.3524 32.8969 54.0914 33.0071 53.8159 33.0582C53.5405 33.1092 53.2573 33.0999 52.9858 33.0309C52.7143 32.9619 52.461 32.8348 52.2434 32.6584C52.0258 32.482 51.849 32.2605 51.7253 32.0092L52.3334 31.6473C52.4033 31.8077 52.5066 31.9513 52.6363 32.0686C52.766 32.186 52.9191 32.2744 53.0856 32.328C53.2521 32.3815 53.4281 32.3991 53.6019 32.3794C53.7757 32.3598 53.9433 32.3033 54.0936 32.2139C54.2439 32.1244 54.3735 32.004 54.4736 31.8607C54.5738 31.7173 54.6424 31.5543 54.6747 31.3824C54.707 31.2105 54.7024 31.0337 54.6611 30.8637C54.6198 30.6938 54.5429 30.5345 54.4353 30.3966L55.043 30.035C55.1901 30.2426 55.2948 30.4771 55.3512 30.7252C55.4076 30.9733 55.4145 31.23 55.3716 31.4808C55.3287 31.7315 55.2368 31.9714 55.1012 32.1866C54.9656 32.4018 54.7888 32.5882 54.5811 32.7351V32.7351ZM44.6042 19.469H45.6179C45.7112 19.469 45.8006 19.432 45.8665 19.3661C45.9324 19.3001 45.9695 19.2107 45.9695 19.1175C45.9695 19.0242 45.9324 18.9348 45.8665 18.8689C45.8006 18.8029 45.7112 18.7659 45.6179 18.7659H44.9557V17.7883C44.9557 17.6951 44.9187 17.6057 44.8527 17.5397C44.7868 17.4738 44.6974 17.4368 44.6042 17.4368C44.5109 17.4368 44.4215 17.4738 44.3556 17.5397C44.2896 17.6057 44.2526 17.6951 44.2526 17.7883V19.1175C44.2526 19.2107 44.2896 19.3002 44.3556 19.3661C44.4215 19.432 44.5109 19.4691 44.6042 19.4691V19.469Z" fill="#107C48"/>
</g>
<circle cx="66" cy="10" r="10" fill="white"/>
<circle cx="66" cy="10" r="9.5" stroke="#D9D9D9" stroke-opacity="0.5"/>
<path d="M66 5C63.2445 5 61 7.2445 61 10C61 12.7555 63.2445 15 66 15C68.7555 15 71 12.7555 71 10C71 7.2445 68.7555 5 66 5ZM66 6C68.2151 6 70 7.78494 70 10C70 10.9265 69.6846 11.7753 69.1592 12.4521L63.5479 6.84082C64.2247 6.31537 65.0735 6 66 6ZM62.8408 7.54785L68.4521 13.1592C67.7753 13.6846 66.9265 14 66 14C63.7849 14 62 12.2151 62 10C62 9.07346 62.3154 8.22472 62.8408 7.54785Z" fill="#FF5353"/>
<defs>
<clipPath id="clip0_2907_1657">
<rect width="24" height="24" fill="white" transform="translate(32.5 13)"/>
</clipPath>
</defs>
</svg>
