<svg width="24" height="24" viewBox="0 0 24 24" fill="none" xmlns="http://www.w3.org/2000/svg">
<path d="M10.5469 2.27812C8.26875 2.53594 6.27656 3.72656 5.03438 5.56406C4.46719 6.40312 4.02188 7.52344 3.85313 8.53125L3.77344 9.02344L3.54844 9.05625C2.84531 9.15469 2.26406 9.45469 1.70625 10.0078C1.39219 10.3172 1.28906 10.4625 1.11094 10.8281C0.782813 11.5031 0.75 11.7328 0.75 13.4953C0.75 15.2719 0.782813 15.5109 1.10625 16.1719C1.28906 16.5422 1.39688 16.6875 1.72969 17.0203C2.06719 17.3578 2.20781 17.4609 2.57813 17.6391C3.24844 17.9672 3.52969 18.0094 5.025 17.9906C6.20156 17.9766 6.28125 17.9719 6.40313 17.8781C6.47344 17.8266 6.57656 17.7234 6.62813 17.6531C6.72656 17.5266 6.72656 17.4937 6.72656 13.5C6.72656 9.50625 6.72656 9.47344 6.62813 9.34687C6.42188 9.07031 6.31406 9.02344 5.78438 9.00937L5.29219 8.99062L5.325 8.82187C5.55469 7.47656 6.15469 6.34687 7.125 5.42344C7.80938 4.77187 8.52656 4.34062 9.39844 4.05469C10.1297 3.81562 10.6828 3.75 12 3.75C13.3219 3.75 13.8703 3.81562 14.6156 4.05937C15.5438 4.36406 16.3547 4.875 17.0531 5.59687C17.9062 6.48281 18.45 7.55625 18.675 8.82187L18.7078 8.99062L18.2156 9.00937C17.6859 9.02344 17.5781 9.07031 17.3719 9.34687C17.2734 9.47344 17.2734 9.50625 17.2734 13.5C17.2734 17.4937 17.2734 17.5266 17.3719 17.6531C17.5734 17.9297 17.6906 17.9766 18.1875 17.9906L18.6469 18.0094L18.5859 18.1828C18.2203 19.2281 17.3953 19.9594 16.3453 20.175C16.0969 20.2266 15.7313 20.25 15.1219 20.25H14.2594L14.2406 19.7391C14.2266 19.1859 14.1844 19.0781 13.9031 18.8719C13.7203 18.7359 13.2797 18.7359 13.0969 18.8719C12.7781 19.1109 12.7734 19.1203 12.7734 20.25C12.7734 21.3797 12.7781 21.3937 13.0969 21.6281C13.2234 21.7219 13.2844 21.7266 14.8266 21.7266C16.1953 21.7266 16.4766 21.7125 16.7531 21.6422C17.8078 21.375 18.7359 20.7609 19.3547 19.9266C19.6641 19.5141 19.9922 18.8203 20.1 18.3469L20.1891 17.9766L20.4281 17.9484C21.1266 17.8594 21.7313 17.55 22.2984 16.9875C22.6125 16.6734 22.7156 16.5281 22.8938 16.1672C23.2172 15.4875 23.25 15.2531 23.25 13.5C23.25 11.7469 23.2172 11.5125 22.8938 10.8328C22.7156 10.4719 22.6125 10.3266 22.2984 10.0125C21.7406 9.45937 21.1594 9.15469 20.4516 9.05625L20.2266 9.02344L20.1891 8.78906C20.0438 7.88906 19.8094 7.12969 19.4531 6.41719C18.4125 4.32187 16.4906 2.85938 14.1703 2.38594C13.7203 2.29219 13.4953 2.28281 12.1875 2.27344C11.3766 2.26406 10.6359 2.26875 10.5469 2.27812ZM5.25 13.5047V16.5094L4.44375 16.4906C3.73594 16.4766 3.6 16.4578 3.36563 16.3641C2.98594 16.2188 2.61563 15.8625 2.42813 15.4781L2.27344 15.1641V13.5V11.8359L2.42344 11.5266C2.6625 11.0437 3.12188 10.6687 3.63281 10.5422C3.7125 10.5234 4.10625 10.5094 4.51406 10.5047L5.25 10.5V13.5047ZM20.7281 10.6781C21.1125 10.8656 21.4641 11.2359 21.6188 11.6156C21.7266 11.8781 21.7266 11.9156 21.7266 13.5C21.7266 15.0984 21.7266 15.1219 21.6141 15.3984C21.4594 15.7875 21.0328 16.2094 20.6484 16.3594C20.4 16.4578 20.2734 16.4766 19.5609 16.4906L18.75 16.5094V13.5V10.4906L19.5844 10.5094C20.4141 10.5234 20.4188 10.5234 20.7281 10.6781Z" fill="#08908C" stroke="#08908C" stroke-width="0.3"/>
</svg>
