<svg width="56" height="40" viewBox="0 0 56 40" fill="none" xmlns="http://www.w3.org/2000/svg">
<path d="M1.96867 0.607709C1.67336 0.717084 1.25774 1.0124 0.918673 1.35146C-0.07664 2.34677 -7.74315e-05 0.771772 -7.74315e-05 19.9999C-7.74315e-05 39.2171 -0.07664 37.653 0.907735 38.6483C1.93586 39.6765 -0.842264 39.578 27.9999 39.578C56.8421 39.578 54.064 39.6765 55.0921 38.6483C56.0327 37.6968 55.9999 38.0686 55.9999 29.2749V21.6296L55.7265 21.3671C55.3874 21.0171 54.9718 21.0171 54.6327 21.3671L54.3593 21.6296V29.2421C54.3593 37.6421 54.3921 37.2811 53.6702 37.7186C53.3312 37.9374 52.9156 37.9374 28.0218 37.9374C0.0655487 37.9374 2.30774 37.9921 1.8593 37.2483C1.64055 36.9093 1.64055 36.5702 1.64055 20.0218C1.64055 1.38427 1.58586 2.72958 2.32961 2.28115C2.66867 2.0624 3.0843 2.0624 27.9999 2.0624C52.9156 2.0624 53.3312 2.0624 53.6702 2.28115C54.3921 2.71865 54.3593 2.35771 54.3593 10.7577V18.3702L54.6327 18.6327C54.9718 18.9827 55.3874 18.9827 55.7265 18.6327L55.9999 18.3702V10.7249C55.9999 1.93115 56.0327 2.30302 55.0921 1.35146C54.064 0.323334 56.8531 0.421772 27.9562 0.432709C5.02024 0.432709 2.41711 0.454584 1.96867 0.607709Z" fill="#10BAB2"/>
<path d="M6.95625 6.16392C6.35469 6.37173 6.00469 6.6561 5.72031 7.15923L5.46875 7.58579V19.9999V32.4139L5.72031 32.8514C5.99375 33.3327 6.50781 33.7264 7.09844 33.8905C7.66719 34.0436 27.3656 34.0327 27.9453 33.8795C28.5469 33.7155 29.05 33.3108 29.3453 32.7639L29.5859 32.3045L29.6188 20.328C29.6406 11.8186 29.6078 8.18735 29.5203 7.76079C29.3672 6.99517 28.7219 6.31704 27.9781 6.1311C27.2891 5.9561 19.4797 5.94517 19.1078 6.12017C18.8453 6.24048 18.5938 6.63423 18.5938 6.9186C18.5938 6.99517 18.6922 7.19204 18.8234 7.3561L19.0422 7.64048H23.2859C26.775 7.64048 27.5625 7.67329 27.7375 7.7936C27.9453 7.94673 27.9453 8.19829 27.9781 18.403C28 29.417 28.0219 29.078 27.5406 28.7061C27.4313 28.6295 25.8891 28.0061 24.1172 27.317L20.8906 26.0702V25.6436C20.8906 25.2827 20.9672 25.1295 21.4156 24.6592C22.0609 23.9702 22.4547 23.303 22.6844 22.5045C22.8484 21.9467 22.9031 21.8811 23.275 21.7717C23.8656 21.5858 24.4891 21.017 24.7844 20.3936C25.2 19.5077 25.1125 18.742 24.4891 17.7577L24.15 17.2108L24.1609 15.2967C24.1719 14.2467 24.1281 13.1311 24.0625 12.8249C23.8547 11.8514 22.925 11.0311 22.0391 11.0311C21.7438 11.0311 21.6563 10.9874 21.6563 10.8342C21.6563 10.7358 21.5031 10.3967 21.3281 10.0795C21.0766 9.6311 20.8906 9.4561 20.4203 9.22642L19.8297 8.94204L16.45 8.97485L13.0703 9.00767L12.3813 9.37954C11.5281 9.83892 10.8063 10.6264 10.4781 11.4467C10.2484 12.0264 10.2266 12.2233 10.2266 14.5311C10.2266 16.5327 10.2594 17.0577 10.3906 17.3202C10.5547 17.6264 10.5438 17.6811 10.2813 18.1952C9.57031 19.5842 10.2594 21.2686 11.7578 21.7827C12.1188 21.9139 12.1953 21.9905 12.2938 22.417C12.5016 23.1936 12.9172 23.9374 13.5406 24.6045C14.0219 25.1295 14.1094 25.2936 14.1094 25.6545V26.0811L10.7734 27.3717C8.93594 28.0936 7.40469 28.717 7.37188 28.7717C7.33906 28.8155 7.27344 28.8592 7.20781 28.8592C7.07656 28.8592 7.07656 8.07798 7.21875 7.85923C7.30625 7.71704 7.9625 7.68423 11.6922 7.64048C15.9031 7.58579 16.0781 7.57485 16.2313 7.36704C16.5594 6.94048 16.4281 6.40454 15.9578 6.16392C15.5203 5.93423 7.60156 5.93423 6.95625 6.16392ZM19.8188 10.7795C19.9063 10.8889 20.0375 11.1514 20.1141 11.3592C20.3875 12.1795 20.825 12.5295 21.7547 12.6608C22.4766 12.7592 22.5313 12.9124 22.5313 15.0999C22.5313 16.8608 22.5203 16.9374 22.3125 16.9374C21.9844 16.9374 21.6891 16.5764 21.6016 16.0842C21.5141 15.5702 21.2844 15.3295 20.7922 15.2311C20.4641 15.1655 20.3984 15.2092 19.7641 15.8764C18.7688 16.9483 18.8016 16.9374 15.2141 16.9374C12.5234 16.9374 12.1297 16.9155 11.9766 16.7624C11.8234 16.5983 11.8016 16.303 11.8344 14.4327C11.8672 12.4639 11.8891 12.2561 12.1078 11.8295C12.3594 11.3592 12.8625 10.9108 13.3438 10.7139C13.4969 10.6592 14.9297 10.6045 16.6359 10.6045C19.3813 10.5936 19.6656 10.6155 19.8188 10.7795ZM21.3281 19.617C21.3281 21.8374 21.0219 22.8327 20.0703 23.7077C19.2719 24.4405 18.725 24.6483 17.5547 24.6483C16.6578 24.6483 16.4938 24.6155 15.8375 24.2874C14.9625 23.8608 14.3172 23.1717 14 22.3405C13.8141 21.8374 13.7813 21.4874 13.7813 20.1639V18.578H16.1109C18.6813 18.578 19.2172 18.4905 19.9719 17.9436L20.3984 17.6264L20.8688 18.0202L21.3281 18.403V19.617ZM12.1406 19.3436C12.1406 19.9561 12.1078 20.0874 11.9875 20.0436C11.9 20.0108 11.7688 19.8358 11.6922 19.6608C11.5828 19.3764 11.5938 19.267 11.7359 18.9499C12.0203 18.3702 12.1406 18.4905 12.1406 19.3436ZM23.3625 19.2452C23.4063 19.5295 23.3734 19.6936 23.1984 19.8905L22.9797 20.1639L22.9688 19.3436C22.9688 18.6108 22.9906 18.5452 23.1328 18.6983C23.2313 18.7858 23.3297 19.0374 23.3625 19.2452ZM17.5 26.2889C18.0141 26.2889 18.6156 26.2452 18.8453 26.2014C19.25 26.1139 19.25 26.1139 19.25 26.4639C19.25 26.8358 19.8516 27.5467 20.1688 27.5467C20.4422 27.5467 20.3766 27.7217 19.9938 28.0499C19.4578 28.4983 18.6047 28.8483 17.8609 28.9249C16.9859 29.0233 15.8813 28.6952 15.1484 28.1264C14.6672 27.7655 14.6344 27.7108 14.8203 27.6124C15.3234 27.328 15.75 26.803 15.75 26.4639C15.75 26.1139 15.75 26.1139 16.1656 26.2014C16.3844 26.2452 16.9859 26.2889 17.5 26.2889ZM13.4859 28.8264C15.5094 31.1124 19.2719 31.178 21.3828 28.9577C21.7219 28.5967 22.0281 28.3124 22.0719 28.3124C22.2906 28.3124 26.6656 30.0842 27.0047 30.3139C27.6063 30.7186 28.0328 31.3967 27.9453 31.8014C27.9016 31.9874 27.7813 32.1952 27.6719 32.2499C27.5297 32.3264 23.9969 32.3483 17.3906 32.3374C6.28906 32.3045 7.10938 32.3592 7.10938 31.6155C7.10938 31.353 7.21875 31.1342 7.56875 30.7624C7.82031 30.4889 8.12656 30.2155 8.24688 30.1499C8.54219 29.9858 12.8188 28.3233 12.95 28.3124C13.0047 28.3124 13.2453 28.542 13.4859 28.8264Z" fill="#10BAB2"/>
<path d="M33.3594 6.24056C32.6047 6.62337 32.375 7.17024 32.375 8.57024C32.375 9.86087 32.5937 10.4624 33.1625 10.8124C33.5125 11.0312 33.6547 11.0312 41.8031 11.0093L50.0719 10.9765L50.3672 10.7031C50.8922 10.2109 50.9687 9.93743 50.9687 8.53743C50.9687 7.10462 50.8594 6.79837 50.1703 6.28431C49.8641 6.05462 49.7766 6.05462 41.8578 6.02181L33.8516 5.99993L33.3594 6.24056ZM49.3281 8.51556V9.39056H41.6719H34.0156V8.59212C34.0156 8.14368 34.0484 7.74993 34.0922 7.71712C34.125 7.67337 37.5703 7.64056 41.7484 7.64056H49.3281V8.51556Z" fill="#10BAB2"/>
<path d="M32.6482 13.2186C32.3747 13.5249 32.3966 14.0499 32.6919 14.3452C32.8997 14.553 33.0747 14.5858 34.0263 14.6186C35.3279 14.6733 35.8091 14.5968 36.1044 14.3015C36.3779 14.028 36.3669 13.5468 36.0935 13.2405C35.8857 13.0108 35.7654 12.9999 34.3544 12.9999C32.9872 12.9999 32.8232 13.0218 32.6482 13.2186Z" fill="#10BAB2"/>
<path d="M38.139 13.1968C37.8765 13.4921 37.8984 14.1264 38.1828 14.378C38.4015 14.5749 38.6859 14.5858 44.1218 14.6186C47.25 14.6405 49.9843 14.6186 50.1812 14.5858C50.9031 14.4546 51.2203 13.6889 50.75 13.2186C50.5312 12.9999 50.389 12.9999 44.4281 12.9999C38.6421 12.9999 38.3031 13.0108 38.139 13.1968Z" fill="#10BAB2"/>
<path d="M38.1717 16.7188C37.8763 17.0141 37.8873 17.6047 38.1826 17.8781C38.4013 18.075 38.6638 18.0859 44.4826 18.0859H50.5529L50.7607 17.8234C51.0342 17.4953 51.0232 17.0359 50.7498 16.7406L50.5201 16.5H44.4607C38.5326 16.5 38.3904 16.5 38.1717 16.7188Z" fill="#10BAB2"/>
<path d="M32.7247 20.1858C32.5935 20.2952 32.4622 20.5139 32.4185 20.678C32.3638 20.9186 32.4185 21.0499 32.6919 21.3233L33.031 21.6624L34.4638 21.6186C35.8091 21.5858 35.9075 21.5749 36.1044 21.3233C36.3888 20.9733 36.3669 20.5249 36.0607 20.2405C35.831 20.0217 35.6888 19.9999 34.3763 19.9999C33.1732 19.9999 32.9107 20.0327 32.7247 20.1858Z" fill="#10BAB2"/>
<path d="M38.1716 20.2187C37.8435 20.5468 37.8763 21.1265 38.2482 21.4218C38.5326 21.6406 38.5872 21.6406 44.5482 21.6187L50.5529 21.5859L50.7607 21.3234C51.0451 20.9734 51.0232 20.5249 50.7169 20.2406L50.4654 19.9999H44.4279C38.5326 19.9999 38.3904 19.9999 38.1716 20.2187Z" fill="#10BAB2"/>
<path d="M38.1717 23.7188C37.8436 24.0469 37.8764 24.6266 38.2374 24.9109C38.5217 25.1406 38.6202 25.1406 44.4827 25.1406H50.4327L50.6952 24.8672C51.0452 24.5281 51.0561 24.0578 50.717 23.7406L50.4655 23.5H44.428C38.5327 23.5 38.3905 23.5 38.1717 23.7188Z" fill="#10BAB2"/>
<path d="M32.7797 27.1203C32.2766 27.4156 32.3313 28.2688 32.8782 28.5203C33.0313 28.5859 33.7204 28.6406 34.4641 28.6406C35.711 28.6406 35.7875 28.6297 36.0391 28.3672C36.1922 28.225 36.3125 27.9734 36.3125 27.8203C36.3125 27.6672 36.1922 27.4156 36.0391 27.2734C35.7875 27.0109 35.7219 27 34.3766 27C33.6 27 32.8891 27.0547 32.7797 27.1203Z" fill="#10BAB2"/>
<path d="M38.1717 27.2188C37.8436 27.5469 37.8764 28.1266 38.2374 28.4109C38.5217 28.6406 38.6202 28.6406 44.4827 28.6406H50.4327L50.6952 28.3672C51.0452 28.0281 51.0561 27.5578 50.717 27.2406L50.4655 27H44.428C38.5327 27 38.3905 27 38.1717 27.2188Z" fill="#10BAB2"/>
<path d="M38.1937 30.7188C37.8437 31.0469 37.8656 31.6156 38.2375 31.9109C38.5218 32.1406 38.6203 32.1406 44.4828 32.1406H50.4328L50.6953 31.8672C50.8484 31.725 50.9687 31.4734 50.9687 31.3203C50.9687 31.1672 50.8484 30.9156 50.6953 30.7734L50.4328 30.5H44.4281C38.5437 30.5 38.4234 30.5 38.1937 30.7188Z" fill="#10BAB2"/>
</svg>
