<svg width="76" height="80" viewBox="0 0 76 80" fill="none" xmlns="http://www.w3.org/2000/svg">
<rect x="0.5" y="0.5" width="75" height="79" rx="5.5" fill="white" fill-opacity="0.6"/>
<path d="M25.9615 57V49.9H28.4515C29.2449 49.9 29.8349 50.1 30.2215 50.5C30.6082 50.9 30.8015 51.4333 30.8015 52.1C30.8015 52.8267 30.5749 53.3733 30.1215 53.74C29.6749 54.1067 29.0682 54.29 28.3015 54.29H26.8315V57H25.9615ZM26.8315 53.49H28.2215C28.7882 53.49 29.2082 53.3633 29.4815 53.11C29.7549 52.8567 29.8915 52.5133 29.8915 52.08C29.8915 51.6333 29.7549 51.2933 29.4815 51.06C29.2149 50.82 28.8415 50.7 28.3615 50.7H26.8315V53.49ZM39.3071 57L38.7371 56.32C38.2304 56.8133 37.5737 57.06 36.7671 57.06C36.1271 57.06 35.5904 56.8667 35.1571 56.48C34.7237 56.0933 34.5071 55.59 34.5071 54.97C34.5071 54.53 34.6304 54.1267 34.8771 53.76C35.1237 53.3867 35.4504 53.09 35.8571 52.87L34.9971 51.84C35.0504 51.2467 35.2704 50.7633 35.6571 50.39C36.0437 50.0167 36.5271 49.83 37.1071 49.83C37.6271 49.83 38.0604 49.96 38.4071 50.22C38.7604 50.48 39.0171 50.7967 39.1771 51.17L38.4771 51.44C38.2171 50.8667 37.7804 50.5767 37.1671 50.57C36.7737 50.57 36.4671 50.6767 36.2471 50.89C36.0271 51.1033 35.8971 51.3767 35.8571 51.71L38.7471 55.16C39.0004 54.72 39.1271 54.2367 39.1271 53.71L39.9171 53.69C39.9171 54.5033 39.7071 55.21 39.2871 55.81L40.2871 57H39.3071ZM35.3571 54.93C35.3571 55.3233 35.4937 55.6467 35.7671 55.9C36.0471 56.1533 36.4071 56.28 36.8471 56.28C37.4137 56.28 37.8871 56.1067 38.2671 55.76V55.75L36.3571 53.46C36.0437 53.6067 35.7971 53.8133 35.6171 54.08C35.4437 54.3467 35.3571 54.63 35.3571 54.93ZM44.2232 57V49.9H45.0932V56.2H48.6132V57H44.2232Z" fill="#08908C"/>
<g clip-path="url(#clip0_1685_2325)">
<path d="M48.0529 16.1938H49.1261H50.2991H50.3406L50.3699 16.1645L50.5425 15.9918C50.6495 15.8848 50.7187 15.7675 50.7394 15.6371C50.7601 15.5066 50.7301 15.3756 50.662 15.2451L50.6612 15.2435C50.6525 15.2277 50.6377 15.2099 50.6271 15.1973C50.6138 15.1816 50.5962 15.1618 50.5751 15.1386C50.5326 15.0919 50.4735 15.0291 50.4005 14.9526C50.2543 14.7995 50.0506 14.5903 49.8086 14.344C49.3245 13.8513 48.6862 13.2095 48.0459 12.5705C47.4056 11.9315 46.7631 11.295 46.2708 10.8132C46.0247 10.5723 45.8158 10.3698 45.6634 10.2248C45.5873 10.1524 45.5248 10.0939 45.4787 10.0521C45.4557 10.0313 45.4361 10.014 45.4206 10.001C45.4089 9.9911 45.3903 9.97566 45.3735 9.967L45.3724 9.96641C45.3303 9.94538 45.2733 9.9293 45.219 9.91845C45.1635 9.90733 45.1022 9.9 45.0484 9.9C44.9789 9.9 44.9144 9.92846 44.8266 9.9917C44.7391 10.0548 44.6149 10.1626 44.4238 10.3423C44.0403 10.7029 43.3724 11.3669 42.1593 12.5801L41.9863 12.7531C40.6819 14.0574 40.0196 14.7196 39.7046 15.093C39.543 15.2846 39.4577 15.4167 39.4354 15.5317C39.4125 15.6493 39.4587 15.7364 39.4969 15.8083C39.4999 15.8139 39.5028 15.8194 39.5056 15.8248C39.5439 15.9001 39.5824 15.9735 39.6419 16.0308C39.7052 16.0918 39.7842 16.1279 39.8913 16.1504C39.9959 16.1723 40.1343 16.1827 40.3229 16.1881C40.5125 16.1934 40.7591 16.1938 41.0823 16.1938H42.1656V16.9824C42.1656 17.2256 42.163 17.4469 42.1592 17.6072C42.1585 17.6398 42.1576 17.6697 42.1568 17.6968C42.0774 17.6423 41.9716 17.5676 41.8567 17.4852C41.8567 17.4852 41.8567 17.4852 41.8567 17.4852L41.7984 17.5664C41.0062 16.9977 40.0109 16.5863 39.046 16.4188L48.0529 16.1938ZM48.0529 16.1938L48.0429 22.0963V22.0963C48.0421 22.4582 48.0413 22.7989 48.0406 23.1198C48.0351 25.7281 48.0323 27.0231 47.9977 27.6778C47.9879 27.862 47.9755 27.9986 47.9593 28.1009C47.9432 28.2019 47.9223 28.2771 47.8912 28.3335C47.8572 28.3953 47.8139 28.4296 47.7667 28.4527C47.7468 28.4625 47.7263 28.4703 47.7095 28.4766L47.707 28.4775C47.6886 28.4845 47.6724 28.4907 47.6553 28.4987L47.6549 28.4989C47.6053 28.5219 47.544 28.5365 47.4529 28.5471C47.3615 28.5577 47.2336 28.565 47.0473 28.5697C46.6741 28.5793 46.0554 28.5793 45.0022 28.5742L45.002 28.5742L42.5595 28.559L42.5142 28.5587L42.4846 28.5246L42.3171 28.3317C42.2831 28.2927 42.2572 28.2643 42.2367 28.244C42.233 28.2403 42.2296 28.2371 42.2266 28.2343C42.1857 28.2759 42.1206 28.3279 42.0461 28.383C41.9559 28.4497 41.8429 28.5272 41.7202 28.6069C41.4753 28.7662 41.1875 28.9371 40.9596 29.0511C38.7681 30.1545 36.1437 29.9481 34.1383 28.5099C34.0261 28.4301 33.9218 28.3568 33.8431 28.303C33.8422 28.3301 33.8414 28.3601 33.8406 28.3928C33.8368 28.5531 33.8343 28.7744 33.8343 29.0176V29.8063H34.9175C35.2408 29.8063 35.4874 29.8066 35.677 29.8119C35.8655 29.8173 36.004 29.8277 36.1086 29.8496C36.2157 29.8721 36.2947 29.9082 36.358 29.9692C36.4175 30.0265 36.456 30.0999 36.4943 30.1753C36.4971 30.1806 36.5 30.1861 36.5029 30.1917C36.5411 30.2636 36.5874 30.3507 36.5645 30.4683C36.5421 30.5833 36.4568 30.7154 36.2952 30.907C35.9803 31.2804 35.3179 31.9427 34.0134 33.2471C33.957 33.3035 33.8994 33.3611 33.8406 33.4199C32.6274 34.6331 31.9596 35.2971 31.576 35.6577C31.3849 35.8374 31.2608 35.9452 31.1732 36.0083C31.0855 36.0715 31.0209 36.1 30.9515 36.1C30.8977 36.1 30.8364 36.0927 30.7808 36.0816C30.7265 36.0707 30.6696 36.0546 30.6275 36.0336L30.6275 36.0336L30.6263 36.033C30.6095 36.0243 30.591 36.0089 30.5792 35.999C30.5638 35.986 30.5442 35.9687 30.5212 35.9479C30.475 35.9061 30.4126 35.8476 30.3364 35.7752C30.184 35.6302 29.9752 35.4277 29.729 35.1868C29.2367 34.705 28.5942 34.0685 27.9539 33.4295C27.3137 32.7905 26.6753 32.1487 26.1912 31.656C25.9492 31.4097 25.7455 31.2005 25.5994 31.0474C25.5263 30.9709 25.4673 30.9081 25.4248 30.8614C25.4036 30.8382 25.3861 30.8184 25.3728 30.8027C25.3622 30.7901 25.3473 30.7723 25.3387 30.7565L25.3387 30.7565L25.3378 30.7549C25.2698 30.6244 25.2397 30.4934 25.2604 30.3629C25.2811 30.2325 25.3504 30.1152 25.4573 30.0082L25.63 29.8355L25.6593 29.8063H25.7007H26.8738H27.947L27.957 23.8987L27.957 23.8986C27.9578 23.537 27.9585 23.1966 27.9592 22.876C27.9648 20.2697 27.9675 18.9757 28.0022 18.3216C28.0119 18.1375 28.0243 18.001 28.0406 17.8989C28.0566 17.7979 28.0775 17.7228 28.1086 17.6664C28.1427 17.6046 28.186 17.5704 28.2332 17.5472C28.253 17.5375 28.2736 17.5297 28.2904 17.5234L28.2929 17.5225C28.3113 17.5155 28.3275 17.5093 28.3445 17.5013L28.3449 17.5011C28.3945 17.4781 28.4559 17.4635 28.547 17.4529C28.6383 17.4423 28.7662 17.435 28.9526 17.4303C29.3258 17.4207 29.9444 17.4207 30.9977 17.4258H30.9978L33.4455 17.441L33.4919 17.4413L33.5217 17.477L33.674 17.6598L33.7651 17.7691L34.0089 17.5833L34.0093 17.583C34.7211 17.0466 35.5303 16.6603 36.451 16.4185L48.0529 16.1938ZM47.9499 14.9274H47.9499L47.927 14.9281C47.5454 14.9402 47.338 14.9467 47.2116 14.9688C47.1436 14.9807 47.0911 14.9981 47.044 15.0274C46.9996 15.055 46.9654 15.0903 46.9327 15.1242L46.7918 15.26L46.7614 15.2894L46.7613 15.3318L46.746 21.3494V21.3494L46.736 27.2672H45.0839H43.432V27.159C43.432 27.0373 43.4687 26.9362 43.6181 26.712C43.6181 26.7119 43.6182 26.7118 43.6183 26.7117L43.5351 26.6562C44.8503 24.7164 45.0179 22.1773 43.9667 20.0902L47.9499 14.9274ZM47.9499 14.9274L48.5318 14.9092M47.9499 14.9274L48.5318 14.9092M48.5318 14.9092L46.8567 13.2294L46.8565 13.2292L45.084 11.4616L43.3011 13.2445L41.6183 14.9273H42.1488C42.3961 14.9273 42.6042 14.9324 42.7615 14.9428C42.8401 14.948 42.9075 14.9545 42.9615 14.9628C43.011 14.9703 43.0599 14.9806 43.0954 14.9979C43.1633 15.0287 43.2359 15.0646 43.291 15.1413C43.3447 15.2159 43.3737 15.3171 43.3924 15.46C43.4297 15.745 43.432 16.2604 43.432 17.2363V19.0134L48.5318 14.9092ZM45.0027 28.4742C47.1101 28.4844 47.4706 28.4742 47.6128 28.4082C47.6617 28.3853 47.703 28.3754 47.7379 28.3547C47.9428 28.2338 47.9299 27.7439 47.9429 22.0961L45.0027 28.4742ZM39.1717 17.6336L39.1712 17.6335C38.9679 17.5875 38.5749 17.5533 38.1742 17.5394C37.7734 17.5254 37.3805 17.5322 37.1773 17.5637C36.3483 17.6935 35.5042 18.0235 34.8518 18.4667L34.8508 18.4674C34.5175 18.688 33.9308 19.2632 33.5686 19.716L33.5685 19.7161C33.431 19.8874 33.2496 20.2017 33.0854 20.5396C32.9215 20.8769 32.7801 21.2266 32.7191 21.4657L32.719 21.4661C32.419 22.6259 32.4593 23.7941 32.8336 24.8819L32.8337 24.8823C33.262 26.1424 34.2194 27.2494 35.4049 27.8571L35.4051 27.8572C36.2684 28.3013 36.9482 28.4605 37.9999 28.4605C39.0516 28.4605 39.7315 28.3013 40.5948 27.8572L40.5948 27.8572C42.0286 27.1204 43.0318 25.7704 43.3967 24.0708L43.3968 24.0705C43.4373 23.8846 43.4592 23.4482 43.4592 23C43.4592 22.5518 43.4373 22.1154 43.3968 21.9295L43.3967 21.9294C43.1518 20.7997 42.7542 20.0386 41.9379 19.1472L41.9377 19.147C41.2784 18.4233 40.2823 17.8787 39.1717 17.6336ZM32.3251 19.3755L32.3257 19.3746C32.5282 19.0709 32.5679 18.9558 32.5679 18.8359V18.7328H30.9159H29.2638L29.2538 24.6556L29.2538 24.6557L29.2386 30.6784L29.2385 30.7235L29.2046 30.7532L29.0376 30.9L28.8757 31.0468L28.8471 31.0727H28.8085H28.0062H27.4503L29.1331 32.7555L30.916 34.5384L32.6885 32.7708L32.6887 32.7706L34.364 31.0907L33.7971 31.0726L33.7969 31.0726C33.5749 31.0649 33.3627 31.0534 33.199 31.0406C33.1173 31.0342 33.0467 31.0274 32.9927 31.0204C32.9658 31.0169 32.9418 31.0133 32.9221 31.0094C32.9063 31.0063 32.883 31.0012 32.8635 30.9918C32.8 30.9615 32.7362 30.9229 32.6887 30.8416C32.6449 30.7666 32.6203 30.6645 32.6041 30.5205C32.5715 30.2316 32.5679 29.7177 32.5679 28.7688V26.9958L32.3252 26.6246L32.3251 26.6245C31.6036 25.5165 31.2476 24.3194 31.2476 22.9949C31.2476 21.6754 31.6037 20.4834 32.3251 19.3755Z" fill="#08908C" stroke="#08908C" stroke-width="0.2"/>
<path d="M37.6852 19.0695L37.6699 19.6027L37.3348 19.7145C36.5172 19.9887 36.0703 20.5777 36.0703 21.3699C36.0703 22.1875 36.5324 22.6953 37.7461 23.2234C38.4469 23.5281 38.7414 23.7262 38.9242 24.0105C39.0613 24.2238 39.0715 24.2746 39.0562 24.6098C39.041 24.9246 39.0207 24.9957 38.8836 25.1684C38.7973 25.275 38.6145 25.4172 38.4773 25.4883C38.2641 25.6 38.1676 25.6152 37.7461 25.6152C37.2383 25.6102 36.9336 25.5391 36.4613 25.3004L36.2227 25.1836L36.1668 25.3207C36.0602 25.5949 35.9688 25.859 35.9688 25.8945C35.9688 25.9148 36.1211 26.0012 36.3141 26.0875C36.6187 26.2246 36.827 26.2805 37.4566 26.377L37.6445 26.4074V26.9355V27.4688H37.9746H38.3047V26.9152V26.3617L38.65 26.2551C39.2848 26.0621 39.7113 25.6762 39.9348 25.0922C40.0211 24.8535 40.0363 24.7215 40.0211 24.3711C39.9957 23.9191 39.9094 23.6754 39.6402 23.3199C39.4574 23.0762 38.909 22.7309 38.2844 22.4617C37.4008 22.0758 37.0859 21.8117 37.0047 21.3902C36.9234 20.9688 37.2637 20.4813 37.7105 20.3645C38.1727 20.2527 38.7465 20.3188 39.2543 20.5422C39.5031 20.6488 39.5285 20.6539 39.5641 20.5727C39.6656 20.3797 39.7926 19.9531 39.7672 19.9227C39.6809 19.8414 39.0105 19.6383 38.7262 19.6129L38.4062 19.5824V19.0594V18.5312H38.0508H37.7004L37.6852 19.0695Z" fill="#08908C"/>
</g>
<rect x="0.5" y="0.5" width="75" height="79" rx="5.5" stroke="white"/>
<defs>
<clipPath id="clip0_1685_2325">
<rect width="26" height="26" fill="white" transform="translate(25 10)"/>
</clipPath>
</defs>
</svg>
