<svg width="26" height="26" viewBox="0 0 26 26" fill="none" xmlns="http://www.w3.org/2000/svg">
<path d="M23.0529 6.19375H24.1261H25.2991H25.3406L25.3699 6.16446L25.5425 5.99181C25.6495 5.88482 25.7187 5.76753 25.7394 5.63714C25.7601 5.50657 25.7301 5.37561 25.662 5.24515L25.6612 5.24351C25.6525 5.2277 25.6377 5.20985 25.6271 5.19729C25.6138 5.18159 25.5962 5.16181 25.5751 5.13856C25.5326 5.09194 25.4735 5.02907 25.4005 4.9526C25.2543 4.79953 25.0506 4.59028 24.8086 4.34399C24.3245 3.85134 23.6862 3.20951 23.0459 2.57048C22.4056 1.93145 21.7631 1.29501 21.2708 0.813158C21.0247 0.572275 20.8158 0.369772 20.6634 0.224821C20.5873 0.152407 20.5248 0.0939445 20.4787 0.0521107C20.4557 0.0312557 20.4361 0.0139828 20.4206 0.000984192C20.4089 -0.0089035 20.3903 -0.024334 20.3735 -0.0330009L20.3724 -0.0335903C20.3303 -0.0546246 20.2733 -0.0706997 20.219 -0.0815525C20.1635 -0.0926685 20.1022 -0.0999985 20.0484 -0.0999985C19.9789 -0.0999985 19.9144 -0.0715332 19.8266 -0.00829887C19.7391 0.0547676 19.6149 0.162594 19.4238 0.342281C19.0403 0.702885 18.3724 1.36695 17.1593 2.58007L16.9865 2.75289C15.6819 4.05731 15.0196 4.71961 14.7046 5.093C14.543 5.28461 14.4577 5.41668 14.4354 5.53171C14.4125 5.64934 14.4587 5.73642 14.4969 5.80833C14.4999 5.81389 14.5028 5.81936 14.5056 5.82475C14.5439 5.90009 14.5824 5.97346 14.6419 6.03079C14.7052 6.09179 14.7842 6.12786 14.8913 6.15036C14.9959 6.17233 15.1343 6.18274 15.3229 6.18808C15.5125 6.19344 15.7591 6.19375 16.0823 6.19375H17.1656V6.98242C17.1656 7.22557 17.163 7.44694 17.1592 7.60721C17.1585 7.6398 17.1576 7.66974 17.1568 7.69675C17.0774 7.64231 16.9716 7.56758 16.8567 7.48517C16.8567 7.48517 16.8567 7.48516 16.8567 7.48515L16.7984 7.56641C16.0062 6.99766 15.0109 6.58633 14.046 6.41875C13.3198 6.29688 12.1417 6.3375 11.4765 6.51524C10.5675 6.75391 9.77024 7.13477 9.06946 7.66289L23.0529 6.19375ZM23.0529 6.19375L23.0429 12.0963V12.0963C23.0421 12.4582 23.0413 12.7989 23.0406 13.1198C23.0351 15.7281 23.0323 17.0231 22.9977 17.6778C22.9879 17.862 22.9755 17.9986 22.9593 18.1009C22.9432 18.2019 22.9223 18.2771 22.8912 18.3335C22.8572 18.3953 22.8139 18.4296 22.7667 18.4527C22.7468 18.4625 22.7263 18.4703 22.7095 18.4766L22.707 18.4775C22.6886 18.4845 22.6724 18.4907 22.6553 18.4987L22.6549 18.4989C22.6053 18.5219 22.544 18.5365 22.4529 18.5471C22.3615 18.5577 22.2336 18.565 22.0473 18.5697C21.6741 18.5793 21.0554 18.5793 20.0022 18.5742L20.002 18.5742L17.5595 18.559L17.5142 18.5587L17.4846 18.5246L17.3171 18.3317C17.3171 18.3317 17.3171 18.3317 17.3171 18.3316C17.2831 18.2927 17.2572 18.2643 17.2367 18.244C17.233 18.2403 17.2296 18.2371 17.2266 18.2343C17.1857 18.2759 17.1206 18.3279 17.0461 18.383C16.9559 18.4497 16.8429 18.5272 16.7202 18.6069C16.4753 18.7662 16.1875 18.9371 15.9596 19.0511C13.7681 20.1545 11.1437 19.9481 9.13831 18.5099C9.02615 18.4301 8.92179 18.3568 8.84307 18.303C8.84222 18.3301 8.84139 18.3601 8.84062 18.3928C8.83684 18.5531 8.8343 18.7744 8.8343 19.0176V19.8063H9.91751C10.2408 19.8063 10.4874 19.8066 10.677 19.8119C10.8655 19.8173 11.004 19.8277 11.1086 19.8496C11.2157 19.8721 11.2947 19.9082 11.358 19.9692C11.4175 20.0265 11.456 20.0999 11.4943 20.1753C11.4971 20.1806 11.5 20.1861 11.5029 20.1917C11.5411 20.2636 11.5874 20.3507 11.5645 20.4683C11.5421 20.5833 11.4568 20.7154 11.2952 20.907C10.9803 21.2804 10.3179 21.9427 9.01342 23.2471C8.95701 23.3035 8.8994 23.3611 8.84056 23.4199C7.62744 24.6331 6.95958 25.2971 6.57604 25.6577C6.38493 25.8374 6.26078 25.9452 6.17324 26.0083C6.08546 26.0715 6.02092 26.1 5.95149 26.1C5.8977 26.1 5.83638 26.0927 5.78081 26.0816C5.72654 26.0707 5.66956 26.0546 5.62747 26.0336L5.62747 26.0336L5.62633 26.033C5.60954 26.0243 5.591 26.0089 5.57923 25.999C5.56376 25.986 5.5442 25.9687 5.52119 25.9479C5.47503 25.9061 5.41256 25.8476 5.33643 25.7752C5.18403 25.6302 4.97517 25.4277 4.72905 25.1868C4.23671 24.705 3.59424 24.0685 2.95395 23.4295C2.31365 22.7905 1.67531 22.1487 1.19123 21.656C0.949233 21.4097 0.74554 21.2005 0.599361 21.0474C0.52633 20.9709 0.467252 20.9081 0.424798 20.8614C0.403627 20.8382 0.386066 20.8184 0.372785 20.8027C0.36216 20.7901 0.347335 20.7723 0.338702 20.7565L0.338687 20.7565L0.337833 20.7549C0.269768 20.6244 0.23974 20.4934 0.26044 20.3629C0.281111 20.2325 0.350359 20.1152 0.457343 20.0082L0.63 19.8355L0.659289 19.8063H0.70071H1.87376H2.94697L2.95696 13.8987L2.95696 13.8986C2.95779 13.5371 2.95852 13.1966 2.9592 12.876C2.96477 10.2697 2.96753 8.97569 3.00217 8.32157C3.01191 8.13751 3.02431 8.00103 3.04057 7.89886C3.05663 7.79795 3.07755 7.72278 3.10863 7.66637C3.14266 7.60459 3.18601 7.57039 3.23322 7.54724C3.25304 7.53752 3.27362 7.52974 3.29035 7.52341L3.29287 7.52246C3.31126 7.5155 3.32749 7.50928 3.34452 7.50128L3.34493 7.5011C3.39453 7.47807 3.45588 7.46346 3.54696 7.45287C3.63831 7.44226 3.76622 7.43504 3.95259 7.43026C4.32577 7.42069 4.94445 7.42071 5.99768 7.42578H5.99782L8.44547 7.44102L8.49193 7.44131L8.52167 7.477L8.67402 7.65981L8.76508 7.76908L9.00885 7.58335L9.00927 7.58303C9.721 7.04666 10.5301 6.66039 11.4507 6.41862L23.0529 6.19375ZM20.0027 18.4742C22.1101 18.4844 22.4706 18.4742 22.6128 18.4082C22.6617 18.3853 22.703 18.3754 22.7379 18.3547C22.9428 18.2338 22.9299 17.7439 22.9429 12.0961L20.0027 18.4742ZM22.9499 4.92739L22.9499 4.92739L23.5318 4.90921L21.8567 3.2294L21.8565 3.22921L20.084 1.46164L18.3011 3.24454L16.6183 4.92735H17.1488C17.3961 4.92735 17.6042 4.93243 17.7615 4.94279C17.8401 4.94797 17.9075 4.95455 17.9615 4.96276C18.011 4.97029 18.0598 4.98061 18.0954 4.99784C18.1633 5.02865 18.2359 5.0646 18.291 5.1413C18.3447 5.21586 18.3737 5.31711 18.3924 5.45999C18.4297 5.74501 18.432 6.26042 18.432 7.23633V9.01344L18.6179 9.28763L18.6183 9.28828C18.7327 9.45989 18.9275 9.79845 19.0554 10.044L19.056 10.0453C20.1235 12.1648 19.9534 14.7424 18.6181 16.712C18.4687 16.9362 18.432 17.0373 18.432 17.159V17.2672H20.0839H21.736L21.746 11.3494V11.3494L21.7613 5.33178L21.7614 5.28944L21.7918 5.26005L21.9327 5.12423C21.9654 5.09029 21.9996 5.05503 22.044 5.02742C22.0911 4.99813 22.1436 4.98069 22.2116 4.96882C22.338 4.94674 22.5454 4.94019 22.9271 4.92812L22.9499 4.92739ZM14.1717 7.63359L14.1712 7.63347C13.9679 7.58748 13.5749 7.55334 13.1742 7.53939C12.7735 7.52544 12.3807 7.53223 12.1775 7.56364C11.3484 7.69349 10.5043 8.02344 9.85183 8.46671L9.85082 8.46738C9.51749 8.68796 8.93083 9.26325 8.56864 9.71599L8.56853 9.71612C8.43101 9.88742 8.24957 10.2017 8.08538 10.5396C7.92146 10.8769 7.78011 11.2266 7.71909 11.4657L7.71901 11.4661C7.41904 12.6259 7.45932 13.7941 7.83355 14.8819L7.83367 14.8823C8.26201 16.1424 9.21938 17.2494 10.4049 17.8571L10.405 17.8572C11.2684 18.3013 11.9482 18.4605 12.9999 18.4605C14.0516 18.4605 14.7315 18.3013 15.5948 17.8572L15.5948 17.8572C17.0286 17.1204 18.0318 15.7704 18.3967 14.0708L18.3968 14.0705C18.4373 13.8846 18.4592 13.4482 18.4592 13C18.4592 12.5518 18.4373 12.1154 18.3968 11.9295L18.3967 11.9294C18.1518 10.7997 17.7542 10.0386 16.9379 9.14722L16.9377 9.14703C16.2784 8.42328 15.2823 7.87872 14.1717 7.63359ZM18.4945 11.9082C18.5808 12.3043 18.5808 13.6957 18.4945 14.0918L14.1933 7.53594C15.3206 7.78477 16.3363 8.33828 17.0116 9.07969C17.8394 9.98359 18.2456 10.7605 18.4945 11.9082ZM7.62219 11.441C7.74915 10.9434 8.2011 10.0141 8.49055 9.65352L10.3593 17.9461C9.15071 17.3266 8.17571 16.1992 7.73899 14.9145C7.35813 13.8074 7.31751 12.6191 7.62219 11.441ZM7.32511 9.37551L7.32571 9.37461C7.52818 9.07091 7.5679 8.9558 7.5679 8.83594V8.73281H5.91594H4.26382L4.25383 14.6556L4.25383 14.6557L4.2386 20.6784L4.23849 20.7235L4.20461 20.7532L4.03759 20.9L3.87567 21.0468L3.84709 21.0727H3.80852H3.00618H2.45034L4.13314 22.7555L5.91604 24.5384L7.6885 22.7708L7.68869 22.7706L9.364 21.0907L8.79714 21.0726L8.79687 21.0726C8.5749 21.0649 8.36266 21.0534 8.19899 21.0406C8.1173 21.0342 8.04673 21.0274 7.99272 21.0204C7.96581 21.0169 7.94182 21.0133 7.92208 21.0094C7.90635 21.0063 7.88304 21.0012 7.8635 20.9918C7.79997 20.9615 7.73622 20.9229 7.68869 20.8416C7.64485 20.7666 7.62029 20.6645 7.60407 20.5205C7.57154 20.2316 7.5679 19.7177 7.5679 18.7688V16.9958L7.32522 16.6246L7.32511 16.6245C6.60361 15.5165 6.24758 14.3194 6.24758 12.9949C6.24758 11.6754 6.60368 10.4834 7.32511 9.37551Z" fill="#08908C" stroke="#08908C" stroke-width="0.2"/>
<path d="M12.6852 9.06953L12.6699 9.60273L12.3348 9.71445C11.5172 9.98867 11.0703 10.5777 11.0703 11.3699C11.0703 12.1875 11.5324 12.6953 12.7461 13.2234C13.4469 13.5281 13.7414 13.7262 13.9242 14.0105C14.0613 14.2238 14.0715 14.2746 14.0562 14.6098C14.041 14.9246 14.0207 14.9957 13.8836 15.1684C13.7973 15.275 13.6145 15.4172 13.4773 15.4883C13.2641 15.6 13.1676 15.6152 12.7461 15.6152C12.2383 15.6102 11.9336 15.5391 11.4613 15.3004L11.2227 15.1836L11.1668 15.3207C11.0602 15.5949 10.9688 15.859 10.9688 15.8945C10.9688 15.9148 11.1211 16.0012 11.3141 16.0875C11.6187 16.2246 11.827 16.2805 12.4566 16.377L12.6445 16.4074V16.9355V17.4688H12.9746H13.3047V16.9152V16.3617L13.65 16.2551C14.2848 16.0621 14.7113 15.6762 14.9348 15.0922C15.0211 14.8535 15.0363 14.7215 15.0211 14.3711C14.9957 13.9191 14.9094 13.6754 14.6402 13.3199C14.4574 13.0762 13.909 12.7309 13.2844 12.4617C12.4008 12.0758 12.0859 11.8117 12.0047 11.3902C11.9234 10.9688 12.2637 10.4813 12.7105 10.3645C13.1727 10.2527 13.7465 10.3188 14.2543 10.5422C14.5031 10.6488 14.5285 10.6539 14.5641 10.5727C14.6656 10.3797 14.7926 9.95313 14.7672 9.92266C14.6809 9.84141 14.0105 9.63828 13.7262 9.61289L13.4062 9.58242V9.05938V8.53125H13.0508H12.7004L12.6852 9.06953Z" fill="#08908C"/>
</svg>
