<svg width="124" height="60" viewBox="0 0 124 60" fill="none" xmlns="http://www.w3.org/2000/svg">
<g clip-path="url(#clip0_715_509)">
<path fill-rule="evenodd" clip-rule="evenodd" d="M-0.526306 30.9244C-0.526306 30.1977 0.0627932 29.6086 0.789484 29.6086H41.579C42.3057 29.6086 42.8948 30.1977 42.8948 30.9244V40.135C42.8948 40.8617 42.3057 41.4508 41.579 41.4508H0.789484C0.0627932 41.4508 -0.526306 40.8617 -0.526306 40.135V30.9244ZM2.10527 32.2402V38.8192H40.2632V32.2402H2.10527Z" fill="#10BAB2"/>
<path fill-rule="evenodd" clip-rule="evenodd" d="M7.36869 51.9771C9.54876 51.9771 11.3161 50.2098 11.3161 48.0297C11.3161 45.8496 9.54876 44.0823 7.36869 44.0823C5.18861 44.0823 3.42131 45.8496 3.42131 48.0297C3.42131 50.2098 5.18861 51.9771 7.36869 51.9771ZM7.36869 54.6086C11.0021 54.6086 13.9476 51.6632 13.9476 48.0297C13.9476 44.3962 11.0021 41.4507 7.36869 41.4507C3.73523 41.4507 0.789734 44.3962 0.789734 48.0297C0.789734 51.6632 3.73523 54.6086 7.36869 54.6086Z" fill="#10BAB2"/>
<path fill-rule="evenodd" clip-rule="evenodd" d="M34.9997 51.9771C37.1798 51.9771 38.9471 50.2098 38.9471 48.0297C38.9471 45.8496 37.1798 44.0823 34.9997 44.0823C32.8197 44.0823 31.0524 45.8496 31.0524 48.0297C31.0524 50.2098 32.8197 51.9771 34.9997 51.9771ZM34.9997 54.6086C38.6332 54.6086 41.5787 51.6632 41.5787 48.0297C41.5787 44.3962 38.6332 41.4507 34.9997 41.4507C31.3663 41.4507 28.4208 44.3962 28.4208 48.0297C28.4208 51.6632 31.3663 54.6086 34.9997 54.6086Z" fill="#10BAB2"/>
<path d="M17.8951 25.0035C17.8951 26.8202 16.4223 28.293 14.6056 28.293C12.7888 28.293 11.3161 26.8202 11.3161 25.0035C11.3161 23.1868 12.7888 21.714 14.6056 21.714C16.4223 21.714 17.8951 23.1868 17.8951 25.0035Z" fill="#10BAB2"/>
<path d="M27.1054 25.0035C27.1054 26.8202 25.6327 28.293 23.816 28.293C21.9992 28.293 20.5265 26.8202 20.5265 25.0035C20.5265 23.1868 21.9992 21.714 23.816 21.714C25.6327 21.714 27.1054 23.1868 27.1054 25.0035Z" fill="#10BAB2"/>
<path d="M36.3158 25.0035C36.3158 26.8202 34.843 28.293 33.0263 28.293C31.2096 28.293 29.7368 26.8202 29.7368 25.0035C29.7368 23.1868 31.2096 21.714 33.0263 21.714C34.843 21.714 36.3158 23.1868 36.3158 25.0035Z" fill="#10BAB2"/>
<path d="M32.3683 18.4246C32.3683 20.2413 30.8956 21.714 29.0788 21.714C27.2621 21.714 25.7894 20.2413 25.7894 18.4246C25.7894 16.6078 27.2621 15.1351 29.0788 15.1351C30.8956 15.1351 32.3683 16.6078 32.3683 18.4246Z" fill="#10BAB2"/>
<path d="M23.1579 18.4246C23.1579 20.2413 21.6852 21.714 19.8685 21.714C18.0517 21.714 16.579 20.2413 16.579 18.4246C16.579 16.6078 18.0517 15.1351 19.8685 15.1351C21.6852 15.1351 23.1579 16.6078 23.1579 18.4246Z" fill="#10BAB2"/>
<path d="M28.4215 11.8453C28.4215 13.6621 26.9487 15.1348 25.132 15.1348C23.3153 15.1348 21.8425 13.6621 21.8425 11.8453C21.8425 10.0286 23.3153 8.55585 25.132 8.55585C26.9487 8.55585 28.4215 10.0286 28.4215 11.8453Z" fill="#10BAB2"/>
<path d="M57.3688 10.5297C57.3688 13.7999 54.7179 16.4508 51.4478 16.4508C48.1777 16.4508 45.5267 13.7999 45.5267 10.5297C45.5267 7.25964 48.1777 4.60869 51.4478 4.60869C54.7179 4.60869 57.3688 7.25964 57.3688 10.5297Z" fill="#10BAB2"/>
<path d="M44.2107 25.6613C44.2107 21.3011 47.7453 17.7665 52.1054 17.7665C56.4656 17.7665 60.0002 21.3011 60.0002 25.6613V44.0823H44.2107V25.6613Z" fill="#10BAB2"/>
<path d="M46.8422 44.0825H50.7895V54.6088H46.8422V44.0825Z" fill="#10BAB2"/>
<path d="M53.4211 44.0825H57.3685V54.6088H53.4211V44.0825Z" fill="#10BAB2"/>
<path d="M48.2686 26.2948C49.2889 25.2182 51.1258 25.3025 52.3715 26.483C53.6171 27.6636 53.7998 29.4933 52.7794 30.5699L46.6213 37.0677C45.6009 38.1442 43.764 38.0599 42.5184 36.8794C41.2727 35.6988 41.0901 33.8691 42.1104 32.7925L48.2686 26.2948Z" fill="white"/>
<path fill-rule="evenodd" clip-rule="evenodd" d="M51.8244 29.6648L45.6662 36.1625C45.2652 36.5857 44.2772 36.7335 43.4235 35.9244C42.5698 35.1153 42.6644 34.1207 43.0654 33.6976L49.2236 27.1999C49.6246 26.7767 50.6126 26.6289 51.4664 27.438C52.3201 28.2471 52.2254 29.2417 51.8244 29.6648Z" fill="#10BAB2"/>
</g>
<path d="M83.2422 1.125C82.2813 1.875 82.6094 3.51562 83.8047 3.98438C84.086 4.125 83.1485 4.19531 81.3906 4.19531C78.1797 4.21875 77.9219 4.38281 79.6563 5.34375C81.9063 6.60938 88.8906 7.42969 95.3125 7.17188C99.1563 7.03125 99.3203 7.05469 99.5313 7.5C99.6485 7.75781 100.961 9.35156 102.438 11.0391C103.914 12.7266 105.133 14.2031 105.133 14.3203C105.133 14.4375 103.773 15.3516 102.133 16.4062L99.1328 18.2812H92.8047C85.6094 18.2812 85.8203 18.2344 83.9922 20.2266C80.9453 23.5781 79.4453 28.9219 79.961 34.7344C80.1953 37.5469 80.5235 38.8359 81.1094 39.1406C81.8828 39.5625 82.8672 39.4219 83.4297 38.8125L83.9688 38.2266L83.6875 35.1094C83.4531 32.6484 83.4297 31.5938 83.6641 30.0469C84.1094 26.9766 85.3516 23.9062 86.6406 22.7109L87.2031 22.1953V23.0156C87.2031 23.4844 86.3594 28.1953 85.3281 33.4688C84.2969 38.7656 83.4531 43.1953 83.4531 43.3359C83.4531 43.5 84.1328 43.5938 85.3281 43.5938H87.2031V50.9766C87.2031 58.0547 87.2266 58.3828 87.6719 58.8281C88.3047 59.4609 89.5703 59.4375 90.1563 58.8047C90.5781 58.3359 90.6016 57.7969 90.6719 50.9531L90.7422 43.5938H93.0625H95.4063V50.9766C95.4063 58.0547 95.4297 58.3828 95.875 58.8281C96.5781 59.5313 97.8203 59.4609 98.4297 58.6875C98.8985 58.0781 98.9219 57.7969 98.9219 50.8359V43.5938H100.656C101.617 43.5938 102.461 43.5234 102.508 43.4297C102.555 43.3125 101.781 39.0703 100.773 33.9844C98.9219 24.5625 98.5938 22.0312 99.2735 22.0312C99.7891 22.0312 109.211 15.9609 109.469 15.4688C109.609 15.2344 109.703 14.8359 109.703 14.5781C109.703 14.3203 108.18 12.4219 106.305 10.2891L102.906 6.46875L104.664 5.97656C106.305 5.50781 107.359 4.89844 107.359 4.40625C107.359 4.3125 106.023 4.21875 104.383 4.19531C102.719 4.19531 101.547 4.125 101.734 4.05469C102.484 3.77344 102.906 3.1875 102.906 2.41406C102.906 1.45312 102.203 0.703125 101.289 0.703125C99.3672 0.703125 98.875 3.28125 100.68 3.98438C100.961 4.125 100.094 4.19531 98.4531 4.19531C96.9766 4.17188 95.9219 4.125 96.1094 4.05469C96.8594 3.77344 97.2813 3.1875 97.2813 2.41406C97.2813 1.45312 96.5781 0.703125 95.6641 0.703125C93.7422 0.703125 93.25 3.28125 95.0547 3.98438C95.336 4.125 94.4688 4.19531 92.8281 4.19531C91.3516 4.17188 90.2969 4.125 90.4844 4.05469C91.2344 3.77344 91.6563 3.1875 91.6563 2.41406C91.6563 1.45312 90.9531 0.703125 90.0391 0.703125C88.1172 0.703125 87.625 3.28125 89.4297 3.98438C89.711 4.125 88.8438 4.19531 87.2031 4.19531C85.7266 4.17188 84.6719 4.125 84.8594 4.05469C85.6094 3.77344 86.0313 3.1875 86.0313 2.41406C86.0313 0.9375 84.3906 0.164062 83.2422 1.125Z" fill="#10BAB2"/>
<path d="M90.9297 8.03906C88.211 9.49219 87.6016 12.8438 89.6172 15.1641C90.5547 16.2188 91.5391 16.6406 93.0625 16.6406C95.6641 16.6406 97.5157 14.7891 97.5157 12.2109C97.5157 10.7813 97.211 9.9375 96.3907 9.04688C94.9375 7.5 92.7344 7.10156 90.9297 8.03906Z" fill="#10BAB2"/>
<defs>
<clipPath id="clip0_715_509">
<rect width="60" height="60" fill="white"/>
</clipPath>
</defs>
</svg>
