<svg width="60" height="60" viewBox="0 0 60 60" fill="none" xmlns="http://www.w3.org/2000/svg">
<g clip-path="url(#clip0_1_1159)">
<path fill-rule="evenodd" clip-rule="evenodd" d="M-0.526337 30.9244C-0.526337 30.1977 0.0627627 29.6086 0.789454 29.6086H41.579C42.3056 29.6086 42.8947 30.1977 42.8947 30.9244V40.135C42.8947 40.8617 42.3056 41.4508 41.579 41.4508H0.789454C0.0627627 41.4508 -0.526337 40.8617 -0.526337 40.135V30.9244ZM2.10524 32.2402V38.8192H40.2632V32.2402H2.10524Z" fill="#10BAB2"/>
<path fill-rule="evenodd" clip-rule="evenodd" d="M7.36865 51.9771C9.54872 51.9771 11.316 50.2098 11.316 48.0297C11.316 45.8496 9.54872 44.0823 7.36865 44.0823C5.18857 44.0823 3.42128 45.8496 3.42128 48.0297C3.42128 50.2098 5.18857 51.9771 7.36865 51.9771ZM7.36865 54.6086C11.0021 54.6086 13.9476 51.6632 13.9476 48.0297C13.9476 44.3962 11.0021 41.4507 7.36865 41.4507C3.73519 41.4507 0.789696 44.3962 0.789696 48.0297C0.789696 51.6632 3.73519 54.6086 7.36865 54.6086Z" fill="#10BAB2"/>
<path fill-rule="evenodd" clip-rule="evenodd" d="M34.9997 51.9771C37.1798 51.9771 38.9471 50.2098 38.9471 48.0297C38.9471 45.8496 37.1798 44.0823 34.9997 44.0823C32.8197 44.0823 31.0524 45.8496 31.0524 48.0297C31.0524 50.2098 32.8197 51.9771 34.9997 51.9771ZM34.9997 54.6086C38.6332 54.6086 41.5787 51.6632 41.5787 48.0297C41.5787 44.3962 38.6332 41.4507 34.9997 41.4507C31.3663 41.4507 28.4208 44.3962 28.4208 48.0297C28.4208 51.6632 31.3663 54.6086 34.9997 54.6086Z" fill="#10BAB2"/>
<path d="M17.895 25.0035C17.895 26.8202 16.4223 28.293 14.6056 28.293C12.7888 28.293 11.3161 26.8202 11.3161 25.0035C11.3161 23.1868 12.7888 21.714 14.6056 21.714C16.4223 21.714 17.895 23.1868 17.895 25.0035Z" fill="#10BAB2"/>
<path d="M27.1054 25.0035C27.1054 26.8202 25.6326 28.293 23.8159 28.293C21.9992 28.293 20.5264 26.8202 20.5264 25.0035C20.5264 23.1868 21.9992 21.714 23.8159 21.714C25.6326 21.714 27.1054 23.1868 27.1054 25.0035Z" fill="#10BAB2"/>
<path d="M36.3158 25.0035C36.3158 26.8202 34.843 28.293 33.0263 28.293C31.2096 28.293 29.7368 26.8202 29.7368 25.0035C29.7368 23.1868 31.2096 21.714 33.0263 21.714C34.843 21.714 36.3158 23.1868 36.3158 25.0035Z" fill="#10BAB2"/>
<path d="M32.3683 18.4246C32.3683 20.2413 30.8955 21.714 29.0788 21.714C27.2621 21.714 25.7893 20.2413 25.7893 18.4246C25.7893 16.6078 27.2621 15.1351 29.0788 15.1351C30.8955 15.1351 32.3683 16.6078 32.3683 18.4246Z" fill="#10BAB2"/>
<path d="M23.1579 18.4246C23.1579 20.2413 21.6852 21.714 19.8684 21.714C18.0517 21.714 16.579 20.2413 16.579 18.4246C16.579 16.6078 18.0517 15.1351 19.8684 15.1351C21.6852 15.1351 23.1579 16.6078 23.1579 18.4246Z" fill="#10BAB2"/>
<path d="M28.4214 11.8453C28.4214 13.6621 26.9487 15.1348 25.132 15.1348C23.3152 15.1348 21.8425 13.6621 21.8425 11.8453C21.8425 10.0286 23.3152 8.55585 25.132 8.55585C26.9487 8.55585 28.4214 10.0286 28.4214 11.8453Z" fill="#10BAB2"/>
<path d="M57.3688 10.5297C57.3688 13.7999 54.7179 16.4508 51.4478 16.4508C48.1777 16.4508 45.5267 13.7999 45.5267 10.5297C45.5267 7.25964 48.1777 4.60869 51.4478 4.60869C54.7179 4.60869 57.3688 7.25964 57.3688 10.5297Z" fill="#10BAB2"/>
<path d="M44.2107 25.6613C44.2107 21.3011 47.7453 17.7665 52.1054 17.7665C56.4656 17.7665 60.0002 21.3011 60.0002 25.6613V44.0823H44.2107V25.6613Z" fill="#10BAB2"/>
<path d="M46.8421 44.0825H50.7895V54.6088H46.8421V44.0825Z" fill="#10BAB2"/>
<path d="M53.421 44.0825H57.3684V54.6088H53.421V44.0825Z" fill="#10BAB2"/>
<path d="M48.2686 26.2948C49.2889 25.2182 51.1258 25.3025 52.3715 26.483C53.6171 27.6636 53.7998 29.4933 52.7794 30.5699L46.6213 37.0677C45.6009 38.1442 43.764 38.0599 42.5184 36.8794C41.2727 35.6988 41.0901 33.8691 42.1104 32.7925L48.2686 26.2948Z" fill="white"/>
<path fill-rule="evenodd" clip-rule="evenodd" d="M51.8244 29.6648L45.6662 36.1625C45.2652 36.5857 44.2772 36.7335 43.4235 35.9244C42.5698 35.1153 42.6644 34.1207 43.0654 33.6976L49.2236 27.1999C49.6246 26.7767 50.6126 26.6289 51.4663 27.438C52.32 28.2471 52.2254 29.2417 51.8244 29.6648Z" fill="#10BAB2"/>
</g>
<defs>
<clipPath id="clip0_1_1159">
<rect width="60" height="60" fill="white"/>
</clipPath>
</defs>
</svg>
