<svg width="24" height="24" viewBox="0 0 24 24" fill="none" xmlns="http://www.w3.org/2000/svg">
<g clip-path="url(#clip0_386_614)">
<path d="M7.33984 18.1402C7.33984 18.374 7.43272 18.5982 7.59805 18.7635C7.76338 18.9289 7.98761 19.0217 8.22142 19.0217C8.45523 19.0217 8.67946 18.9289 8.84479 18.7635C9.01012 18.5982 9.103 18.374 9.103 18.1402V17.5254H7.33984V18.1402Z" fill="white"/>
<path d="M21.3846 17.3803C21.5207 17.4547 21.6347 17.5636 21.7153 17.6962C21.7958 17.8287 21.8399 17.9802 21.8432 18.1352C21.8465 18.2903 21.8089 18.4434 21.734 18.5793C21.6592 18.7151 21.5499 18.8289 21.4171 18.909C21.2843 18.9891 21.1327 19.0327 20.9777 19.0355C20.8226 19.0383 20.6696 19.0002 20.5339 18.925C20.3983 18.8497 20.285 18.74 20.2053 18.607C20.1256 18.474 20.0824 18.3222 20.0801 18.1672C20.0874 17.9917 20.1438 17.8219 20.2431 17.677C20.3423 17.5321 20.4802 17.418 20.6412 17.3478C21 17.2005 21.3296 17.3536 21.3846 17.3803Z" fill="white"/>
<path d="M1.45172 8.62882H4.11891C4.21215 8.62882 4.30157 8.59178 4.3675 8.52585C4.43343 8.45992 4.47047 8.3705 4.47047 8.27726C4.47047 8.18402 4.43343 8.0946 4.3675 8.02866C4.30157 7.96273 4.21215 7.92569 4.11891 7.92569H1.45172C1.35848 7.92569 1.26906 7.96273 1.20313 8.02866C1.1372 8.0946 1.10016 8.18402 1.10016 8.27726C1.10016 8.3705 1.1372 8.45992 1.20313 8.52585C1.26906 8.59178 1.35848 8.62882 1.45172 8.62882ZM0.748594 10.0351H4.11891C4.21215 10.0351 4.30157 9.99803 4.3675 9.9321C4.43343 9.86617 4.47047 9.77675 4.47047 9.68351C4.47047 9.59027 4.43343 9.50085 4.3675 9.43491C4.30157 9.36898 4.21215 9.33194 4.11891 9.33194H0.748594C0.655354 9.33194 0.565932 9.36898 0.500002 9.43491C0.434071 9.50085 0.397031 9.59027 0.397031 9.68351C0.397031 9.77675 0.434071 9.86617 0.500002 9.9321C0.565932 9.99803 0.655354 10.0351 0.748594 10.0351ZM2.15484 7.22257H4.11891C4.21215 7.22257 4.30157 7.18553 4.3675 7.1196C4.43343 7.05367 4.47047 6.96425 4.47047 6.87101C4.47047 6.77777 4.43343 6.68835 4.3675 6.62241C4.30157 6.55648 4.21215 6.51944 4.11891 6.51944H2.15484C2.0616 6.51944 1.97218 6.55648 1.90625 6.62241C1.84032 6.68835 1.80328 6.77777 1.80328 6.87101C1.80328 6.96425 1.84032 7.05367 1.90625 7.1196C1.97218 7.18553 2.0616 7.22257 2.15484 7.22257ZM23.6484 20.1094H22.7356C23.1742 19.7141 23.4663 19.1823 23.5646 18.6001C23.6778 17.9288 23.5287 17.2396 23.148 16.6751L23.3488 16.5556C23.4289 16.5079 23.4868 16.4303 23.5098 16.34C23.5327 16.2496 23.5188 16.1538 23.4712 16.0737C23.1495 15.5339 22.6745 15.102 22.1068 14.8328C21.539 14.5636 20.904 14.4693 20.2825 14.5618C19.983 13.8486 19.6747 12.8327 19.3761 11.848C19.2019 11.2736 19.0231 10.6842 18.8443 10.1486H19.035C19.1283 10.1486 19.2177 10.1116 19.2836 10.0457C19.3496 9.97975 19.3866 9.89033 19.3866 9.79709V7.73027C19.3866 7.63703 19.3496 7.54761 19.2836 7.48168C19.2177 7.41575 19.1283 7.37871 19.035 7.37871H17.6117C17.3057 7.37911 17.0084 7.48066 16.7662 7.66757C16.5239 7.85447 16.3502 8.11624 16.2721 8.41212H14.9269C14.8337 8.41212 14.7443 8.44916 14.6783 8.51509C14.6124 8.58102 14.5754 8.67044 14.5754 8.76368C14.5754 8.85692 14.6124 8.94634 14.6783 9.01227C14.7443 9.0782 14.8337 9.11524 14.9269 9.11524H16.2721C16.3242 9.31311 16.4197 9.49694 16.5515 9.65346C16.5545 9.6741 16.5594 9.69443 16.5661 9.71421C16.762 10.2874 17.1068 11.5749 17.1315 11.6918C17.5161 13.5079 17.5699 15.762 15.6424 16.1865C15.2214 16.2769 14.7839 16.2542 14.3744 16.1206C13.965 15.987 13.5983 15.7473 13.3117 15.4258C12.5865 14.5954 12.5383 13.3174 13.1943 12.3172C13.3753 12.2019 13.514 12.0309 13.5896 11.83C13.6651 11.6291 13.6734 11.4091 13.6133 11.2031C13.5531 10.997 13.4277 10.8161 13.2559 10.6874C13.0842 10.5587 12.8753 10.4892 12.6606 10.4894H12.3605C12.3664 10.4506 12.3695 10.4114 12.3698 10.3721V9.03499C12.8608 8.99064 13.3325 8.82315 13.7415 8.54802C14.1505 8.27289 14.4834 7.89902 14.7095 7.46103C14.9356 7.02303 15.0476 6.53507 15.035 6.04233C15.0224 5.54958 14.8857 5.06798 14.6375 4.64211C14.3893 4.21624 14.0377 3.85986 13.6152 3.60599C13.1927 3.35211 12.713 3.20894 12.2204 3.18973C11.7279 3.17051 11.2385 3.27588 10.7975 3.49607C10.3565 3.71626 9.97819 4.04415 9.69759 4.4494H5.99391C5.77642 4.44965 5.56792 4.53615 5.41413 4.68994C5.26035 4.84372 5.17384 5.05223 5.17359 5.26971V10.3721C5.17384 10.5895 5.26035 10.798 5.41413 10.9518C5.56792 11.1056 5.77642 11.1921 5.99391 11.1924H6.54141C6.48599 11.3733 6.48369 11.5663 6.53479 11.7485C6.58589 11.9307 6.68823 12.0944 6.82964 12.2201C6.70848 12.2762 6.58986 12.3376 6.47414 12.4042C5.26945 13.1004 4.2502 14.4564 3.8775 15.8588C3.64538 16.7321 3.69694 17.5254 4.02159 18.0961C4.02206 18.0971 4.02262 18.098 4.02314 18.099C4.02567 18.1035 4.02787 18.1082 4.03045 18.1126C4.03163 18.1146 4.03312 18.1164 4.03439 18.1184C4.03992 18.1275 4.04588 18.1364 4.05225 18.1449C4.05412 18.1474 4.05581 18.1502 4.05778 18.1526C4.06609 18.1632 4.075 18.1732 4.08445 18.1827C4.08708 18.1854 4.08989 18.1879 4.09261 18.1905C4.10023 18.1977 4.1082 18.2046 4.11652 18.2112C4.11933 18.2135 4.12214 18.2158 4.12509 18.2179C4.13567 18.2259 4.14669 18.2332 4.15809 18.2398L4.15931 18.2406C4.17167 18.2477 4.18444 18.254 4.19756 18.2594C4.20028 18.2606 4.20305 18.2615 4.20577 18.2626C4.21589 18.2665 4.22627 18.2701 4.23689 18.2732L4.24903 18.2764C4.25278 18.2774 4.25639 18.2786 4.26023 18.2794C4.2668 18.2809 4.27341 18.2816 4.28002 18.2826C4.28377 18.2832 4.28737 18.2839 4.29112 18.2844C4.30558 18.2863 4.32014 18.2873 4.33472 18.2874C4.33561 18.2874 4.33641 18.2872 4.33725 18.2872H4.33884L5.58525 18.271C5.60261 18.6206 5.68947 18.9633 5.84076 19.2789C5.99206 19.5946 6.20475 19.8769 6.46641 20.1094H0.351562C0.258322 20.1094 0.168901 20.1465 0.10297 20.2124C0.0370395 20.2783 0 20.3678 0 20.461C0 20.5542 0.0370395 20.6437 0.10297 20.7096C0.168901 20.7755 0.258322 20.8126 0.351562 20.8126H23.6484C23.7417 20.8126 23.8311 20.7755 23.897 20.7096C23.963 20.6437 24 20.5542 24 20.461C24 20.3678 23.963 20.2783 23.897 20.2124C23.8311 20.1465 23.7417 20.1094 23.6484 20.1094ZM20.7488 15.2317C21.116 15.2314 21.4787 15.3131 21.8104 15.4709C22.142 15.6288 22.4342 15.8587 22.6656 16.1439L22.4971 16.2442C22.4568 16.2591 22.4197 16.2812 22.3874 16.3094L18.3412 18.7172C18.1152 18.1707 18.0933 17.5612 18.2796 17C18.4658 16.4387 18.8477 15.9631 19.3555 15.6601L19.4949 15.5771C19.874 15.3509 20.3073 15.2315 20.7488 15.2317L20.7488 15.2317ZM21.4852 18.2437C21.4646 18.3636 21.4034 18.4728 21.3118 18.553C21.2202 18.6331 21.1038 18.6792 20.9822 18.6837C20.8605 18.6881 20.7411 18.6505 20.6439 18.5773C20.5467 18.5041 20.4777 18.3996 20.4485 18.2815L21.3203 17.7626C21.3859 17.8226 21.4354 17.8981 21.4641 17.9821C21.4929 18.0662 21.5002 18.1561 21.4852 18.2437ZM16.9298 8.76368C16.9301 8.5829 17.002 8.40958 17.1298 8.28176C17.2576 8.15393 17.431 8.08203 17.6117 8.08183H18.6835V9.44552H17.6117C17.431 9.44531 17.2577 9.37341 17.1298 9.24558C17.002 9.11776 16.9301 8.94445 16.9299 8.76368H16.9298ZM12.6606 11.1925C12.7373 11.192 12.8111 11.222 12.8656 11.2759C12.9202 11.3298 12.9512 11.4032 12.9516 11.4799C12.9521 11.5566 12.9221 11.6304 12.8682 11.685C12.8143 11.7395 12.7409 11.7705 12.6642 11.7709H9.31908C9.10066 11.7585 8.88171 11.7586 8.6633 11.7712H7.49063C7.45232 11.7717 7.4143 11.7645 7.37877 11.7502C7.34324 11.7359 7.3109 11.7147 7.28364 11.6877C7.25638 11.6608 7.23474 11.6288 7.21996 11.5934C7.20519 11.5581 7.19758 11.5202 7.19758 11.4818C7.19758 11.4435 7.20519 11.4056 7.21996 11.3703C7.23474 11.3349 7.25638 11.3029 7.28364 11.2759C7.3109 11.249 7.34324 11.2278 7.37877 11.2135C7.4143 11.1991 7.45232 11.192 7.49063 11.1925H12.6606ZM12.1042 3.89069C12.5446 3.89063 12.9752 4.02118 13.3414 4.26583C13.7077 4.51049 13.9932 4.85826 14.1618 5.26516C14.3304 5.67207 14.3745 6.11983 14.2886 6.55183C14.2027 6.98382 13.9907 7.38065 13.6793 7.69212C13.3678 8.00359 12.971 8.21571 12.539 8.30166C12.1071 8.38761 11.6593 8.34353 11.2524 8.17499C10.8454 8.00646 10.4976 7.72103 10.2529 7.35481C10.0082 6.9886 9.87759 6.55804 9.87759 6.11759C9.87821 5.52723 10.113 4.96123 10.5304 4.54375C10.9478 4.12628 11.5138 3.89141 12.1041 3.89069H12.1042ZM5.99391 10.4893C5.96284 10.4893 5.93305 10.4769 5.91108 10.4549C5.88911 10.433 5.87676 10.4032 5.87672 10.3721V5.26976C5.87676 5.23869 5.88911 5.2089 5.91108 5.18693C5.93305 5.16497 5.96284 5.15261 5.99391 5.15257H9.33844C9.19633 5.55911 9.14564 5.99198 9.18997 6.42035C9.2343 6.84872 9.37256 7.26204 9.5949 7.63086C9.81724 7.99968 10.1182 8.31493 10.4763 8.55414C10.8344 8.79335 11.2409 8.95063 11.6667 9.01479V10.3721C11.6667 10.4032 11.6543 10.433 11.6324 10.4549C11.6104 10.4769 11.5806 10.4893 11.5495 10.4893H5.99391ZM4.557 16.0394C4.88419 14.8084 5.77481 13.6204 6.82594 13.0129C7.39475 12.6918 8.03045 12.5074 8.6828 12.4743H12.3141C11.8145 13.634 11.9791 14.9689 12.7822 15.8884C13.1523 16.304 13.626 16.6141 14.155 16.7871C14.684 16.9601 15.2495 16.9898 15.7937 16.8731C17.7368 16.4452 18.4562 14.5534 17.8194 11.5462C17.7955 11.4331 17.6118 10.7423 17.4339 10.1368C17.4929 10.1446 17.5523 10.1485 17.6117 10.1486H18.1019C18.3022 10.7299 18.5057 11.4007 18.7032 12.0521C18.9952 13.0149 19.2963 14.007 19.598 14.7464C19.4379 14.8094 19.2832 14.8851 19.1353 14.9729L18.996 15.0559C18.6383 15.2674 18.3261 15.5478 18.0775 15.8808C17.8288 16.2138 17.6488 16.5928 17.5476 16.9958C17.513 17.1331 17.4874 17.2726 17.4712 17.4132L12.0863 17.4833C11.7312 15.8516 10.5919 14.5443 9.17784 14.1819C8.2148 13.9352 7.12069 14.1287 6.17597 14.7126C5.44471 15.1702 4.84983 15.8158 4.45355 16.582C4.47443 16.3988 4.50902 16.2174 4.557 16.0394ZM4.79498 17.5781C5.1037 16.6291 5.72545 15.8177 6.54567 15.3107C7.32872 14.8267 8.2245 14.6635 9.00333 14.8631C10.123 15.15 11.0366 16.1826 11.3667 17.4926L4.79498 17.5781ZM8.74341 18.2299C8.72251 18.3519 8.65955 18.4627 8.56545 18.5431C8.47136 18.6235 8.35208 18.6684 8.22833 18.67C8.10457 18.6716 7.98416 18.6299 7.888 18.5519C7.79184 18.474 7.72601 18.3649 7.70194 18.2435L8.74341 18.2299ZM8.22164 20.0766C7.72933 20.076 7.2557 19.8881 6.89684 19.5511C6.53797 19.2141 6.32076 18.7532 6.28927 18.2619L6.99389 18.2527C7.02221 18.5617 7.16598 18.8486 7.39652 19.0563C7.62705 19.2639 7.9274 19.377 8.23764 19.373C8.54787 19.3689 8.84518 19.2481 9.07024 19.0345C9.29529 18.8209 9.43155 18.5304 9.45183 18.2208L10.1565 18.2116C10.1374 18.7122 9.92536 19.1861 9.56465 19.5338C9.20395 19.8815 8.72264 20.076 8.22164 20.0766ZM9.97683 20.1094C10.247 19.8692 10.4649 19.5759 10.6168 19.2478C10.7687 18.9197 10.8514 18.5639 10.8598 18.2024L11.7742 18.1906C11.7901 18.1914 11.8061 18.1912 11.8221 18.1899L17.4679 18.1165C17.517 18.5674 17.6627 19.0023 17.8952 19.3917C17.9429 19.4719 18.0204 19.5298 18.1108 19.5527C18.2012 19.5757 18.2969 19.5618 18.3771 19.5141L18.6197 19.3697C18.7641 19.6482 18.9569 19.8987 19.1892 20.1094H9.97683ZM22.0811 19.7352C21.8524 19.897 21.5914 20.0072 21.3159 20.0583C21.0405 20.1094 20.7573 20.1001 20.4858 20.0311C20.2143 19.962 19.961 19.835 19.7434 19.6586C19.5258 19.4822 19.349 19.2607 19.2253 19.0093L19.8334 18.6475C19.9033 18.8078 20.0066 18.9514 20.1363 19.0687C20.266 19.1861 20.4191 19.2745 20.5856 19.3281C20.7521 19.3817 20.9281 19.3992 21.1019 19.3795C21.2757 19.3599 21.4433 19.3034 21.5936 19.214C21.7439 19.1246 21.8735 19.0042 21.9736 18.8608C22.0738 18.7174 22.1424 18.5544 22.1747 18.3825C22.207 18.2106 22.2024 18.0338 22.1611 17.8639C22.1198 17.6939 22.0429 17.5347 21.9353 17.3967L22.543 17.0351C22.6901 17.2427 22.7948 17.4773 22.8512 17.7253C22.9076 17.9734 22.9145 18.2302 22.8716 18.4809C22.8287 18.7317 22.7368 18.9715 22.6012 19.1867C22.4656 19.402 22.2888 19.5884 22.0811 19.7352ZM12.1042 6.46915H13.1179C13.2112 6.46915 13.3006 6.43211 13.3665 6.36618C13.4324 6.30025 13.4695 6.21083 13.4695 6.11759C13.4695 6.02435 13.4324 5.93492 13.3665 5.86899C13.3006 5.80306 13.2112 5.76602 13.1179 5.76602H12.4557V4.78844C12.4557 4.6952 12.4187 4.60578 12.3527 4.53985C12.2868 4.47392 12.1974 4.43688 12.1042 4.43688C12.0109 4.43688 11.9215 4.47392 11.8556 4.53985C11.7896 4.60578 11.7526 4.6952 11.7526 4.78844V6.11763C11.7526 6.21087 11.7896 6.30029 11.8556 6.36622C11.9215 6.43215 12.0109 6.46919 12.1042 6.46919V6.46915Z" fill="#7D7C83"/>
</g>
<defs>
<clipPath id="clip0_386_614">
<rect width="24" height="24" fill="white"/>
</clipPath>
</defs>
</svg>
