<svg width="32" height="32" viewBox="0 0 32 32" fill="none" xmlns="http://www.w3.org/2000/svg">
<circle cx="16" cy="16" r="16" fill="#10BAB2"/>
<path d="M21.3333 9.31558C19.9188 7.9011 18.0004 7.10645 16 7.10645C13.9996 7.10645 12.0811 7.9011 10.6667 9.31558C9.25217 10.7301 8.45752 12.6485 8.45752 14.6489C8.45752 16.6493 9.25217 18.5678 10.6667 19.9822L15.3511 24.6756C15.4337 24.7589 15.532 24.825 15.6404 24.8702C15.7487 24.9153 15.8649 24.9385 15.9822 24.9385C16.0996 24.9385 16.2157 24.9153 16.3241 24.8702C16.4324 24.825 16.5307 24.7589 16.6133 24.6756L21.3333 19.9378C22.7419 18.5292 23.5332 16.6187 23.5332 14.6267C23.5332 12.6346 22.7419 10.7242 21.3333 9.31558ZM20.0622 18.6667L16 22.7467L11.9378 18.6667C11.1352 17.8634 10.5889 16.8402 10.3677 15.7265C10.1466 14.6128 10.2606 13.4585 10.6954 12.4095C11.1301 11.3606 11.8661 10.4641 12.8103 9.83334C13.7545 9.20261 14.8645 8.86597 16 8.86597C17.1355 8.86597 18.2455 9.20261 19.1897 9.83334C20.1338 10.4641 20.8698 11.3606 21.3046 12.4095C21.7394 13.4585 21.8534 14.6128 21.6323 15.7265C21.4111 16.8402 20.8647 17.8634 20.0622 18.6667ZM13.3333 11.92C12.6157 12.6398 12.2128 13.6148 12.2128 14.6311C12.2128 15.6475 12.6157 16.6225 13.3333 17.3422C13.8664 17.8763 14.5454 18.241 15.285 18.3906C16.0246 18.5402 16.7919 18.4681 17.4907 18.1833C18.1895 17.8984 18.7886 17.4136 19.2129 16.7896C19.6371 16.1656 19.8677 15.4301 19.8755 14.6756C19.8796 14.1718 19.7825 13.6723 19.5901 13.2066C19.3978 12.7409 19.114 12.3186 18.7555 11.9645C18.4033 11.6041 17.9832 11.317 17.5195 11.1196C17.0558 10.9222 16.5576 10.8184 16.0537 10.8143C15.5497 10.8101 15.0499 10.9057 14.5831 11.0955C14.1162 11.2853 13.6915 11.5655 13.3333 11.92ZM17.5022 16.08C17.1654 16.422 16.7202 16.6364 16.2428 16.6865C15.7654 16.7366 15.2854 16.6193 14.8849 16.3546C14.4844 16.09 14.1883 15.6945 14.0471 15.2357C13.906 14.7769 13.9286 14.2833 14.1111 13.8393C14.2936 13.3953 14.6246 13.0285 15.0476 12.8016C15.4706 12.5747 15.9593 12.5017 16.4302 12.5952C16.901 12.6888 17.3247 12.9429 17.6289 13.3143C17.9331 13.6856 18.0988 14.1511 18.0978 14.6311C18.0848 15.1798 17.8546 15.7009 17.4578 16.08H17.5022Z" fill="white"/>
</svg>
