<svg width="691" height="487" viewBox="0 0 691 487" fill="none" xmlns="http://www.w3.org/2000/svg">
<path d="M662.245 484C681.271 440.386 691.061 393.302 691 345.714C691 154.781 536.315 0 345.505 0C154.695 0 0.000310693 154.781 0.000310693 345.714C-0.0635766 393.302 9.72596 440.386 28.7518 484H662.245Z" fill="#FFF2E1"/>
<path d="M157.442 471.187C155.404 476.141 157.391 481.743 160.333 486.522H198.141C197.538 482.769 195.892 478.292 192.237 473.443C181.919 459.765 162.206 459.612 157.442 471.187Z" fill="#FDC300"/>
<path d="M188.068 405.288C191.719 406.383 196.213 408.026 199.36 409.081C198.152 406.867 197.073 404.585 196.129 402.246C193.285 402.451 188.564 402.199 184.96 400.811C179.425 398.657 178.633 396.452 179.002 394.721C179.367 392.895 180.714 392.238 186.019 394.721C188.94 396.068 192.474 398.055 195.085 399.468C194.266 397.153 193.578 394.794 193.026 392.402C190.47 392.242 186.498 391.489 183.606 389.883C179.027 387.327 178.655 385.162 179.261 383.511C179.893 381.77 181.214 381.215 185.548 384.055C187.909 385.66 190.186 387.383 192.372 389.218C192.146 387.94 191.956 386.658 191.803 385.37C190.74 382.993 189.119 377.337 189.572 372.762C190.098 366.865 191.657 365.945 192.993 366.212C194.453 366.467 195.184 367.738 194.705 373.149C194.285 377.165 193.537 382.558 193.004 385.092C193.155 386.4 193.346 387.696 193.577 388.981C194.906 386.79 196.896 384.344 198.882 382.876C202.778 380.035 204.22 380.598 205.02 381.591C205.849 382.661 205.75 383.807 202.07 386.819C199.597 388.79 196.973 390.564 194.223 392.125C194.766 394.457 195.437 396.757 196.235 399.015C197.382 396.309 199.364 393.052 201.489 391.004C205.388 387.294 206.999 387.594 207.911 388.404C208.875 389.31 208.81 390.438 205.188 394.312C202.69 396.937 200.05 399.422 197.279 401.757C198.204 404.03 199.257 406.249 200.434 408.402C201.263 405.222 203.041 401.1 205.18 398.431C208.908 393.804 210.657 393.819 211.639 394.443C212.709 395.174 212.676 396.291 209.27 401.063C207.017 404.236 203.793 408.366 201.796 410.776C203.093 412.935 204.516 415.016 206.057 417.008C206.422 413.401 207.795 408.41 209.814 405.058C213.187 399.497 215.006 399.216 216.043 399.643C217.196 400.191 217.193 401.315 214.191 406.993C212.165 410.849 209.35 416.048 207.67 419.013C209.337 421.002 211.12 422.889 213.012 424.665C212.8 420.707 213.505 414.847 215.257 410.79C218.076 404.32 219.931 403.718 220.986 403.962C222.198 404.327 222.217 405.459 219.818 412.017C218.167 416.559 216.032 422.825 214.823 426.29C216.848 428.053 218.982 429.686 221.213 431.179C220.281 426.98 220.062 420.32 221.384 415.581C223.443 408.242 225.291 407.318 226.331 407.38C227.573 407.555 227.613 408.716 226.032 416.088C224.937 421.295 223.768 428.561 223.173 432.443C225.187 433.692 227.27 434.825 229.413 435.838C229.486 435.873 229.551 435.921 229.605 435.981C229.66 436.041 229.702 436.111 229.729 436.187C229.756 436.263 229.768 436.343 229.764 436.424C229.76 436.504 229.74 436.583 229.705 436.656C229.656 436.772 229.571 436.87 229.463 436.936C229.355 437.001 229.229 437.031 229.103 437.021C229.029 437.017 228.957 436.999 228.891 436.966C226.718 435.937 224.603 434.788 222.556 433.527C219.402 435.846 212.629 439.479 206.4 440.548C197.612 442.034 194.997 440.249 194.311 438.522C193.53 436.583 194.902 435.499 203.596 434.589C209.222 433.983 216.375 433.067 220.592 432.271C218.3 430.746 216.105 429.08 214.02 427.283C210.799 429.007 204.319 431.406 198.659 431.621C190.543 431.902 188.396 429.908 187.98 428.127C187.513 426.159 188.882 425.206 196.859 425.428C201.88 425.552 208.233 425.739 212.194 425.662C210.243 423.846 208.404 421.912 206.688 419.871C203.501 421.032 197.491 422.358 192.478 421.879C185.143 421.149 183.463 419.02 183.314 417.224C183.142 415.263 184.504 414.423 191.66 415.599C196.001 416.293 201.467 417.33 205.078 417.874C204.454 417.074 203.844 416.264 203.253 415.431C202.343 414.142 201.489 412.817 200.697 411.469C197.641 412.116 192.23 412.565 187.918 411.546C181.459 410.005 180.229 407.807 180.342 406.025C180.462 404.097 181.813 403.364 188.068 405.288Z" fill="#08908C"/>
<path d="M298.579 460.754C311.986 462.361 308.988 471.416 307.761 473.581C308.798 471.964 312.979 467.71 316.772 470.554C320.296 473.198 316.079 478.426 316.079 478.426C318.069 477.309 329.789 473.632 331.651 486.525H272.729C272.729 486.525 280.341 458.574 298.579 460.754Z" fill="#10BAB2"/>
<path d="M282.342 486.526C301.5 486.526 299.225 467.024 281.47 471C301.916 462.266 295.242 440.077 275.595 446.577C289.915 432.267 265.916 410.75 256.306 434.849C260.797 397.872 217.509 402.991 222.756 433.461C201.163 416.337 180.888 441.783 201.78 457.312C174.681 449.699 168.891 482.14 191.071 486.522L282.342 486.526Z" fill="url(#paint0_linear_67_978)"/>
<g style="mix-blend-mode:color-burn">
<path d="M259.454 486.527C269.137 486.527 267.986 476.668 259.012 478.68C269.345 474.262 265.975 463.049 256.044 466.331C263.28 459.098 251.151 448.221 246.291 460.405C248.562 441.71 226.677 444.299 229.332 459.7C221.957 449.232 209.024 460.924 218.744 471.75C205.881 466.306 200.243 483.248 213.329 486.516L259.454 486.527Z" fill="#DBDBDB"/>
</g>
<path opacity="0.25" d="M238.354 455.542V456.845C238.34 457.042 238.252 457.226 238.108 457.361C237.964 457.495 237.775 457.57 237.578 457.57C237.381 457.57 237.191 457.495 237.047 457.361C236.903 457.226 236.815 457.042 236.802 456.845V455.549C236.815 455.353 236.903 455.169 237.047 455.034C237.191 454.9 237.381 454.825 237.578 454.825C237.775 454.825 237.964 454.9 238.108 455.034C238.252 455.169 238.34 455.353 238.354 455.549V455.542ZM238.354 460.248V486.538H236.802V460.248C236.815 460.052 236.903 459.868 237.047 459.733C237.191 459.599 237.381 459.524 237.578 459.524C237.775 459.524 237.964 459.599 238.108 459.733C238.252 459.868 238.34 460.052 238.354 460.248Z" fill="url(#paint1_linear_67_978)"/>
<path opacity="0.25" d="M223.15 464.245C223.202 464.333 223.235 464.43 223.249 464.531C223.262 464.632 223.256 464.735 223.229 464.834C223.203 464.932 223.157 465.024 223.094 465.105C223.032 465.186 222.954 465.253 222.865 465.304C222.749 465.374 222.615 465.411 222.478 465.41C222.342 465.409 222.208 465.373 222.09 465.305C221.972 465.236 221.874 465.137 221.807 465.019C221.463 464.427 221.277 464.091 221.277 464.091C221.228 464.002 221.196 463.905 221.184 463.803C221.172 463.702 221.181 463.6 221.208 463.502C221.236 463.404 221.283 463.312 221.346 463.232C221.409 463.152 221.488 463.086 221.577 463.036C221.666 462.987 221.763 462.955 221.864 462.943C221.966 462.931 222.068 462.94 222.166 462.967C222.264 462.995 222.356 463.042 222.436 463.105C222.515 463.168 222.582 463.247 222.632 463.336C222.632 463.336 222.814 463.664 223.15 464.245ZM238.346 486.518H236.528C231.416 480.588 226.305 472.577 223.705 468.261C223.645 468.174 223.604 468.075 223.584 467.971C223.563 467.868 223.564 467.761 223.587 467.657C223.609 467.554 223.653 467.456 223.714 467.37C223.776 467.284 223.854 467.211 223.945 467.156C224.035 467.102 224.136 467.066 224.241 467.051C224.346 467.037 224.452 467.044 224.554 467.072C224.656 467.101 224.752 467.149 224.834 467.216C224.917 467.282 224.985 467.364 225.034 467.458C227.7 471.861 232.946 480.132 238.138 486.014C238.272 486.151 238.349 486.334 238.354 486.525L238.346 486.518Z" fill="url(#paint2_linear_67_978)"/>
<path opacity="0.25" d="M215.418 479.621C215.343 479.813 215.195 479.967 215.007 480.05C214.819 480.134 214.606 480.14 214.414 480.067C213.545 479.731 213.074 479.534 213.074 479.534C212.897 479.447 212.759 479.295 212.689 479.111C212.62 478.926 212.623 478.722 212.698 478.539C212.773 478.357 212.915 478.21 213.095 478.128C213.274 478.046 213.478 478.036 213.665 478.099C213.665 478.099 214.129 478.292 214.976 478.621C215.071 478.657 215.158 478.712 215.232 478.782C215.305 478.852 215.364 478.936 215.405 479.029C215.446 479.122 215.469 479.222 215.471 479.324C215.473 479.426 215.455 479.527 215.418 479.621ZM239.651 486.526H234.627C227.759 484.751 221.848 482.783 217.831 481.337C217.735 481.303 217.647 481.25 217.572 481.181C217.497 481.113 217.435 481.03 217.392 480.938C217.349 480.845 217.324 480.745 217.319 480.644C217.314 480.542 217.329 480.44 217.364 480.344C217.398 480.248 217.452 480.16 217.52 480.085C217.589 480.009 217.671 479.948 217.764 479.905C217.856 479.861 217.956 479.837 218.058 479.832C218.159 479.827 218.261 479.842 218.357 479.877C225.148 482.324 232.075 484.377 239.103 486.026C239.229 486.056 239.345 486.118 239.441 486.205C239.537 486.293 239.609 486.403 239.651 486.526Z" fill="url(#paint3_linear_67_978)"/>
<path opacity="0.25" d="M252.634 462.322L251.959 463.53C251.891 463.65 251.793 463.75 251.674 463.819C251.556 463.888 251.421 463.925 251.283 463.925C251.147 463.925 251.014 463.889 250.896 463.822C250.779 463.754 250.681 463.657 250.612 463.54C250.543 463.423 250.506 463.29 250.505 463.155C250.504 463.019 250.538 462.885 250.604 462.767C251.039 462 251.272 461.573 251.276 461.569C251.382 461.402 251.548 461.282 251.74 461.233C251.932 461.184 252.136 461.21 252.309 461.306C252.482 461.402 252.613 461.561 252.673 461.749C252.733 461.938 252.719 462.143 252.634 462.322ZM250.151 466.703C247.595 471.172 242.78 479.362 238.004 486.504H236.135C241.071 479.202 246.146 470.566 248.804 465.929C248.911 465.76 249.08 465.639 249.274 465.591C249.469 465.544 249.674 465.573 249.848 465.672C250.021 465.772 250.15 465.935 250.206 466.127C250.263 466.319 250.243 466.525 250.151 466.703Z" fill="url(#paint4_linear_67_978)"/>
<path opacity="0.25" d="M260.074 471.989L259.081 472.719C258.999 472.781 258.905 472.827 258.806 472.853C258.706 472.878 258.602 472.884 258.5 472.87C258.398 472.855 258.301 472.82 258.212 472.767C258.124 472.715 258.047 472.645 257.985 472.562C257.922 472.481 257.876 472.387 257.85 472.287C257.823 472.187 257.817 472.083 257.832 471.981C257.847 471.879 257.882 471.781 257.935 471.693C257.988 471.604 258.059 471.527 258.142 471.467C258.774 470.996 259.128 470.737 259.128 470.737C259.209 470.67 259.303 470.62 259.404 470.591C259.504 470.561 259.61 470.552 259.714 470.565C259.819 470.577 259.919 470.61 260.01 470.663C260.101 470.715 260.181 470.785 260.244 470.869C260.307 470.953 260.352 471.049 260.378 471.151C260.403 471.253 260.407 471.359 260.39 471.462C260.373 471.566 260.335 471.665 260.279 471.754C260.223 471.842 260.149 471.918 260.063 471.978L260.074 471.989ZM256.259 473.851C256.321 473.934 256.366 474.028 256.391 474.128C256.416 474.228 256.421 474.332 256.405 474.434C256.39 474.536 256.354 474.634 256.3 474.722C256.246 474.81 256.175 474.886 256.091 474.946C251.906 478.003 244.852 483.041 239.138 486.536H236.093C242.008 483.162 250.442 477.156 255.174 473.694C255.338 473.575 255.541 473.525 255.741 473.555C255.941 473.584 256.121 473.69 256.244 473.851H256.259Z" fill="url(#paint5_linear_67_978)"/>
<path opacity="0.25" d="M261.747 483.297C261.747 483.297 261.334 483.392 260.568 483.556C260.513 483.564 260.458 483.564 260.403 483.556C260.21 483.56 260.022 483.491 259.876 483.363C259.731 483.235 259.639 483.058 259.618 482.865C259.598 482.672 259.65 482.479 259.765 482.323C259.88 482.167 260.049 482.06 260.239 482.023C260.991 481.862 261.396 481.767 261.4 481.767C261.601 481.719 261.812 481.752 261.988 481.86C262.164 481.967 262.29 482.14 262.338 482.341C262.387 482.541 262.354 482.753 262.246 482.929C262.139 483.105 261.966 483.231 261.765 483.279L261.747 483.297ZM257.482 483.407C257.521 483.609 257.478 483.818 257.364 483.989C257.249 484.16 257.071 484.279 256.869 484.32C253.528 484.98 249.147 485.78 244.134 486.51H231.665C241.699 485.51 250.724 483.954 256.57 482.782C256.671 482.763 256.774 482.764 256.875 482.784C256.976 482.805 257.071 482.846 257.156 482.904C257.241 482.962 257.314 483.036 257.37 483.123C257.426 483.209 257.464 483.306 257.482 483.407Z" fill="url(#paint6_linear_67_978)"/>
<path d="M493.794 476.367C492.446 479.654 493.761 483.36 495.707 486.525H520.743C520.341 484.039 519.253 481.078 516.832 477.864C509.997 468.798 496.948 468.707 493.794 476.367Z" fill="#FDC300"/>
<path d="M538.02 465.064C551.738 466.097 556.057 486.27 555.911 486.526H517.537C512.141 481.414 503.367 469.054 508.658 465.064C514.167 460.905 524.31 466.991 529.889 473.903C531.069 469.379 533.186 464.698 538.02 465.064Z" fill="url(#paint7_linear_67_978)"/>
<path d="M629.946 480.578C627.821 478.387 626.557 476.069 626.816 473.275C627.079 470.402 629.051 465.608 639.278 465.608C640.286 465.608 641.388 465.663 642.564 465.743C647.873 466.097 653.128 467.031 658.235 468.529C660.79 469.259 662.828 469.624 664.332 469.624C665.168 469.624 666.72 469.851 669.991 466.451C671.136 465.308 672.215 464.101 673.222 462.836C669.824 463.716 666.381 464.412 662.908 464.921C661.527 465.12 660.134 465.227 658.738 465.243C651.261 465.243 646.018 462.216 645.054 457.319C644.729 455.669 644.324 450.017 652.721 446.592C657.048 444.825 662.419 444.226 667.162 443.671C669.064 443.459 671.62 443.174 673.423 442.82C673.135 442.09 672.792 441.283 672.496 440.596C670.437 435.795 667.322 428.547 669.093 419.912C669.546 417.655 670.204 415.444 671.057 413.306C665.85 413.08 660.704 412.096 655.781 410.385C654.456 409.907 653.181 409.429 651.962 408.969C648.311 407.592 644.875 406.292 642.867 406.292C642.232 406.292 641.169 406.292 639.661 410.396C639.263 411.492 638.883 412.525 638.522 413.522C634.739 423.95 632.238 430.84 624.48 436.302C622.037 438.018 618.298 440.071 614.352 440.071C611.065 440.071 608.25 438.61 606.582 436.054C604.143 432.297 604.519 426.951 607.736 419.707C610.193 414.254 613.344 409.141 617.112 404.496C616.141 404.448 615.107 404.419 614.019 404.419C608.686 404.437 603.372 405.071 598.184 406.311C589.359 408.388 583.529 410.849 580.367 413.832C578.41 415.658 576.5 418.415 577.157 424.724C577.577 428.715 579.14 433.966 580.652 439.044C584.303 451.298 588.432 465.191 578.147 470.621C576.476 471.528 574.608 472.01 572.707 472.023C559.252 472.023 554.645 448.479 554.006 439.41C553.784 436.267 553.734 433.115 553.856 429.967C549.938 433.37 545.692 439.311 543.881 449.743C541.351 464.348 544.779 474.02 554.363 480.593L629.946 480.578Z" fill="white"/>
<path d="M662.119 459.174C672.474 457.768 682.96 453.923 682.96 453.923C682.96 453.923 684.296 460.273 674.197 470.744C664.098 481.216 659.903 472.859 642.118 471.606C624.333 470.354 634.429 480.282 648.69 482.925C662.951 485.569 677.081 473.636 677.081 473.636C677.081 473.636 676.57 478.748 672.977 486.5H552.716C540.868 479.672 534.826 467.714 538.112 448.745C542.61 422.792 560.866 419.834 560.866 419.834C560.866 419.834 559.062 427.765 559.851 438.956C560.639 450.147 566.361 470.175 575.415 465.395C584.47 460.616 572.757 438.88 571.333 425.293C569.909 411.707 577.628 405.09 596.844 400.566C616.06 396.042 629.029 400.428 629.029 400.428C629.029 400.428 619.072 408.592 613.095 422.047C607.118 435.502 614.242 436.32 621.109 431.482C627.977 426.644 629.675 420.579 634.162 408.355C638.649 396.13 645.879 400.566 657.77 404.849C669.662 409.132 682.963 407.04 682.963 407.04C682.963 407.04 677.143 409.819 674.832 421.087C672.521 432.355 680.835 440.88 679.787 445.55C678.739 450.221 663.327 448.581 654.959 452.013C646.591 455.446 651.772 460.576 662.119 459.174ZM546.622 457.746C541.281 460.696 551.143 472.986 555.571 469.744C560 466.502 552.537 454.485 546.622 457.746ZM579.957 474.907C583.853 481.479 594.536 471.902 590.856 468.141C586.493 463.676 576.062 468.338 579.957 474.896V474.907ZM596.508 416.665C593.952 417.147 588.213 418.56 588.673 426.618C589.133 434.677 598.129 432.687 599.418 425.863C600.707 419.038 596.508 416.654 596.508 416.654V416.665ZM600.97 438.525C593.16 438.018 590.809 452.988 599.283 453.302C607.757 453.616 608.444 438.993 600.97 438.514V438.525ZM663.189 439.938C669.465 439.533 670.717 435.805 667.391 433.227C664.985 431.362 664.156 428.386 658.482 432.212C652.808 436.039 656.912 440.329 663.189 439.928V439.938ZM633.487 453.591C625.392 453.313 625.929 457.121 630.423 460.086C634.918 463.051 640.858 457.921 640 455.822C639.142 453.722 633.487 453.58 633.487 453.58V453.591ZM650.234 410.998L650.446 411.024C648.256 409.87 642.808 407.482 640.446 418.06C638.083 428.638 645.484 428.579 649.442 423.263C653.4 417.947 654.378 413.481 650.234 410.987V410.998Z" fill="#10BAB2"/>
<g style="mix-blend-mode:color-burn">
<path d="M653.571 425.997C649.708 429.021 645.294 432.767 640.65 437.05C638.331 439.19 635.954 441.468 633.555 443.849C631.157 446.229 628.707 448.73 626.173 451.191C621.116 456.135 615.789 461.09 610.4 465.753C605.011 470.415 599.567 474.768 594.335 478.58C590.202 481.596 586.204 484.258 582.52 486.525H575.185C576.039 486.065 576.915 485.59 577.828 485.065C582.209 482.615 587.215 479.544 592.476 475.936C597.738 472.329 603.255 468.188 608.735 463.737C614.215 459.286 619.688 454.54 624.873 449.797C627.484 447.423 629.985 445.05 632.486 442.717C634.987 440.384 637.451 438.204 639.861 436.144C644.673 432.007 649.241 428.411 653.224 425.519C657.207 422.627 660.603 420.436 663.013 419.005C665.423 417.574 666.85 416.887 666.85 416.895C666.85 416.902 665.452 417.625 663.1 419.144C660.749 420.663 657.434 422.97 653.571 425.997Z" fill="#E2E2E2"/>
</g>
<path d="M374.435 408.234H462.223L444.102 472.307C441.912 479.993 446.439 486.35 454.125 486.35H366.308C358.64 486.35 354.113 480.143 356.285 472.475L374.435 408.234Z" fill="#033351"/>
<path style="mix-blend-mode:multiply" opacity="0.5" d="M384.324 408.234H462.25L444.104 472.46C441.913 480.128 446.44 486.335 454.126 486.335H376.218C368.551 486.335 364.023 479.986 366.196 472.3L384.324 408.234Z" fill="url(#paint8_linear_67_978)"/>
<path d="M358.842 480.129C358.838 481.824 359.503 483.453 360.692 484.661C361.882 485.869 363.5 486.559 365.195 486.581H495.248C496.943 486.559 498.561 485.869 499.751 484.661C500.94 483.453 501.605 481.824 501.601 480.129V477.865C501.599 477.036 501.433 476.215 501.112 475.451C500.791 474.686 500.321 473.993 499.73 473.412C499.139 472.83 498.439 472.371 497.67 472.062C496.9 471.753 496.077 471.599 495.248 471.61H365.195C364.366 471.599 363.543 471.753 362.773 472.062C362.004 472.371 361.304 472.83 360.713 473.412C360.122 473.993 359.652 474.686 359.331 475.451C359.01 476.215 358.844 477.036 358.842 477.865V480.129Z" fill="#033351"/>
<path style="mix-blend-mode:multiply" opacity="0.5" d="M423.959 479.996V477.93C423.959 476.245 423.29 474.629 422.099 473.437C420.907 472.246 419.291 471.576 417.606 471.576H495.324C497.009 471.576 498.625 472.246 499.817 473.437C501.008 474.629 501.677 476.245 501.677 477.93V479.996C501.677 481.681 501.008 483.297 499.817 484.489C498.625 485.68 497.009 486.349 495.324 486.349H417.606C419.291 486.349 420.907 485.68 422.099 484.489C423.29 483.297 423.959 481.681 423.959 479.996Z" fill="url(#paint9_linear_67_978)"/>
<path d="M224.309 392.58C226.777 401.186 235.835 408.23 244.441 408.23H607.937C616.543 408.23 621.567 401.186 619.102 392.58L545.021 133.925C542.553 125.315 533.494 118.272 524.889 118.272H161.392C152.787 118.272 147.759 125.315 150.227 133.925L224.309 392.58Z" fill="#094D4B"/>
<path style="mix-blend-mode:multiply" opacity="0.5" d="M154.987 119.876C153.425 122.614 153.02 126.16 154.126 130.027L228.207 388.681C230.676 397.291 239.734 404.334 248.343 404.334H611.836C614.074 404.371 616.282 403.82 618.24 402.735C616.327 406.094 612.676 408.234 607.936 408.234H244.44C235.835 408.234 226.776 401.191 224.308 392.585L150.226 133.93C148.463 127.777 150.529 122.428 154.987 119.876Z" fill="url(#paint10_linear_67_978)"/>
<path d="M586.548 360.329C589.728 360.329 592.561 358.989 594.324 356.648C596.15 354.231 596.661 350.978 595.73 347.728L536.651 141.506C534.961 135.595 528.958 130.965 522.989 130.965H175.152C171.972 130.965 169.139 132.305 167.375 134.645C165.55 137.066 165.039 140.316 165.97 143.565L225.034 349.791C226.732 355.703 232.731 360.329 238.704 360.329H586.548Z" fill="white"/>
<path d="M407.152 382.357C409.383 390.142 417.503 396.455 425.287 396.455C433.071 396.455 437.573 390.142 435.342 382.357C433.112 374.573 424.995 368.26 417.211 368.26C409.427 368.26 404.921 374.584 407.152 382.357Z" fill="white"/>
<path opacity="0.75" d="M383.004 382.356C384.322 386.946 389.105 390.666 393.694 390.666C398.284 390.666 400.938 386.946 399.624 382.356C398.309 377.766 393.523 374.045 388.933 374.045C384.344 374.045 381.69 377.777 383.004 382.356Z" fill="white"/>
<path opacity="0.75" d="M442.876 382.356C444.19 386.946 448.977 390.666 453.563 390.666C458.149 390.666 460.81 386.946 459.492 382.356C458.174 377.766 453.395 374.045 448.805 374.045C444.216 374.045 441.561 377.777 442.876 382.356Z" fill="white"/>
<path opacity="0.25" d="M367.76 382.357C368.37 384.485 370.594 386.216 372.722 386.216C374.851 386.216 376.085 384.485 375.475 382.357C374.865 380.228 372.642 378.497 370.513 378.497C368.385 378.497 367.151 380.239 367.76 382.357Z" fill="white"/>
<path opacity="0.25" d="M467.025 382.357C467.635 384.485 469.858 386.216 471.987 386.216C474.115 386.216 475.349 384.485 474.74 382.357C474.13 380.228 471.906 378.497 469.778 378.497C467.649 378.497 466.415 380.239 467.025 382.357Z" fill="white"/>
<path d="M586.548 360.329C589.728 360.329 592.561 358.989 594.324 356.648C596.15 354.231 596.661 350.978 595.73 347.728L536.651 141.506C534.961 135.595 528.958 130.965 522.989 130.965H175.152C171.972 130.965 169.139 132.305 167.375 134.645C165.55 137.066 165.039 140.316 165.97 143.565L225.034 349.791C226.732 355.703 232.731 360.329 238.704 360.329H586.548Z" fill="#DCFFFE"/>
<path style="mix-blend-mode:color-burn" opacity="0.5" d="M586.548 360.329C589.728 360.329 592.561 358.989 594.324 356.648C596.15 354.231 596.661 350.978 595.73 347.728L536.651 141.506C534.961 135.595 528.958 130.965 522.989 130.965H175.152C171.972 130.965 169.139 132.305 167.375 134.645C165.55 137.066 165.038 140.316 165.97 143.565L225.034 349.791C226.732 355.703 232.73 360.329 238.704 360.329H586.548Z" fill="url(#paint11_linear_67_978)"/>
<path d="M345.289 184.953C344.986 183.898 345.599 183.036 346.654 183.036H398.055C398.612 183.068 399.147 183.269 399.588 183.611C400.029 183.953 400.356 184.421 400.527 184.953L403.364 194.811C403.667 195.867 403.053 196.728 402.002 196.728H350.597C350.04 196.696 349.507 196.495 349.066 196.153C348.625 195.811 348.299 195.343 348.129 194.811L345.289 184.953Z" fill="#10BAB2"/>
<path d="M396.473 196.725H394.359L390.412 183.036H392.529L396.473 196.725ZM386.914 196.725H384.8L380.853 183.036H382.971L386.914 196.725ZM354.295 183.036L358.238 196.725H356.124L352.177 183.036H354.295ZM367.804 196.725H365.69L361.743 183.036H363.861L367.804 196.725ZM377.363 196.725H375.249L371.302 183.036H373.419L377.363 196.725Z" fill="#10BAB2"/>
<path d="M340.662 197.064C341.063 195.337 343.283 193.701 345.229 193.701H347.811L341.754 199.759H340.041L340.662 197.064Z" fill="#08908C"/>
<path style="mix-blend-mode:color-burn" d="M340.662 197.064C341.063 195.337 343.283 193.701 345.229 193.701H347.811L341.754 199.759H340.041L340.662 197.064Z" fill="url(#paint12_linear_67_978)"/>
<path d="M347.811 193.701L348.129 194.797C348.298 195.328 348.625 195.796 349.065 196.138C349.506 196.48 350.04 196.681 350.597 196.714H402.001C402.332 196.721 402.655 196.618 402.921 196.422L399.606 199.748L397.028 202.333C396.888 202.481 396.718 202.597 396.529 202.674C396.34 202.751 396.137 202.787 395.933 202.778H344.532C343.975 202.746 343.441 202.546 343 202.204C342.56 201.861 342.233 201.393 342.064 200.862L341.747 199.766L347.811 193.701Z" fill="#10BAB2"/>
<path style="mix-blend-mode:color-burn" d="M391.135 202.783H389.017L394.359 196.725H396.473L391.135 202.783ZM381.572 202.783H379.458L384.8 196.725H386.914L381.572 202.783ZM358.238 196.725L352.896 202.783H350.782L356.124 196.725H358.238ZM362.455 202.783H360.341L365.683 196.725H367.797L362.455 202.783ZM372.014 202.783H369.9L375.241 196.725H377.355L372.014 202.783Z" fill="url(#paint13_linear_67_978)"/>
<path d="M208.6 292.412L231.237 304.705C231.762 304.992 232.152 305.475 232.323 306.048C232.493 306.621 232.43 307.239 232.146 307.765L219.608 330.86L208.6 292.412Z" fill="#08908C"/>
<path d="M223.383 300.436L265.992 221.587L273.663 223.073L229.933 303.993L223.383 300.436Z" fill="#FFA300"/>
<g style="mix-blend-mode:color-burn">
<path d="M223.383 300.436L265.992 221.587L273.663 223.073L229.933 303.993L223.383 300.436Z" fill="#FFD5A0"/>
</g>
<path d="M219.478 308.547C219.478 307.831 219.69 307.132 220.087 306.538C220.484 305.943 221.049 305.48 221.71 305.207C222.371 304.933 223.098 304.862 223.799 305.001C224.5 305.141 225.144 305.486 225.649 305.992C226.155 306.498 226.499 307.142 226.638 307.844C226.777 308.545 226.705 309.272 226.431 309.932C226.157 310.593 225.693 311.157 225.098 311.554C224.503 311.951 223.804 312.162 223.089 312.161C222.614 312.161 222.144 312.068 221.706 311.886C221.268 311.704 220.869 311.438 220.534 311.102C220.199 310.767 219.933 310.368 219.751 309.93C219.57 309.491 219.477 309.021 219.478 308.547Z" fill="#FFA300"/>
<path d="M580.045 292.412L602.682 304.705C603.207 304.992 603.597 305.475 603.768 306.048C603.938 306.621 603.875 307.239 603.591 307.765L591.053 330.874L580.045 292.412Z" fill="#08908C"/>
<path d="M594.829 300.437L634.112 227.743H642.586L601.379 303.993L594.829 300.437Z" fill="#FFA300"/>
<g style="mix-blend-mode:color-burn">
<path d="M594.829 300.437L634.112 227.743H642.586L601.379 303.993L594.829 300.437Z" fill="#E6CF03"/>
</g>
<path d="M590.922 308.547C590.922 307.831 591.134 307.132 591.531 306.538C591.928 305.943 592.493 305.48 593.154 305.207C593.815 304.933 594.542 304.862 595.243 305.001C595.944 305.141 596.588 305.486 597.093 305.992C597.599 306.498 597.943 307.142 598.082 307.844C598.221 308.545 598.149 309.272 597.875 309.932C597.601 310.593 597.137 311.157 596.542 311.554C595.947 311.951 595.248 312.162 594.533 312.161C594.058 312.161 593.588 312.068 593.15 311.886C592.712 311.704 592.313 311.438 591.978 311.102C591.643 310.767 591.377 310.368 591.195 309.93C591.014 309.491 590.921 309.021 590.922 308.547Z" fill="#FFA300"/>
<path d="M163.531 133.458C163.841 132.491 164.897 132.264 166.394 133.039L281.189 192.401C283.38 193.544 285.935 196.378 286.801 198.7L297.732 227.483C296.14 227.326 294.563 227.118 293.351 226.884L188.052 206.503C185.613 206.032 183.061 203.691 182.382 201.3L163.604 135.31C163.427 134.708 163.402 134.072 163.531 133.458Z" fill="#10BAB2"/>
<path d="M490.526 12.3776C487.163 26.3694 475.45 20.0453 469.093 20.5017C462.317 20.9764 458.1 26.0444 455.887 32.069C454.619 35.4529 454.727 39.1988 456.187 42.5045C459.301 49.5113 467.052 52.4397 474.307 51.5524C477.736 51.1362 481.558 50.5885 484.596 48.8395C487.97 46.897 490.233 43.2822 492.475 40.2115C496.973 34.0444 499.296 26.7454 501.545 19.4976C505.042 8.21872 492.552 3.95765 490.526 12.3776Z" fill="#082947"/>
<path d="M505.883 18.0473L501.721 16.0427C501.721 16.0427 500.02 15.7981 498.03 20.9574C497.648 21.8823 497.487 22.8837 497.562 23.8816C497.636 24.8795 497.942 25.8462 498.457 26.7045L503.349 28.5813C503.349 28.5813 506.522 26.8761 507.296 23.4512C507.541 22.5047 507.54 21.5113 507.292 20.5655C507.045 19.6196 506.56 18.7528 505.883 18.0473Z" fill="url(#paint14_linear_67_978)"/>
<path d="M523.353 35.5267C525.668 33.9859 526.906 28.6915 526.439 25.7011C525.822 21.754 525.409 15.7403 514.233 14.9589C506.565 14.4258 498.679 21.2355 502.44 34.1356C504.605 41.566 519.18 38.309 523.353 35.5267Z" fill="#082947"/>
<path d="M593.2 118.685C593.2 118.685 582.188 121.873 581.363 122.063C580.45 122.275 578.975 122.559 580.319 125.174C581.662 127.788 582.042 128.635 582.042 128.635C582.042 128.635 593.127 122.121 594.237 121.281C595.347 120.442 595.759 118.992 593.2 118.685Z" fill="#0F1C29"/>
<path d="M583.675 122.117C583.675 122.117 583.864 123.212 583.225 123.902C582.269 124.925 581.535 124.6 581.535 124.6C581.535 124.6 575.156 119.941 570.122 117.998C568.679 117.443 565.2 115.848 560.837 113.785L565.915 106.526C574.758 114.299 583.675 122.117 583.675 122.117Z" fill="#F7BB92"/>
<path d="M524.365 84.7428C528.381 78.4078 536.198 79.5543 539.773 82.8112C546.553 88.9819 560.661 101.163 566.331 106.147L560.749 114.234C549.876 109.101 533.57 100.608 529.404 98.4206C523.584 95.3644 520.349 91.0778 524.365 84.7428Z" fill="#082947"/>
<path d="M519.315 69.8885C519.315 69.8885 523.872 75.6466 526.179 77.4723C527.83 78.7904 531.335 78.009 532.361 76.5302C533.387 75.0514 531.265 68.6763 527.826 64.145C525.197 60.6763 519.195 69.045 519.315 69.8885Z" fill="#F7BB92"/>
<path d="M505.453 44.7758C507.143 53.5682 519.74 76.0858 519.74 76.0858C519.74 76.0858 523.774 76.3961 527.936 73.1647C531.737 70.2072 532.427 67.7206 532.427 67.7206C532.427 67.7206 529.601 61.4331 525.987 51.8156C520.265 36.5787 504.945 42.1433 505.453 44.7758Z" fill="url(#paint15_linear_67_978)"/>
<path d="M564.233 61.4078C566.058 61.2179 569.267 59.7026 569.147 58.275C569.07 57.3475 566.799 57.8332 565.96 58.1472C564.766 58.5926 560.611 60.4219 560.611 60.4219C560.611 60.4219 562.827 61.5356 564.233 61.4078Z" fill="#F7BB92"/>
<path d="M533.391 67.8001C537.685 65.5655 555.334 59.3729 559.274 56.9922C561.143 55.8603 561.205 51.9388 567.511 50.1168C572.794 48.5905 574.674 52.8991 571.479 53.403C564.104 54.5422 567.277 62.8562 561.315 60.6691C557.339 62.3852 548.171 67.8293 548.171 67.8293L531.273 77.5052C531.273 77.5052 526.797 79.6193 525.431 76.439C524.292 73.8211 530.17 69.476 533.391 67.8001Z" fill="#F7BB92"/>
<path d="M521.456 50.6153C522.551 44.0977 521.116 42.8599 511.696 41.0415C508.903 40.5012 506.774 40.4354 504.113 40.0666C494.901 38.8033 491.743 38.4345 487.913 47.8585C480.859 65.2241 475.988 89.6039 475.411 94.5952C474.564 101.934 523.467 89.4433 523.467 89.4433C523.467 89.4433 519.451 86.7851 519.816 79.2853C524.106 78.6317 525.994 77.3209 526.845 74.1187C528.196 69.0763 519.254 63.7344 521.456 50.6153Z" fill="#FCB800"/>
<path d="M508.768 39.763C504.708 39.2847 500.483 36.5681 499.64 39.3139C498.797 42.0596 500.005 53.0099 505.847 57.0483C511.689 61.0866 517.165 59.2682 517.333 55.7885C517.501 52.3089 516.727 48.4859 516.483 45.6963C516.238 42.9067 517.75 40.4458 514.902 40.0441C512.054 39.6425 511.028 40.0295 508.768 39.763Z" fill="#082947"/>
<path d="M511.696 41.0406C508.903 40.5002 506.774 40.4345 504.113 40.0657C503.313 39.9598 502.572 39.8649 501.874 39.7955C501.911 43.8923 502.448 56.8361 511.627 57.0479C518.597 57.2086 514.266 54.262 514.851 41.7124C513.916 41.4861 512.868 41.267 511.696 41.0406Z" fill="#F7BB92"/>
<path d="M504.258 39.8285C507.274 34.9066 509.778 31.9454 513.163 27.7135C513.222 27.5346 520.929 30.3935 523.97 27.2753C523.97 27.2753 522.988 32.2557 521.071 36.0385C519.246 39.6167 517.508 41.3146 514.372 38.3644C512.889 40.2484 513.2 41.4205 512.725 43.4762C511.962 46.8025 509.384 47.4926 507.796 47.1932C506.208 46.8938 500.95 45.2251 504.258 39.8285Z" fill="#F7BB92"/>
<path d="M481.314 67.3734C481.314 67.3734 480.105 74.6066 480.281 77.5496C480.405 79.66 483.333 81.7376 485.122 81.5112C486.911 81.2848 490.212 75.4245 491.278 69.827C492.107 65.5696 481.858 66.7198 481.314 67.3734Z" fill="#F7BB92"/>
<path d="M491.826 41.3253C480.508 53.444 476.995 71.8538 476.995 71.8538C476.995 71.8538 479.467 75.0524 484.663 75.9725C489.409 76.8123 491.713 75.6585 491.713 75.6585C491.713 75.6585 491.538 73.9059 497.037 63.8429C498.468 61.2212 498.384 54.2253 497.551 48.7374C496.901 44.4179 495.215 37.674 491.826 41.3253Z" fill="url(#paint16_linear_67_978)"/>
<path d="M504.156 88.3934C504.156 88.3934 537.341 94.5459 544.545 95.9005C551.749 97.2551 549.81 111.346 544.611 113.197C534.972 116.633 523.463 118.206 511.451 118.206H492.031C483.063 118.206 478.572 88.3934 504.156 88.3934Z" fill="url(#paint17_linear_67_978)"/>
<path d="M576.065 159.994C576.065 159.994 564.612 159.468 563.772 159.38C562.837 159.289 561.351 159.081 561.782 161.991C562.213 164.901 562.297 165.821 562.297 165.821C562.297 165.821 574.889 163.225 576.211 162.787C577.533 162.349 578.391 161.089 576.065 159.994Z" fill="#0F1C29"/>
<path d="M566.522 160.329C566.522 160.329 566.091 161.366 565.189 161.599C563.831 161.964 563.382 161.285 563.382 161.285C563.382 161.285 560.486 153.935 557.266 149.601C556.346 148.36 554.258 145.154 551.669 141.079L559.844 137.658C563.163 148.955 566.522 160.329 566.522 160.329Z" fill="#F7BB92"/>
<path d="M536.144 96.5706C543.447 94.8983 547.51 95.7308 548.741 99.5573C551.545 108.288 558.27 130.32 560.399 137.564L551.373 141.42C544.929 131.273 535.673 115.378 533.333 111.304C530.032 105.589 527.67 98.5094 536.144 96.5706Z" fill="url(#paint18_linear_67_978)"/>
<path d="M552.869 144.169C552.772 144.206 552.667 144.213 552.566 144.188C552.466 144.163 552.375 144.108 552.307 144.03L550.39 141.642C550.359 141.611 550.337 141.572 550.326 141.529C550.314 141.487 550.314 141.442 550.324 141.399C550.335 141.357 550.356 141.317 550.386 141.285C550.416 141.253 550.454 141.229 550.496 141.215L560.686 136.885C560.726 136.865 560.771 136.854 560.816 136.855C560.861 136.855 560.905 136.867 560.944 136.888C560.984 136.909 561.018 136.939 561.044 136.976C561.069 137.013 561.086 137.056 561.091 137.1L561.665 140.039C561.68 140.14 561.662 140.244 561.614 140.334C561.566 140.424 561.49 140.496 561.398 140.54L552.869 144.169Z" fill="url(#paint19_linear_67_978)"/>
<path d="M475.41 94.5754C475.41 94.5754 523.383 82.4239 530.444 80.4339C537.505 78.444 547.119 88.3171 539.444 95.083C531.769 101.849 515.872 118.229 506.241 118.229C499.059 118.229 500.012 118.258 489.559 118.258C480.033 118.258 473.055 107.643 475.41 94.5754Z" fill="#082947"/>
<path d="M517.213 77.3353C516.997 78.2225 517.578 78.8579 518.48 78.8579H551.201C551.661 78.8584 552.109 78.7105 552.478 78.4362C552.847 78.1618 553.118 77.7757 553.25 77.3353L558.898 54.1057C559.113 53.2221 558.533 52.5867 557.631 52.5867H524.909C524.451 52.5862 524.004 52.7337 523.635 53.0074C523.267 53.281 522.997 53.6662 522.865 54.1057L517.213 77.3353Z" fill="#082947"/>
<path style="mix-blend-mode:color-burn" d="M517.213 77.4253L522.865 54.2249C523.002 53.7925 523.275 53.4162 523.643 53.1527C524.012 52.8893 524.457 52.7529 524.91 52.7644H526.484C526.031 52.7535 525.586 52.8901 525.218 53.1535C524.849 53.4169 524.576 53.7928 524.439 54.2249L518.787 77.4983C518.572 78.3819 519.152 79.0428 520.054 79.0428H518.48C518.278 79.0558 518.076 79.0193 517.892 78.9366C517.707 78.8538 517.545 78.7274 517.42 78.5681C517.296 78.4087 517.212 78.2214 517.176 78.0223C517.139 77.8232 517.152 77.6183 517.213 77.4253Z" fill="url(#paint20_linear_67_978)"/>
<path d="M542.744 66.0841C543.336 63.4041 541.992 61.2352 539.739 61.2352C537.486 61.2352 535.175 63.4041 534.58 66.0841C533.985 68.7642 535.332 70.9294 537.585 70.9294C539.838 70.9294 542.149 68.7569 542.744 66.0841Z" fill="url(#paint21_linear_67_978)"/>
<path style="mix-blend-mode:color-burn" d="M536.571 66.0841C537.071 63.813 538.809 61.9143 540.701 61.3849C540.39 61.2853 540.066 61.2348 539.74 61.2352C537.488 61.2352 535.177 63.4041 534.581 66.0841C533.986 68.7642 535.334 70.9294 537.586 70.9294C537.933 70.9265 538.279 70.8761 538.612 70.7797C536.958 70.2503 536.064 68.3443 536.571 66.0841Z" fill="url(#paint22_linear_67_978)"/>
<path d="M490.855 72.0717C495.463 70.593 513.908 67.482 518.195 65.8024L519.586 69.7641C515.376 70.7828 505.427 74.5948 505.427 74.5948L487.135 81.2694C487.135 81.2694 482.363 82.5948 481.541 79.2283C480.866 76.4789 487.397 73.1744 490.855 72.0717Z" fill="#F7BB92"/>
<path d="M518.208 62.5969C518.697 61.5015 520.764 59.5991 521.578 60.1359C523.217 61.2313 520.683 62.2244 520.245 65.1272C519.964 66.9784 517.127 67.4896 517.127 67.4896C517.207 65.8091 517.572 64.1546 518.208 62.5969Z" fill="#F7BB92"/>
<path d="M521.043 73.0411C518.074 73.4573 517.004 72.7344 517.136 69.9594C517.198 68.6595 517.03 66.0342 517.527 64.7125C518.33 62.5764 518.005 61.7914 523.233 63.8325C525.767 64.8147 523.737 72.665 521.043 73.0411Z" fill="#F7BB92"/>
<path d="M509.545 26.6394C508.45 27.1141 508.128 28.8302 508.815 30.4404C509.501 32.0506 510.619 32.7152 511.466 31.8754C512.627 30.7252 513.291 29.8087 512.787 28.7206C512.064 27.1141 510.64 26.1684 509.545 26.6394Z" fill="#F7BB92"/>
<path d="M563.464 115.786C563.403 115.87 563.317 115.933 563.218 115.967C563.12 116.001 563.013 116.004 562.913 115.976L560.01 115.005C559.968 114.994 559.929 114.973 559.897 114.943C559.865 114.913 559.841 114.876 559.827 114.835C559.812 114.794 559.809 114.749 559.816 114.706C559.823 114.663 559.841 114.623 559.868 114.588L566.075 105.427C566.098 105.389 566.13 105.356 566.168 105.333C566.206 105.309 566.249 105.295 566.294 105.291C566.338 105.288 566.383 105.295 566.424 105.312C566.466 105.33 566.502 105.356 566.531 105.391L568.605 107.552C568.672 107.629 568.713 107.726 568.722 107.827C568.73 107.929 568.706 108.031 568.652 108.118L563.464 115.786Z" fill="url(#paint23_linear_67_978)"/>
<path d="M132.689 325.033C132.689 325.033 141.609 328.608 144.055 330.145C145.812 331.24 144.085 333.559 143.048 334.994C142.011 336.429 135.41 336.495 130.101 334.775C126.037 333.431 131.868 325.183 132.689 325.033Z" fill="#F7BB92"/>
<path d="M102.166 316.999C113.053 317.55 136.961 324.948 136.961 324.948C136.961 324.948 136.724 326.686 135.913 331.805C134.686 339.524 132.755 342.733 132.755 342.733C132.755 342.733 122.842 341.492 113.503 339.812C107.153 338.684 101.224 335.361 97.8027 328.785C95.4185 324.115 94.5933 316.604 102.166 316.999Z" fill="url(#paint24_linear_67_978)"/>
<path d="M167.077 302.824C167.008 301.612 167.077 297.847 168.063 297.793C170.345 297.668 169.158 299.801 170.863 302.138C171.959 303.649 168.673 307.534 168.673 307.534C167.774 306.114 167.227 304.499 167.077 302.824Z" fill="#F7BB92"/>
<path d="M138.856 328.317C144.855 320.829 165.546 309.805 167.875 305.931C169.391 303.419 167.357 301.236 171.673 297.679C173.761 295.956 180.399 299.406 179.895 302.061C178.734 308.159 175.269 309.539 170.953 308.98C168.566 309.97 152.559 327.189 147.707 331.655C145.516 333.678 141.73 336.697 139.937 335.521C137.082 333.674 136.629 331.111 138.856 328.317Z" fill="#F7BB92"/>
<path d="M127.502 367.686C127.502 367.686 138.78 405.474 140.73 413.131C142.68 420.787 128.714 426.944 121.642 418.48C114.57 410.016 104.996 398.157 101.812 388.276C98.6286 378.396 98.6177 370.085 103.901 361.987C109.184 353.888 124.475 357.503 127.502 367.686Z" fill="url(#paint25_linear_67_978)"/>
<path d="M154.272 483.232C154.272 483.232 142.552 480.216 141.697 479.946C140.755 479.65 139.262 479.113 139.083 482.213C138.904 485.313 138.791 486.284 138.791 486.284C138.791 486.284 152.362 486.317 153.823 486.149C155.283 485.981 156.437 484.886 154.272 483.232Z" fill="#0F1B29"/>
<path d="M143.325 481.008C143.325 481.008 142.62 481.961 141.634 481.968C140.174 481.968 139.867 481.187 139.867 481.187C139.867 481.187 138.772 472.924 136.581 467.677C135.398 464.843 131.754 453.842 128.344 443.253L141.671 442.088C142.251 456.551 143.325 481.008 143.325 481.008Z" fill="#F7BB92"/>
<path d="M128.523 408.496C136.289 406.933 140.681 409.957 140.966 414.17C141.623 423.828 140.966 423.919 141.404 435.618C141.47 437.352 141.557 439.565 141.659 442.077L128.333 443.242C125.412 434.183 122.67 425.42 121.783 422.338C119.851 415.653 120.76 410.055 128.523 408.496Z" fill="url(#paint26_linear_67_978)"/>
<path d="M110.031 372.134C110.031 372.134 109.666 415.767 109.451 423.504C109.235 431.241 94.4154 433.272 90.034 423.402C85.6527 413.533 76.3021 393.673 78.4271 370.706C79.5772 358.259 109.922 361.713 110.031 372.134Z" fill="#082947"/>
<path d="M68.8269 478.292C68.2281 477.504 67.319 476.189 65.3803 478.614C63.4415 481.038 62.7952 481.794 62.7952 481.794C62.7952 481.794 66.0375 484.16 69.2176 486.351H75.5742C73.2521 483.43 69.2103 478.796 68.8269 478.292Z" fill="#0F1B29"/>
<path d="M77.1334 483.319C77.1334 483.319 73.2778 482.268 71.8502 481.884L69.477 486.266C72.763 486.292 75.976 486.295 76.6478 486.23C78.1083 486.083 79.2766 484.999 77.1334 483.319Z" fill="#0F1B29"/>
<path d="M67.0823 479.414C67.0823 479.414 71.1899 472.159 72.6175 466.634C73.4828 463.264 78.1709 449.605 82.2528 438.012L95.2947 444.734C88.1786 454.935 69.9485 481.349 69.9485 481.349C69.9485 481.349 68.813 481.685 68.0244 481.097C66.8341 480.214 67.0823 479.414 67.0823 479.414Z" fill="#F7BB92"/>
<path d="M88.1796 421.572C90.6734 415.08 94.7736 411.166 101.904 414.606C109.035 418.045 110.729 423.091 108.403 426.655C103.098 434.75 102.514 434.425 95.8069 444.021L95.2957 444.751L82.2538 438.029C84.8535 430.642 87.1975 424.099 88.1796 421.572Z" fill="#082947"/>
<path d="M97.1231 316.798C109.431 315.144 112.075 325.927 115.488 334.54C123.375 354.436 132.36 381.317 132.36 381.317C132.36 381.317 129.224 387.842 107.584 390.566C82.2229 393.753 78.5133 389.47 78.5133 389.47C78.5133 389.47 74.026 346.564 74.9388 328.61C75.2565 322.403 78.1153 320.092 89.0395 318.387C91.9057 317.963 94.0854 317.204 97.1231 316.798Z" fill="#FDC300"/>
<path d="M96.0476 301.368C97.7928 296.526 93.5538 286.054 87.6207 286.799C80.2893 287.719 83.3161 294.357 79.8183 296.391C72.2166 300.824 73.0199 306.921 77.456 312.344C80.2053 315.699 85.2183 317.506 89.3989 317.222C91.2244 317.094 87.4966 310.616 90.224 306.443C92.9514 302.27 96.0476 301.368 96.0476 301.368Z" fill="#082947"/>
<path d="M102.167 316.999C103.572 320.446 107.698 327.843 99.074 329.154C88.9458 330.702 84.6739 320.756 84.9916 319.485C85.7218 316.564 90.0046 317.196 92.5677 316.842C95.1308 316.487 100.991 314.078 102.167 316.999Z" fill="#082947"/>
<path d="M87.5988 318.729C88.0771 318.59 88.5627 318.459 89.0593 318.338C91.7422 317.729 94.4721 317.35 97.2195 317.206C98.1199 317.135 99.0246 317.135 99.9251 317.206C100.71 319.474 104.336 325.447 97.8804 326.616C91.2609 327.81 87.9092 320.989 87.5988 318.729Z" fill="#F7BB92"/>
<path d="M89.4926 319.51C88.0029 313.256 86.3745 310.017 85.396 304.259C85.2938 304.084 93.0853 301.039 92.7603 296.354C92.7603 296.354 96.0464 300.735 97.7369 304.978C99.3178 308.995 99.4273 311.627 94.8159 312.036C95.9597 313.845 97.253 315.555 98.6824 317.148C101.114 319.908 99.7048 322.187 98.2443 323.144C96.7839 324.1 91.0808 326.152 89.4926 319.51Z" fill="#F7BB92"/>
<path d="M101.677 327.687L100.031 332.937L97.1354 332.963L94.9667 328.103C94.9667 328.103 99.8811 324.97 101.677 327.687Z" fill="#082947"/>
<path d="M99.9027 331.578L103.466 370.015C103.53 371.206 103.34 372.397 102.908 373.509L97.5878 385.785C97.1899 386.705 96.5655 386.694 96.204 385.756L91.5562 373.655C91.1751 372.529 91.0503 371.331 91.191 370.15L97.2191 332.651C97.3783 331.66 97.663 330.693 98.0662 329.774L99.9027 331.578Z" fill="#082947"/>
<path d="M82.655 309.269C82.655 310.463 84.0716 311.434 85.8351 311.46C87.5986 311.485 88.0915 310.678 88.0988 309.488C88.1061 308.298 87.6242 307.155 85.857 307.144C84.0899 307.133 82.6623 308.082 82.655 309.269Z" fill="#F7BB92"/>
<path d="M57.5613 354.521C64.6738 360.958 74.4405 382.271 78.1647 384.826C77.5476 386.104 76.602 387.13 75.2438 387.324C74.4004 384.881 58.1674 367.873 53.9978 362.758C52.1138 360.45 49.0213 356.887 50.3028 355.167C52.3292 352.417 54.9179 352.133 57.5613 354.521Z" fill="#F7BB92"/>
<path d="M56.0165 345.843C56.0165 345.843 50.8756 352.383 50.1016 355.169C49.4261 357.575 52.2923 359.393 53.8659 359.16C55.6148 358.901 59.9706 356.936 63.4903 352.587C66.1812 349.29 56.7905 345.533 56.0165 345.843Z" fill="#F7BB92"/>
<path d="M77.113 322.629C69.0805 330.757 52.8476 347.823 52.8476 347.823C52.8476 347.823 53.4099 350.408 57.156 353.99C62.7824 359.365 66.1451 359.576 66.1451 359.576C66.1451 359.576 71.9468 354.947 78.9241 348.528C80.976 346.643 82.9695 343.529 82.389 335.478C81.7829 326.926 78.4348 321.3 77.113 322.629Z" fill="url(#paint27_linear_67_978)"/>
<path d="M78.7228 390.225C82.4141 390.028 80.8514 379.878 78.1386 380.002L77.5581 380.024C77.8904 378.841 78.5293 378.596 77.4996 377.607C76.8242 376.957 75.1593 378.665 74.9438 379.867C74.8262 380.538 74.7506 381.216 74.7175 381.897C74.7175 381.955 74.6956 382.006 74.6883 382.065C74.6153 382.649 74.7175 385.676 74.7796 386.877C74.9402 389.911 78.1058 390.255 78.7228 390.225Z" fill="#F7BB92"/>
<path d="M127.479 446.131C127.522 446.327 127.633 446.5 127.792 446.621C127.951 446.742 128.149 446.801 128.348 446.789L142.139 445.66C142.336 445.641 142.52 445.549 142.654 445.403C142.789 445.257 142.865 445.067 142.869 444.868V439C142.87 438.907 142.852 438.814 142.815 438.728C142.778 438.642 142.723 438.564 142.654 438.501C142.585 438.437 142.504 438.389 142.415 438.36C142.326 438.33 142.232 438.319 142.139 438.329L126.935 439.581C126.843 439.587 126.753 439.612 126.671 439.656C126.59 439.7 126.519 439.761 126.463 439.835C126.407 439.909 126.368 439.994 126.348 440.084C126.328 440.175 126.328 440.268 126.347 440.359L127.479 446.131Z" fill="url(#paint28_linear_67_978)"/>
<path d="M93.699 448.006C93.8797 448.095 94.0856 448.116 94.2806 448.067C94.4756 448.019 94.6472 447.903 94.7651 447.74L98.1132 442.88C98.1673 442.806 98.2044 442.72 98.2219 442.63C98.2395 442.54 98.2371 442.447 98.2148 442.358C98.1925 442.269 98.151 442.186 98.093 442.114C98.0351 442.043 97.9622 441.985 97.8796 441.945L82.7456 434.161C82.6652 434.117 82.5759 434.091 82.4843 434.086C82.3927 434.081 82.3011 434.097 82.2163 434.132C82.1315 434.167 82.0558 434.22 81.9944 434.288C81.9331 434.357 81.8878 434.438 81.862 434.526L79.9707 440.142C79.9111 440.334 79.9196 440.541 79.9948 440.728C80.0699 440.915 80.2071 441.07 80.3833 441.167L93.699 448.006Z" fill="#FA7B00"/>
<path d="M369.89 276.366H470.191L470.314 307.09L470.34 313.856L470.358 318.243C470.358 318.833 470.358 319.559 470.358 320.309V320.604C470.358 321.466 470.358 322.328 470.358 322.981L470.39 331.199C470.375 331.838 470.11 332.444 469.653 332.886C469.196 333.329 468.584 333.571 467.95 333.561H404.819C403.468 333.561 401.758 332.489 401.011 331.199L396.344 322.981L394.993 320.604L394.82 320.309L393.649 318.243L391.156 313.856L387.312 307.09L369.89 276.366Z" fill="#08908C"/>
<path d="M461.633 283.72C461.954 283.715 462.264 283.837 462.497 284.058C462.729 284.279 462.866 284.583 462.877 284.903L463.037 325.009C463.029 325.329 462.895 325.633 462.663 325.855C462.432 326.076 462.122 326.198 461.802 326.192H457.839C457.517 326.197 457.207 326.076 456.975 325.854C456.742 325.633 456.605 325.329 456.595 325.009L456.435 284.903C456.443 284.583 456.577 284.279 456.808 284.058C457.039 283.836 457.349 283.715 457.67 283.72H461.633ZM436.561 283.72C436.91 283.734 437.244 283.862 437.512 284.085C437.78 284.308 437.966 284.614 438.042 284.954L445.858 324.973C445.896 325.123 445.898 325.278 445.865 325.429C445.832 325.579 445.765 325.72 445.668 325.839C445.571 325.959 445.448 326.055 445.307 326.118C445.167 326.182 445.014 326.212 444.86 326.207H441.116C440.768 326.193 440.434 326.065 440.166 325.842C439.898 325.618 439.711 325.313 439.635 324.973L431.819 284.954C431.781 284.805 431.779 284.649 431.812 284.498C431.845 284.348 431.912 284.207 432.009 284.088C432.106 283.968 432.23 283.872 432.37 283.809C432.51 283.745 432.663 283.715 432.817 283.72H436.561ZM449.066 283.72C449.401 283.725 449.724 283.851 449.974 284.074C450.224 284.298 450.385 284.604 450.428 284.936L454.45 324.991C454.468 325.147 454.452 325.304 454.404 325.453C454.356 325.602 454.276 325.738 454.17 325.854C454.064 325.969 453.935 326.06 453.79 326.121C453.646 326.182 453.49 326.211 453.334 326.207H449.507C449.172 326.202 448.849 326.076 448.599 325.853C448.349 325.629 448.187 325.324 448.145 324.991L444.122 284.936C444.105 284.781 444.121 284.623 444.17 284.475C444.218 284.326 444.298 284.19 444.404 284.075C444.51 283.959 444.639 283.868 444.783 283.807C444.927 283.746 445.083 283.716 445.239 283.72H449.066ZM399.28 283.72C399.662 283.751 400.03 283.879 400.348 284.092C400.666 284.305 400.925 284.595 401.099 284.936L420.191 324.991C420.511 325.66 420.215 326.207 419.533 326.207H415.707C415.325 326.176 414.957 326.048 414.639 325.835C414.321 325.622 414.062 325.332 413.888 324.991L394.793 284.936C394.473 284.267 394.77 283.72 395.454 283.72H399.28ZM386.841 283.72C387.232 283.754 387.609 283.878 387.943 284.083C388.277 284.289 388.558 284.57 388.763 284.903L411.75 325.009C412.126 325.663 411.874 326.192 411.193 326.192H407.23C406.839 326.159 406.462 326.034 406.128 325.829C405.794 325.623 405.513 325.342 405.308 325.009L382.321 284.903C381.945 284.247 382.197 283.72 382.878 283.72H386.841ZM437.245 324.97C437.444 325.651 437.047 326.207 436.357 326.207H432.636C432.276 326.187 431.93 326.058 431.645 325.837C431.36 325.616 431.149 325.314 431.04 324.97L419.489 284.96C419.294 284.276 419.69 283.72 420.378 283.72H424.095C424.455 283.74 424.801 283.87 425.087 284.091C425.372 284.313 425.583 284.615 425.691 284.96L437.245 324.97ZM411.688 283.72C412.059 283.747 412.416 283.877 412.718 284.095C413.019 284.312 413.254 284.61 413.397 284.954L428.68 324.973C428.937 325.654 428.591 326.207 427.909 326.207H424.166C423.794 326.18 423.437 326.051 423.135 325.833C422.834 325.615 422.598 325.317 422.457 324.973L407.174 284.954C406.916 284.276 407.26 283.72 407.944 283.72H411.688Z" fill="#FFA300"/>
<path d="M361.002 266.601C360.61 265.229 361.406 264.11 362.784 264.11H469.909C471.278 264.11 472.718 265.229 473.113 266.601L475.192 273.875C475.587 275.244 474.788 276.366 473.41 276.366H366.273C364.904 276.366 363.464 275.244 363.072 273.875L361.002 266.601Z" fill="#FFA300"/>
<path d="M466.796 333.561L467.838 337.442C468.232 338.903 467.436 340.098 466.062 340.098H410.075C408.713 340.098 407.277 338.903 406.883 337.442L405.841 333.561H466.796Z" fill="#FFA300"/>
<path d="M365.653 258.39H371.872L369.616 250.455C368.971 248.18 368.807 244.411 369.265 242.39L374.355 220.077C374.682 218.652 376.489 217.303 378.073 217.303H427.245C428.833 217.303 431.407 218.652 432.545 220.077L450.322 242.39C451.934 244.411 453.913 248.18 454.558 250.455L456.815 258.39H463.037L460.777 250.455C459.853 247.198 457.32 242.378 455.016 239.485L437.236 217.173C434.433 213.654 429.368 211 425.453 211H376.284C372.369 211 368.813 213.654 368.011 217.173L362.922 239.501C362.262 242.393 362.47 247.213 363.397 250.47L365.653 258.39Z" fill="#08908C"/>
<path d="M454.884 264.11L453.306 259.825C453.014 259.038 453.605 258.39 454.612 258.39H463.987C464.52 258.415 465.031 258.566 465.452 258.822C465.873 259.078 466.186 259.428 466.348 259.825L467.939 264.11H454.884Z" fill="#FF6700"/>
<path d="M364.917 264.11L363.425 259.825C363.148 259.038 363.704 258.39 364.659 258.39H373.519C374.023 258.416 374.505 258.566 374.904 258.822C375.302 259.078 375.598 259.428 375.752 259.825L377.244 264.11H364.917Z" fill="#FF6700"/>
<path d="M406.812 337.321C407.2 338.736 408.616 339.893 409.96 339.893H465.189C465.586 339.903 465.975 339.783 466.305 339.551L461.878 344.221C461.767 344.388 461.628 344.533 461.469 344.649C461.138 344.886 460.745 345.009 460.345 345H405.115C403.772 345 402.355 343.84 401.967 342.425L400.939 338.665L405.784 333.561L406.812 337.321Z" fill="#FFA300"/>
<path style="mix-blend-mode:color-burn" d="M406.812 337.321C407.2 338.736 408.616 339.893 409.96 339.893H465.189C465.586 339.903 465.975 339.783 466.305 339.551L461.878 344.221C461.767 344.388 461.628 344.533 461.469 344.649C461.138 344.886 460.745 345.009 460.345 345H405.115C403.772 345 402.355 343.84 401.967 342.425L400.939 338.665L405.784 333.561L406.812 337.321Z" fill="url(#paint29_linear_67_978)"/>
<path d="M356.544 270.293L359.437 267.746L361.711 265.744C361.478 265.988 361.322 266.282 361.257 266.595C361.193 266.908 361.222 267.231 361.341 267.532L362.475 270.991L363.568 274.328C363.985 275.607 365.516 276.655 366.972 276.655H369.89L364.648 281.268H361.742C360.29 281.268 358.758 280.22 358.338 278.941L356.127 272.145C355.996 271.833 355.966 271.494 356.039 271.167C356.113 270.841 356.287 270.538 356.544 270.293Z" fill="#FFA300"/>
<path style="mix-blend-mode:color-burn" d="M356.544 270.293L359.437 267.746L361.711 265.744C361.478 265.988 361.322 266.282 361.257 266.595C361.193 266.908 361.222 267.231 361.341 267.532L362.475 270.991L363.568 274.328C363.985 275.607 365.516 276.655 366.972 276.655H369.89L364.648 281.268H361.742C360.29 281.268 358.758 280.22 358.338 278.941L356.127 272.145C355.996 271.833 355.966 271.494 356.039 271.167C356.113 270.841 356.287 270.538 356.544 270.293Z" fill="url(#paint30_linear_67_978)"/>
<path d="M386.35 307.094L390.31 313.861L392.879 318.248L394.087 320.314L394.265 320.609L395.656 322.986L400.465 331.204C401.229 332.509 402.992 333.566 404.389 333.566H405.841L400.833 338.464H399.378C397.99 338.464 396.227 337.395 395.454 336.102L390.645 327.886L389.254 325.507L389.076 325.212L387.868 323.145L385.299 318.755L381.339 311.989L363.354 281.264L368.365 276.366L386.35 307.094Z" fill="#08908C"/>
<path style="mix-blend-mode:color-burn" d="M386.35 307.094L390.31 313.861L392.879 318.248L394.087 320.314L394.265 320.609L395.656 322.986L400.465 331.204C401.229 332.509 402.992 333.566 404.389 333.566H405.841L400.833 338.464H399.378C397.99 338.464 396.227 337.395 395.454 336.102L390.645 327.886L389.254 325.507L389.076 325.212L387.868 323.145L385.299 318.755L381.339 311.989L363.354 281.264L368.365 276.366L386.35 307.094Z" fill="url(#paint31_linear_67_978)"/>
<path d="M358.695 262.856L358.885 262.685L360.575 261.165L363.659 258.39C363.544 258.549 363.471 258.73 363.444 258.917C363.418 259.105 363.438 259.296 363.505 259.476L363.993 261.002L364.988 264.113H362.953C362.876 264.108 362.799 264.108 362.721 264.113H362.637L362.501 264.134L362.402 264.153L362.302 264.18C362.264 264.189 362.227 264.2 362.191 264.213L362.128 264.237C361.92 264.313 361.732 264.424 361.573 264.566L361.528 264.607L359.358 266.561L358.52 263.947C358.454 263.765 358.435 263.572 358.465 263.383C358.496 263.194 358.574 263.013 358.695 262.856Z" fill="#FF6700"/>
<path style="mix-blend-mode:color-burn" d="M358.695 262.856L358.885 262.685L360.575 261.165L363.659 258.39C363.544 258.549 363.471 258.73 363.444 258.917C363.418 259.105 363.438 259.296 363.505 259.476L363.993 261.002L364.988 264.113H362.953C362.876 264.108 362.799 264.108 362.721 264.113H362.637L362.501 264.134L362.402 264.153L362.302 264.18C362.264 264.189 362.227 264.2 362.191 264.213L362.128 264.237C361.92 264.313 361.732 264.424 361.573 264.566L361.528 264.607L359.358 266.561L358.52 263.947C358.454 263.765 358.435 263.572 358.465 263.383C358.496 263.194 358.574 263.013 358.695 262.856Z" fill="url(#paint32_linear_67_978)"/>
<path d="M369.89 213.457L369.788 213.556L369.887 213.451L369.89 213.457ZM358.012 244.259L363.003 222.057C363.365 220.539 364.181 219.176 365.336 218.16L369.709 213.634C368.791 214.587 368.144 215.78 367.838 217.084L362.849 239.298C362.202 242.176 362.406 246.971 363.315 250.212L365.528 258.107H364.318C364.262 258.104 364.206 258.104 364.149 258.107C363.977 258.12 363.81 258.171 363.66 258.256C363.509 258.342 363.377 258.459 363.275 258.601L360.298 261.659L358.478 255.172C357.568 251.929 357.364 247.136 358.012 244.259Z" fill="#08908C"/>
<path style="mix-blend-mode:color-burn" d="M369.89 213.457L369.788 213.556L369.887 213.451L369.89 213.457ZM358.012 244.259L363.003 222.057C363.365 220.539 364.181 219.176 365.336 218.16L369.709 213.634C368.791 214.587 368.144 215.78 367.838 217.084L362.849 239.298C362.202 242.176 362.406 246.971 363.315 250.212L365.528 258.107H364.318C364.262 258.104 364.206 258.104 364.149 258.107C363.977 258.12 363.81 258.171 363.66 258.256C363.509 258.342 363.377 258.459 363.275 258.601L360.298 261.659L358.478 255.172C357.568 251.929 357.364 247.136 358.012 244.259Z" fill="url(#paint33_linear_67_978)"/>
<path d="M424.868 218.977C425.056 218.818 425.191 218.603 425.256 218.361C425.32 218.12 425.309 217.864 425.226 217.629L424.968 216.72H427.058C428.638 216.72 431.202 218.077 432.335 219.511L450.036 241.953C451.64 243.986 453.611 247.777 454.253 250.065L456.5 258.047H455.272C455.061 258.037 454.852 258.082 454.664 258.178C454.475 258.274 454.314 258.418 454.194 258.595L451.19 261.659L449.343 255.095C448.698 252.804 446.726 249.013 445.125 246.983L427.422 224.538C426.3 223.114 423.764 221.768 422.183 221.747L424.871 218.986L424.868 218.977Z" fill="#08908C"/>
<path style="mix-blend-mode:color-burn" d="M424.868 218.977C425.056 218.818 425.191 218.603 425.256 218.361C425.32 218.12 425.309 217.864 425.226 217.629L424.968 216.72H427.058C428.638 216.72 431.202 218.077 432.335 219.511L450.036 241.953C451.64 243.986 453.611 247.777 454.253 250.065L456.5 258.047H455.272C455.061 258.037 454.852 258.082 454.664 258.178C454.475 258.274 454.314 258.418 454.194 258.595L451.19 261.659L449.343 255.095C448.698 252.804 446.726 249.013 445.125 246.983L427.422 224.538C426.3 223.114 423.764 221.768 422.183 221.747L424.871 218.986L424.868 218.977Z" fill="url(#paint34_linear_67_978)"/>
<path d="M449.396 262.854L449.618 262.655L451.285 261.145L454.334 258.39C454.229 258.549 454.163 258.726 454.141 258.91C454.118 259.094 454.14 259.28 454.205 259.456L455.064 262.156L455.683 264.11H449.263L449.221 263.976C449.151 263.79 449.13 263.591 449.16 263.396C449.19 263.201 449.271 263.015 449.396 262.854Z" fill="#FF6700"/>
<path style="mix-blend-mode:color-burn" d="M449.396 262.854L449.618 262.655L451.285 261.145L454.334 258.39C454.229 258.549 454.163 258.726 454.141 258.91C454.118 259.094 454.14 259.28 454.205 259.456L455.064 262.156L455.683 264.11H449.263L449.221 263.976C449.151 263.79 449.13 263.591 449.16 263.396C449.19 263.201 449.271 263.015 449.396 262.854Z" fill="url(#paint35_linear_67_978)"/>
<g style="mix-blend-mode:color-burn">
<path d="M163.531 133.458C163.841 132.491 164.897 132.264 166.394 133.039L281.189 192.401C283.38 193.544 285.935 196.378 286.801 198.7L297.732 227.483C296.14 227.326 294.563 227.118 293.351 226.884L188.052 206.503C185.613 206.032 183.061 203.691 182.382 201.3L163.604 135.31C163.427 134.708 163.402 134.072 163.531 133.458Z" fill="#10BAB2"/>
</g>
<path d="M166.898 130.965H529.225C532.176 131.08 535.074 131.785 537.747 133.039L652.55 192.402C654.759 193.545 657.296 196.378 658.162 198.7L667.56 223.529C668.44 225.851 667.129 227.754 664.639 227.754H302.307C301.008 227.754 299.284 227.648 297.586 227.48H297.725L286.801 198.696C285.921 196.374 283.398 193.541 281.189 192.398L166.394 133.035C164.904 132.265 163.838 132.484 163.535 133.444C163.849 131.983 165.109 130.965 166.898 130.965ZM163.524 133.495C163.498 133.623 163.48 133.752 163.469 133.882C163.474 133.753 163.486 133.623 163.506 133.495H163.524ZM163.524 133.459V133.506C163.524 133.506 163.528 133.47 163.531 133.459H163.524Z" fill="#59D6D0"/>
<g style="mix-blend-mode:color-burn">
<path d="M284.366 194.972H655.726C656.755 196.057 657.58 197.318 658.162 198.696L667.56 223.525C668.44 225.847 667.129 227.75 664.639 227.75H302.307C301.044 227.75 299.386 227.647 297.725 227.487L286.801 198.696C286.218 197.317 285.39 196.054 284.358 194.968L284.366 194.972Z" fill="#D3D3D3"/>
</g>
<g style="mix-blend-mode:color-burn">
<path d="M502.422 223.525L493.024 198.696C492.144 196.373 489.621 193.54 487.412 192.397L372.616 133.034C369.941 131.78 367.04 131.075 364.087 130.96H405.374C408.326 131.075 411.225 131.78 413.9 133.034L528.699 192.401C530.89 193.544 533.445 196.377 534.311 198.699L543.709 223.528C544.589 225.85 543.274 227.753 540.788 227.753H499.504C501.991 227.742 503.305 225.839 502.422 223.525Z" fill="#00A091"/>
</g>
<g style="mix-blend-mode:color-burn">
<path d="M584.992 223.525L575.594 198.696C574.714 196.373 572.187 193.54 569.982 192.397L455.186 133.034C452.51 131.781 449.61 131.075 446.657 130.96H487.941C490.894 131.075 493.794 131.78 496.47 133.034L611.265 192.401C613.456 193.544 616.012 196.377 616.877 198.699L626.275 223.528C627.155 225.85 625.844 227.753 623.354 227.753H582.074C584.557 227.742 585.872 225.839 584.992 223.525Z" fill="#00A091"/>
</g>
<g style="mix-blend-mode:color-burn">
<path d="M419.855 223.525L410.457 198.696C409.577 196.373 407.05 193.54 404.845 192.397L290.05 133.034C287.373 131.781 284.473 131.075 281.521 130.96H322.804C325.757 131.075 328.657 131.78 331.333 133.034L446.128 192.401C448.319 193.544 450.875 196.377 451.74 198.699L461.138 223.528C462.018 225.85 460.707 227.753 458.217 227.753H416.93C419.42 227.742 420.735 225.839 419.855 223.525Z" fill="#00A091"/>
</g>
<g style="mix-blend-mode:color-burn">
<path d="M337.299 223.525L327.901 198.696C327.022 196.373 324.499 193.54 322.29 192.397L207.494 133.034C204.818 131.78 201.918 131.075 198.965 130.96H240.238C243.189 131.075 246.088 131.78 248.763 133.034L363.562 192.401C365.753 193.544 368.309 196.377 369.174 198.699L378.557 223.525C379.437 225.847 378.123 227.749 375.636 227.749H334.379C336.854 227.742 338.168 225.839 337.299 223.525Z" fill="#00A091"/>
</g>
<defs>
<linearGradient id="paint0_linear_67_978" x1="236.605" y1="417.983" x2="236.605" y2="492.207" gradientUnits="userSpaceOnUse">
<stop stop-color="#1CDAD4"/>
<stop offset="0.58" stop-color="#29BDB9"/>
<stop offset="1" stop-color="#08908C"/>
</linearGradient>
<linearGradient id="paint1_linear_67_978" x1="237.576" y1="455.027" x2="237.576" y2="482.857" gradientUnits="userSpaceOnUse">
<stop stop-color="white"/>
<stop offset="1" stop-color="white"/>
</linearGradient>
<linearGradient id="paint2_linear_67_978" x1="221.982" y1="462.784" x2="235.532" y2="484.505" gradientUnits="userSpaceOnUse">
<stop stop-color="white"/>
<stop offset="1" stop-color="white"/>
</linearGradient>
<linearGradient id="paint3_linear_67_978" x1="206.925" y1="476.532" x2="232.995" y2="485.222" gradientUnits="userSpaceOnUse">
<stop stop-color="white"/>
<stop offset="1" stop-color="white"/>
</linearGradient>
<linearGradient id="paint4_linear_67_978" x1="252.645" y1="461.252" x2="239.405" y2="482.662" gradientUnits="userSpaceOnUse">
<stop stop-color="white"/>
<stop offset="1" stop-color="white"/>
</linearGradient>
<linearGradient id="paint5_linear_67_978" x1="261.093" y1="470.003" x2="241.153" y2="484.278" gradientUnits="userSpaceOnUse">
<stop stop-color="white"/>
<stop offset="1" stop-color="white"/>
</linearGradient>
<linearGradient id="paint6_linear_67_978" x1="266.745" y1="480.789" x2="243.783" y2="485.524" gradientUnits="userSpaceOnUse">
<stop stop-color="white"/>
<stop offset="1" stop-color="white"/>
</linearGradient>
<linearGradient id="paint7_linear_67_978" x1="526.662" y1="461.445" x2="537.01" y2="496.943" gradientUnits="userSpaceOnUse">
<stop stop-color="#1DDDD7"/>
<stop offset="0.58" stop-color="#0D6F6C"/>
<stop offset="1" stop-color="#023C3A"/>
</linearGradient>
<linearGradient id="paint8_linear_67_978" x1="413.949" y1="399.445" x2="413.949" y2="456.559" gradientUnits="userSpaceOnUse">
<stop stop-color="#B7B7B7"/>
<stop offset="0.22" stop-color="#BCBCBC"/>
<stop offset="0.47" stop-color="#CACACA"/>
<stop offset="0.74" stop-color="#E2E2E2"/>
<stop offset="1" stop-color="white"/>
</linearGradient>
<linearGradient id="paint9_linear_67_978" x1="417.606" y1="478.963" x2="510.349" y2="478.963" gradientUnits="userSpaceOnUse">
<stop stop-color="#B7B7B7"/>
<stop offset="0.22" stop-color="#BCBCBC"/>
<stop offset="0.47" stop-color="#CACACA"/>
<stop offset="0.74" stop-color="#E2E2E2"/>
<stop offset="1" stop-color="white"/>
</linearGradient>
<linearGradient id="paint10_linear_67_978" x1="193.573" y1="434.447" x2="362.065" y2="283.513" gradientUnits="userSpaceOnUse">
<stop stop-color="#B7B7B7"/>
<stop offset="0.22" stop-color="#BCBCBC"/>
<stop offset="0.47" stop-color="#CACACA"/>
<stop offset="0.74" stop-color="#E2E2E2"/>
<stop offset="1" stop-color="white"/>
</linearGradient>
<linearGradient id="paint11_linear_67_978" x1="380.85" y1="224.051" x2="380.85" y2="352.029" gradientUnits="userSpaceOnUse">
<stop stop-color="#4EF7F2"/>
<stop offset="1" stop-color="white"/>
</linearGradient>
<linearGradient id="paint12_linear_67_978" x1="349.98" y1="186.14" x2="340.607" y2="200.96" gradientUnits="userSpaceOnUse">
<stop stop-color="#292929"/>
<stop offset="1" stop-color="white"/>
</linearGradient>
<linearGradient id="paint13_linear_67_978" x1="373.628" y1="191.847" x2="373.628" y2="205.77" gradientUnits="userSpaceOnUse">
<stop stop-color="#292929"/>
<stop offset="1" stop-color="white"/>
</linearGradient>
<linearGradient id="paint14_linear_67_978" x1="504.642" y1="8.6269" x2="500.99" y2="32.7255" gradientUnits="userSpaceOnUse">
<stop stop-color="#FDC300"/>
<stop offset="0.17" stop-color="#FCB200"/>
<stop offset="0.73" stop-color="#FA7E00"/>
<stop offset="1" stop-color="#F96A00"/>
</linearGradient>
<linearGradient id="paint15_linear_67_978" x1="518.947" y1="55.8539" x2="518.097" y2="78.2473" gradientUnits="userSpaceOnUse">
<stop stop-color="#FDC300"/>
<stop offset="0.17" stop-color="#FCB200"/>
<stop offset="0.73" stop-color="#FA7E00"/>
<stop offset="1" stop-color="#F96A00"/>
</linearGradient>
<linearGradient id="paint16_linear_67_978" x1="487.949" y1="54.6744" x2="487.098" y2="77.0679" gradientUnits="userSpaceOnUse">
<stop stop-color="#FDC300"/>
<stop offset="0.17" stop-color="#FCB200"/>
<stop offset="0.73" stop-color="#FA7E00"/>
<stop offset="1" stop-color="#F96A00"/>
</linearGradient>
<linearGradient id="paint17_linear_67_978" x1="502.173" y1="95.2615" x2="556.212" y2="135.423" gradientUnits="userSpaceOnUse">
<stop stop-color="#0F1E2D"/>
<stop offset="1" stop-color="#082947"/>
</linearGradient>
<linearGradient id="paint18_linear_67_978" x1="507.435" y1="88.1835" x2="561.474" y2="128.345" gradientUnits="userSpaceOnUse">
<stop stop-color="#0F1E2D"/>
<stop offset="1" stop-color="#082947"/>
</linearGradient>
<linearGradient id="paint19_linear_67_978" x1="549.795" y1="142.982" x2="572.888" y2="134.859" gradientUnits="userSpaceOnUse">
<stop stop-color="#FDC300"/>
<stop offset="0.17" stop-color="#FCB200"/>
<stop offset="0.73" stop-color="#FA7E00"/>
<stop offset="1" stop-color="#F96A00"/>
</linearGradient>
<linearGradient id="paint20_linear_67_978" x1="521.825" y1="75.8808" x2="521.825" y2="35.3294" gradientUnits="userSpaceOnUse">
<stop stop-color="white"/>
<stop offset="1" stop-color="#A0A0A0"/>
</linearGradient>
<linearGradient id="paint21_linear_67_978" x1="538.812" y1="59.9207" x2="538.567" y2="70.0202" gradientUnits="userSpaceOnUse">
<stop stop-color="#FDC300"/>
<stop offset="0.17" stop-color="#FCB200"/>
<stop offset="0.73" stop-color="#FA7E00"/>
<stop offset="1" stop-color="#F96A00"/>
</linearGradient>
<linearGradient id="paint22_linear_67_978" x1="537.568" y1="61.6222" x2="537.568" y2="83.771" gradientUnits="userSpaceOnUse">
<stop stop-color="white"/>
<stop offset="1" stop-color="#AAAAAA"/>
</linearGradient>
<linearGradient id="paint23_linear_67_978" x1="569.032" y1="103.565" x2="560.408" y2="117.67" gradientUnits="userSpaceOnUse">
<stop stop-color="#FDC300"/>
<stop offset="0.17" stop-color="#FCB200"/>
<stop offset="0.73" stop-color="#FA7E00"/>
<stop offset="1" stop-color="#F96A00"/>
</linearGradient>
<linearGradient id="paint24_linear_67_978" x1="126.234" y1="332.67" x2="147.17" y2="338.512" gradientUnits="userSpaceOnUse">
<stop stop-color="#FDC300"/>
<stop offset="0.17" stop-color="#FCB200"/>
<stop offset="0.73" stop-color="#FA7E00"/>
<stop offset="1" stop-color="#F96A00"/>
</linearGradient>
<linearGradient id="paint25_linear_67_978" x1="122.292" y1="370.39" x2="154.175" y2="448.945" gradientUnits="userSpaceOnUse">
<stop stop-color="#0F1E2D"/>
<stop offset="1" stop-color="#082947"/>
</linearGradient>
<linearGradient id="paint26_linear_67_978" x1="115.682" y1="362.019" x2="134.559" y2="444.861" gradientUnits="userSpaceOnUse">
<stop stop-color="#0F1E2D"/>
<stop offset="1" stop-color="#082947"/>
</linearGradient>
<linearGradient id="paint27_linear_67_978" x1="79.9683" y1="331.297" x2="50.2684" y2="367.079" gradientUnits="userSpaceOnUse">
<stop stop-color="#FDC300"/>
<stop offset="0.17" stop-color="#FCB200"/>
<stop offset="0.73" stop-color="#FA7E00"/>
<stop offset="1" stop-color="#F96A00"/>
</linearGradient>
<linearGradient id="paint28_linear_67_978" x1="146.589" y1="440.921" x2="128.454" y2="443.477" gradientUnits="userSpaceOnUse">
<stop stop-color="#FDC300"/>
<stop offset="0.17" stop-color="#FCB200"/>
<stop offset="0.73" stop-color="#FA7E00"/>
<stop offset="1" stop-color="#F96A00"/>
</linearGradient>
<linearGradient id="paint29_linear_67_978" x1="433.622" y1="323.864" x2="433.622" y2="355.46" gradientUnits="userSpaceOnUse">
<stop stop-color="#292929"/>
<stop offset="1" stop-color="white"/>
</linearGradient>
<linearGradient id="paint30_linear_67_978" x1="353.553" y1="257.894" x2="368.017" y2="293.162" gradientUnits="userSpaceOnUse">
<stop stop-color="#292929"/>
<stop offset="1" stop-color="white"/>
</linearGradient>
<linearGradient id="paint31_linear_67_978" x1="370.632" y1="217.321" x2="394.086" y2="375.523" gradientUnits="userSpaceOnUse">
<stop stop-color="#292929"/>
<stop offset="1" stop-color="white"/>
</linearGradient>
<linearGradient id="paint32_linear_67_978" x1="357.772" y1="254.167" x2="364.143" y2="271.72" gradientUnits="userSpaceOnUse">
<stop stop-color="#292929"/>
<stop offset="1" stop-color="white"/>
</linearGradient>
<linearGradient id="paint33_linear_67_978" x1="370.421" y1="167.966" x2="355.895" y2="299.509" gradientUnits="userSpaceOnUse">
<stop stop-color="#292929"/>
<stop offset="1" stop-color="white"/>
</linearGradient>
<linearGradient id="paint34_linear_67_978" x1="408.464" y1="192.029" x2="472.64" y2="280.161" gradientUnits="userSpaceOnUse">
<stop stop-color="#292929"/>
<stop offset="1" stop-color="white"/>
</linearGradient>
<linearGradient id="paint35_linear_67_978" x1="448.149" y1="250.297" x2="453.892" y2="271.238" gradientUnits="userSpaceOnUse">
<stop stop-color="#292929"/>
<stop offset="1" stop-color="white"/>
</linearGradient>
</defs>
</svg>
