<svg width="60" height="60" viewBox="0 0 60 60" fill="none" xmlns="http://www.w3.org/2000/svg">
<path d="M19.2422 1.125C18.2812 1.875 18.6094 3.51562 19.8047 3.98438C20.0859 4.125 19.1484 4.19531 17.3906 4.19531C14.1797 4.21875 13.9219 4.38281 15.6562 5.34375C17.9062 6.60938 24.8906 7.42969 31.3125 7.17188C35.1562 7.03125 35.3203 7.05469 35.5312 7.5C35.6484 7.75781 36.9609 9.35156 38.4375 11.0391C39.9141 12.7266 41.1328 14.2031 41.1328 14.3203C41.1328 14.4375 39.7734 15.3516 38.1328 16.4062L35.1328 18.2812H28.8047C21.6094 18.2812 21.8203 18.2344 19.9922 20.2266C16.9453 23.5781 15.4453 28.9219 15.9609 34.7344C16.1953 37.5469 16.5234 38.8359 17.1094 39.1406C17.8828 39.5625 18.8672 39.4219 19.4297 38.8125L19.9687 38.2266L19.6875 35.1094C19.4531 32.6484 19.4297 31.5938 19.6641 30.0469C20.1094 26.9766 21.3516 23.9062 22.6406 22.7109L23.2031 22.1953V23.0156C23.2031 23.4844 22.3594 28.1953 21.3281 33.4688C20.2969 38.7656 19.4531 43.1953 19.4531 43.3359C19.4531 43.5 20.1328 43.5938 21.3281 43.5938H23.2031V50.9766C23.2031 58.0547 23.2266 58.3828 23.6719 58.8281C24.3047 59.4609 25.5703 59.4375 26.1562 58.8047C26.5781 58.3359 26.6016 57.7969 26.6719 50.9531L26.7422 43.5938H29.0625H31.4062V50.9766C31.4062 58.0547 31.4297 58.3828 31.875 58.8281C32.5781 59.5313 33.8203 59.4609 34.4297 58.6875C34.8984 58.0781 34.9219 57.7969 34.9219 50.8359V43.5938H36.6562C37.6172 43.5938 38.4609 43.5234 38.5078 43.4297C38.5547 43.3125 37.7812 39.0703 36.7734 33.9844C34.9219 24.5625 34.5937 22.0312 35.2734 22.0312C35.7891 22.0312 45.2109 15.9609 45.4687 15.4688C45.6094 15.2344 45.7031 14.8359 45.7031 14.5781C45.7031 14.3203 44.1797 12.4219 42.3047 10.2891L38.9062 6.46875L40.6641 5.97656C42.3047 5.50781 43.3594 4.89844 43.3594 4.40625C43.3594 4.3125 42.0234 4.21875 40.3828 4.19531C38.7187 4.19531 37.5469 4.125 37.7344 4.05469C38.4844 3.77344 38.9062 3.1875 38.9062 2.41406C38.9062 1.45312 38.2031 0.703125 37.2891 0.703125C35.3672 0.703125 34.875 3.28125 36.6797 3.98438C36.9609 4.125 36.0937 4.19531 34.4531 4.19531C32.9766 4.17188 31.9219 4.125 32.1094 4.05469C32.8594 3.77344 33.2812 3.1875 33.2812 2.41406C33.2812 1.45312 32.5781 0.703125 31.6641 0.703125C29.7422 0.703125 29.25 3.28125 31.0547 3.98438C31.3359 4.125 30.4687 4.19531 28.8281 4.19531C27.3516 4.17188 26.2969 4.125 26.4844 4.05469C27.2344 3.77344 27.6562 3.1875 27.6562 2.41406C27.6562 1.45312 26.9531 0.703125 26.0391 0.703125C24.1172 0.703125 23.625 3.28125 25.4297 3.98438C25.7109 4.125 24.8437 4.19531 23.2031 4.19531C21.7266 4.17188 20.6719 4.125 20.8594 4.05469C21.6094 3.77344 22.0312 3.1875 22.0312 2.41406C22.0312 0.9375 20.3906 0.164062 19.2422 1.125Z" fill="#10BAB2"/>
<path d="M26.9297 8.03906C24.2109 9.49219 23.6016 12.8438 25.6172 15.1641C26.5547 16.2188 27.5391 16.6406 29.0625 16.6406C31.6641 16.6406 33.5156 14.7891 33.5156 12.2109C33.5156 10.7813 33.2109 9.9375 32.3906 9.04688C30.9375 7.5 28.7344 7.10156 26.9297 8.03906Z" fill="#10BAB2"/>
</svg>
