<svg width="24" height="24" viewBox="0 0 24 24" fill="none" xmlns="http://www.w3.org/2000/svg">
<path fill-rule="evenodd" clip-rule="evenodd" d="M5.75 3C5.57531 3.00009 5.4037 3.04594 5.25223 3.13298C5.10077 3.22002 4.97475 3.34521 4.88672 3.49609L3.13672 6.49609C3.04733 6.64899 3.00015 6.82289 3 7V19C3 19.3626 3.09979 19.7047 3.27307 20L5 18.5V9H17L20.5739 6L19.1133 3.49609C19.0252 3.34521 18.8992 3.22002 18.7478 3.13298C18.5963 3.04594 18.4247 3.00009 18.25 3H5.75ZM19 9.13278V19H7.1317L5 21H19C20.0931 21 21 20.0931 21 19V7.5L19 9.13278ZM6.32422 5H17.6758L18.8418 7H5.1582L6.32422 5ZM9 11V13H12L14.5 11H9Z" fill="white"/>
<path d="M2 20.5L21.5 4" stroke="white" stroke-width="2"/>
</svg>
