<svg width="24" height="24" viewBox="0 0 24 24" fill="none" xmlns="http://www.w3.org/2000/svg">
<path d="M15.3376 10.1911H14.1313C14.0262 9.75173 13.8404 9.341 13.5854 8.98445H15.3376C15.4824 8.98445 15.6212 8.92088 15.7236 8.80774C15.826 8.6946 15.8835 8.54115 15.8835 8.38114C15.8835 8.22113 15.826 8.06768 15.7236 7.95454C15.6212 7.84139 15.4824 7.77783 15.3376 7.77783H9.33328C9.18851 7.77783 9.04967 7.84139 8.9473 7.95454C8.84494 8.06768 8.78743 8.22113 8.78743 8.38114C8.78743 8.54115 8.84494 8.6946 8.9473 8.80774C9.04967 8.92088 9.18851 8.98445 9.33328 8.98445H11.2437C11.6041 8.98584 11.9568 9.09988 12.2611 9.31339C12.5653 9.5269 12.8087 9.83117 12.9632 10.1911H9.33328C9.18851 10.1911 9.04967 10.2546 8.9473 10.3678C8.84494 10.4809 8.78743 10.6344 8.78743 10.7944C8.78743 10.9544 8.84494 11.1078 8.9473 11.221C9.04967 11.3341 9.18851 11.3977 9.33328 11.3977H13.1542C13.0888 11.8988 12.8626 12.3572 12.517 12.6894C12.1713 13.0217 11.7291 13.2056 11.271 13.2076H9.33328C9.30787 13.2048 9.28227 13.2048 9.25686 13.2076C9.22069 13.2014 9.18386 13.2014 9.14769 13.2076C9.11048 13.2216 9.07549 13.242 9.04398 13.2679L8.97847 13.3102C8.94857 13.34 8.92282 13.3746 8.90206 13.4127C8.88377 13.4395 8.86735 13.4677 8.85293 13.4972C8.84807 13.5332 8.84807 13.5698 8.85293 13.6058C8.81403 13.666 8.79132 13.7371 8.78743 13.8109C8.78487 13.839 8.78487 13.8673 8.78743 13.8954C8.7818 13.9353 8.7818 13.976 8.78743 14.016C8.8001 14.0571 8.81852 14.0958 8.84201 14.1307C8.84201 14.1307 8.84201 14.1789 8.88022 14.2031L12.1553 18.4262C12.2494 18.5478 12.3834 18.6231 12.5277 18.6356C12.672 18.648 12.8149 18.5966 12.925 18.4926C13.035 18.3886 13.1031 18.2405 13.1144 18.081C13.1256 17.9214 13.0791 17.7635 12.985 17.6419L10.5232 14.4142H11.2437C11.9949 14.4176 12.7199 14.1098 13.2757 13.5513C13.8314 12.9929 14.1776 12.2244 14.2459 11.3977H15.3376C15.4824 11.3977 15.6212 11.3341 15.7236 11.221C15.826 11.1078 15.8835 10.9544 15.8835 10.7944C15.8835 10.6344 15.826 10.4809 15.7236 10.3678C15.6212 10.2546 15.4824 10.1911 15.3376 10.1911Z" fill="white"/>
<path d="M19.9218 16.4237C19.6916 16.9943 19.4025 17.5426 19.0573 18.0592C18.1366 19.4372 16.5555 20.6849 15.0129 21.3238C13.4907 21.9543 11.4546 22.0513 9.80609 21.7234C8.19256 21.4024 6.56072 20.3987 5.37007 19.208C4.21577 18.0538 3.59301 16.4793 3.26109 14.8106C2.93786 13.1856 3.15507 11.3771 3.79422 9.83406C4.43077 8.2973 5.50872 6.98381 6.89177 6.05969C8.19512 5.18882 9.71424 4.7006 11.2771 4.64722C11.6498 4.63449 11.9642 4.33195 11.9642 3.94147C11.9642 3.55785 11.6509 3.23284 11.2506 3.24564C9.41979 3.30417 7.63955 3.87423 6.11303 4.89422C4.49948 5.97237 3.24187 7.50477 2.49923 9.29766C1.75659 11.0905 1.56228 13.0634 1.94088 14.9667C2.31947 16.87 3.25396 18.6183 4.62617 19.9905C5.99839 21.3628 7.7467 22.2972 9.65001 22.6758C11.5533 23.0544 13.5262 22.8601 15.3191 22.1175C17.1065 21.3771 18.635 20.1249 19.7126 18.5184C20.1274 17.9999 20.4406 17.3742 20.6715 16.7035C21.1254 15.5712 21.3664 14.3588 21.3758 13.1275C21.3778 12.8639 21.1642 12.6525 20.9042 12.6525C20.645 12.6525 20.4336 12.8615 20.4321 13.1218C20.4258 14.1946 20.2754 15.3872 19.9218 16.4237ZM20.5758 13.1214C20.5758 13.1218 20.5758 13.1222 20.5758 13.1226C20.5758 13.1222 20.5758 13.1218 20.5758 13.1214Z" fill="white" stroke="white" stroke-width="0.8"/>
<path d="M11.4198 2.56511L13.3516 3.68039L11.4198 4.79566L11.4198 2.56511Z" fill="white" stroke="white"/>
</svg>
