<svg width="14" height="15" viewBox="0 0 14 15" fill="none" xmlns="http://www.w3.org/2000/svg">
<g clip-path="url(#clip0_81_597)">
<path d="M5.83335 10.2907L7.58335 10.8721C7.58335 10.8721 11.9584 10 12.5417 10C13.125 10 13.125 10.5814 12.5417 11.1628C11.9584 11.7442 9.91669 13.4884 8.16669 13.4884C6.41669 13.4884 5.25002 12.6163 4.08335 12.6163H1.16669" stroke="#4F5052" stroke-width="1.3" stroke-linecap="round" stroke-linejoin="round"/>
<path d="M4.66669 5.93017V3.60459C4.66669 3.45039 4.72815 3.30251 4.83754 3.19348C4.94694 3.08445 5.09531 3.02319 5.25002 3.02319H12.25C12.4047 3.02319 12.5531 3.08445 12.6625 3.19348C12.7719 3.30251 12.8334 3.45039 12.8334 3.60459V8.25575M1.16669 9.12784C1.75002 8.54645 2.91669 7.67436 4.08335 7.67436C5.25002 7.67436 8.02085 8.83715 8.45835 9.41854C8.89585 9.99994 7.58335 10.872 7.58335 10.872L1.16669 9.12784Z" stroke="#4F5052" stroke-width="1.3" stroke-linecap="round" stroke-linejoin="round"/>
<path d="M7.29169 3.02319H10.2084V5.63947H7.29169V3.02319Z" stroke="#4F5052" stroke-width="1.3" stroke-linecap="round" stroke-linejoin="round"/>
</g>
<defs>
<clipPath id="clip0_81_597">
<rect width="14" height="13.9535" fill="white" transform="translate(0 0.69751)"/>
</clipPath>
</defs>
</svg>
