<svg width="34" height="34" viewBox="0 0 34 34" fill="none" xmlns="http://www.w3.org/2000/svg">
<rect width="34" height="34" rx="4" fill="#D9D9D9"/>
<path d="M17 5C10.376 5 5 10.376 5 17C5 23.624 10.376 29 17 29C23.624 29 29 23.624 29 17C29 10.376 23.624 5 17 5ZM17 8.6C18.992 8.6 20.6 10.208 20.6 12.2C20.6 14.192 18.992 15.8 17 15.8C15.008 15.8 13.4 14.192 13.4 12.2C13.4 10.208 15.008 8.6 17 8.6ZM17 25.64C14 25.64 11.348 24.104 9.8 21.776C9.836 19.388 14.6 18.08 17 18.08C19.388 18.08 24.164 19.388 24.2 21.776C22.652 24.104 20 25.64 17 25.64Z" fill="white" fill-opacity="0.9"/>
</svg>
