<svg width="88" height="68" viewBox="0 0 88 68" fill="none" xmlns="http://www.w3.org/2000/svg">
<path d="M2.016 54.636V63H0.924V54.636H2.016ZM7.08113 56.304C7.88113 56.304 8.52913 56.548 9.02513 57.036C9.52113 57.516 9.76913 58.212 9.76913 59.124V63H8.68913V59.28C8.68913 58.624 8.52513 58.124 8.19713 57.78C7.86913 57.428 7.42113 57.252 6.85313 57.252C6.27713 57.252 5.81713 57.432 5.47313 57.792C5.13713 58.152 4.96913 58.676 4.96913 59.364V63H3.87713V56.424H4.96913V57.36C5.18513 57.024 5.47713 56.764 5.84513 56.58C6.22113 56.396 6.63313 56.304 7.08113 56.304ZM17.4041 63.084C16.8521 63.084 16.3561 62.988 15.9161 62.796C15.4841 62.596 15.1441 62.324 14.8961 61.98C14.6481 61.628 14.5201 61.224 14.5121 60.768H15.6761C15.7161 61.16 15.8761 61.492 16.1561 61.764C16.4441 62.028 16.8601 62.16 17.4041 62.16C17.9241 62.16 18.3321 62.032 18.6281 61.776C18.9321 61.512 19.0841 61.176 19.0841 60.768C19.0841 60.448 18.9961 60.188 18.8201 59.988C18.6441 59.788 18.4241 59.636 18.1601 59.532C17.8961 59.428 17.5401 59.316 17.0921 59.196C16.5401 59.052 16.0961 58.908 15.7601 58.764C15.4321 58.62 15.1481 58.396 14.9081 58.092C14.6761 57.78 14.5601 57.364 14.5601 56.844C14.5601 56.388 14.6761 55.984 14.9081 55.632C15.1401 55.28 15.4641 55.008 15.8801 54.816C16.3041 54.624 16.7881 54.528 17.3321 54.528C18.1161 54.528 18.7561 54.724 19.2521 55.116C19.7561 55.508 20.0401 56.028 20.1041 56.676H18.9041C18.8641 56.356 18.6961 56.076 18.4001 55.836C18.1041 55.588 17.7121 55.464 17.2241 55.464C16.7681 55.464 16.3961 55.584 16.1081 55.824C15.8201 56.056 15.6761 56.384 15.6761 56.808C15.6761 57.112 15.7601 57.36 15.9281 57.552C16.1041 57.744 16.3161 57.892 16.5641 57.996C16.8201 58.092 17.1761 58.204 17.6321 58.332C18.1841 58.484 18.6281 58.636 18.9641 58.788C19.3001 58.932 19.5881 59.16 19.8281 59.472C20.0681 59.776 20.1881 60.192 20.1881 60.72C20.1881 61.128 20.0801 61.512 19.8641 61.872C19.6481 62.232 19.3281 62.524 18.9041 62.748C18.4801 62.972 17.9801 63.084 17.4041 63.084ZM23.1271 57.324V61.2C23.1271 61.52 23.1951 61.748 23.3311 61.884C23.4671 62.012 23.7031 62.076 24.0391 62.076H24.8431V63H23.8591C23.2511 63 22.7951 62.86 22.4911 62.58C22.1871 62.3 22.0351 61.84 22.0351 61.2V57.324H21.1831V56.424H22.0351V54.768H23.1271V56.424H24.8431V57.324H23.1271ZM29.0342 63.108C28.4182 63.108 27.8582 62.968 27.3542 62.688C26.8582 62.408 26.4662 62.012 26.1782 61.5C25.8982 60.98 25.7582 60.38 25.7582 59.7C25.7582 59.028 25.9022 58.436 26.1902 57.924C26.4862 57.404 26.8862 57.008 27.3902 56.736C27.8942 56.456 28.4582 56.316 29.0822 56.316C29.7062 56.316 30.2702 56.456 30.7742 56.736C31.2782 57.008 31.6742 57.4 31.9622 57.912C32.2582 58.424 32.4062 59.02 32.4062 59.7C32.4062 60.38 32.2542 60.98 31.9502 61.5C31.6542 62.012 31.2502 62.408 30.7382 62.688C30.2262 62.968 29.6582 63.108 29.0342 63.108ZM29.0342 62.148C29.4262 62.148 29.7942 62.056 30.1382 61.872C30.4822 61.688 30.7582 61.412 30.9662 61.044C31.1822 60.676 31.2902 60.228 31.2902 59.7C31.2902 59.172 31.1862 58.724 30.9782 58.356C30.7702 57.988 30.4982 57.716 30.1622 57.54C29.8262 57.356 29.4622 57.264 29.0702 57.264C28.6702 57.264 28.3022 57.356 27.9662 57.54C27.6382 57.716 27.3742 57.988 27.1742 58.356C26.9742 58.724 26.8742 59.172 26.8742 59.7C26.8742 60.236 26.9702 60.688 27.1622 61.056C27.3622 61.424 27.6262 61.7 27.9542 61.884C28.2822 62.06 28.6422 62.148 29.0342 62.148ZM34.934 57.492C35.126 57.116 35.398 56.824 35.75 56.616C36.11 56.408 36.546 56.304 37.058 56.304V57.432H36.77C35.546 57.432 34.934 58.096 34.934 59.424V63H33.842V56.424H34.934V57.492ZM44.3185 59.46C44.3185 59.668 44.3065 59.888 44.2825 60.12H39.0265C39.0665 60.768 39.2865 61.276 39.6865 61.644C40.0945 62.004 40.5865 62.184 41.1625 62.184C41.6345 62.184 42.0265 62.076 42.3385 61.86C42.6585 61.636 42.8825 61.34 43.0105 60.972H44.1865C44.0105 61.604 43.6585 62.12 43.1305 62.52C42.6025 62.912 41.9465 63.108 41.1625 63.108C40.5385 63.108 39.9785 62.968 39.4825 62.688C38.9945 62.408 38.6105 62.012 38.3305 61.5C38.0505 60.98 37.9105 60.38 37.9105 59.7C37.9105 59.02 38.0465 58.424 38.3185 57.912C38.5905 57.4 38.9705 57.008 39.4585 56.736C39.9545 56.456 40.5225 56.316 41.1625 56.316C41.7865 56.316 42.3385 56.452 42.8185 56.724C43.2985 56.996 43.6665 57.372 43.9225 57.852C44.1865 58.324 44.3185 58.86 44.3185 59.46ZM43.1905 59.232C43.1905 58.816 43.0985 58.46 42.9145 58.164C42.7305 57.86 42.4785 57.632 42.1585 57.48C41.8465 57.32 41.4985 57.24 41.1145 57.24C40.5625 57.24 40.0905 57.416 39.6985 57.768C39.3145 58.12 39.0945 58.608 39.0385 59.232H43.1905ZM54.5512 57.084C54.5512 57.78 54.3112 58.36 53.8312 58.824C53.3592 59.28 52.6352 59.508 51.6592 59.508H50.0512V63H48.9592V54.636H51.6592C52.6032 54.636 53.3192 54.864 53.8072 55.32C54.3032 55.776 54.5512 56.364 54.5512 57.084ZM51.6592 58.608C52.2672 58.608 52.7152 58.476 53.0032 58.212C53.2912 57.948 53.4352 57.572 53.4352 57.084C53.4352 56.052 52.8432 55.536 51.6592 55.536H50.0512V58.608H51.6592ZM56.4724 55.356C56.2644 55.356 56.0884 55.284 55.9444 55.14C55.8004 54.996 55.7284 54.82 55.7284 54.612C55.7284 54.404 55.8004 54.228 55.9444 54.084C56.0884 53.94 56.2644 53.868 56.4724 53.868C56.6724 53.868 56.8404 53.94 56.9764 54.084C57.1204 54.228 57.1924 54.404 57.1924 54.612C57.1924 54.82 57.1204 54.996 56.9764 55.14C56.8404 55.284 56.6724 55.356 56.4724 55.356ZM57.0004 56.424V63H55.9084V56.424H57.0004ZM58.4535 59.7C58.4535 59.02 58.5895 58.428 58.8615 57.924C59.1335 57.412 59.5095 57.016 59.9895 56.736C60.4775 56.456 61.0335 56.316 61.6575 56.316C62.4655 56.316 63.1295 56.512 63.6495 56.904C64.1775 57.296 64.5255 57.84 64.6935 58.536H63.5175C63.4055 58.136 63.1855 57.82 62.8575 57.588C62.5375 57.356 62.1375 57.24 61.6575 57.24C61.0335 57.24 60.5295 57.456 60.1455 57.888C59.7615 58.312 59.5695 58.916 59.5695 59.7C59.5695 60.492 59.7615 61.104 60.1455 61.536C60.5295 61.968 61.0335 62.184 61.6575 62.184C62.1375 62.184 62.5375 62.072 62.8575 61.848C63.1775 61.624 63.3975 61.304 63.5175 60.888H64.6935C64.5175 61.56 64.1655 62.1 63.6375 62.508C63.1095 62.908 62.4495 63.108 61.6575 63.108C61.0335 63.108 60.4775 62.968 59.9895 62.688C59.5095 62.408 59.1335 62.012 58.8615 61.5C58.5895 60.988 58.4535 60.388 58.4535 59.7ZM69.8226 63L67.2426 60.096V63H66.1506V54.12H67.2426V59.34L69.7746 56.424H71.2986L68.2026 59.7L71.3106 63H69.8226ZM78.1583 56.424V63H77.0663V62.028C76.8583 62.364 76.5663 62.628 76.1903 62.82C75.8223 63.004 75.4143 63.096 74.9663 63.096C74.4543 63.096 73.9943 62.992 73.5863 62.784C73.1783 62.568 72.8543 62.248 72.6143 61.824C72.3823 61.4 72.2663 60.884 72.2663 60.276V56.424H73.3463V60.132C73.3463 60.78 73.5103 61.28 73.8383 61.632C74.1663 61.976 74.6143 62.148 75.1823 62.148C75.7663 62.148 76.2263 61.968 76.5623 61.608C76.8983 61.248 77.0663 60.724 77.0663 60.036V56.424H78.1583ZM81.0941 57.636C81.3101 57.26 81.6301 56.948 82.0541 56.7C82.4861 56.444 82.9861 56.316 83.5541 56.316C84.1381 56.316 84.6661 56.456 85.1381 56.736C85.6181 57.016 85.9941 57.412 86.2661 57.924C86.5381 58.428 86.6741 59.016 86.6741 59.688C86.6741 60.352 86.5381 60.944 86.2661 61.464C85.9941 61.984 85.6181 62.388 85.1381 62.676C84.6661 62.964 84.1381 63.108 83.5541 63.108C82.9941 63.108 82.4981 62.984 82.0661 62.736C81.6421 62.48 81.3181 62.164 81.0941 61.788V66.12H80.0021V56.424H81.0941V57.636ZM85.5581 59.688C85.5581 59.192 85.4581 58.76 85.2581 58.392C85.0581 58.024 84.7861 57.744 84.4421 57.552C84.1061 57.36 83.7341 57.264 83.3261 57.264C82.9261 57.264 82.5541 57.364 82.2101 57.564C81.8741 57.756 81.6021 58.04 81.3941 58.416C81.1941 58.784 81.0941 59.212 81.0941 59.7C81.0941 60.196 81.1941 60.632 81.3941 61.008C81.6021 61.376 81.8741 61.66 82.2101 61.86C82.5541 62.052 82.9261 62.148 83.3261 62.148C83.7341 62.148 84.1061 62.052 84.4421 61.86C84.7861 61.66 85.0581 61.376 85.2581 61.008C85.4581 60.632 85.5581 60.192 85.5581 59.688Z" fill="#464646"/>
<path d="M66.5 24C66.5 36.4368 56.64 46.5 44.5 46.5C32.36 46.5 22.5 36.4368 22.5 24C22.5 11.5632 32.36 1.5 44.5 1.5C56.64 1.5 66.5 11.5632 66.5 24Z" fill="white" stroke="#DDDDDD"/>
<path d="M33.9218 14.6031C33.7671 14.6828 33.6828 14.7672 33.6031 14.9219C33.5468 15.0391 33.1578 16.4922 32.7453 18.1562C32.014 21.0953 31.9906 21.1891 32.0187 21.5359C32.0562 22.0141 32.2062 22.5578 32.4031 22.9562C32.6234 23.3969 32.7078 23.5094 33.1343 23.95L33.5 24.325L33.5093 29.6734C33.5234 34.9937 33.5234 35.0266 33.6218 35.1531C33.6734 35.2234 33.7765 35.3266 33.8468 35.3781C33.9734 35.4766 34.0062 35.4766 38 35.4766C41.9937 35.4766 42.0265 35.4766 42.1531 35.3781C42.2234 35.3266 42.3265 35.2234 42.3781 35.1531C42.4765 35.0266 42.4765 34.9703 42.4906 32.2609L42.5 29.5H44H45.5L45.5093 32.2609C45.5234 34.9703 45.5234 35.0266 45.6218 35.1531C45.6734 35.2234 45.7765 35.3266 45.8468 35.3781C45.9734 35.4766 46.0062 35.4766 50 35.4766C53.9937 35.4766 54.0265 35.4766 54.1531 35.3781C54.2234 35.3266 54.3265 35.2234 54.3781 35.1531C54.4765 35.0266 54.4765 34.9937 54.4906 29.6734L54.5 24.325L54.8656 23.95C55.2921 23.5094 55.3765 23.3969 55.5968 22.9562C55.7937 22.5578 55.9437 22.0141 55.9812 21.5359C56.0093 21.1891 55.9859 21.0953 55.2546 18.1562C54.8421 16.4922 54.4531 15.0391 54.3968 14.9219C54.3171 14.7672 54.2328 14.6828 54.0781 14.6031L53.8718 14.5H44H34.1281L33.9218 14.6031ZM53.8343 18.6859C54.4765 21.2594 54.5046 21.3859 54.4625 21.6297C54.2796 22.6141 53.6375 23.2937 52.7328 23.4625C52.1328 23.575 51.4671 23.3312 51.0125 22.8391C50.6046 22.4031 50.464 22.0656 50.3796 21.325C50.314 20.7578 50.0937 20.5234 49.625 20.5234C49.1562 20.5234 48.9359 20.7578 48.8703 21.325C48.7859 22.0656 48.6453 22.4031 48.2375 22.8391C47.7828 23.3312 47.1171 23.575 46.5218 23.4625C46.0765 23.3781 45.6921 23.1672 45.3875 22.8391C44.9796 22.4031 44.839 22.0656 44.7546 21.325C44.689 20.7578 44.4687 20.5234 44 20.5234C43.5312 20.5234 43.3109 20.7578 43.2453 21.325C43.1609 22.0656 43.0203 22.4031 42.6125 22.8391C42.3078 23.1672 41.9234 23.3781 41.4781 23.4625C40.8828 23.575 40.2171 23.3312 39.7625 22.8391C39.3546 22.4031 39.214 22.0656 39.1296 21.325C39.064 20.7578 38.8437 20.5234 38.375 20.5234C37.9062 20.5234 37.6859 20.7578 37.6203 21.325C37.5359 22.0656 37.3953 22.4031 36.9875 22.8391C36.5328 23.3312 35.8671 23.575 35.2718 23.4625C34.3625 23.2937 33.7203 22.6141 33.5375 21.6297C33.4953 21.3859 33.5234 21.2594 34.1656 18.6859L34.8359 16H44H53.164L53.8343 18.6859ZM38.6984 23.9125C40.1046 25.3562 42.275 25.3562 43.6859 23.9031L44 23.5797L44.3187 23.9031C45.7296 25.3562 47.8953 25.3562 49.3109 23.9031L49.625 23.5797L49.9437 23.9078C50.6703 24.6578 51.6734 25.0562 52.6343 24.9859L53 24.9578V29.4766V34H50H47L46.9906 31.2391C46.9765 28.5297 46.9765 28.4734 46.8781 28.3469C46.8265 28.2766 46.7234 28.1734 46.6531 28.1219C46.5265 28.0234 46.475 28.0234 44 28.0234C41.525 28.0234 41.4734 28.0234 41.3468 28.1219C41.2765 28.1734 41.1734 28.2766 41.1218 28.3469C41.0234 28.4734 41.0234 28.5297 41.0093 31.2391L41 34H38H35V29.4766V24.9578L35.3656 24.9859C36.3218 25.0562 37.339 24.6531 38.0468 23.9125C38.2156 23.7391 38.3609 23.5937 38.3703 23.5937C38.3796 23.5937 38.5296 23.7391 38.6984 23.9125Z" fill="#107C48"/>
<circle cx="66" cy="10" r="10" fill="white"/>
<circle cx="66" cy="10" r="9.5" stroke="#D9D9D9" stroke-opacity="0.5"/>
<path d="M70 14L62 6M70 6L62 14" stroke="#FF8A00" stroke-width="1.6" stroke-linecap="round"/>
</svg>
