<svg width="36" height="36" viewBox="0 0 36 36" fill="none" xmlns="http://www.w3.org/2000/svg">
<path d="M17.6555 17.0718C17.6449 17.0718 17.6344 17.0753 17.6238 17.0788C17.652 17.0788 17.6801 17.0823 17.7082 17.0858C17.6906 17.0788 17.6731 17.0718 17.6555 17.0718Z" fill="#F7BC0D"/>
<path d="M16.0488 16.8399C16.0488 16.8329 16.0523 16.8258 16.0523 16.8188C16.0523 16.8153 16.0523 16.8118 16.0559 16.8118C16.0523 16.8188 16.0523 16.8293 16.0488 16.8399ZM16.1543 17.8383C16.1543 17.8348 16.1543 17.8313 16.1508 17.8313C16.1543 17.8418 16.1578 17.8489 16.1613 17.8594C16.1613 17.8524 16.1578 17.8454 16.1543 17.8383ZM16.5234 15.9258C16.527 15.9223 16.534 15.9153 16.5375 15.9118C16.541 15.9118 16.541 15.9083 16.5445 15.9047C16.5375 15.9118 16.5305 15.9188 16.5234 15.9258ZM16.8047 18.6364C16.8012 18.6364 16.8012 18.6329 16.7977 18.6293C16.8047 18.6364 16.8152 18.6399 16.8258 18.6469L16.8047 18.6364ZM18.4676 15.525C18.4535 15.518 18.443 15.5145 18.4289 15.511C18.443 15.5145 18.457 15.5215 18.4676 15.525C18.4816 15.5321 18.4957 15.5356 18.5063 15.5426C18.4957 15.5356 18.4816 15.5321 18.4676 15.525ZM18.5484 15.5602C18.5871 15.5778 18.6258 15.5989 18.6645 15.62C18.6258 15.5989 18.5871 15.5778 18.5484 15.5602ZM18.8789 15.7641C18.9035 15.7817 18.9246 15.7993 18.9457 15.8204C18.9246 15.8028 18.9035 15.7817 18.8789 15.7641ZM19.241 16.1403C19.2516 16.1508 19.2586 16.1649 19.2656 16.1754C19.2727 16.186 19.2762 16.193 19.2832 16.2036C19.2691 16.186 19.2551 16.1614 19.241 16.1403Z" fill="#F7BC0D"/>
<path d="M29.7563 18.2812L29.7457 23.0695L29.7281 27.8613L29.5875 28.1636C29.4153 28.5398 29.1129 28.8421 28.7367 29.0144L28.4344 29.155L24.7817 29.1726L21.1219 29.1902H14.2102L10.5574 29.1726L6.89768 29.155L6.59534 29.0144C6.21917 28.8421 5.91331 28.5398 5.74104 28.1636L5.60041 27.8613L5.58284 23.0695L5.57581 18.2812L5.7762 18.3691C6.43362 18.6574 7.24221 18.8085 8.02268 18.8085C8.39885 18.8085 8.76799 18.7734 9.10901 18.6996C9.16526 18.689 9.22151 18.675 9.27424 18.6609C9.79104 18.5273 10.4871 18.246 10.8387 18.0246C10.9899 17.9332 11.134 17.8523 11.1797 17.8523C11.2254 17.8523 11.3906 17.9332 11.5594 18.0316C13.2469 19.0195 15.6129 19.0195 17.3004 18.0316C17.4692 17.9332 17.6344 17.8523 17.666 17.8523C17.6977 17.8523 17.8664 17.9332 18.0352 18.0316C18.4149 18.2531 18.8227 18.4253 19.2446 18.5449C19.4063 18.5906 19.5715 18.6292 19.7403 18.6609C21.1114 18.9246 22.6055 18.7136 23.7762 18.0316C23.8817 17.9683 23.9942 17.9121 24.1102 17.8628C24.1383 17.8628 24.1664 17.8664 24.1946 17.8699C24.3035 17.9191 24.4125 17.9753 24.5145 18.0386C24.8696 18.2496 25.2457 18.4183 25.6395 18.5414C25.6465 18.5484 25.6535 18.5554 25.6641 18.566C25.6571 18.5589 25.6465 18.5484 25.6395 18.5414C26.0719 18.682 26.5219 18.7699 26.9754 18.805C27.7805 18.8648 28.8422 18.6855 29.5559 18.3726L29.7563 18.2812Z" fill="#F7BC0D"/>
<path d="M30.6774 9.38679C30.2027 7.49187 29.802 6.02585 29.7317 5.87468C29.577 5.56882 29.236 5.2489 28.8949 5.09421L28.6488 4.98171L17.7469 4.97117C9.09142 4.96414 6.80275 4.9782 6.63048 5.03093C6.18751 5.16453 5.81837 5.47039 5.6004 5.8782C5.53009 6.02937 5.13283 7.4989 4.6547 9.39031C3.8672 12.5438 3.83908 12.6563 3.87072 13.0606C4.02189 15.17 5.66368 16.8821 7.66408 17.0192C8.17033 17.0579 8.68009 16.9946 9.16173 16.8364C9.16525 16.8294 9.16876 16.8223 9.17228 16.8188C9.16876 16.8259 9.16525 16.8329 9.16173 16.8399C9.79454 16.629 10.3676 16.2669 10.8281 15.7852L11.1867 15.4055L11.5524 15.7782C13.1766 17.4516 15.6692 17.4516 17.3004 15.7782L17.659 15.4055L18.0281 15.7782C18.8578 16.629 19.909 17.0473 20.9602 17.0333C21.9692 17.0157 22.9746 16.6009 23.7762 15.7782L24.1348 15.4055L24.5039 15.7852C25.3582 16.6641 26.4832 17.1071 27.661 17.0192C29.6649 16.8786 31.3031 15.17 31.4543 13.0606C31.493 12.6528 31.4684 12.5403 30.6774 9.38679Z" fill="#F7BC0D"/>
<path d="M12.798 25.4749L24.7497 22.7403C25.2771 22.6208 25.7518 22.322 26.0894 21.9003C26.4269 21.4785 26.6133 20.9512 26.6133 20.4099V20.0338C26.6133 19.6788 26.5359 19.3308 26.3812 19.0075C26.23 18.6876 26.0085 18.4029 25.7342 18.1815C25.46 17.9565 25.1365 17.7983 24.7919 17.7105C24.4473 17.6261 24.0886 17.6191 23.7405 17.6894L12.2635 20.0127C11.9435 20.0795 11.613 20.076 11.2895 20.0092C10.9695 19.9424 10.6671 19.8089 10.3999 19.6191C10.1327 19.4293 9.90763 19.1867 9.73885 18.9091C9.57007 18.6279 9.45755 18.3185 9.41535 17.9952L9.40832 17.9319C9.32745 17.3308 9.47513 16.7192 9.82675 16.2236C10.1784 15.728 10.7058 15.3836 11.3001 15.2641L24.7919 12.5119C25.2877 12.4099 25.5971 13.0321 25.2173 13.366L12.362 24.6243C11.9752 24.9618 12.2987 25.5874 12.798 25.4749Z" fill="#10BAB2"/>
<path d="M24.3664 11.7626C25.3369 11.7626 26.121 10.9788 26.121 10.0122C26.121 9.04555 25.3369 8.26172 24.3664 8.26172C23.3959 8.26172 22.6118 9.04555 22.6118 10.0122C22.6118 10.9788 23.3995 11.7626 24.3664 11.7626Z" fill="#10BAB2"/>
</svg>
