<svg width="9" height="10" viewBox="0 0 9 10" fill="none" xmlns="http://www.w3.org/2000/svg">
<path d="M0.148583 0.188622C0.0313959 0.247216 0.000927125 0.340966 0.000927125 0.652685C0.000927125 0.952685 0.0290521 1.06284 0.122802 1.11675C0.16499 1.14019 0.50249 1.14956 1.75874 1.15894L3.34077 1.173L3.55171 1.23628C3.95952 1.36284 4.3064 1.59487 4.55483 1.90894C4.6978 2.08706 4.88765 2.44331 4.91343 2.58159L4.92983 2.65894H2.56968C-0.0482915 2.65894 0.101708 2.64956 0.0337396 2.81128C-0.0131354 2.92847 -0.0107916 3.41128 0.0384271 3.5144C0.113427 3.67612 -0.024854 3.66675 2.57671 3.66675C4.69312 3.66675 4.9228 3.67144 4.9228 3.70425C4.9228 3.723 4.88999 3.81909 4.85015 3.91519C4.66968 4.35112 4.32515 4.72378 3.91265 4.93003C3.45796 5.15737 3.50952 5.15034 1.81265 5.1644L0.33374 5.17847L0.230615 5.24878C0.0923334 5.34722 0.0173334 5.49019 0.0173334 5.65659C0.0173334 5.91909 -0.102198 5.80894 2.39858 7.81284C3.65249 8.81362 4.70483 9.64331 4.7353 9.65034C4.76812 9.65972 5.0189 9.66675 5.29312 9.66675C5.84858 9.66675 5.92358 9.65269 5.98687 9.52847C6.0314 9.44409 6.03374 9.3855 5.99858 9.30581C5.98218 9.27065 5.16187 8.62847 3.95483 7.70503L1.94155 6.16284L2.7103 6.14878C3.43921 6.13706 3.49312 6.13237 3.70405 6.07612C4.45405 5.87456 5.03062 5.4855 5.45249 4.89253C5.66812 4.59019 5.89077 4.07925 5.94233 3.76519L5.95874 3.66675H6.8728C7.88999 3.66675 7.90874 3.6644 7.97905 3.5144C8.02827 3.41128 8.03062 2.92847 7.98374 2.81128C7.92046 2.65894 7.91108 2.65894 6.88452 2.65894H5.96108L5.94468 2.55815C5.91655 2.38706 5.7689 1.9769 5.65874 1.76597C5.5978 1.65581 5.48296 1.473 5.40093 1.3605L5.25093 1.15894H6.53062C7.94858 1.15894 7.91812 1.16128 7.98374 1.00659C8.03062 0.889404 8.02827 0.406591 7.97905 0.303467C7.90171 0.139404 8.19702 0.151123 4.00405 0.151123C0.619677 0.151123 0.216552 0.15581 0.148583 0.188622Z" fill="#4F5052"/>
</svg>
