<svg width="60" height="60" viewBox="0 0 60 60" fill="none" xmlns="http://www.w3.org/2000/svg">
<path d="M11.3086 2.55468C10.4531 2.87109 9.83203 3.30468 9.28125 3.94922C7.74609 5.73047 7.44141 8.48437 8.54297 10.6406C8.92969 11.4023 9.98437 12.457 10.7227 12.8203C12.5273 13.6992 14.4375 13.3359 15.8672 11.8359C17.2148 10.418 17.7422 8.42578 17.2852 6.46875C16.8867 4.76953 15.9258 3.48047 14.5664 2.8125C13.5469 2.30859 12.2461 2.20312 11.3086 2.55468Z" fill="#10BAB2"/>
<path d="M10.7813 17.3789C10.7813 20.1328 10.7109 20.0391 12.6914 20.0391C14.625 20.0391 14.5312 20.168 14.5312 17.4023V15.2344H12.6562H10.7813V17.3789Z" fill="#10BAB2"/>
<path d="M7.19531 15.5742C6.92578 15.6914 6.57422 15.9727 6.41016 16.1836C6.03516 16.6992 0.117187 31.0312 0.0351556 31.6523C-0.0468757 32.2148 0.246093 33.0234 0.679687 33.4687C1.69922 34.4883 3.44531 34.3008 4.23047 33.082C4.41797 32.7773 4.57031 32.5547 4.57031 32.5898C4.57031 32.6133 4.28906 34.0078 3.9375 35.6836C3.08203 39.8086 3.08203 39.75 3.73828 40.4648L4.20703 40.957L5.37891 40.9922L6.55078 41.0391L6.58594 48.3867L6.62109 55.7461L6.97266 56.3203C8.13281 58.1953 10.875 58.0547 11.7891 56.0742L12.0703 55.4883V48.2461V41.0156H12.6562H13.2422V48.2461V55.4883L13.5234 56.0742C14.4375 58.0547 17.1797 58.1953 18.3398 56.3203L18.6914 55.7461L18.7266 48.3867L18.75 41.0391L19.9102 40.9922C20.9648 40.957 21.1055 40.9336 21.3867 40.6641L21.7031 40.3711L17.2617 40.3125L12.832 40.2539L12.1758 39.9492C11.0039 39.3984 10.1367 38.4141 9.78516 37.2305L9.64453 36.7383L8.92969 36.6562C8.15625 36.5742 7.74609 36.3633 7.41797 35.8828C7.23047 35.6016 7.20703 35.2383 7.17187 32.7773L7.13672 30H6.14062C5.02734 30 5.07422 30.0469 5.32031 29.0039L5.44922 28.418L7.35937 28.3828L9.25781 28.3594V21.8555V15.3516H8.47266C7.94531 15.3516 7.51172 15.4336 7.19531 15.5742Z" fill="#10BAB2"/>
<path d="M16.0547 21.8555V28.3594L17.9531 28.3828L19.8633 28.418L19.9922 29.0039C20.2383 30.0469 20.2852 30 19.1602 30H18.1641V30.8789V31.7578L21.7148 31.7344L25.2539 31.6992L25.2188 31.4062C25.1602 30.9258 19.2188 16.6172 18.9023 16.1953C18.4688 15.6094 17.8477 15.3516 16.875 15.3516H16.0547V21.8555Z" fill="#10BAB2"/>
<path d="M44.6367 16.0664C43.582 16.2188 42.7148 16.8867 42.1641 17.9297C41.7891 18.6562 41.7773 20.1094 42.1523 20.8125C42.5742 21.5977 42.9727 21.9961 43.7344 22.3711C46.207 23.6133 48.9961 21.4805 48.4922 18.75C48.1758 16.9687 46.4883 15.7969 44.6367 16.0664Z" fill="#10BAB2"/>
<path d="M40.3125 22.1367C38.7656 22.6172 37.8516 23.8594 37.8516 25.4766C37.8516 27.5391 39.8086 29.1211 41.8242 28.6992C43.3945 28.3711 44.4023 27.2109 44.5078 25.5703C44.5547 24.7969 44.5312 24.6562 44.1914 23.9648C43.9805 23.543 43.6289 23.0508 43.3828 22.8516C42.5625 22.1836 41.2148 21.8672 40.3125 22.1367Z" fill="#10BAB2"/>
<path d="M48.0937 22.2188C46.5937 22.7578 45.6094 24.4922 45.9258 26.0391C46.2656 27.668 47.5664 28.7461 49.2187 28.7461C51.1523 28.7461 52.5469 27.3281 52.5586 25.3711C52.5586 24.3867 52.2656 23.707 51.5391 22.9805C50.6719 22.125 49.2422 21.8086 48.0937 22.2188Z" fill="#10BAB2"/>
<path d="M36.1523 28.1602C34.9922 28.5469 34.1367 29.3438 33.7969 30.375C33.5273 31.2188 33.6211 32.3789 34.0312 33.1055C34.1953 33.4102 34.3359 33.6797 34.3359 33.7031C34.3359 33.7266 29.543 33.7617 23.6836 33.7734L13.0312 33.8086L12.5859 34.1719C11.918 34.7109 11.6953 35.0742 11.625 35.7305C11.5195 36.8672 12.1992 37.9219 13.2305 38.2031C13.5352 38.2852 20.6953 38.3086 35.9883 38.2969L58.3008 38.2617L58.7695 38.0156C60.0469 37.3477 60.375 35.6602 59.4375 34.5469C58.9453 33.9609 58.3477 33.75 57.0938 33.75C56.4844 33.75 56.0156 33.7148 56.0391 33.6563C56.707 32.3438 56.7422 32.2148 56.6953 31.3008C56.6133 29.9414 55.9922 28.9922 54.7266 28.3359C54.0117 27.9727 52.6875 27.9609 51.9023 28.3125C49.9453 29.2148 49.207 31.7344 50.4141 33.4219L50.6367 33.75H49.2891C48.5391 33.75 47.9297 33.7148 47.9297 33.668C47.9297 33.6328 48 33.5039 48.0938 33.4102C48.457 32.9766 48.668 32.1328 48.6094 31.2656C48.5156 29.9297 47.8828 28.9688 46.6758 28.3477C45.9258 27.9727 44.6133 27.9492 43.8164 28.3125C41.8594 29.2148 41.1211 31.7344 42.3281 33.4219L42.5508 33.75H41.2031C40.4531 33.75 39.8438 33.7266 39.8438 33.7031C39.8438 33.6797 39.9844 33.375 40.1719 33.0352C40.4414 32.5078 40.4883 32.2734 40.4883 31.4648C40.4766 30.6797 40.4297 30.4336 40.1719 29.9297C39.4219 28.5 37.582 27.6914 36.1523 28.1602Z" fill="#10BAB2"/>
<path d="M34.8633 48.6445C39.4453 53.2266 43.418 57.1289 43.6992 57.3164C44.6016 57.9023 45.7266 57.7148 46.3711 56.8711C46.7695 56.3437 46.875 55.4062 46.582 54.832C46.4766 54.6094 43.207 51.2578 39.3398 47.3672L32.2852 40.3125H29.4141H26.543L34.8633 48.6445Z" fill="#10BAB2"/>
<path d="M38.2617 41.3672L37.207 42.4219L38.6133 43.8281L40.0195 45.2344L42.4805 42.7734L44.9414 40.3125H42.1289H39.3164L38.2617 41.3672Z" fill="#10BAB2"/>
<path d="M28.2773 51.3516C26.5312 53.1094 25.043 54.6797 24.9609 54.832C24.7617 55.2187 24.7852 56.1445 24.9961 56.5547C25.4766 57.4805 26.5312 57.8906 27.5039 57.5391C27.6797 57.4687 29.2969 55.9453 31.0781 54.1641L34.3359 50.918L32.9648 49.5469C32.2031 48.7852 31.5586 48.1641 31.5234 48.1641C31.4883 48.1641 30.0352 49.6055 28.2773 51.3516Z" fill="#10BAB2"/>
</svg>
