<svg width="49" height="49" viewBox="0 0 49 49" fill="none" xmlns="http://www.w3.org/2000/svg">
<path d="M4.31576 2.43116C3.78807 2.95885 3.76923 3.05308 3.76923 4.71154C3.76923 6.37001 3.78807 6.46424 4.31576 6.99193L4.8623 7.53847H24.5H44.1377L44.6842 6.99193C45.2119 6.46424 45.2308 6.37001 45.2308 4.71154C45.2308 3.05308 45.2119 2.95885 44.6842 2.43116L44.1377 1.88462H24.5H4.8623L4.31576 2.43116Z" fill="#10BAB2"/>
<path d="M4.31577 9.96962C3.80692 10.4785 3.76923 10.6292 3.76923 11.8542C3.76923 13.0415 3.59961 13.7012 2.16731 17.7908C1.28154 20.3162 0.565384 22.6154 0.565384 22.8981C0.565384 23.6896 1.48885 24.5 2.43115 24.5C2.84577 24.5 3.24154 24.4058 3.29808 24.3115C3.35461 24.1985 3.48654 24.1231 3.59961 24.1231C3.69385 24.1231 3.76923 28.7027 3.76923 36.015V47.9069L4.31577 48.4535L4.86231 49H17.5081H30.1538L30.1915 47.0588C30.2104 46.0035 30.2292 41.7819 30.2481 37.6923V30.2481L34.8654 30.2669L39.4827 30.2858L39.5392 39.6335L39.5769 49H41.8573C44.1188 49 44.1377 49 44.6842 48.4535L45.2308 47.9069V35.9962C45.2308 24.7262 45.2496 24.0854 45.57 24.2362C45.7396 24.3115 46.2485 24.4058 46.6819 24.4623C47.3415 24.5188 47.5488 24.4623 47.9446 24.0477C48.265 23.7462 48.4346 23.3692 48.4346 22.9735C48.4346 22.6531 47.7185 20.2973 46.8327 17.7719C45.4192 13.6823 45.2308 13.0227 45.2308 11.8542C45.2308 10.6292 45.1931 10.4785 44.6842 9.96962L44.1377 9.42308H24.5H4.86231L4.31577 9.96962ZM10.9308 15.2654C10.9308 15.3596 10.5915 16.9992 10.1958 18.8838C9.78115 20.7873 9.38538 22.6531 9.32885 23.0488C9.27231 23.4446 8.97077 24.0477 8.65038 24.4058C7.61384 25.5931 6.04961 25.6308 4.91885 24.4812C4.05192 23.6331 4.01423 22.9735 4.71154 20.7119C5.03192 19.6377 5.55961 17.9227 5.86115 16.905L6.42654 15.0769H8.66923C10.0262 15.0769 10.9308 15.1523 10.9308 15.2654ZM18.7896 16.5281C18.4127 21.0135 18.0923 23.5765 17.8285 24.0854C17.6588 24.4246 17.1877 24.8204 16.66 25.0654C15.8873 25.4423 15.7177 25.4612 15.0204 25.2538C14.0969 24.99 13.2865 24.1608 13.1169 23.3504C13.0227 22.8792 13.7954 17.4138 14.2288 15.4915C14.3231 15.0958 14.3985 15.0769 16.6223 15.0769H18.9027L18.7896 16.5281ZM26.8369 15.8685C26.8935 16.3208 26.9877 18.1488 27.0442 19.9392C27.1573 23.0677 27.1385 23.2373 26.7427 23.9346C26.3281 24.6508 25.1596 25.4423 24.5 25.4423C23.8404 25.4423 22.6719 24.6508 22.2762 23.9535C21.8615 23.2373 21.8615 23.0677 21.9558 19.7508C22.0123 17.8473 22.1065 16.0192 22.1631 15.68L22.2573 15.0769H24.5H26.7427L26.8369 15.8685ZM34.7711 15.4915C35.2046 17.4138 35.9773 22.8792 35.8831 23.3504C35.7135 24.1608 34.9031 24.99 33.9796 25.2538C33.2823 25.4612 33.1127 25.4423 32.34 25.0654C30.9077 24.3681 30.9077 24.4246 30.2292 16.5281L30.0973 15.0769H32.3777C34.6015 15.0769 34.6769 15.0958 34.7711 15.4915ZM43.1577 16.9992C43.4781 18.0735 43.8173 19.1477 43.9115 19.4115C44.4769 21.0323 44.8915 22.8415 44.7785 23.2562C44.59 24.0477 43.5723 25.0465 42.7431 25.2538C42.1023 25.4423 41.8761 25.4046 41.16 25.0654C40.2554 24.6131 39.5769 23.6142 39.5769 22.7096C39.5769 22.4458 39.2377 20.7119 38.8231 18.8462C38.4085 16.9804 38.0692 15.3785 38.0692 15.2654C38.0692 15.1523 38.9361 15.0769 40.3308 15.0769H42.5735L43.1577 16.9992ZM24.4623 36.6746L24.5 43.12L22.7662 43.2142C21.2019 43.2896 13.0038 43.2896 10.4219 43.1954L9.42308 43.1577V36.7877C9.42308 33.2823 9.46077 30.3612 9.49846 30.3235C9.53615 30.2858 12.9096 30.2481 16.9992 30.2481H24.4058L24.4623 36.6746Z" fill="#10BAB2"/>
</svg>
