<svg width="122" height="60" viewBox="0 0 122 60" fill="none" xmlns="http://www.w3.org/2000/svg">
<g clip-path="url(#clip0_715_473)">
<path d="M4.81576 7.93116C4.28807 8.45885 4.26923 8.55308 4.26923 10.2115C4.26923 11.87 4.28807 11.9642 4.81576 12.4919L5.3623 13.0385H25H44.6377L45.1842 12.4919C45.7119 11.9642 45.7308 11.87 45.7308 10.2115C45.7308 8.55308 45.7119 8.45885 45.1842 7.93116L44.6377 7.38462H25H5.3623L4.81576 7.93116Z" fill="#10BAB2"/>
<path d="M4.81575 15.4696C4.30691 15.9785 4.26921 16.1292 4.26921 17.3542C4.26921 18.5415 4.0996 19.2012 2.66729 23.2908C1.78152 25.8162 1.06537 28.1154 1.06537 28.3981C1.06537 29.1896 1.98883 30 2.93114 30C3.34575 30 3.74152 29.9058 3.79806 29.8115C3.8546 29.6985 3.98652 29.6231 4.0996 29.6231C4.19383 29.6231 4.26921 34.2027 4.26921 41.515V53.4069L4.81575 53.9535L5.36229 54.5H18.0081H30.6538L30.6915 52.5588C30.7104 51.5035 30.7292 47.2819 30.7481 43.1923V35.7481L35.3654 35.7669L39.9827 35.7858L40.0392 45.1335L40.0769 54.5H42.3573C44.6188 54.5 44.6377 54.5 45.1842 53.9535L45.7307 53.4069V41.4962C45.7307 30.2262 45.7496 29.5854 46.07 29.7362C46.2396 29.8115 46.7484 29.9058 47.1819 29.9623C47.8415 30.0188 48.0488 29.9623 48.4446 29.5477C48.765 29.2462 48.9346 28.8692 48.9346 28.4735C48.9346 28.1531 48.2184 25.7973 47.3327 23.2719C45.9192 19.1823 45.7307 18.5227 45.7307 17.3542C45.7307 16.1292 45.6931 15.9785 45.1842 15.4696L44.6377 14.9231H25H5.36229L4.81575 15.4696ZM11.4308 20.7654C11.4308 20.8596 11.0915 22.4992 10.6958 24.3838C10.2811 26.2873 9.88537 28.1531 9.82883 28.5488C9.77229 28.9446 9.47075 29.5477 9.15037 29.9058C8.11383 31.0931 6.5496 31.1308 5.41883 29.9812C4.55191 29.1331 4.51421 28.4735 5.21152 26.2119C5.53191 25.1377 6.0596 23.4227 6.36114 22.405L6.92652 20.5769H9.16921C10.5261 20.5769 11.4308 20.6523 11.4308 20.7654ZM19.2896 22.0281C18.9127 26.5135 18.5923 29.0765 18.3284 29.5854C18.1588 29.9246 17.6877 30.3204 17.16 30.5654C16.3873 30.9423 16.2177 30.9612 15.5204 30.7538C14.5969 30.49 13.7865 29.6608 13.6169 28.8504C13.5227 28.3792 14.2954 22.9138 14.7288 20.9915C14.8231 20.5958 14.8984 20.5769 17.1223 20.5769H19.4027L19.2896 22.0281ZM27.3369 21.3685C27.3934 21.8208 27.4877 23.6488 27.5442 25.4392C27.6573 28.5677 27.6384 28.7373 27.2427 29.4346C26.8281 30.1508 25.6596 30.9423 25 30.9423C24.3404 30.9423 23.1719 30.1508 22.7761 29.4535C22.3615 28.7373 22.3615 28.5677 22.4558 25.2508C22.5123 23.3473 22.6065 21.5192 22.6631 21.18L22.7573 20.5769H25H27.2427L27.3369 21.3685ZM35.2711 20.9915C35.7046 22.9138 36.4773 28.3792 36.3831 28.8504C36.2134 29.6608 35.4031 30.49 34.4796 30.7538C33.7823 30.9612 33.6127 30.9423 32.84 30.5654C31.4077 29.8681 31.4077 29.9246 30.7292 22.0281L30.5973 20.5769H32.8777C35.1015 20.5769 35.1769 20.5958 35.2711 20.9915ZM43.6577 22.4992C43.9781 23.5735 44.3173 24.6477 44.4115 24.9115C44.9769 26.5323 45.3915 28.3415 45.2784 28.7562C45.09 29.5477 44.0723 30.5465 43.2431 30.7538C42.6023 30.9423 42.3761 30.9046 41.66 30.5654C40.7554 30.1131 40.0769 29.1142 40.0769 28.2096C40.0769 27.9458 39.7377 26.2119 39.3231 24.3462C38.9084 22.4804 38.5692 20.8785 38.5692 20.7654C38.5692 20.6523 39.4361 20.5769 40.8308 20.5769H43.0734L43.6577 22.4992ZM24.9623 42.1746L25 48.62L23.2661 48.7142C21.7019 48.7896 13.5038 48.7896 10.9219 48.6954L9.92306 48.6577V42.2877C9.92306 38.7823 9.96075 35.8612 9.99844 35.8235C10.0361 35.7858 13.4096 35.7481 17.4992 35.7481H24.9058L24.9623 42.1746Z" fill="#10BAB2"/>
</g>
<g clip-path="url(#clip1_715_473)">
<path d="M72.8086 2.55468C71.9531 2.87109 71.332 3.30468 70.7812 3.94922C69.2461 5.73047 68.9414 8.48437 70.043 10.6406C70.4297 11.4023 71.4844 12.457 72.2227 12.8203C74.0273 13.6992 75.9375 13.3359 77.3672 11.8359C78.7148 10.418 79.2422 8.42578 78.7852 6.46875C78.3867 4.76953 77.4258 3.48047 76.0664 2.8125C75.0469 2.30859 73.7461 2.20312 72.8086 2.55468Z" fill="#10BAB2"/>
<path d="M72.2813 17.3789C72.2813 20.1328 72.2109 20.0391 74.1914 20.0391C76.125 20.0391 76.0313 20.168 76.0313 17.4023V15.2344H74.1563H72.2813V17.3789Z" fill="#10BAB2"/>
<path d="M68.6953 15.5742C68.4258 15.6914 68.0742 15.9727 67.9101 16.1836C67.5351 16.6992 61.6172 31.0312 61.5351 31.6523C61.4531 32.2148 61.7461 33.0234 62.1797 33.4687C63.1992 34.4883 64.9453 34.3008 65.7305 33.082C65.918 32.7773 66.0703 32.5547 66.0703 32.5898C66.0703 32.6133 65.7891 34.0078 65.4375 35.6836C64.582 39.8086 64.582 39.75 65.2383 40.4648L65.707 40.957L66.8789 40.9922L68.0508 41.0391L68.0859 48.3867L68.1211 55.7461L68.4726 56.3203C69.6328 58.1953 72.375 58.0547 73.2891 56.0742L73.5703 55.4883V48.2461V41.0156H74.1562H74.7422V48.2461V55.4883L75.0234 56.0742C75.9375 58.0547 78.6797 58.1953 79.8398 56.3203L80.1914 55.7461L80.2266 48.3867L80.25 41.0391L81.4101 40.9922C82.4648 40.957 82.6055 40.9336 82.8867 40.6641L83.2031 40.3711L78.7617 40.3125L74.332 40.2539L73.6758 39.9492C72.5039 39.3984 71.6367 38.4141 71.2851 37.2305L71.1445 36.7383L70.4297 36.6562C69.6562 36.5742 69.2461 36.3633 68.918 35.8828C68.7305 35.6016 68.707 35.2383 68.6719 32.7773L68.6367 30H67.6406C66.5273 30 66.5742 30.0469 66.8203 29.0039L66.9492 28.418L68.8594 28.3828L70.7578 28.3594V21.8555V15.3516H69.9726C69.4453 15.3516 69.0117 15.4336 68.6953 15.5742Z" fill="#10BAB2"/>
<path d="M77.5547 21.8555V28.3594L79.4531 28.3828L81.3633 28.418L81.4922 29.0039C81.7383 30.0469 81.7852 30 80.6602 30H79.6641V30.8789V31.7578L83.2148 31.7344L86.7539 31.6992L86.7188 31.4062C86.6602 30.9258 80.7188 16.6172 80.4023 16.1953C79.9688 15.6094 79.3477 15.3516 78.375 15.3516H77.5547V21.8555Z" fill="#10BAB2"/>
<path d="M106.137 16.0664C105.082 16.2187 104.215 16.8867 103.664 17.9297C103.289 18.6562 103.277 20.1094 103.652 20.8125C104.074 21.5977 104.473 21.9961 105.234 22.3711C107.707 23.6133 110.496 21.4805 109.992 18.75C109.676 16.9687 107.988 15.7969 106.137 16.0664Z" fill="#10BAB2"/>
<path d="M101.812 22.1367C100.266 22.6172 99.3516 23.8594 99.3516 25.4766C99.3516 27.5391 101.309 29.1211 103.324 28.6992C104.895 28.3711 105.902 27.2109 106.008 25.5703C106.055 24.7969 106.031 24.6562 105.691 23.9648C105.48 23.543 105.129 23.0508 104.883 22.8516C104.062 22.1836 102.715 21.8672 101.812 22.1367Z" fill="#10BAB2"/>
<path d="M109.594 22.2187C108.094 22.7578 107.109 24.4922 107.426 26.0391C107.766 27.668 109.066 28.7461 110.719 28.7461C112.652 28.7461 114.047 27.3281 114.059 25.3711C114.059 24.3867 113.766 23.707 113.039 22.9805C112.172 22.125 110.742 21.8086 109.594 22.2187Z" fill="#10BAB2"/>
<path d="M97.6523 28.1602C96.4921 28.5469 95.6367 29.3437 95.2968 30.375C95.0273 31.2187 95.1211 32.3789 95.5312 33.1055C95.6953 33.4102 95.8359 33.6797 95.8359 33.7031C95.8359 33.7266 91.0429 33.7617 85.1836 33.7734L74.5312 33.8086L74.0859 34.1719C73.4179 34.7109 73.1953 35.0742 73.125 35.7305C73.0195 36.8672 73.6992 37.9219 74.7304 38.2031C75.0351 38.2852 82.1953 38.3086 97.4882 38.2969L119.801 38.2617L120.269 38.0156C121.547 37.3477 121.875 35.6602 120.937 34.5469C120.445 33.9609 119.848 33.75 118.594 33.75C117.984 33.75 117.516 33.7148 117.539 33.6562C118.207 32.3437 118.242 32.2148 118.195 31.3008C118.113 29.9414 117.492 28.9922 116.227 28.3359C115.512 27.9727 114.187 27.9609 113.402 28.3125C111.445 29.2148 110.707 31.7344 111.914 33.4219L112.137 33.75H110.789C110.039 33.75 109.43 33.7148 109.43 33.668C109.43 33.6328 109.5 33.5039 109.594 33.4102C109.957 32.9766 110.168 32.1328 110.109 31.2656C110.016 29.9297 109.383 28.9687 108.176 28.3477C107.426 27.9727 106.113 27.9492 105.316 28.3125C103.359 29.2148 102.621 31.7344 103.828 33.4219L104.051 33.75H102.703C101.953 33.75 101.344 33.7266 101.344 33.7031C101.344 33.6797 101.484 33.375 101.672 33.0352C101.941 32.5078 101.988 32.2734 101.988 31.4648C101.977 30.6797 101.93 30.4336 101.672 29.9297C100.922 28.5 99.082 27.6914 97.6523 28.1602Z" fill="#10BAB2"/>
<path d="M96.3633 48.6445C100.945 53.2266 104.918 57.1289 105.199 57.3164C106.102 57.9023 107.227 57.7148 107.871 56.8711C108.27 56.3437 108.375 55.4062 108.082 54.832C107.977 54.6094 104.707 51.2578 100.84 47.3672L93.7852 40.3125H90.9141H88.043L96.3633 48.6445Z" fill="#10BAB2"/>
<path d="M99.7617 41.3672L98.707 42.4219L100.113 43.8281L101.52 45.2344L103.98 42.7734L106.441 40.3125H103.629H100.816L99.7617 41.3672Z" fill="#10BAB2"/>
<path d="M89.7773 51.3516C88.0312 53.1094 86.543 54.6797 86.4609 54.832C86.2617 55.2187 86.2851 56.1445 86.4961 56.5547C86.9766 57.4805 88.0312 57.8906 89.0039 57.5391C89.1797 57.4687 90.7969 55.9453 92.5781 54.1641L95.8359 50.918L94.4648 49.5469C93.7031 48.7852 93.0586 48.1641 93.0234 48.1641C92.9883 48.1641 91.5351 49.6055 89.7773 51.3516Z" fill="#10BAB2"/>
</g>
<defs>
<clipPath id="clip0_715_473">
<rect width="49" height="49" fill="white" transform="translate(0.5 5.5)"/>
</clipPath>
<clipPath id="clip1_715_473">
<rect width="60" height="60" fill="white" transform="translate(61.5)"/>
</clipPath>
</defs>
</svg>
