<svg width="21" height="20" viewBox="0 0 21 20" fill="none" xmlns="http://www.w3.org/2000/svg">
<path d="M10.5 0C4.989 0 0.5 4.489 0.5 10C0.5 15.511 4.989 20 10.5 20C16.011 20 20.5 15.511 20.5 10C20.5 4.489 16.011 0 10.5 0ZM10.5 2C14.9301 2 18.5 5.56988 18.5 10C18.5 11.8531 17.8693 13.5506 16.8184 14.9043L5.5957 3.68164C6.94944 2.63074 8.64693 2 10.5 2ZM4.18164 5.0957L15.4043 16.3184C14.0506 17.3693 12.3531 18 10.5 18C6.06988 18 2.5 14.4301 2.5 10C2.5 8.14693 3.13074 6.44944 4.18164 5.0957Z" fill="#FF5353"/>
</svg>
