<svg width="14" height="15" viewBox="0 0 14 15" fill="none" xmlns="http://www.w3.org/2000/svg">
<g clip-path="url(#clip0_11_1799)">
<path d="M9.33333 2.25H0.583332V9.83333H9.33333V2.25Z" stroke="#4F5052" stroke-width="1.3" stroke-linecap="round" stroke-linejoin="round"/>
<path d="M9.33333 5.16663H11.6667L13.4167 6.91663V9.83329H9.33333V5.16663Z" stroke="#4F5052" stroke-width="1.3" stroke-linecap="round" stroke-linejoin="round"/>
<path d="M3.20833 12.75C4.01375 12.75 4.66667 12.0971 4.66667 11.2917C4.66667 10.4863 4.01375 9.83337 3.20833 9.83337C2.40292 9.83337 1.75 10.4863 1.75 11.2917C1.75 12.0971 2.40292 12.75 3.20833 12.75Z" stroke="#4F5052" stroke-width="1.3" stroke-linecap="round" stroke-linejoin="round"/>
<path d="M10.7917 12.75C11.5971 12.75 12.25 12.0971 12.25 11.2917C12.25 10.4863 11.5971 9.83337 10.7917 9.83337C9.98625 9.83337 9.33333 10.4863 9.33333 11.2917C9.33333 12.0971 9.98625 12.75 10.7917 12.75Z" stroke="#4F5052" stroke-width="1.3" stroke-linecap="round" stroke-linejoin="round"/>
</g>
<defs>
<clipPath id="clip0_11_1799">
<rect width="14" height="14" fill="white" transform="translate(0 0.5)"/>
</clipPath>
</defs>
</svg>
