<svg width="22" height="24" viewBox="0 0 22 24" fill="none" xmlns="http://www.w3.org/2000/svg">
<path d="M14.1219 0.0703125C12.3313 0.360937 10.7703 1.36875 9.79063 2.85938L9.49531 3.30469L5.64219 3.32812L1.78906 3.35156L1.52656 3.48281C1.21719 3.63281 0.907813 3.94687 0.767188 4.25625L0.664062 4.47656V13.6641V22.8516L0.767188 23.0719C0.907813 23.3812 1.21719 23.6953 1.52656 23.8453L1.78906 23.9766H8.5625H15.3359L15.5984 23.8453C15.9078 23.6953 16.2172 23.3812 16.3578 23.0719C16.4609 22.8562 16.4609 22.8141 16.475 19.7109C16.4844 17.5828 16.475 16.5141 16.4375 16.3969C16.3766 16.1906 16.1281 15.9609 15.8797 15.8859C15.5141 15.7781 15.1297 15.9516 14.9516 16.3125L14.8438 16.5187V19.4391V22.3594H8.5625H2.28125V13.6641V4.96875H5.59063H8.90469L8.87188 5.11406C8.78281 5.55937 8.74063 6.16875 8.76875 6.61875L8.80156 7.125H6.90313C5.675 7.125 4.95781 7.14375 4.87344 7.17656C4.59688 7.27969 4.34844 7.64062 4.34375 7.94062C4.34375 8.16562 4.52188 8.47969 4.73281 8.61562L4.925 8.74219L7.09063 8.75625L9.25625 8.77031L9.45312 9.15469C9.72031 9.67969 10.0672 10.1672 10.4797 10.6031L10.8219 10.9687H7.8875C4.64844 10.9687 4.81719 10.9547 4.54531 11.2687C4.175 11.6859 4.4 12.4078 4.93906 12.5578C5.1875 12.6281 11.9422 12.6281 12.1859 12.5578C12.2891 12.5297 12.4438 12.4312 12.5422 12.3281L12.7203 12.1453L13.0578 12.2578C14.3188 12.6844 15.7953 12.6891 17.0609 12.2625C17.9844 11.9531 18.7672 11.4562 19.5078 10.7156C20.4359 9.78281 20.9984 8.73281 21.2516 7.4625C21.3781 6.825 21.3641 5.64844 21.2234 5.02031C20.6797 2.55469 18.875 0.726562 16.4375 0.159374C15.8 0.00937462 14.7406 -0.0281258 14.1219 0.0703125ZM16.1656 1.77656C17.8672 2.21719 19.1188 3.46875 19.5875 5.19375C19.7328 5.72812 19.7328 6.80156 19.5875 7.37344C19.25 8.72344 18.3641 9.83906 17.1359 10.4578C15.1953 11.4328 12.7953 10.9078 11.4406 9.21094C9.22344 6.44531 10.7516 2.37187 14.2578 1.71094C14.7594 1.61719 15.6781 1.65 16.1656 1.77656Z" fill="#10BAB2"/>
</svg>
