<svg width="100" height="100" viewBox="0 0 100 100" fill="none" xmlns="http://www.w3.org/2000/svg">
<rect width="100" height="100" rx="50" fill="#4CB966"/>
<rect width="100" height="100" rx="50" fill="white" fill-opacity="0.5"/>
<path fill-rule="evenodd" clip-rule="evenodd" d="M43.3621 37.3337H42.0286V34.6667H43.3621C45.571 34.6667 47.3621 36.4578 47.3621 38.6667V49.3337C47.3621 50.0699 47.9589 50.6667 48.6951 50.6667H58.0286V53.3337H51.3621V61.3337C51.3621 63.5426 49.571 65.3337 47.3621 65.3337H46.0286V62.6667H47.3621C48.0982 62.6667 48.6951 62.0699 48.6951 61.3337V53.3337C46.4862 53.3337 44.6951 51.5426 44.6951 49.3337V38.6667C44.6951 37.9306 44.0982 37.3337 43.3621 37.3337Z" fill="#39934E"/>
<path fill-rule="evenodd" clip-rule="evenodd" d="M39.3621 30.6665H28.6951V41.3335H39.3621V30.6665ZM28.6951 28C27.2223 28 26.0286 29.1937 26.0286 30.6665V41.3335C26.0286 42.8063 27.2223 44 28.6951 44H39.3621C40.8349 44 42.0286 42.8063 42.0286 41.3335V30.6665C42.0286 29.1937 40.8349 28 39.3621 28H28.6951Z" fill="#39934E"/>
<path fill-rule="evenodd" clip-rule="evenodd" d="M71.362 46.6663H60.6951V57.3332H71.362V46.6663ZM60.6951 43.9998C59.2223 43.9998 58.0286 45.1935 58.0286 46.6663V57.3332C58.0286 58.806 59.2223 59.9998 60.6951 59.9998H71.362C72.8348 59.9998 74.0286 58.806 74.0286 57.3332V46.6663C74.0286 45.1935 72.8348 43.9998 71.362 43.9998H60.6951Z" fill="#39934E"/>
<path fill-rule="evenodd" clip-rule="evenodd" d="M43.3621 58.6663H32.6951V69.3332H43.3621V58.6663ZM32.6951 55.9998C31.2223 55.9998 30.0286 57.1935 30.0286 58.6663V69.3332C30.0286 70.806 31.2223 71.9998 32.6951 71.9998H43.3621C44.8349 71.9998 46.0286 70.806 46.0286 69.3332V58.6663C46.0286 57.1935 44.8349 55.9998 43.3621 55.9998H32.6951Z" fill="#39934E"/>
</svg>
