<svg width="100" height="100" viewBox="0 0 100 100" fill="none" xmlns="http://www.w3.org/2000/svg">
<rect width="100" height="100" rx="50" fill="#4CB966"/>
<rect width="100" height="100" rx="50" fill="white" fill-opacity="0.6"/>
<path d="M29.9543 38.0275C29.2217 38.8668 28.269 39.4851 27.2043 39.8132H28.4552C29.1297 39.8136 29.7766 40.0819 30.2538 40.5587C30.7306 41.0355 30.9994 41.6819 31.0002 42.3564V46.5859C30.9851 46.8172 30.7869 46.9931 30.5556 46.9806H20.4449C20.2136 46.9931 20.0154 46.8172 20.0002 46.5859V42.3564C20.0011 41.6819 20.2699 41.0354 20.7471 40.5587C21.2243 40.0815 21.8712 39.8136 22.5457 39.8132H23.7966C22.7314 39.4851 21.7792 38.8668 21.0462 38.0275C20.1538 38.3462 19.382 38.9337 18.8364 39.7092C18.2913 40.4842 17.9989 41.4092 18.0002 42.3565V46.586C18.0011 47.2342 18.2591 47.8548 18.7176 48.3127C19.1761 48.7703 19.7971 49.0275 20.4448 49.0279H30.5556C31.2033 49.0275 31.8244 48.7703 32.2828 48.3127C32.7412 47.8547 32.9993 47.2342 33.0002 46.586V42.3565C33.0015 41.4092 32.7091 40.4842 32.164 39.7092C31.6185 38.9337 30.8466 38.3462 29.9542 38.0275H29.9543Z" fill="#39934E"/>
<path d="M25.5006 38.1281C26.5622 38.1289 27.5805 37.7075 28.3318 36.9571C29.0831 36.2071 29.505 35.1887 29.5058 34.1271C29.5063 33.0655 29.0848 32.0468 28.3344 31.2959C27.584 30.545 26.5656 30.1227 25.504 30.1227C24.4419 30.1222 23.4237 30.5437 22.6728 31.2946C21.9219 32.045 21.5 33.0634 21.5 34.125C21.5009 35.1861 21.9223 36.2036 22.6723 36.954C23.4224 37.7044 24.4393 38.1268 25.5005 38.1281H25.5006ZM25.5006 32.1236C26.0314 32.1231 26.5408 32.3339 26.9167 32.7089C27.2921 33.0843 27.5033 33.5932 27.5037 34.1245C27.5037 34.6553 27.293 35.1647 26.9176 35.5402C26.5426 35.9156 26.0332 36.1268 25.5024 36.1268C24.9711 36.1272 24.4617 35.9161 24.0863 35.5406C23.7108 35.1652 23.5001 34.6558 23.5001 34.125C23.5005 33.5946 23.7113 33.0857 24.0863 32.7107C24.4613 32.3352 24.9697 32.1241 25.5005 32.1236L25.5006 32.1236Z" fill="#39934E"/>
<path d="M78.9543 38.0275C78.2217 38.8668 77.269 39.4851 76.2043 39.8132H77.4552C78.1297 39.8136 78.7766 40.0819 79.2538 40.5587C79.7311 41.0355 79.9994 41.6819 80.0003 42.3564V46.5859C79.9851 46.8172 79.7869 46.9931 79.5556 46.9806H69.4449C69.2136 46.9931 69.0154 46.8172 69.0002 46.5859V42.3564C69.0011 41.6819 69.2699 41.0354 69.7471 40.5587C70.2243 40.0819 70.8712 39.8136 71.5457 39.8132H72.7961C71.7314 39.4851 70.7788 38.8668 70.0462 38.0275C69.1538 38.3467 68.382 38.9337 67.8364 39.7092C67.2913 40.4842 66.9993 41.4092 67.0002 42.3565V46.586C67.0011 47.2342 67.2591 47.8548 67.7176 48.3127C68.1761 48.7703 68.7971 49.0275 69.4448 49.0279H79.5556C80.2033 49.0275 80.8244 48.7703 81.2828 48.3127C81.7412 47.8547 81.9993 47.2342 82.0002 46.586V42.3565C82.0011 41.4092 81.7091 40.4842 81.164 39.7092C80.6185 38.9337 79.8466 38.3467 78.9542 38.0275H78.9543Z" fill="#39934E"/>
<path d="M74.5006 38.1281C75.5622 38.1289 76.5809 37.7075 77.3322 36.9575C78.0831 36.2071 78.5055 35.1892 78.5063 34.1271C78.5067 33.0655 78.0853 32.0473 77.3349 31.2959C76.5844 30.545 75.5661 30.1227 74.5045 30.1227C73.4428 30.1222 72.4241 30.5437 71.6733 31.2946C70.9224 32.045 70.5005 33.0634 70.5005 34.125C70.5014 35.1861 70.9228 36.2031 71.6728 36.9535C72.4228 37.7039 73.4398 38.1268 74.5005 38.1281H74.5006ZM74.5006 32.1236C75.0314 32.1231 75.5412 32.3334 75.9167 32.7089C76.2926 33.0839 76.5037 33.5932 76.5042 34.1241C76.5042 34.6553 76.2935 35.1647 75.9185 35.5402C75.543 35.9156 75.0336 36.1268 74.5028 36.1268C73.9716 36.1272 73.4626 35.9161 73.0867 35.5406C72.7112 35.1652 72.5005 34.6558 72.5005 34.125C72.501 33.5946 72.7117 33.0857 73.0867 32.7107C73.4617 32.3352 73.9702 32.1241 74.5005 32.1236L74.5006 32.1236Z" fill="#39934E"/>
<path d="M50 38.1281C51.0616 38.1289 52.0803 37.7075 52.8317 36.9575C53.5826 36.2071 54.0049 35.1892 54.0057 34.1271C54.0062 33.0655 53.5847 32.0473 52.8343 31.2959C52.0838 30.545 51.0655 30.1227 50.0039 30.1227C48.9423 30.1222 47.9235 30.5437 47.1727 31.2946C46.4218 32.045 45.9999 33.0634 45.9999 34.125C46.0008 35.1861 46.4222 36.2031 47.1722 36.9535C47.9223 37.7039 48.9392 38.1268 49.9999 38.1281H50ZM50 32.1236C50.5308 32.1231 51.0406 32.3334 51.4161 32.7089C51.792 33.0839 52.0032 33.5932 52.0036 34.1241C52.0036 34.6553 51.7929 35.1647 51.4179 35.5402C51.0424 35.9156 50.5331 36.1268 50.0022 36.1268C49.471 36.1272 48.9621 35.9161 48.5861 35.5406C48.2107 35.1652 48 34.6558 48 34.125C48.0004 33.5946 48.2111 33.0857 48.5861 32.7107C48.9611 32.3352 49.4696 32.1241 50 32.1236L50 32.1236Z" fill="#39934E"/>
<path d="M42.5006 42.3657V46.4996C42.5091 47.1398 42.7711 47.7509 43.2296 48.1982C43.6876 48.646 44.305 48.8933 44.9452 48.8862H46.0537V46.8853H44.9452C44.7167 46.9 44.5185 46.7281 44.5006 46.4996V42.3656C44.5095 41.6987 44.7823 41.0625 45.2595 40.5965C45.7368 40.1304 46.3792 39.8728 47.0462 39.8795H48.297H48.2966C47.2368 39.5626 46.2849 38.9581 45.5466 38.134C44.6623 38.4354 43.8935 39.005 43.348 39.7635C42.802 40.5216 42.506 41.4314 42.5007 42.3658L42.5006 42.3657Z" fill="#39934E"/>
<path d="M51.704 39.8788H52.9549C53.6218 39.8721 54.2642 40.1297 54.7415 40.5958C55.2183 41.0619 55.491 41.698 55.5 42.3649V46.4989C55.4973 46.5261 55.491 46.5525 55.4812 46.5783C55.4919 46.7208 55.5009 46.8636 55.5009 47.0091V48.6087C55.6549 48.6368 55.8058 48.6721 55.9544 48.714V48.7136C56.4053 48.5431 56.7946 48.2408 57.0705 47.8453C57.346 47.4502 57.496 46.9806 57.5 46.4989V42.365C57.4946 41.4306 57.1986 40.5207 56.6526 39.7627C56.1071 39.0042 55.3384 38.4346 54.454 38.1332C53.7156 38.9573 52.7643 39.5613 51.7041 39.8787L51.704 39.8788Z" fill="#39934E"/>
<path d="M64.9783 57.0846C64.9761 56.3328 64.6761 55.6127 64.1435 55.082C63.6109 54.5516 62.8894 54.2539 62.1376 54.2543C61.718 54.2588 61.3028 54.3445 60.9158 54.507C60.7922 53.9096 60.4658 53.3735 59.9917 52.9896C59.5176 52.6061 58.9256 52.3981 58.3158 52.4012C57.9926 52.4021 57.6716 52.4579 57.3676 52.5668C57.1939 51.9789 56.835 51.4628 56.3439 51.0954C55.8529 50.7284 55.2564 50.5298 54.643 50.5293C54.2524 50.5325 53.8658 50.6061 53.5011 50.7472V47.0088C53.5011 45.2976 52.3805 44.007 50.8948 44.007C50.143 44.0061 49.4215 44.3038 48.8885 44.8346C48.3559 45.3654 48.0555 46.0855 48.0532 46.8373V58.2761C47.4563 57.4614 46.6509 56.8221 45.722 56.4261C45.0024 56.16 44.2051 56.2011 43.5167 56.5399C42.8979 56.7734 42.4108 57.264 42.1813 57.8841C41.684 59.1895 42.1956 60.952 43.7452 63.2725L48.6283 71.9596L48.6288 71.96C49.3881 73.1961 50.7145 73.972 52.1641 74.0288H60.6931C61.427 74.0154 62.1369 73.7632 62.7149 73.3105C63.2926 72.8574 63.7069 72.2284 63.8953 71.519C64.4846 68.9698 64.8444 66.3735 64.9703 63.76C64.9725 63.7337 64.9783 57.085 64.9783 57.085L64.9783 57.0846ZM62.9783 63.4891C62.8676 66.0431 62.522 68.5815 61.9461 71.0717C61.7631 71.6168 61.2667 71.9953 60.693 72.0271H52.164C51.4376 71.9704 50.7773 71.5842 50.3715 70.9784C50.3715 70.9784 45.4429 62.2119 45.4282 62.1904C43.8519 59.8395 43.9648 58.8752 44.0371 58.6355C44.1478 58.2686 44.7532 58.2146 45.0541 58.3114C46.3751 58.7369 48.1515 62.311 48.1585 62.3257H48.1581C48.305 62.6329 48.6054 62.8373 48.9447 62.861C49.2255 62.8931 49.5063 62.8038 49.7179 62.6163C49.9295 62.4288 50.0514 62.1605 50.0532 61.878V46.8368C50.0416 46.6225 50.1184 46.4132 50.2657 46.2569C50.4126 46.1007 50.6175 46.0114 50.8322 46.0105C51.3438 46.0069 51.5009 46.5926 51.5009 47.0083V61.8174C51.5009 62.3696 51.9487 62.8174 52.5009 62.8174C53.0532 62.8174 53.5009 62.3696 53.5009 61.8174V53.3593C53.5934 52.8848 54.0085 52.5428 54.4916 52.5428C54.9746 52.5428 55.3902 52.8848 55.4827 53.3593L55.4719 61.904C55.4715 62.4563 55.9188 62.904 56.471 62.9045C57.0233 62.9049 57.4715 62.4571 57.4719 61.9049L57.4827 55.1576C57.5237 54.7286 57.8844 54.4018 58.3157 54.4027C58.8215 54.4027 59.0014 54.8509 59.0014 55.2339L59.001 61.8719C59.001 62.4241 59.4487 62.8719 60.001 62.8719C60.5532 62.8719 61.001 62.4241 61.001 61.8719V57.0843C61.001 56.7053 61.617 56.2562 62.1376 56.2562C62.5983 56.2535 62.9742 56.6236 62.9782 57.0843L62.9783 63.4891Z" fill="#39934E"/>
<path d="M51.9669 27.0286C51.9669 27.5808 51.5191 28.0286 50.9669 28.0286C50.4146 28.0286 49.9669 27.5808 49.9669 27.0286C49.9669 26.4763 50.4146 26.0286 50.9669 26.0286C51.5191 26.0286 51.9669 26.4763 51.9669 27.0286Z" fill="#39934E"/>
<path d="M48 27.3398C48 27.892 47.5518 28.3402 46.9996 28.3402C46.4473 28.3402 45.9991 27.892 45.9991 27.3398C45.9991 26.7876 46.4473 26.3394 46.9996 26.3394C47.5518 26.3394 48 26.7876 48 27.3398Z" fill="#39934E"/>
<path d="M44.216 28.8218C44.216 29.374 43.7687 29.8218 43.2164 29.8218C42.6642 29.8218 42.2164 29.374 42.2164 28.8218C42.2164 28.2695 42.6642 27.8218 43.2164 27.8218C43.7687 27.8218 44.216 28.2695 44.216 28.8218Z" fill="#39934E"/>
<path d="M41.08 31.3429C41.08 31.8951 40.6322 32.3429 40.08 32.3429C39.5278 32.3429 39.08 31.8951 39.08 31.3429C39.08 30.7907 39.5278 30.3429 40.08 30.3429C40.6322 30.3429 41.08 30.7907 41.08 31.3429Z" fill="#39934E"/>
<path d="M38.8194 34.6709C38.8194 35.2231 38.3717 35.6709 37.8194 35.6709C37.2672 35.6709 36.8194 35.2231 36.8194 34.6709C36.8194 34.1182 37.2672 33.6709 37.8194 33.6709C38.3717 33.6709 38.8194 34.1182 38.8194 34.6709Z" fill="#39934E"/>
<path d="M37.6446 38.52C37.6446 39.0727 37.1968 39.5205 36.6446 39.5205C36.0923 39.5205 35.6446 39.0727 35.6446 38.52C35.6446 37.9678 36.0923 37.52 36.6446 37.52C37.1968 37.52 37.6446 37.9678 37.6446 38.52Z" fill="#39934E"/>
<path d="M37.6526 42.5452C37.6526 43.0974 37.2048 43.5452 36.6526 43.5452C36.1003 43.5452 35.6526 43.0974 35.6526 42.5452C35.6526 41.9929 36.1003 41.5452 36.6526 41.5452C37.2048 41.5452 37.6526 41.9929 37.6526 42.5452Z" fill="#39934E"/>
<path d="M38.8194 46.3885C38.8194 46.9408 38.3717 47.3886 37.8194 47.3886C37.2672 47.3886 36.8194 46.9408 36.8194 46.3885C36.8194 45.8363 37.2672 45.3885 37.8194 45.3885C38.3717 45.3885 38.8194 45.8363 38.8194 46.3885Z" fill="#39934E"/>
<path d="M41.08 49.7097C41.08 50.2619 40.6322 50.7097 40.08 50.7097C39.5278 50.7097 39.08 50.2619 39.08 49.7097C39.08 49.1575 39.5278 48.7097 40.08 48.7097C40.6322 48.7097 41.08 49.1575 41.08 49.7097Z" fill="#39934E"/>
<path d="M44.2651 52.2159C44.2651 52.7682 43.8178 53.2159 43.2651 53.2159C42.7129 53.2159 42.2656 52.7682 42.2656 52.2159C42.2656 51.6637 42.7129 51.2159 43.2651 51.2159C43.8178 51.2159 44.2651 51.6637 44.2651 52.2159Z" fill="#39934E"/>
<path d="M55.8903 27.9089C55.8903 28.4611 55.4425 28.9089 54.8903 28.9089C54.3381 28.9089 53.8903 28.4611 53.8903 27.9089C53.8903 27.3566 54.3381 26.9093 54.8903 26.9093C55.4425 26.9093 55.8903 27.3566 55.8903 27.9089Z" fill="#39934E"/>
<path d="M59.3794 29.8217C59.3794 30.3739 58.9317 30.8217 58.3794 30.8217C57.8272 30.8217 57.3794 30.3739 57.3794 29.8217C57.3794 29.2694 57.8272 28.8217 58.3794 28.8217C58.9317 28.8217 59.3794 29.2694 59.3794 29.8217Z" fill="#39934E"/>
<path d="M62.1257 32.8502C62.1257 33.4029 61.6779 33.8507 61.1257 33.8507C60.5735 33.8507 60.1257 33.4029 60.1257 32.8502C60.1257 32.298 60.5735 31.8502 61.1257 31.8502C61.6779 31.8502 62.1257 32.298 62.1257 32.8502Z" fill="#39934E"/>
<path d="M63.888 36.472C63.888 37.0242 63.4407 37.472 62.8884 37.472C62.3362 37.472 61.8884 37.0242 61.8884 36.472C61.8884 35.9197 62.3362 35.4724 62.8884 35.4724C63.4407 35.4724 63.888 35.9197 63.888 36.472Z" fill="#39934E"/>
<path d="M64.5006 40.4777C64.5006 41.0299 64.0528 41.4777 63.5006 41.4777C62.9483 41.4777 62.5006 41.0299 62.5006 40.4777C62.5006 39.9254 62.9483 39.4777 63.5006 39.4777C64.0528 39.4777 64.5006 39.9254 64.5006 40.4777Z" fill="#39934E"/>
<path d="M63.888 44.4834C63.888 45.0356 63.4407 45.4834 62.8884 45.4834C62.3362 45.4834 61.8884 45.0356 61.8884 44.4834C61.8884 43.9312 62.3362 43.4834 62.8884 43.4834C63.4407 43.4834 63.888 43.9312 63.888 44.4834Z" fill="#39934E"/>
<path d="M62.1257 48.1097C62.1257 48.6624 61.6775 49.1102 61.1253 49.1102C60.573 49.1102 60.1253 48.6624 60.1253 48.1097C60.1253 47.5575 60.573 47.1097 61.1253 47.1097C61.6775 47.1097 62.1257 47.5575 62.1257 48.1097Z" fill="#39934E"/>
</svg>
