<svg width="100" height="100" viewBox="0 0 100 100" fill="none" xmlns="http://www.w3.org/2000/svg">
<rect width="100" height="100" rx="50" fill="#4CB966"/>
<rect width="100" height="100" rx="50" fill="white" fill-opacity="0.7"/>
<path d="M62.5874 63.0302H60.9999V49.0302C60.9999 47.3801 59.6499 46.0302 57.9999 46.0302H53.9999C52.3498 46.0302 50.9999 47.3801 50.9999 49.0302V63.0302H49.4123C48.3123 63.0302 47.4123 63.9302 47.4123 65.0302C47.4123 65.5552 47.6248 66.0677 47.9998 66.4426L53.8748 72.3176C55.0498 73.4926 56.9498 73.4926 58.1123 72.3176L63.9873 66.4426C64.7623 65.6676 64.7623 64.3926 63.9873 63.6176C63.6248 63.2426 63.1123 63.0301 62.5873 63.0301L62.5874 63.0302ZM56.7125 70.9051C56.325 71.2926 55.6874 71.2926 55.3 70.9051L49.425 65.0302H53V49.0302C53 48.4802 53.45 48.0302 54 48.0302H58C58.55 48.0302 59 48.4802 59 49.0302V65.0302H62.5875L56.7125 70.9051Z" fill="#39934E"/>
<path d="M64.2 60.4313L70.2 52.4313L71.8 53.6313L65.8 61.6313L64.2 60.4313Z" fill="#39934E"/>
<path d="M65 52.0302H67V54.0302H65V52.0302Z" fill="#39934E"/>
<path d="M69 60.0302H71V62.0302H69V60.0302Z" fill="#39934E"/>
<path d="M79.7371 76.5547L76.5872 68.3797C76.3122 67.6797 76.3122 66.8922 76.5997 66.1922C79.4997 59.0547 77.7997 50.8676 72.2747 45.4802C71.5497 44.7676 70.7747 44.1176 69.9496 43.5302C69.1496 30.1931 58.0125 19.8548 44.6616 20.0308C38.0991 20.1183 31.8994 22.8058 27.1988 27.6058C22.5112 32.4182 19.9487 38.6683 19.9988 45.2309C20.0238 48.8934 20.8488 52.5059 22.4363 55.8059C22.7488 56.4559 22.8113 57.1934 22.6113 57.8934L20.2237 66.481C19.7862 68.081 20.7237 69.7435 22.3237 70.181C22.5737 70.256 22.8362 70.2935 23.1112 70.2935C23.5737 70.2935 24.0237 70.1935 24.4237 69.9809L30.5112 67.031C31.3737 66.6185 32.3737 66.631 33.2237 67.081C36.4112 68.7935 39.9487 69.781 43.5612 69.981C44.1737 70.831 44.8487 71.6185 45.5862 72.3686C49.1862 75.9936 53.9112 77.9936 58.8742 78.0311C61.3242 78.0561 63.7617 77.5936 66.0367 76.6811C66.7242 76.4061 67.4868 76.4061 68.1742 76.6686L76.5241 79.7936C76.8116 79.9062 77.1116 79.9562 77.4116 79.9562C78.7992 79.9437 79.9116 78.8187 79.8992 77.4311C79.8992 77.1311 79.8367 76.8436 79.7367 76.5561L79.7371 76.5547ZM34.1749 65.3296C32.7624 64.5796 31.0873 64.5546 29.6498 65.2421L23.5623 68.1921C23.0623 68.4296 22.4623 68.2296 22.2248 67.7296C22.1123 67.5046 22.0998 67.2546 22.1623 67.0296L24.5498 58.442C24.8748 57.2795 24.7623 56.042 24.2498 54.9545C22.7873 51.9044 22.0248 48.5795 21.9998 45.217C21.9498 39.192 24.3122 33.4296 28.6373 29.017C32.9623 24.592 38.6623 22.117 44.6876 22.042C56.4247 21.8795 66.3881 30.5795 67.8247 42.2295C65.6997 41.1045 63.3872 40.392 60.9997 40.1545V33.0295C60.9997 31.3794 59.6497 30.0295 57.9997 30.0295H31.9997C30.3496 30.0295 28.9997 31.3794 28.9997 33.0295V59.0295C28.9997 60.6795 30.3496 62.0295 31.9997 62.0295H40.2497C40.5872 64.0669 41.2622 66.0419 42.2373 67.867C39.4122 67.5295 36.6748 66.667 34.1748 65.3295L34.1749 65.3296ZM40.0249 60.0296H31.9999C31.4499 60.0296 30.9999 59.5796 30.9999 59.0296V33.0296C30.9999 32.4796 31.4499 32.0296 31.9999 32.0296H33.9999V42.0296H41.9999V32.0296H57.9999C58.5499 32.0296 58.9999 32.4796 58.9999 33.0296V40.0296H58.6124C48.2624 40.2421 39.9872 48.6922 39.9998 59.0422C39.9998 59.3797 40.0123 59.7047 40.0248 60.0297L40.0249 60.0296ZM35.9999 40.0296V32.0296H39.9999V40.0296H35.9999ZM77.7622 77.8045C77.6247 77.942 77.4122 77.992 77.2372 77.917L68.8872 74.792C68.3247 74.5795 67.7247 74.467 67.1247 74.467C66.4997 74.467 65.8872 74.5795 65.3122 74.817C63.2748 75.6295 61.0998 76.042 58.8998 76.0294C54.4623 76.0044 50.2373 74.2044 47.0118 70.9544C43.7868 67.717 42.0118 63.4795 41.9993 59.0424C41.9993 49.6549 49.6118 42.0424 58.9993 42.0424C68.3869 42.0424 75.9993 49.6549 75.9993 59.0424C75.9993 61.2424 75.5743 63.405 74.7493 65.4424C74.2743 66.6174 74.2618 67.9174 74.7243 69.0925L77.8742 77.28C77.9492 77.455 77.8992 77.6675 77.7617 77.8051L77.7622 77.8045Z" fill="#39934E"/>
<path d="M70.6503 31.493L72.4128 30.5555C70.2629 26.5054 67.2503 22.9805 63.5878 20.218L62.3878 21.818C65.8253 24.4056 68.6503 27.7056 70.6503 31.493V31.493Z" fill="#39934E"/>
<path d="M73.2126 38.2678L75.1625 37.8053C74.825 36.3929 74.3875 35.0178 73.8625 33.6678L72 34.4053C72.4875 35.6554 72.8875 36.9428 73.2125 38.2679L73.2126 38.2678Z" fill="#39934E"/>
<path d="M40.8251 71.4301L39.1751 72.5551C39.6751 73.2926 40.2251 74.0051 40.8126 74.6801L42.325 73.3801C41.7875 72.7551 41.2875 72.1051 40.825 71.4301L40.8251 71.4301Z" fill="#39934E"/>
<path d="M42.2994 76.2678C43.7495 77.6803 45.3744 78.8928 47.1369 79.8928L48.1244 78.1554C46.5119 77.2428 45.0244 76.1179 43.6869 74.8303L42.2994 76.2678Z" fill="#39934E"/>
</svg>
