<svg width="100" height="100" viewBox="0 0 100 100" fill="none" xmlns="http://www.w3.org/2000/svg">
<rect width="100" height="100" rx="50" fill="#4CB966"/>
<rect width="100" height="100" rx="50" fill="white" fill-opacity="0.8"/>
<path d="M63.0286 64.0291H55.0286C54.4786 64.0291 54.0286 64.4791 54.0286 65.0291V67.0291H51.4161L47.7036 60.5291C47.5286 60.2165 47.1911 60.0291 46.8411 60.0291H44.4912C42.8287 60.0291 41.4912 61.3665 41.4912 63.0291C41.4912 63.304 41.5287 63.5791 41.6037 63.8541L42.5162 67.029H39.0287C37.3661 67.029 36.0287 68.3665 36.0287 70.029C36.0287 70.1165 36.0287 70.2165 36.0412 70.304L36.6787 77.304C36.8161 78.854 38.1161 80.0415 39.6662 80.0291H47.0161C47.8161 80.0291 48.5787 79.7166 49.1412 79.1541L51.2662 77.029H54.0287V79.029C54.0287 79.579 54.4787 80.029 55.0287 80.029H63.0287C63.5787 80.029 64.0287 79.579 64.0287 79.029V65.029C64.0287 64.479 63.5787 64.029 63.0287 64.029L63.0286 64.0291ZM54.0286 75.0291H50.841C50.5785 75.0291 50.316 75.1291 50.1285 75.3165L47.7161 77.729C47.5286 77.9165 47.2786 78.0165 47.0035 78.0165H39.6536C39.1411 78.0165 38.7036 77.629 38.6536 77.104L38.0161 70.104C37.9661 69.554 38.3661 69.0665 38.9161 69.0165H39.0036H43.8161C44.3661 69.0165 44.8161 68.5665 44.8161 68.0165C44.8161 67.929 44.8036 67.829 44.7786 67.7415L43.5285 63.304C43.3785 62.779 43.6785 62.2165 44.216 62.0665C44.3035 62.0415 44.4035 62.029 44.491 62.029H46.2535L49.966 68.529C50.141 68.8415 50.4785 69.029 50.8285 69.029H54.0285L54.0286 75.0291ZM62.0286 78.0291H56.0286V66.0291H62.0286V78.0291Z" fill="#39934E"/>
<path d="M47.0286 26.029V28.2665C37.9785 29.704 31.0286 37.579 31.0286 47.0288C31.0161 52.9163 33.741 58.4791 38.4161 62.0665L39.6411 60.479C35.4536 57.2665 33.0161 52.2914 33.0287 47.0161C33.0287 37.6411 40.6537 30.0161 50.0287 30.0161C59.4037 30.0161 67.0287 37.6411 67.0287 47.0161C67.0287 52.6911 64.1912 58.0037 59.4787 61.1533L60.5912 62.8158C65.8662 59.3033 69.0287 53.3783 69.0287 47.0283C69.0287 37.5783 62.0788 29.7038 53.0287 28.266V26.0286C54.6913 26.0286 56.0287 24.6911 56.0287 23.0286C56.0287 21.3661 54.6913 20.0286 53.0287 20.0286H47.0287C45.3662 20.0286 44.0287 21.3661 44.0287 23.0286C44.0287 24.6911 45.3662 26.0286 47.0287 26.0286L47.0286 26.029ZM51.0286 28.0541C50.7036 28.0415 50.3661 28.029 50.0286 28.029C49.6911 28.029 49.3536 28.0416 49.0286 28.0541V26.029H51.0286V28.0541ZM47.0286 22.029H53.0286C53.5786 22.029 54.0286 22.479 54.0286 23.029C54.0286 23.579 53.5786 24.029 53.0286 24.029H47.0286C46.4786 24.029 46.0286 23.579 46.0286 23.029C46.0286 22.479 46.4786 22.029 47.0286 22.029Z" fill="#39934E"/>
<path d="M49.0286 37.0291H51.0286V34.0666C53.341 34.2416 55.5536 35.0291 57.4536 36.3541L58.6036 34.7166C51.8036 29.9916 42.4538 31.6666 37.7281 38.4666C33.0024 45.2666 34.6781 54.6037 41.4656 59.342L42.6155 57.7045C42.2655 57.4545 41.9156 57.192 41.5905 56.9045L43.7531 54.742L42.3406 53.3295L40.1531 55.4921C38.3531 53.392 37.2781 50.7796 37.0655 48.0295H40.028V46.0295H37.0655C37.278 43.2796 38.3655 40.667 40.1655 38.5795L42.328 40.742L43.7405 39.3295L41.578 37.167C43.6655 35.367 46.278 34.2795 49.028 34.067L49.0286 37.0291Z" fill="#39934E"/>
<path d="M51.104 61.9913C59.3665 61.4038 65.592 54.2163 64.992 45.9536C64.792 43.1285 63.792 40.4285 62.117 38.1536C61.792 37.7036 61.167 37.6161 60.717 37.9411C60.6795 37.9661 60.642 38.0036 60.6045 38.0411L49.0297 49.6159L46.7421 47.3284L45.3297 48.7408L48.3297 51.7408C48.7171 52.1283 49.3547 52.1283 49.7421 51.7408L61.1671 40.3158C62.2171 42.0533 62.8421 44.0158 62.9922 46.0283H60.0297V48.0283H62.9922C62.7797 50.7782 61.7046 53.3908 59.9046 55.4908L57.7421 53.3283L56.3297 54.7407L58.4922 56.9032C56.3797 58.7157 53.7422 59.8032 50.9671 60.0032L51.104 61.9913Z" fill="#39934E"/>
<path d="M59.0286 23.0291H74.0286V25.0291H59.0286V23.0291Z" fill="#39934E"/>
<path d="M76.0286 23.0291H79.0286V25.0291H76.0286V23.0291Z" fill="#39934E"/>
<path d="M63.0286 29.0291H72.0286V31.0291H63.0286V29.0291Z" fill="#39934E"/>
<path d="M70.0286 36.0291H80.0286V38.0291H70.0286V36.0291Z" fill="#39934E"/>
<path d="M71.0286 44.0291H76.0286V46.0291H71.0286V44.0291Z" fill="#39934E"/>
<path d="M71.0286 52.0291H77.0286V54.0291H71.0286V52.0291Z" fill="#39934E"/>
<path d="M68.0286 60.0291H76.0286V62.0291H68.0286V60.0291Z" fill="#39934E"/>
<path d="M67.0286 67.0291H78.0286V69.0291H67.0286V67.0291Z" fill="#39934E"/>
<path d="M78.0286 60.0291H80.0286V62.0291H78.0286V60.0291Z" fill="#39934E"/>
<path d="M78.0286 44.0291H80.0286V46.0291H78.0286V44.0291Z" fill="#39934E"/>
<path d="M74.0286 29.0291H77.0286V31.0291H74.0286V29.0291Z" fill="#39934E"/>
<path d="M20.0286 23.0291H30.0286V25.0291H20.0286V23.0291Z" fill="#39934E"/>
<path d="M32.0286 23.0291H35.0286V25.0291H32.0286V23.0291Z" fill="#39934E"/>
<path d="M23.0286 29.0291H32.0286V31.0291H23.0286V29.0291Z" fill="#39934E"/>
<path d="M20.0286 36.0291H27.0286V38.0291H20.0286V36.0291Z" fill="#39934E"/>
<path d="M20.0286 44.0291H28.0286V46.0291H20.0286V44.0291Z" fill="#39934E"/>
<path d="M22.0286 52.0291H29.0286V54.0291H22.0286V52.0291Z" fill="#39934E"/>
<path d="M20.0286 60.0291H32.0286V62.0291H20.0286V60.0291Z" fill="#39934E"/>
<path d="M23.0286 67.0291H30.0286V69.0291H23.0286V67.0291Z" fill="#39934E"/>
<path d="M34.0286 29.0291H37.0286V31.0291H34.0286V29.0291Z" fill="#39934E"/>
<path d="M32.0286 67.0291H34.0286V69.0291H32.0286V67.0291Z" fill="#39934E"/>
<path d="M29.0286 36.0291H31.0286V38.0291H29.0286V36.0291Z" fill="#39934E"/>
</svg>
