<svg width="100" height="100" viewBox="0 0 100 100" fill="none" xmlns="http://www.w3.org/2000/svg">
<rect width="100" height="100" rx="50" fill="#4CB966"/>
<rect width="100" height="100" rx="50" fill="white" fill-opacity="0.5"/>
<path d="M79.7357 34.3214L69.7357 24.3214C69.5482 24.1339 69.2938 24.0285 69.0286 24.0285H51.0286V26.0285H68.0286V33.0285C68.0286 33.824 68.3447 34.5875 68.9072 35.1499C69.4697 35.7123 70.2331 36.0285 71.0285 36.0285H78.0285V71.0285C78.0285 71.824 77.7125 72.5874 77.15 73.1498C76.5875 73.7122 75.824 74.0284 75.0286 74.0284H54.0286V59.0284C54.0237 55.7565 52.7857 52.6066 50.5616 50.2066C48.3375 47.8066 45.2907 46.3329 42.0286 46.0794V43.9285C43.1572 43.6964 44.1715 43.0825 44.9 42.1897C45.6286 41.2972 46.0273 40.1807 46.0286 39.0285V37.0285C46.8241 37.0285 47.5876 36.7124 48.15 36.1499C48.7124 35.5874 49.0285 34.824 49.0285 34.0286V25.0286C49.0268 23.7031 48.4995 22.4321 47.5625 21.4946C46.625 20.5576 45.354 20.0304 44.0285 20.0286H26.0285C25.4763 20.0286 25.0285 20.4763 25.0285 21.0286C25.0276 22.559 25.4201 24.0634 26.1674 25.3986C25.5781 25.7098 25.1111 26.2107 24.8411 26.8201C24.5714 27.4295 24.5147 28.1121 24.6804 28.7576L25.5715 32.3157C25.1496 32.917 24.9639 33.6527 25.0491 34.3826C25.1349 35.1125 25.4853 35.7853 26.0349 36.2733C26.5844 36.7612 27.2938 37.0299 28.0286 37.0286V39.0286C28.0299 40.1808 28.4286 41.2974 29.1571 42.1898C29.8857 43.0826 30.9 43.6965 32.0286 43.9286V46.0804C28.7665 46.334 25.7201 47.8076 23.496 50.2071C21.2719 52.6071 20.0339 55.7567 20.0286 59.0286V79.0286C20.0286 79.2938 20.1339 79.5483 20.3214 79.7358C20.5089 79.9233 20.7634 80.0286 21.0286 80.0286H53.0286C53.2937 80.0286 53.5482 79.9233 53.7357 79.7358C53.9232 79.5483 54.0286 79.2938 54.0286 79.0286V76.0286H75.0286C76.354 76.0268 77.625 75.4996 78.5625 74.5626C79.4996 73.6251 80.0267 72.3541 80.0286 71.0286V35.0286C80.0286 34.7634 79.9232 34.509 79.7357 34.3215L79.7357 34.3214ZM45.7815 52.6574L43.4735 54.1962C43.2243 54.3627 43.0627 54.6319 43.0333 54.9297C43.0038 55.2279 43.1096 55.5235 43.3212 55.7355L44.5212 56.9355L39.5622 60.7927L43.9622 50.4016C44.0837 50.0949 44.0466 49.748 43.8622 49.4743L43.0283 48.2186C43.3524 48.2784 43.6694 48.3547 43.9823 48.4418L45.7815 52.6574ZM30.5815 54.1962L28.2735 52.6574L30.0735 48.4413C30.3864 48.3542 30.7034 48.2783 31.0275 48.218L30.1904 49.4729V49.4733C30.0061 49.747 29.969 50.0939 30.0904 50.4001L34.4904 60.7912L29.5315 56.9341L30.7315 55.7341C30.9431 55.5225 31.0489 55.2269 31.0194 54.9287C30.9899 54.6305 30.8283 54.3613 30.5792 54.1952L30.5815 54.1962ZM40.0283 44.0283V46.6784L37.0283 50.4283L34.0283 46.6784V44.0283H40.0283ZM33.1016 48.7203L35.6016 51.8471L33.4707 53.4471L32.1506 50.1471L33.1016 48.7203ZM37.0283 53.2784L39.7913 55.3503L37.0283 61.5664L34.2653 55.3503L37.0283 53.2784ZM40.5841 53.4454L38.4532 51.8454L40.9532 48.7186L41.9023 50.1436L40.5841 53.4454ZM46.0283 35.0282V33.0282C46.5805 33.0282 47.0283 33.476 47.0283 34.0282C47.0283 34.5804 46.5805 35.0282 46.0283 35.0282ZM44.0283 22.0282C44.8238 22.0282 45.5873 22.3443 46.1497 22.9068C46.7121 23.4693 47.0283 24.2327 47.0283 25.0282V31.212C46.7082 31.0937 46.3698 31.0312 46.0283 31.0281V30.0281C46.0283 29.7629 45.9229 29.5085 45.7354 29.321C45.5479 29.1335 45.2934 29.0281 45.0283 29.0281C44.3475 28.9884 43.6934 28.7473 43.1501 28.3348C42.6068 27.9223 42.1983 27.3576 41.9773 26.7121C41.8675 26.383 41.5956 26.1344 41.2581 26.0549C40.921 25.975 40.5661 26.0759 40.321 26.321C38.9281 27.7161 35.3049 28.0282 34.0282 28.0282C32.3456 28.026 30.7198 27.4188 29.4474 26.3174C28.1755 25.2157 27.3421 23.6933 27.0992 22.0282L44.0283 22.0282ZM28.0283 27.717V31.0282C27.7922 31.0304 27.5573 31.0604 27.3283 31.1171L26.6163 28.2711C26.5399 27.9724 26.6069 27.6555 26.7975 27.4131C26.9444 27.2358 27.1502 27.1162 27.3774 27.0765C27.5859 27.3001 27.8029 27.514 28.0283 27.7171L28.0283 27.717ZM27.0283 34.0282C27.0283 33.476 27.4761 33.0282 28.0283 33.0282V35.0282C27.4761 35.0282 27.0283 34.5804 27.0283 34.0282ZM30.0283 39.0282V29.0783C31.2698 29.7015 32.6395 30.0269 34.0283 30.0283C34.5064 30.0283 38.2283 29.9801 40.6752 28.5412C41.4109 29.7716 42.626 30.6389 44.0283 30.9354V39.0282C44.0283 39.8237 43.7122 40.5871 43.1497 41.1495C42.5872 41.7119 41.8238 42.0281 41.0284 42.0281H33.0284C32.2328 42.0281 31.4694 41.712 30.907 41.1495C30.3446 40.587 30.0284 39.8236 30.0284 39.0282L30.0283 39.0282ZM22.0283 59.0282C22.0332 55.1514 24.0792 51.564 27.4131 49.5863L26.1131 52.6345V52.6341C25.9234 53.0774 26.0765 53.5925 26.4774 53.8603L28.4622 55.1835L27.3211 56.321C27.1171 56.5242 27.0104 56.805 27.0283 57.092C27.0461 57.3795 27.1867 57.6451 27.4144 57.821L36.0283 64.517V78.0279H28.0283V59.0279H26.0283V78.0279H22.0283L22.0283 59.0282ZM52.0283 78.0282H48.0283V59.0282H46.0283V78.0282H38.0283V64.5174L46.6421 57.8174C46.8698 57.6415 47.0105 57.3758 47.0283 57.0888C47.0462 56.8013 46.9395 56.5205 46.7354 56.3174L45.5984 55.1834L47.5832 53.8602V53.8607C47.9841 53.5928 48.1372 53.0776 47.9475 52.6344L46.6475 49.5862V49.5866C49.98 51.5651 52.0243 55.1527 52.0283 59.0285L52.0283 78.0282ZM70.0283 33.0282V27.442L76.6145 34.0282H71.0283C70.4761 34.0282 70.0283 33.5804 70.0283 33.0282Z" fill="#39934E"/>
<path d="M51.0283 39.0287H53.0283V48.0287C53.0283 48.2939 53.1337 48.5484 53.3212 48.7359C53.5087 48.9234 53.7631 49.0287 54.0283 49.0287H66.0283C66.2935 49.0287 66.548 48.9234 66.7355 48.7359C66.923 48.5484 67.0283 48.2939 67.0283 48.0287V39.0287H69.0283C69.456 39.0292 69.8364 38.7578 69.9752 38.3533C70.114 37.9488 69.9801 37.5011 69.6422 37.2386L60.6422 30.2386C60.281 29.9578 59.7756 29.9578 59.4145 30.2386L50.4145 37.2386C50.0766 37.5011 49.9426 37.9488 50.0815 38.3533C50.2203 38.7578 50.6007 39.0292 51.0283 39.0287H51.0283ZM59.0283 47.0287V43.0287H61.0283V47.0287H59.0283ZM65.0283 47.0287H63.0283V42.0287C63.0283 41.7636 62.923 41.5091 62.7355 41.3216C62.548 41.1341 62.2935 41.0287 62.0283 41.0287H58.0283C57.4761 41.0287 57.0283 41.4765 57.0283 42.0287V47.0287H55.0283V39.0287H65.0283V47.0287ZM60.0283 32.2962L66.1131 37.0292H53.944L60.0283 32.2962Z" fill="#39934E"/>
<path d="M57.0283 53.0288H61.0283V55.0288H57.0283V53.0288Z" fill="#39934E"/>
<path d="M63.0283 53.0288H71.0283V55.0288H63.0283V53.0288Z" fill="#39934E"/>
<path d="M57.0283 58.0288H71.0283V60.0288H57.0283V58.0288Z" fill="#39934E"/>
<path d="M66.0935 64.1293C65.4252 64.478 64.6288 64.478 63.9604 64.1293C63.3658 63.8146 62.701 63.6561 62.0283 63.6695V65.6695C62.4006 65.657 62.769 65.7476 63.0935 65.9302C64.3092 66.5418 65.7426 66.5418 66.9582 65.9302C67.6274 65.5811 68.4252 65.5811 69.0943 65.9302C69.6894 66.2449 70.355 66.403 71.0282 66.3891V64.3891C70.655 64.4016 70.2854 64.311 69.9604 64.1275C68.7435 63.5168 67.31 63.5168 66.0934 64.1275L66.0935 64.1293Z" fill="#39934E"/>
<path d="M37.0283 39.0288C37.8238 39.0288 38.5873 38.7127 39.1497 38.1502C39.7121 37.5877 40.0283 36.8242 40.0283 36.0288H38.0283C38.0283 36.581 37.5805 37.0288 37.0283 37.0288C36.476 37.0288 36.0283 36.581 36.0283 36.0288H34.0283C34.0283 36.8243 34.3443 37.5878 34.9068 38.1502C35.4693 38.7126 36.2328 39.0288 37.0282 39.0288H37.0283Z" fill="#39934E"/>
<path d="M35.0283 32.0288C35.0283 32.581 34.5805 33.0288 34.0283 33.0288C33.4761 33.0288 33.0283 32.581 33.0283 32.0288C33.0283 31.4766 33.4761 31.0288 34.0283 31.0288C34.5805 31.0288 35.0283 31.4766 35.0283 32.0288Z" fill="#39934E"/>
<path d="M41.0283 32.0288C41.0283 32.581 40.5805 33.0288 40.0283 33.0288C39.4761 33.0288 39.0283 32.581 39.0283 32.0288C39.0283 31.4766 39.4761 31.0288 40.0283 31.0288C40.5805 31.0288 41.0283 31.4766 41.0283 32.0288Z" fill="#39934E"/>
</svg>
