<svg width="100" height="100" viewBox="0 0 100 100" fill="none" xmlns="http://www.w3.org/2000/svg">
<rect width="100" height="100" rx="50" fill="#4CB966"/>
<rect width="100" height="100" rx="50" fill="white" fill-opacity="0.6"/>
<path d="M35.0011 17.9715C29.4904 17.9715 24.9993 22.4643 24.9993 27.9755H22.9975C22.1511 27.9831 21.6984 28.9737 22.2457 29.6202L28.2399 36.6184C28.639 37.0858 29.3622 37.0858 29.7612 36.6184L35.7612 29.6202C36.3104 28.9711 35.8519 27.9783 35.0014 27.9755H33.0014C33.0046 24.5858 35.1363 21.5697 38.3314 20.438C39.214 20.1211 39.214 18.8724 38.3314 18.5549C37.1899 18.1398 35.9698 17.9692 35.001 17.9715L35.0011 17.9715ZM31.0011 27.972V28.972C30.9994 29.5273 31.4498 29.9782 32.0052 29.976H32.8235L28.9994 34.435L25.1752 29.976H26.0034C26.5556 29.9742 27.0016 29.5247 26.9993 28.972V27.9755C26.9993 23.5479 30.5668 19.9774 34.9935 19.9733C32.1806 22.0665 30.9739 25.3576 31.0011 27.9719L31.0011 27.972ZM64.8171 67.5548C64.9372 67.3847 65.0015 67.1812 65.0006 66.9727L65.0011 61.4959C65.0194 61.487 65.0417 61.482 65.0596 61.4727C65.7551 61.1084 66.0738 60.5758 66.3078 60.0178C66.4926 59.5763 66.5823 59.2884 66.8623 58.9553C67.1422 58.6223 67.6426 58.2147 68.7002 57.7661C69.7578 57.3174 70.3908 57.2415 70.8252 57.2719C71.2592 57.3022 71.5319 57.4379 71.9775 57.6116C72.4234 57.7853 73.0658 57.9986 73.8976 57.7228C74.6431 57.4759 75.3261 56.9428 76.2587 55.9942C77.1913 55.0455 77.7159 54.345 77.9503 53.5956C78.1846 52.846 78.0382 52.2612 77.802 51.6836C77.6208 51.2407 77.4864 50.9724 77.4485 50.5389C77.4105 50.1054 77.4668 49.4634 77.8976 48.3983C78.3279 47.3331 78.7351 46.8322 79.0636 46.5465C79.3922 46.2608 79.6744 46.1626 80.1123 45.9702C80.6712 45.7247 81.1993 45.4023 81.5516 44.7006C81.8788 44.0488 82.0007 43.1175 82.0007 41.7983C82.0007 40.4786 81.8632 39.609 81.4989 38.9135C81.0931 38.1389 80.4793 37.8505 80.0378 37.6657C79.5963 37.4805 79.3164 37.3849 78.9833 37.105C78.6498 36.8251 78.2347 36.3305 77.7859 35.2729C77.3373 34.2153 77.2694 33.5743 77.2993 33.1399C77.3297 32.7059 77.4574 32.4332 77.6315 31.9876C77.8051 31.5417 78.0266 30.914 77.7489 30.0756C77.502 29.3301 76.8931 28.5623 76.0221 27.7065C75.0735 26.7739 74.2735 26.2199 73.624 26.0168C72.8744 25.7824 72.2418 25.9463 71.712 26.1632C71.2691 26.3445 71.0008 26.4869 70.5673 26.5244C70.1338 26.5619 69.4918 26.498 68.4267 26.0672C67.3615 25.6369 66.8588 25.2378 66.5731 24.9096C66.2878 24.5811 66.1896 24.2989 65.9972 23.8605C65.8048 23.4226 65.5204 22.8221 64.7218 22.4212C64.0972 22.1074 63.2312 21.9779 62.0012 21.9757C60.7713 21.9779 59.9048 22.1074 59.2806 22.4212C58.482 22.8225 58.1976 23.4225 58.0052 23.8605C57.8128 24.2985 57.7146 24.5811 57.4289 24.9092C57.1432 25.2378 56.6405 25.6369 55.5753 26.0672C54.5101 26.498 53.8681 26.5619 53.4347 26.5244C53.0012 26.4869 52.7329 26.3445 52.29 26.1632C51.7601 25.9463 51.1275 25.7824 50.378 26.0168C49.7285 26.2199 48.9284 26.7735 47.9798 27.7061C47.1093 28.5619 46.5004 29.3297 46.2536 30.0752C45.9759 30.9136 46.1969 31.5417 46.371 31.9872C46.5446 32.4332 46.6727 32.7055 46.7031 33.1394C46.7335 33.5733 46.6652 34.2149 46.2169 35.2725C45.7683 36.33 45.3531 36.8247 45.0196 37.1046C44.6865 37.3845 44.4062 37.4805 43.9651 37.6653C43.5236 37.8501 42.9102 38.1385 42.5044 38.9135C42.495 38.9318 42.4901 38.9537 42.4812 38.972H35.0026C34.6959 38.972 34.4829 39.0698 34.2936 39.259L22.3714 51.1916C22.2173 51.3166 22.1035 51.4845 22.045 51.6742L18.0902 60.5653C17.7933 61.2256 18.2745 61.9724 18.9982 61.9756L22.0036 61.9751V80.966C22.0004 81.5191 22.4464 81.9696 22.9995 81.9718H54.003C54.3257 81.9696 54.6275 81.812 54.8146 81.549L64.8171 67.5548ZM63.827 24.2074C64.0332 24.311 64.0953 24.4931 64.1667 24.6565C64.3149 24.9945 64.5283 25.6128 65.0591 26.223C65.5899 26.8333 66.4029 27.4069 67.6725 27.9204C68.9421 28.4338 69.931 28.5883 70.7367 28.5182C71.5425 28.4481 72.1296 28.1561 72.4711 28.0164C72.8126 27.8766 72.868 27.886 73.0256 27.9284C73.2461 27.9972 73.7015 28.2293 74.6193 29.1315C75.4662 29.9641 75.7791 30.4847 75.8519 30.7039C75.8992 30.8467 75.9059 30.9204 75.772 31.2646C75.638 31.6088 75.3612 32.1923 75.305 32.999C75.2487 33.8061 75.4126 34.795 75.9474 36.0557C76.4822 37.3163 77.0702 38.1195 77.6894 38.6395C78.3085 39.1596 78.9291 39.3681 79.2692 39.5105C79.6099 39.6534 79.6603 39.7168 79.7264 39.8427C79.8335 40.0471 79.9898 40.6333 80 41.8212C80.0112 43.1029 79.8616 43.5935 79.7576 43.7997C79.6853 43.9434 79.6447 43.989 79.3063 44.1376C78.9683 44.2859 78.3581 44.5091 77.7478 45.0399C77.1375 45.5707 76.5558 46.3818 76.0429 47.6515C75.5295 48.9211 75.383 49.91 75.4531 50.7162C75.5232 51.522 75.8071 52.101 75.9473 52.443C76.0875 52.7845 76.083 52.8568 76.0429 53.0055C75.9741 53.226 75.6665 53.7443 74.8339 54.5916C73.9572 55.4836 73.4866 55.7514 73.2674 55.8242C73.0978 55.8697 73.0509 55.8782 72.7067 55.7443C72.3625 55.6104 71.7714 55.3358 70.9648 55.2796C70.1581 55.2233 69.1764 55.3871 67.9161 55.922C66.6554 56.4568 65.8522 57.0505 65.3322 57.6702C64.8121 58.2894 64.6036 58.9019 64.4612 59.2425C64.3755 59.4475 64.3103 59.6068 64.1291 59.7015C63.9246 59.8086 63.4322 59.9751 62.1506 59.9751C62.0934 59.9756 62.0546 59.9716 62.0001 59.9716C61.9457 59.9716 61.9068 59.976 61.8497 59.9751C60.568 59.9751 60.0756 59.8086 59.8712 59.7015C59.6899 59.6064 59.6247 59.447 59.539 59.2425C59.3962 58.9019 59.1881 58.2894 58.668 57.6702C58.1479 57.051 57.3448 56.4568 56.0842 55.922C54.8244 55.3863 53.8431 55.222 53.0364 55.2782C52.2297 55.3345 51.6382 55.609 51.2944 55.743C50.9502 55.8769 50.9034 55.8684 50.7337 55.8229C50.5145 55.7501 50.044 55.4822 49.1672 54.5903C48.3346 53.743 48.027 53.2247 47.9583 53.0041C47.9186 52.8555 47.9141 52.7831 48.0538 52.4416C48.194 52.1001 48.4779 51.5206 48.548 50.7149C48.6181 49.9091 48.4712 48.9198 47.9583 47.6502C47.4449 46.3806 46.8637 45.5694 46.2534 45.0385C45.6431 44.5077 45.0328 44.2845 44.6949 44.1363C44.3569 43.9881 44.3158 43.9421 44.2435 43.7984C44.14 43.5921 43.9904 43.1015 44.0011 41.8198C44.0114 40.6318 44.1676 40.0458 44.2748 39.8413C44.3404 39.7159 44.3913 39.652 44.7319 39.5092C45.0725 39.3663 45.6926 39.1583 46.3118 38.6382C46.931 38.1181 47.5189 37.3146 48.0537 36.0543C48.5886 34.7936 48.7524 33.8043 48.6962 32.9976C48.6399 32.1905 48.3636 31.607 48.2292 31.2632C48.0953 30.919 48.102 30.8458 48.1493 30.7025C48.2221 30.4833 48.5346 29.9628 49.3819 29.1302C50.2997 28.2275 50.7551 27.9958 50.9756 27.9271C51.1332 27.8847 51.1885 27.8749 51.53 28.015C51.8716 28.1548 52.4586 28.4467 53.2644 28.5168C54.0702 28.5869 55.0595 28.4325 56.3287 27.9191C57.5983 27.4057 58.4113 26.832 58.942 26.2217C59.4728 25.6114 59.6862 24.9931 59.8345 24.6552C59.9063 24.4918 59.9679 24.3096 60.1742 24.2061C60.3711 24.1074 60.7809 23.9851 62.0005 23.9735C63.2201 23.9846 63.63 24.107 63.8268 24.2061L63.827 24.2074ZM62.0127 30.0025C60.8202 30.0007 59.6394 30.177 58.5087 30.5199C55.9239 31.3043 53.6091 32.9552 52.0207 35.3323C48.8434 40.0872 49.4671 46.4431 53.5108 50.4878C53.901 50.8753 54.5309 50.8753 54.9211 50.4878C55.3135 50.0967 55.3135 49.4628 54.9211 49.0717C53.2394 47.39 52.2671 45.2377 52.0422 43.011H53.0091C53.5645 43.0132 54.0149 42.5623 54.0127 42.007C54.0109 41.4547 53.5613 41.0087 53.0091 41.011H52.0444C52.2033 39.4217 52.7422 37.8534 53.681 36.4485C53.8586 36.1824 54.047 35.9266 54.2452 35.6828L55.2823 36.7141C55.6725 37.1016 56.3024 37.1016 56.6926 36.7141C57.0801 36.3239 57.0801 35.694 56.6926 35.3038L55.6591 34.2645C57.1886 33.0109 59.0479 32.2484 60.9895 32.0516V33.0087C60.9877 33.5614 61.4332 34.011 61.9855 34.0128C62.5408 34.0145 62.9917 33.5641 62.9895 33.0087L62.9891 32.0516C63.944 32.1476 64.898 32.3811 65.823 32.7645C66.7449 33.1462 67.582 33.6538 68.323 34.2587L67.2779 35.3038C66.8904 35.694 66.8904 36.3239 67.2779 36.7141C67.669 37.1065 68.3051 37.1065 68.6957 36.7141L69.7386 35.6748C70.9739 37.1868 71.7506 39.0413 71.9457 41.0109H70.9908C70.4381 41.0091 69.989 41.4547 69.9867 42.0069C69.985 42.5622 70.4354 43.0131 70.9908 43.0109H71.9439C71.91 43.3252 71.8662 43.6413 71.8033 43.9564C71.4738 45.6131 70.7448 47.1019 69.7332 48.3372L68.6962 47.3002C68.5078 47.114 68.2524 47.0096 67.9872 47.0109C67.7225 47.0091 67.4671 47.114 67.2783 47.3002C66.8859 47.6913 66.8859 48.3252 67.2783 48.7163L68.3154 49.7534C66.5796 51.1681 64.3711 52.0016 61.9931 52.0016H61.4011L61.694 51.7065C62.0815 51.3163 62.0815 50.6864 61.694 50.2962C61.5065 50.1078 61.2511 50.0011 60.985 50.0011C60.7216 50.0029 60.4694 50.1092 60.2837 50.2962L58.2842 52.2967C57.8967 52.6869 57.8967 53.3168 58.2842 53.707L60.2842 55.7092C60.6743 56.0967 61.3042 56.0967 61.6944 55.7092C62.0819 55.3191 62.0819 54.6892 61.6944 54.299L61.3976 54.0021H61.9895C67.7118 54.0021 72.6511 49.9566 73.7667 44.3476C74.8818 38.7377 71.868 33.1073 66.5849 30.919C65.0988 30.3034 63.5456 30.0056 62.0126 30.0029L62.0127 30.0025ZM60.9895 37.0088V41.5927L59.2395 43.3426C58.8471 43.7337 58.8471 44.3698 59.2395 44.7604C59.6297 45.1479 60.2596 45.1479 60.6498 44.7604L62.6945 42.7153C62.8833 42.5278 62.9896 42.2724 62.9896 42.0064L62.9891 37.0082C62.9873 36.456 62.5378 36.01 61.9856 36.0122C61.436 36.0144 60.9914 36.4586 60.9896 37.0082L60.9895 37.0088ZM35.9975 40.9717H42.0287C42.0126 41.2276 42.0019 41.4972 41.9992 41.7981C41.988 43.1285 42.1229 44.0485 42.4505 44.7004C42.8032 45.4022 43.3313 45.7245 43.8899 45.97C44.3278 46.1624 44.6104 46.2606 44.9385 46.5463C45.2671 46.832 45.6738 47.3325 46.1046 48.3981C46.5354 49.4633 46.5916 50.1053 46.5537 50.5387C46.5394 50.7016 46.501 50.832 46.4617 50.9663H35.997L35.9975 40.9717ZM33.9975 42.3896V50.9659H25.4216L33.9975 42.3896ZM23.6501 52.9681H45.945C45.9548 53.1663 45.9825 53.3717 46.0526 53.5949C46.287 54.3444 46.8115 55.0449 47.7441 55.9935C48.4129 56.6739 48.9512 57.1346 49.4785 57.435L48.3495 59.9743L20.5335 59.9739L23.6501 52.9681ZM52.9987 79.9692H24.0033V61.9749H48.9976C49.3945 61.9749 49.7538 61.7406 49.9136 61.3772L51.5212 57.7696C51.7073 57.7232 51.8801 57.6679 52.0252 57.6116C52.402 57.4647 52.6685 57.3589 52.9998 57.3067L52.9987 79.9692ZM54.9987 57.6504C55.1014 57.6897 55.1898 57.7182 55.3014 57.7656C56.359 58.2142 56.8595 58.6218 57.1393 58.9548C57.4192 59.2878 57.509 59.5758 57.6938 60.0173C57.9277 60.5758 58.246 61.1079 58.942 61.4722C59.6376 61.8365 60.5041 61.9628 61.8345 61.974C61.8948 61.9744 61.9421 61.9722 62.0006 61.9722C62.059 61.9722 62.1064 61.9748 62.1666 61.974C62.4693 61.9713 62.7425 61.9606 63.0006 61.9445V66.6459L54.9987 77.8592L54.9987 57.6504ZM26.001 72.9727V76.9749C25.9706 78.3384 28.0314 78.3384 28.001 76.9749V72.9727C28.0108 72.4066 27.5497 71.945 26.9836 71.9553C26.4314 71.9651 25.9916 72.4204 26.001 72.9727ZM30.9853 71.9553C30.434 71.966 29.9952 72.4213 30.005 72.9727V76.9749C29.9746 78.3384 32.0354 78.3384 32.005 76.9749V72.9727C32.0148 72.4057 31.5523 71.9441 30.9853 71.9553ZM34.001 72.9727V76.9749C33.9706 78.3384 36.0314 78.3384 36.001 76.9749V72.9727C36.0108 72.4066 35.5497 71.945 34.9836 71.9553C34.4314 71.9651 33.9916 72.4204 34.001 72.9727Z" fill="#39934E"/>
</svg>
