<svg width="100" height="100" viewBox="0 0 100 100" fill="none" xmlns="http://www.w3.org/2000/svg">
<rect width="100" height="100" rx="50" fill="#4CB966"/>
<rect width="100" height="100" rx="50" fill="white" fill-opacity="0.7"/>
<g clip-path="url(#clip0_570_867)">
<path d="M62.7734 20.1054C61.4375 20.5156 60.6758 21.6054 60.6641 23.0703V23.8671H59.9609C59.5742 23.8671 59.082 23.9375 58.8711 24.0312C58.2969 24.2656 57.7578 24.9453 57.6758 25.5312C57.5352 26.5507 56.7969 34.1328 56.7969 34.5781C56.7969 35.3398 57.0547 35.9609 57.6172 36.5468C58.4961 37.4492 58.707 37.4843 63.8516 37.4375C68.0703 37.4023 68.2344 37.3906 68.6914 37.1445C69.7109 36.5937 70.2734 35.7031 70.2734 34.625C70.2734 34.2851 70.0859 32.082 69.8516 29.7265C69.3711 24.8164 69.3125 24.5937 68.3984 24.125C68.0234 23.9375 67.6719 23.8671 67.1445 23.8671H66.4063V23.0234C66.4063 21.9921 66.1367 21.371 65.4102 20.7265C64.6719 20.082 63.6523 19.8359 62.7734 20.1054ZM64.2383 22.2851C64.4844 22.5195 64.5313 22.6835 64.5313 23.2226V23.8671H63.5352H62.5391V23.3398C62.5391 22.7773 62.7734 22.1796 63.0313 22.0742C63.4297 21.9101 63.9688 22.0039 64.2383 22.2851ZM60.6641 26.7968V27.7343H61.6016H62.5391V26.7968V25.8593H63.5352H64.5313V26.7968V27.7343H65.4688H66.4063V26.7968V25.8593H66.9688H67.5313L67.918 29.8671C68.1289 32.082 68.3281 34.1093 68.3633 34.3789C68.4219 34.789 68.3867 34.9062 68.1289 35.164L67.8242 35.4687H63.6055C61.2852 35.4687 59.3047 35.4335 59.1992 35.3984C59.1055 35.3515 58.9414 35.1875 58.8594 35.0117C58.7188 34.7539 58.7656 34.0976 59.1406 30.3125C59.3867 27.8984 59.5977 25.9062 59.5977 25.8828C59.6094 25.871 59.8438 25.8593 60.1367 25.8593H60.6641V26.7968Z" fill="#39934E"/>
<path d="M35.4688 26.7969V27.7344H38.3984H41.3281V33.5352V39.3359H42.2656H43.2031V32.5977V25.8594H39.3359H35.4688V26.7969Z" fill="#39934E"/>
<path d="M47.0703 34.5312V39.3359H48.0664H49.0625V35.4688V31.6016H51.9336H54.8047V30.6641V29.7266H50.9375H47.0703V34.5312Z" fill="#39934E"/>
<path d="M21.0547 39.6055C20.2226 40.0391 20 40.6016 20 42.2188C20 42.9453 20.0586 43.6836 20.1289 43.8711C20.3047 44.3633 20.9258 44.9492 21.4062 45.0781C21.6289 45.1367 22.7773 45.1953 23.9609 45.1953H26.0937V45.6289C26.0937 45.875 26.4101 51.9219 26.7969 59.082C27.3125 68.7383 27.5351 72.2656 27.6758 72.7812C28.2851 75.0547 30.3476 77.1875 32.5039 77.7617C32.8555 77.8555 33.0898 78.0195 33.3242 78.3477C34.1328 79.4492 35.1055 79.9414 36.4648 79.9414C37.6719 79.9414 38.4922 79.5664 39.3125 78.6406L39.8633 78.0078H43.7422H47.6211L47.9258 78.4531C48.4766 79.2969 49.8828 80 50.9961 80C52.5898 80 54.1836 78.793 54.6289 77.2578L54.8164 76.6367L55.7187 77.082C57.1719 77.8086 58.3086 78.043 60.0664 77.9844C61.332 77.9375 61.6836 77.8789 62.5039 77.5742C63.8984 77.0703 64.6953 76.5547 65.832 75.418C66.6758 74.5859 66.9336 74.2344 67.3906 73.3086C68.1406 71.7734 68.3398 70.9648 68.3281 69.3359C68.3281 67.7422 68.1289 66.875 67.4726 65.5273C66.3476 63.2539 64.2031 61.5195 61.7773 60.9453C61.332 60.8398 60.8867 60.7344 60.8164 60.7109C60.6992 60.6758 60.6641 59.5742 60.6641 55.6602C60.6641 51.0195 60.6406 50.6094 60.4414 50.1641C60.3242 49.8945 60.043 49.5547 59.832 49.4023C59.4453 49.1328 59.3516 49.1211 57.125 49.0859L54.8047 49.0508V47.1172V45.1953H57.7344H60.6641V44.1992V43.2031H56.7969H52.9297V46.1328V49.0625H40.5781H28.2383L28.1562 48.0312C28.1211 47.4688 28.0273 45.875 27.957 44.4922C27.8047 41.4453 27.6875 40.9531 26.9609 40.2266C26.2109 39.4648 25.6719 39.3359 23.3984 39.3359C21.7109 39.3359 21.5234 39.3594 21.0547 39.6055ZM25.5898 41.5859C25.7539 41.7617 25.8711 42.1016 25.918 42.5234L26 43.2031H23.9961H21.9922V42.2656V41.3281H23.668C25.2617 41.3281 25.3672 41.3398 25.5898 41.5859ZM58.6719 51.9336V52.9297H43.5664H28.4726L28.3906 52.5664C28.3555 52.3672 28.3203 51.9102 28.3203 51.5703V50.9375H43.4961H58.6719V51.9336ZM35.4687 57.7344V60.6641H32.1406H28.8242L28.7539 59.457C28.707 58.8008 28.6367 57.4883 28.6015 56.5273L28.5195 54.8047H31.9883H35.4687V57.7344ZM47.0703 57.7344V60.6641H42.2656H37.4609V57.7344V54.8047H42.2656H47.0703V57.7344ZM58.6719 57.7344V60.6641H53.8672H49.0625V57.7344V54.8047H53.8672H58.6719V57.7344ZM35.4687 65.4688V68.3984H32.375H29.2695L29.2109 67.8945C29.1758 67.625 29.1172 66.6875 29.082 65.8203C29.0469 64.9531 28.9883 63.8516 28.9531 63.3828L28.8828 62.5391H32.1758H35.4687V65.4688ZM47.0703 65.4688V68.3984H42.2656H37.4609V65.4688V62.5391H42.2656H47.0703V65.4688ZM54.1016 62.6094C54.1016 62.6445 53.9726 62.7852 53.8203 62.9023C53.4453 63.1953 52.4609 64.4492 52.0625 65.1289C51.6992 65.7734 51.2187 67.1328 51.1016 67.8711L51.0312 68.3984H50.0469H49.0625V65.4688V62.5391H51.582C52.9648 62.5391 54.1016 62.5742 54.1016 62.6094ZM61.4844 62.8555C63.5703 63.418 65.3633 65.1289 66.1016 67.2148C66.3828 68.0352 66.4883 69.8633 66.2891 70.7891C66.0664 71.9023 65.3047 73.2617 64.4141 74.1406C62.1406 76.4258 58.625 76.7539 55.918 74.9492C52.5078 72.6641 51.9101 67.8477 54.6641 64.8594C56.4805 62.9023 58.9766 62.1641 61.4844 62.8555ZM51.1953 71.2109C51.3008 71.6914 51.3945 72.125 51.4062 72.1719C51.4062 72.2305 51.1719 72.2656 50.8906 72.2656C49.1562 72.2656 47.5273 73.6719 47.1758 75.4531L47.0351 76.1328H43.6719H40.3086L40.25 75.5586C40.1328 74.375 39.2539 73.1914 38.0703 72.6406C37.5078 72.3711 37.2383 72.3242 36.4062 72.3242C35.5859 72.3242 35.3164 72.3711 34.8828 72.6055C33.7226 73.2266 33.043 74.0117 32.7617 75.1016C32.6797 75.418 32.5508 75.6641 32.4687 75.6641C32.2109 75.6641 30.9453 74.7383 30.5703 74.2578C29.8672 73.4023 29.4687 72.3711 29.3984 71.2695L29.3398 70.2734L40.168 70.2969L50.9844 70.332L51.1953 71.2109ZM37.3555 74.4453C38.3984 74.9727 38.7031 76.3203 37.9765 77.2695C37.1797 78.3125 35.668 78.2656 34.8476 77.1641C34.543 76.7422 34.4492 75.8047 34.6836 75.3594C35.2226 74.3164 36.3476 73.9414 37.3555 74.4453ZM51.8984 74.4453C52.625 74.8203 53.0586 75.8164 52.8242 76.6016C52.5312 77.5977 51.8281 78.0664 50.7851 77.9844C48.582 77.7969 48.4648 74.7148 50.6445 74.2344C50.9609 74.1641 51.5117 74.2578 51.8984 74.4453Z" fill="#39934E"/>
<path d="M58.6719 66.4648V68.3984H56.7383H54.8047V69.3359V70.2734H56.7383H58.6719V72.207V74.1406H59.668H60.6641V72.207V70.2734H62.5977H64.5312V69.3359V68.3984H62.5977H60.6641V66.4648V64.5312H59.668H58.6719V66.4648Z" fill="#39934E"/>
<path d="M41.3281 42.2656V43.2031H42.2656H43.2031V42.2656V41.3281H42.2656H41.3281V42.2656Z" fill="#39934E"/>
<path d="M47.0703 42.2656V43.2031H48.0664H49.0625V42.2656V41.3281H48.0664H47.0703V42.2656Z" fill="#39934E"/>
<path d="M63.6055 41.5273C63.3945 41.6328 63.0781 41.9258 62.9023 42.1953L62.5977 42.6641V46.1328V49.6016L62.9141 50.082C63.3711 50.7734 63.8164 50.9375 65.2109 50.9375H66.3711L66.4297 52.0508C66.4883 53.0234 66.5352 53.2344 66.8281 53.7148C67.4023 54.6406 68.6445 55.0625 69.6523 54.6758C69.8281 54.6055 70.8008 53.7383 71.7969 52.7422L73.625 50.9375H76.0508C78.793 50.9375 79.0625 50.8789 79.6016 50.1641L79.9414 49.7305V46.1211C79.9414 42.6523 79.9297 42.5 79.6953 42.1836C79.5664 42.0078 79.2734 41.7383 79.0625 41.5859L78.6758 41.3281H71.3398C64.7656 41.3281 63.9688 41.3516 63.6055 41.5273ZM78.0078 46.1328V49.0625H75.4062H72.8047L70.8477 51.0078C69.0781 52.7656 68.8672 52.9414 68.6445 52.8242C68.4102 52.6953 68.3984 52.5898 68.3984 50.8789V49.0625H66.4648H64.5312V46.1328V43.2031H71.2695H78.0078V46.1328Z" fill="#39934E"/>
<path d="M66.4062 46.1328V47.0703H67.4023H68.3984V46.1328V45.1953H67.4023H66.4062V46.1328Z" fill="#39934E"/>
<path d="M70.2734 46.1328V47.0703H71.2695H72.2656V46.1328V45.1953H71.2695H70.2734V46.1328Z" fill="#39934E"/>
<path d="M74.1406 46.1328V47.0703H75.1367H76.1328V46.1328V45.1953H75.1367H74.1406V46.1328Z" fill="#39934E"/>
<path d="M41.3281 46.1328V47.0703H42.2656H43.2031V46.1328V45.1953H42.2656H41.3281V46.1328Z" fill="#39934E"/>
<path d="M47.0703 46.1328V47.0703H48.0664H49.0625V46.1328V45.1953H48.0664H47.0703V46.1328Z" fill="#39934E"/>
<path d="M33.9358 25.2364L33.541 26.5925H25.5759L25.9707 25.2364H33.9358ZM30.3652 34.6777L25.8248 29.3734L25.8162 28.3091H27.9105C28.517 28.3091 29.0177 28.209 29.4125 28.0087C29.8131 27.8027 30.1135 27.5252 30.3138 27.1761C30.514 26.8271 30.6142 26.4351 30.6142 26.0003C30.6142 25.5139 30.5197 25.0876 30.3309 24.7214C30.1421 24.3494 29.8445 24.0605 29.4383 23.8545C29.0377 23.6428 28.5113 23.5369 27.859 23.5369H25.5931L25.9965 22.1808H27.859C28.8546 22.1808 29.6757 22.3324 30.3223 22.6357C30.9746 22.9332 31.461 23.3681 31.7815 23.9403C32.1019 24.5125 32.2621 25.2049 32.2621 26.0174C32.2621 26.7155 32.1276 27.3421 31.8587 27.8971C31.5955 28.4464 31.1578 28.8784 30.5455 29.1932C29.939 29.5079 29.1207 29.6652 28.0907 29.6652L32.3136 34.5747V34.6777H30.3652ZM33.9358 22.1808L33.541 23.5369H27.1208L27.5157 22.1808H33.9358Z" fill="#39934E"/>
</g>
<defs>
<clipPath id="clip0_570_867">
<rect width="60" height="60" fill="white" transform="translate(20 20)"/>
</clipPath>
</defs>
</svg>
