<svg width="100" height="100" viewBox="0 0 100 100" fill="none" xmlns="http://www.w3.org/2000/svg">
<rect width="100" height="100" rx="50" fill="#4CB966"/>
<rect width="100" height="100" rx="50" fill="white" fill-opacity="0.8"/>
<path d="M53.3626 73.1011H35.7929L35.668 73.0947C34.2614 73.0612 33.0021 72.478 32.0945 71.5542C31.1767 70.6187 30.6136 69.338 30.6136 67.9254L31.1135 40.7968C31.1235 40.1432 31.6572 39.6206 32.3084 39.6206L37.1024 39.6195V34.9746C37.1024 32.9188 37.9438 31.0491 39.2975 29.6955L39.3685 29.6302C40.7185 28.3137 42.5596 27.5 44.5763 27.5C46.6274 27.5 48.4967 28.3414 49.8528 29.6975C51.2101 31.0501 52.0509 32.9195 52.0509 34.9745V39.6165L56.8449 39.6155C57.5075 39.6155 58.0453 40.1529 58.0453 40.8158L58.1695 47.827C58.5498 47.216 58.9915 46.7629 59.4599 46.4459C60.8085 45.5338 62.3468 45.6855 63.4784 46.4516C64.5957 47.2083 65.3096 48.5763 65.0337 50.1095C64.8867 50.9255 64.4508 51.7813 63.6248 52.5842H68.1864C68.849 52.5842 69.3867 53.1216 69.3867 53.7845V57.7016C69.3867 58.3642 68.8493 58.9019 68.1864 58.9019H67.5362V71.9013C67.5362 72.564 66.9988 73.1017 66.3358 73.1017H53.363L53.3626 73.1011ZM55.77 47.3748L55.6719 42.0157H52.0515V45.6351C52.0515 46.2978 51.5141 46.8355 50.8511 46.8355C50.1885 46.8355 49.6508 46.2981 49.6508 45.6351V42.0157H39.5031V45.6351C39.5031 46.2978 38.9657 46.8355 38.3027 46.8355C37.6401 46.8355 37.1024 46.2981 37.1024 45.6351V42.0157H33.482L33.0099 67.8294L33.0139 67.9252C33.0139 68.6912 33.3139 69.3793 33.8007 69.8759C34.2842 70.3684 34.9532 70.6808 35.6989 70.7035L48.6709 70.7012V58.9H48.0206C47.358 58.9 46.8203 58.3626 46.8203 57.6997V53.7826C46.8203 53.12 47.3577 52.5823 48.0206 52.5823H53.3306C52.8986 52.0499 52.6549 51.4965 52.5585 50.9637C52.3264 49.675 52.9258 48.5259 53.8612 47.8931C54.415 47.5218 55.084 47.3233 55.7694 47.3731L55.77 47.3748ZM59.3305 52.3991L59.4627 52.3385C61.6347 51.4984 62.5317 50.5174 62.6814 49.6874C62.7755 49.163 62.5267 48.6913 62.139 48.4287C61.7653 48.176 61.2527 48.1277 60.801 48.4334C60.0849 48.9176 59.4738 50.1199 59.3309 52.3991L59.3305 52.3991ZM56.8467 52.2043C56.7034 50.8844 56.3267 50.1742 55.8948 49.8819C55.6601 49.7232 55.3943 49.7476 55.2021 49.8772C54.9959 50.0219 54.8629 50.27 54.9118 50.5435C55.0019 51.0454 55.5473 51.6457 56.8467 52.2042L56.8467 52.2043ZM59.304 58.9014V70.7008H65.1359V58.9014H59.304ZM56.9036 70.7008V58.9014H51.072V70.7008H56.9036ZM57.149 54.9842V56.5006H59.0592V54.9842H57.149ZM54.7487 56.5006V54.9842H49.2218V56.5006H54.7487ZM61.4595 54.9842V56.5006H66.9864V54.9842H61.4595ZM39.5038 39.6182L49.6515 39.6166V34.9739C49.6515 33.5804 49.08 32.3111 48.1599 31.391C47.2438 30.4695 45.9749 29.9 44.5773 29.9C43.2069 29.9 41.9604 30.4481 41.0483 31.3337L40.9951 31.391C40.0756 32.3104 39.5041 33.58 39.5041 34.9739L39.5038 39.6182Z" fill="#39934E"/>
</svg>
