<svg width="100" height="100" viewBox="0 0 100 100" fill="none" xmlns="http://www.w3.org/2000/svg">
<rect width="100" height="100" rx="50" fill="#4CB966"/>
<rect width="100" height="100" rx="50" fill="white" fill-opacity="0.5"/>
<path d="M49.9941 61.5142C53.1705 61.5142 55.7539 58.9307 55.7539 55.7544C55.7539 52.5781 53.1705 49.9946 49.9941 49.9946C46.8178 49.9946 44.2344 52.5781 44.2344 55.7544C44.2344 58.9303 46.8178 61.5142 49.9941 61.5142ZM49.9941 53.8343C51.0526 53.8343 51.9143 54.695 51.9143 55.7544C51.9143 56.8138 51.0527 57.6745 49.9941 57.6745C48.9356 57.6745 48.074 56.8138 48.074 55.7544C48.074 54.695 48.9356 53.8343 49.9941 53.8343Z" fill="#39934E"/>
<path d="M42.314 74.9542C42.314 76.0154 43.1733 76.8743 44.2341 76.8743H55.7541C56.8143 76.8743 57.6742 76.0154 57.6742 74.9542V71.114C57.6742 66.8783 54.2291 63.4341 49.9943 63.4341C45.7595 63.4341 42.3144 66.8788 42.3144 71.114L42.314 74.9542ZM46.1537 71.1144C46.1537 68.9975 47.876 67.2742 49.994 67.2742C52.1119 67.2742 53.8342 68.9969 53.8342 71.1144V73.0345H46.1539L46.1537 71.1144Z" fill="#39934E"/>
<path d="M69.1941 61.5142C72.3704 61.5142 74.9539 58.9307 74.9539 55.7544C74.9539 52.5781 72.3704 49.9946 69.1941 49.9946C66.0178 49.9946 63.4343 52.5781 63.4343 55.7544C63.4343 58.9303 66.0178 61.5142 69.1941 61.5142ZM69.1941 53.8343C70.2526 53.8343 71.1142 54.695 71.1142 55.7544C71.1142 56.8138 70.2526 57.6745 69.1941 57.6745C68.1356 57.6745 67.274 56.8138 67.274 55.7544C67.274 54.695 68.1356 53.8343 69.1941 53.8343Z" fill="#39934E"/>
<path d="M69.194 63.4342C64.9592 63.4342 61.5142 66.8789 61.5142 71.1141V74.9543C61.5142 76.0155 62.3735 76.8744 63.4343 76.8744H74.9543C76.0145 76.8744 76.8744 76.0155 76.8744 74.9543V71.1141C76.8739 66.8784 73.4289 63.4342 69.194 63.4342ZM73.0343 73.0342H65.3539V71.1141C65.3539 68.9972 67.0762 67.2739 69.1942 67.2739C71.3121 67.2739 73.0344 68.9966 73.0344 71.1141L73.0343 73.0342Z" fill="#39934E"/>
<path d="M30.794 61.5142C33.9703 61.5142 36.5537 58.9307 36.5537 55.7544C36.5537 52.5781 33.9703 49.9946 30.794 49.9946C27.6176 49.9946 25.0342 52.5781 25.0342 55.7544C25.0342 58.9303 27.6176 61.5142 30.794 61.5142ZM30.794 53.8343C31.8524 53.8343 32.7141 54.695 32.7141 55.7544C32.7141 56.8138 31.8525 57.6745 30.794 57.6745C29.7354 57.6745 28.8738 56.8138 28.8738 55.7544C28.8738 54.695 29.7354 53.8343 30.794 53.8343Z" fill="#39934E"/>
<path d="M38.474 74.9542V71.114C38.474 66.8783 35.0289 63.4341 30.7941 63.4341C26.5593 63.4345 23.1143 66.8788 23.1143 71.1144V74.9547C23.1143 76.0158 23.9736 76.8748 25.0344 76.8748H36.5544C37.6146 76.8743 38.474 76.0154 38.474 74.9542ZM34.6343 73.0345H26.9539V71.1144C26.9539 68.9975 28.6762 67.2742 30.7941 67.2742C32.9121 67.2742 34.6344 68.9969 34.6344 71.1144L34.6343 73.0345Z" fill="#39934E"/>
<path d="M61.5141 23.1143H38.4741C37.4138 23.1143 36.554 23.9732 36.554 25.0344V44.2344C36.554 45.2955 37.4133 46.1545 38.4741 46.1545H61.5141C62.5743 46.1545 63.4342 45.2956 63.4342 44.2344V25.0344C63.4342 23.9732 62.5744 23.1143 61.5141 23.1143ZM48.0741 26.954H51.9143V31.5277L50.8531 30.9974C50.313 30.7273 49.6754 30.7273 49.1353 30.9974L48.0741 31.5277L48.0741 26.954ZM59.5941 42.314H40.3941V26.954H44.2343V34.6339C44.2343 35.2995 44.5794 35.9165 45.1446 36.2674C45.7115 36.6201 46.4195 36.6482 47.0129 36.3518L49.9942 34.8607L52.9754 36.3513C53.5705 36.6478 54.2777 36.6174 54.8438 36.2669C55.4094 35.9169 55.754 35.3 55.754 34.6344V26.954H59.5943L59.5941 42.314Z" fill="#39934E"/>
<path d="M34.6339 32.7142C34.6339 33.7744 33.7746 34.6343 32.7138 34.6343C31.6536 34.6343 30.7937 33.7749 30.7937 32.7142C30.7937 31.6539 31.6531 30.7941 32.7138 30.7941C33.7741 30.7941 34.6339 31.6534 34.6339 32.7142Z" fill="#39934E"/>
<path d="M28.8739 32.7142C28.8739 33.7744 28.0145 34.6343 26.9538 34.6343C25.8935 34.6343 25.0337 33.7749 25.0337 32.7142C25.0337 31.6539 25.8931 30.7941 26.9538 30.7941C28.0145 30.7941 28.8739 31.6534 28.8739 32.7142Z" fill="#39934E"/>
<path d="M28.8739 38.4742C28.8739 39.5345 28.0145 40.3943 26.9538 40.3943C25.8935 40.3943 25.0337 39.5349 25.0337 38.4742C25.0337 37.4139 25.8931 36.5541 26.9538 36.5541C28.0145 36.5541 28.8739 37.4139 28.8739 38.4742Z" fill="#39934E"/>
<path d="M28.8739 44.2342C28.8739 45.2945 28.0145 46.1543 26.9538 46.1543C25.8935 46.1543 25.0337 45.2949 25.0337 44.2342C25.0337 43.1739 25.8931 42.3141 26.9538 42.3141C28.0145 42.3141 28.8739 43.1735 28.8739 44.2342Z" fill="#39934E"/>
<path d="M67.2741 30.7942C68.3344 30.7942 69.1942 31.6536 69.1942 32.7143C69.1942 33.7746 68.3349 34.6344 67.2741 34.6344C66.2139 34.6344 65.354 33.775 65.354 32.7143C65.354 31.6536 66.2138 30.7942 67.2741 30.7942Z" fill="#39934E"/>
<path d="M73.0341 30.7942C74.0944 30.7942 74.9542 31.6536 74.9542 32.7143C74.9542 33.7746 74.0949 34.6344 73.0341 34.6344C71.9739 34.6344 71.114 33.775 71.114 32.7143C71.114 31.6536 71.9734 30.7942 73.0341 30.7942Z" fill="#39934E"/>
<path d="M73.0341 36.5542C74.0944 36.5542 74.9542 37.4136 74.9542 38.4743C74.9542 39.5346 74.0949 40.3944 73.0341 40.3944C71.9739 40.3944 71.114 39.5351 71.114 38.4743C71.114 37.4141 71.9734 36.5542 73.0341 36.5542Z" fill="#39934E"/>
<path d="M73.0341 42.3141C74.0944 42.3141 74.9542 43.1735 74.9542 44.2342C74.9542 45.2945 74.0949 46.1543 73.0341 46.1543C71.9739 46.1543 71.114 45.2949 71.114 44.2342C71.114 43.1735 71.9734 42.3141 73.0341 42.3141Z" fill="#39934E"/>
</svg>
