<svg width="100" height="100" viewBox="0 0 100 100" fill="none" xmlns="http://www.w3.org/2000/svg">
<rect width="100" height="100" rx="50" fill="#4CB966"/>
<rect width="100" height="100" rx="50" fill="white" fill-opacity="0.6"/>
<path d="M42.5246 54.8767C43.4447 59.5017 50.2545 57.7017 53.4995 58.0315C59.1094 57.6913 58.7593 50.3315 53.4544 49.5016C56.2746 46.7016 54.0495 41.3913 49.9996 41.5315C45.9495 41.3913 43.7197 46.7016 46.5647 49.5016C44.0746 50.0766 41.7746 52.1114 42.5245 54.8766L42.5246 54.8767ZM49.9995 43.5315C53.5647 43.5315 53.5647 48.9718 49.9995 48.9864C46.4344 49.0016 46.4344 43.5315 49.9995 43.5315ZM45.4995 52.0767C47.9995 50.5169 55.9246 50.2115 55.4995 54.4017C55.3991 54.8593 55.1469 55.2691 54.7835 55.5651C54.4205 55.8611 53.9678 56.0254 53.4996 56.0316H46.4996C45.8648 56.0428 45.2594 55.7656 44.8532 55.2776C44.4469 54.7901 44.284 54.1446 44.4094 53.5223C44.5349 52.9004 44.9362 52.3687 45.4996 52.0768L45.4995 52.0767Z" fill="#39934E"/>
<path d="M66.8947 30.0973C66.3246 34.1321 70.8947 33.4071 73.4295 33.4223C76.5698 33.4924 77.1496 28.7874 74.1197 28.0321C76.7349 21.9071 66.2649 21.912 68.8795 28.0321C68.3951 28.1687 67.9554 28.4321 67.6067 28.7951C67.2576 29.158 67.0116 29.6076 66.8946 30.0973L66.8947 30.0973ZM71.4996 25.3669C72.8898 25.3669 72.8898 27.5266 71.4996 27.5071C70.1094 27.487 70.1094 25.3473 71.4996 25.3669ZM68.8495 30.532C69.5044 29.1669 74.1544 29.0819 74.1397 30.8722C74.0736 31.2097 73.7736 31.4508 73.4294 31.4418H69.5697C69.3442 31.44 69.1317 31.336 68.992 31.1592C68.8518 30.9824 68.7996 30.7516 68.8496 30.532H68.8495Z" fill="#39934E"/>
<path d="M23.8947 73.0972C23.3246 77.1321 27.8947 76.407 30.4295 76.4222C33.5698 76.4923 34.1496 71.7874 31.1197 71.0321C31.4974 70.4093 31.6416 69.6726 31.5255 68.9534C31.4094 68.2347 31.0416 67.5802 30.4871 67.108C29.9327 66.6361 29.2277 66.3767 28.4996 66.3767C27.7715 66.3767 27.0666 66.6361 26.512 67.108C25.9576 67.5803 25.5897 68.2347 25.4737 68.9534C25.3576 69.6726 25.5018 70.4092 25.8795 71.0321C25.3955 71.17 24.9571 71.4339 24.608 71.7964C24.2594 72.1593 24.0134 72.608 23.8946 73.0973L23.8947 73.0972ZM28.4996 68.3668C29.8746 68.3668 29.8647 70.5266 28.4996 70.507C27.1344 70.487 27.1094 68.3473 28.4996 68.3668ZM25.8495 73.532C26.5044 72.1668 31.1544 72.0819 31.1397 73.877C31.0696 74.2119 30.7714 74.4494 30.4294 74.4418H26.5697C26.3442 74.44 26.1317 74.336 25.992 74.1592C25.8518 73.9824 25.7996 73.7516 25.8496 73.5319L25.8495 73.532Z" fill="#39934E"/>
<path d="M28.5004 37.0321C30.4088 37.0366 32.2624 36.391 33.7552 35.2022L39.0704 40.5321C36.9976 42.9044 35.758 45.8897 35.5405 49.0321H30.8704C29.7754 44.582 22.9655 45.3972 23.0004 50.0321C23.0352 54.667 29.7754 55.4822 30.8704 51.0321H36.5004C36.7656 51.0321 37.02 50.9267 37.2075 50.7392C37.395 50.5517 37.5004 50.2973 37.5004 50.0321C37.1754 39.182 51.425 33.3167 58.841 41.1972C59.2307 41.5847 59.8606 41.5847 60.2508 41.1972L66.9056 34.5321C67.0307 34.4107 67.119 34.2562 67.1606 34.087C67.2556 33.7415 67.1583 33.3714 66.9056 33.1169C62.8056 29.2771 65.8659 21.8571 71.5007 22.0321C80.041 22.187 80.0459 34.8767 71.5007 35.0321C68.5007 34.3821 68.6208 37.3773 71.5007 37.0321C82.6659 36.837 82.6708 20.2275 71.5007 20.0321C64.5855 19.8272 60.4007 28.5321 64.8307 33.7875L59.5007 39.0978C57.1311 37.0215 54.144 35.7826 51.0007 35.5728V30.5326C50.8605 28.7874 48.0909 30.2277 48.0007 27.5326C47.9659 24.9375 52.0356 24.9375 52.0007 27.5326C51.2159 30.2277 54.2258 30.1075 54.0007 27.5326C54.0007 26.4719 53.5793 25.4544 52.8293 24.704C52.0789 23.954 51.0614 23.5326 50.0007 23.5326C45.3659 23.4978 44.5507 30.3075 49.0007 31.4026V35.5727C45.8583 35.7901 42.8731 37.0298 40.5007 39.1026L34.5007 33.1277C34.1105 32.7397 33.4806 32.7397 33.0909 33.1277C29.2757 37.2424 21.8007 34.1375 22.0007 28.5326C22.0806 20.5326 33.8053 19.7576 34.9459 27.6728C35.091 28.9629 37.1208 28.6728 36.9459 27.4076C35.441 17.0576 20.1059 18.0576 20.0007 28.5326C20.0137 30.783 20.9137 32.937 22.5047 34.5286C24.0963 36.1197 26.2502 37.0197 28.5007 37.0326L28.5004 37.0321ZM27.0004 52.0321C24.4053 52.0669 24.4053 47.9972 27.0004 48.0321C29.5955 48.067 29.5955 52.067 27.0004 52.0321Z" fill="#39934E"/>
<path d="M23.8947 30.0973C23.3246 34.1321 27.8947 33.4071 30.4295 33.4223C33.5698 33.4924 34.1496 28.7874 31.1197 28.0321C33.7345 21.9071 23.2649 21.912 25.8795 28.0321C25.3951 28.1687 24.9554 28.4321 24.6067 28.7951C24.2576 29.158 24.0116 29.6076 23.8946 30.0973L23.8947 30.0973ZM28.4996 25.3669C29.8898 25.3669 29.8898 27.5266 28.4996 27.5071C27.1094 27.487 27.1094 25.3473 28.4996 25.3669ZM25.8495 30.532C26.5044 29.1669 31.1544 29.0819 31.1397 30.8722C31.0736 31.2097 30.7736 31.4508 30.4294 31.4418H26.5697C26.3442 31.44 26.1317 31.336 25.992 31.1592C25.8518 30.9824 25.7996 30.7516 25.8496 30.532H25.8495Z" fill="#39934E"/>
<path d="M71.4993 63.0321C69.5891 63.0276 67.7342 63.6732 66.2396 64.862L60.9293 59.5321C63.0021 57.1597 64.2417 54.1745 64.4592 51.0321H69.4995C71.2446 50.8919 69.8044 48.1223 72.4995 48.0321C75.0945 47.9973 75.0945 52.0669 72.4995 52.0321C69.7646 51.2223 69.8945 54.2571 72.4995 54.0321C73.5602 54.0321 74.5776 53.6107 75.328 52.8607C76.078 52.1102 76.4995 51.0928 76.4995 50.0321C76.5343 45.3972 69.7245 44.582 68.6294 49.0321H64.4593C64.2192 47.6321 63.9893 43.0669 61.9245 43.6169C61.4227 43.8441 61.199 44.4343 61.4245 44.937C62.1379 46.5405 62.5044 48.2768 62.4995 50.0321C62.4995 64.1669 42.3098 67.2367 38.0789 53.8071C37.9115 53.2812 37.3499 52.9905 36.824 53.1571C34.7838 54.1919 38.2191 58.4271 39.0589 59.562L33.7589 64.862C28.4991 60.4369 19.7943 64.612 19.9989 71.532C19.9993 73.862 20.9565 76.0901 22.6458 77.6945C24.3355 79.299 26.6101 80.1392 28.9368 80.0191C31.264 79.899 33.4395 78.8289 34.9551 77.0593C36.4708 75.2893 37.1935 72.975 36.9538 70.6571C36.4538 68.8973 34.5086 69.9521 34.9989 71.5321C35.1739 77.1669 27.7538 80.2271 23.9038 76.1222C17.9989 69.082 26.9141 61.2125 33.7989 67.2321C34.2739 67.612 40.094 61.1772 40.469 60.9772C42.8556 63.0406 45.8507 64.2697 48.9989 64.4772V68.6473C44.5488 69.7423 45.364 76.5522 49.9989 76.5173C54.6338 76.4825 55.449 69.7423 50.9989 68.6473V64.4919C54.1413 64.2745 57.1266 63.0348 59.4989 60.962C59.894 61.1821 65.6989 67.6071 66.1837 67.2321C66.4587 67.2312 66.7208 67.1173 66.9087 66.9169C68.1297 65.6995 69.7846 65.0169 71.5092 65.0195C73.2333 65.0222 74.886 65.7097 76.1029 66.9312C77.3203 68.1527 78.0024 69.8075 77.9989 71.5321C78.169 77.1723 70.7537 80.2272 66.9038 76.1223C65.4547 74.6829 64.7708 72.6441 65.0587 70.6223C65.1122 70.0883 64.735 69.6071 64.2037 69.5321C61.3239 69.9022 63.9189 76.4522 65.4885 77.5321C70.5234 82.8972 80.2234 78.9021 79.9891 71.5321H79.9896C79.9896 69.2794 79.0954 67.1192 77.5034 65.5253C75.9114 63.9316 73.7521 63.0347 71.4994 63.0321L71.4993 63.0321ZM51.9999 72.5321C52.0347 75.1272 47.9651 75.1272 47.9999 72.5321C48.0348 69.937 52.0348 69.937 51.9999 72.5321Z" fill="#39934E"/>
<path d="M66.8947 73.0972C66.3246 77.1321 70.8947 76.407 73.4295 76.4222C76.5698 76.4923 77.1496 71.7874 74.1197 71.0321C74.4974 70.4093 74.6416 69.6726 74.5255 68.9534C74.4095 68.2347 74.0416 67.5802 73.4871 67.108C72.9327 66.6361 72.2277 66.3767 71.4996 66.3767C70.7715 66.3767 70.0666 66.6361 69.512 67.108C68.9576 67.5803 68.5897 68.2347 68.4737 68.9534C68.3576 69.6726 68.5018 70.4092 68.8795 71.0321C68.3955 71.17 67.9571 71.4339 67.608 71.7964C67.2594 72.1593 67.0134 72.608 66.8946 73.0973L66.8947 73.0972ZM71.4996 68.3673C72.8898 68.3673 72.8898 70.527 71.4996 70.5075C70.1094 70.487 70.1094 68.3473 71.4996 68.3669V68.3673ZM68.8495 73.532C69.5044 72.1668 74.1544 72.0819 74.1397 73.877C74.0696 74.2119 73.7714 74.4494 73.4294 74.4418H69.5697C69.3442 74.44 69.1317 74.336 68.992 74.1592C68.8518 73.9824 68.7996 73.7516 68.8496 73.5319L68.8495 73.532Z" fill="#39934E"/>
</svg>
