<svg width="100" height="100" viewBox="0 0 100 100" fill="none" xmlns="http://www.w3.org/2000/svg">
<rect width="100" height="100" rx="50" fill="#4CB966"/>
<rect width="100" height="100" rx="50" fill="white" fill-opacity="0.7"/>
<path d="M67.0665 30.7715C67.3495 30.7715 67.621 30.659 67.821 30.459C68.021 30.259 68.1335 29.9875 68.1335 29.7049C68.1308 27.7255 67.3433 25.8277 65.9438 24.4277C64.5438 23.0281 62.646 22.2406 60.6665 22.238H56.4V21.1715C56.4 20.3228 56.0629 19.5089 55.4629 18.9085C54.8625 18.3085 54.0487 17.9714 53.2 17.9714H46.8C45.9513 17.9714 45.1375 18.3085 44.537 18.9085C43.937 19.5089 43.5999 20.3228 43.5999 21.1715V22.238H39.3334C37.354 22.2407 35.4562 23.0282 34.0562 24.4277C32.6566 25.8277 31.8691 27.7254 31.8665 29.7049C31.8665 29.9875 31.979 30.259 32.179 30.459C32.379 30.659 32.6504 30.7715 32.9334 30.7715H35.1915L37.9254 52.6378C38.0567 53.6681 38.5585 54.6155 39.3374 55.3029C40.1164 55.99 41.1191 56.3699 42.158 56.3712H57.838C58.8768 56.3699 59.879 55.99 60.6581 55.3029C61.4371 54.6154 61.9394 53.668 62.0706 52.6378L64.8085 30.7715H67.0665ZM45.7339 21.1715C45.7339 20.5822 46.2112 20.105 46.8004 20.105H53.2004C53.4835 20.105 53.7545 20.217 53.9549 20.417C54.1549 20.6175 54.267 20.8884 54.267 21.1715V22.238H45.7339L45.7339 21.1715ZM39.3339 24.3715H60.6665C61.8955 24.3728 63.0866 24.7978 64.0388 25.575C64.9911 26.3522 65.6459 27.4344 65.8934 28.638H34.1071C34.3544 27.4344 35.0093 26.3523 35.9616 25.575C36.9138 24.7978 38.1049 24.3727 39.3339 24.3715ZM59.9591 52.3692C59.8943 52.8853 59.6439 53.3598 59.2542 53.704C58.8644 54.0478 58.3626 54.238 57.8425 54.238H42.1625C41.6429 54.238 41.1406 54.0478 40.7508 53.704C40.3616 53.3599 40.1107 52.8853 40.0464 52.3692L37.3424 30.7715H62.6589L59.9591 52.3692Z" fill="#39934E"/>
<path d="M50.0001 51.0377C50.2831 51.0377 50.5541 50.9256 50.7546 50.7256C50.9546 50.5252 51.0666 50.2542 51.0666 49.9712V35.0375C51.0666 34.4486 50.5894 33.9709 50.0001 33.9709C49.4108 33.9709 48.9336 34.4486 48.9336 35.0375V49.9712C48.9336 50.2542 49.0456 50.5252 49.2457 50.7256C49.4461 50.9256 49.7171 51.0377 50.0001 51.0377H50.0001Z" fill="#39934E"/>
<path d="M44.6664 51.0378C44.9763 51.0382 45.2705 50.9043 45.4736 50.6704C45.6763 50.4364 45.7678 50.1262 45.7236 49.8199L43.5901 34.8862C43.5066 34.3032 42.966 33.8983 42.383 33.9817C41.7995 34.0652 41.3946 34.6058 41.4785 35.1893L43.612 50.123L43.6116 50.1225C43.687 50.6475 44.1366 51.0373 44.6665 51.0377L44.6664 51.0378Z" fill="#39934E"/>
<path d="M55.1818 51.0275C55.4622 51.0681 55.7466 50.9953 55.9729 50.8257C56.1997 50.6561 56.3493 50.4034 56.3894 50.123L58.5229 35.1893V35.1898C58.6064 34.6063 58.2015 34.0657 57.6184 33.9822C57.035 33.8987 56.4943 34.3036 56.4109 34.8867L54.2774 49.8204C54.2372 50.1003 54.31 50.3851 54.4796 50.6115C54.6493 50.8378 54.902 50.9878 55.1819 51.0275L55.1818 51.0275Z" fill="#39934E"/>
<path d="M52.4458 76.9509L51.0664 78.3303V68.1053C51.0664 67.516 50.5892 67.0383 49.9999 67.0383C49.4106 67.0383 48.9334 67.516 48.9334 68.1053V78.3303L47.554 76.9509C47.1357 76.5469 46.47 76.5527 46.0589 76.9643C45.6473 77.3754 45.6415 78.0406 46.0459 78.4594L49.2459 81.6594C49.6624 82.0759 50.3375 82.0759 50.7539 81.6594L53.9539 78.4594C54.3584 78.0406 54.3526 77.3754 53.941 76.9643C53.5298 76.5527 52.8642 76.5469 52.4459 76.9509H52.4458Z" fill="#39934E"/>
<path d="M50.0001 64.9051C50.2831 64.9051 50.5541 64.7926 50.7546 64.5926C50.9546 64.3926 51.0666 64.1212 51.0666 63.8382V59.5716C51.0666 58.9824 50.5894 58.5051 50.0001 58.5051C49.4108 58.5051 48.9336 58.9824 48.9336 59.5716V63.8382C48.9336 64.1212 49.0456 64.3926 49.2457 64.5926C49.4461 64.7926 49.7171 64.9051 50.0001 64.9051H50.0001Z" fill="#39934E"/>
<path d="M35.3795 73.7509L34.0005 75.1304V53.1715C34.0005 52.5822 33.5229 52.105 32.934 52.105C32.3448 52.105 31.8671 52.5822 31.8671 53.1715V75.1304L30.4881 73.7514V73.7509C30.0693 73.3469 29.4042 73.3527 28.993 73.7643C28.5814 74.1755 28.5756 74.8407 28.9796 75.2594L32.1796 78.4594C32.5961 78.8759 33.2716 78.8759 33.6881 78.4594L36.8881 75.2594C37.2921 74.8407 37.2863 74.1755 36.8751 73.7643C36.4635 73.3527 35.7983 73.3469 35.3796 73.7509L35.3795 73.7509Z" fill="#39934E"/>
<path d="M32.9339 49.9714C33.2165 49.9714 33.4879 49.8589 33.6879 49.6589C33.8879 49.4589 34.0004 49.1875 34.0004 48.9049V44.6379C34.0004 44.0491 33.5227 43.5714 32.9339 43.5714C32.3446 43.5714 31.8669 44.0491 31.8669 44.6379V48.9049C31.8669 49.1875 31.9794 49.4589 32.1794 49.6589C32.3794 49.8589 32.6509 49.9714 32.9339 49.9714H32.9339Z" fill="#39934E"/>
<path d="M69.5122 73.7509L68.1332 75.1304V53.1715C68.1332 52.5822 67.6555 52.105 67.0662 52.105C66.4774 52.105 65.9997 52.5822 65.9997 53.1715V75.1304L64.6207 73.7514V73.7509C64.202 73.3469 63.5368 73.3527 63.1252 73.7643C62.714 74.1755 62.7082 74.8407 63.1122 75.2594L66.3122 78.4594C66.7288 78.8759 67.4042 78.8759 67.8207 78.4594L71.0207 75.2594C71.4247 74.8407 71.4189 74.1755 71.0073 73.7643C70.5961 73.3527 69.931 73.3469 69.5122 73.7509L69.5122 73.7509Z" fill="#39934E"/>
<path d="M67.0663 43.5714C66.4774 43.5714 65.9998 44.0491 65.9998 44.6379V48.9049C65.9998 49.4937 66.4774 49.9714 67.0663 49.9714C67.6556 49.9714 68.1332 49.4937 68.1332 48.9049V44.6379C68.1332 44.3553 68.0207 44.0839 67.8207 43.8839C67.6207 43.6839 67.3493 43.5714 67.0663 43.5714L67.0663 43.5714Z" fill="#39934E"/>
</svg>
