<svg width="100" height="100" viewBox="0 0 100 100" fill="none" xmlns="http://www.w3.org/2000/svg">
<rect width="100" height="100" rx="50" fill="#4CB966"/>
<rect width="100" height="100" rx="50" fill="white" fill-opacity="0.8"/>
<path d="M76.6662 64.2384H71.3332V48.2384C71.3274 43.0536 69.2648 38.0831 65.5988 34.4167C61.9327 30.7506 56.9622 28.6881 51.777 28.6823V23.3492C51.777 22.714 51.4382 22.127 50.8882 21.8095C50.3382 21.4921 49.6605 21.4921 49.1105 21.8095C48.5605 22.1269 48.2217 22.7139 48.2217 23.3492V28.6823C43.0369 28.6881 38.0663 30.7506 34.3999 34.4167C30.7339 38.0827 28.6714 43.0532 28.6655 48.2384V64.2384H23.3325C22.6972 64.2384 22.1102 64.5772 21.7927 65.1272C21.4753 65.6772 21.4753 66.3549 21.7927 66.9049C22.1101 67.4549 22.6972 67.7938 23.3325 67.7938H28.6655V69.5715C28.6687 71.9282 29.6057 74.1876 31.2723 75.8541C32.9388 77.5206 35.1982 78.4577 37.5545 78.4609H62.4436C64.7998 78.4577 67.0593 77.5207 68.7258 75.8541C70.3923 74.1876 71.3293 71.9282 71.3325 69.5715V67.7938H76.666H76.6656C77.3008 67.7938 77.8878 67.4549 78.2053 66.9049C78.5227 66.3549 78.5227 65.6773 78.2053 65.1272C77.8879 64.5772 77.3008 64.2384 76.6656 64.2384H76.6662ZM32.2216 48.2384C32.2265 43.9964 33.9136 39.9295 36.9132 36.9299C39.9127 33.9304 43.9797 32.2433 48.2216 32.2384H51.7769C56.0189 32.2433 60.0858 33.9304 63.0854 36.9299C66.0849 39.9295 67.772 43.9964 67.7769 48.2384V64.2384H32.2215L32.2216 48.2384ZM67.777 69.571C67.7757 70.9852 67.2132 72.341 66.2132 73.3406C65.2136 74.3406 63.8578 74.9031 62.444 74.9044H37.5549C36.141 74.9031 34.7853 74.3406 33.7857 73.3406C32.7857 72.341 32.2232 70.9852 32.2218 69.571V67.7932H67.7773L67.777 69.571Z" fill="#39934E"/>
<path d="M54.4445 39.3492C52.7708 39.3479 51.1681 40.0229 49.9998 41.2207C48.5396 39.7176 46.4199 39.0519 44.3628 39.4506C42.3056 39.8493 40.5878 41.2581 39.7949 43.1979C39.002 45.1377 39.2404 47.3466 40.4297 49.072C41.3717 50.8612 46.6712 55.038 48.9185 56.7603H48.9181C49.2288 56.9983 49.6087 57.1268 49.9998 57.1268C50.3908 57.1268 50.7707 56.9983 51.0814 56.7603C53.3288 55.038 58.6283 50.8612 59.5702 49.072H59.5698C60.2832 48.0438 60.6658 46.8224 60.6662 45.5711C60.6644 43.9215 60.0082 42.3402 58.8417 41.1737C57.6751 40.0072 56.0939 39.3509 54.4443 39.3491L54.4445 39.3492ZM56.5641 47.1635C56.482 47.2729 56.4128 47.3916 56.3583 47.5175C54.3918 49.5452 52.2655 51.4113 49.9998 53.0983C47.7396 51.4145 45.6159 49.5537 43.6499 47.534C43.5941 47.4023 43.5218 47.2777 43.4356 47.1635C42.9213 46.4791 42.7677 45.5894 43.0226 44.7724C43.2776 43.955 43.9101 43.3108 44.7222 43.0407C45.5347 42.7706 46.4271 42.9077 47.1208 43.409C47.8141 43.9108 48.2239 44.7153 48.2222 45.5711C48.2222 46.2063 48.561 46.7934 49.111 47.1109C49.661 47.4287 50.3386 47.4287 50.8887 47.1109C51.4387 46.7934 51.7775 46.2064 51.7775 45.5711C51.7691 44.7099 52.1775 43.8974 52.8735 43.3898C53.5699 42.8827 54.4686 42.7429 55.286 43.0148C56.1034 43.2867 56.7391 43.9367 56.9927 44.76C57.2467 45.5832 57.0869 46.4787 56.5641 47.1635Z" fill="#39934E"/>
</svg>
