<svg width="100" height="100" viewBox="0 0 100 100" fill="none" xmlns="http://www.w3.org/2000/svg">
<rect width="100" height="100" rx="50" fill="#4CB966"/>
<rect width="100" height="100" rx="50" fill="white" fill-opacity="0.5"/>
<path d="M53.0286 78.0285H25.0286C24.2331 78.0285 23.4697 77.7124 22.9073 77.1499C22.3449 76.5874 22.0287 75.824 22.0287 75.0286V25.0286C22.0287 24.233 22.3447 23.4696 22.9073 22.9072C23.4698 22.3448 24.2332 22.0286 25.0286 22.0286H30.0286V24.0286C30.0286 24.559 30.2393 25.0679 30.6143 25.4429C30.9893 25.8179 31.4983 26.0286 32.0286 26.0286H46.0286C46.559 26.0286 47.0679 25.8179 47.4429 25.4429C47.8179 25.0679 48.0286 24.559 48.0286 24.0286V22.0286H53.0286C53.8242 22.0286 54.5876 22.3447 55.15 22.9072C55.7124 23.4697 56.0286 24.2331 56.0286 25.0286V46.0286H58.0286V25.0286C58.0268 23.7031 57.4995 22.4321 56.5625 21.4946C55.625 20.5576 54.354 20.0304 53.0286 20.0286H25.0286C23.7031 20.0304 22.4321 20.5576 21.4946 21.4946C20.5576 22.4321 20.0304 23.7031 20.0286 25.0286V75.0286C20.0304 76.354 20.5576 77.625 21.4946 78.5625C22.4321 79.4996 23.7031 80.0267 25.0286 80.0286H53.0286C54.354 80.0268 55.625 79.4995 56.5625 78.5625C57.4996 77.625 58.0267 76.354 58.0286 75.0286H56.0286C56.0286 75.8241 55.7125 76.5875 55.15 77.1499C54.5875 77.7123 53.8241 78.0285 53.0286 78.0285ZM46.0286 24.0285H32.0286V22.0285H46.0286V24.0285Z" fill="#39934E"/>
<path d="M70.0242 68.0342H72.0242V70.0342H70.0242V68.0342Z" fill="#39934E"/>
<path d="M56.0242 68.0228H58.0242V70.0228H56.0242V68.0228Z" fill="#39934E"/>
<path d="M79.6938 60.2913L70.7027 52.2913C70.5196 52.1284 70.2835 52.0386 70.0384 52.0382H66.2384C65.9442 51.9837 65.6411 52.061 65.4085 52.2489C65.1759 52.4369 65.037 52.7172 65.0286 53.0163V60.0283H64.0286V49.0283C64.0286 48.7631 63.9232 48.5087 63.7357 48.3212C63.5482 48.1337 63.2937 48.0283 63.0286 48.0283H49.0286C48.4763 48.0283 48.0286 48.4761 48.0286 49.0283V67.018C48.0286 67.8118 48.3433 68.5734 48.9036 69.1354C49.4643 69.6979 50.2246 70.0153 51.0188 70.018H52.1188C52.3491 71.147 52.963 72.1622 53.8558 72.8913C54.7486 73.6203 55.8661 74.0181 57.0188 74.0181C58.171 74.0163 59.2871 73.6176 60.1799 72.889C61.0723 72.1605 61.6866 71.1466 61.9188 70.0181H66.1188C66.3505 71.1466 66.9647 72.1609 67.8572 72.8895C68.7496 73.6181 69.8665 74.0167 71.0188 74.0181C72.171 74.0167 73.2876 73.6181 74.1799 72.8895C75.0728 72.1609 75.6866 71.1466 75.9188 70.0181H77.0188C77.8152 70.0185 78.5799 69.7029 79.1442 69.1404C79.7086 68.5779 80.0264 67.8144 80.0286 67.0181V61.0181C80.0233 60.7395 79.9018 60.4761 79.6938 60.2909L79.6938 60.2913ZM71.0357 57.0382H73.0286L76.3996 60.0382H71.0286L71.0357 57.0382ZM50.0288 54.0283H53.0288V55.0283C53.0288 55.4328 53.2726 55.7971 53.6462 55.952C54.0199 56.1069 54.4498 56.0212 54.736 55.7355L56.0288 54.4422L57.3216 55.735V55.7355C57.6077 56.0212 58.0377 56.1069 58.4113 55.952C58.785 55.7971 59.0287 55.4328 59.0287 55.0283V54.0283H62.0287V60.0283H50.0287L50.0288 54.0283ZM55.0288 50.0283H57.0288V52.6145L56.736 52.3217V52.3212C56.3454 51.931 55.7123 51.931 55.3217 52.3212L55.0288 52.6145V50.0283ZM62.0288 52.0283H59.0288V50.0283H62.0288V52.0283ZM53.0288 50.0283V52.0283H50.0288V50.0283H53.0288ZM59.1427 71.1449C58.582 71.7083 57.819 72.0244 57.0239 72.0222C55.9521 72.0222 54.9619 71.4503 54.4258 70.5222C53.89 69.5936 53.89 68.4503 54.4258 67.5222C54.9619 66.5936 55.952 66.0222 57.0239 66.0222C57.8195 66.0226 58.5824 66.3396 59.1445 66.9025C59.7066 67.4655 60.0217 68.2288 60.0213 69.0243C60.0204 69.8199 59.7039 70.5828 59.1409 71.1449L59.1427 71.1449ZM73.1427 71.157C72.5828 71.719 71.8221 72.0347 71.0288 72.0338C69.957 72.0338 68.9668 71.4623 68.4307 70.5338C67.895 69.6056 67.895 68.4623 68.4307 67.5338C68.9668 66.6056 69.957 66.0338 71.0288 66.0338C71.8244 66.0347 72.5874 66.3512 73.1494 66.9146C73.7115 67.4775 74.0271 68.2408 74.0262 69.0364C74.0258 69.8319 73.7088 70.5949 73.1458 71.157L73.1427 71.157ZM77.019 68.0378H75.919C75.6887 66.9096 75.0757 65.8949 74.1837 65.1663C73.2917 64.4373 72.1757 64.0387 71.0239 64.0378C69.8717 64.0391 68.7548 64.4373 67.8623 65.1663C66.9695 65.8949 66.3556 66.9092 66.1239 68.0378H61.9239C61.6922 66.9101 61.0788 65.8963 60.1874 65.1677C59.2959 64.4391 58.1803 64.04 57.0288 64.0378C55.8766 64.0396 54.76 64.4382 53.8677 65.1668C52.9748 65.8954 52.361 66.9092 52.1288 68.0378H51.019C50.4704 68.0324 50.0288 67.5865 50.0288 67.0378V62.028H66.0288C66.294 62.028 66.5485 61.9226 66.736 61.7351C66.9235 61.5476 67.0288 61.2931 67.0288 61.028V54.0378H69.6579L70.8078 55.061C70.3225 55.1168 69.8743 55.3481 69.548 55.711C69.2217 56.0744 69.0396 56.5445 69.036 57.0328L69.0288 60.0328C69.0288 60.5632 69.2396 61.0721 69.6146 61.4471C69.9895 61.8221 70.4985 62.0328 71.0288 62.0328H78.0288V67.0328C78.0217 67.5869 77.573 68.0337 77.019 68.0377L77.019 68.0378Z" fill="#39934E"/>
<path d="M38.0286 68.0286H46.0286V70.0286H38.0286V68.0286Z" fill="#39934E"/>
<path d="M34.0286 68.0286H36.0286V70.0286H34.0286V68.0286Z" fill="#39934E"/>
<path d="M40.0286 64.0286H46.0286V66.0286H40.0286V64.0286Z" fill="#39934E"/>
<path d="M42.0286 60.0286H46.0286V62.0286H42.0286V60.0286Z" fill="#39934E"/>
<path d="M36.0286 64.0286H38.0286V66.0286H36.0286V64.0286Z" fill="#39934E"/>
<path d="M42.0286 40.0286C42.0286 37.6415 41.0803 35.3522 39.3924 33.6647C37.7049 31.9767 35.4157 31.0286 33.0286 31.0286C30.6415 31.0286 28.3522 31.9768 26.6647 33.6647C24.9767 35.3522 24.0286 37.6415 24.0286 40.0286C24.0286 42.4157 24.9768 44.7049 26.6647 46.3925C28.3522 48.0805 30.6415 49.0286 33.0286 49.0286C35.4147 49.0254 37.7023 48.0763 39.3893 46.3893C41.0762 44.7022 42.0254 42.4147 42.0286 40.0286ZM33.0286 47.0286C31.1719 47.0286 29.3915 46.2911 28.079 44.9782C26.766 43.6657 26.0286 41.8854 26.0286 40.0286C26.0286 38.1718 26.7661 36.3915 28.079 35.079C29.3914 33.766 31.1718 33.0286 33.0286 33.0286C34.8854 33.0286 36.6656 33.7661 37.9782 35.079C39.2911 36.3914 40.0286 38.1718 40.0286 40.0286C40.0263 41.8843 39.2884 43.6639 37.9759 44.9759C36.6639 46.2883 34.8843 47.0263 33.0286 47.0286Z" fill="#39934E"/>
<path d="M32.0286 40.6148L29.7359 38.322L28.322 39.7359L31.322 42.7359H31.3216C31.7122 43.126 32.3452 43.126 32.7359 42.7359L37.7359 37.7359L36.322 36.322L32.0286 40.6148Z" fill="#39934E"/>
<path d="M44.0286 35.0286H46.0286V37.0286H44.0286V35.0286Z" fill="#39934E"/>
<path d="M48.0286 35.0286H52.0286V37.0286H48.0286V35.0286Z" fill="#39934E"/>
<path d="M44.0286 39.0286H52.0286V41.0286H44.0286V39.0286Z" fill="#39934E"/>
<path d="M44.0286 43.0286H52.0286V45.0286H44.0286V43.0286Z" fill="#39934E"/>
</svg>
