<svg width="100" height="100" viewBox="0 0 100 100" fill="none" xmlns="http://www.w3.org/2000/svg">
<rect width="100" height="100" rx="50" fill="#4CB966"/>
<rect width="100" height="100" rx="50" fill="white" fill-opacity="0.6"/>
<path d="M50.5955 78.9913H23.6972C22.5431 78.99 21.437 78.5311 20.6209 77.7154C19.8052 76.8994 19.3463 75.7931 19.345 74.6391V25.3237C19.3463 24.1696 19.8052 23.0634 20.6209 22.2473C21.4369 21.4317 22.5431 20.9728 23.6972 20.9714H50.5955C51.7495 20.9728 52.8557 21.4317 53.6718 22.2473C54.4879 23.0634 54.9468 24.1696 54.9482 25.3237V33.4487C54.9482 33.9956 54.5049 34.4389 53.958 34.4389C53.4116 34.4389 52.9683 33.9956 52.9683 33.4487V25.3237C52.9683 24.6938 52.7178 24.0897 52.2727 23.6442C51.8272 23.1991 51.2232 22.9487 50.5933 22.9487H23.6973C23.0674 22.9487 22.4633 23.1991 22.0179 23.6442C21.5728 24.0898 21.3223 24.6938 21.3223 25.3237V74.6391C21.3223 75.269 21.5728 75.873 22.0179 76.3185C22.4634 76.7636 23.0674 77.014 23.6973 77.014H50.5956C51.2255 77.014 51.83 76.7636 52.275 76.3185C52.7205 75.873 52.9705 75.269 52.9705 74.6391V62.6757C52.9705 62.1288 53.4138 61.6855 53.9607 61.6855C54.5076 61.6855 54.9509 62.1288 54.9509 62.6757V74.6391C54.9496 75.7936 54.4902 76.9002 53.6737 77.7164C52.8571 78.532 51.75 78.9909 50.5955 78.9913H50.5955Z" fill="#39934E"/>
<path d="M53.9577 30.7959H20.3325C19.7861 30.7959 19.3428 30.3526 19.3428 29.8057C19.3428 29.2589 19.7861 28.8156 20.3325 28.8156H53.9577C54.5045 28.8156 54.9478 29.2589 54.9478 29.8057C54.9478 30.3526 54.5045 30.7959 53.9577 30.7959Z" fill="#39934E"/>
<path d="M53.9577 68.9045H20.3325C19.7995 68.8857 19.3767 68.4478 19.3767 67.9138C19.3767 67.3804 19.7995 66.9424 20.3325 66.9232H53.9577C54.4911 66.9424 54.9139 67.3804 54.9139 67.9138C54.9139 68.4478 54.4911 68.8857 53.9577 68.9045Z" fill="#39934E"/>
<path d="M41.4502 73.9479H32.8413C32.3078 73.9292 31.885 73.4912 31.885 72.9573C31.885 72.4238 32.3078 71.9859 32.8413 71.9667H41.4502C41.9832 71.9859 42.406 72.4238 42.406 72.9573C42.406 73.4912 41.9832 73.9292 41.4502 73.9479Z" fill="#39934E"/>
<path d="M41.6296 26.9435H40.5046C39.9577 26.9435 39.5144 26.5002 39.5144 25.9534C39.5144 25.4069 39.9577 24.9636 40.5046 24.9636H41.6296C42.1765 24.9636 42.6198 25.4069 42.6198 25.9534C42.6198 26.5002 42.1765 26.9435 41.6296 26.9435Z" fill="#39934E"/>
<path d="M36.025 26.9435H32.6599C32.113 26.9435 31.6697 26.5002 31.6697 25.9534C31.6697 25.4069 32.113 24.9636 32.6599 24.9636H36.0224C36.5693 24.9636 37.0126 25.4069 37.0126 25.9534C37.0126 26.5002 36.5693 26.9435 36.0224 26.9435H36.025Z" fill="#39934E"/>
<path d="M77.7566 59.9376H46.1131C45.3256 59.9368 44.5707 59.6234 44.014 59.0667C43.4574 58.51 43.144 57.755 43.1431 56.9676V38.5116C43.144 37.7241 43.4574 36.9696 44.014 36.4125C44.5707 35.8558 45.3257 35.5428 46.1131 35.5415H77.7566C78.5436 35.5428 79.2985 35.8558 79.8552 36.4125C80.4123 36.9696 80.7253 37.7241 80.7262 38.5116V56.9676C80.7253 57.7551 80.4123 58.51 79.8552 59.0667C79.2985 59.6234 78.5435 59.9368 77.7566 59.9376ZM46.1131 37.5216C45.5663 37.5221 45.1239 37.9649 45.123 38.5114V56.9674C45.1238 57.5138 45.5663 57.9567 46.1131 57.9576H77.7566C78.303 57.9567 78.7458 57.5138 78.7463 56.9674V38.5114C78.7459 37.965 78.303 37.5221 77.7566 37.5216H46.1131Z" fill="#39934E"/>
<path d="M79.7371 43.1262H44.1326C43.5995 43.107 43.1768 42.669 43.1768 42.1355C43.1768 41.6016 43.5995 41.1637 44.1326 41.1449H79.7371C80.2706 41.1636 80.6929 41.6016 80.6929 42.1355C80.6929 42.669 80.2706 43.107 79.7371 43.1262Z" fill="#39934E"/>
<path d="M75.2537 50.9707H66.2849C65.738 50.9707 65.2947 50.5274 65.2947 49.9805C65.2947 49.4337 65.738 48.9904 66.2849 48.9904H75.2523C75.7992 48.9904 76.2425 49.4337 76.2425 49.9805C76.2425 50.5274 75.7992 50.9707 75.2523 50.9707H75.2537Z" fill="#39934E"/>
<path d="M75.2537 55.4541H66.2849C65.7702 55.4131 65.3733 54.9836 65.3733 54.4675C65.3733 53.951 65.7702 53.5215 66.2849 53.4805H75.2523C75.7992 53.4805 76.2425 53.9238 76.2425 54.4707C76.2425 55.0171 75.7992 55.4604 75.2523 55.4604L75.2537 55.4541Z" fill="#39934E"/>
<path d="M54.3509 55.4542H49.6009C49.0777 55.4524 48.5768 55.244 48.2068 54.8743C47.8371 54.5042 47.6282 54.0033 47.626 53.4806V49.1056C47.6264 48.5806 47.8353 48.0771 48.2063 47.7056C48.5773 47.3347 49.0809 47.1253 49.6059 47.1244H54.3558C54.8799 47.1262 55.3822 47.336 55.7523 47.7074C56.1224 48.0784 56.3304 48.5815 56.3308 49.1056V53.4806C56.3286 54.0042 56.1188 54.506 55.7478 54.8757C55.3768 55.2458 54.8746 55.4538 54.3509 55.4542ZM49.6009 49.1029V53.4779H54.3509V49.1055L49.6009 49.1029Z" fill="#39934E"/>
</svg>
