<svg width="100" height="100" viewBox="0 0 100 100" fill="none" xmlns="http://www.w3.org/2000/svg">
<rect width="100" height="100" rx="50" fill="#4CB966"/>
<rect width="100" height="100" rx="50" fill="white" fill-opacity="0.7"/>
<path d="M80.9714 67.9714H18.9714C18.4192 67.9714 17.9714 68.4192 17.9714 68.9714V72.9714C17.9714 73.2366 18.0768 73.4911 18.2643 73.6786C18.4518 73.8661 18.7063 73.9714 18.9714 73.9714H21.9714V80.9714C21.9714 81.2366 22.0768 81.4911 22.2643 81.6786C22.4518 81.8661 22.7063 81.9714 22.9714 81.9714H30.9714C31.2366 81.9714 31.4911 81.8661 31.6786 81.6786C31.8661 81.4911 31.9714 81.2366 31.9714 80.9714V73.9714H44.9714V80.9714C44.9714 81.2366 45.0768 81.4911 45.2643 81.6786C45.4518 81.8661 45.7063 81.9714 45.9714 81.9714H53.9714C54.2366 81.9714 54.4911 81.8661 54.6786 81.6786C54.8661 81.4911 54.9714 81.2366 54.9714 80.9714V73.9714H67.9714V80.9714C67.9714 81.2366 68.0768 81.4911 68.2643 81.6786C68.4518 81.8661 68.7063 81.9714 68.9714 81.9714H76.9714C77.2366 81.9714 77.4911 81.8661 77.6786 81.6786C77.8661 81.4911 77.9714 81.2366 77.9714 80.9714V73.9714H80.9714C81.2366 73.9714 81.4911 73.8661 81.6786 73.6786C81.8661 73.4911 81.9714 73.2366 81.9714 72.9714V68.9714C81.9714 68.7063 81.8661 68.4518 81.6786 68.2643C81.4911 68.0768 81.2366 67.9714 80.9714 67.9714ZM29.9714 79.9714H23.9714V73.9714H29.9714V79.9714ZM52.9714 79.9714H46.9714V73.9714H52.9714V79.9714ZM75.9714 79.9714H69.9714V73.9714H75.9714V79.9714ZM79.9714 71.9714H19.9714V69.9714H79.9714V71.9714Z" fill="#39934E"/>
<path d="M37.9714 39.9714H61.9714C62.2366 39.9714 62.4911 39.8661 62.6786 39.6786C62.8661 39.4911 62.9714 39.2366 62.9714 38.9714V18.9714C62.9714 18.7063 62.8661 18.4518 62.6786 18.2643C62.4911 18.0768 62.2366 17.9714 61.9714 17.9714H37.9714C37.4192 17.9714 36.9714 18.4192 36.9714 18.9714V38.9714C36.9714 39.2366 37.0768 39.4911 37.2643 39.6786C37.4518 39.8661 37.7063 39.9714 37.9714 39.9714ZM46.9714 19.9714H52.9714V23.5616L52.6813 23.2616C52.4938 23.0723 52.238 22.9656 51.9714 22.9656C51.7049 22.9656 51.4491 23.0723 51.2616 23.2616L49.9714 24.5616L48.6813 23.2714C48.2915 22.8835 47.6616 22.8835 47.2714 23.2714L46.9714 23.5813L46.9714 19.9714ZM38.9714 19.9714H44.9714V25.9714C44.9737 26.375 45.2179 26.738 45.5915 26.8915C45.9612 27.0438 46.3857 26.9612 46.6714 26.6813L47.9714 25.3813L49.2312 26.6714C49.6379 27.0473 50.2651 27.0473 50.6714 26.6714L51.9714 25.3813L53.2616 26.6813C53.45 26.8688 53.7058 26.9728 53.9714 26.9714C54.1027 26.975 54.2326 26.9473 54.3513 26.8915C54.725 26.738 54.9692 26.375 54.9714 25.9714V19.9714H60.9714V37.9714H38.9714L38.9714 19.9714Z" fill="#39934E"/>
<path d="M25.9714 64.9714H73.9714C74.2366 64.9714 74.4911 64.8661 74.6786 64.6786C74.8661 64.4911 74.9714 64.2366 74.9714 63.9714V43.9714C74.9714 43.7063 74.8661 43.4518 74.6786 43.2643C74.4911 43.0768 74.2366 42.9714 73.9714 42.9714H25.9714C25.4192 42.9714 24.9714 43.4192 24.9714 43.9714V63.9714C24.9714 64.2366 25.0768 64.4911 25.2643 64.6786C25.4518 64.8661 25.7063 64.9714 25.9714 64.9714ZM72.9714 62.9714H50.9714V44.9714H56.9714V50.9714C56.9737 51.375 57.2179 51.738 57.5915 51.8915C57.9612 52.0438 58.3857 51.9612 58.6714 51.6813L59.9714 50.3813L61.2415 51.6714C61.6477 52.0473 62.275 52.0473 62.6813 51.6714L63.9813 50.3714L65.2714 51.6714C65.4563 51.8598 65.7076 51.9679 65.9714 51.9714C66.1027 51.975 66.2326 51.9473 66.3513 51.8915C66.725 51.7379 66.9692 51.375 66.9714 50.9714V44.9714H72.9714V62.9714ZM58.9714 44.9714H64.9714V48.5616L64.6813 48.2616C64.4938 48.0723 64.238 47.9656 63.9714 47.9656C63.7049 47.9656 63.4491 48.0723 63.2616 48.2616L61.9714 49.5616L60.6813 48.2714C60.2915 47.8835 59.6616 47.8835 59.2715 48.2714L58.9415 48.5915L58.9714 44.9714ZM34.9714 44.9714H40.9714V48.5616L40.6813 48.2616C40.4938 48.0723 40.238 47.9656 39.9714 47.9656C39.7049 47.9656 39.4491 48.0723 39.2616 48.2616L37.9714 49.5616L36.6813 48.2714C36.2915 47.8835 35.6616 47.8835 35.2714 48.2714L34.9415 48.5915L34.9714 44.9714ZM26.9714 44.9714H32.9714V50.9714C32.9737 51.375 33.2179 51.738 33.5915 51.8915C33.9612 52.0438 34.3857 51.9612 34.6714 51.6813L35.9714 50.3813L37.2415 51.6714C37.6477 52.0473 38.275 52.0473 38.6813 51.6714L39.9813 50.3714L41.2714 51.6714C41.4563 51.8598 41.7076 51.9679 41.9714 51.9714C42.1027 51.975 42.2326 51.9473 42.3513 51.8915C42.725 51.7379 42.9692 51.375 42.9714 50.9714V44.9714H48.9714V62.9714H26.9714V44.9714Z" fill="#39934E"/>
</svg>
