<svg width="100" height="100" viewBox="0 0 100 100" fill="none" xmlns="http://www.w3.org/2000/svg">
<rect width="100" height="100" rx="50" fill="#4CB966"/>
<rect width="100" height="100" rx="50" fill="white" fill-opacity="0.8"/>
<path d="M35.9666 40.1442C37.1828 42.1281 39.3587 43.3442 41.6627 43.3442H43.3908C41.0868 46.096 38.9109 49.7442 38.9109 52.9442C38.9109 60.0482 44.4149 63.4402 51.1349 63.4402C57.9827 63.4402 63.4229 60.0482 63.4229 52.9442C63.4229 48.8482 60.2868 44.4322 57.0868 41.4242C57.4069 40.976 57.5988 40.4001 57.5988 39.8242C57.5988 39.184 57.4069 38.5443 57.0229 38.0961C57.7269 37.584 58.1747 36.7519 58.1747 35.7921C58.1747 35.1519 57.9827 34.576 57.6626 34.1282C58.3667 33.6162 58.8788 32.7202 58.8788 31.7603C58.8788 30.8005 58.4305 29.9683 57.6626 29.3924C58.1747 28.6884 58.3667 27.7924 58.0466 26.8327C57.7908 25.9367 57.0868 25.2966 56.1908 24.9769C57.0229 24.1448 58.431 22.5448 58.431 21.393C58.431 20.0488 47.3591 18.5131 47.8713 20.689C48.0632 21.4569 48.3833 22.1609 48.7672 22.7372L45.503 22.2243C43.391 21.9685 41.2789 22.6082 39.6789 24.0163L35.711 27.5364H33.4708V27.0243C33.4708 26.2565 32.8306 25.6163 32.0628 25.6163H26.7508C25.9829 25.6163 25.3428 26.2565 25.3428 27.0243V40.2723C25.3428 41.0402 25.983 41.6803 26.7508 41.6803L32.0628 41.6799C32.8306 41.6799 33.4708 41.0397 33.4708 40.2719V39.7598H35.711L35.9666 40.1442ZM29.3746 39.2482C28.6068 39.2482 27.9666 38.6081 27.9666 37.8402C27.9666 37.0724 28.6068 36.4322 29.3746 36.4322C30.1425 36.4322 30.7189 37.0724 30.7189 37.8402C30.7827 38.6081 30.1425 39.2482 29.3746 39.2482ZM54.8467 57.9362C53.8868 57.9362 53.1185 57.1684 53.1185 56.2081C53.1185 55.2483 53.8864 54.48 54.8467 54.48C55.8065 54.48 56.5748 55.2479 56.5748 56.2081C56.5748 57.1679 55.8069 57.9362 54.8467 57.9362ZM56.319 48.9121L47.615 57.68C47.2311 58.0639 46.5271 58.0639 46.0789 57.68C45.8869 57.488 45.7588 57.2318 45.7588 56.9121C45.7588 56.6563 45.8869 56.3363 46.0789 56.1443L54.7829 47.4403C55.2311 47.0564 55.8708 47.0564 56.319 47.4403C56.511 47.6322 56.6391 47.8885 56.6391 48.2081C56.6386 48.464 56.511 48.7202 56.319 48.9122V48.9121ZM45.823 48.9121C45.823 47.9523 46.5909 47.184 47.5511 47.184C48.5109 47.184 49.2792 47.9519 49.2792 48.9121C49.2792 49.8719 48.5114 50.6402 47.5511 50.6402C46.5909 50.6402 45.823 49.8719 45.823 48.9121ZM55.2949 36.8161H51.0069C50.431 36.8161 49.9189 36.3041 49.9189 35.7282C49.9189 35.088 50.431 34.6402 51.0069 34.6402H55.2949C55.8708 34.6402 56.3828 35.1523 56.3828 35.7282C56.3828 36.3679 55.9346 36.8161 55.2949 36.8161ZM55.8069 39.7599C55.8069 40.3358 55.2949 40.8478 54.719 40.8478H51.5829C51.007 40.8478 50.4949 40.3358 50.4949 39.7599C50.4949 39.1197 51.007 38.672 51.5829 38.672H54.719C55.3587 38.672 55.8069 39.184 55.8069 39.7599ZM52.9908 26.5759H55.2948C55.8707 26.5759 56.3828 27.088 56.3828 27.6638C56.3828 28.2397 55.8707 28.7518 55.2948 28.7518H52.9908L53.0547 26.896C53.0547 26.8322 52.9908 26.704 52.9908 26.5759V26.5759ZM52.927 31.6321V30.608H55.935C56.5109 30.608 57.0229 31.1201 57.0229 31.696C57.0229 32.2719 56.5109 32.7839 55.935 32.7839H52.6069C52.7988 32.4638 52.927 32.0799 52.927 31.6321L52.927 31.6321ZM33.471 29.3919H36.0951C36.3509 29.3919 36.5433 29.3281 36.671 29.1361L40.8951 25.4241C42.1112 24.4 43.7112 23.888 45.2469 24.0799L49.2148 24.5919C50.3665 24.72 51.1987 25.7437 51.1987 26.8959L51.0705 31.632C51.0705 32.2079 50.5585 32.6561 49.9826 32.6561C49.6625 32.6561 49.4067 32.528 49.2147 32.336C49.0228 32.1441 48.8946 31.824 48.8946 31.5682L49.0228 28.3043C49.0228 27.8561 48.7027 27.4083 48.2549 27.3445L46.2067 27.0244C45.6946 26.9605 45.2468 27.2802 45.1826 27.7923C45.1187 28.3043 45.4384 28.7521 45.9504 28.8164L46.9745 29.0083C45.5026 32.2083 42.3026 32.0163 42.1745 32.0163C41.6625 31.9525 41.2147 32.3364 41.1504 32.8485V32.9766C41.1504 33.4248 41.4705 33.8087 41.9826 33.8726C43.2624 34.0007 45.4383 33.6168 47.1027 32.0168C47.1665 32.657 47.4228 33.2329 47.8705 33.6807C48.0625 33.8726 48.3188 34.0646 48.5746 34.1927C48.2545 34.6409 48.0625 35.2168 48.0625 35.7927C48.0625 36.3048 48.1906 36.8168 48.5107 37.2646C48.1906 38.2244 47.6147 39.3766 46.3348 40.4007C45.9509 40.7208 45.567 41.0409 45.1831 41.4248C43.9032 41.4887 42.6871 41.4887 41.7273 41.4887C39.9992 41.4887 38.4634 40.5927 37.5675 39.1208L37.0555 38.2886C36.8635 38.0328 36.6072 37.8404 36.2876 37.8404H33.5358L33.5349 29.3917L33.471 29.3919Z" fill="#39934E"/>
<path d="M73.2147 61.7762H67.9027C67.1348 61.7762 66.4947 62.4164 66.4947 63.1842V63.7601L66.0465 63.632C64.3826 63.1838 62.5907 63.3119 61.0545 64.0159L52.9906 67.5361L48.7026 66.3843C47.9347 66.1923 47.1665 66.2562 46.4624 66.7044C46.2704 66.8325 46.0784 66.9602 45.9503 67.0883L40.6383 63.6325C39.8704 63.1205 38.9102 62.9285 38.0142 63.1843C37.1182 63.3763 36.3503 63.9522 35.8383 64.7843C35.0062 66.2562 35.2624 68.0482 36.6062 69.1361L48.5742 78.9919C49.7903 79.9517 51.1983 80.4638 52.7339 80.4638C53.5661 80.4638 54.3339 80.3356 55.166 80.0155L63.4862 76.6874C64.254 76.3673 65.1501 76.1754 65.9822 76.0472L66.4942 75.9834V76.4955C66.4942 77.2633 67.1344 77.9035 67.9022 77.9035H73.2142C73.9821 77.9035 74.6222 77.2633 74.6222 76.4955L74.6227 63.1846C74.6227 62.4167 73.9825 61.7766 73.2147 61.7766L73.2147 61.7762ZM66.4946 74.0642L65.7906 74.1281C64.7665 74.2562 63.7423 74.512 62.7826 74.8959L54.4624 78.2241C52.8624 78.8642 51.0704 78.608 49.7906 77.52L37.8226 67.6643C37.2467 67.1522 37.0547 66.32 37.5025 65.616C37.6944 65.2321 38.0784 64.9759 38.5266 64.912C38.6547 64.912 38.7824 64.8482 38.9105 64.8482C39.2306 64.8482 39.4864 64.912 39.7426 65.104L45.1829 68.6879C44.9271 70.0959 45.7588 71.504 47.103 71.9518L52.3512 73.8075C53.1833 74.0633 54.0151 74.1276 54.8472 73.8075L59.7111 72.1436C60.2231 71.9517 60.479 71.4396 60.287 70.9919C60.095 70.4798 59.583 70.224 59.1352 70.416L54.2713 72.0799C53.8874 72.208 53.3754 72.208 52.9914 72.0799L47.7432 70.2241C47.2312 70.0321 46.9111 69.4562 47.0392 68.9442C47.103 68.6884 47.295 68.4321 47.5513 68.304C47.8071 68.1759 48.0633 68.1121 48.3834 68.1759L52.9914 69.392C53.1834 69.4558 53.3753 69.4558 53.5673 69.3282L61.8874 65.6799C63.1035 65.1679 64.4472 65.0398 65.6633 65.4241L66.6231 65.6799L66.6227 74.0643L66.4946 74.0642ZM70.5906 75.4085C69.8227 75.4085 69.2463 74.7683 69.2463 74.0005C69.2463 73.2327 69.8865 72.5925 70.5906 72.5925C71.3584 72.5925 71.9986 73.2327 71.9986 74.0005C71.9343 74.7683 71.3584 75.4085 70.5906 75.4085Z" fill="#39934E"/>
</svg>
