<svg width="32" height="32" viewBox="0 0 32 32" fill="none" xmlns="http://www.w3.org/2000/svg">
<path d="M28.7761 8.24792C28.4694 7.10125 27.5654 6.19725 26.4187 5.89059C24.3387 5.33325 16.0001 5.33325 16.0001 5.33325C16.0001 5.33325 7.66141 5.33325 5.58141 5.89059C4.43475 6.19725 3.53075 7.10125 3.22408 8.24792C2.66675 10.3279 2.66675 15.9999 2.66675 15.9999C2.66675 15.9999 2.66675 21.6719 3.22408 23.7519C3.53075 24.8986 4.43475 25.8026 5.58141 26.1093C7.66141 26.6666 16.0001 26.6666 16.0001 26.6666C16.0001 26.6666 24.3387 26.6666 26.4187 26.1093C27.5667 25.8026 28.4694 24.8986 28.7761 23.7519C29.3334 21.6719 29.3334 15.9999 29.3334 15.9999C29.3334 15.9999 29.3334 10.3279 28.7761 8.24792ZM13.3334 20.6186V11.3813L21.3334 15.9999L13.3334 20.6186Z" fill="#C2F3CE"/>
</svg>
