<svg width="50" height="50" viewBox="0 0 50 50" fill="none" xmlns="http://www.w3.org/2000/svg">
<path d="M24.0234 0.0585899C21.6797 0.488277 19.8047 1.85546 18.7988 3.88671C18.3105 4.88281 18.125 5.66406 18.125 6.78711C18.1152 8.125 18.3008 8.92578 18.8379 10.0098L19.2969 10.9277L15.8789 10.957C12.4805 10.9961 12.4414 10.9961 11.5918 11.2598C8.21289 12.3047 5.9375 14.8144 5.18555 18.3105C5.12695 18.5742 4.25781 23.4375 3.25195 29.1016L1.42578 39.4043L1.41602 40.9668C1.41602 42.3145 1.44531 42.6367 1.64062 43.3105C2.08984 44.8633 2.91992 46.2598 4.11133 47.4512C5.12695 48.457 6.63086 49.2969 8.20312 49.7266L9.0332 49.9512H25H40.9668L41.7969 49.7266C43.3691 49.2969 44.873 48.457 45.8887 47.4512C47.0801 46.2598 47.9102 44.8633 48.3594 43.3105C48.5547 42.6367 48.584 42.3145 48.584 40.9668L48.5742 39.4043L46.748 29.1016C45.7422 23.4375 44.873 18.5742 44.8145 18.3105C44.0625 14.8144 41.7871 12.3047 38.4082 11.2598C37.5586 10.9961 37.5195 10.9961 34.1602 10.957C32.2852 10.9375 30.7617 10.8984 30.7617 10.8594C30.7617 10.8203 30.957 10.4102 31.1914 9.9414C31.6992 8.91601 31.8848 8.0957 31.875 6.78711C31.8652 3.78906 29.9023 1.21093 26.9043 0.273434C26.3281 0.0976524 24.5508 -0.0390663 24.0234 0.0585899ZM26.3086 3.19336C29.3457 4.25781 29.8828 8.41796 27.207 10.1953C24.3359 12.0996 20.5762 9.70703 21.1035 6.31836C21.3574 4.69726 22.6953 3.31054 24.2871 3.02734C24.8535 2.92968 25.7812 2.99804 26.3086 3.19336ZM37.2363 14.0234C38.6035 14.3262 40.0977 15.3125 40.8398 16.3867C41.2305 16.9531 41.6504 17.8223 41.7969 18.3496C41.8555 18.5742 42.7637 23.6035 43.8086 29.5215C45.8008 40.8301 45.8496 41.1816 45.5566 42.334C44.9414 44.7754 42.9883 46.5625 40.5176 46.9629C39.6484 47.1094 10.3516 47.1094 9.48242 46.9629C8.0957 46.748 7.07031 46.2109 6.04492 45.1953C4.96094 44.1113 4.29688 42.5391 4.29688 41.0156C4.29688 40.498 4.84375 37.1582 6.19141 29.5215C7.23633 23.6035 8.14453 18.5742 8.20312 18.3496C8.62305 16.7969 9.78516 15.3711 11.2402 14.5996C12.6758 13.8379 11.9238 13.8867 24.9316 13.8769C35.2637 13.8672 36.6113 13.8867 37.2363 14.0234Z" fill="#08908C"/>
<path d="M10.3048 37V29.678L8.69483 30.882L7.78483 29.468L10.6968 27.382H12.2228V37H10.3048ZM15.2347 37.112C14.9174 37.112 14.6467 37.0047 14.4227 36.79C14.208 36.5753 14.1007 36.314 14.1007 36.006C14.1007 35.698 14.208 35.4367 14.4227 35.222C14.6467 34.998 14.9174 34.886 15.2347 34.886C15.5427 34.886 15.8087 34.998 16.0327 35.222C16.2567 35.4367 16.3687 35.698 16.3687 36.006C16.3687 36.314 16.2567 36.5753 16.0327 36.79C15.8087 37.0047 15.5427 37.112 15.2347 37.112ZM21.2481 30.798C22.0881 30.798 22.7975 31.0827 23.3761 31.652C23.9548 32.2213 24.2441 32.968 24.2441 33.892C24.2441 34.8347 23.9128 35.6093 23.2501 36.216C22.5968 36.8133 21.7801 37.112 20.8001 37.112C19.3908 37.112 18.2848 36.608 17.4821 35.6L18.8541 34.494C19.3021 35.082 19.9181 35.376 20.7021 35.376C21.1595 35.376 21.5421 35.2313 21.8501 34.942C22.1581 34.6527 22.3121 34.2933 22.3121 33.864C22.3121 33.388 22.1441 33.0193 21.8081 32.758C21.4721 32.4873 21.0895 32.352 20.6601 32.352C20.1095 32.352 19.6288 32.5153 19.2181 32.842L18.2101 32.464L18.5041 27.382H23.7541V29.118H20.1561L20.0441 31.008C20.4921 30.868 20.8935 30.798 21.2481 30.798ZM28.9161 33.01H28.9021L27.9221 34.172V37H25.9621V27.06H27.9221V31.442H27.9361L31.3801 27.06H33.8721L30.2041 31.442L33.9841 37H31.5621L28.9161 33.01ZM39.7165 30.168H41.5365V36.216C41.5365 38.6613 40.3512 39.884 37.9805 39.884C36.9352 39.884 35.9972 39.6553 35.1665 39.198L35.6005 37.644C36.3659 38.0733 37.1032 38.288 37.8125 38.288C38.4285 38.288 38.9045 38.1433 39.2405 37.854C39.5859 37.5647 39.7585 37.2007 39.7585 36.762V36.076H39.7165C39.2312 36.608 38.5685 36.874 37.7285 36.874C36.7765 36.874 35.9925 36.5613 35.3765 35.936C34.7699 35.3107 34.4665 34.5033 34.4665 33.514C34.4665 32.506 34.7652 31.68 35.3625 31.036C35.9599 30.3827 36.7159 30.056 37.6305 30.056C38.4519 30.056 39.1332 30.3267 39.6745 30.868H39.7165V30.168ZM36.8185 34.746C37.1452 35.0633 37.5605 35.222 38.0645 35.222C38.5685 35.222 38.9792 35.0587 39.2965 34.732C39.6232 34.396 39.7865 33.9667 39.7865 33.444C39.7865 32.9307 39.6232 32.5153 39.2965 32.198C38.9699 31.8807 38.5592 31.722 38.0645 31.722C37.5512 31.722 37.1312 31.8853 36.8045 32.212C36.4872 32.5293 36.3285 32.9447 36.3285 33.458C36.3285 33.99 36.4919 34.4193 36.8185 34.746Z" fill="#08908C"/>
</svg>
