<svg width="50" height="50" viewBox="0 0 50 50" fill="none" xmlns="http://www.w3.org/2000/svg">
<path d="M24.0234 0.0585899C21.6797 0.488277 19.8047 1.85546 18.7988 3.88671C18.3105 4.88281 18.125 5.66406 18.125 6.78711C18.1152 8.125 18.3008 8.92578 18.8379 10.0098L19.2969 10.9277L15.8789 10.957C12.4805 10.9961 12.4414 10.9961 11.5918 11.2598C8.21289 12.3047 5.9375 14.8144 5.18555 18.3105C5.12695 18.5742 4.25781 23.4375 3.25195 29.1016L1.42578 39.4043L1.41602 40.9668C1.41602 42.3145 1.44531 42.6367 1.64062 43.3105C2.08984 44.8633 2.91992 46.2598 4.11133 47.4512C5.12695 48.457 6.63086 49.2969 8.20312 49.7266L9.0332 49.9512H25H40.9668L41.7969 49.7266C43.3691 49.2969 44.873 48.457 45.8887 47.4512C47.0801 46.2598 47.9102 44.8633 48.3594 43.3105C48.5547 42.6367 48.584 42.3145 48.584 40.9668L48.5742 39.4043L46.748 29.1016C45.7422 23.4375 44.873 18.5742 44.8145 18.3105C44.0625 14.8144 41.7871 12.3047 38.4082 11.2598C37.5586 10.9961 37.5195 10.9961 34.1602 10.957C32.2852 10.9375 30.7617 10.8984 30.7617 10.8594C30.7617 10.8203 30.957 10.4102 31.1914 9.9414C31.6992 8.91601 31.8848 8.0957 31.875 6.78711C31.8652 3.78906 29.9023 1.21093 26.9043 0.273434C26.3281 0.0976524 24.5508 -0.0390663 24.0234 0.0585899ZM26.3086 3.19336C29.3457 4.25781 29.8828 8.41796 27.207 10.1953C24.3359 12.0996 20.5762 9.70703 21.1035 6.31836C21.3574 4.69726 22.6953 3.31054 24.2871 3.02734C24.8535 2.92968 25.7812 2.99804 26.3086 3.19336ZM37.2363 14.0234C38.6035 14.3262 40.0977 15.3125 40.8398 16.3867C41.2305 16.9531 41.6504 17.8223 41.7969 18.3496C41.8555 18.5742 42.7637 23.6035 43.8086 29.5215C45.8008 40.8301 45.8496 41.1816 45.5566 42.334C44.9414 44.7754 42.9883 46.5625 40.5176 46.9629C39.6484 47.1094 10.3516 47.1094 9.48242 46.9629C8.0957 46.748 7.07031 46.2109 6.04492 45.1953C4.96094 44.1113 4.29688 42.5391 4.29688 41.0156C4.29688 40.498 4.84375 37.1582 6.19141 29.5215C7.23633 23.6035 8.14453 18.5742 8.20312 18.3496C8.62305 16.7969 9.78516 15.3711 11.2402 14.5996C12.6758 13.8379 11.9238 13.8867 24.9316 13.8769C35.2637 13.8672 36.6113 13.8867 37.2363 14.0234Z" fill="#08908C"/>
<path d="M16.1837 36.9885V29.6665L14.5737 30.8705L13.6637 29.4565L16.5757 27.3705H18.1017V36.9885H16.1837ZM23.6336 37.1005C22.5136 37.1005 21.6083 36.6665 20.9176 35.7985C20.2363 34.9212 19.8956 33.7172 19.8956 32.1865C19.8956 30.7025 20.2316 29.5125 20.9036 28.6165C21.5756 27.7112 22.4856 27.2585 23.6336 27.2585C24.7723 27.2585 25.6823 27.6972 26.3636 28.5745C27.0449 29.4519 27.3856 30.6559 27.3856 32.1865C27.3856 33.6705 27.0496 34.8605 26.3776 35.7565C25.7056 36.6525 24.7909 37.1005 23.6336 37.1005ZM22.3176 34.4965C22.6443 35.0565 23.0876 35.3365 23.6476 35.3365C24.2076 35.3365 24.6463 35.0659 24.9636 34.5245C25.2809 33.9739 25.4396 33.1945 25.4396 32.1865C25.4396 31.2065 25.2809 30.4365 24.9636 29.8765C24.6463 29.3165 24.2076 29.0365 23.6476 29.0365C23.0876 29.0365 22.6443 29.3119 22.3176 29.8625C22.0003 30.4039 21.8416 31.1785 21.8416 32.1865C21.8416 33.1572 22.0003 33.9272 22.3176 34.4965ZM33.8376 30.1565H35.6576V36.2045C35.6576 38.6499 34.4723 39.8725 32.1016 39.8725C31.0563 39.8725 30.1183 39.6439 29.2876 39.1865L29.7216 37.6325C30.487 38.0619 31.2243 38.2765 31.9336 38.2765C32.5496 38.2765 33.0256 38.1319 33.3616 37.8425C33.707 37.5532 33.8796 37.1892 33.8796 36.7505V36.0645H33.8376C33.3523 36.5965 32.6896 36.8625 31.8496 36.8625C30.8976 36.8625 30.1136 36.5499 29.4976 35.9245C28.891 35.2992 28.5876 34.4919 28.5876 33.5025C28.5876 32.4945 28.8863 31.6685 29.4836 31.0245C30.081 30.3712 30.837 30.0445 31.7516 30.0445C32.573 30.0445 33.2543 30.3152 33.7956 30.8565H33.8376V30.1565ZM30.9396 34.7345C31.2663 35.0519 31.6816 35.2105 32.1856 35.2105C32.6896 35.2105 33.1003 35.0472 33.4176 34.7205C33.7443 34.3845 33.9076 33.9552 33.9076 33.4325C33.9076 32.9192 33.7443 32.5039 33.4176 32.1865C33.091 31.8692 32.6803 31.7105 32.1856 31.7105C31.6723 31.7105 31.2523 31.8739 30.9256 32.2005C30.6083 32.5179 30.4496 32.9332 30.4496 33.4465C30.4496 33.9785 30.613 34.4079 30.9396 34.7345Z" fill="#08908C"/>
</svg>
