<svg width="50" height="50" viewBox="0 0 50 50" fill="none" xmlns="http://www.w3.org/2000/svg">
<path d="M24.0234 0.0585899C21.6797 0.488277 19.8047 1.85546 18.7988 3.88671C18.3105 4.88281 18.125 5.66406 18.125 6.78711C18.1152 8.125 18.3008 8.92578 18.8379 10.0098L19.2969 10.9277L15.8789 10.957C12.4805 10.9961 12.4414 10.9961 11.5918 11.2598C8.21289 12.3047 5.9375 14.8144 5.18555 18.3105C5.12695 18.5742 4.25781 23.4375 3.25195 29.1016L1.42578 39.4043L1.41602 40.9668C1.41602 42.3145 1.44531 42.6367 1.64062 43.3105C2.08984 44.8633 2.91992 46.2598 4.11133 47.4512C5.12695 48.457 6.63086 49.2969 8.20312 49.7266L9.0332 49.9512H25H40.9668L41.7969 49.7266C43.3691 49.2969 44.873 48.457 45.8887 47.4512C47.0801 46.2598 47.9102 44.8633 48.3594 43.3105C48.5547 42.6367 48.584 42.3145 48.584 40.9668L48.5742 39.4043L46.748 29.1016C45.7422 23.4375 44.873 18.5742 44.8145 18.3105C44.0625 14.8144 41.7871 12.3047 38.4082 11.2598C37.5586 10.9961 37.5195 10.9961 34.1602 10.957C32.2852 10.9375 30.7617 10.8984 30.7617 10.8594C30.7617 10.8203 30.957 10.4102 31.1914 9.9414C31.6992 8.91601 31.8848 8.0957 31.875 6.78711C31.8652 3.78906 29.9023 1.21093 26.9043 0.273434C26.3281 0.0976524 24.5508 -0.0390663 24.0234 0.0585899ZM26.3086 3.19336C29.3457 4.25781 29.8828 8.41796 27.207 10.1953C24.3359 12.0996 20.5762 9.70703 21.1035 6.31836C21.3574 4.69726 22.6953 3.31054 24.2871 3.02734C24.8535 2.92968 25.7812 2.99804 26.3086 3.19336ZM37.2363 14.0234C38.6035 14.3262 40.0977 15.3125 40.8398 16.3867C41.2305 16.9531 41.6504 17.8223 41.7969 18.3496C41.8555 18.5742 42.7637 23.6035 43.8086 29.5215C45.8008 40.8301 45.8496 41.1816 45.5566 42.334C44.9414 44.7754 42.9883 46.5625 40.5176 46.9629C39.6484 47.1094 10.3516 47.1094 9.48242 46.9629C8.0957 46.748 7.07031 46.2109 6.04492 45.1953C4.96094 44.1113 4.29688 42.5391 4.29688 41.0156C4.29688 40.498 4.84375 37.1582 6.19141 29.5215C7.23633 23.6035 8.14453 18.5742 8.20312 18.3496C8.62305 16.7969 9.78516 15.3711 11.2402 14.5996C12.6758 13.8379 11.9238 13.8867 24.9316 13.8769C35.2637 13.8672 36.6113 13.8867 37.2363 14.0234Z" fill="#08908C"/>
<path d="M11.7677 36.9885V29.6665L10.1577 30.8705L9.24772 29.4565L12.1597 27.3705H13.6857V36.9885H11.7677ZM19.2176 37.1005C18.0976 37.1005 17.1922 36.6665 16.5016 35.7985C15.8202 34.9212 15.4796 33.7172 15.4796 32.1865C15.4796 30.7025 15.8156 29.5125 16.4876 28.6165C17.1596 27.7112 18.0696 27.2585 19.2176 27.2585C20.3562 27.2585 21.2662 27.6972 21.9476 28.5745C22.6289 29.4519 22.9696 30.6559 22.9696 32.1865C22.9696 33.6705 22.6336 34.8605 21.9616 35.7565C21.2896 36.6525 20.3749 37.1005 19.2176 37.1005ZM17.9016 34.4965C18.2282 35.0565 18.6716 35.3365 19.2316 35.3365C19.7916 35.3365 20.2302 35.0659 20.5476 34.5245C20.8649 33.9739 21.0236 33.1945 21.0236 32.1865C21.0236 31.2065 20.8649 30.4365 20.5476 29.8765C20.2302 29.3165 19.7916 29.0365 19.2316 29.0365C18.6716 29.0365 18.2282 29.3119 17.9016 29.8625C17.5842 30.4039 17.4256 31.1785 17.4256 32.1865C17.4256 33.1572 17.5842 33.9272 17.9016 34.4965ZM28.0496 37.1005C26.9296 37.1005 26.0243 36.6665 25.3336 35.7985C24.6523 34.9212 24.3116 33.7172 24.3116 32.1865C24.3116 30.7025 24.6476 29.5125 25.3196 28.6165C25.9916 27.7112 26.9016 27.2585 28.0496 27.2585C29.1883 27.2585 30.0983 27.6972 30.7796 28.5745C31.4609 29.4519 31.8016 30.6559 31.8016 32.1865C31.8016 33.6705 31.4656 34.8605 30.7936 35.7565C30.1216 36.6525 29.2069 37.1005 28.0496 37.1005ZM26.7336 34.4965C27.0603 35.0565 27.5036 35.3365 28.0636 35.3365C28.6236 35.3365 29.0623 35.0659 29.3796 34.5245C29.6969 33.9739 29.8556 33.1945 29.8556 32.1865C29.8556 31.2065 29.6969 30.4365 29.3796 29.8765C29.0623 29.3165 28.6236 29.0365 28.0636 29.0365C27.5036 29.0365 27.0603 29.3119 26.7336 29.8625C26.4163 30.4039 26.2576 31.1785 26.2576 32.1865C26.2576 33.1572 26.4163 33.9272 26.7336 34.4965ZM38.2536 30.1565H40.0736V36.2045C40.0736 38.6499 38.8883 39.8725 36.5176 39.8725C35.4723 39.8725 34.5343 39.6439 33.7036 39.1865L34.1376 37.6325C34.903 38.0619 35.6403 38.2765 36.3496 38.2765C36.9656 38.2765 37.4416 38.1319 37.7776 37.8425C38.123 37.5532 38.2956 37.1892 38.2956 36.7505V36.0645H38.2536C37.7683 36.5965 37.1056 36.8625 36.2656 36.8625C35.3136 36.8625 34.5296 36.5499 33.9136 35.9245C33.307 35.2992 33.0036 34.4919 33.0036 33.5025C33.0036 32.4945 33.3023 31.6685 33.8996 31.0245C34.497 30.3712 35.253 30.0445 36.1676 30.0445C36.989 30.0445 37.6703 30.3152 38.2116 30.8565H38.2536V30.1565ZM35.3556 34.7345C35.6823 35.0519 36.0976 35.2105 36.6016 35.2105C37.1056 35.2105 37.5163 35.0472 37.8336 34.7205C38.1603 34.3845 38.3236 33.9552 38.3236 33.4325C38.3236 32.9192 38.1603 32.5039 37.8336 32.1865C37.507 31.8692 37.0963 31.7105 36.6016 31.7105C36.0883 31.7105 35.6683 31.8739 35.3416 32.2005C35.0243 32.5179 34.8656 32.9332 34.8656 33.4465C34.8656 33.9785 35.029 34.4079 35.3556 34.7345Z" fill="#08908C"/>
</svg>
