<svg width="50" height="50" viewBox="0 0 50 50" fill="none" xmlns="http://www.w3.org/2000/svg">
<path d="M24.0234 0.0585899C21.6797 0.488277 19.8047 1.85546 18.7988 3.88671C18.3105 4.88281 18.125 5.66406 18.125 6.78711C18.1152 8.125 18.3008 8.92578 18.8379 10.0098L19.2969 10.9277L15.8789 10.957C12.4805 10.9961 12.4414 10.9961 11.5918 11.2598C8.21289 12.3047 5.9375 14.8144 5.18555 18.3105C5.12695 18.5742 4.25781 23.4375 3.25195 29.1016L1.42578 39.4043L1.41602 40.9668C1.41602 42.3145 1.44531 42.6367 1.64062 43.3105C2.08984 44.8633 2.91992 46.2598 4.11133 47.4512C5.12695 48.457 6.63086 49.2969 8.20312 49.7266L9.0332 49.9512H25H40.9668L41.7969 49.7266C43.3691 49.2969 44.873 48.457 45.8887 47.4512C47.0801 46.2598 47.9102 44.8633 48.3594 43.3105C48.5547 42.6367 48.584 42.3145 48.584 40.9668L48.5742 39.4043L46.748 29.1016C45.7422 23.4375 44.873 18.5742 44.8145 18.3105C44.0625 14.8144 41.7871 12.3047 38.4082 11.2598C37.5586 10.9961 37.5195 10.9961 34.1602 10.957C32.2852 10.9375 30.7617 10.8984 30.7617 10.8594C30.7617 10.8203 30.957 10.4102 31.1914 9.9414C31.6992 8.91601 31.8848 8.0957 31.875 6.78711C31.8652 3.78906 29.9023 1.21093 26.9043 0.273434C26.3281 0.0976524 24.5508 -0.0390663 24.0234 0.0585899ZM26.3086 3.19336C29.3457 4.25781 29.8828 8.41796 27.207 10.1953C24.3359 12.0996 20.5762 9.70703 21.1035 6.31836C21.3574 4.69726 22.6953 3.31054 24.2871 3.02734C24.8535 2.92968 25.7812 2.99804 26.3086 3.19336ZM37.2363 14.0234C38.6035 14.3262 40.0977 15.3125 40.8398 16.3867C41.2305 16.9531 41.6504 17.8223 41.7969 18.3496C41.8555 18.5742 42.7637 23.6035 43.8086 29.5215C45.8008 40.8301 45.8496 41.1816 45.5566 42.334C44.9414 44.7754 42.9883 46.5625 40.5176 46.9629C39.6484 47.1094 10.3516 47.1094 9.48242 46.9629C8.0957 46.748 7.07031 46.2109 6.04492 45.1953C4.96094 44.1113 4.29688 42.5391 4.29688 41.0156C4.29688 40.498 4.84375 37.1582 6.19141 29.5215C7.23633 23.6035 8.14453 18.5742 8.20312 18.3496C8.62305 16.7969 9.78516 15.3711 11.2402 14.5996C12.6758 13.8379 11.9238 13.8867 24.9316 13.8769C35.2637 13.8672 36.6113 13.8867 37.2363 14.0234Z" fill="#08908C"/>
<path d="M15.8147 35.2525H19.3287V36.9885H13.0567L13.0287 35.7425L16.0247 32.5785C16.4634 32.1025 16.7854 31.6965 16.9907 31.3605C17.2054 31.0245 17.3127 30.6792 17.3127 30.3245C17.3127 29.9512 17.1914 29.6432 16.9487 29.4005C16.706 29.1485 16.398 29.0225 16.0247 29.0225C15.3247 29.0225 14.7694 29.3679 14.3587 30.0585L12.9867 29.0785C13.6494 27.8652 14.7134 27.2585 16.1787 27.2585C17.0187 27.2585 17.7374 27.5199 18.3347 28.0425C18.932 28.5652 19.2307 29.2559 19.2307 30.1145C19.2307 30.6839 19.114 31.2112 18.8807 31.6965C18.6567 32.1725 18.2414 32.7232 17.6347 33.3485L15.8147 35.2245V35.2525ZM23.9942 32.9985H23.9802L23.0002 34.1605V36.9885H21.0402V27.0485H23.0002V31.4305H23.0142L26.4582 27.0485H28.9502L25.2822 31.4305L29.0622 36.9885H26.6402L23.9942 32.9985ZM34.7947 30.1565H36.6147V36.2045C36.6147 38.6499 35.4293 39.8725 33.0587 39.8725C32.0133 39.8725 31.0753 39.6439 30.2447 39.1865L30.6787 37.6325C31.444 38.0619 32.1813 38.2765 32.8907 38.2765C33.5067 38.2765 33.9827 38.1319 34.3187 37.8425C34.664 37.5532 34.8367 37.1892 34.8367 36.7505V36.0645H34.7947C34.3093 36.5965 33.6467 36.8625 32.8067 36.8625C31.8547 36.8625 31.0707 36.5499 30.4547 35.9245C29.848 35.2992 29.5447 34.4919 29.5447 33.5025C29.5447 32.4945 29.8433 31.6685 30.4407 31.0245C31.038 30.3712 31.794 30.0445 32.7087 30.0445C33.53 30.0445 34.2113 30.3152 34.7527 30.8565H34.7947V30.1565ZM31.8967 34.7345C32.2233 35.0519 32.6387 35.2105 33.1427 35.2105C33.6467 35.2105 34.0573 35.0472 34.3747 34.7205C34.7013 34.3845 34.8647 33.9552 34.8647 33.4325C34.8647 32.9192 34.7013 32.5039 34.3747 32.1865C34.048 31.8692 33.6373 31.7105 33.1427 31.7105C32.6293 31.7105 32.2093 31.8739 31.8827 32.2005C31.5653 32.5179 31.4067 32.9332 31.4067 33.4465C31.4067 33.9785 31.57 34.4079 31.8967 34.7345Z" fill="#08908C"/>
</svg>
