<svg width="50" height="50" viewBox="0 0 50 50" fill="none" xmlns="http://www.w3.org/2000/svg">
<path d="M24.0234 0.0585899C21.6797 0.488277 19.8047 1.85546 18.7988 3.88671C18.3105 4.88281 18.125 5.66406 18.125 6.78711C18.1152 8.125 18.3008 8.92578 18.8379 10.0098L19.2969 10.9277L15.8789 10.957C12.4805 10.9961 12.4414 10.9961 11.5918 11.2598C8.21289 12.3047 5.9375 14.8144 5.18555 18.3105C5.12695 18.5742 4.25781 23.4375 3.25195 29.1016L1.42578 39.4043L1.41602 40.9668C1.41602 42.3145 1.44531 42.6367 1.64062 43.3105C2.08984 44.8633 2.91992 46.2598 4.11133 47.4512C5.12695 48.457 6.63086 49.2969 8.20312 49.7266L9.0332 49.9512H25H40.9668L41.7969 49.7266C43.3691 49.2969 44.873 48.457 45.8887 47.4512C47.0801 46.2598 47.9102 44.8633 48.3594 43.3105C48.5547 42.6367 48.584 42.3145 48.584 40.9668L48.5742 39.4043L46.748 29.1016C45.7422 23.4375 44.873 18.5742 44.8145 18.3105C44.0625 14.8144 41.7871 12.3047 38.4082 11.2598C37.5586 10.9961 37.5195 10.9961 34.1602 10.957C32.2852 10.9375 30.7617 10.8984 30.7617 10.8594C30.7617 10.8203 30.957 10.4102 31.1914 9.9414C31.6992 8.91601 31.8848 8.0957 31.875 6.78711C31.8652 3.78906 29.9023 1.21093 26.9043 0.273434C26.3281 0.0976524 24.5508 -0.0390663 24.0234 0.0585899ZM26.3086 3.19336C29.3457 4.25781 29.8828 8.41796 27.207 10.1953C24.3359 12.0996 20.5762 9.70703 21.1035 6.31836C21.3574 4.69726 22.6953 3.31054 24.2871 3.02734C24.8535 2.92968 25.7812 2.99804 26.3086 3.19336ZM37.2363 14.0234C38.6035 14.3262 40.0977 15.3125 40.8398 16.3867C41.2305 16.9531 41.6504 17.8223 41.7969 18.3496C41.8555 18.5742 42.7637 23.6035 43.8086 29.5215C45.8008 40.8301 45.8496 41.1816 45.5566 42.334C44.9414 44.7754 42.9883 46.5625 40.5176 46.9629C39.6484 47.1094 10.3516 47.1094 9.48242 46.9629C8.0957 46.748 7.07031 46.2109 6.04492 45.1953C4.96094 44.1113 4.29688 42.5391 4.29688 41.0156C4.29688 40.498 4.84375 37.1582 6.19141 29.5215C7.23633 23.6035 8.14453 18.5742 8.20312 18.3496C8.62305 16.7969 9.78516 15.3711 11.2402 14.5996C12.6758 13.8379 11.9238 13.8867 24.9316 13.8769C35.2637 13.8672 36.6113 13.8867 37.2363 14.0234Z" fill="#08908C"/>
<path d="M11.1197 35.3765H14.3827V36.9885H8.55872L8.53272 35.8315L11.3147 32.8935C11.7221 32.4515 12.0211 32.0745 12.2117 31.7625C12.4111 31.4505 12.5107 31.1299 12.5107 30.8005C12.5107 30.4539 12.3981 30.1679 12.1727 29.9425C11.9474 29.7085 11.6614 29.5915 11.3147 29.5915C10.6647 29.5915 10.1491 29.9122 9.76772 30.5535L8.49372 29.6435C9.10905 28.5169 10.0971 27.9535 11.4577 27.9535C12.2377 27.9535 12.9051 28.1962 13.4597 28.6815C14.0144 29.1669 14.2917 29.8082 14.2917 30.6055C14.2917 31.1342 14.1834 31.6239 13.9667 32.0745C13.7587 32.5165 13.3731 33.0279 12.8097 33.6085L11.1197 35.3505V35.3765ZM16.713 37.0925C16.4183 37.0925 16.167 36.9929 15.959 36.7935C15.7596 36.5942 15.66 36.3515 15.66 36.0655C15.66 35.7795 15.7596 35.5369 15.959 35.3375C16.167 35.1295 16.4183 35.0255 16.713 35.0255C16.999 35.0255 17.246 35.1295 17.454 35.3375C17.662 35.5369 17.766 35.7795 17.766 36.0655C17.766 36.3515 17.662 36.5942 17.454 36.7935C17.246 36.9929 16.999 37.0925 16.713 37.0925ZM22.2969 31.2295C23.0769 31.2295 23.7355 31.4939 24.2729 32.0225C24.8102 32.5512 25.0789 33.2445 25.0789 34.1025C25.0789 34.9779 24.7712 35.6972 24.1559 36.2605C23.5492 36.8152 22.7909 37.0925 21.8809 37.0925C20.5722 37.0925 19.5452 36.6245 18.7999 35.6885L20.0739 34.6615C20.4899 35.2075 21.0619 35.4805 21.7899 35.4805C22.2145 35.4805 22.5699 35.3462 22.8559 35.0775C23.1419 34.8089 23.2849 34.4752 23.2849 34.0765C23.2849 33.6345 23.1289 33.2922 22.8169 33.0495C22.5049 32.7982 22.1495 32.6725 21.7509 32.6725C21.2395 32.6725 20.7932 32.8242 20.4119 33.1275L19.4759 32.7765L19.7489 28.0575H24.6239V29.6695H21.2829L21.1789 31.4245C21.5949 31.2945 21.9675 31.2295 22.2969 31.2295ZM29.4171 33.2835H29.4041L28.4941 34.3625V36.9885H26.6741V27.7585H28.4941V31.8275H28.5071L31.7051 27.7585H34.0191L30.6131 31.8275L34.1231 36.9885H31.8741L29.4171 33.2835ZM39.4461 30.6445H41.1361V36.2605C41.1361 38.5312 40.0354 39.6665 37.8341 39.6665C36.8634 39.6665 35.9924 39.4542 35.2211 39.0295L35.6241 37.5865C36.3348 37.9852 37.0194 38.1845 37.6781 38.1845C38.2501 38.1845 38.6921 38.0502 39.0041 37.7815C39.3248 37.5129 39.4851 37.1749 39.4851 36.7675V36.1305H39.4461C38.9954 36.6245 38.3801 36.8715 37.6001 36.8715C36.7161 36.8715 35.9881 36.5812 35.4161 36.0005C34.8528 35.4199 34.5711 34.6702 34.5711 33.7515C34.5711 32.8155 34.8484 32.0485 35.4031 31.4505C35.9578 30.8439 36.6598 30.5405 37.5091 30.5405C38.2718 30.5405 38.9044 30.7919 39.4071 31.2945H39.4461V30.6445ZM36.7551 34.8955C37.0584 35.1902 37.4441 35.3375 37.9121 35.3375C38.3801 35.3375 38.7614 35.1859 39.0561 34.8825C39.3594 34.5705 39.5111 34.1719 39.5111 33.6865C39.5111 33.2099 39.3594 32.8242 39.0561 32.5295C38.7528 32.2349 38.3714 32.0875 37.9121 32.0875C37.4354 32.0875 37.0454 32.2392 36.7421 32.5425C36.4474 32.8372 36.3001 33.2229 36.3001 33.6995C36.3001 34.1935 36.4518 34.5922 36.7551 34.8955Z" fill="#08908C"/>
</svg>
