<svg width="50" height="50" viewBox="0 0 50 50" fill="none" xmlns="http://www.w3.org/2000/svg">
<path d="M24.0234 0.0585899C21.6797 0.488277 19.8047 1.85546 18.7988 3.88671C18.3105 4.88281 18.125 5.66406 18.125 6.78711C18.1152 8.125 18.3008 8.92578 18.8379 10.0098L19.2969 10.9277L15.8789 10.957C12.4805 10.9961 12.4414 10.9961 11.5918 11.2598C8.21289 12.3047 5.9375 14.8144 5.18555 18.3105C5.12695 18.5742 4.25781 23.4375 3.25195 29.1016L1.42578 39.4043L1.41602 40.9668C1.41602 42.3145 1.44531 42.6367 1.64062 43.3105C2.08984 44.8633 2.91992 46.2598 4.11133 47.4512C5.12695 48.457 6.63086 49.2969 8.20312 49.7266L9.0332 49.9512H25H40.9668L41.7969 49.7266C43.3691 49.2969 44.873 48.457 45.8887 47.4512C47.0801 46.2598 47.9102 44.8633 48.3594 43.3105C48.5547 42.6367 48.584 42.3145 48.584 40.9668L48.5742 39.4043L46.748 29.1016C45.7422 23.4375 44.873 18.5742 44.8145 18.3105C44.0625 14.8144 41.7871 12.3047 38.4082 11.2598C37.5586 10.9961 37.5195 10.9961 34.1602 10.957C32.2852 10.9375 30.7617 10.8984 30.7617 10.8594C30.7617 10.8203 30.957 10.4102 31.1914 9.9414C31.6992 8.91601 31.8848 8.0957 31.875 6.78711C31.8652 3.78906 29.9023 1.21093 26.9043 0.273434C26.3281 0.0976524 24.5508 -0.0390663 24.0234 0.0585899ZM26.3086 3.19336C29.3457 4.25781 29.8828 8.41796 27.207 10.1953C24.3359 12.0996 20.5762 9.70703 21.1035 6.31836C21.3574 4.69726 22.6953 3.31054 24.2871 3.02734C24.8535 2.92968 25.7812 2.99804 26.3086 3.19336ZM37.2363 14.0234C38.6035 14.3262 40.0977 15.3125 40.8398 16.3867C41.2305 16.9531 41.6504 17.8223 41.7969 18.3496C41.8555 18.5742 42.7637 23.6035 43.8086 29.5215C45.8008 40.8301 45.8496 41.1816 45.5566 42.334C44.9414 44.7754 42.9883 46.5625 40.5176 46.9629C39.6484 47.1094 10.3516 47.1094 9.48242 46.9629C8.0957 46.748 7.07031 46.2109 6.04492 45.1953C4.96094 44.1113 4.29688 42.5391 4.29688 41.0156C4.29688 40.498 4.84375 37.1582 6.19141 29.5215C7.23633 23.6035 8.14453 18.5742 8.20312 18.3496C8.62305 16.7969 9.78516 15.3711 11.2402 14.5996C12.6758 13.8379 11.9238 13.8867 24.9316 13.8769C35.2637 13.8672 36.6113 13.8867 37.2363 14.0234Z" fill="#08908C"/>
<path d="M16.471 35.2525H19.985V36.9885H13.713L13.685 35.7425L16.681 32.5785C17.1197 32.1025 17.4417 31.6965 17.647 31.3605C17.8617 31.0245 17.969 30.6792 17.969 30.3245C17.969 29.9512 17.8477 29.6432 17.605 29.4005C17.3623 29.1485 17.0543 29.0225 16.681 29.0225C15.981 29.0225 15.4257 29.3679 15.015 30.0585L13.643 29.0785C14.3057 27.8652 15.3697 27.2585 16.835 27.2585C17.675 27.2585 18.3937 27.5199 18.991 28.0425C19.5883 28.5652 19.887 29.2559 19.887 30.1145C19.887 30.6839 19.7703 31.2112 19.537 31.6965C19.313 32.1725 18.8977 32.7232 18.291 33.3485L16.471 35.2245V35.2525ZM24.7345 30.7865C25.5745 30.7865 26.2838 31.0712 26.8625 31.6405C27.4412 32.2099 27.7305 32.9565 27.7305 33.8805C27.7305 34.8232 27.3992 35.5979 26.7365 36.2045C26.0832 36.8019 25.2665 37.1005 24.2865 37.1005C22.8772 37.1005 21.7712 36.5965 20.9685 35.5885L22.3405 34.4825C22.7885 35.0705 23.4045 35.3645 24.1885 35.3645C24.6458 35.3645 25.0285 35.2199 25.3365 34.9305C25.6445 34.6412 25.7985 34.2819 25.7985 33.8525C25.7985 33.3765 25.6305 33.0079 25.2945 32.7465C24.9585 32.4759 24.5758 32.3405 24.1465 32.3405C23.5958 32.3405 23.1152 32.5039 22.7045 32.8305L21.6965 32.4525L21.9905 27.3705H27.2405V29.1065H23.6425L23.5305 30.9965C23.9785 30.8565 24.3798 30.7865 24.7345 30.7865ZM34.1384 30.1565H35.9584V36.2045C35.9584 38.6499 34.7731 39.8725 32.4024 39.8725C31.3571 39.8725 30.4191 39.6439 29.5884 39.1865L30.0224 37.6325C30.7878 38.0619 31.5251 38.2765 32.2344 38.2765C32.8504 38.2765 33.3264 38.1319 33.6624 37.8425C34.0078 37.5532 34.1804 37.1892 34.1804 36.7505V36.0645H34.1384C33.6531 36.5965 32.9904 36.8625 32.1504 36.8625C31.1984 36.8625 30.4144 36.5499 29.7984 35.9245C29.1918 35.2992 28.8884 34.4919 28.8884 33.5025C28.8884 32.4945 29.1871 31.6685 29.7844 31.0245C30.3818 30.3712 31.1378 30.0445 32.0524 30.0445C32.8738 30.0445 33.5551 30.3152 34.0964 30.8565H34.1384V30.1565ZM31.2404 34.7345C31.5671 35.0519 31.9824 35.2105 32.4864 35.2105C32.9904 35.2105 33.4011 35.0472 33.7184 34.7205C34.0451 34.3845 34.2084 33.9552 34.2084 33.4325C34.2084 32.9192 34.0451 32.5039 33.7184 32.1865C33.3918 31.8692 32.9811 31.7105 32.4864 31.7105C31.9731 31.7105 31.5531 31.8739 31.2264 32.2005C30.9091 32.5179 30.7504 32.9332 30.7504 33.4465C30.7504 33.9785 30.9138 34.4079 31.2404 34.7345Z" fill="#08908C"/>
</svg>
