<svg width="50" height="50" viewBox="0 0 50 50" fill="none" xmlns="http://www.w3.org/2000/svg">
<path d="M24.0234 0.0585899C21.6797 0.488277 19.8047 1.85546 18.7988 3.88671C18.3105 4.88281 18.125 5.66406 18.125 6.78711C18.1152 8.125 18.3008 8.92578 18.8379 10.0098L19.2969 10.9277L15.8789 10.957C12.4805 10.9961 12.4414 10.9961 11.5918 11.2598C8.21289 12.3047 5.9375 14.8144 5.18555 18.3105C5.12695 18.5742 4.25781 23.4375 3.25195 29.1016L1.42578 39.4043L1.41602 40.9668C1.41602 42.3145 1.44531 42.6367 1.64062 43.3105C2.08984 44.8633 2.91992 46.2598 4.11133 47.4512C5.12695 48.457 6.63086 49.2969 8.20312 49.7266L9.0332 49.9512H25H40.9668L41.7969 49.7266C43.3691 49.2969 44.873 48.457 45.8887 47.4512C47.0801 46.2598 47.9102 44.8633 48.3594 43.3105C48.5547 42.6367 48.584 42.3145 48.584 40.9668L48.5742 39.4043L46.748 29.1016C45.7422 23.4375 44.873 18.5742 44.8145 18.3105C44.0625 14.8144 41.7871 12.3047 38.4082 11.2598C37.5586 10.9961 37.5195 10.9961 34.1602 10.957C32.2852 10.9375 30.7617 10.8984 30.7617 10.8594C30.7617 10.8203 30.957 10.4102 31.1914 9.9414C31.6992 8.91601 31.8848 8.0957 31.875 6.78711C31.8652 3.78906 29.9023 1.21093 26.9043 0.273434C26.3281 0.0976524 24.5508 -0.0390663 24.0234 0.0585899ZM26.3086 3.19336C29.3457 4.25781 29.8828 8.41796 27.207 10.1953C24.3359 12.0996 20.5762 9.70703 21.1035 6.31836C21.3574 4.69726 22.6953 3.31054 24.2871 3.02734C24.8535 2.92968 25.7812 2.99804 26.3086 3.19336ZM37.2363 14.0234C38.6035 14.3262 40.0977 15.3125 40.8398 16.3867C41.2305 16.9531 41.6504 17.8223 41.7969 18.3496C41.8555 18.5742 42.7637 23.6035 43.8086 29.5215C45.8008 40.8301 45.8496 41.1816 45.5566 42.334C44.9414 44.7754 42.9883 46.5625 40.5176 46.9629C39.6484 47.1094 10.3516 47.1094 9.48242 46.9629C8.0957 46.748 7.07031 46.2109 6.04492 45.1953C4.96094 44.1113 4.29688 42.5391 4.29688 41.0156C4.29688 40.498 4.84375 37.1582 6.19141 29.5215C7.23633 23.6035 8.14453 18.5742 8.20312 18.3496C8.62305 16.7969 9.78516 15.3711 11.2402 14.5996C12.6758 13.8379 11.9238 13.8867 24.9316 13.8769C35.2637 13.8672 36.6113 13.8867 37.2363 14.0234Z" fill="#08908C"/>
<path d="M12.1028 35.264H15.6168V37H9.34479L9.31679 35.754L12.3128 32.59C12.7515 32.114 13.0735 31.708 13.2788 31.372C13.4935 31.036 13.6008 30.6907 13.6008 30.336C13.6008 29.9627 13.4795 29.6547 13.2368 29.412C12.9941 29.16 12.6861 29.034 12.3128 29.034C11.6128 29.034 11.0575 29.3793 10.6468 30.07L9.27479 29.09C9.93745 27.8767 11.0015 27.27 12.4668 27.27C13.3068 27.27 14.0255 27.5313 14.6228 28.054C15.2201 28.5767 15.5188 29.2673 15.5188 30.126C15.5188 30.6953 15.4021 31.2227 15.1688 31.708C14.9448 32.184 14.5295 32.7347 13.9228 33.36L12.1028 35.236V35.264ZM20.3663 30.798C21.2063 30.798 21.9156 31.0827 22.4943 31.652C23.073 32.2213 23.3623 32.968 23.3623 33.892C23.3623 34.8347 23.031 35.6093 22.3683 36.216C21.715 36.8133 20.8983 37.112 19.9183 37.112C18.509 37.112 17.403 36.608 16.6003 35.6L17.9723 34.494C18.4203 35.082 19.0363 35.376 19.8203 35.376C20.2776 35.376 20.6603 35.2313 20.9683 34.942C21.2763 34.6527 21.4303 34.2933 21.4303 33.864C21.4303 33.388 21.2623 33.0193 20.9263 32.758C20.5903 32.4873 20.2076 32.352 19.7783 32.352C19.2276 32.352 18.747 32.5153 18.3363 32.842L17.3283 32.464L17.6223 27.382H22.8723V29.118H19.2743L19.1623 31.008C19.6103 30.868 20.0116 30.798 20.3663 30.798ZM28.3025 37.112C27.1825 37.112 26.2772 36.678 25.5865 35.81C24.9052 34.9327 24.5645 33.7287 24.5645 32.198C24.5645 30.714 24.9005 29.524 25.5725 28.628C26.2445 27.7227 27.1545 27.27 28.3025 27.27C29.4412 27.27 30.3512 27.7087 31.0325 28.586C31.7139 29.4633 32.0545 30.6673 32.0545 32.198C32.0545 33.682 31.7185 34.872 31.0465 35.768C30.3745 36.664 29.4599 37.112 28.3025 37.112ZM26.9865 34.508C27.3132 35.068 27.7565 35.348 28.3165 35.348C28.8765 35.348 29.3152 35.0773 29.6325 34.536C29.9499 33.9853 30.1085 33.206 30.1085 32.198C30.1085 31.218 29.9499 30.448 29.6325 29.888C29.3152 29.328 28.8765 29.048 28.3165 29.048C27.7565 29.048 27.3132 29.3233 26.9865 29.874C26.6692 30.4153 26.5105 31.19 26.5105 32.198C26.5105 33.1687 26.6692 33.9387 26.9865 34.508ZM38.5066 30.168H40.3266V36.216C40.3266 38.6613 39.1412 39.884 36.7706 39.884C35.7252 39.884 34.7872 39.6553 33.9566 39.198L34.3906 37.644C35.1559 38.0733 35.8932 38.288 36.6026 38.288C37.2186 38.288 37.6946 38.1433 38.0306 37.854C38.3759 37.5647 38.5486 37.2007 38.5486 36.762V36.076H38.5066C38.0212 36.608 37.3586 36.874 36.5186 36.874C35.5666 36.874 34.7826 36.5613 34.1666 35.936C33.5599 35.3107 33.2566 34.5033 33.2566 33.514C33.2566 32.506 33.5552 31.68 34.1526 31.036C34.7499 30.3827 35.5059 30.056 36.4206 30.056C37.2419 30.056 37.9232 30.3267 38.4646 30.868H38.5066V30.168ZM35.6086 34.746C35.9352 35.0633 36.3506 35.222 36.8546 35.222C37.3586 35.222 37.7692 35.0587 38.0866 34.732C38.4132 34.396 38.5766 33.9667 38.5766 33.444C38.5766 32.9307 38.4132 32.5153 38.0866 32.198C37.7599 31.8807 37.3492 31.722 36.8546 31.722C36.3412 31.722 35.9212 31.8853 35.5946 32.212C35.2772 32.5293 35.1186 32.9447 35.1186 33.458C35.1186 33.99 35.2819 34.4193 35.6086 34.746Z" fill="#08908C"/>
</svg>
