<svg width="50" height="50" viewBox="0 0 50 50" fill="none" xmlns="http://www.w3.org/2000/svg">
<path d="M24.0234 0.0585899C21.6797 0.488277 19.8047 1.85546 18.7988 3.88671C18.3105 4.88281 18.125 5.66406 18.125 6.78711C18.1152 8.125 18.3008 8.92578 18.8379 10.0098L19.2969 10.9277L15.8789 10.957C12.4805 10.9961 12.4414 10.9961 11.5918 11.2598C8.21289 12.3047 5.9375 14.8144 5.18555 18.3105C5.12695 18.5742 4.25781 23.4375 3.25195 29.1016L1.42578 39.4043L1.41602 40.9668C1.41602 42.3145 1.44531 42.6367 1.64062 43.3105C2.08984 44.8633 2.91992 46.2598 4.11133 47.4512C5.12695 48.457 6.63086 49.2969 8.20312 49.7266L9.0332 49.9512H25H40.9668L41.7969 49.7266C43.3691 49.2969 44.873 48.457 45.8887 47.4512C47.0801 46.2598 47.9102 44.8633 48.3594 43.3105C48.5547 42.6367 48.584 42.3145 48.584 40.9668L48.5742 39.4043L46.748 29.1016C45.7422 23.4375 44.873 18.5742 44.8145 18.3105C44.0625 14.8144 41.7871 12.3047 38.4082 11.2598C37.5586 10.9961 37.5195 10.9961 34.1602 10.957C32.2852 10.9375 30.7617 10.8984 30.7617 10.8594C30.7617 10.8203 30.957 10.4102 31.1914 9.9414C31.6992 8.91601 31.8848 8.0957 31.875 6.78711C31.8652 3.78906 29.9023 1.21093 26.9043 0.273434C26.3281 0.0976524 24.5508 -0.0390663 24.0234 0.0585899ZM26.3086 3.19336C29.3457 4.25781 29.8828 8.41796 27.207 10.1953C24.3359 12.0996 20.5762 9.70703 21.1035 6.31836C21.3574 4.69726 22.6953 3.31054 24.2871 3.02734C24.8535 2.92968 25.7812 2.99804 26.3086 3.19336ZM37.2363 14.0234C38.6035 14.3262 40.0977 15.3125 40.8398 16.3867C41.2305 16.9531 41.6504 17.8223 41.7969 18.3496C41.8555 18.5742 42.7637 23.6035 43.8086 29.5215C45.8008 40.8301 45.8496 41.1816 45.5566 42.334C44.9414 44.7754 42.9883 46.5625 40.5176 46.9629C39.6484 47.1094 10.3516 47.1094 9.48242 46.9629C8.0957 46.748 7.07031 46.2109 6.04492 45.1953C4.96094 44.1113 4.29688 42.5391 4.29688 41.0156C4.29688 40.498 4.84375 37.1582 6.19141 29.5215C7.23633 23.6035 8.14453 18.5742 8.20312 18.3496C8.62305 16.7969 9.78516 15.3711 11.2402 14.5996C12.6758 13.8379 11.9238 13.8867 24.9316 13.8769C35.2637 13.8672 36.6113 13.8867 37.2363 14.0234Z" fill="#08908C"/>
<path d="M21.0157 30.798C21.8557 30.798 22.565 31.0827 23.1437 31.652C23.7224 32.2213 24.0117 32.968 24.0117 33.892C24.0117 34.8347 23.6804 35.6093 23.0177 36.216C22.3644 36.8133 21.5477 37.112 20.5677 37.112C19.1584 37.112 18.0524 36.608 17.2497 35.6L18.6217 34.494C19.0697 35.082 19.6857 35.376 20.4697 35.376C20.927 35.376 21.3097 35.2313 21.6177 34.942C21.9257 34.6527 22.0797 34.2933 22.0797 33.864C22.0797 33.388 21.9117 33.0193 21.5757 32.758C21.2397 32.4873 20.857 32.352 20.4277 32.352C19.877 32.352 19.3964 32.5153 18.9857 32.842L17.9777 32.464L18.2717 27.382H23.5217V29.118H19.9237L19.8117 31.008C20.2597 30.868 20.661 30.798 21.0157 30.798ZM30.4197 30.168H32.2397V36.216C32.2397 38.6613 31.0543 39.884 28.6837 39.884C27.6383 39.884 26.7003 39.6553 25.8697 39.198L26.3037 37.644C27.069 38.0733 27.8063 38.288 28.5157 38.288C29.1317 38.288 29.6077 38.1433 29.9437 37.854C30.289 37.5647 30.4617 37.2007 30.4617 36.762V36.076H30.4197C29.9343 36.608 29.2717 36.874 28.4317 36.874C27.4797 36.874 26.6957 36.5613 26.0797 35.936C25.473 35.3107 25.1697 34.5033 25.1697 33.514C25.1697 32.506 25.4683 31.68 26.0657 31.036C26.663 30.3827 27.419 30.056 28.3337 30.056C29.155 30.056 29.8363 30.3267 30.3777 30.868H30.4197V30.168ZM27.5217 34.746C27.8483 35.0633 28.2637 35.222 28.7677 35.222C29.2717 35.222 29.6823 35.0587 29.9997 34.732C30.3263 34.396 30.4897 33.9667 30.4897 33.444C30.4897 32.9307 30.3263 32.5153 29.9997 32.198C29.673 31.8807 29.2623 31.722 28.7677 31.722C28.2543 31.722 27.8343 31.8853 27.5077 32.212C27.1903 32.5293 27.0317 32.9447 27.0317 33.458C27.0317 33.99 27.195 34.4193 27.5217 34.746Z" fill="#08908C"/>
</svg>
