<svg width="50" height="50" viewBox="0 0 50 50" fill="none" xmlns="http://www.w3.org/2000/svg">
<path d="M24.0234 0.0585899C21.6797 0.488277 19.8047 1.85546 18.7988 3.88671C18.3105 4.88281 18.125 5.66406 18.125 6.78711C18.1152 8.125 18.3008 8.92578 18.8379 10.0098L19.2969 10.9277L15.8789 10.957C12.4805 10.9961 12.4414 10.9961 11.5918 11.2598C8.21289 12.3047 5.9375 14.8144 5.18555 18.3105C5.12695 18.5742 4.25781 23.4375 3.25195 29.1016L1.42578 39.4043L1.41602 40.9668C1.41602 42.3145 1.44531 42.6367 1.64062 43.3105C2.08984 44.8633 2.91992 46.2598 4.11133 47.4512C5.12695 48.457 6.63086 49.2969 8.20312 49.7266L9.0332 49.9512H25H40.9668L41.7969 49.7266C43.3691 49.2969 44.873 48.457 45.8887 47.4512C47.0801 46.2598 47.9102 44.8633 48.3594 43.3105C48.5547 42.6367 48.584 42.3145 48.584 40.9668L48.5742 39.4043L46.748 29.1016C45.7422 23.4375 44.873 18.5742 44.8145 18.3105C44.0625 14.8144 41.7871 12.3047 38.4082 11.2598C37.5586 10.9961 37.5195 10.9961 34.1602 10.957C32.2852 10.9375 30.7617 10.8984 30.7617 10.8594C30.7617 10.8203 30.957 10.4102 31.1914 9.9414C31.6992 8.91601 31.8848 8.0957 31.875 6.78711C31.8652 3.78906 29.9023 1.21093 26.9043 0.273434C26.3281 0.0976524 24.5508 -0.0390663 24.0234 0.0585899ZM26.3086 3.19336C29.3457 4.25781 29.8828 8.41796 27.207 10.1953C24.3359 12.0996 20.5762 9.70703 21.1035 6.31836C21.3574 4.69726 22.6953 3.31054 24.2871 3.02734C24.8535 2.92968 25.7812 2.99804 26.3086 3.19336ZM37.2363 14.0234C38.6035 14.3262 40.0977 15.3125 40.8398 16.3867C41.2305 16.9531 41.6504 17.8223 41.7969 18.3496C41.8555 18.5742 42.7637 23.6035 43.8086 29.5215C45.8008 40.8301 45.8496 41.1816 45.5566 42.334C44.9414 44.7754 42.9883 46.5625 40.5176 46.9629C39.6484 47.1094 10.3516 47.1094 9.48242 46.9629C8.0957 46.748 7.07031 46.2109 6.04492 45.1953C4.96094 44.1113 4.29688 42.5391 4.29688 41.0156C4.29688 40.498 4.84375 37.1582 6.19141 29.5215C7.23633 23.6035 8.14453 18.5742 8.20312 18.3496C8.62305 16.7969 9.78516 15.3711 11.2402 14.5996C12.6758 13.8379 11.9238 13.8867 24.9316 13.8769C35.2637 13.8672 36.6113 13.8867 37.2363 14.0234Z" fill="#08908C"/>
<path d="M16.6476 30.798C17.4876 30.798 18.1969 31.0827 18.7756 31.652C19.3542 32.2213 19.6436 32.968 19.6436 33.892C19.6436 34.8347 19.3122 35.6093 18.6496 36.216C17.9962 36.8133 17.1796 37.112 16.1996 37.112C14.7902 37.112 13.6842 36.608 12.8816 35.6L14.2536 34.494C14.7016 35.082 15.3176 35.376 16.1016 35.376C16.5589 35.376 16.9416 35.2313 17.2496 34.942C17.5576 34.6527 17.7116 34.2933 17.7116 33.864C17.7116 33.388 17.5436 33.0193 17.2076 32.758C16.8716 32.4873 16.4889 32.352 16.0596 32.352C15.5089 32.352 15.0282 32.5153 14.6176 32.842L13.6096 32.464L13.9036 27.382H19.1536V29.118H15.5556L15.4436 31.008C15.8916 30.868 16.2929 30.798 16.6476 30.798ZM24.5838 37.112C23.4638 37.112 22.5585 36.678 21.8678 35.81C21.1865 34.9327 20.8458 33.7287 20.8458 32.198C20.8458 30.714 21.1818 29.524 21.8538 28.628C22.5258 27.7227 23.4358 27.27 24.5838 27.27C25.7225 27.27 26.6325 27.7087 27.3138 28.586C27.9952 29.4633 28.3358 30.6673 28.3358 32.198C28.3358 33.682 27.9998 34.872 27.3278 35.768C26.6558 36.664 25.7412 37.112 24.5838 37.112ZM23.2678 34.508C23.5945 35.068 24.0378 35.348 24.5978 35.348C25.1578 35.348 25.5965 35.0773 25.9138 34.536C26.2312 33.9853 26.3898 33.206 26.3898 32.198C26.3898 31.218 26.2312 30.448 25.9138 29.888C25.5965 29.328 25.1578 29.048 24.5978 29.048C24.0378 29.048 23.5945 29.3233 23.2678 29.874C22.9505 30.4153 22.7918 31.19 22.7918 32.198C22.7918 33.1687 22.9505 33.9387 23.2678 34.508ZM34.7879 30.168H36.6079V36.216C36.6079 38.6613 35.4225 39.884 33.0519 39.884C32.0065 39.884 31.0685 39.6553 30.2379 39.198L30.6719 37.644C31.4372 38.0733 32.1745 38.288 32.8839 38.288C33.4999 38.288 33.9759 38.1433 34.3119 37.854C34.6572 37.5647 34.8299 37.2007 34.8299 36.762V36.076H34.7879C34.3025 36.608 33.6399 36.874 32.7999 36.874C31.8479 36.874 31.0639 36.5613 30.4479 35.936C29.8412 35.3107 29.5379 34.5033 29.5379 33.514C29.5379 32.506 29.8365 31.68 30.4339 31.036C31.0312 30.3827 31.7872 30.056 32.7019 30.056C33.5232 30.056 34.2045 30.3267 34.7459 30.868H34.7879V30.168ZM31.8899 34.746C32.2165 35.0633 32.6319 35.222 33.1359 35.222C33.6399 35.222 34.0505 35.0587 34.3679 34.732C34.6945 34.396 34.8579 33.9667 34.8579 33.444C34.8579 32.9307 34.6945 32.5153 34.3679 32.198C34.0412 31.8807 33.6305 31.722 33.1359 31.722C32.6225 31.722 32.2025 31.8853 31.8759 32.212C31.5585 32.5293 31.3999 32.9447 31.3999 33.458C31.3999 33.99 31.5632 34.4193 31.8899 34.746Z" fill="#08908C"/>
</svg>
