<svg width="50" height="50" viewBox="0 0 50 50" fill="none" xmlns="http://www.w3.org/2000/svg">
<path d="M24.0234 0.0585899C21.6797 0.488277 19.8047 1.85546 18.7988 3.88671C18.3105 4.88281 18.125 5.66406 18.125 6.78711C18.1152 8.125 18.3008 8.92578 18.8379 10.0098L19.2969 10.9277L15.8789 10.957C12.4805 10.9961 12.4414 10.9961 11.5918 11.2598C8.21289 12.3047 5.9375 14.8144 5.18555 18.3105C5.12695 18.5742 4.25781 23.4375 3.25195 29.1016L1.42578 39.4043L1.41602 40.9668C1.41602 42.3145 1.44531 42.6367 1.64062 43.3105C2.08984 44.8633 2.91992 46.2598 4.11133 47.4512C5.12695 48.457 6.63086 49.2969 8.20312 49.7266L9.0332 49.9512H25H40.9668L41.7969 49.7266C43.3691 49.2969 44.873 48.457 45.8887 47.4512C47.0801 46.2598 47.9102 44.8633 48.3594 43.3105C48.5547 42.6367 48.584 42.3145 48.584 40.9668L48.5742 39.4043L46.748 29.1016C45.7422 23.4375 44.873 18.5742 44.8145 18.3105C44.0625 14.8144 41.7871 12.3047 38.4082 11.2598C37.5586 10.9961 37.5195 10.9961 34.1602 10.957C32.2852 10.9375 30.7617 10.8984 30.7617 10.8594C30.7617 10.8203 30.957 10.4102 31.1914 9.9414C31.6992 8.91601 31.8848 8.0957 31.875 6.78711C31.8652 3.78906 29.9023 1.21093 26.9043 0.273434C26.3281 0.0976524 24.5508 -0.0390663 24.0234 0.0585899ZM26.3086 3.19336C29.3457 4.25781 29.8828 8.41796 27.207 10.1953C24.3359 12.0996 20.5762 9.70703 21.1035 6.31836C21.3574 4.69726 22.6953 3.31054 24.2871 3.02734C24.8535 2.92968 25.7812 2.99804 26.3086 3.19336ZM37.2363 14.0234C38.6035 14.3262 40.0977 15.3125 40.8398 16.3867C41.2305 16.9531 41.6504 17.8223 41.7969 18.3496C41.8555 18.5742 42.7637 23.6035 43.8086 29.5215C45.8008 40.8301 45.8496 41.1816 45.5566 42.334C44.9414 44.7754 42.9883 46.5625 40.5176 46.9629C39.6484 47.1094 10.3516 47.1094 9.48242 46.9629C8.0957 46.748 7.07031 46.2109 6.04492 45.1953C4.96094 44.1113 4.29688 42.5391 4.29688 41.0156C4.29688 40.498 4.84375 37.1582 6.19141 29.5215C7.23633 23.6035 8.14453 18.5742 8.20312 18.3496C8.62305 16.7969 9.78516 15.3711 11.2402 14.5996C12.6758 13.8379 11.9238 13.8867 24.9316 13.8769C35.2637 13.8672 36.6113 13.8867 37.2363 14.0234Z" fill="#08908C"/>
<path d="M12.2315 30.7865C13.0715 30.7865 13.7809 31.0712 14.3595 31.6405C14.9382 32.2099 15.2275 32.9565 15.2275 33.8805C15.2275 34.8232 14.8962 35.5979 14.2335 36.2045C13.5802 36.8019 12.7635 37.1005 11.7835 37.1005C10.3742 37.1005 9.26819 36.5965 8.46552 35.5885L9.83752 34.4825C10.2855 35.0705 10.9015 35.3645 11.6855 35.3645C12.1429 35.3645 12.5255 35.2199 12.8335 34.9305C13.1415 34.6412 13.2955 34.2819 13.2955 33.8525C13.2955 33.3765 13.1275 33.0079 12.7915 32.7465C12.4555 32.4759 12.0729 32.3405 11.6435 32.3405C11.0929 32.3405 10.6122 32.5039 10.2015 32.8305L9.19352 32.4525L9.48752 27.3705H14.7375V29.1065H11.1395L11.0275 30.9965C11.4755 30.8565 11.8769 30.7865 12.2315 30.7865ZM20.1678 37.1005C19.0478 37.1005 18.1424 36.6665 17.4518 35.7985C16.7704 34.9212 16.4298 33.7172 16.4298 32.1865C16.4298 30.7025 16.7658 29.5125 17.4378 28.6165C18.1098 27.7112 19.0198 27.2585 20.1678 27.2585C21.3064 27.2585 22.2164 27.6972 22.8978 28.5745C23.5791 29.4519 23.9198 30.6559 23.9198 32.1865C23.9198 33.6705 23.5838 34.8605 22.9118 35.7565C22.2398 36.6525 21.3251 37.1005 20.1678 37.1005ZM18.8518 34.4965C19.1784 35.0565 19.6218 35.3365 20.1818 35.3365C20.7418 35.3365 21.1804 35.0659 21.4978 34.5245C21.8151 33.9739 21.9738 33.1945 21.9738 32.1865C21.9738 31.2065 21.8151 30.4365 21.4978 29.8765C21.1804 29.3165 20.7418 29.0365 20.1818 29.0365C19.6218 29.0365 19.1784 29.3119 18.8518 29.8625C18.5344 30.4039 18.3758 31.1785 18.3758 32.1865C18.3758 33.1572 18.5344 33.9272 18.8518 34.4965ZM28.9998 37.1005C27.8798 37.1005 26.9745 36.6665 26.2838 35.7985C25.6025 34.9212 25.2618 33.7172 25.2618 32.1865C25.2618 30.7025 25.5978 29.5125 26.2698 28.6165C26.9418 27.7112 27.8518 27.2585 28.9998 27.2585C30.1385 27.2585 31.0485 27.6972 31.7298 28.5745C32.4111 29.4519 32.7518 30.6559 32.7518 32.1865C32.7518 33.6705 32.4158 34.8605 31.7438 35.7565C31.0718 36.6525 30.1571 37.1005 28.9998 37.1005ZM27.6838 34.4965C28.0105 35.0565 28.4538 35.3365 29.0138 35.3365C29.5738 35.3365 30.0125 35.0659 30.3298 34.5245C30.6471 33.9739 30.8058 33.1945 30.8058 32.1865C30.8058 31.2065 30.6471 30.4365 30.3298 29.8765C30.0125 29.3165 29.5738 29.0365 29.0138 29.0365C28.4538 29.0365 28.0105 29.3119 27.6838 29.8625C27.3665 30.4039 27.2078 31.1785 27.2078 32.1865C27.2078 33.1572 27.3665 33.9272 27.6838 34.4965ZM39.2038 30.1565H41.0238V36.2045C41.0238 38.6499 39.8385 39.8725 37.4678 39.8725C36.4225 39.8725 35.4845 39.6439 34.6538 39.1865L35.0878 37.6325C35.8532 38.0619 36.5905 38.2765 37.2998 38.2765C37.9158 38.2765 38.3918 38.1319 38.7278 37.8425C39.0732 37.5532 39.2458 37.1892 39.2458 36.7505V36.0645H39.2038C38.7185 36.5965 38.0558 36.8625 37.2158 36.8625C36.2638 36.8625 35.4798 36.5499 34.8638 35.9245C34.2572 35.2992 33.9538 34.4919 33.9538 33.5025C33.9538 32.4945 34.2525 31.6685 34.8498 31.0245C35.4472 30.3712 36.2032 30.0445 37.1178 30.0445C37.9392 30.0445 38.6205 30.3152 39.1618 30.8565H39.2038V30.1565ZM36.3058 34.7345C36.6325 35.0519 37.0478 35.2105 37.5518 35.2105C38.0558 35.2105 38.4665 35.0472 38.7838 34.7205C39.1105 34.3845 39.2738 33.9552 39.2738 33.4325C39.2738 32.9192 39.1105 32.5039 38.7838 32.1865C38.4572 31.8692 38.0465 31.7105 37.5518 31.7105C37.0385 31.7105 36.6185 31.8739 36.2918 32.2005C35.9745 32.5179 35.8158 32.9332 35.8158 33.4465C35.8158 33.9785 35.9792 34.4079 36.3058 34.7345Z" fill="#08908C"/>
</svg>
