<svg width="50" height="50" viewBox="0 0 50 50" fill="none" xmlns="http://www.w3.org/2000/svg">
<path d="M24.0234 0.0585899C21.6797 0.488277 19.8047 1.85546 18.7988 3.88671C18.3105 4.88281 18.125 5.66406 18.125 6.78711C18.1152 8.125 18.3008 8.92578 18.8379 10.0098L19.2969 10.9277L15.8789 10.957C12.4805 10.9961 12.4414 10.9961 11.5918 11.2598C8.21289 12.3047 5.9375 14.8144 5.18555 18.3105C5.12695 18.5742 4.25781 23.4375 3.25195 29.1016L1.42578 39.4043L1.41602 40.9668C1.41602 42.3145 1.44531 42.6367 1.64062 43.3105C2.08984 44.8633 2.91992 46.2598 4.11133 47.4512C5.12695 48.457 6.63086 49.2969 8.20312 49.7266L9.0332 49.9512H25H40.9668L41.7969 49.7266C43.3691 49.2969 44.873 48.457 45.8887 47.4512C47.0801 46.2598 47.9102 44.8633 48.3594 43.3105C48.5547 42.6367 48.584 42.3145 48.584 40.9668L48.5742 39.4043L46.748 29.1016C45.7422 23.4375 44.873 18.5742 44.8145 18.3105C44.0625 14.8144 41.7871 12.3047 38.4082 11.2598C37.5586 10.9961 37.5195 10.9961 34.1602 10.957C32.2852 10.9375 30.7617 10.8984 30.7617 10.8594C30.7617 10.8203 30.957 10.4102 31.1914 9.9414C31.6992 8.91601 31.8848 8.0957 31.875 6.78711C31.8652 3.78906 29.9023 1.21093 26.9043 0.273434C26.3281 0.0976524 24.5508 -0.0390663 24.0234 0.0585899ZM26.3086 3.19336C29.3457 4.25781 29.8828 8.41796 27.207 10.1953C24.3359 12.0996 20.5762 9.70703 21.1035 6.31836C21.3574 4.69726 22.6953 3.31054 24.2871 3.02734C24.8535 2.92968 25.7812 2.99804 26.3086 3.19336ZM37.2363 14.0234C38.6035 14.3262 40.0977 15.3125 40.8398 16.3867C41.2305 16.9531 41.6504 17.8223 41.7969 18.3496C41.8555 18.5742 42.7637 23.6035 43.8086 29.5215C45.8008 40.8301 45.8496 41.1816 45.5566 42.334C44.9414 44.7754 42.9883 46.5625 40.5176 46.9629C39.6484 47.1094 10.3516 47.1094 9.48242 46.9629C8.0957 46.748 7.07031 46.2109 6.04492 45.1953C4.96094 44.1113 4.29688 42.5391 4.29688 41.0156C4.29688 40.498 4.84375 37.1582 6.19141 29.5215C7.23633 23.6035 8.14453 18.5742 8.20312 18.3496C8.62305 16.7969 9.78516 15.3711 11.2402 14.5996C12.6758 13.8379 11.9238 13.8867 24.9316 13.8769C35.2637 13.8672 36.6113 13.8867 37.2363 14.0234Z" fill="#08908C"/>
<path d="M9.45542 27.382H15.4334V28.628L12.0874 37.21L10.1974 36.86L13.3474 29.104H9.45542V27.382ZM20.0177 30.798C20.8577 30.798 21.567 31.0827 22.1457 31.652C22.7243 32.2213 23.0137 32.968 23.0137 33.892C23.0137 34.8347 22.6823 35.6093 22.0197 36.216C21.3663 36.8133 20.5497 37.112 19.5697 37.112C18.1603 37.112 17.0543 36.608 16.2517 35.6L17.6237 34.494C18.0717 35.082 18.6877 35.376 19.4717 35.376C19.929 35.376 20.3117 35.2313 20.6197 34.942C20.9277 34.6527 21.0817 34.2933 21.0817 33.864C21.0817 33.388 20.9137 33.0193 20.5777 32.758C20.2417 32.4873 19.859 32.352 19.4297 32.352C18.879 32.352 18.3983 32.5153 17.9877 32.842L16.9797 32.464L17.2737 27.382H22.5237V29.118H18.9257L18.8137 31.008C19.2617 30.868 19.663 30.798 20.0177 30.798ZM27.9539 37.112C26.8339 37.112 25.9286 36.678 25.2379 35.81C24.5566 34.9327 24.2159 33.7287 24.2159 32.198C24.2159 30.714 24.5519 29.524 25.2239 28.628C25.8959 27.7227 26.8059 27.27 27.9539 27.27C29.0926 27.27 30.0026 27.7087 30.6839 28.586C31.3652 29.4633 31.7059 30.6673 31.7059 32.198C31.7059 33.682 31.3699 34.872 30.6979 35.768C30.0259 36.664 29.1112 37.112 27.9539 37.112ZM26.6379 34.508C26.9646 35.068 27.4079 35.348 27.9679 35.348C28.5279 35.348 28.9666 35.0773 29.2839 34.536C29.6012 33.9853 29.7599 33.206 29.7599 32.198C29.7599 31.218 29.6012 30.448 29.2839 29.888C28.9666 29.328 28.5279 29.048 27.9679 29.048C27.4079 29.048 26.9646 29.3233 26.6379 29.874C26.3206 30.4153 26.1619 31.19 26.1619 32.198C26.1619 33.1687 26.3206 33.9387 26.6379 34.508ZM38.1579 30.168H39.9779V36.216C39.9779 38.6613 38.7926 39.884 36.4219 39.884C35.3766 39.884 34.4386 39.6553 33.6079 39.198L34.0419 37.644C34.8073 38.0733 35.5446 38.288 36.2539 38.288C36.8699 38.288 37.3459 38.1433 37.6819 37.854C38.0273 37.5647 38.1999 37.2007 38.1999 36.762V36.076H38.1579C37.6726 36.608 37.0099 36.874 36.1699 36.874C35.2179 36.874 34.4339 36.5613 33.8179 35.936C33.2113 35.3107 32.9079 34.5033 32.9079 33.514C32.9079 32.506 33.2066 31.68 33.8039 31.036C34.4013 30.3827 35.1573 30.056 36.0719 30.056C36.8933 30.056 37.5746 30.3267 38.1159 30.868H38.1579V30.168ZM35.2599 34.746C35.5866 35.0633 36.0019 35.222 36.5059 35.222C37.0099 35.222 37.4206 35.0587 37.7379 34.732C38.0646 34.396 38.2279 33.9667 38.2279 33.444C38.2279 32.9307 38.0646 32.5153 37.7379 32.198C37.4113 31.8807 37.0006 31.722 36.5059 31.722C35.9926 31.722 35.5726 31.8853 35.2459 32.212C34.9286 32.5293 34.7699 32.9447 34.7699 33.458C34.7699 33.99 34.9333 34.4193 35.2599 34.746Z" fill="#08908C"/>
</svg>
