<svg width="40" height="40" viewBox="0 0 40 40" fill="none" xmlns="http://www.w3.org/2000/svg">
<path d="M19.6172 18.9688C19.6055 18.9688 19.5938 18.9724 19.582 18.9761C19.6133 18.9761 19.6445 18.9797 19.6758 18.9834C19.6563 18.9761 19.6367 18.9688 19.6172 18.9688Z" fill="#F7BC0D"/>
<path d="M17.832 18.7109C17.832 18.7031 17.8359 18.6953 17.8359 18.6875C17.8359 18.6836 17.8359 18.6797 17.8398 18.6797C17.8359 18.6875 17.8359 18.6992 17.832 18.7109ZM17.9492 19.8203C17.9492 19.8164 17.9492 19.8125 17.9453 19.8125C17.9492 19.8242 17.9531 19.832 17.957 19.8437C17.957 19.8359 17.9531 19.8281 17.9492 19.8203ZM18.3594 17.6953C18.3633 17.6914 18.3711 17.6836 18.375 17.6797C18.3789 17.6797 18.3789 17.6758 18.3828 17.6719C18.375 17.6797 18.3672 17.6875 18.3594 17.6953ZM18.6719 20.707C18.668 20.707 18.668 20.7031 18.6641 20.6992C18.6719 20.707 18.6836 20.7109 18.6953 20.7188L18.6719 20.707ZM20.5195 17.25C20.5039 17.2422 20.4922 17.2383 20.4766 17.2344C20.4922 17.2383 20.5078 17.2461 20.5195 17.25C20.5352 17.2578 20.5508 17.2617 20.5625 17.2695C20.5508 17.2617 20.5352 17.2578 20.5195 17.25ZM20.6094 17.2891C20.6523 17.3086 20.6953 17.332 20.7383 17.3555C20.6953 17.332 20.6523 17.3086 20.6094 17.2891ZM20.9766 17.5156C21.0039 17.5352 21.0273 17.5547 21.0508 17.5781C21.0273 17.5586 21.0039 17.5352 20.9766 17.5156ZM21.3789 17.9336C21.3906 17.9453 21.3984 17.9609 21.4062 17.9727C21.4141 17.9844 21.418 17.9922 21.4258 18.0039C21.4102 17.9844 21.3945 17.957 21.3789 17.9336Z" fill="#F7BC0D"/>
<path d="M33.0625 20.3125L33.0508 25.6328L33.0312 30.957L32.875 31.293C32.6836 31.7109 32.3477 32.0469 31.9297 32.2383L31.5937 32.3945L27.5352 32.4141L23.4688 32.4336H15.7891L11.7305 32.4141L7.66406 32.3945L7.32812 32.2383C6.91016 32.0469 6.57031 31.7109 6.37891 31.293L6.22266 30.957L6.20312 25.6328L6.19531 20.3125L6.41797 20.4102C7.14844 20.7305 8.04687 20.8984 8.91406 20.8984C9.33203 20.8984 9.74219 20.8594 10.1211 20.7773C10.1836 20.7656 10.2461 20.75 10.3047 20.7344C10.8789 20.5859 11.6523 20.2734 12.043 20.0273C12.2109 19.9258 12.3711 19.8359 12.4219 19.8359C12.4727 19.8359 12.6562 19.9258 12.8437 20.0352C14.7187 21.1328 17.3477 21.1328 19.2227 20.0352C19.4102 19.9258 19.5938 19.8359 19.6289 19.8359C19.6641 19.8359 19.8516 19.9258 20.0391 20.0352C20.4609 20.2813 20.9141 20.4727 21.3828 20.6055C21.5625 20.6563 21.7461 20.6992 21.9336 20.7344C23.457 21.0273 25.1172 20.793 26.418 20.0352C26.5352 19.9648 26.6602 19.9023 26.7891 19.8477C26.8203 19.8477 26.8516 19.8516 26.8828 19.8555C27.0039 19.9102 27.125 19.9727 27.2383 20.043C27.6328 20.2773 28.0508 20.4648 28.4883 20.6016C28.4961 20.6094 28.5039 20.6172 28.5156 20.6289C28.5078 20.6211 28.4961 20.6094 28.4883 20.6016C28.9687 20.7578 29.4687 20.8555 29.9727 20.8945C30.8672 20.9609 32.0469 20.7617 32.8398 20.4141L33.0625 20.3125Z" fill="#F7BC0D"/>
<path d="M34.0859 10.4296C33.5586 8.32414 33.1133 6.69523 33.0352 6.52726C32.8633 6.18742 32.4844 5.83195 32.1055 5.66007L31.832 5.53507L19.7187 5.52336C10.1016 5.51554 7.55859 5.53117 7.36719 5.58976C6.875 5.7382 6.46484 6.07804 6.22266 6.53117C6.14453 6.69914 5.70312 8.33195 5.17187 10.4335C4.29687 13.9374 4.26562 14.0624 4.30078 14.5116C4.46875 16.8554 6.29297 18.7577 8.51562 18.9101C9.07812 18.953 9.64453 18.8827 10.1797 18.7069C10.1836 18.6991 10.1875 18.6913 10.1914 18.6874C10.1875 18.6952 10.1836 18.703 10.1797 18.7109C10.8828 18.4765 11.5195 18.0741 12.0312 17.539L12.4297 17.1171L12.8359 17.5312C14.6406 19.3905 17.4102 19.3905 19.2227 17.5312L19.6211 17.1171L20.0312 17.5312C20.9531 18.4765 22.1211 18.9413 23.2891 18.9257C24.4102 18.9062 25.5273 18.4452 26.418 17.5312L26.8164 17.1171L27.2266 17.539C28.1758 18.5155 29.4258 19.0077 30.7344 18.9101C32.9609 18.7538 34.7813 16.8554 34.9492 14.5116C34.9922 14.0585 34.9648 13.9335 34.0859 10.4296Z" fill="#F7BC0D"/>
<path d="M14.22 28.3054L27.4996 25.267C28.0857 25.1342 28.6131 24.8022 28.9882 24.3336C29.3632 23.8649 29.5703 23.2791 29.5703 22.6776V22.2598C29.5703 21.8653 29.4844 21.4787 29.3125 21.1194C29.1445 20.764 28.8983 20.4476 28.5936 20.2016C28.2888 19.9516 27.9294 19.7759 27.5465 19.6782C27.1636 19.5845 26.7651 19.5767 26.3783 19.6548L13.6261 22.2363C13.2706 22.3105 12.9033 22.3066 12.5439 22.2324C12.1884 22.1582 11.8524 22.0098 11.5554 21.7989C11.2585 21.588 11.0085 21.3185 10.8209 21.01C10.6334 20.6976 10.5084 20.3539 10.4615 19.9946L10.4537 19.9243C10.3638 19.2564 10.5279 18.5769 10.9186 18.0262C11.3093 17.4755 11.8953 17.0928 12.5556 16.96L27.5465 13.902C28.0974 13.7888 28.4412 14.48 28.0193 14.8511L13.7355 27.3603C13.3057 27.7352 13.6652 28.4304 14.22 28.3054Z" fill="#10BAB2"/>
<path d="M27.0738 13.0695C28.1521 13.0695 29.0233 12.1986 29.0233 11.1246C29.0233 10.0506 28.1521 9.17969 27.0738 9.17969C25.9955 9.17969 25.1242 10.0506 25.1242 11.1246C25.1242 12.1986 25.9994 13.0695 27.0738 13.0695Z" fill="#10BAB2"/>
</svg>
