<svg width="24" height="24" viewBox="0 0 24 24" fill="none" xmlns="http://www.w3.org/2000/svg">
<g clip-path="url(#clip0_1_5601)">
<path d="M1.68283 0.88604C1.09689 1.07354 0.637514 1.44385 0.309389 1.98292C-0.0187359 2.53604 1.41332e-05 1.90323 1.41332e-05 12.0001C1.41332e-05 22.097 -0.0187359 21.4642 0.309389 22.0173C0.642202 22.5657 1.13439 22.9548 1.7297 23.1282C1.95939 23.1939 2.97189 23.2032 12 23.2032C23.0578 23.2032 22.1953 23.2267 22.7953 22.9079C23.325 22.6267 23.8172 21.9564 23.9485 21.3376C24.0234 20.986 24.0234 3.01417 23.9485 2.6626C23.8172 2.04385 23.325 1.37354 22.7953 1.09229C22.1953 0.77354 23.0625 0.796978 11.9813 0.801666C2.49845 0.801666 1.93126 0.806353 1.68283 0.88604ZM21.9516 2.40948C22.1485 2.48917 22.3406 2.71885 22.4063 2.94385C22.4344 3.05167 22.4531 3.87198 22.4531 5.07198V7.03135H12H1.54689V5.07198C1.54689 3.87198 1.56564 3.05167 1.59376 2.94385C1.6547 2.72354 1.85158 2.48917 2.03908 2.40948C2.2547 2.31573 21.7266 2.31573 21.9516 2.40948ZM6.28126 15.1407V21.6564H4.2422C2.62501 21.6564 2.17033 21.6423 2.04845 21.5907C1.85158 21.511 1.65939 21.2814 1.59376 21.0564C1.56564 20.9392 1.54689 18.8251 1.54689 14.7517V8.6251H3.91408H6.28126V15.1407ZM22.4438 14.8454C22.4297 21.811 22.4578 21.2251 22.0922 21.5017L21.9235 21.6329L14.8735 21.647L7.82814 21.6564V15.1407V8.6251H15.1406H22.4531L22.4438 14.8454Z" fill="#888888" fill-opacity="0.6"/>
<path d="M3.7547 3.94252C3.55782 3.98471 3.38438 4.11127 3.24376 4.31752C3.08907 4.53784 3.11251 4.93627 3.29532 5.17065C3.63282 5.61596 4.34532 5.55034 4.59845 5.04877C4.88907 4.48159 4.37813 3.81127 3.7547 3.94252Z" fill="#888888" fill-opacity="0.6"/>
<path d="M6.87188 3.94688C6.49219 4.02656 6.28125 4.30313 6.28125 4.725C6.28125 4.88438 6.31406 5.00156 6.38906 5.11406C6.50625 5.29688 6.84375 5.48438 7.05 5.48438C7.26094 5.48438 7.55625 5.32031 7.6875 5.12344C7.84219 4.89375 7.85156 4.47656 7.70625 4.28438C7.49063 3.99375 7.2 3.87656 6.87188 3.94688Z" fill="#888888" fill-opacity="0.6"/>
<path d="M10.0313 3.9374C9.70783 3.99365 9.50626 4.18115 9.42189 4.50459C9.35626 4.74365 9.42658 5.01553 9.61408 5.22647C9.87658 5.52647 10.3641 5.55459 10.6641 5.29209C11.2735 4.75772 10.8235 3.79678 10.0313 3.9374Z" fill="#888888" fill-opacity="0.6"/>
<path d="M9.91409 11.2737C9.53909 11.4096 9.32347 11.8127 9.42659 12.1971C9.49222 12.4455 9.72659 12.6799 9.97034 12.7455C10.1063 12.783 11.6391 12.7971 15.2438 12.7877L20.3203 12.7737L20.4844 12.6705C20.9719 12.3658 20.9719 11.6346 20.4844 11.3299L20.3203 11.2268L15.211 11.2174C10.8938 11.208 10.0735 11.2174 9.91409 11.2737Z" fill="#888888" fill-opacity="0.6"/>
<path d="M9.86722 14.4094C9.78753 14.4422 9.66565 14.5406 9.59534 14.6203C9.28128 14.9953 9.3469 15.5062 9.73597 15.7734L9.91409 15.8906H15.1219H20.3297L20.4891 15.7828C20.761 15.6 20.8688 15.3937 20.85 15.0891C20.8266 14.7703 20.686 14.5547 20.4188 14.4328C20.236 14.3484 20.0016 14.3437 15.1172 14.3484C10.9735 14.3484 9.97972 14.3578 9.86722 14.4094Z" fill="#888888" fill-opacity="0.6"/>
<path d="M9.89065 17.5359C9.69846 17.6109 9.46877 17.8687 9.41721 18.0609C9.32815 18.3984 9.47815 18.7547 9.79221 18.9281L9.97502 19.0312L15.1781 19.0219C20.3531 19.0078 20.386 19.0078 20.5125 18.9094C20.7235 18.7547 20.8266 18.5812 20.8453 18.3422C20.8781 18.0469 20.7797 17.8172 20.55 17.6437L20.3766 17.5078L15.1922 17.4984C11.8266 17.4937 9.96565 17.5078 9.89065 17.5359Z" fill="#888888" fill-opacity="0.6"/>
</g>
<defs>
<clipPath id="clip0_1_5601">
<rect width="24" height="24" fill="white"/>
</clipPath>
</defs>
</svg>
