<svg width="28" height="28" viewBox="0 0 28 28" fill="none" xmlns="http://www.w3.org/2000/svg">
<path d="M18.8945 3.57662C18.3804 3.80084 18.2164 4.49537 18.5773 4.9274C18.8125 5.20631 18.9929 5.25006 19.8625 5.25006H20.6445L19.1023 6.79225C17.4398 8.46022 17.4343 8.47115 17.5273 8.9524C17.5765 9.22037 17.9047 9.5485 18.1726 9.59772C18.6539 9.69068 18.6648 9.68522 20.3273 8.02818L21.8695 6.49147L21.8859 7.34459C21.9023 8.10475 21.9132 8.21412 22.0172 8.34537C22.2304 8.63522 22.4054 8.72272 22.75 8.72272C23.0945 8.72272 23.2695 8.63522 23.4828 8.34537C23.5922 8.19772 23.5976 8.13209 23.5976 6.13053V4.06334L23.45 3.87193C23.1656 3.50553 23.1492 3.50006 20.989 3.50006C19.507 3.50553 19.0203 3.52193 18.8945 3.57662Z" fill="#888888" fill-opacity="0.6"/>
<path d="M12.5836 3.64228C9.99687 3.99228 7.61796 5.31571 5.93359 7.33368C3.89374 9.77821 3.06796 13.0977 3.72968 16.1876C4.30937 18.9001 5.87343 21.2134 8.1703 22.7556C12.3101 25.5392 17.8555 25.0087 21.3883 21.4923C23.1383 19.7477 24.2101 17.4837 24.4508 15.0118C24.5656 13.8579 24.418 12.0751 24.1828 11.7579C24.1281 11.6813 23.9969 11.561 23.893 11.4954C23.7398 11.386 23.6523 11.3696 23.4008 11.386C22.8211 11.4298 22.5476 11.7743 22.6078 12.4087C22.6898 13.2727 22.7062 14.6509 22.6461 15.1212C22.0719 19.4688 18.3422 22.7501 13.9726 22.7501C9.73437 22.7501 6.07577 19.6657 5.3539 15.4767C5.20624 14.6181 5.20624 13.3821 5.3539 12.5235C5.98827 8.84306 8.90312 5.9665 12.6055 5.354C12.8187 5.32118 13.4859 5.27743 14.093 5.25556C15.0883 5.22821 15.2086 5.21181 15.3453 5.1079C15.6242 4.90009 15.7226 4.71962 15.7226 4.40243C15.7226 4.07431 15.6133 3.8829 15.3125 3.67509C15.143 3.56025 15.0828 3.55478 14.1422 3.56025C13.5953 3.56571 12.8953 3.59853 12.5836 3.64228Z" fill="#888888" fill-opacity="0.6"/>
<path d="M13.6445 7.95186C13.2398 8.13779 13.125 8.40576 13.125 9.15498V9.71279L12.7312 9.80576C11.7961 10.03 11.0851 10.5605 10.7461 11.2769C10.3086 12.1956 10.4781 13.087 11.2492 13.9019C11.8234 14.5034 12.6055 14.7878 13.8961 14.8698C14.9625 14.9409 15.3726 15.0995 15.6734 15.5589C15.8703 15.8542 15.5367 16.3026 14.9789 16.494C14.5578 16.6417 13.4422 16.6417 13.0211 16.494C12.6273 16.3573 12.3156 16.0729 12.2719 15.8159C12.2117 15.4331 12.1351 15.2636 11.9492 15.0995C11.4789 14.6894 10.7242 14.8972 10.5437 15.4878C10.4562 15.7886 10.5547 16.3245 10.7789 16.7784C11.118 17.4456 11.9766 18.0745 12.7641 18.2331L13.0976 18.3042L13.125 18.9386C13.1523 19.6222 13.2016 19.7425 13.5297 19.9831C13.743 20.1417 14.257 20.1417 14.4703 19.9831C14.7984 19.7425 14.8476 19.6222 14.875 18.9386L14.9023 18.3097L15.3016 18.2058C16.4883 17.905 17.2867 17.1284 17.4617 16.1003C17.5766 15.4222 17.3414 14.7331 16.7836 14.137C16.182 13.4917 15.4219 13.2128 14.0766 13.1253C13.6281 13.0979 13.1797 13.0542 13.0867 13.0214C12.6164 12.8792 12.25 12.5456 12.25 12.2503C12.25 12.0315 12.4578 11.769 12.7586 11.6269C13.1578 11.43 13.6117 11.3589 14.2187 11.3917C15.0937 11.4409 15.6516 11.7308 15.7226 12.1847C15.7883 12.5675 15.8648 12.737 16.0508 12.9011C16.6305 13.4097 17.5 12.9886 17.5 12.2011C17.5 11.9003 17.325 11.3698 17.1172 11.0472C16.7453 10.4675 15.9578 9.94795 15.2141 9.78936L14.8859 9.72373L14.8641 9.07295C14.8476 8.37842 14.8039 8.26358 14.4812 8.02295C14.2953 7.88623 13.8633 7.84795 13.6445 7.95186Z" fill="#888888" fill-opacity="0.6"/>
</svg>
