<svg width="24" height="20" viewBox="0 0 24 20" fill="none" xmlns="http://www.w3.org/2000/svg">
<path d="M10.5469 0.278124C8.26875 0.535936 6.27656 1.72656 5.03438 3.56406C4.46719 4.40312 4.02188 5.52344 3.85313 6.53125L3.77344 7.02344L3.54844 7.05625C2.84531 7.15469 2.26406 7.45469 1.70625 8.00781C1.39219 8.31719 1.28906 8.4625 1.11094 8.82812C0.782813 9.50312 0.75 9.73281 0.75 11.4953C0.75 13.2719 0.782813 13.5109 1.10625 14.1719C1.28906 14.5422 1.39688 14.6875 1.72969 15.0203C2.06719 15.3578 2.20781 15.4609 2.57813 15.6391C3.24844 15.9672 3.52969 16.0094 5.025 15.9906C6.20156 15.9766 6.28125 15.9719 6.40313 15.8781C6.47344 15.8266 6.57656 15.7234 6.62813 15.6531C6.72656 15.5266 6.72656 15.4937 6.72656 11.5C6.72656 7.50625 6.72656 7.47344 6.62813 7.34687C6.42188 7.07031 6.31406 7.02344 5.78438 7.00937L5.29219 6.99062L5.325 6.82187C5.55469 5.47656 6.15469 4.34687 7.125 3.42344C7.80938 2.77187 8.52656 2.34062 9.39844 2.05469C10.1297 1.81562 10.6828 1.75 12 1.75C13.3219 1.75 13.8703 1.81562 14.6156 2.05937C15.5438 2.36406 16.3547 2.875 17.0531 3.59687C17.9062 4.48281 18.45 5.55625 18.675 6.82187L18.7078 6.99062L18.2156 7.00937C17.6859 7.02344 17.5781 7.07031 17.3719 7.34687C17.2734 7.47344 17.2734 7.50625 17.2734 11.5C17.2734 15.4937 17.2734 15.5266 17.3719 15.6531C17.5734 15.9297 17.6906 15.9766 18.1875 15.9906L18.6469 16.0094L18.5859 16.1828C18.2203 17.2281 17.3953 17.9594 16.3453 18.175C16.0969 18.2266 15.7313 18.25 15.1219 18.25H14.2594L14.2406 17.7391C14.2266 17.1859 14.1844 17.0781 13.9031 16.8719C13.7203 16.7359 13.2797 16.7359 13.0969 16.8719C12.7781 17.1109 12.7734 17.1203 12.7734 18.25C12.7734 19.3797 12.7781 19.3937 13.0969 19.6281C13.2234 19.7219 13.2844 19.7266 14.8266 19.7266C16.1953 19.7266 16.4766 19.7125 16.7531 19.6422C17.8078 19.375 18.7359 18.7609 19.3547 17.9266C19.6641 17.5141 19.9922 16.8203 20.1 16.3469L20.1891 15.9766L20.4281 15.9484C21.1266 15.8594 21.7313 15.55 22.2984 14.9875C22.6125 14.6734 22.7156 14.5281 22.8938 14.1672C23.2172 13.4875 23.25 13.2531 23.25 11.5C23.25 9.74687 23.2172 9.5125 22.8938 8.83281C22.7156 8.47187 22.6125 8.32656 22.2984 8.0125C21.7406 7.45937 21.1594 7.15469 20.4516 7.05625L20.2266 7.02344L20.1891 6.78906C20.0438 5.88906 19.8094 5.12969 19.4531 4.41719C18.4125 2.32187 16.4906 0.859375 14.1703 0.385937C13.7203 0.292187 13.4953 0.282812 12.1875 0.273438C11.3766 0.264061 10.6359 0.268749 10.5469 0.278124ZM5.25 11.5047V14.5094L4.44375 14.4906C3.73594 14.4766 3.6 14.4578 3.36563 14.3641C2.98594 14.2188 2.61563 13.8625 2.42813 13.4781L2.27344 13.1641V11.5V9.83594L2.42344 9.52656C2.6625 9.04375 3.12188 8.66875 3.63281 8.54219C3.7125 8.52344 4.10625 8.50937 4.51406 8.50469L5.25 8.5V11.5047ZM20.7281 8.67812C21.1125 8.86562 21.4641 9.23594 21.6188 9.61562C21.7266 9.87812 21.7266 9.91562 21.7266 11.5C21.7266 13.0984 21.7266 13.1219 21.6141 13.3984C21.4594 13.7875 21.0328 14.2094 20.6484 14.3594C20.4 14.4578 20.2734 14.4766 19.5609 14.4906L18.75 14.5094V11.5V8.49062L19.5844 8.50937C20.4141 8.52344 20.4188 8.52344 20.7281 8.67812Z" fill="#888888" fill-opacity="0.6" stroke="#888888" stroke-opacity="0.6" stroke-width="0.3"/>
</svg>
