<svg width="24" height="24" viewBox="0 0 24 24" fill="none" xmlns="http://www.w3.org/2000/svg">
<path d="M7.6922 1.57517C6.90001 1.78611 6.28126 2.41892 6.07032 3.22049C5.97189 3.60017 5.9672 10.5611 6.06564 10.9783L6.12657 11.2502H4.80939C3.77345 11.2502 3.42657 11.2642 3.21095 11.3205C2.4047 11.5314 1.78126 12.1596 1.57032 12.9705C1.4672 13.3689 1.4672 20.3814 1.57032 20.7799C1.78595 21.6142 2.47501 22.2799 3.29532 22.4533C3.46876 22.4861 4.67814 22.5002 7.2422 22.4908C11.3906 22.4721 11.1422 22.4955 11.7094 22.1252L12 21.9377L12.2906 22.1252C12.8578 22.4955 12.6094 22.4721 16.7578 22.4908C19.3219 22.5002 20.5313 22.4861 20.7047 22.4533C21.525 22.2799 22.2141 21.6142 22.4297 20.7799C22.5375 20.3721 22.5328 13.3689 22.4297 12.9611C22.2188 12.1549 21.5906 11.5314 20.7797 11.3205C20.5735 11.2642 20.2125 11.2502 19.1906 11.2502H17.8735L17.9344 10.9783C17.986 10.7674 18 9.97049 18 7.10174C18 4.00799 17.9906 3.45017 17.9297 3.21111C17.7188 2.40486 17.0906 1.78143 16.2797 1.57049C15.886 1.46736 8.07657 1.47205 7.6922 1.57517ZM9.75939 4.32205C9.77345 5.58768 9.77814 5.65799 9.88126 5.85955C10.0453 6.19705 10.2328 6.39393 10.5563 6.56736L10.8516 6.72674H12H13.1484L13.3875 6.60018C13.7438 6.41268 13.8891 6.27205 14.0672 5.94393L14.2266 5.64861L14.2406 4.32205L14.2547 2.99549L15.1406 3.00955C16.1063 3.02361 16.1484 3.03768 16.3781 3.34705C16.4766 3.47361 16.4766 3.51111 16.4766 7.12518C16.4766 10.7392 16.4766 10.7767 16.3781 10.9033C16.3266 10.9736 16.2235 11.0767 16.1531 11.1283C16.0266 11.2267 15.9938 11.2267 12 11.2267C8.00626 11.2267 7.97345 11.2267 7.84689 11.1283C7.77658 11.0767 7.67345 10.9736 7.62189 10.9033C7.52345 10.7767 7.52345 10.7252 7.50939 7.25174C7.50001 5.31111 7.50939 3.66111 7.52345 3.57674C7.55626 3.38924 7.75314 3.15018 7.94532 3.0658C8.04376 3.02361 8.33439 3.00486 8.91564 3.00018H9.74533L9.75939 4.32205ZM12.75 4.12518V5.25018H12H11.25V4.12518V3.00018H12H12.75V4.12518ZM4.50939 13.6971C4.52345 14.5689 4.53282 14.6674 4.63126 14.8596C4.79532 15.1924 4.98282 15.3939 5.30626 15.5674L5.60157 15.7267H7.12501H8.64845L8.94376 15.5674C9.27189 15.3892 9.41251 15.2439 9.60001 14.8877C9.72189 14.6533 9.72657 14.6205 9.74064 13.6971L9.75939 12.7408L10.2656 12.7596C10.8141 12.7736 10.9219 12.8158 11.1281 13.0971C11.2266 13.2236 11.2266 13.2611 11.2266 16.8752C11.2266 20.4892 11.2266 20.5267 11.1281 20.6533C11.0766 20.7236 10.9734 20.8267 10.9031 20.8783C10.7766 20.9767 10.7391 20.9767 7.12501 20.9767C3.51095 20.9767 3.47345 20.9767 3.34689 20.8783C3.27657 20.8267 3.17345 20.7236 3.12189 20.6533C3.02345 20.5267 3.02345 20.4752 3.00939 17.0017C3.00001 15.0611 3.00939 13.4111 3.02345 13.3267C3.05626 13.1392 3.25314 12.9002 3.44532 12.8158C3.5297 12.7783 3.76876 12.7549 4.04064 12.7502H4.49064L4.50939 13.6971ZM8.25001 13.5002V14.2502H7.12501H6.00001V13.5002V12.7502H7.12501H8.25001V13.5002ZM14.2594 13.6971C14.2734 14.5689 14.2828 14.6674 14.3813 14.8596C14.5453 15.1924 14.7328 15.3939 15.0563 15.5674L15.3516 15.7267H16.875H18.3985L18.6938 15.5674C19.0219 15.3892 19.1625 15.2439 19.35 14.8877C19.4719 14.6533 19.4766 14.6205 19.4906 13.6971L19.5094 12.7408L20.0156 12.7596C20.5641 12.7736 20.6719 12.8158 20.8781 13.0971C20.9766 13.2236 20.9766 13.2611 20.9766 16.8752C20.9766 20.4892 20.9766 20.5267 20.8781 20.6533C20.8266 20.7236 20.7234 20.8267 20.6531 20.8783C20.5266 20.9767 20.4891 20.9767 16.875 20.9767C13.261 20.9767 13.2234 20.9767 13.0969 20.8783C13.0266 20.8267 12.9235 20.7236 12.8719 20.6533C12.7734 20.5267 12.7734 20.4752 12.7594 17.0017C12.75 15.0611 12.7594 13.4111 12.7734 13.3267C12.8063 13.1392 13.0031 12.9002 13.1953 12.8158C13.2797 12.7783 13.5188 12.7549 13.7906 12.7502H14.2406L14.2594 13.6971ZM18 13.5002V14.2502H16.875H15.75V13.5002V12.7502H16.875H18V13.5002Z" fill="#888888" fill-opacity="0.6"/>
</svg>
