<svg width="26" height="26" viewBox="0 0 26 26" fill="none" xmlns="http://www.w3.org/2000/svg">
<g clip-path="url(#clip0_1_5559)">
<path d="M17.2301 2.65078C14.3863 5.49453 14.4219 5.44883 14.5945 5.77891C14.7519 6.08867 14.7875 6.09375 16.0824 6.09375H17.2656V6.98242C17.2656 7.46992 17.2555 7.87109 17.2453 7.87109C17.2301 7.87109 17.032 7.73399 16.7984 7.56641C16.0062 6.99766 15.0109 6.58633 14.0461 6.41875C13.3199 6.29688 12.1418 6.3375 11.4766 6.51524C10.5676 6.75391 9.7703 7.13477 9.06952 7.66289L8.7496 7.90664L8.59725 7.72383L8.44491 7.54102L5.99726 7.52578C3.88983 7.51562 3.52929 7.52578 3.3871 7.5918C3.05194 7.74922 3.07226 7.29219 3.05702 13.8988L3.04686 19.9062H1.87382H0.700771L0.528115 20.0789C0.335146 20.2719 0.304678 20.475 0.426553 20.7086C0.517959 20.8762 5.51483 25.8629 5.67226 25.9441C5.73319 25.9746 5.86015 26 5.95155 26C6.1039 26 6.34257 25.7766 8.76991 23.3492C11.6137 20.5055 11.5781 20.5512 11.4055 20.2211C11.248 19.9113 11.2125 19.9062 9.91757 19.9062H8.73436V19.0176C8.73436 18.5301 8.74452 18.1289 8.75468 18.1289C8.76991 18.1289 8.96796 18.266 9.19647 18.4285C11.1719 19.8453 13.7566 20.0484 15.9148 18.9617C16.3617 18.7383 17.0523 18.2863 17.1691 18.1492C17.2199 18.0883 17.2555 18.1086 17.3926 18.266L17.5601 18.459L20.0027 18.4742C22.1101 18.4844 22.4707 18.4742 22.6129 18.4082C22.948 18.2508 22.9277 18.7078 22.943 12.0961L22.9531 6.09375H24.1262H25.2992L25.4719 5.92109C25.6648 5.72813 25.6953 5.525 25.5734 5.29141C25.482 5.12383 20.4851 0.13711 20.3277 0.0558605C20.2668 0.0253906 20.1398 0 20.0484 0C19.8961 0 19.6574 0.223438 17.2301 2.65078ZM22.9531 5.02734C22.1508 5.05273 22.1406 5.05273 22.0035 5.19492L21.8613 5.33203L21.8461 11.3496L21.8359 17.3672H20.084H18.332V17.159C18.332 17.0066 18.3828 16.8848 18.5351 16.6562C19.8504 14.7164 20.018 12.1773 18.9668 10.0902C18.8398 9.84649 18.6469 9.51133 18.5351 9.34375L18.332 9.04414V7.23633C18.332 5.27617 18.3219 5.21016 18.0527 5.08828C17.9715 5.04766 17.6414 5.02734 17.1488 5.02734H16.3769L18.2305 3.17383L20.084 1.32031L21.9273 3.15859L23.7656 5.00195L22.9531 5.02734ZM14.1933 7.53594C15.3207 7.78477 16.3363 8.33828 17.0117 9.07969C17.8394 9.98359 18.2457 10.7605 18.4945 11.9082C18.5808 12.3043 18.5808 13.6957 18.4945 14.0918C18.1238 15.8184 17.1031 17.1945 15.6406 17.9461C14.7621 18.398 14.0664 18.5605 13 18.5605C11.9336 18.5605 11.2379 18.398 10.3594 17.9461C9.15077 17.3266 8.17577 16.1992 7.73905 14.9145C7.35819 13.8074 7.31757 12.6191 7.62225 11.441C7.74921 10.9434 8.20116 10.0141 8.49061 9.65352C8.85624 9.19649 9.45038 8.6125 9.79569 8.38399C10.4609 7.93203 11.3191 7.59688 12.1621 7.46484C12.5887 7.39883 13.7668 7.43945 14.1933 7.53594ZM7.66796 8.83594C7.66796 8.98828 7.6121 9.12539 7.40897 9.43008C6.69804 10.5219 6.34765 11.6949 6.34765 12.9949C6.34765 14.3 6.69804 15.4781 7.40897 16.5699L7.66796 16.966V18.7688C7.66796 20.673 7.68319 20.7949 7.90663 20.9016C7.95741 20.927 8.35858 20.9574 8.80038 20.9727L9.59765 20.998L7.75936 22.8414L5.91601 24.6797L4.06249 22.8262L2.20897 20.9727H3.00624H3.80858L3.97108 20.8254L4.13866 20.6781L4.1539 14.6555L4.16405 8.63281H5.91601H7.66796V8.83594Z" fill="#888888" fill-opacity="0.6"/>
<path d="M23.0529 6.19375H24.1262H25.2992H25.3406L25.3699 6.16446L25.5426 5.99181C25.6496 5.88482 25.7188 5.76753 25.7395 5.63714C25.7602 5.50657 25.7301 5.37561 25.6621 5.24515L25.6612 5.24351C25.6526 5.2277 25.6378 5.20985 25.6271 5.19729C25.6138 5.18159 25.5963 5.16181 25.5751 5.13856C25.5327 5.09193 25.4736 5.02907 25.4006 4.9526C25.2544 4.79953 25.0507 4.59028 24.8087 4.34399C24.3246 3.85134 23.6863 3.20951 23.046 2.57048C22.4057 1.93145 21.7632 1.29501 21.2709 0.813158C21.0247 0.572275 20.8159 0.369772 20.6635 0.224821C20.5874 0.152407 20.5249 0.0939445 20.4787 0.0521107C20.4557 0.0312557 20.4362 0.0139828 20.4207 0.000984192C20.4089 -0.0089035 20.3904 -0.0243359 20.3736 -0.0330009L20.3724 -0.0335884C20.3304 -0.0546246 20.2734 -0.0707016 20.2191 -0.0815544C20.1635 -0.0926685 20.1022 -0.1 20.0484 -0.1C19.979 -0.1 19.9145 -0.0715351 19.8267 -0.00829887C19.7391 0.0547676 19.615 0.162592 19.4239 0.342281C19.0403 0.702885 18.3725 1.36695 17.1594 2.58007L16.9863 2.75308C15.6819 4.05738 15.0196 4.71963 14.7047 5.093C14.5431 5.28462 14.4578 5.41668 14.4354 5.53171C14.4126 5.64934 14.4588 5.73642 14.497 5.80833C14.4999 5.81389 14.5028 5.81936 14.5056 5.82475C14.5439 5.90009 14.5824 5.97346 14.6419 6.0308C14.7052 6.09179 14.7842 6.12786 14.8913 6.15036C14.996 6.17233 15.1344 6.18274 15.3229 6.18808C15.5126 6.19344 15.7591 6.19375 16.0824 6.19375H17.1656V6.98242C17.1656 7.22557 17.1631 7.44694 17.1593 7.60721C17.1585 7.6398 17.1577 7.66974 17.1568 7.69675C17.0775 7.64231 16.9716 7.56758 16.8567 7.48517C16.8567 7.48517 16.8567 7.48516 16.8567 7.48515L16.7984 7.56641C16.0062 6.99766 15.0109 6.58633 14.0461 6.41875L23.0529 6.19375ZM23.0529 6.19375L23.043 12.0963V12.0963C23.0421 12.4582 23.0414 12.7989 23.0407 13.1198C23.0351 15.7281 23.0324 17.0231 22.9977 17.6778C22.988 17.862 22.9756 17.9986 22.9593 18.1009C22.9433 18.2019 22.9224 18.2771 22.8913 18.3335C22.8573 18.3953 22.8139 18.4296 22.7667 18.4527C22.7469 18.4625 22.7263 18.4703 22.7096 18.4766L22.7071 18.4775C22.6887 18.4845 22.6724 18.4907 22.6554 18.4987L22.655 18.4989C22.6054 18.5219 22.544 18.5365 22.453 18.5471C22.3616 18.5577 22.2337 18.565 22.0473 18.5697C21.6741 18.5793 21.0555 18.5793 20.0022 18.5742L20.0021 18.5742L17.5595 18.559L17.5143 18.5587L17.4846 18.5246L17.3172 18.3317C17.2832 18.2927 17.2573 18.2643 17.2367 18.244C17.233 18.2403 17.2297 18.2371 17.2266 18.2343C17.1858 18.2759 17.1207 18.3279 17.0461 18.383C16.9559 18.4497 16.8429 18.5272 16.7203 18.6069C16.4753 18.7662 16.1876 18.9371 15.9597 19.0511C13.7682 20.1545 11.1438 19.9481 9.13834 18.5099C9.02619 18.4301 8.92184 18.3568 8.84313 18.303C8.84228 18.3301 8.84146 18.3601 8.84068 18.3928C8.8369 18.5531 8.83436 18.7744 8.83436 19.0176V19.8063H9.91757C10.2408 19.8063 10.4874 19.8066 10.677 19.8119C10.8656 19.8173 11.004 19.8277 11.1086 19.8496C11.2158 19.8721 11.2947 19.9082 11.358 19.9692C11.4176 20.0265 11.456 20.0999 11.4943 20.1753C11.4972 20.1806 11.5001 20.1861 11.503 20.1917C11.5412 20.2636 11.5874 20.3507 11.5646 20.4683C11.5422 20.5833 11.4569 20.7154 11.2953 20.907C10.9803 21.2804 10.318 21.9427 9.01349 23.2471C8.95707 23.3035 8.89946 23.3611 8.84062 23.4199C7.6275 24.6331 6.95964 25.2971 6.57611 25.6577C6.38499 25.8374 6.26084 25.9452 6.1733 26.0083C6.08552 26.0715 6.02098 26.1 5.95155 26.1C5.89776 26.1 5.83644 26.0927 5.78087 26.0816C5.7266 26.0707 5.66962 26.0546 5.62753 26.0336L5.62753 26.0336L5.62639 26.033C5.6096 26.0243 5.59106 26.0089 5.57929 25.999C5.56382 25.986 5.54426 25.9687 5.52125 25.9479C5.47509 25.9061 5.41262 25.8476 5.33649 25.7752C5.18409 25.6302 4.97523 25.4277 4.72911 25.1868C4.23677 24.705 3.5943 24.0685 2.95401 23.4295C2.31371 22.7905 1.67537 22.1487 1.19129 21.656C0.949294 21.4097 0.745601 21.2005 0.599422 21.0474C0.526391 20.9709 0.467313 20.9081 0.424859 20.8614C0.403688 20.8382 0.386127 20.8184 0.372846 20.8027C0.362221 20.7901 0.347396 20.7723 0.338763 20.7565L0.338748 20.7565L0.337894 20.7549C0.269829 20.6244 0.239801 20.4934 0.260501 20.3629C0.281172 20.2325 0.35042 20.1152 0.457404 20.0082L0.630061 19.8355L0.65935 19.8063H0.700771H1.87382H2.94703L2.95702 13.8987L2.95702 13.8986C2.95785 13.537 2.95858 13.1966 2.95927 12.876C2.96483 10.2697 2.96759 8.97569 3.00223 8.32157C3.01198 8.13751 3.02438 8.00103 3.04063 7.89886C3.05669 7.79795 3.07761 7.72278 3.10869 7.66637C3.14272 7.60459 3.18607 7.57039 3.23328 7.54724C3.2531 7.53752 3.27368 7.52974 3.29041 7.52341L3.29293 7.52246C3.31132 7.5155 3.32755 7.50928 3.34458 7.50128L3.34499 7.5011C3.39459 7.47807 3.45594 7.46346 3.54702 7.45287C3.63837 7.44226 3.76628 7.43504 3.95265 7.43026C4.32583 7.42069 4.94451 7.42071 5.99774 7.42578H5.99788L8.44553 7.44102L8.49199 7.44131L8.52173 7.477L8.67408 7.65981L8.76514 7.76908L9.00891 7.58335L9.00933 7.58303C9.72114 7.04659 10.5304 6.6603 11.4511 6.41854L23.0529 6.19375ZM22.95 4.92739H22.9499L22.9271 4.92812C22.5454 4.94019 22.3381 4.94675 22.2116 4.96882C22.1437 4.98069 22.0911 4.99813 22.0441 5.02742C21.9997 5.05503 21.9655 5.09028 21.9328 5.12422L21.7919 5.26005L21.7614 5.28944L21.7613 5.33178L21.7461 11.3494V11.3494L21.7361 17.2672H20.084H18.432V17.159C18.432 17.0373 18.4687 16.9362 18.6181 16.712C18.6182 16.7119 18.6183 16.7118 18.6183 16.7117L18.5351 16.6562C19.8504 14.7164 20.018 12.1773 18.9668 10.0902L22.95 4.92739ZM22.95 4.92739L23.5319 4.90921M22.95 4.92739L23.5319 4.90921M23.5319 4.90921L21.8567 3.2294L21.8565 3.22921L20.0841 1.46164L18.3012 3.24454L16.6184 4.92734H17.1488C17.3961 4.92734 17.6042 4.93243 17.7616 4.94279C17.8402 4.94797 17.9075 4.95455 17.9615 4.96276C18.011 4.97029 18.0599 4.98061 18.0954 4.99786C18.1634 5.02866 18.2359 5.06461 18.2911 5.1413C18.3447 5.21586 18.3738 5.31711 18.3925 5.45999C18.4297 5.74501 18.432 6.26042 18.432 7.23633V9.01344L23.5319 4.90921ZM20.0027 18.4742C22.1101 18.4844 22.4707 18.4742 22.6129 18.4082C22.6617 18.3853 22.703 18.3754 22.738 18.3547C22.9429 18.2338 22.9299 17.7439 22.943 12.0961L20.0027 18.4742ZM14.1718 7.63359L14.1713 7.63347C13.968 7.58748 13.575 7.55334 13.1742 7.53939C12.7734 7.52544 12.3805 7.53223 12.1774 7.56367C11.3484 7.69354 10.5043 8.02347 9.85189 8.46671L9.85088 8.46738C9.51756 8.68796 8.93089 9.26325 8.5687 9.71599L8.56859 9.71612C8.43107 9.88742 8.24963 10.2017 8.08544 10.5396C7.92152 10.8769 7.78017 11.2266 7.71915 11.4657L7.71907 11.4661C7.41911 12.6259 7.45938 13.7941 7.83361 14.8819L7.83373 14.8823C8.26207 16.1424 9.21944 17.2494 10.405 17.8571L10.4051 17.8572C11.2684 18.3013 11.9483 18.4605 13 18.4605C14.0517 18.4605 14.7316 18.3013 15.5949 17.8572L15.5949 17.8572C17.0287 17.1204 18.0318 15.7704 18.3967 14.0708L18.3968 14.0705C18.4373 13.8846 18.4593 13.4482 18.4593 13C18.4593 12.5518 18.4373 12.1154 18.3968 11.9295L18.3968 11.9294C18.1519 10.7997 17.7542 10.0386 16.938 9.14722L16.9378 9.14703C16.2785 8.42328 15.2824 7.87872 14.1718 7.63359ZM7.32517 9.37551L7.32577 9.37461C7.52824 9.0709 7.56796 8.9558 7.56796 8.83594V8.73281H5.91601H4.26388L4.2539 14.6556L4.2539 14.6557L4.23866 20.6784L4.23855 20.7235L4.20467 20.7532L4.03766 20.9L3.87574 21.0468L3.84715 21.0727H3.80858H3.00624H2.4504L4.1332 22.7555L5.9161 24.5384L7.68856 22.7708L7.68875 22.7706L9.36406 21.0907L8.7972 21.0726L8.79693 21.0726C8.57497 21.0649 8.36272 21.0534 8.19906 21.0406C8.11736 21.0342 8.04679 21.0274 7.99278 21.0204C7.96587 21.0169 7.94188 21.0133 7.92214 21.0094C7.90641 21.0063 7.8831 21.0012 7.86356 20.9918C7.80003 20.9615 7.73628 20.9229 7.68875 20.8416C7.64491 20.7666 7.62035 20.6645 7.60413 20.5205C7.5716 20.2316 7.56796 19.7177 7.56796 18.7688V16.9958L7.32528 16.6246L7.32517 16.6245C6.60367 15.5165 6.24765 14.3194 6.24765 12.9949C6.24765 11.6754 6.60374 10.4834 7.32517 9.37551Z" stroke="#888888" stroke-opacity="0.6" stroke-width="0.2"/>
<path d="M12.6852 9.06953L12.6699 9.60273L12.3348 9.71445C11.5172 9.98867 11.0703 10.5777 11.0703 11.3699C11.0703 12.1875 11.5324 12.6953 12.7461 13.2234C13.4469 13.5281 13.7414 13.7262 13.9242 14.0105C14.0613 14.2238 14.0715 14.2746 14.0562 14.6098C14.041 14.9246 14.0207 14.9957 13.8836 15.1684C13.7973 15.275 13.6145 15.4172 13.4773 15.4883C13.2641 15.6 13.1676 15.6152 12.7461 15.6152C12.2383 15.6102 11.9336 15.5391 11.4613 15.3004L11.2227 15.1836L11.1668 15.3207C11.0602 15.5949 10.9688 15.859 10.9688 15.8945C10.9688 15.9148 11.1211 16.0012 11.3141 16.0875C11.6187 16.2246 11.827 16.2805 12.4566 16.377L12.6445 16.4074V16.9355V17.4688H12.9746H13.3047V16.9152V16.3617L13.65 16.2551C14.2848 16.0621 14.7113 15.6762 14.9348 15.0922C15.0211 14.8535 15.0363 14.7215 15.0211 14.3711C14.9957 13.9191 14.9094 13.6754 14.6402 13.3199C14.4574 13.0762 13.909 12.7309 13.2844 12.4617C12.4008 12.0758 12.0859 11.8117 12.0047 11.3902C11.9234 10.9688 12.2637 10.4813 12.7105 10.3645C13.1727 10.2527 13.7465 10.3188 14.2543 10.5422C14.5031 10.6488 14.5285 10.6539 14.5641 10.5727C14.6656 10.3797 14.7926 9.95313 14.7672 9.92266C14.6809 9.84141 14.0105 9.63828 13.7262 9.61289L13.4062 9.58242V9.05938V8.53125H13.0508H12.7004L12.6852 9.06953Z" fill="#888888" fill-opacity="0.6"/>
</g>
<defs>
<clipPath id="clip0_1_5559">
<rect width="26" height="26" fill="white"/>
</clipPath>
</defs>
</svg>
