<svg width="24" height="24" viewBox="0 0 24 24" fill="none" xmlns="http://www.w3.org/2000/svg">
<path d="M5.78902 0.0930606C5.3109 0.280561 5.28746 0.318061 3.41715 3.56181C2.45621 5.22587 1.64527 6.679 1.61246 6.7915C1.55621 6.96493 1.54683 8.34306 1.54683 14.7368C1.54683 23.3149 1.52808 22.7806 1.85152 23.2727C1.94527 23.4134 2.1234 23.5915 2.26402 23.6852C2.7609 24.0227 2.02965 23.9993 12 23.9993C21.9703 23.9993 21.239 24.0227 21.7359 23.6852C21.8765 23.5915 22.0546 23.4134 22.1484 23.2727C22.4718 22.7806 22.4531 23.3196 22.4531 14.6618V6.83837L22.3546 6.6415C22.2984 6.53368 21.4828 5.11337 20.5453 3.4915C18.7078 0.308686 18.689 0.275873 18.1968 0.0930606C17.9531 -0.00068941 17.8265 -0.000689409 11.9859 0.00399809C6.20152 0.00399809 6.01402 0.00868559 5.78902 0.0930606ZM11.2968 5.95243H7.49527C4.10152 5.95243 3.69371 5.94306 3.72183 5.88212C3.74527 5.82118 5.15621 3.35556 6.00933 1.88369L6.29058 1.40556H11.2968V5.95243ZM19.0031 3.63212C19.7015 4.8415 20.2921 5.86337 20.3109 5.8915C20.3437 5.93837 19.5796 5.95243 16.5515 5.95243H12.75V1.40556L15.239 1.41494L17.7281 1.429L19.0031 3.63212ZM21.0468 14.8915C21.0468 21.8337 21.0421 22.429 20.9671 22.5087C20.8968 22.5884 20.5546 22.5931 12.0093 22.5931C3.80621 22.5931 3.11715 22.5884 3.03746 22.5134C2.95777 22.4431 2.95308 22.1431 2.95308 14.8962V7.35868H21.0468V14.8915Z" fill="#08908C"/>
<path d="M14.3906 12.5197C14.325 12.5432 13.5469 13.2932 12.6563 14.1838L11.0391 15.7963L10.4063 15.1588C10.0594 14.8119 9.71719 14.4932 9.64688 14.4557C9.35157 14.301 8.94844 14.4275 8.76563 14.7275C8.65313 14.9104 8.64375 15.2291 8.7375 15.4119C8.82188 15.5619 10.6219 17.3572 10.7672 17.4322C10.8938 17.4979 11.1563 17.4979 11.3297 17.4322C11.4797 17.376 15.2063 13.6822 15.3094 13.49C15.3469 13.4197 15.375 13.265 15.375 13.1479C15.375 12.7541 15.1406 12.5057 14.7469 12.4822C14.6156 12.4775 14.4563 12.4916 14.3906 12.5197Z" fill="#08908C"/>
</svg>
