<svg width="24" height="24" viewBox="0 0 24 24" fill="none" xmlns="http://www.w3.org/2000/svg">
<path d="M13.814 0.154686C13.6312 0.328125 13.5656 0.553123 13.6171 0.829687C13.6406 0.965624 13.7624 1.12031 14.2359 1.60312L14.8265 2.20312H13.2609C11.5312 2.20312 10.8984 2.24531 10.0406 2.41875C8.60151 2.70469 7.12026 3.40312 5.95307 4.34531C5.49838 4.71094 4.64526 5.59687 4.29838 6.05625C2.9437 7.86562 2.22651 10.1203 2.31088 12.3047C2.36713 13.7578 2.6812 14.9625 3.34213 16.3078C3.68901 17.0016 3.82026 17.1328 4.19995 17.1328C4.57026 17.1328 4.86088 16.8797 4.90307 16.5187C4.92651 16.3641 4.88432 16.2469 4.62651 15.7266C3.86713 14.1984 3.5812 12.6844 3.75463 11.1187C4.14838 7.51875 6.78276 4.56094 10.2703 3.80156C10.9968 3.64687 11.6906 3.60469 13.3078 3.61875L14.8265 3.63281L14.264 4.21875C13.9546 4.54219 13.6781 4.85156 13.6499 4.90781C13.5046 5.175 13.6406 5.5875 13.9312 5.76562C14.114 5.87812 14.4328 5.8875 14.6156 5.79375C14.6859 5.75625 15.2953 5.17031 15.9703 4.49062C17.0343 3.42187 17.1984 3.23437 17.2265 3.07969C17.2968 2.71875 17.2359 2.62969 16.0078 1.37344C15.3749 0.726562 14.789 0.15 14.6999 0.0984364C14.5874 0.0281239 14.4656 0 14.2593 0C14.0015 0 13.9593 0.014061 13.814 0.154686Z" fill="#08908C"/>
<path d="M19.5469 6.83422C19.3219 6.94672 19.1719 7.18578 19.1719 7.4389C19.1719 7.59359 19.2375 7.7764 19.4578 8.21234C19.7813 8.85922 20.0531 9.63734 20.2125 10.3592C20.3016 10.7858 20.3156 10.992 20.3203 11.9061C20.3203 12.8248 20.3063 13.0311 20.2125 13.4905C20.0531 14.278 19.8234 14.9436 19.4531 15.6795C19.0406 16.4998 18.6328 17.0764 18 17.7373C16.8 18.9842 15.45 19.7436 13.7766 20.1045C13.0734 20.2545 12.4219 20.2967 10.7578 20.2967H9.21563L9.80625 19.6967C10.2703 19.228 10.4063 19.0592 10.4484 18.9092C10.5328 18.5998 10.4156 18.3045 10.1484 18.1405C9.9375 18.0092 9.54844 18.0233 9.37031 18.1686C9.30938 18.2155 8.71406 18.8061 8.05313 19.4811L6.84375 20.6998V20.9483C6.84375 21.0795 6.87188 21.2483 6.90938 21.3186C6.94688 21.3889 7.53281 21.9983 8.2125 22.6733C9.28594 23.742 9.46875 23.9014 9.62344 23.9342C10.1391 24.028 10.5656 23.5827 10.4531 23.0764C10.4203 22.9452 10.2797 22.7764 9.81563 22.3077L9.225 21.7123L11.1609 21.6889C13.2188 21.6608 13.5375 21.6327 14.5172 21.3795C17.8688 20.5123 20.5688 17.7842 21.4453 14.3717C21.6656 13.5092 21.75 12.8342 21.75 11.9295C21.75 10.3686 21.4313 9.01859 20.7328 7.61703C20.4469 7.04515 20.3438 6.90922 20.1234 6.81547C19.9219 6.7264 19.7438 6.73109 19.5469 6.83422Z" fill="#08908C"/>
<path d="M11.7187 7.11095C11.6296 7.15782 11.5078 7.26564 11.4515 7.3547C11.3578 7.49064 11.3437 7.57501 11.3437 7.96408V8.41876L11.0156 8.47032C10.5984 8.53595 10.2421 8.70939 9.91401 9.00939C9.47339 9.41251 9.23433 9.95157 9.23433 10.5422C9.23433 11.2734 9.59526 11.9297 10.2234 12.3328C10.6265 12.5906 10.8 12.6234 11.939 12.6516C12.8906 12.6797 12.989 12.6891 13.1062 12.7781C13.3406 12.9516 13.425 13.1063 13.425 13.3594C13.425 13.6219 13.3312 13.7859 13.0781 13.9547C12.9234 14.0625 12.9046 14.0625 11.3484 14.0625C9.94214 14.0625 9.75464 14.0719 9.60933 14.1469C9.10776 14.3953 9.10776 15.1359 9.60933 15.3844C9.74526 15.4547 9.90464 15.4688 10.5609 15.4688H11.3437V15.9328C11.3437 16.3313 11.3578 16.4109 11.4515 16.5516C11.7375 16.9781 12.3 16.9688 12.6281 16.5328C12.7031 16.4297 12.7265 16.3125 12.7406 15.9469L12.7593 15.4875L13.0593 15.4359C13.9734 15.2766 14.6625 14.5875 14.8171 13.6734C14.9578 12.8391 14.4843 11.8875 13.7437 11.5125C13.3078 11.2922 13.0406 11.25 12.0703 11.25C11.2921 11.25 11.1562 11.2406 11.0156 11.1609C10.5421 10.9125 10.5093 10.2422 10.9546 9.95157C11.0671 9.87657 11.2453 9.8672 12.7312 9.84376C14.3062 9.82032 14.3906 9.81564 14.5125 9.72189C14.7421 9.55314 14.8265 9.39376 14.8312 9.14532C14.8359 8.8922 14.7515 8.73283 14.5125 8.55939C14.3953 8.47032 14.3062 8.46095 13.5703 8.44689L12.7593 8.43283L12.7406 7.96876C12.7265 7.47189 12.675 7.3547 12.4125 7.15782C12.239 7.02658 11.9203 7.00782 11.7187 7.11095Z" fill="#08908C"/>
</svg>
