<svg width="101" height="101" viewBox="0 0 101 101" fill="none" xmlns="http://www.w3.org/2000/svg">
<rect x="1.25" y="1.96899" width="98" height="98" rx="9" fill="#00A64F" fill-opacity="0.1"/>
<g clip-path="url(#clip0_60_458)">
<path d="M28.6406 27.1003C27.8063 27.4659 27.4875 28.6471 28.0406 29.3409C28.1438 29.4721 28.5469 29.7815 28.95 30.0253C30.525 30.9815 32.3438 32.6034 33.9469 34.469C40.7719 42.4659 45.7313 55.2909 48.5625 72.2503C48.8906 74.1909 49.0125 74.4721 49.65 74.7815C50.2406 75.0721 50.8031 74.9971 51.2625 74.5659C51.6469 74.2096 51.75 73.8909 51.8438 72.7003C52.425 65.6971 54.0938 58.4409 56.4563 52.6753L56.9344 51.5128L57.4594 51.5784C57.75 51.6159 58.5094 51.644 59.1563 51.644C63.5063 51.6253 67.3688 49.5721 70.2563 45.7284C71.5125 44.0503 72.1688 42.2315 72.5813 39.344C72.7594 38.0315 72.7406 34.3003 72.525 32.5471C72.3656 31.1971 72 28.9753 71.8125 28.2721C71.5031 27.1378 70.3594 26.6409 69.4875 27.2784C69.3281 27.3909 68.8313 27.7659 68.3813 28.1034C66.5063 29.5565 63.0469 31.3471 59.175 32.8846C56.625 33.8971 55.3781 34.6659 54.1313 35.9878C51.5719 38.6878 50.8875 42.5409 52.2281 46.6565C52.5375 47.6034 53.4469 49.5628 53.85 50.1534L54.0844 50.5003L53.475 52.0284C52.275 54.9909 51.0938 58.8909 50.3344 62.4065L50.0156 63.8503L49.9125 63.4378C49.8469 63.2034 49.6031 62.1909 49.3594 61.1878C47.7938 54.7471 45.6188 48.494 43.1344 43.3378C39.8906 36.5878 35.55 30.9159 31.4531 28.0753C29.9344 27.0159 29.3156 26.8096 28.6406 27.1003ZM69.525 32.6409C69.7594 34.4315 69.7594 38.0503 69.5438 39.4378C69.3469 40.6284 68.9906 41.9128 68.6344 42.6721C68.1094 43.8065 66.45 45.7003 65.1094 46.7034C64.2094 47.3784 62.625 48.119 61.5 48.3909C60.6094 48.6065 58.3125 48.8315 58.3125 48.7003C58.3125 48.6721 58.5469 48.2315 58.8375 47.7253C59.9813 45.7003 61.2188 43.9471 62.775 42.1378C63.3938 41.4253 63.6656 41.0409 63.7125 40.8065C63.9 39.7565 63.0844 38.8565 62.0531 38.9971C61.5563 39.0628 61.2469 39.3159 60.3469 40.3565C58.8656 42.0815 57.5344 43.9753 56.3438 46.0659C56.0156 46.6471 55.7156 47.0971 55.6781 47.0503C55.5375 46.9096 55.0313 45.5221 54.8344 44.7721C54.5625 43.6753 54.4969 42.0346 54.6938 41.1253C54.975 39.8221 55.7438 38.5003 56.7469 37.6003C57.6469 36.8034 58.0031 36.6253 61.1438 35.3221C63.8625 34.2065 66.8156 32.7346 68.5313 31.6471C68.9156 31.394 69.2625 31.2253 69.3 31.2628C69.3281 31.3003 69.4406 31.919 69.525 32.6409Z" fill="#76C893"/>
</g>
<rect x="1.25" y="1.96899" width="98" height="98" rx="9" stroke="white" stroke-width="2"/>
<defs>
<clipPath id="clip0_60_458">
<rect width="48" height="48" fill="white" transform="translate(26.25 26.969)"/>
</clipPath>
</defs>
</svg>
