<svg width="101" height="101" viewBox="0 0 101 101" fill="none" xmlns="http://www.w3.org/2000/svg">
<rect x="1.5" y="1.96899" width="98" height="98" rx="9" fill="#E53D00" fill-opacity="0.1"/>
<g clip-path="url(#clip0_60_464)">
<path d="M48.625 29.9409C44.1344 30.2409 40.4406 31.0752 37.0281 32.5471C32.6219 34.4502 29.2469 37.3846 27.6344 40.694C27.2125 41.5752 26.9687 42.2596 26.6781 43.4221C26.6031 43.7502 26.5562 45.3252 26.5281 48.719C26.4719 55.0096 26.575 56.0409 27.4281 57.8596C28.1594 59.4159 29.3219 60.8409 30.6437 61.7784C31.5156 62.3971 32.875 63.0252 33.9531 63.3065C34.7406 63.5034 35.2187 63.5596 36.9531 63.6252C39.55 63.719 40.6375 63.9534 42.2969 64.769C43.6281 65.4253 44.3031 65.9034 45.8594 67.3284C48.25 69.5128 50.2844 70.6659 53.1156 71.444C54.5594 71.8471 55.7687 72.0065 57.4375 72.0065C60.2031 71.9971 62.2844 71.5378 64.7031 70.3753C70.0469 67.8065 73.6469 62.8471 74.3687 57.0815C74.5281 55.7502 74.5562 46.8065 74.4062 45.3627C74.0406 41.9784 72.5781 38.969 70.1312 36.569C66.3906 32.8846 60.0906 30.4659 52.9375 29.969C51.6812 29.8846 49.6281 29.8659 48.625 29.9409ZM54.2687 32.9221C60.0812 33.569 65.275 35.6877 68.1812 38.5752C70.7312 41.1159 71.9781 44.6034 71.6031 48.1003C71.1531 52.2346 68.875 55.9659 65.3781 58.319C62.8844 59.9878 60.4 60.7659 57.5312 60.7565C53.6406 60.7471 50.7344 59.5471 47.5562 56.6409C45.6344 54.8877 44.0406 53.894 41.9969 53.1909C40.4406 52.6471 39.3437 52.4596 37.1406 52.3752C34.9562 52.2909 34.3 52.1596 33.25 51.6346C32.4719 51.2409 32.2 51.044 31.525 50.4065C30.1094 49.0659 29.3781 47.3596 29.3781 45.3909C29.3875 42.1846 31.2344 39.3252 34.8531 36.9159C38.35 34.5909 43.0844 33.1377 48.4375 32.744C49.4031 32.6784 53.0687 32.7815 54.2687 32.9221ZM30.0344 52.8627C30.5406 53.3127 31.5531 53.969 32.1719 54.2502C33.7094 54.9346 34.525 55.094 36.9062 55.1877C39.5406 55.2909 40.7125 55.544 42.4469 56.4065C43.6281 56.9878 44.3781 57.5315 45.8125 58.8534C46.3 59.3034 47.0031 59.894 47.3594 60.1753C51.6719 63.494 57.5312 64.4878 62.725 62.7627C63.7937 62.4065 65.8 61.4409 66.7187 60.8409C68.2281 59.8471 70.075 58.1128 71.1156 56.7065C71.3969 56.3409 71.6312 56.0315 71.6406 56.0315C71.6594 56.0315 71.65 56.2096 71.6219 56.4253C71.1344 60.7378 68.8937 64.4034 65.275 66.8315C61.0469 69.6534 55.7781 70.0003 51.2406 67.7409C50.1062 67.1784 48.9344 66.344 47.6875 65.2003C45.85 63.5221 44.7812 62.7815 43.1969 62.0877C41.2375 61.2253 39.775 60.9159 37.1406 60.8127C34.8906 60.719 34.45 60.6346 33.1937 60.0159C31.5437 59.2096 30.1656 57.5877 29.65 55.844C29.3406 54.8034 29.0969 52.5252 29.2844 52.3471C29.35 52.2721 29.4719 52.3565 30.0344 52.8627Z" fill="#E53D00"/>
<path d="M48.0625 35.594C42.175 36.1096 37.0562 38.1065 34.2719 40.9659C33.0531 42.2221 32.3969 43.4315 32.2 44.7721C31.9562 46.4878 32.8281 48.194 34.3656 49.0378C35.0406 49.4034 35.875 49.5628 37.1406 49.5628C40.45 49.5721 43.4594 50.3971 46.225 52.0753C47.3125 52.7221 48.25 53.4534 49.4687 54.5878C51.1187 56.1159 52.3562 56.8753 54.0719 57.4284C55.2437 57.794 55.7781 57.8971 56.9125 57.9628C60.2125 58.169 63.5687 56.7253 65.875 54.1096C67.5719 52.1878 68.5656 49.8159 68.7437 47.2846C68.9219 44.7815 67.8625 42.1284 65.9969 40.3659C64.0281 38.5096 60.0812 36.7659 56.2375 36.0534C53.8469 35.6128 50.2187 35.4065 48.0625 35.594ZM52.5156 38.4065C56.9687 38.7346 60.8312 39.9815 63.475 41.9315C64.7687 42.8878 65.5187 44.069 65.8375 45.6253C66.2594 47.744 65.425 50.369 63.7 52.3284C62.725 53.4346 60.8406 54.5878 59.4062 54.9534C58.3844 55.2065 57.0625 55.2346 56.0219 55.019C54.175 54.6346 52.8719 53.9315 51.2969 52.4503C49.675 50.9221 48.3625 49.9753 46.6562 49.0659C43.7687 47.5471 40.4687 46.7503 36.9906 46.7503C36.1187 46.7503 35.9594 46.7221 35.6875 46.5346C35.1625 46.1784 34.9844 45.8596 34.9937 45.2878C35.0125 44.6128 35.3781 43.9096 36.1281 43.094C39.0906 39.8971 45.9719 37.9284 52.5156 38.4065Z" fill="#E53D00"/>
<path d="M56.4531 44.0315C54.6063 44.2753 52.9375 45.3534 52.2531 46.7409C51.9906 47.2846 51.9531 47.444 51.9531 48.1565C51.9531 48.869 51.9813 49.019 52.2625 49.5815C52.8438 50.7628 54.1469 51.7284 55.75 52.1503C56.5 52.3471 58.3844 52.3753 59.125 52.2065C60.8875 51.7846 62.2188 50.8378 62.8094 49.5815C63.0719 49.0284 63.1094 48.8596 63.1094 48.1565C63.1094 47.4534 63.0719 47.2846 62.8094 46.7315C61.8906 44.7815 59.2656 43.6659 56.4531 44.0315ZM58.4875 46.8534C59.4625 47.0596 60.3438 47.6971 60.3438 48.1753C60.3438 48.4659 59.6125 49.1128 59.0688 49.3096C57.6438 49.8159 55.6938 49.4878 54.9625 48.6253C54.6531 48.2503 54.6531 48.0628 54.9625 47.6878C55.5906 46.9471 57.1562 46.5721 58.4875 46.8534Z" fill="#E53D00"/>
</g>
<rect x="1.5" y="1.96899" width="98" height="98" rx="9" stroke="white" stroke-width="2"/>
<defs>
<clipPath id="clip0_60_464">
<rect width="48" height="48" fill="white" transform="translate(26.5 26.969)"/>
</clipPath>
</defs>
</svg>
